<svg width="62" height="32" viewBox="0 0 62 32" fill="none" xmlns="http://www.w3.org/2000/svg">
<mask id="mask0_36_1212" style="mask-type:luminance" maskUnits="userSpaceOnUse" x="0" y="0" width="62" height="32">
<path d="M0 31.958L3.81095e-07 0L61.4533 7.32823e-07L61.4533 31.958L0 31.958Z" fill="white"/>
</mask>
<g mask="url(#mask0_36_1212)">
<path d="M30.737 0.0744099C30.9485 0.0639271 31.1606 0.0639271 31.3721 0.0744099C31.577 0.0744099 31.7409 0.122057 31.8367 0.142546L31.8367 0.143021C32.093 0.185904 32.346 0.245467 32.5948 0.320746C32.711 0.355051 32.8268 0.396023 32.9431 0.443669C33.218 0.54468 33.4853 0.665709 33.7426 0.805312L33.9746 0.942059C34.1766 1.0588 34.3706 1.18887 34.5554 1.33134L59.0082 20.1561C60.5629 21.331 61.4758 23.167 61.474 25.1152C61.4716 26.4902 61.018 27.8267 60.1832 28.9198L59.7873 29.4386L59.7868 29.4386C58.7767 30.7609 57.2805 31.6257 55.6305 31.841C53.98 32.0563 52.3124 31.6046 50.9964 30.5864L30.7372 15.0197L10.4573 30.5864C9.14321 31.5961 7.48164 32.0426 5.83836 31.8272C4.19448 31.6123 2.70416 30.7527 1.69395 29.4386L1.29799 28.9198C0.460353 27.8277 0.00442785 26.4912 3.6689e-05 25.1152C-0.00663397 23.1702 0.898666 21.3349 2.44531 20.1561L26.9115 1.35939C27.0964 1.21884 27.2903 1.09114 27.4923 0.976782L27.7243 0.840035C27.9812 0.695664 28.2485 0.569884 28.5234 0.464581C28.6396 0.416933 28.7554 0.375958 28.8855 0.33498L28.8855 0.334504C29.1299 0.260174 29.3787 0.200608 29.6302 0.157256C29.7122 0.157256 29.8828 0.10961 30.1082 0.0891212L30.1082 0.0886444C30.3173 0.073397 30.527 0.0686325 30.7366 0.0748257L30.737 0.0744099Z" fill="#F7D8B3"/>
<path d="M30.737 0.0744099C30.9485 0.0639271 31.1606 0.0639271 31.3721 0.0744099C31.577 0.0744099 31.7409 0.122057 31.8367 0.142546L31.8367 0.143021C32.093 0.185904 32.346 0.245467 32.5948 0.320746C32.711 0.355051 32.8268 0.396023 32.9431 0.443669C33.218 0.54468 33.4853 0.665709 33.7426 0.805312L33.9746 0.942059C34.1766 1.0588 34.3706 1.18887 34.5554 1.33134L59.0082 20.1561C60.5629 21.331 61.4758 23.167 61.474 25.1152C61.4716 26.4902 61.018 27.8267 60.1832 28.9198L59.7873 29.4386L59.7868 29.4386C58.7767 30.7609 57.2805 31.6257 55.6305 31.841C53.98 32.0563 52.3124 31.6046 50.9964 30.5864L30.7372 15.0197L10.4573 30.5864C9.14321 31.5961 7.48164 32.0426 5.83836 31.8272C4.19448 31.6123 2.70416 30.7527 1.69395 29.4386L1.29799 28.9198C0.460353 27.8277 0.00442785 26.4912 3.6689e-05 25.1152C-0.00663397 23.1702 0.898666 21.3349 2.44531 20.1561L26.9115 1.35939C27.0964 1.21884 27.2903 1.09114 27.4923 0.976782L27.7243 0.840035C27.9812 0.695664 28.2485 0.569884 28.5234 0.464581C28.6396 0.416933 28.7554 0.375958 28.8855 0.33498L28.8855 0.334504C29.1299 0.260174 29.3787 0.200608 29.6302 0.157256C29.7122 0.157256 29.8828 0.10961 30.1082 0.0891212L30.1082 0.0886444C30.3173 0.073397 30.527 0.0686325 30.7366 0.0748257L30.737 0.0744099Z" fill="#F7D8B3"/>
</g>
</svg>
