<?xml version="1.0" encoding="utf-8"?>
<!-- Generator: Adobe Illustrator 23.1.0, SVG Export Plug-In . SVG Version: 6.00 Build 0)  -->
<svg version="1.1" id="Calque_1" xmlns="http://www.w3.org/2000/svg" xmlns:xlink="http://www.w3.org/1999/xlink" x="0px" y="0px"
	 viewBox="0 0 1440 427" style="enable-background:new 0 0 1440 427;" xml:space="preserve">
<style type="text/css">
	.st0{fill:#4B1912;}
	.st1{fill:#33120E;}
	.st2{fill:#B68176;}
	.st3{fill:#CF9083;}
	.st4{fill:#4B1810;}
	.st5{fill:#D63C1A;}
</style>
<path class="st0" d="M952.8,398.9h-2.4c-66.9-0.8-127.5-31.5-176.3-88.2c-9.4-11-17.3-22-23.6-31.5c-7.1,10.2-15,20.5-24.4,31.5
	c-49.6,54.3-111,83.4-178.7,82.7c-103.9-0.8-187.4-84.2-186.6-184.2c0.8-48.8,21.3-94.5,57.5-128.3s83.4-52,133.8-51.2
	c66.9,0.8,127.5,31.5,176.3,88.2c9.4,11,17.3,22,23.6,31.5c7.1-10.2,15-20.5,24.4-31.5c49.6-55.9,111-85,178.7-84.2
	c103.9,1.6,188.1,84.2,186.6,184.2c-0.8,48.8-21.3,94.5-57.5,128.3C1048.9,380,1002.4,398.9,952.8,398.9L952.8,398.9z M786,213.9
	c15.7,32.3,67.7,119.7,165.3,121.2c33.9,0.8,66.1-11.8,89.7-34.6c23.6-22,37-52,37.8-83.4c0.8-65.3-55.1-119.7-124.4-120.4
	C856.8,95.8,802.5,182.4,786,213.9L786,213.9z M549.8,91.9c-33.1,0-64.6,11.8-88.2,34.6c-23.6,22-37,52-37.8,83.4
	c-0.8,65.3,55.1,119.7,124.4,120.4h2.4c96,0,149.6-85,166.1-117.3C700.9,180.8,649,93.4,551.4,91.9H549.8L549.8,91.9z"/>
<path class="st1" d="M431,268.3l5.3,5.4c9,9.2,8.9,24-0.3,33.1c-1.1,1.1-1.1,2.9,0,4c1.1,1.1,2.9,1.1,4,0c9.2-9,24-8.9,33.1,0.3
	l2.6,2.6c0.7,0.7,0.8,1.9,0,2.7c-0.8,0.8-1.9,0.8-2.7,0l-2.6-2.6c-7.6-7.8-20.1-7.9-27.9-0.2c-2.6,2.5-6.7,2.6-9.3-0.1
	c-2.6-2.6-2.6-6.7,0.1-9.3c7.8-7.6,7.9-20.1,0.2-27.9l-5.3-5.4c-0.7-0.7-0.8-1.9,0-2.7C429,267.4,430.3,267.6,431,268.3L431,268.3z
	 M481.9,320.8c0.1,0.1,0.4,0.4,0.4,0.6c0.1,0.1,0,0.1,0.1,0.2c0.4,1-0.1,2-1,2.4c-1,0.4-2-0.1-2.4-1c0,0-0.1-0.1,0-0.1
	c-0.4-1,0.1-2,0.9-2.5C480.6,320,481.4,320.2,481.9,320.8L481.9,320.8z M422.5,265.8c0.2,0.2,0.3,0.4,0.4,0.7c0.3,0.9-0.2,2-1.2,2.4
	c0,0-0.1,0.1-0.1,0c-0.9,0.3-2-0.1-2.5-1.1c-0.3-0.9,0.1-2,1.1-2.5c0.1-0.1,0.1,0,0.2-0.1C421.3,265.2,422.1,265.3,422.5,265.8z
	 M479.9,329.4L479.9,329.4c0.7,0.9,0.6,2.1-0.2,2.7c-3.7,3.2-9.4,2.9-12.8-0.6l-7.2-7.3c-1.8-1.9-4.8-1.9-6.6-0.1
	c-8.5,8.3-22.2,8.2-30.5-0.2c-8.3-8.5-8.2-22.2,0.2-30.5c1.9-1.8,1.9-4.8,0.1-6.6l-5.9-6c-1.6-1.6-2.6-3.9-2.7-6.2
	c-0.1-1.1,0.8-1.9,1.8-1.9c1.1-0.1,1.9,0.8,1.9,1.8c0.1,1.3,0.6,2.8,1.6,3.8l6,6.1c3.3,3.4,3.2,8.7-0.1,11.9
	c-7,6.9-7.1,18.2-0.2,25.2c6.9,7,18.2,7.1,25.2,0.2c3.4-3.3,8.7-3.2,11.9,0.1l7.2,7.3c2,2.1,5.4,2.2,7.6,0.3
	C478.2,328.7,479.2,328.7,479.9,329.4L479.9,329.4z"/>
<path class="st1" d="M477.7,315.8c0.7,0.7,0.8,1.9,0,2.7L467,329c-0.7,0.7-1.9,0.8-2.7,0c-0.7-0.7-0.8-1.9,0-2.7l10.7-10.5
	C475.9,315.1,477,315.1,477.7,315.8z"/>
<path class="st1" d="M465.9,306.4c0.5,0.5,0.7,1.1,0.5,1.8l-4.1,14.5c-0.3,1-1.3,1.5-2.3,1.3c-1-0.3-1.5-1.3-1.3-2.3l4.1-14.5
	c0.3-1,1.3-1.5,2.3-1.3C465.4,306,465.7,306.1,465.9,306.4z"/>
<path class="st1" d="M436.7,311.5c0.7,0.7,0.8,1.9,0,2.7l-9.3,9.2c-0.7,0.7-1.9,0.8-2.7,0c-0.7-0.7-0.8-1.9,0-2.7l9.3-9.2
	C434.8,310.7,436,310.7,436.7,311.5z"/>
<path class="st1" d="M434.1,306.1c0.3,0.3,0.4,0.6,0.5,0.9c0.2,1.1-0.4,2-1.5,2.2l-13.3,2.6c-1.1,0.2-2-0.4-2.2-1.5
	c-0.2-1.1,0.4-2,1.5-2.2l13.3-2.6C433,305.5,433.7,305.7,434.1,306.1z"/>
<path class="st1" d="M439.5,298.3c0.5,0.5,0.7,1.1,0.5,1.8c-0.3,1-1.3,1.5-2.3,1.3l-14.5-4.1c-1-0.3-1.5-1.3-1.3-2.3
	c0.3-1,1.3-1.5,2.3-1.3l14.5,4.1C439,297.8,439.2,298,439.5,298.3z"/>
<path class="st1" d="M442.2,287.6c0.4,0.4,0.6,0.9,0.5,1.5c-0.1,1.1-1,1.8-2,1.7l-14.6-1.5c-1.1-0.1-1.8-1-1.7-2
	c0.1-1.1,1-1.8,2-1.7l14.6,1.5C441.5,287.1,441.9,287.3,442.2,287.6z"/>
<path class="st1" d="M454,305c0.4,0.4,0.6,0.9,0.6,1.3l-0.1,16c0,1-0.9,1.8-1.9,1.9c-1,0-1.8-0.9-1.9-1.9l0.1-16
	c0-1,0.9-1.8,1.9-1.9C453.2,304.4,453.7,304.6,454,305z"/>
<path class="st1" d="M443.3,310.2c0.4,0.4,0.6,0.9,0.6,1.3l-0.1,16c0,1-0.9,1.8-1.9,1.9c-1,0-1.8-0.9-1.9-1.9l0.1-16
	c0-1,0.9-1.8,1.9-1.9C442.5,309.6,443,309.8,443.3,310.2z"/>
<path class="st1" d="M425,272.9c0.4,0.4,0.6,0.9,0.6,1.3s-0.2,0.9-0.6,1.3c-0.4,0.4-0.9,0.6-1.3,0.6c-0.5,0.1-0.9-0.2-1.3-0.6
	c-0.4-0.4-0.6-0.9-0.6-1.3c0-0.4,0.2-0.9,0.6-1.3s0.9-0.6,1.3-0.6C424.3,272.4,424.7,272.6,425,272.9z"/>
<path class="st1" d="M1077.9,165.2l-4.8-5.9c-8.2-10-6.7-24.8,3.3-32.9c1.2-1,1.3-2.8,0.4-3.9c-1-1.2-2.8-1.3-3.9-0.4
	c-10,8.2-24.8,6.7-32.9-3.3l-2.3-2.9c-0.6-0.8-0.6-2,0.3-2.7c0.8-0.6,2-0.6,2.7,0.3l2.3,2.9c6.9,8.4,19.3,9.7,27.7,2.8
	c2.8-2.3,6.9-1.9,9.3,0.9s1.9,6.9-0.9,9.3c-8.4,6.9-9.7,19.3-2.8,27.7l4.8,5.9c0.6,0.8,0.6,2-0.3,2.7
	C1079.7,166.2,1078.6,166,1077.9,165.2L1077.9,165.2z M1032,108.4c-0.1-0.2-0.3-0.4-0.4-0.6c-0.1-0.1,0-0.1,0-0.2
	c-0.3-1,0.3-2,1.2-2.3c1-0.3,2,0.3,2.3,1.2c0,0,0.1,0.1,0,0.1c0.3,1-0.3,2-1.2,2.4C1033.2,109.3,1032.5,109,1032,108.4L1032,108.4z
	 M1086.1,168.5c-0.2-0.2-0.2-0.5-0.4-0.7c-0.3-0.9,0.4-2,1.4-2.3c0,0,0.1-0.1,0.1,0c0.9-0.3,2,0.3,2.4,1.3c0.3,0.9-0.3,2-1.3,2.4
	c-0.1,0.1-0.1,0-0.2,0C1087.3,169.2,1086.6,169,1086.1,168.5z M1034.7,99.9L1034.7,99.9c-0.6-0.9-0.4-2.1,0.4-2.7
	c4-2.9,9.6-2,12.7,1.8l6.5,8c1.6,2,4.6,2.3,6.6,0.7c9.2-7.5,22.9-6.2,30.4,3c7.5,9.2,6.2,22.9-3,30.4c-2,1.6-2.3,4.6-0.7,6.6
	l5.3,6.5c1.5,1.8,2.2,4.1,2.1,6.4c0,1.1-1,1.8-1.9,1.7c-1.1,0-1.8-1-1.7-1.9c0.1-1.3-0.4-2.8-1.2-3.9l-5.5-6.7
	c-3-3.6-2.4-8.9,1.2-11.8c7.6-6.2,8.7-17.5,2.5-25.1c-6.2-7.6-17.5-8.7-25.1-2.5c-3.6,3-8.9,2.4-11.8-1.2l-6.5-8
	c-1.8-2.2-5.2-2.7-7.6-1C1036.4,100.9,1035.4,100.7,1034.7,99.9L1034.7,99.9z"/>
<path class="st1" d="M1035.7,113.7c-0.6-0.8-0.6-2,0.3-2.7l11.6-9.5c0.8-0.6,2-0.6,2.7,0.3c0.6,0.8,0.6,2-0.3,2.7l-11.6,9.5
	C1037.5,114.6,1036.3,114.5,1035.7,113.7z"/>
<path class="st1" d="M1046.6,124.2c-0.4-0.5-0.6-1.2-0.3-1.8l5.4-14.1c0.4-1,1.4-1.4,2.5-1.1c1,0.4,1.4,1.4,1.1,2.5l-5.4,14.1
	c-0.4,1-1.4,1.4-2.5,1.1C1047.1,124.6,1046.8,124.4,1046.6,124.2z"/>
<path class="st1" d="M1076.1,121.7c-0.6-0.8-0.6-2,0.3-2.7l10.1-8.3c0.8-0.6,2-0.6,2.7,0.3c0.6,0.8,0.6,2-0.3,2.7l-10.1,8.3
	C1077.9,122.7,1076.8,122.6,1076.1,121.7z"/>
<path class="st1" d="M1078.3,127.3c-0.3-0.3-0.4-0.6-0.4-1c-0.1-1.1,0.6-1.9,1.7-2l13.4-1.3c1.1-0.1,1.9,0.6,2,1.7
	c0.1,1.1-0.6,1.9-1.7,2l-13.4,1.2C1079.3,128.1,1078.7,127.8,1078.3,127.3z"/>
<path class="st1" d="M1072.2,134.6c-0.4-0.5-0.6-1.2-0.3-1.8c0.4-1,1.4-1.4,2.5-1.1l14.1,5.4c1,0.4,1.4,1.4,1.1,2.5
	c-0.4,1-1.4,1.4-2.5,1.1l-14.1-5.4C1072.7,135.1,1072.5,134.9,1072.2,134.6z"/>
<path class="st1" d="M1068.6,145c-0.3-0.4-0.5-1-0.3-1.5c0.2-1,1.2-1.7,2.1-1.5l14.4,2.7c1,0.2,1.7,1.2,1.5,2.1
	c-0.2,1-1.2,1.7-2.1,1.5l-14.4-2.8C1069.1,145.5,1068.8,145.3,1068.6,145z"/>
<path class="st1" d="M1058.3,126.6c-0.3-0.4-0.5-0.9-0.4-1.3l1.5-15.8c0.1-1,1-1.7,2.1-1.7c1.1,0,1.7,1,1.7,2.1l-1.5,15.8
	c-0.1,1-1,1.7-2.1,1.7C1059.1,127.3,1058.6,127,1058.3,126.6z"/>
<path class="st1" d="M1069.5,122.4c-0.3-0.4-0.5-0.9-0.4-1.3l1.5-15.8c0.1-1,1-1.7,2.1-1.7c1.1,0,1.7,1,1.7,2.1l-1.5,15.8
	c-0.1,1-1,1.7-2.1,1.7C1070.2,123,1069.8,122.8,1069.5,122.4z"/>
<path class="st1" d="M1084.3,161.2c-0.3-0.4-0.5-0.9-0.4-1.3c0-0.4,0.3-0.9,0.7-1.2s0.9-0.5,1.3-0.4c0.6,0.1,0.9,0.3,1.2,0.7
	c0.3,0.4,0.5,0.9,0.4,1.3c0,0.4-0.3,0.9-0.7,1.2c-0.4,0.3-0.9,0.5-1.3,0.4C1085,161.7,1084.6,161.6,1084.3,161.2z"/>
<path class="st2" d="M245.6,260.5c-3-1-6.1-1.6-8.7-1.8c-2,2.5-3.7,5.1-5.2,7.8c3.1-0.1,6.9,0.4,10.8,1.6c4.9,1.4,9,3.4,11.4,5.3
	c1.2-1.6,2.7-3.2,4.2-4.8C256.5,265.8,251.7,262.5,245.6,260.5z"/>
<path class="st2" d="M251.4,323.4c-2.3,2.9-4.8,5.4-6.9,7c2.1,1.5,4.4,2.7,6.7,3.8c1.8-2.1,3.8-4.8,5.6-8.1
	c2.1-3.6,3.5-7.3,4.2-10.3c0.2-0.6,0.2-1.1,0.3-1.6c-1.2-0.5-2.4-1.1-3.5-1.7c-0.2,0.4-0.3,0.9-0.5,1.5
	C256.1,316.8,254.1,320.2,251.4,323.4z"/>
<path class="st2" d="M257.1,326.3c-1.8,3.2-3.8,6-5.6,8.1c2.4,1.1,5,1.9,7.6,2.6c1.5-2.4,3-5.8,4.2-9.7c1.2-4,1.9-7.8,1.9-10.9
	c0-0.3,0-0.6,0-0.9c-1.2-0.3-2.4-0.6-3.6-1.1c-0.1,0.5-0.2,1-0.3,1.6C260.6,318.9,259.1,322.6,257.1,326.3z"/>
<path class="st2" d="M231.5,266.7c-1.5,2.8-2.8,5.6-3.7,8.5c2.7-0.4,6-0.4,9.6,0c6.1,0.6,11.1,2.2,12.9,3.9c0.9-1.9,2.1-3.8,3.4-5.7
	c-2.4-1.9-6.5-3.9-11.4-5.2C238.4,267.2,234.6,266.6,231.5,266.7z"/>
<path class="st2" d="M297.6,180.5c3.4-1.6,6.7-2.6,9.6-3c-1.2-2.1-2.5-4.1-4-5.9c-2.9,0.9-6.5,2.8-9.9,5.5c-3.5,2.8-6.2,5.8-7.7,8.4
	c0.7,0.8,1.3,1.7,1.9,2.7C289.3,185.5,293,182.6,297.6,180.5z"/>
<path class="st2" d="M263.5,327.3c-1.2,3.9-2.7,7.3-4.2,9.7c1.8,0.4,3.8,0.8,5.7,1c1-2.1,2-4.5,2.8-7.2c1.2-4,1.9-7.8,1.9-10.9
	c0-1.6-0.2-3-0.5-3.8c-1.3-0.1-2.6-0.3-3.8-0.5c0,0.3,0,0.5,0,0.8C265.4,319.4,264.7,323.3,263.5,327.3z"/>
<path class="st2" d="M261.7,237.3c-2,1.3-4.1,2.7-6.1,4.2c2.7,1.1,5.7,3,8.7,5.5c4,3.4,6.9,7.2,8,10.2c1.4-1,2.9-1.9,4.4-2.9
	c0.1-0.1,0.2-0.1,0.2-0.2c-0.9-3-3.4-6.9-7-10.7C267.2,240.8,264.3,238.7,261.7,237.3z"/>
<path class="st2" d="M293,176.7c3.4-2.7,6.9-4.6,9.9-5.5c-1.1-1.3-2.2-2.6-3.5-3.8c-0.3-0.3-0.6-0.6-0.9-0.9c-3,1-7,4-10.4,8
	c-2.3,2.7-4.2,5.5-5.2,8c0.9,0.8,1.7,1.6,2.5,2.6C286.9,182.4,289.6,179.4,293,176.7z"/>
<path class="st2" d="M237.3,275.5c-3.6-0.4-7-0.4-9.6,0c-0.8,2.3-1.4,4.7-1.8,7.1c2.7-0.9,6-1.4,9.5-1.5c5.5-0.2,10.3,0.8,13.2,2.4
	c0.4-1.4,0.9-2.8,1.5-4.1C248.5,277.7,243.3,276.1,237.3,275.5z"/>
<path class="st2" d="M270,319.9c-0.1,3.1-0.8,7-1.9,11c-0.8,2.7-1.8,5.1-2.8,7.2c2.1,0.3,4.3,0.4,6.4,0.3c0.4,0,0.9-0.1,1.3-0.1
	c0.6-2.2,1.1-4.8,1.4-7.5c0.4-4.2,0.4-8.1-0.1-11.1c-0.3-1.5-0.6-2.7-1.1-3.5c-0.5-0.1-1.1-0.1-1.7-0.1s-1.2,0-1.9-0.1
	C269.9,317,270.1,318.3,270,319.9z"/>
<path class="st2" d="M257.4,250.1c-2.7-1.8-5.5-3.1-8-3.9c-2.2,1.8-4.4,3.7-6.5,5.8c2.7,0.4,5.6,1.4,8.6,2.8
	c5.8,2.7,10.1,6.4,11.4,9.3c1.4-1.1,2.8-2.3,4.3-3.4C266.4,257.7,262.6,253.6,257.4,250.1z"/>
<path class="st2" d="M255.3,241.7c-1.9,1.4-3.8,2.8-5.7,4.3c2.5,0.8,5.2,2.2,7.9,3.9c5.2,3.4,8.9,7.6,9.9,10.6
	c1.5-1.1,3-2.2,4.7-3.3c-1.1-2.9-4-6.7-8-10.1C261.2,244.7,258,242.7,255.3,241.7z"/>
<path class="st2" d="M237.5,303.3c-3.8,1.4-7.4,2.5-10.2,3.4c0.5,1.6,1,3.1,1.7,4.7c0.3,0.6,0.5,1.2,0.8,1.7c2.6-0.8,5.8-2,9.5-3.8
	s7.1-3.9,9.5-5.7c0.3-0.2,0.6-0.5,0.9-0.7c-0.5-1.2-0.9-2.5-1.2-3.8c-0.2,0.1-0.4,0.2-0.5,0.3C245.1,300.4,241.4,301.8,237.5,303.3z
	"/>
<path class="st2" d="M239.4,309.4c-3.2,1.6-6.7,3-9.5,3.8c0.9,2,2,3.9,3.2,5.7c2.1-0.9,4.5-2.1,7-3.5c3.6-2.1,6.9-4.3,9.1-6.3
	c1.1-1,1.9-1.8,2.4-2.5c-0.7-1.1-1.4-2.3-1.9-3.5c-0.3,0.2-0.5,0.4-0.8,0.6C246.5,305.5,243.2,307.6,239.4,309.4z"/>
<path class="st2" d="M274.7,330.9c-0.3,2.8-0.8,5.2-1.4,7.5c2.6-0.4,4.9-1.7,6.5-3.5c0-1.6-0.1-3.2-0.2-5c-0.4-4.2-1.2-8-2.3-10.9
	c-0.2-0.6-0.5-1.1-0.8-1.6c-1-0.5-2-0.8-3.1-1c0.4,0.8,0.8,2,1,3.5C275.1,322.7,275.1,326.7,274.7,330.9z"/>
<path class="st2" d="M245.6,319.4c-2.7,2.3-5.4,4.2-7.7,5.5c0.5,0.5,0.9,0.9,1.4,1.4c1.6,1.5,3.2,2.8,5,4c2.2-1.7,4.6-4.1,7-7
	c2.6-3.2,4.7-6.6,5.9-9.4c0.2-0.5,0.4-1,0.5-1.5c-1.2-0.8-2.4-1.7-3.5-2.8c-0.3,0.5-0.6,1.1-1,1.7
	C251.5,313.8,248.8,316.7,245.6,319.4z"/>
<path class="st2" d="M249.4,309.3c-2.3,2-5.5,4.2-9.1,6.3c-2.3,1.4-4.8,2.6-7,3.5c1.4,2,2.9,3.8,4.5,5.6c2.4-1.2,5-3.1,7.7-5.5
	c3.1-2.7,5.8-5.6,7.5-8.2c0.4-0.6,0.7-1.2,1-1.7c-0.8-0.8-1.5-1.6-2.2-2.6C251.2,307.6,250.3,308.6,249.4,309.3z"/>
<path class="st2" d="M279.9,329.8c0.2,1.7,0.2,3.2,0.2,4.8c1.7-2,2.7-4.5,2.7-7.4c-0.1-4.2-2.4-7.8-5.8-9.7c0.2,0.4,0.4,0.9,0.6,1.4
	C278.7,321.7,279.5,325.6,279.9,329.8z"/>
<path class="st2" d="M235.6,288.9c-4,0.7-7.7,1.7-10.4,2.8c0,0.1,0,0.2,0,0.3c0,2.5,0.2,5,0.5,7.4c0.1-0.1,0.2-0.1,0.2-0.1
	c2.8-1.1,6.5-2.3,10.5-3.5c3.4-1,7.8-2.2,11.1-2.8c0-0.4-0.1-0.9-0.1-1.3c0-1.3,0.1-2.5,0.2-3.8C244.9,287.8,240.7,288,235.6,288.9z
	"/>
<path class="st2" d="M310.2,184.1c-0.8-2.2-1.8-4.4-3-6.4c-2.8,0.4-6.2,1.4-9.6,3c-4.6,2.2-8.3,5-10.1,7.5c0.5,1,1.1,2,1.5,3.1
	c2.3-2.2,6.3-4.3,11-5.7C303.7,184.5,307.2,184,310.2,184.1z"/>
<path class="st2" d="M225.8,299.6c0.3,2.3,0.9,4.6,1.5,6.8c2.6-0.8,6.1-1.9,10.2-3.4c4.5-1.7,8.3-3.2,10.9-4.3
	c-0.4-1.7-0.6-3.5-0.8-5.4c-2.6,0.5-6.4,1.4-11,2.8C232,297.4,228.3,298.7,225.8,299.6z"/>
<path class="st2" d="M225.9,282.9c-0.5,2.8-0.7,5.7-0.7,8.6c2.8-1.1,6.4-2.1,10.4-2.8c4.4-0.8,9-1.2,12.2-1c0.2-1.4,0.4-2.7,0.8-3.9
	c-2.8-1.6-7.6-2.5-13.1-2.4C231.9,281.4,228.6,281.9,225.9,282.9z"/>
<path class="st2" d="M251.4,255c-3-1.4-6.1-2.4-8.7-2.8c-1.3,1.2-2.5,2.6-3.7,3.9c-0.6,0.8-1.3,1.6-1.9,2.3c2.7,0.2,5.6,0.8,8.6,1.8
	c6.1,2.1,10.9,5.2,12.5,8.1c1.4-1.4,2.9-2.8,4.5-4.2C261.5,261.4,257.2,257.7,251.4,255z"/>
<path class="st2" d="M291,201c0,0.3,0,0.6,0,1c0,1.1,0,2.2-0.1,3.2c0.4-0.1,0.8-0.2,1.2-0.3c3-0.6,7-0.5,11,0.2
	c3.9,0.6,7.5,1.9,10,3.3c0.2-2.1,0.3-4.3,0.3-6.6c0-0.2,0-0.4,0-0.5c-2.8-1.2-6.8-1.9-11.3-1.9C297.7,199.2,293.8,199.8,291,201z"/>
<path class="st2" d="M266.8,234.1c-0.7,0.4-1.4,0.9-2.1,1.4c-0.9,0.5-1.8,1.1-2.7,1.7c2.5,1.3,5.4,3.5,8.1,6.2
	c3.6,3.7,6.1,7.6,7,10.7c1.1-0.6,2.1-1.3,3.1-1.9c0.5-0.3,1.1-0.7,1.7-1c-1-2.8-2.9-6.1-5.6-9.2
	C273.2,238.2,269.7,235.4,266.8,234.1z"/>
<path class="st2" d="M239.6,204.5c-1.5,0.2-3.1,0.2-4.8,0.1c-4.4-0.3-8.3-1.7-10.5-3.5c0,0.5,0,1,0,1.6c0,1.8,0.4,3.5,1.2,4.9
	c2.2,1.7,5.7,3,9.8,3.3c3.2,0.2,6.3-0.2,8.8-1.2c1.6-1.9,2.6-4.5,2.5-7.2c0-0.1,0-0.3,0-0.4c-0.6,0.5-1.4,0.9-2.3,1.3
	C242.9,203.8,241.3,204.3,239.6,204.5z"/>
<path class="st2" d="M298.5,223.4c-4.3-2.7-8.9-4.3-12.1-4.5c-0.8,1-1.6,2-2.5,2.9c3.2,0.2,8.2,2.9,12.7,7.2
	c2.2,2.1,3.9,4.3,5.2,6.3c0.3-0.3,0.6-0.6,0.9-1c1.2-1.5,2.4-3.1,3.4-4.7C304.4,227.6,301.7,225.4,298.5,223.4z"/>
<path class="st2" d="M301.1,192.8c-4.3,0.7-8,2-10.6,3.5c0.3,1.4,0.4,2.9,0.5,4.4c2.8-1.1,6.8-1.8,11.1-1.8c4.4,0,8.4,0.8,11.3,1.9
	c-0.1-2.7-0.3-5.4-0.8-8c-0.2-0.1-0.4-0.1-0.6-0.1C309,192.2,305.1,192.2,301.1,192.8z"/>
<path class="st2" d="M300.8,218.2c-4.4-2.1-9-3.1-12.2-3c-0.5,1.2-1.2,2.3-2,3.4c3.2,0.2,7.6,1.8,12,4.5c3.1,1.9,5.8,4.2,7.6,6.3
	c1.1-1.8,2.2-3.7,3-5.7C307.3,221.8,304.3,219.9,300.8,218.2z"/>
<path class="st2" d="M235.3,211.1c-3.9-0.3-7.3-1.4-9.5-3c1.9,3.4,5.6,5.7,9.8,5.6c3.2-0.1,6.1-1.5,8.2-3.6c-1.2,0.4-2.6,0.8-4,1
	C238.2,211.1,236.8,211.2,235.3,211.1z"/>
<path class="st2" d="M302.4,212.1c-4.5-1.6-8.9-2.3-12.1-2c-0.4,1.8-0.9,3.4-1.6,4.9c3.2-0.1,7.6,1,12.1,3c3.5,1.6,6.4,3.6,8.5,5.5
	c0.9-2.1,1.6-4.2,2.2-6.5C309.4,215.3,306.2,213.5,302.4,212.1z"/>
<path class="st2" d="M245.2,177.8c3,2.5,6.3,4.3,9.1,4.8c0.7-0.6,1.5-1.1,2.3-1.6c-2.9-1-6-3.6-8.5-7c-3-3.9-4.5-8.2-4.3-11.3
	c-1.8,1.2-3.6,2.6-5.2,4.1C238.4,169.8,240.9,174.2,245.2,177.8z"/>
<path class="st3" d="M292.4,161.8c-6.8-4.3-14.6-6.7-22.4-6.7h-0.1h-0.1h-0.1h-0.1c-9.6,0.1-18.5,2.6-25.8,7.4
	c-0.3,3,1.2,7.3,4.3,11.3c2.6,3.5,5.8,6.1,8.7,7c3.7-2.2,8.2-3.4,13.1-3.4h0.1h0.1c3.1-0.1,6.8,1,10.2,3.1c0.6-3.2,2.3-7,4.9-10.8
	C287.3,166.4,289.9,163.7,292.4,161.8z"/>
<path class="st2" d="M292.2,205.1c-0.4,0.1-0.9,0.2-1.2,0.3c-0.1,1.6-0.3,3.1-0.5,4.4c3.1-0.3,7.6,0.4,12.1,2c3.7,1.4,7,3.1,9.2,5
	c0.7-2.7,1.1-5.4,1.4-8.3c-2.5-1.4-6.1-2.6-10-3.3C299.1,204.5,295.2,204.5,292.2,205.1z"/>
<path class="st2" d="M283.8,222.1c-0.8,0.8-1.6,1.5-2.4,2.2c2.9,1.3,6.5,4.3,9.6,8.2c2.4,3,4.1,6,5.1,8.7c2-1.7,3.9-3.5,5.6-5.5
	c-1.3-2.1-3.1-4.2-5.2-6.3C292,224.9,286.9,222.1,283.8,222.1z"/>
<path class="st2" d="M245,178c-4.2-3.6-6.7-7.8-6.8-11c-0.4,0.4-0.9,0.8-1.3,1.2c-1.5,1.5-3,3.2-4.5,5.4c1.4,2.5,4.5,5.6,8.8,8
	c3.8,2.2,7.8,3.4,10.7,3.4c0.3-0.3,0.6-0.7,0.9-1c0.4-0.4,0.8-0.8,1.2-1.1C251.2,182.3,247.9,180.5,245,178z"/>
<path class="st2" d="M272.4,230.6c-1.2,0.8-2.6,1.7-4,2.5c-0.4,0.3-0.9,0.5-1.3,0.8c2.9,1.4,6.3,4.2,9.4,7.7
	c2.7,3.2,4.6,6.4,5.6,9.2c1.4-0.8,2.7-1.7,3.9-2.5c-0.8-2.6-2.3-5.7-4.3-8.8C278.7,235.4,275.2,232,272.4,230.6z"/>
<path class="st2" d="M229.1,179.4c1.3,2.7,5.7,5.5,11.4,7.1c3.4,1,6.8,1.4,9.6,1c0.5-0.8,1-1.6,1.7-2.3c-3-0.1-6.8-1.3-10.6-3.5
	c-4.2-2.4-7.4-5.4-8.8-8"/>
<path class="st2" d="M285.3,169.9c-2.5,3.8-4.2,7.7-4.8,10.8c0.8,0.5,1.5,1,2.2,1.6c1.1-2.5,2.9-5.3,5.2-8c3.4-3.9,7.3-6.9,10.4-8
	c-1.8-1.6-3.7-3.1-5.7-4.4C290.2,163.8,287.5,166.6,285.3,169.9z"/>
<path class="st2" d="M277.4,227.2c-1.5,1-3.1,2.1-4.8,3.2c2.9,1.5,6.4,4.9,9.2,9.1c2.1,3,3.5,6.1,4.3,8.8c1.7-1.1,3.3-2.2,4.9-3.4
	c-0.8-2.9-2.6-6.4-5.2-9.8C283.2,231.6,280.1,228.8,277.4,227.2z"/>
<path class="st2" d="M228.9,179.6c-2.6,5.5-4.5,12.4-4.7,21.1c2.2,1.9,6.1,3.3,10.5,3.6c3.5,0.2,6.9-0.2,9.4-1.3
	c0.9-0.4,1.7-0.9,2.4-1.4c0.1-5.5,1.1-10.2,3.3-13.9c-2.8,0.3-6.1-0.1-9.5-1.1C234.8,185.1,230.4,182.3,228.9,179.6z"/>
<path class="st2" d="M281.1,224.4c-1.1,0.9-2.2,1.8-3.5,2.6c2.7,1.6,5.8,4.4,8.4,8c2.6,3.4,4.4,6.9,5.2,9.8c1.6-1.1,3.1-2.3,4.7-3.6
	c-1-2.6-2.8-5.7-5.1-8.7C287.7,228.7,284,225.6,281.1,224.4z"/>
<path class="st2" d="M300.2,185.8c-4.8,1.4-8.7,3.6-11,5.7c0.5,1.4,1,2.9,1.3,4.5c2.6-1.5,6.3-2.8,10.6-3.5c4.1-0.6,8-0.6,11-0.1
	c0.2,0.1,0.3,0.1,0.5,0.1c-0.5-2.9-1.3-5.6-2.3-8.3C307.4,184.2,303.8,184.8,300.2,185.8z"/>
<path class="st4" d="M257.5,250c-2.6-1.7-5.4-3.1-7.9-3.9c-0.1,0.1-0.2,0.1-0.2,0.2c2.5,0.8,5.3,2.2,8,3.9c5.2,3.4,9,7.6,9.8,10.5
	c0.1-0.1,0.1-0.1,0.2-0.2C266.5,257.5,262.7,253.4,257.5,250z"/>
<path class="st4" d="M251.5,254.8c-3-1.4-5.9-2.3-8.6-2.8c-0.1,0.1-0.2,0.2-0.2,0.2c2.7,0.4,5.7,1.4,8.7,2.8
	c5.8,2.7,10.2,6.4,11.3,9.2c0.1-0.1,0.1-0.1,0.2-0.2C261.6,261.2,257.3,257.5,251.5,254.8z"/>
<path class="st4" d="M237.4,275.2c-3.5-0.4-6.9-0.4-9.6,0c-0.1,0.1-0.1,0.2-0.1,0.3c2.6-0.4,6.1-0.4,9.6,0c6,0.6,11.1,2.3,12.8,3.9
	c0.1-0.1,0.1-0.2,0.1-0.2C248.5,277.5,243.5,275.9,237.4,275.2z"/>
<path class="st4" d="M255.6,241.5c-0.1,0.1-0.2,0.1-0.3,0.2c2.7,1.1,5.8,3,8.8,5.5c4,3.4,6.9,7.2,8,10.1c0.1-0.1,0.1-0.1,0.2-0.1
	c-1.1-3-4-6.8-8-10.2C261.3,244.5,258.3,242.6,255.6,241.5z"/>
<path class="st4" d="M262,237.2c-0.1,0.1-0.2,0.1-0.3,0.2c2.6,1.3,5.5,3.5,8.2,6.2c3.6,3.7,6.2,7.6,7,10.7c0.1-0.1,0.1-0.1,0.2-0.1
	c-0.9-3.1-3.4-7-7-10.7C267.4,240.6,264.5,238.5,262,237.2z"/>
<path class="st4" d="M267.1,233.9c-0.1,0.1-0.2,0.1-0.3,0.2c2.9,1.3,6.4,4.1,9.4,7.7c2.6,3.2,4.7,6.4,5.6,9.2
	c0.1-0.1,0.1-0.1,0.2-0.1c-1-2.8-3-6.1-5.6-9.2C273.4,238.1,270,235.3,267.1,233.9z"/>
<path class="st4" d="M272.6,230.5c-0.1,0.1-0.2,0.1-0.2,0.2c2.9,1.4,6.4,4.8,9.3,9.1c2.1,3,3.6,6.1,4.3,8.8c0.1-0.1,0.1-0.1,0.2-0.1
	c-0.8-2.7-2.3-5.7-4.3-8.8C279,235.3,275.5,231.9,272.6,230.5z"/>
<path class="st4" d="M277.7,227c-0.1,0.1-0.2,0.1-0.2,0.2c2.7,1.5,5.8,4.4,8.4,8c2.6,3.4,4.4,6.9,5.2,9.8c0.1-0.1,0.1-0.1,0.2-0.2
	c-0.8-2.9-2.6-6.4-5.2-9.8C283.4,231.5,280.4,228.6,277.7,227z"/>
<path class="st4" d="M281.3,224.2c-0.1,0.1-0.2,0.1-0.2,0.2c2.9,1.2,6.5,4.3,9.6,8.2c2.4,3,4.2,6,5.1,8.7c0.1-0.1,0.1-0.1,0.2-0.2
	c-1-2.6-2.8-5.7-5.1-8.7C287.9,228.6,284.3,225.5,281.3,224.2z"/>
<path class="st4" d="M284,221.8c-0.1,0.1-0.2,0.2-0.2,0.2c3.1,0,8.2,2.9,12.7,7.2c2.2,2.1,3.9,4.3,5.2,6.3c0.1-0.1,0.1-0.1,0.2-0.2
	c-1.3-2.1-3.1-4.2-5.2-6.3C292.2,224.8,287.2,222,284,221.8z"/>
<path class="st4" d="M298.7,223.2c-4.4-2.7-8.8-4.3-12-4.5c-0.1,0.1-0.1,0.2-0.2,0.2c3.2,0.2,7.7,1.8,12.1,4.5
	c3.2,1.9,5.8,4.2,7.6,6.3c0.1-0.1,0.1-0.1,0.1-0.2C304.5,227.4,301.8,225.2,298.7,223.2z"/>
<path class="st4" d="M300.9,218c-4.5-2.1-8.9-3.1-12.1-3c-0.1,0.1-0.1,0.2-0.1,0.3c3.2-0.2,7.7,0.9,12.2,3c3.5,1.6,6.5,3.6,8.5,5.5
	c0.1-0.1,0.1-0.2,0.1-0.2C307.4,221.6,304.4,219.6,300.9,218z"/>
<path class="st4" d="M302.5,211.8c-4.5-1.6-8.9-2.3-12.1-2c0,0.1-0.1,0.2-0.1,0.3c3.1-0.3,7.6,0.4,12.1,2c3.8,1.4,7,3.1,9.2,5
	c0-0.1,0.1-0.2,0.1-0.2C309.5,215,306.2,213.2,302.5,211.8z"/>
<path class="st4" d="M292.2,204.9c-0.4,0.1-0.8,0.2-1.2,0.3c0,0.1,0,0.2,0,0.3c0.4-0.1,0.8-0.2,1.2-0.3c3-0.6,6.9-0.5,10.9,0.2
	c3.9,0.7,7.5,1.9,10,3.3c0-0.1,0-0.2,0-0.3c-2.5-1.4-6.1-2.6-10-3.3C299.1,204.3,295.2,204.3,292.2,204.9z"/>
<path class="st4" d="M291,200.7c0,0.1,0,0.2,0,0.2c2.8-1.1,6.7-1.8,11.1-1.8c4.5,0,8.5,0.8,11.3,1.9c0-0.1,0-0.2,0-0.2
	c-2.8-1.2-6.8-1.9-11.3-1.9C297.8,198.9,293.8,199.6,291,200.7z"/>
<path class="st4" d="M301.1,192.5c-4.3,0.7-8,2-10.6,3.5c0,0.1,0.1,0.2,0.1,0.2c2.5-1.5,6.3-2.8,10.6-3.5c4-0.6,7.9-0.6,10.9-0.1
	c0.2,0.1,0.4,0.1,0.6,0.1c0-0.1-0.1-0.2-0.1-0.3c-0.2-0.1-0.3-0.1-0.5-0.1C309,191.9,305.1,191.9,301.1,192.5z"/>
<path class="st4" d="M300.1,185.6c-4.8,1.4-8.7,3.6-11,5.7c0.1,0.1,0.1,0.2,0.1,0.2c2.3-2.1,6.2-4.3,11-5.7
	c3.6-1.1,7.2-1.6,10.2-1.5c-0.1-0.1-0.1-0.2-0.1-0.3C307.2,184,303.7,184.5,300.1,185.6z"/>
<path class="st4" d="M297.7,180.7c3.4-1.6,6.8-2.7,9.6-3c-0.1-0.1-0.1-0.2-0.2-0.3c-2.8,0.4-6.2,1.4-9.6,3c-4.5,2.2-8.2,5-10.1,7.5
	c0.1,0.1,0.1,0.2,0.1,0.2C289.4,185.7,293.1,182.9,297.7,180.7z"/>
<path class="st4" d="M293.2,176.9c3.4-2.6,7-4.6,9.9-5.5c-0.1-0.1-0.1-0.2-0.2-0.2c-2.9,0.9-6.5,2.8-9.9,5.5
	c-3.5,2.7-6.2,5.7-7.7,8.4c0.1,0.1,0.1,0.1,0.2,0.2C287,182.6,289.7,179.6,293.2,176.9z"/>
<path class="st4" d="M288.1,174.5c3.5-3.9,7.4-7,10.4-8c-0.1-0.1-0.2-0.1-0.2-0.2c-3.1,1.1-7,4.1-10.4,8c-2.3,2.7-4.1,5.5-5.2,8
	c0.1,0.1,0.1,0.1,0.2,0.2C283.9,180,285.7,177.2,288.1,174.5z"/>
<path class="st4" d="M245.2,177.8c-4.2-3.6-6.7-8-6.7-11.1c-0.1,0.1-0.2,0.2-0.2,0.2C238.4,170.1,240.9,174.4,245.2,177.8
	c2.9,2.6,6.1,4.4,8.9,4.9c0.1-0.1,0.2-0.2,0.3-0.2C251.4,182.1,248.1,180.4,245.2,177.8z"/>
<path class="st4" d="M248.2,173.8c-3-4-4.5-8.3-4.3-11.3c-0.1,0.1-0.2,0.1-0.2,0.2c-0.2,3.1,1.4,7.4,4.3,11.3c2.6,3.5,5.7,6,8.5,7
	c0.1-0.1,0.2-0.1,0.3-0.2C254,179.9,250.8,177.3,248.2,173.8z"/>
<path class="st4" d="M232.3,173.8c0.1-0.1,0.1-0.2,0.2-0.2L232.3,173.8z"/>
<path class="st2" d="M232.4,173.6c-0.1,0.1-0.1,0.2-0.2,0.2c1.4,2.6,4.6,5.6,8.8,8c3.8,2.2,7.7,3.4,10.6,3.5
	c0.1-0.1,0.1-0.2,0.2-0.2c-2.9,0-6.9-1.2-10.7-3.4C237,179.2,233.8,176.2,232.4,173.6z"/>
<path class="st4" d="M228.9,179.6c0.1-0.1,0.1-0.2,0.1-0.3L228.9,179.6z"/>
<path class="st2" d="M229.1,179.4c-0.1,0.1-0.1,0.2-0.1,0.3c1.4,2.7,5.8,5.5,11.5,7.1c3.4,1,6.7,1.4,9.5,1.1
	c0.1-0.1,0.1-0.2,0.2-0.3c-2.8,0.3-6.1-0.1-9.6-1C234.8,184.9,230.3,182,229.1,179.4z"/>
<path class="st4" d="M234.8,204.3c-4.5-0.3-8.3-1.7-10.5-3.6c0,0.1,0,0.2,0,0.3c2.3,1.8,6.2,3.2,10.5,3.5c1.6,0.1,3.2,0.1,4.8-0.1
	c1.7-0.2,3.4-0.6,4.8-1.2c0.9-0.4,1.6-0.8,2.3-1.3c0-0.1,0-0.2,0-0.3c-0.6,0.5-1.4,1-2.4,1.4C241.7,204.1,238.3,204.6,234.8,204.3z"
	/>
<path class="st4" d="M235.3,210.8c-4.1-0.3-7.6-1.6-9.8-3.3c0.1,0.2,0.2,0.3,0.3,0.5c2.2,1.6,5.7,2.8,9.5,3c1.5,0.1,3,0.1,4.4-0.1
	c1.5-0.2,2.8-0.5,4-1c0.1-0.1,0.2-0.3,0.3-0.4C241.6,210.6,238.5,211,235.3,210.8z"/>
<path class="st4" d="M285.3,169.9c2.3-3.4,4.9-6.1,7.4-7.9c-0.1-0.1-0.2-0.1-0.2-0.2c-2.5,1.8-5.1,4.6-7.4,8
	c-2.5,3.8-4.2,7.6-4.9,10.8c0.1,0.1,0.2,0.1,0.2,0.1C281,177.6,282.7,173.7,285.3,169.9z"/>
<path class="st4" d="M245.6,260.3c-3-1-5.9-1.6-8.6-1.8c-0.1,0.1-0.1,0.2-0.2,0.2c2.7,0.2,5.7,0.8,8.7,1.8c6.1,2.1,10.9,5.2,12.4,8
	c0.1-0.1,0.1-0.1,0.2-0.2C256.6,265.5,251.8,262.3,245.6,260.3z"/>
<path class="st4" d="M242.4,268c-3.9-1.1-7.7-1.6-10.8-1.6c-0.1,0.1-0.1,0.2-0.2,0.3c3.1-0.1,6.9,0.4,10.8,1.5
	c4.9,1.4,8.9,3.3,11.4,5.2c0.1-0.1,0.1-0.1,0.1-0.2C251.4,271.4,247.3,269.4,242.4,268z"/>
<path class="st4" d="M226,282.6c0,0.1-0.1,0.2-0.1,0.3c2.7-0.9,6-1.5,9.6-1.5c5.5-0.2,10.3,0.8,13.1,2.4c0-0.1,0.1-0.2,0.1-0.2
	c-2.9-1.6-7.7-2.6-13.2-2.4C232,281.2,228.7,281.7,226,282.6z"/>
<path class="st4" d="M235.6,288.7c-3.9,0.7-7.6,1.7-10.4,2.8c0,0.1,0,0.2,0,0.3c2.8-1.1,6.5-2.1,10.4-2.8c5.1-0.9,9.3-1.2,12.1-1
	c0-0.1,0-0.2,0.1-0.3C244.6,287.5,240,287.9,235.6,288.7z"/>
<path class="st4" d="M227.3,306.4c0,0.1,0.1,0.2,0.1,0.2c2.8-0.8,6.4-2,10.2-3.4c3.9-1.4,7.6-2.9,10.3-4.1c0.2-0.1,0.4-0.2,0.5-0.3
	c0-0.1-0.1-0.2-0.1-0.2c-2.5,1.1-6.3,2.7-10.9,4.3C233.4,304.5,229.8,305.6,227.3,306.4z"/>
<path class="st4" d="M226,299.3c-0.1,0.1-0.2,0.1-0.2,0.1c0,0.1,0,0.2,0.1,0.3c2.5-1,6.2-2.2,10.8-3.6s8.4-2.3,11-2.8
	c0-0.1,0-0.2,0-0.3c-3.2,0.6-7.6,1.8-11.1,2.8C232.4,297,228.7,298.2,226,299.3z"/>
<path class="st4" d="M239.3,309.2c-3.7,1.8-7,3.1-9.5,3.8c0.1,0.1,0.1,0.2,0.1,0.2c2.8-0.8,6.3-2.2,9.5-3.8c3.7-1.8,7.1-3.9,9.5-5.7
	c0.3-0.2,0.5-0.4,0.8-0.6c-0.1-0.1-0.1-0.2-0.1-0.2c-0.3,0.2-0.5,0.4-0.9,0.7C246.4,305.3,243,307.4,239.3,309.2z"/>
<path class="st4" d="M249.3,309.1c-2.3,2-5.5,4.2-9.1,6.3c-2.6,1.5-5,2.6-7,3.5c0.1,0.1,0.1,0.1,0.1,0.2c2.2-1,4.7-2.2,7-3.5
	c3.6-2.1,6.9-4.3,9.1-6.3c0.9-0.8,1.8-1.7,2.4-2.5c-0.1-0.1-0.1-0.2-0.2-0.2C251.2,307.3,250.3,308.1,249.3,309.1z"/>
<path class="st4" d="M245.5,319.3c-2.7,2.3-5.4,4.2-7.7,5.5c0.1,0.1,0.1,0.1,0.2,0.2c2.3-1.2,5-3.1,7.7-5.5c3.2-2.7,5.8-5.6,7.6-8.2
	c0.4-0.6,0.7-1.1,1-1.7c-0.1-0.1-0.1-0.1-0.2-0.2c-0.3,0.5-0.6,1.1-1,1.7C251.3,313.6,248.6,316.6,245.5,319.3z"/>
<path class="st4" d="M251.3,323.3c-2.3,2.9-4.8,5.4-7,7c0.1,0.1,0.2,0.1,0.2,0.2c2.2-1.7,4.6-4.1,6.9-7c2.6-3.2,4.7-6.7,5.9-9.5
	c0.2-0.5,0.4-1,0.5-1.5c-0.1-0.1-0.2-0.1-0.2-0.1c-0.2,0.5-0.3,1-0.5,1.5C255.9,316.7,253.9,320,251.3,323.3z"/>
<path class="st4" d="M256.8,326.2c-1.8,3.2-3.8,6.1-5.6,8.1c0.1,0.1,0.2,0.1,0.2,0.1c1.8-2.1,3.8-4.8,5.6-8.1
	c2.1-3.7,3.6-7.3,4.2-10.3c0.1-0.6,0.2-1.1,0.3-1.6c-0.1-0.1-0.2-0.1-0.2-0.1c-0.1,0.5-0.2,1.1-0.3,1.6
	C260.4,318.9,258.9,322.5,256.8,326.2z"/>
<path class="st4" d="M263.3,327.2c-1.2,3.9-2.7,7.3-4.2,9.7c0.1,0,0.2,0.1,0.3,0.1c1.5-2.4,3-5.8,4.2-9.7c1.2-4,1.9-7.9,1.9-11
	c0-0.3,0-0.5,0-0.8c-0.1,0-0.2-0.1-0.3-0.1c0,0.3,0,0.5,0,0.9C265.2,319.4,264.5,323.3,263.3,327.2z"/>
<path class="st4" d="M269.8,319.9c-0.1,3.1-0.8,6.9-1.9,10.9c-0.8,2.7-1.8,5.2-2.8,7.2c0.1,0,0.2,0,0.3,0.1c1-2.1,2-4.5,2.8-7.2
	c1.2-4,1.9-7.9,1.9-11c0-1.6-0.2-2.9-0.5-3.8c-0.1,0-0.2,0-0.3,0C269.7,316.9,269.8,318.2,269.8,319.9z"/>
<path class="st4" d="M274.4,330.8c-0.3,2.8-0.8,5.3-1.4,7.5c0.1,0,0.2,0,0.3-0.1c0.6-2.2,1.1-4.7,1.4-7.5c0.4-4.2,0.4-8.1-0.1-11.1
	c-0.3-1.5-0.6-2.6-1-3.5c-0.1,0-0.2-0.1-0.3-0.1c0.5,0.8,0.9,2,1.1,3.5C274.8,322.8,274.8,326.7,274.4,330.8z"/>
<path class="st4" d="M279.7,329.8c0.2,1.7,0.2,3.4,0.2,5c0.1-0.1,0.2-0.2,0.3-0.3c0-1.5-0.1-3.1-0.2-4.8c-0.4-4.2-1.2-8.1-2.3-10.9
	c-0.2-0.5-0.4-1-0.6-1.4c-0.1-0.1-0.3-0.1-0.4-0.2c0.3,0.5,0.5,1,0.8,1.6C278.5,321.8,279.3,325.6,279.7,329.8z"/>
<path class="st3" d="M171.9,163.5c-1.9,5.8-5.4,10.1-8.7,11.5c2.6,0.6,5,1.5,7.1,2.8c0.6,0.4,1.2,0.8,1.8,1.2c3.2,0.2,8.2-1.6,13-5
	c4.3-3.1,7.6-6.9,8.8-10c-3.4-3.7-6.9-6.4-10.1-8.3c-3.5-2.2-7.2-3.8-11.1-5C173.8,154,173.5,158.7,171.9,163.5z"/>
<path class="st3" d="M185.3,174.2c-4.6,3.2-9.4,5.1-12.7,5.1c-0.1,0-0.1,0-0.2,0c4.8,3.8,8.1,9.7,10,17.5c0.1,0.2,0.1,0.3,0.1,0.4
	c2.9,1.4,7.4,1.9,12.3,1c3.8-0.6,7.3-2.1,9.7-3.9c1.5-1.1,2.5-2.4,3-3.6c-2.9-12.1-8-20.6-13.4-26.5
	C193,167.4,189.7,171.1,185.3,174.2z"/>
<path class="st3" d="M165.8,162.1c-0.6,5.5-2.7,10.1-5.2,12.4c0.7,0.1,1.4,0.2,2.1,0.3c3.2-1.1,6.9-5.5,8.9-11.5
	c1.6-4.8,1.9-9.6,0.8-12.8c-2.9-0.9-5.9-1.5-9-1.8c0.5,0.8,1,1.6,1.4,2.7C165.9,154.4,166.3,158.2,165.8,162.1z"/>
<path class="st3" d="M232.4,312.9c0.3-2.5,0.4-5,0.4-7.6c-2.5,0.6-5.5,1-8.6,1c-1.1,0-2.2-0.1-3.3-0.1c-5.7-0.4-10.8-1.8-14.2-3.8
	c0.2,1.7,0.2,3.3,0.2,4.8c3.1,2.3,7.9,4.2,13.4,5.2C224.8,313.3,229,313.4,232.4,312.9z"/>
<path class="st3" d="M232.9,305.1c-0.1-2.5-0.2-5.1-0.6-7.6c-3.4,1.4-7.7,2.2-12.3,2.4c-0.6,0-1.2,0.1-1.8,0.1
	c-4.7,0-8.9-0.8-12.1-1.9c0.3,1.5,0.5,2.8,0.7,4.2c3.4,1.9,8.4,3.4,14.2,3.8C225.4,306.3,229.5,306,232.9,305.1z"/>
<path class="st3" d="M160.6,245c2.4-3,4.9-5.4,7.3-7.1c-0.5-0.2-1-0.3-1.5-0.5c-1.8-0.6-3.5-1.2-5.2-1.7c-2.5,1.9-5.2,4.8-7.6,8.3
	c-3.6,5.3-5.7,10.9-5.6,14.4c1.9,0.7,3.9,1.4,6,2.1c-0.1-0.2-0.1-0.4-0.1-0.5C153.5,256.5,156.2,250.5,160.6,245z"/>
<path class="st3" d="M219.9,299.6c4.7-0.2,9-1.1,12.3-2.4c-0.3-1.8-0.6-3.7-1-5.5c-0.1-0.4-0.2-0.8-0.3-1.1
	c-3.5,1.8-8.5,2.9-13.9,3.1c-0.6,0-1.2,0.1-1.8,0.1c-4.1,0-7.9-0.6-10.9-1.6c0.7,1.7,1.3,3.5,1.7,5.4v0.1
	C209.5,299,214.5,299.8,219.9,299.6z"/>
<path class="st3" d="M204.7,194.6c-2.5,1.8-6,3.2-9.8,3.9c-1.6,0.3-3.2,0.4-4.8,0.4c-2.9,0-5.5-0.5-7.5-1.4c0.4,1.6,1.2,3,2.1,4.2
	c2.7,0.8,6,1,9.6,0.5c3.8-0.5,7.4-1.7,9.9-3.5c2.5-1.7,3.7-3.7,3.5-5.6h0.2c-0.1-0.6-0.1-1.3-0.3-1.9
	C207.1,192.4,206.1,193.5,204.7,194.6z"/>
<path class="st3" d="M177,241c-1.9-0.7-3.9-1.4-5.8-2c-1-0.3-2-0.6-3-1c-2.4,1.7-5,4.2-7.4,7.1c-4.3,5.4-7,11.4-6.6,14.8
	c0,0.2,0.1,0.5,0.1,0.6c1.4,0.4,2.7,0.9,4,1.4c0.4,0.1,0.7,0.2,1.1,0.4c0.1-3.6,3.2-9.1,8-14.1C170.6,244.9,174,242.4,177,241z"/>
<path class="st3" d="M175.1,250.8c3.8-3.1,7.7-5.2,11-6.2c-3-1.2-5.9-2.4-8.8-3.5c-3,1.4-6.4,3.9-9.7,7.4c-4.7,4.9-7.8,10.5-7.9,14
	c1.1,0.4,2.2,0.7,3.2,1.1c0.8,0.3,1.6,0.5,2.4,0.8c0-0.1,0-0.2,0-0.3C165.7,260.5,169.7,255.2,175.1,250.8z"/>
<path class="st3" d="M211.6,259.8c-1.6-1.4-3.4-2.8-5.2-4.1c-2.4,1.7-5.1,3.8-8,6.2c-5.4,4.4-10.1,8.7-12.5,11.4
	c1.5,0.8,2.9,1.7,4.2,2.6c3.1-1.9,7.2-4.7,11.7-8.1C205.5,264.9,208.9,262.1,211.6,259.8z"/>
<path class="st3" d="M121.3,214.3c4.2-2,8.3-3.2,11.6-3.5c-0.2-0.7-0.4-1.5-0.5-2.2c-0.2-1-0.4-1.9-0.5-2.9
	c-3.2-0.3-7.5,0.2-11.8,1.4c-5.6,1.6-10.5,4.1-12.9,6.7c0.1,0.2,0.1,0.5,0.2,0.7c0.7,3.1,1.6,6,2.6,8.8
	C111.7,220.2,116.1,216.8,121.3,214.3z"/>
<path class="st3" d="M119.8,206.8c4.4-1.2,8.7-1.7,11.9-1.4c-0.3-1.6-0.4-3.2-0.4-4.8c-3-0.6-6.9-0.8-11-0.3
	c-4.5,0.5-8.6,1.6-11.6,3.1c-1.2,0.6-2.2,1.3-3,2c0.2,2.6,0.6,5.4,1.2,8C109.4,210.9,114.2,208.4,119.8,206.8z"/>
<path class="st3" d="M188.6,260c4.3-3.5,8.5-6.4,11.8-8.3c-2.5-1.5-5-2.9-7.6-4.1c-2.8,1.7-5.8,3.9-8.8,6.5
	c-5.1,4.4-9.2,9.1-11.4,12.9c2,0.8,3.9,1.6,5.8,2.4C181.1,266.6,184.6,263.3,188.6,260z"/>
<path class="st3" d="M216.6,264.5c-1.5-1.6-3.1-3.1-4.8-4.6c-2.7,2.4-6.1,5.1-10,8c-4,3-8.2,5.9-11.6,8.1c1.5,1,2.8,2,4.1,3.1
	c3-1.4,7.2-3.7,12.1-6.9C210.4,269.5,214,266.7,216.6,264.5z"/>
<path class="st3" d="M160.9,170.2c-0.5,1.8-1.4,3.2-2.4,4.2c0.6,0.1,1.2,0.1,1.7,0.2c2.5-2.2,4.6-6.9,5.2-12.4
	c0.4-3.9,0.1-7.6-1-10.5c-0.4-1.1-0.9-2.1-1.5-2.8c-2.2-0.2-4.4-0.3-6.7-0.3c2.2,2.4,4.1,6.4,4.9,11.1
	C162,163.4,161.9,167.2,160.9,170.2z"/>
<path class="st3" d="M198.2,261.6c2.7-2.2,5.4-4.3,8-6.1c-0.2-0.1-0.3-0.2-0.4-0.3c-1.6-1.1-3.3-2.2-5-3.3c-3.4,1.9-7.6,4.8-12,8.3
	c-4,3.2-7.5,6.5-10.1,9.4c2.4,1.1,4.8,2.3,6.9,3.5C188.1,270.3,192.7,266,198.2,261.6z"/>
<path class="st3" d="M214.7,281c3.9-1.4,7.4-3.2,10.3-5.1c-1.1-2-2.4-3.9-3.8-5.8c-2.7,1.8-6.2,3.9-10.1,6c-5,2.5-10.3,4.8-13.9,5.7
	c0.7,0.8,1.4,1.5,2.1,2.3C203.5,284.1,209,283.1,214.7,281z"/>
<path class="st2" d="M121,185.2c4.4,0.8,8.5,2.3,11.5,4.1c0.3,0.2,0.6,0.4,0.9,0.5c3.2-8.1,10-13.1,16-14.5h0.1h0.1
	c3-0.8,6.1-1,8.9-0.9c1-0.9,1.9-2.3,2.5-4.2c0.9-3,1-6.7,0.3-10.6c-0.8-4.8-2.7-8.8-4.9-11.1c-4.2,0.1-8.5,0.6-12.8,1.7h-0.1h-0.1
	h-0.1c-0.1,0-0.1,0-0.1,0c-12.1,2.9-22.9,10.9-29.7,21.9c-2.5,4.1-4.4,8.4-5.8,13C110.9,184.3,115.7,184.3,121,185.2z"/>
<path class="st3" d="M221.1,269.9c-1.4-1.8-2.8-3.5-4.3-5.2c-2.5,2.2-6.2,4.9-10.2,7.6c-4.2,2.8-8.7,5.4-12,6.9
	c0.9,0.8,1.7,1.6,2.5,2.4c3.2-0.8,8.2-2.8,14-5.7C214.9,273.8,218.4,271.8,221.1,269.9z"/>
<path class="st3" d="M120.6,193c4.2,0.2,8.1,1,11.1,2.2c0.3-1.8,0.8-3.5,1.4-5.1c-0.3-0.2-0.6-0.4-0.9-0.6
	c-2.9-1.8-6.9-3.2-11.4-4.1c-5.2-1-10.1-0.9-13.4-0.1c-0.9,3.2-1.5,6.6-1.8,10.1C108.7,193.6,114.3,192.6,120.6,193z"/>
<path class="st3" d="M120.3,200.1c4.2-0.4,8-0.3,11,0.3c0-1.7,0.2-3.4,0.4-5c-3-1.2-6.9-2-11-2.2c-6.4-0.3-12.1,0.7-15,2.5
	c-0.3,3.1-0.3,6.2,0,9.4c0.7-0.6,1.7-1.3,2.9-1.9C111.6,201.7,115.7,200.5,120.3,200.1z"/>
<path class="st3" d="M204.4,198.9c-2.5,1.7-6.1,3-10,3.5c-1.3,0.2-2.5,0.3-3.7,0.3c-2.1,0-4-0.3-5.7-0.7c3,3.7,8,5.6,13,4.4
	c5.8-1.4,9.7-6.4,10-12C207.6,196,206.4,197.6,204.4,198.9z"/>
<path class="st3" d="M202.9,320.3c-0.6,0.9-1.2,1.7-1.8,2.4c1,3.9,5.7,9.1,12.4,13.2c2.4,1.5,5,2.7,7.4,3.6c1.4-1.7,2.7-3.4,3.9-5.2
	c-3.5-0.8-7.5-2.4-11.4-4.8C208.8,326.7,205.1,323.4,202.9,320.3z"/>
<path class="st3" d="M142,237.7c1.8-3,3.8-5.6,5.8-7.5c-1.6-0.9-3.1-1.8-4.4-2.8c-2.3,1.9-4.7,4.8-6.9,8.1c-3.6,5.6-5.7,11.6-5.1,15
	c2,1.2,4.1,2.4,6.1,3.5c-0.1-0.2-0.2-0.4-0.2-0.6C136.5,250,138.4,243.7,142,237.7z"/>
<path class="st3" d="M200.9,322.9c-0.9,1-1.9,1.9-3,2.8c0.8,3.9,4.1,9.2,8.9,14c2.5,2.4,5.1,4.5,7.7,6c2.2-1.8,4.3-3.8,6.2-6
	c-2.4-0.9-4.9-2.1-7.3-3.6C206.6,332.1,202,326.9,200.9,322.9z"/>
<path class="st3" d="M147.2,242.1c2.1-3.8,4.5-7,6.8-9.1c-2.2-0.9-4.1-1.7-5.9-2.7c-2,1.9-4,4.5-5.8,7.5c-3.6,5.9-5.5,12.2-4.6,15.6
	c0.1,0.3,0.2,0.6,0.3,0.8c1.7,0.8,3.4,1.6,5.2,2.3C142.8,253,144.3,247.4,147.2,242.1z"/>
<path class="st3" d="M183.9,254c3-2.5,5.9-4.8,8.8-6.4c-2.1-1-4.2-1.9-6.2-2.8c-3.2,0.9-7.2,3.1-11.1,6.3c-5.4,4.4-9.3,9.7-9.6,13.1
	c0,0.1,0,0.2,0,0.3c2.4,0.8,4.7,1.7,6.9,2.5C174.6,263.1,178.8,258.4,183.9,254z"/>
<path class="st3" d="M197.7,325.9c-1.4,1.1-2.8,2-4.2,2.8c0.9,3.7,3.4,8.3,6.9,12.7c2.8,3.5,5.9,6.3,8.9,8.1c1.7-1.1,3.4-2.3,5-3.6
	c-2.5-1.5-5.1-3.5-7.6-5.9C201.8,335.2,198.6,329.9,197.7,325.9z"/>
<path class="st3" d="M139.7,224.1c-0.9-1-1.8-2.2-2.6-3.4c-3,1-6.7,3-10.2,5.7c-4.7,3.7-8.3,8-9.5,11.3c1.7,2.3,3.6,4.4,5.6,6.4
	c0.9-3.4,3.4-7.7,6.7-11.7C133,228.5,136.6,225.6,139.7,224.1z"/>
<path class="st3" d="M232.4,313.2c-1.3,0.2-2.7,0.3-4.2,0.3c-2.4,0-5.1-0.3-7.8-0.8c-5.5-1-10.2-3-13.4-5.2
	c-0.1,1.9-0.4,3.7-0.8,5.3c2.8,2.4,6.9,4.8,11.8,6.4c4.5,1.6,9,2.3,12.7,2.2c0.6-2.2,1.2-4.5,1.6-6.9
	C232.3,314,232.3,313.6,232.4,313.2z"/>
<path class="st3" d="M217.9,319.4c-4.9-1.7-9-3.9-11.8-6.4c-0.3,1.1-0.6,2.1-1,3c2.1,2.3,4.9,4.6,8.3,6.6c5.2,3.2,10.7,5.1,14.8,5.2
	c0.9-2.1,1.7-4.1,2.4-6.3c-0.2,0-0.4,0-0.6,0C226.4,321.6,222.2,320.9,217.9,319.4z"/>
<path class="st3" d="M205.1,316.3c-0.6,1.4-1.2,2.6-2,3.8c2.2,3.1,5.8,6.4,10.4,9.2c3.9,2.4,7.9,4.1,11.4,4.8c1.2-1.9,2.3-3.9,3.3-6
	c-4.1-0.2-9.6-2.1-14.8-5.2C210,320.9,207.2,318.6,205.1,316.3z"/>
<path class="st3" d="M123.7,220.8c3.9-2.3,7.8-3.8,11-4.4c-0.7-1.6-1.4-3.4-1.9-5.4c-3.2,0.3-7.4,1.5-11.5,3.5
	c-5.3,2.5-9.7,6-11.6,9c0.9,2.5,2,4.9,3.2,7.1C114.7,227.5,118.8,223.7,123.7,220.8z"/>
<path class="st3" d="M136.3,235.4c2.2-3.4,4.6-6.1,6.9-8.1c-1.2-0.9-2.4-1.9-3.4-3.1c-3,1.5-6.7,4.4-10,8.3c-3.4,4-5.8,8.3-6.7,11.7
	c1.5,1.5,3.1,2.8,4.9,4.1c1,0.8,2,1.5,3,2.1C130.7,246.8,132.7,240.9,136.3,235.4z"/>
<path class="st3" d="M199.8,284.3c-0.1,0-0.2,0-0.4,0c0.9,1,1.6,2.1,2.3,3.2c3.6,0.6,8.1,0.6,12.9-0.2c5.4-1,10.2-2.8,13.4-5
	c-0.9-2.1-1.9-4.2-3-6.2c-2.9,1.9-6.4,3.7-10.3,5.1C209.3,283.2,204,284.3,199.8,284.3z"/>
<path class="st3" d="M200.2,341.5c-3.5-4.3-5.9-8.9-6.9-12.7c-0.6,0.4-1.4,0.7-2.1,1c-0.4,4.1,1.4,10.2,5,16.2
	c1.7,2.8,3.6,5.4,5.6,7.4c2.5-1.1,4.9-2.4,7.1-3.8C206,347.7,202.9,344.9,200.2,341.5z"/>
<path class="st3" d="M180.1,334.5c-3.5,3-5.2,7.8-4.1,12.7c0.8,3.4,2.9,6.2,5.6,7.9c-0.9-2.5-1.5-5.3-1.8-8.2
	C179.3,342.2,179.4,337.9,180.1,334.5z"/>
<path class="st3" d="M153.4,243.9c2.4-3.5,5.1-6.4,7.6-8.3c-2.4-0.9-4.7-1.7-6.8-2.5c-2.3,2.2-4.8,5.4-6.8,9.2
	c-2.9,5.4-4.4,10.8-4.1,14.4c1.5,0.6,3,1.2,4.5,1.7C147.6,254.8,149.7,249.2,153.4,243.9z"/>
<path class="st3" d="M184.1,332.1c-1.4,0.5-2.6,1.2-3.6,2.1c-0.8,3.5-1,7.8-0.4,12.5c0.4,3.1,1.1,5.9,1.9,8.5c1.6,1,3.4,1.6,5.2,1.8
	c-1.4-2.8-2.5-6.3-3.2-10C182.9,341.3,183,335.9,184.1,332.1z"/>
<path class="st3" d="M207.4,288.2c-1.9,0-3.8-0.2-5.4-0.4c0.8,1.3,1.5,2.7,2.2,4.2c3.4,1.1,8,1.7,12.8,1.6
	c5.4-0.2,10.4-1.4,13.9-3.1c-0.7-2.7-1.6-5.3-2.6-7.8c-3.2,2.2-8.1,4.1-13.5,5C212.2,288,209.7,288.2,207.4,288.2z"/>
<path class="st3" d="M191,329.9c-0.8,0.3-1.5,0.6-2.3,0.9c-0.9,3.8-0.6,9.4,1,15.3c1.1,3.9,2.5,7.4,4.3,10.2
	c2.7-0.7,5.2-1.6,7.6-2.7c-1.9-2.1-3.9-4.5-5.6-7.4C192.4,340.1,190.6,334,191,329.9z"/>
<path class="st3" d="M126.8,226.2c3.5-2.7,7.1-4.7,10.2-5.7c-0.8-1.2-1.5-2.5-2.1-3.9c-3.2,0.6-7.1,2.1-11,4.4
	c-5,3-9.1,6.8-10.8,9.9c1.2,2.3,2.6,4.5,4.1,6.6C118.5,234.1,122.1,229.8,126.8,226.2z"/>
<path class="st3" d="M188.5,330.8c-0.9,0.3-1.8,0.5-2.7,0.8c-0.5,0.1-1,0.3-1.4,0.4c-1.1,3.8-1.2,9.2-0.1,15
	c0.7,3.7,1.9,7.2,3.3,10.1c1.4,0.1,2.7,0.1,4.1-0.3c0.7-0.2,1.4-0.3,2.1-0.5c-1.7-2.8-3.2-6.3-4.3-10.2
	C187.9,340.2,187.6,334.7,188.5,330.8z"/>
<path class="st4" d="M175.3,251c3.9-3.2,8-5.4,11.1-6.3c-0.1-0.1-0.2-0.1-0.3-0.2c-3.2,1-7.2,3.1-11,6.2c-5.5,4.4-9.4,9.8-9.7,13.3
	c0,0.1,0,0.2,0,0.3c0.1,0.1,0.2,0.1,0.2,0.1c0-0.1,0-0.2,0-0.3C166,260.6,169.8,255.4,175.3,251z"/>
<path class="st4" d="M177.2,241.1c-0.1-0.1-0.2-0.1-0.3-0.1c-3,1.4-6.4,3.9-9.6,7.3c-4.7,4.9-7.8,10.5-8,14.1c0.1,0,0.2,0.1,0.3,0.1
	c0.1-3.5,3.2-9,7.9-14C170.8,245.1,174.2,242.5,177.2,241.1z"/>
<path class="st4" d="M160.8,245.2c2.4-3,5-5.5,7.4-7.1c-0.1-0.1-0.2-0.1-0.3-0.1c-2.4,1.7-5,4.2-7.3,7.1c-4.4,5.5-7,11.5-6.7,15
	c0,0.2,0.1,0.4,0.1,0.5c0.1,0.1,0.2,0.1,0.3,0.1c-0.1-0.2-0.1-0.4-0.1-0.6C153.8,256.5,156.5,250.6,160.8,245.2z"/>
<path class="st4" d="M153.6,244c2.4-3.6,5.1-6.4,7.6-8.3c-0.1-0.1-0.2-0.1-0.3-0.1c-2.5,1.9-5.2,4.8-7.6,8.3
	c-3.6,5.3-5.7,10.9-5.6,14.5c0.1,0.1,0.2,0.1,0.3,0.1C147.8,255,150,249.3,153.6,244z"/>
<path class="st4" d="M147.4,242.2c2.1-3.8,4.5-7,6.8-9.2c-0.1-0.1-0.2-0.1-0.2-0.1c-2.3,2.2-4.8,5.4-6.8,9.1
	c-2.9,5.3-4.4,10.8-4.1,14.4c0.1,0.1,0.2,0.1,0.3,0.1C143,253.1,144.5,247.6,147.4,242.2z"/>
<path class="st4" d="M142.2,237.8c1.8-3,3.8-5.6,5.8-7.5c-0.1-0.1-0.2-0.1-0.2-0.1c-2,1.9-4,4.5-5.8,7.5c-3.6,6-5.5,12.3-4.7,15.7
	c0.1,0.2,0.1,0.4,0.2,0.6c0.1,0.1,0.2,0.1,0.3,0.2c-0.1-0.3-0.2-0.5-0.3-0.8C136.8,250,138.6,243.8,142.2,237.8z"/>
<path class="st4" d="M136.5,235.5c2.2-3.4,4.6-6.2,6.9-8.1c-0.1-0.1-0.1-0.1-0.2-0.2c-2.3,1.9-4.8,4.8-6.9,8.1
	c-3.6,5.6-5.6,11.5-5.2,15c0.1,0.1,0.2,0.1,0.3,0.2C130.9,247.1,132.9,241.2,136.5,235.5z"/>
<path class="st4" d="M139.8,224.2c-0.1-0.1-0.1-0.1-0.2-0.2c-3.1,1.5-6.7,4.4-10,8.3c-3.4,3.9-5.8,8.3-6.7,11.7
	c0.1,0.1,0.1,0.1,0.2,0.2c0.9-3.4,3.3-7.7,6.7-11.7C133.2,228.7,136.8,225.7,139.8,224.2z"/>
<path class="st4" d="M126.9,226.4c3.5-2.7,7.1-4.7,10.2-5.7c-0.1-0.1-0.1-0.1-0.1-0.2c-3.1,1-6.7,3-10.2,5.7
	c-4.7,3.6-8.3,7.9-9.6,11.3c0.1,0.1,0.1,0.2,0.2,0.2C118.6,234.3,122.2,230,126.9,226.4z"/>
<path class="st4" d="M123.9,221c3.9-2.3,7.8-3.8,11-4.4c-0.1-0.1-0.1-0.2-0.1-0.2c-3.2,0.6-7.1,2.1-11,4.4c-5,3-9,6.7-10.8,9.8
	c0.1,0.1,0.1,0.2,0.2,0.3C114.8,227.7,118.8,224,123.9,221z"/>
<path class="st4" d="M121.4,214.5c4.2-2,8.3-3.2,11.5-3.5c0-0.1-0.1-0.2-0.1-0.2c-3.3,0.3-7.4,1.5-11.6,3.5
	c-5.2,2.5-9.6,5.9-11.6,8.9c0.1,0.1,0.1,0.2,0.1,0.3C111.7,220.5,116.1,217,121.4,214.5z"/>
<path class="st4" d="M119.8,207c4.4-1.2,8.7-1.7,11.8-1.4c0-0.1,0-0.2-0.1-0.2c-3.2-0.3-7.5,0.2-11.9,1.4
	c-5.6,1.6-10.4,4.1-12.9,6.7c0,0.1,0.1,0.2,0.1,0.3C109.4,211.2,114.3,208.6,119.8,207z"/>
<path class="st4" d="M120.3,200.3c4.2-0.4,8-0.3,11,0.3c0-0.1,0-0.2,0-0.2c-3-0.6-6.9-0.8-11-0.3c-4.5,0.5-8.7,1.6-11.7,3.2
	c-1.2,0.6-2.2,1.2-2.9,1.9c0,0.1,0,0.2,0,0.3c0.7-0.7,1.7-1.4,3-2C111.7,201.9,115.8,200.8,120.3,200.3z"/>
<path class="st4" d="M120.6,193.2c4.2,0.2,8.1,1,11,2.2c0-0.1,0.1-0.2,0.1-0.3c-3-1.2-6.9-2-11.1-2.2c-6.3-0.3-12,0.7-15,2.5
	c0,0.1,0,0.2,0,0.3C108.6,193.9,114.2,192.9,120.6,193.2z"/>
<path class="st4" d="M120.9,185.5c4.4,0.8,8.4,2.3,11.4,4.1c0.3,0.2,0.6,0.4,0.9,0.6c0.1-0.1,0.1-0.2,0.1-0.2
	c-0.3-0.2-0.5-0.4-0.9-0.5C129.5,187.7,125.4,186.3,120.9,185.5c-5.2-1.1-10-1-13.4-0.2c0,0.1-0.1,0.2-0.1,0.3
	C110.8,184.5,115.7,184.5,120.9,185.5z"/>
<path class="st4" d="M171.7,163.4c-2.1,5.9-5.6,10.3-8.9,11.4c0.2,0.1,0.3,0.1,0.4,0.1c3.2-1.3,6.7-5.7,8.7-11.5
	c1.6-4.8,1.9-9.5,0.9-12.8c-0.1-0.1-0.2-0.1-0.3-0.1C173.5,153.8,173.3,158.6,171.7,163.4z"/>
<path class="st4" d="M165.6,162.1c-0.6,5.5-2.7,10.2-5.2,12.4c0.1,0,0.2,0,0.3,0.1c2.5-2.3,4.5-6.9,5.2-12.4c0.4-3.9,0.1-7.7-1-10.7
	c-0.4-1.1-0.9-1.9-1.4-2.7c-0.1,0-0.2,0-0.3-0.1c0.6,0.8,1.1,1.7,1.5,2.8C165.7,154.5,166,158.2,165.6,162.1z"/>
<path class="st4" d="M160,175l-0.1,0.2C160,175.1,160,175.1,160,175C160.1,175,160.1,175,160,175z"/>
<path class="st4" d="M160.7,170.1c-0.6,1.9-1.4,3.4-2.5,4.2c0.1,0,0.2,0,0.4,0c1-0.9,1.8-2.3,2.4-4.2c0.9-3,1-6.8,0.3-10.7
	c-0.8-4.7-2.7-8.7-4.9-11.1c-0.1,0-0.2,0-0.3,0c2.2,2.3,4.1,6.3,4.9,11.1C161.8,163.4,161.6,167.2,160.7,170.1z"/>
<path class="st4" d="M185.2,174c-4.8,3.4-9.8,5.2-13,5c0.1,0.1,0.2,0.2,0.3,0.2s0.1,0,0.2,0c3.3,0,8.1-1.8,12.7-5.1
	c4.3-3.1,7.6-6.8,8.8-10c-0.1-0.1-0.1-0.1-0.2-0.2C192.8,167.2,189.6,170.9,185.2,174z"/>
<path class="st4" d="M204.5,194.4c-2.5,1.8-5.9,3.2-9.7,3.9c-4.9,0.9-9.4,0.4-12.3-1c0,0.1,0.1,0.2,0.1,0.3c1.9,0.9,4.5,1.4,7.5,1.4
	c1.5,0,3.1-0.2,4.8-0.4c3.8-0.6,7.4-2.1,9.8-3.9c1.5-1.1,2.4-2.2,3-3.4c0-0.1-0.1-0.2-0.1-0.3s0-0.1-0.1-0.2
	C207.1,192,206,193.2,204.5,194.4z"/>
<path class="st4" d="M207.9,194.4c0.1-0.4,0.1-0.9,0.1-1.4h-0.1C207.9,193.6,207.9,194,207.9,194.4z"/>
<path class="st4" d="M204.2,198.8c-2.5,1.7-6.1,3-9.9,3.5c-3.6,0.5-7,0.3-9.6-0.5c0.1,0.1,0.2,0.2,0.2,0.3c1.7,0.4,3.6,0.7,5.7,0.7
	c1.2,0,2.4-0.1,3.7-0.3c3.9-0.5,7.5-1.8,10-3.5c2-1.4,3.2-2.9,3.6-4.5c0-0.4,0-0.9,0-1.4h-0.2C208,195,206.8,197,204.2,198.8z"/>
<path class="st4" d="M188.8,260.3c4.3-3.5,8.5-6.4,12-8.3c-0.1-0.1-0.2-0.1-0.3-0.2c-3.4,1.9-7.5,4.8-11.8,8.3
	c-4.1,3.3-7.6,6.6-10.1,9.5c0.1,0.1,0.2,0.1,0.2,0.1C181.3,266.8,184.8,263.5,188.8,260.3z"/>
<path class="st4" d="M184,254.1c3-2.6,6.1-4.8,8.8-6.5c-0.1-0.1-0.2-0.1-0.3-0.1c-2.8,1.7-5.8,3.9-8.8,6.4c-5.1,4.4-9.2,9.2-11.4,13
	c0.1,0.1,0.2,0.1,0.2,0.1C174.8,263.3,179,258.5,184,254.1z"/>
<path class="st4" d="M211.8,259.9c-0.1-0.1-0.1-0.1-0.2-0.2c-2.7,2.4-6.1,5.1-9.9,7.9c-4.5,3.4-8.6,6.2-11.7,8.1
	c0.1,0.1,0.2,0.1,0.2,0.2c3.4-2.1,7.6-5,11.6-8.1C205.7,265.1,209.1,262.3,211.8,259.9z"/>
<path class="st4" d="M198.4,261.8c2.9-2.4,5.6-4.4,8-6.2c-0.1-0.1-0.2-0.1-0.2-0.2c-2.5,1.8-5.3,3.9-8,6.1
	c-5.5,4.4-10.1,8.7-12.6,11.5c0.1,0.1,0.2,0.1,0.2,0.1C188.4,270.4,193,266.2,198.4,261.8z"/>
<path class="st4" d="M216.8,264.7c-0.1-0.1-0.1-0.1-0.2-0.2c-2.5,2.2-6.2,4.9-10.2,7.6c-4.8,3.2-9,5.5-12.1,6.9
	c0.1,0.1,0.1,0.1,0.2,0.2c3.4-1.5,7.8-4.1,12-6.9C210.6,269.6,214.2,266.9,216.8,264.7z"/>
<path class="st4" d="M221.2,270.1c-0.1-0.1-0.1-0.1-0.2-0.2c-2.7,1.8-6.2,3.9-10.1,5.9c-5.8,3-10.8,4.9-14,5.7
	c0.1,0.1,0.1,0.2,0.2,0.2c3.6-1,8.9-3.1,13.9-5.7C215.1,274,218.5,271.9,221.2,270.1z"/>
<path class="st4" d="M199.8,284.3c4.2,0,9.5-1,15-3c3.9-1.4,7.5-3.2,10.3-5.1c-0.1-0.1-0.1-0.2-0.1-0.2c-2.9,1.9-6.4,3.7-10.3,5.1
	c-5.7,2.1-11.2,3.1-15.4,3c0.1,0.1,0.1,0.2,0.2,0.2C199.6,284.2,199.7,284.3,199.8,284.3z"/>
<path class="st4" d="M201.8,287.5c0.1,0.1,0.1,0.2,0.2,0.3c1.6,0.3,3.5,0.4,5.4,0.4c2.3,0,4.8-0.2,7.4-0.7c5.4-1,10.2-2.8,13.5-5
	c-0.1-0.1-0.1-0.2-0.1-0.2c-3.2,2.2-8,4.1-13.4,5C209.9,288.2,205.3,288.2,201.8,287.5z"/>
<path class="st4" d="M217,293.7c5.4-0.2,10.4-1.4,13.9-3.1c0-0.1-0.1-0.2-0.1-0.2c-3.5,1.8-8.4,2.9-13.9,3.1
	c-4.9,0.2-9.4-0.4-12.8-1.6c0.1,0.1,0.1,0.2,0.1,0.3c3,1,6.8,1.6,10.9,1.6C215.7,293.7,216.4,293.7,217,293.7z"/>
<path class="st4" d="M219.9,299.8c4.7-0.2,9-1.1,12.3-2.4c0-0.1,0-0.2-0.1-0.3c-3.3,1.4-7.6,2.2-12.3,2.4c-5.5,0.2-10.4-0.5-14-1.9
	c0,0.1,0.1,0.2,0.1,0.3c3.1,1.2,7.4,1.9,12.1,1.9C218.8,299.9,219.4,299.9,219.9,299.8z"/>
<path class="st4" d="M224.3,306.3c3.1,0,6.1-0.3,8.6-1c0-0.1,0-0.2,0-0.3c-3.4,0.9-7.5,1.2-11.8,0.9c-5.8-0.4-10.9-1.9-14.2-3.8
	c0,0.1,0,0.2,0.1,0.3c3.4,1.9,8.4,3.4,14.2,3.8C222.1,306.3,223.2,306.3,224.3,306.3z"/>
<path class="st4" d="M228.2,313.4c1.5,0,2.9-0.1,4.2-0.3c0-0.1,0-0.2,0.1-0.3c-3.5,0.5-7.6,0.3-12-0.5c-5.5-1-10.3-3-13.4-5.2
	c0,0.1,0,0.2,0,0.3c3.1,2.3,7.9,4.2,13.4,5.2C223.1,313.2,225.8,313.4,228.2,313.4z"/>
<path class="st4" d="M218,319.2c-4.9-1.7-9-4-11.8-6.4c0,0.1-0.1,0.2-0.1,0.3c2.8,2.4,6.9,4.8,11.8,6.4c4.3,1.5,8.4,2.2,12,2.2
	c0.2,0,0.4,0,0.6,0c0-0.1,0.1-0.2,0.1-0.3C227,321.5,222.5,320.7,218,319.2z"/>
<path class="st4" d="M205.1,316.1c-0.1,0.1-0.1,0.2-0.1,0.2c2.1,2.3,4.9,4.5,8.2,6.6c5.2,3.2,10.7,5.1,14.8,5.2
	c0.1-0.1,0.1-0.2,0.1-0.2c-4.1-0.1-9.5-2-14.8-5.2C210.1,320.7,207.3,318.3,205.1,316.1z"/>
<path class="st4" d="M203,320.1c-0.1,0.1-0.1,0.1-0.2,0.2c2.2,3.1,5.8,6.4,10.4,9.2c3.9,2.4,7.9,4.1,11.4,4.8c0-0.1,0.1-0.1,0.1-0.1
	c0-0.1,0.1-0.1,0.1-0.1c-3.5-0.8-7.5-2.4-11.4-4.8C208.9,326.5,205.2,323.2,203,320.1z"/>
<path class="st4" d="M201,322.7c-0.1,0.1-0.1,0.1-0.2,0.2c1.1,4,5.8,9.1,12.4,13.2c2.4,1.5,4.9,2.7,7.3,3.6c0.1-0.1,0.1-0.1,0.2-0.2
	c-2.4-0.9-4.9-2.1-7.4-3.6C206.8,331.8,202,326.6,201,322.7z"/>
<path class="st4" d="M197.9,325.8c-0.1,0.1-0.1,0.1-0.2,0.2c0.9,4,4.1,9.2,8.9,14c2.5,2.4,5.1,4.4,7.6,5.9c0.1-0.1,0.1-0.1,0.2-0.2
	c-2.5-1.5-5.2-3.5-7.7-6C201.9,334.9,198.7,329.7,197.9,325.8z"/>
<path class="st4" d="M200.3,341.3c-3.5-4.3-5.9-8.9-6.9-12.7c-0.1,0.1-0.2,0.1-0.2,0.1c1,3.8,3.4,8.3,6.9,12.7
	c2.8,3.4,5.9,6.2,8.9,8.1c0.1-0.1,0.2-0.1,0.2-0.2C206.3,347.6,203.1,344.7,200.3,341.3z"/>
<path class="st4" d="M191.2,329.8c-0.1,0.1-0.2,0.1-0.2,0.1c-0.3,4.1,1.5,10.2,5.1,16.2c1.7,2.8,3.6,5.3,5.6,7.4
	c0.1-0.1,0.2-0.1,0.2-0.1c-1.9-2.1-3.9-4.5-5.6-7.4C192.6,339.9,190.8,333.8,191.2,329.8z"/>
<path class="st4" d="M188.7,330.7c-0.1,0.1-0.2,0.1-0.3,0.1c-0.9,3.9-0.6,9.4,1,15.3c1.1,3.9,2.5,7.4,4.3,10.2
	c0.1,0,0.2-0.1,0.3-0.1c-1.7-2.8-3.2-6.3-4.3-10.2C188.1,340.1,187.8,334.6,188.7,330.7z"/>
<path class="st4" d="M184.4,332c-0.1,0.1-0.2,0.1-0.3,0.1c-1.1,3.8-1.2,9.2-0.1,15c0.7,3.7,1.8,7.1,3.2,10c0.1,0,0.2,0,0.3,0.1
	c-1.4-2.8-2.5-6.3-3.3-10.1C183.1,341.2,183.3,335.8,184.4,332z"/>
<path class="st4" d="M180.5,334.2c-0.1,0.1-0.2,0.2-0.3,0.3c-0.8,3.5-0.9,7.7-0.3,12.3c0.4,3,1,5.8,1.8,8.2c0.1,0.1,0.2,0.2,0.3,0.2
	c-0.9-2.5-1.6-5.4-1.9-8.5C179.5,342,179.7,337.7,180.5,334.2z"/>
<path class="st5" d="M199.6,113.8c7.8,0,16.8,5,16.9,5.1l1,0.5l1-0.5c0.1-0.1,9.3-5.1,17.1-5.1c3.5,0,6.1,1,7.8,2.9
	c2.6,2.9,3.4,8.1,2.5,15.4c-2,15.6-23.1,33.1-28.4,37.2c-5.3-4.1-26.5-21.5-28.3-37.1c-0.8-7.4,0.1-12.6,2.7-15.5
	C193.6,114.8,196.2,113.8,199.6,113.8 M235.6,111.8c-8.5,0-18.1,5.3-18.1,5.3s-9.5-5.3-17.9-5.3c-7.6,0-14.3,4.3-12.4,20.6
	c2.2,18.9,30.3,39.4,30.3,39.4s27.9-20.6,30.3-39.4C249.9,116.1,243.2,111.9,235.6,111.8L235.6,111.8z"/>
<path class="st5" d="M204.1,120.8c5.8,0,12.6,3.7,12.7,3.8l0.7,0.4l0.7-0.4c0.1,0,7-3.8,12.9-3.8c2.6,0,4.6,0.7,5.8,2.2
	c1.9,2.2,2.6,6.1,1.8,11.6c-1.5,11.7-17.3,24.8-21.3,27.9c-4-3.1-19.9-16.1-21.3-27.8c-0.6-5.5,0.1-9.4,2-11.6
	C199.5,121.6,201.5,120.8,204.1,120.8 M231,119.4c-6.4,0-13.6,4-13.6,4s-7.1-4-13.4-4c-5.7,0-10.7,3.2-9.3,15.5
	c1.6,14.2,22.8,29.5,22.8,29.5s20.9-15.4,22.7-29.5C241.8,122.6,236.8,119.4,231,119.4L231,119.4z"/>
<path class="st5" d="M207.4,126.1c4.4,0,9.5,2.8,9.5,2.8l0.6,0.3l0.5-0.3c0.1,0,5.2-2.8,9.6-2.8c1.9,0,3.4,0.6,4.4,1.7
	c1.4,1.6,1.9,4.6,1.4,8.7c-1.1,8.8-13,18.6-15.9,20.9c-3-2.3-15-12.1-15.9-20.9c-0.5-4.1,0-7.1,1.5-8.7
	C204.1,126.6,205.5,126.1,207.4,126.1 M227.7,125c-4.8,0-10.2,3-10.2,3s-5.3-3-10.1-3c-4.3,0-8,2.4-7,11.6
	c1.2,10.6,17.1,22.2,17.1,22.2s15.7-11.6,17-22.2C235.7,127.4,232,125,227.7,125L227.7,125z"/>
<path class="st5" d="M210,130c3.3,0,7.1,2.1,7.1,2.1l0.4,0.2l0.4-0.2c0,0,3.9-2.1,7.2-2.1l0,0c1.2-0.1,2.4,0.4,3.3,1.2
	c1.1,1.2,1.4,3.4,1,6.5c-0.9,6.6-9.8,14-12,15.7c-2.2-1.7-11.2-9.1-11.9-15.7c-0.3-3.1,0-5.3,1.1-6.5l0,0
	C207.6,130.4,208.8,129.9,210,130 M225.1,129.2c-3.6,0-7.6,2.2-7.6,2.2s-4-2.2-7.6-2.2c-3.2,0-6,1.8-5.2,8.7
	c0.9,8,12.8,16.6,12.8,16.6s11.8-8.7,12.8-16.7C231.2,131,228.4,129.2,225.1,129.2L225.1,129.2z"/>
<path class="st5" d="M211.9,133c2.5,0,5.3,1.6,5.4,1.6l0.3,0.2l0.3-0.2c0,0,2.9-1.6,5.4-1.6l0,0c0.9-0.1,1.8,0.3,2.5,0.9
	c0.8,0.9,1.1,2.6,0.8,4.9c-0.7,5-7.3,10.5-9,11.8c-1.7-1.3-8.4-6.8-9-11.7c-0.3-2.3,0-4,0.9-4.9l0,0
	C210,133.3,210.9,132.9,211.9,133z M223.2,132.4c-2.7,0-5.7,1.7-5.7,1.7s-3-1.7-5.7-1.7c-2.4,0-4.5,1.3-3.9,6.5
	c0.7,6,9.6,12.5,9.6,12.5s8.8-6.5,9.6-12.5C227.8,133.7,225.7,132.4,223.2,132.4z"/>
<path class="st5" d="M213.3,135.2c1.4,0.1,2.8,0.5,4,1.2l0.3,0.1l0.2-0.1c1.3-0.7,2.6-1.1,4.1-1.2c0.7-0.1,1.4,0.2,1.8,0.7
	c0.6,0.7,0.8,1.9,0.6,3.7c-0.5,3.7-5.5,7.8-6.7,8.8c-1.3-1-6.3-5.1-6.7-8.8c-0.2-1.7,0-3,0.7-3.7l0,0
	C212,135.4,212.6,135.2,213.3,135.2 M221.9,134.7c-1.5,0.1-3,0.5-4.3,1.2c-1.3-0.7-2.8-1.1-4.2-1.3c-1.8,0-3.4,1-2.9,4.9
	c0.5,4.5,7.2,9.3,7.2,9.3s6.6-4.9,7.2-9.3C225.2,135.8,223.6,134.7,221.9,134.7L221.9,134.7z"/>
</svg>
