<svg width="81" height="78" viewBox="0 0 81 78" fill="none" xmlns="http://www.w3.org/2000/svg">
<path d="M79.3133 75.0607H75.4122V37.3545C75.4122 36.3199 75.0015 35.3277 74.2697 34.5959C73.5386 33.8641 72.5465 33.4534 71.5119 33.4534H62.41V21.7519C62.41 21.0335 61.8278 20.4513 61.1101 20.4513C60.3917 20.4513 59.8095 21.0335 59.8095 21.7519V33.4541L41.6068 33.4534V21.7519C41.6068 21.0335 41.0246 20.4513 40.3069 20.4513C39.5885 20.4513 39.0064 21.0335 39.0064 21.7519V33.4541L20.8036 33.4534V21.7519C20.8036 21.0335 20.2214 20.4513 19.5037 20.4513C18.7854 20.4513 18.2032 21.0335 18.2032 21.7519V33.4541L9.10198 33.4534C8.06745 33.4534 7.07522 33.8641 6.34339 34.5959C5.6116 35.3277 5.2009 36.3199 5.2009 37.3545V43.8559V43.8552V75.0597H1.30057C0.582178 75.0597 0 75.6419 0 76.3602C0 77.0779 0.582196 77.6601 1.30057 77.6601H79.3144C80.0321 77.6601 80.6143 77.0779 80.6143 76.3602C80.6143 75.6418 80.0321 75.0597 79.3144 75.0597L79.3133 75.0607ZM9.10193 36.0538H71.5126C71.857 36.0538 72.188 36.1907 72.4321 36.4348C72.6756 36.6783 72.8125 37.0093 72.8125 37.3543V51.2011C71.9784 51.5025 71.0991 51.6563 70.212 51.6563C66.6101 51.6563 62.4106 49.9528 62.4106 45.1549V45.1556C62.4106 44.4372 61.8284 43.855 61.1107 43.855C60.3923 43.855 59.8102 44.4372 59.8102 45.1556C59.8102 49.9536 55.6107 51.657 52.0088 51.657C48.4069 51.657 44.2074 49.9535 44.2074 45.1556C44.2074 44.4372 43.6252 43.855 42.9075 43.855C42.1891 43.855 41.607 44.4372 41.607 45.1556C41.607 49.9536 37.4075 51.657 33.8056 51.657C30.2037 51.657 26.0042 49.9535 26.0042 45.1556C26.0042 44.8105 25.8673 44.4796 25.6231 44.2361C25.3797 43.9919 25.0487 43.855 24.7043 43.855C23.9859 43.855 23.4038 44.4372 23.4038 45.1556C23.4038 49.9536 19.2043 51.657 15.6024 51.657V51.6563C13.5334 51.6563 11.5489 50.8342 10.0861 49.3714C8.62334 47.9086 7.80118 45.9241 7.80118 43.8551V37.3544C7.80118 36.636 8.38338 36.0539 9.10175 36.0539L9.10193 36.0538ZM7.80136 50.7072C9.77086 52.9569 12.6127 54.2497 15.6027 54.2567C19.7634 54.2567 23.0137 52.6054 24.7047 49.8877C26.3948 52.6053 29.6452 54.2567 33.8059 54.2567C37.9665 54.2567 41.2168 52.6054 42.9078 49.8877C44.5979 52.6053 47.8483 54.2567 52.009 54.2567C56.1696 54.2567 59.4199 52.6054 61.1109 49.8877C62.801 52.6053 66.0514 54.2567 70.2121 54.2567C71.0892 54.2496 71.9629 54.136 72.8126 53.9187V75.0607H7.80227L7.80136 50.7072Z" fill="#D63C1A"/>
<path d="M19.5023 15.2514C20.6067 15.2465 21.6813 14.8894 22.5698 14.2324C23.4582 13.5754 24.1138 12.6524 24.4426 11.5981C24.6141 11.0999 24.7023 10.577 24.703 10.0506C24.7369 6.5314 23.0595 3.21459 20.2044 1.15693L19.3724 0.624146L18.6314 1.27409C18.4486 1.44345 14.3013 5.20115 14.3013 10.0506C14.3013 11.4302 14.8489 12.7527 15.8241 13.7279C16.7994 14.7038 18.1226 15.2514 19.5021 15.2514L19.5023 15.2514ZM19.5933 4.01759C21.222 5.59903 22.1295 7.78027 22.1028 10.0506C22.1028 10.3032 22.0583 10.5544 21.9722 10.7915C21.716 11.5748 21.1042 12.1895 20.3223 12.4499C19.5411 12.7103 18.6823 12.5847 18.0078 12.1111C17.3339 11.6383 16.9232 10.8741 16.902 10.0506C17.0812 7.79098 18.031 5.66047 19.5933 4.01759Z" fill="#D63C1A"/>
<path d="M40.3062 15.2514C41.4106 15.2465 42.4853 14.8894 43.3737 14.2324C44.2622 13.5754 44.9178 12.6524 45.2466 11.5981C45.4244 11.1013 45.5126 10.5777 45.507 10.0506C45.5408 6.5314 43.8634 3.21459 41.0083 1.15693L40.1763 0.624146L39.4353 1.27409C39.266 1.44345 35.1052 5.20115 35.1052 10.0506C35.1052 11.4302 35.6528 12.7527 36.6281 13.7279C37.6033 14.7038 38.9266 15.2514 40.306 15.2514L40.3062 15.2514ZM40.4099 4.01759C42.0295 5.60468 42.9306 7.78316 42.9066 10.0506C42.9066 10.3032 42.8621 10.5544 42.776 10.7915C42.618 11.325 42.2919 11.7936 41.8474 12.1281C41.4028 12.4633 40.8622 12.646 40.3062 12.651C39.616 12.651 38.9548 12.3772 38.4671 11.8896C37.9795 11.4019 37.7057 10.74 37.7057 10.0505C37.8835 7.78744 38.839 5.65631 40.4099 4.01759Z" fill="#D63C1A"/>
<path d="M61.1107 15.2514C62.2172 15.2493 63.2948 14.8936 64.186 14.2359C65.0765 13.5789 65.7349 12.6545 66.0644 11.598C66.2317 11.0991 66.3149 10.5762 66.3114 10.0504C66.346 6.53128 64.6679 3.21446 61.8128 1.15681L60.9807 0.624023L60.2398 1.27396C60.0704 1.44333 55.9097 5.20103 55.9097 10.0505C55.9097 11.4301 56.4573 12.7526 57.4325 13.7277C58.4078 14.7037 59.731 15.2513 61.1105 15.2513L61.1107 15.2514ZM61.2144 4.01756C62.834 5.60465 63.7351 7.78313 63.7111 10.0505C63.7174 10.3039 63.673 10.5558 63.5805 10.7915C63.4224 11.325 63.0964 11.7936 62.6519 12.128C62.2073 12.4633 61.6667 12.646 61.1107 12.651C60.4205 12.651 59.7593 12.3772 59.2716 11.8895C58.784 11.4019 58.5102 10.74 58.5102 10.0505C58.688 7.78741 59.6435 5.65628 61.2144 4.01756Z" fill="#D63C1A"/>
</svg>
