<svg width="157" height="122" viewBox="0 0 157 122" fill="none" xmlns="http://www.w3.org/2000/svg">
<path d="M118.098 121.357H38.8105C38.0292 121.357 37.3947 120.723 37.3947 119.941V53.3739L26.0879 62.6541C25.7918 62.8979 25.4123 63.0099 25.0291 62.9663C24.6484 62.9228 24.3013 62.7262 24.0686 62.4227L0.293143 31.4732C-0.182124 30.8549 -0.0676537 29.9678 0.550682 29.4913L38.3664 0.296175C38.6139 0.104577 38.9175 0.00131226 39.231 0.00131226H117.678C117.99 0.00131226 118.295 0.104577 118.543 0.296175L156.358 29.4913C156.977 29.9678 157.091 30.8549 156.616 31.4732L132.839 62.4214C132.605 62.7249 132.258 62.9215 131.879 62.9651C131.495 63.0086 131.116 62.8966 130.82 62.6528L119.513 53.3726V119.943C119.512 120.725 118.878 121.358 118.097 121.358L118.098 121.357ZM40.2247 118.526H116.681V50.3795C116.681 49.8321 116.997 49.3344 117.491 49.1005C117.985 48.8666 118.571 48.9388 118.994 49.2859L131.484 59.5366L153.509 30.8676L117.193 2.82962L39.7147 2.83087L3.39914 30.8676L25.4229 59.5365L37.9129 49.2859C38.3359 48.9388 38.9219 48.8666 39.4158 49.1005C39.9098 49.3344 40.2258 49.8321 40.2258 50.3795L40.2247 118.526Z" fill="#B68176"/>
<path d="M78.4574 15.7159C69.0256 15.7159 60.5331 10.4795 56.2942 2.0516C56.074 1.61242 56.0964 1.09113 56.3539 0.673093C56.6114 0.25506 57.068 0 57.5582 0H99.3552C99.8466 0 100.302 0.255053 100.559 0.673093C100.817 1.09113 100.839 1.61242 100.619 2.0516C96.3803 10.4807 87.8877 15.7159 78.4559 15.7159H78.4574ZM59.9929 2.83034C64.0153 9.0873 70.8952 12.8854 78.4574 12.8854C86.0193 12.8854 92.8983 9.08698 96.9219 2.83034H59.9929Z" fill="#B68176"/>
<path d="M78.4575 23.9237C65.083 23.9237 52.878 15.0729 48.0843 1.90096C47.9263 1.46675 47.9897 0.982781 48.2547 0.604561C48.5197 0.22634 48.9527 0.00115967 49.4142 0.00115967H107.503C107.964 0.00115967 108.397 0.22635 108.662 0.604561C108.927 0.982772 108.991 1.46675 108.833 1.90096C104.036 15.0739 91.83 23.9237 78.458 23.9237H78.4575ZM51.5043 2.83162C56.3255 13.8336 66.9204 21.0932 78.4575 21.0932C89.9933 21.0932 100.588 13.8336 105.411 2.83162H51.5043Z" fill="#B68176"/>
</svg>
