<?xml version="1.0" encoding="utf-8"?>
<!-- Generator: Adobe Illustrator 23.1.0, SVG Export Plug-In . SVG Version: 6.00 Build 0)  -->
<svg version="1.1" id="Calque_1" xmlns="http://www.w3.org/2000/svg" xmlns:xlink="http://www.w3.org/1999/xlink" x="0px" y="0px"
	 viewBox="0 0 69 124" style="enable-background:new 0 0 69 124;" xml:space="preserve">
<style type="text/css">
	.st0{fill:#4C160D;}
</style>
<path class="st0" d="M58.5,39.6c4.3-12.5,6.8-25.5,5.1-38.6c-0.2-1.4-2.4-1.4-2.2,0.1c1.7,12.6-0.7,25.1-4.8,37.1
	c-6.8-4-16.1-4.2-22.3-2c-0.8,0.3-1,1.2-0.4,1.9c8.9,10.2-18.6-0.8-32.9,39.2c-4.5,17.4,9,35.4,7.5,45.6c-0.1,0.7,0.7,1.2,1.4,1
	c45.9-10.5,50.9-23.9,56.9-39.2C71.2,73.5,69.3,49.5,58.5,39.6L58.5,39.6z M63.1,88.6c-10.8,23.9-35.5,28.7-52.5,32.8
	C12,113.3-1,92.9,3.1,77.8c4.8-15.4,15.4-25.1,23.5-29.3c5-2.6,14.3-3,10-10.6c5.5-2.1,15.3,0,19.3,2.4c-0.7,1.9-1.4,3.7-2.1,5.6
	c-4.5,4.9-9.5,9.3-15,13.2c-5.4,3.9-13.1,6.8-19.9,8.8c9.8-1.2,17.1-1.5,32.4-16.3C50,54.5,39.9,75.4,33,86.1
	c-4.8,3.5-17.7,8.2-20,8.8c4.1-0.4,11.7-2.1,18.1-5.6c-8.5,14.3-16.4,26.9-16.2,27.1c4.9-5.1,32.9-49.9,37.3-61.5
	c-0.8,13.2-4.5,29.1-7.7,34.7c6-7.9,10.2-25.7,10.1-39.9c0,0,2.2-5.5,3.2-8.2C69.3,56.2,68,77.7,63.1,88.6L63.1,88.6z"/>
</svg>
