<?xml version="1.0" encoding="utf-8"?>
<!-- Generator: Adobe Illustrator 23.1.0, SVG Export Plug-In . SVG Version: 6.00 Build 0)  -->
<svg version="1.1" id="Calque_1" xmlns="http://www.w3.org/2000/svg" xmlns:xlink="http://www.w3.org/1999/xlink" x="0px" y="0px"
	 viewBox="0 0 1169 505" style="enable-background:new 0 0 1169 505;" xml:space="preserve">
<style type="text/css">
	.st0{fill:#4C160D;}
</style>
<path class="st0" d="M119.9,113.7c2.4,5.9,3.7,12.1,3.8,18.9c-0.2,45.1-56.8,92.7-59.2,94.7c-0.5,0.5-1.2,0.7-1.9,0.5
	c-0.7-0.2-1.2-0.8-1.5-1.3c-1.1-3-27.7-73.6-5.3-112.7c7.5-13,19.6-21,36.1-23.7c4.5-0.7,9,0.5,12.5,3.4
	C111.5,99.4,116.7,106.2,119.9,113.7L119.9,113.7z M64,221.8c10.9-9.5,55.2-51.1,55.4-89.4c0-13.8-6-26-17.9-35.9
	c-2.5-2-5.8-3-9-2.4c-15.1,2.5-26.2,9.8-33.1,21.7C40.6,148.7,59.3,208.1,64,221.8L64,221.8z"/>
<path class="st0" d="M133.9,51.1c0.4,1,0.1,2.1-0.8,2.6c-12.2,7.9-23.4,21-33,39.2c-0.5,1.1-1.9,1.5-2.9,0.9
	c-1.1-0.5-1.5-1.9-0.9-2.9c10-18.8,21.5-32.5,34.5-40.7c1-0.7,2.3-0.3,2.9,0.6L133.9,51.1L133.9,51.1z"/>
<path class="st0" d="M99.1,91.5c0.1,0.2,0.1,0.6-0.2,1c-28.3,53.3-34.8,132.4-34.9,133.2c0,0.6-0.5,1.1-1.1,0.9
	c-0.6,0-1.1-0.5-0.9-1.1c0.1-0.8,6.7-80.5,35.2-134c0.2-0.6,1-0.8,1.4-0.5C98.8,91.2,99,91.3,99.1,91.5L99.1,91.5z"/>
<path class="st0" d="M73.7,164.9l-21.1,19.4c-0.4,0.4-1.2,0.3-1.5-0.1c-0.4-0.4-0.3-1.2,0.1-1.5l21.1-19.4c0.4-0.4,1.2-0.3,1.5,0.1
	c0.1,0.1,0.2,0.2,0.2,0.2C74.1,164.1,74,164.6,73.7,164.9z"/>
<path class="st0" d="M85.5,123.7l-35.2,28.4c-0.4,0.4-1,0.2-1.5-0.2c-0.4-0.4-0.2-1.1,0.2-1.5l35.1-28.6c0.4-0.4,1.1-0.2,1.5,0.2
	l0.1,0.3C85.9,122.9,85.8,123.4,85.5,123.7z"/>
<path class="st0" d="M100.7,185.8c-0.6,0.4-1.2,0.2-1.5-0.4l-21-42.6c-0.4-0.6-0.2-1.2,0.4-1.5c0.6-0.4,1.2-0.2,1.5,0.4l21,42.6
	c0-0.1,0-0.1,0,0C101.4,184.9,101.2,185.5,100.7,185.8z"/>
<path class="st0" d="M117.8,155.7c0.2,0.5,0,1.2-0.4,1.4c-0.6,0.4-1.2,0.2-1.5-0.4L90.1,108c-0.4-0.6-0.1-1.3,0.4-1.5
	c0.6-0.4,1.2-0.2,1.5,0.4L117.8,155.7L117.8,155.7z"/>
<path class="st0" d="M1069.7,252.7c-1.7-15.2-5.5-30.1-13.8-42.9c-0.9-1.4-3.2-0.3-2.3,1.2c8,12.3,11.7,26.6,13.3,41.2
	c-9.1-0.8-18.9,3.6-24.3,8.9c-0.7,0.7-0.5,1.8,0.5,2.2c14.4,6.3-19.9,8.4-15,57.3c3.9,20.4,26.9,32.6,30.4,44c0.2,0.8,1.4,0.9,2,0.4
	c42.8-33.7,41.4-50.2,40.2-69.2C1099.8,281.8,1085.9,257.7,1069.7,252.7L1069.7,252.7z M1098.8,301.8c0.5,30.4-23,47.6-38.7,60.3
	c-2.5-9.2-26.3-24.2-29.4-41.9c-2.6-18.5,3.8-33.9,10.1-42.3c4.1-5.2,13.5-10.2,5.2-16c4.7-4.9,16-7.6,21.4-7
	c0.2,2.3,0.4,4.6,0.6,6.9c-2.3,7.4-5.3,14.4-9.2,21.2c-3.7,6.8-10.3,13.6-16.5,19.1c9.7-6.1,17.2-10,25.8-33.1
	c0.1,3.8-0.1,30.7-2.1,45.3c-3.3,6-14.5,17.3-16.6,19.1c4.1-2.4,11.2-8,16.2-14.8c-1.8,19.2-3.9,36.3-3.5,36.4
	c2.6-7.8,9.7-68.5,8.6-82.8c5.7,14.2,9.7,32.7,9.1,40.1c2.4-11.2-2-31.9-9.2-46.8c0,0-0.4-6.8-0.7-10.2
	C1089.3,264.8,1098.5,287.9,1098.8,301.8L1098.8,301.8z"/>
</svg>
