<svg width="148" height="235" viewBox="0 0 148 235" fill="none" xmlns="http://www.w3.org/2000/svg">
<path d="M60.5073 173.904C64.2227 168.588 66.3229 162.774 72.4828 159.873C74.2948 162.336 75.2599 165.26 75.251 168.253C75.2398 171.246 74.2523 174.163 72.4225 176.616C70.338 179.182 67.8625 181.469 65.2531 184.206C66.6293 187.71 68.1999 191.514 69.6142 195.365C71.2653 199.862 72.8024 204.394 74.344 208.925C75.3605 211.911 76.4508 214.885 77.2193 217.931C77.9075 220.651 78.1711 223.466 78.6783 226.231C78.924 227.58 79.2949 228.91 79.6099 230.246L80.336 230.168C80.3383 203.634 80.3405 177.099 80.3427 150.16C78.6805 149.06 76.6675 147.609 74.5294 146.346L74.5272 146.348C72.6862 145.229 71.1245 143.753 69.9493 142.019C66.3902 136.776 64.7704 130.585 65.3357 124.396C71.4665 122.568 77.4943 125.571 81.2566 131.722C82.0743 111.086 82.2553 90.4072 85.9462 70.2978C80.7472 65.734 77.7489 59.3839 77.6437 52.7064C77.5722 49.1437 78.0123 45.5725 78.2089 42.0037V42.0058C78.1151 41.4529 78.3698 40.8999 78.8635 40.5879C79.3573 40.2737 79.9985 40.259 80.5101 40.546L87.3736 52.3966C87.6372 50.832 87.8137 49.2549 87.9031 47.6736C88.0572 41.914 89.4089 36.238 91.8821 30.9642C92.6194 29.6112 92.7199 28.0319 92.1614 26.6056C91.1203 24.1069 90.8477 21.3841 91.375 18.7495C91.9045 16.1126 93.2115 13.6684 95.1508 11.6956C98.1848 8.28997 100.982 4.70647 103.527 0.965548C103.867 0.563415 104.293 0.234578 104.778 0C105.082 0.0251334 105.375 0.108911 105.641 0.249239C105.549 2.40023 105.498 4.62033 105.35 6.83405C105.075 10.937 104.807 15.0424 104.407 19.1345V19.1366C104.206 21.4468 102.901 23.5475 100.859 24.8544C100.022 25.6021 99.1324 26.2933 98.1918 26.9258C93.4263 29.2381 92.3093 33.4919 91.0715 37.8526C89.3579 44.4943 88.6586 51.3284 88.996 58.1539C89.1658 64.8959 87.1863 71.1584 86.4155 77.6596C85.7207 83.5431 84.9723 89.4201 84.8918 95.5149C85.3319 94.9745 85.7921 94.4467 86.2055 93.8896C86.6054 93.3576 86.9785 92.8089 87.3181 92.2413C89.702 88.2199 93.6433 85.2082 98.3259 83.8297C99.4139 83.4779 100.482 83.0736 101.563 82.6987V82.7008C102.814 82.0704 104.36 82.307 105.337 83.2747C104.49 86.3702 103.692 89.3801 102.841 92.3774V92.3753C101.872 96.2228 99.1169 99.4609 95.3298 101.201C93.2096 102.496 90.886 103.476 88.4418 104.104C87.1705 104.766 86.011 105.604 85.0056 106.59C83.8974 107.384 83.3992 108.718 83.7388 109.985C83.5333 116.912 83.3881 123.838 83.1065 130.76C82.8518 137.035 82.4519 143.304 82.1145 149.577C82.1078 149.686 82.0855 149.793 82.0833 149.901C81.766 159.209 81.3214 168.515 81.1918 177.827C81.1293 182.363 81.8018 186.906 81.8643 191.451C81.9224 195.665 81.5046 199.885 81.5024 204.102C81.5002 208.196 81.7794 212.293 81.9045 216.388C81.9738 218.65 81.9671 220.914 82.0118 223.176H82.014C81.976 224.367 82.1771 225.555 82.6038 226.675C83.1758 223.969 83.7968 221.272 84.3085 218.557C85.9373 209.928 87.4632 201.284 89.1478 192.663C91.2077 182.116 93.319 171.575 95.5691 161.062L95.5713 161.064C96.1254 159.054 95.6718 156.915 94.3358 155.259C91.0359 151.156 89.358 146.106 89.5859 140.972C89.6842 137.832 89.8763 134.695 89.9702 131.556C90.3388 129.011 91.1833 126.548 92.4658 124.28C98.0914 128.932 99.6243 134.848 99.8073 141.339L100.663 141.064C102.131 136.744 103.456 132.372 105.105 128.11C107.27 122.516 109.542 116.947 112.042 111.478C115.223 104.519 118.474 97.5729 122.085 90.8057C124.768 85.777 128.001 80.9974 131.151 76.1992L131.149 76.2013C132.105 74.9781 132.461 73.4303 132.121 71.9474C131.884 70.8855 131.73 69.8069 131.665 68.7241C131.35 66.3113 132.134 63.8859 133.826 62.0449C136.625 59.1713 139.646 56.4885 142.563 53.7175C143.611 52.7227 144.632 51.7006 145.682 50.7078C146.131 50.2826 146.625 49.8994 147.15 49.4554V49.4533C147.49 49.6606 147.773 49.9371 147.981 50.2638C148.185 55.8937 146.732 61.4672 143.783 66.3765C142.892 67.4824 141.884 68.5045 140.778 69.426C139.489 70.6576 138.158 71.8472 136.862 73.0725C136.623 73.4411 136.325 73.7741 135.979 74.0611C132.087 75.722 130.82 79.3391 128.91 82.4346C126.194 86.8391 123.624 91.3255 121.037 95.7993C120.4 96.901 119.931 98.0886 119.35 99.3159H119.352C119.667 99.4039 120 99.4353 120.329 99.4081C125.132 96.0947 130.668 96.8717 136.06 96.9953C137.092 97.0812 138.075 97.4519 138.884 98.0614C139.699 98.5159 140.253 99.2929 140.387 100.175C140.521 101.056 140.224 101.949 139.578 102.6C136.381 106.825 131.247 109.39 125.724 109.526C123.532 109.566 121.341 109.417 119.178 109.078C117.931 108.967 116.691 108.77 115.197 108.58C101.921 133.889 96.8605 161.171 91.4492 188.363L92.1262 188.725C92.8568 187.823 93.5315 186.872 94.3291 186.024C96.3913 183.831 98.4467 181.627 100.634 179.548C101.391 178.877 102.329 178.414 103.346 178.205C107.053 177.422 110.793 176.785 114.756 176.048C114.895 176.653 114.908 177.279 114.794 177.889C113.096 181.912 111.154 185.839 108.983 189.655C106.633 193.48 102.497 196.041 97.823 196.567C94.8202 197.26 92.0028 198.53 89.552 200.297C89.0426 200.873 88.7611 201.598 88.7588 202.346C87.4965 209.944 86.1202 217.53 85.1059 225.158C84.5787 229.123 84.0715 232.872 79.4557 235C78.1151 234.931 77.9275 233.708 77.7398 232.512C77.2974 229.724 76.7635 226.945 76.4731 224.143L76.4708 224.14C75.6755 218.439 74.1406 212.851 71.8997 207.498C69.6342 201.475 67.61 195.371 65.2868 189.369C63.1598 183.873 60.758 178.469 58.5062 173.015C57.6349 170.902 56.8172 168.77 56.0241 166.629C55.3806 164.889 54.8913 163.098 54.1921 161.379C53.1465 158.807 52.1545 158.526 49.4109 159.636C47.1946 160.533 44.9447 161.37 42.6658 162.11H42.6681C39.5156 163.429 35.9722 163.685 32.6412 162.836C29.31 161.988 26.392 160.086 24.3856 157.452C23.3221 156.176 22.3011 154.867 21.3158 153.644C21.8096 150.841 24.2739 148.714 27.2921 148.481C30.0112 147.968 32.6855 147.212 35.4225 146.841L35.4247 146.839C38.557 146.623 41.6824 147.373 44.3191 148.977C45.1837 149.413 46.0059 149.926 47.5877 150.827C46.0104 147.909 44.9291 145.662 43.622 143.534C39.6429 137.058 35.7108 130.55 31.4995 124.208C28.2175 119.265 24.5108 114.574 21.0568 109.729C17.9222 105.335 14.886 100.878 11.7694 96.4733H11.7672C11.3583 95.9853 10.869 95.5623 10.3171 95.2209C10.0289 95.0345 9.70276 94.9088 9.35868 94.8564C0.030695 93.1097 -1.26706 83.8042 0.920083 77.8033C1.35798 76.6011 1.68866 75.3653 2.21143 73.6856C3.20788 73.6395 4.20434 73.7861 5.14045 74.1108C8.94079 76.0251 11.8163 79.2338 13.1701 83.073C14.3587 86.4576 14.7608 90.0412 14.352 93.581C14.0459 95.621 14.457 97.6966 15.5227 99.4977C18.7243 104.229 22.4199 108.665 25.9832 113.296C26.3764 109.57 26.459 106.078 27.1695 102.702C28.6195 98.1277 30.9096 93.8277 33.9391 89.9929C34.2542 89.5363 34.663 89.1405 35.1412 88.8326C36.3364 88.0262 37.4424 88.2356 37.8244 89.5929V89.5908C38.6622 91.8444 39.1158 94.2049 39.1739 96.5884C38.8231 101.975 38.1261 107.335 37.0872 112.644C36.4303 114.724 35.273 116.634 33.7046 118.228C31.9686 119.908 31.9083 122.559 33.5705 124.306C36.2851 128.185 38.4545 132.397 40.903 136.444C44.5358 142.453 47.8556 148.667 51.9977 154.351H51.9955C54.4598 158.073 56.379 162.088 57.7016 166.287C58.6512 168.824 59.5739 171.366 60.5077 173.907L60.5073 173.904ZM24.1282 152.961C24.8856 154.05 25.4732 154.976 26.1434 155.843H26.1457C28.5675 159.211 32.6894 161.15 37.0174 160.96C42.0108 160.555 46.8458 159.114 51.1709 156.739C41.2778 147.121 30.4376 148.253 24.1307 152.961H24.1282ZM80.8253 146.531C81.0488 145.894 81.1113 145.22 81.0108 144.556C79.458 141.863 79.9965 138.848 79.3597 136.025C79.1207 134.968 78.8727 133.908 78.5755 132.863V132.865C77.731 130.228 75.7426 128.046 73.0973 126.85C71.4842 125.903 69.431 125.915 67.8313 126.883C67.3085 131.053 68.3072 135.265 70.6665 138.834C73.0258 142.403 76.6072 145.118 80.8253 146.531ZM110.681 179.319C100.571 181.326 102.014 179.891 95.5125 187.978C93.8302 190.07 92.0227 192.286 93.0236 195.237C101.857 195.832 109.82 188.139 110.68 179.319L110.681 179.319ZM102.251 85.44C97.7516 86.2086 93.6519 88.3513 90.5886 91.5326C87.5232 94.714 85.6666 98.7565 85.3069 103.029C89.076 102.495 92.6308 101.056 95.629 98.8524C97.1706 97.9246 98.4239 96.6365 99.2663 95.1138C100.446 91.9407 101.442 88.7117 102.251 85.44ZM31.0145 117.602C35.5768 112.657 37.7441 99.5586 35.1679 93.6124C31.964 96.7457 29.8505 100.717 29.1086 105.002C28.3668 109.285 29.0328 113.679 31.0145 117.602ZM138.107 100.315C131.949 96.3226 120.627 99.3659 117.82 105.628C123.739 108.923 135.307 105.945 138.107 100.315ZM96.0707 153.334C99.6723 145.548 98.3161 133.326 93.4456 128.617C90.2998 133.608 91.6918 147.718 96.0707 153.334ZM95.5725 26.774C98.5328 24.4701 101.607 22.6019 102.067 19.0938C102.628 14.8127 102.744 10.4817 103.084 5.75847C101.234 7.83407 99.7524 9.44889 98.3247 11.1035C96.0123 13.399 94.4127 16.2412 93.6955 19.3264C92.8376 21.9444 93.5547 24.7927 95.5722 26.7744L95.5725 26.774ZM64.5103 181.585C71.1747 177.536 75.3282 168.342 70.9294 163.043V163.045C70.4557 163.302 70.0334 163.631 69.676 164.019C67.5736 167.357 65.3417 170.643 63.5252 174.118C61.9568 176.516 62.3655 179.616 64.5103 181.585ZM11.8684 92.3272C11.6047 86.1697 10.2575 80.743 4.83503 76.8198C-0.866652 84.6722 3.98381 92.3647 11.8684 92.3272ZM135.153 71.2988C141.192 68.1969 146.44 60.9752 144.625 54.0864C141.404 57.2993 138.247 60.2524 135.344 63.4089C133.36 65.6856 133.282 68.938 135.154 71.2988H135.153ZM86.3938 65.7697C86.4608 58.6337 85.7548 51.7036 80.9334 45.7531C79.823 49.2404 79.7426 52.9454 80.7056 56.4702C81.6685 59.9973 83.6346 63.21 86.3938 65.7697Z" fill="#D63C1A"/>
</svg>
