<?xml version="1.0" encoding="utf-8"?>
<!-- Generator: Adobe Illustrator 23.1.0, SVG Export Plug-In . SVG Version: 6.00 Build 0)  -->
<svg version="1.1" id="Calque_1" xmlns="http://www.w3.org/2000/svg" xmlns:xlink="http://www.w3.org/1999/xlink" x="0px" y="0px"
	 viewBox="0 0 1440 251" style="enable-background:new 0 0 1440 251;" xml:space="preserve">
<style type="text/css">
	.st0{fill-rule:evenodd;clip-rule:evenodd;fill:#B68176;}
	.st1{fill:#B68176;}
</style>
<path class="st0" d="M1099.9,36.7c0,11,2.4,15.9,4.5,19.9c1.3,2.5,2.6,4.5,3.1,7.7c0.3,1.8,0.3,4-0.1,6.9c-0.7,5.5-0.8,9.9-0.6,13.8
	c0.4,7.3,1.7,12.9,1.6,20.4c-0.1,4.3-0.7,10.6-1.4,17c-1.2,10.5-2.8,21.4-3.4,25.5c-1.8,12.3-3.9,26.9-6.3,40.5
	c-1.8,9.8-3.8,19.1-5.9,26.6c-0.1,0.5,0.2,1,0.6,1.2c0.5,0.1,1-0.1,1.1-0.6c2.1-7.5,4.1-16.9,5.9-26.8c2.5-13.6,4.6-28.2,6.4-40.5
	c0.6-4.1,2.2-15.1,3.4-25.6c0.8-6.5,1.3-12.8,1.4-17.2c0.1-7.5-1.2-13.1-1.6-20.5c-0.2-3.8-0.1-8.2,0.6-13.5c0.4-3.1,0.4-5.5,0-7.4
	c-0.5-3.4-1.9-5.6-3.3-8.3c-2.1-3.8-4.3-8.4-4.3-19c0-0.5-0.4-0.9-0.9-0.9C1100.3,35.8,1099.9,36.2,1099.9,36.7L1099.9,36.7z"/>
<path class="st0" d="M1146.9,61.1c0.5,4.7,0.2,7.9-0.7,10.3c-1.1,2.8-2.9,4.3-4.8,5.6c-2.2,1.6-4.5,3.1-5.9,6.1
	c-1.1,2.4-1.6,5.3-2.1,8.5c-0.6,3.7-1.4,7.8-3.6,11.9c-1.9,3.4-4.8,6.7-9.6,9.6c-3.4,2.1-6.8,5.4-9.5,10.2
	c-2.9,4.9-5.1,11.4-6.3,19.8c-0.1,0.5,0.3,1,0.8,1.1s1-0.3,1.1-0.8c0.9-6.5,2.5-11.8,4.5-16.1c2.9-6.1,6.6-10.1,10.5-12.5
	c5.1-3.2,8.3-6.7,10.3-10.3c2.4-4.2,3.2-8.6,3.8-12.5c0.5-3,0.9-5.8,1.9-8c1.2-2.6,3.3-3.9,5.3-5.4c2.2-1.6,4.3-3.3,5.5-6.5
	c1-2.5,1.4-6,0.8-11.1c-0.1-0.5-0.5-0.9-1-0.8C1147.2,60.2,1146.8,60.6,1146.9,61.1L1146.9,61.1z"/>
<path class="st0" d="M1075.2,58.3c-2.4,4-4.3,9-5,14.2s-0.2,10.5,2.2,14.9c1.4,2.7,3.1,4.8,4.9,6.6c3.9,3.9,8.5,6.6,13.1,12.8
	c3.3,4.5,7,12.4,9.7,20.6c2.6,8.1,4.2,16.5,3.3,22.3c-0.1,0.5,0.3,1,0.8,1.1s1-0.3,1.1-0.8c0.9-6-0.7-14.7-3.4-23.1
	c-2.7-8.4-6.5-16.5-9.9-21.1c-4.7-6.3-9.3-9.1-13.3-13c-1.7-1.7-3.2-3.6-4.6-6.1c-2.2-4.1-2.6-9-2-13.8c0.6-4.9,2.4-9.7,4.7-13.5
	c0.3-0.4,0.1-1-0.3-1.3C1076.1,57.7,1075.5,57.8,1075.2,58.3z"/>
<path class="st0" d="M1178.5,125.8c-1.2,6-3,9.5-5,12c-1.9,2.4-4,3.7-6,5c-1.5,1.1-3,2.2-4.2,3.8c-1.5,2-2.6,4.3-4,6.6
	c-1.2,2-2.5,4-4.4,5.7c-2.8,2.4-6.9,4.1-13.7,4.4c-5.3,0.2-12-1.5-18.3-1.7c-2.9-0.1-5.6,0.1-8.2,1c-0.5,0.2-0.8,0.7-0.6,1.2
	c0.2,0.5,0.7,0.8,1.2,0.6c2.3-0.8,4.9-1,7.5-0.9c6.4,0.2,13.2,2,18.5,1.7c7.3-0.3,11.8-2.3,14.8-4.9c2.2-1.8,3.6-4,4.9-6.2
	s2.3-4.5,3.8-6.4c1.4-1.8,3.1-2.9,4.9-4.2c1.8-1.2,3.6-2.5,5.3-4.6c2.1-2.6,4-6.4,5.4-12.8c0.1-0.5-0.2-1-0.7-1.1
	C1179.1,125,1178.6,125.3,1178.5,125.8L1178.5,125.8z"/>
<path class="st0" d="M1053.5,114c0.5,9,1.6,13.9,3.1,17.1c1.3,2.7,2.8,4.1,4.6,5.5c2,1.6,4.3,3.3,6.8,7.2c2.4,3.8,3.3,7.2,4.2,10.5
	c0.9,3.6,1.7,7.1,4,11.1c2,3.4,5.1,7.3,10.4,11.8c2,1.8,4.2,4.3,5.7,9.2c1.2,3.9,2,9.3,2,16.8c0,0.4,0.3,0.8,0.7,0.9
	c0.4,0.1,0.8,0,1-0.4c2.7-3.9,5.6-7.1,8.6-9.9c3.4-3,7.1-5.4,10.9-7c0.5-0.2,0.7-0.8,0.5-1.2c-0.2-0.5-0.7-0.7-1.2-0.5
	c-4.1,1.7-7.9,4.2-11.5,7.3c-2.6,2.3-5,4.9-7.3,7.9c-0.2-6.3-0.9-11-2-14.5c-1.6-5.3-4-8.1-6.3-10.1c-5.1-4.4-8.1-8-10-11.3
	c-2.2-3.9-3-7.2-3.8-10.7c-0.9-3.5-1.8-7-4.4-11c-2.6-4.1-5.1-5.9-7.2-7.6c-1.6-1.3-2.9-2.5-4.1-4.9c-1.4-3-2.4-7.8-2.9-16.4
	c0-0.5-0.5-0.9-1-0.9C1053.8,113.1,1053.5,113.5,1053.5,114z"/>
<path class="st0" d="M1132,155c-0.2,0.3-0.1,0.6,0,0.9c0.2,0.3,0.5,0.5,0.8,0.5c6.3,0.2,10.2-1.3,12.8-3.6c2.6-2.3,3.9-5.4,4.9-8.8
	c0.9-3.1,1.4-6.3,2.5-9.3c0.7-1.8,1.7-3.6,2.7-5.6c1.3-2.7,2.5-5.7,2.6-9.5c0.1-4-1.1-9-4.8-15.4c-0.2-0.3-0.5-0.5-0.8-0.5
	s-0.7,0.2-0.8,0.5c-1.4,2.8-2.7,4.9-3.9,6.7c-2.2,3-4.2,4.8-6.1,6.7c-1.9,2-3.7,4.1-5.3,7.9c-1.6,3.7-1.7,7.2-1.5,10.8
	c0.1,3.3,0.4,6.6-0.1,10.4C1134.4,149.3,1133.6,152,1132,155L1132,155z M1134.3,154.5c1.3-2.7,2-5.1,2.4-7.5
	c0.6-3.9,0.3-7.4,0.2-10.8c-0.1-3.3-0.1-6.6,1.4-10c1.5-3.5,3.1-5.5,4.9-7.3c1.9-2,4-3.8,6.3-6.9c1.1-1.5,2.2-3.2,3.3-5.4
	c2.8,5.3,3.8,9.5,3.7,12.9c-0.1,3.5-1.2,6.2-2.4,8.7c-1,2.1-2.1,3.9-2.8,5.8c-1.1,3-1.7,6.3-2.6,9.4c-0.9,3-2,5.9-4.3,7.9
	C1142.2,153.3,1139.1,154.4,1134.3,154.5z"/>
<path class="st0" d="M1119.8,113.5c-0.1,0.3-0.1,0.6,0,0.9c0.2,0.3,0.5,0.5,0.8,0.5c7.1,0,11.7-1.7,14.8-4.3c3.2-2.7,4.9-6.3,6-10
	c1.1-3.8,1.7-7.7,2.8-10.9c0.6-1.8,2.1-3.2,3.6-4.8c2.1-2.3,4.3-4.8,4.9-8.7c0.6-3.7-0.3-8.6-3.9-15.9c-0.2-0.3-0.5-0.5-0.8-0.5
	c-0.4,0-0.7,0.2-0.8,0.5c-1.4,2.9-3,5.1-4.7,6.7c-2.6,2.6-5.4,4.1-7.9,5.7c-2.8,1.8-5.2,3.9-6.9,7.7c-2.9,6.9-2.3,15-4.4,23.7
	C1122.6,107.2,1121.5,110.4,1119.8,113.5L1119.8,113.5z M1122.1,113c1.4-2.8,2.3-5.7,3-8.4c2.1-8.6,1.4-16.6,4.3-23.4
	c1.5-3.4,3.7-5.2,6.2-6.9c2.6-1.7,5.4-3.2,8.2-6c1.4-1.5,2.8-3.2,4.2-5.6c2.8,5.8,3.4,10,3,13.1c-0.5,3.5-2.5,5.7-4.4,7.7
	c-1.7,1.8-3.2,3.4-4,5.4c-1,2.7-1.5,6-2.4,9.2c-0.7,2.9-1.7,5.9-3.5,8.3C1134.1,110.2,1129.8,112.7,1122.1,113L1122.1,113z"/>
<path class="st0" d="M1146.4,163.2c-0.3,0.3-0.3,0.6-0.2,1c0.1,0.3,0.4,0.6,0.8,0.6c7.7,0.8,12.3-0.2,15.4-2.1
	c2.4-1.5,4-3.5,5.5-5.7c1.3-1.9,2.6-4,4.5-5.9c1.2-1.2,2.9-2.3,4.5-3.7c2.2-1.8,4.3-4.1,5.3-7.5c1-3.5,0.9-8.2-1.5-15
	c-0.1-0.3-0.4-0.6-0.8-0.6s-0.7,0.1-0.9,0.4c-1.5,2.4-3.5,4.3-5.6,5.8c-3.3,2.4-7.1,4.1-10.2,5.8c-2.8,1.5-5.1,3.2-6.4,5.3
	c-1.4,2.3-2,4.6-2.6,7.1c-0.5,2.1-1,4.3-2.2,6.7C1150.8,157.8,1149.1,160.3,1146.4,163.2L1146.4,163.2z M1149,163
	c2.2-2.4,3.6-4.6,4.6-6.7c1.3-2.6,1.8-4.9,2.4-7.1c0.6-2.3,1-4.4,2.4-6.6c1.2-1.9,3.3-3.3,5.7-4.6c3.2-1.8,7-3.5,10.4-6
	c1.8-1.3,3.5-2.9,5-4.8c1.6,5.4,1.7,9.2,0.9,12.1c-0.9,3.1-2.8,5-4.7,6.6c-1.7,1.4-3.4,2.5-4.6,3.8c-2,2-3.3,4.1-4.7,6.1
	c-1.4,2-2.7,3.8-4.9,5.1C1158.7,162.6,1155,163.4,1149,163L1149,163z"/>
<path class="st0" d="M1132.1,154.8c-0.3,0.3-0.4,0.7-0.2,1.1c0.2,0.4,0.6,0.6,1,0.5c5.4-1.1,8.8-3.5,10.9-6.4c2-2.6,3-5.7,3.7-8.8
	c0.7-3.2,1.2-6.4,2.1-8.8c0.8-2,1.7-3.5,2.5-4.9c1.2-2.2,2.3-4.5,2.6-8.5c0.2-3.3-0.1-7.7-1.3-14.4c-0.1-0.4-0.5-0.8-0.9-0.8
	s-0.8,0.3-0.9,0.8c-0.8,4.5-1.9,7.6-3.1,10c-1.4,2.9-3,4.7-4.4,6.5c-1.6,2-3.2,3.9-4.4,7.1c-1.1,2.9-1.3,5.8-1.4,8.9
	c-0.1,2.8-0.1,5.6-0.7,8.5C1136.9,148.5,1135.4,151.6,1132.1,154.8z M1135.7,153.7c2.1-2.6,3.2-5.3,3.8-7.9c0.7-3,0.7-5.9,0.8-8.8
	c0.1-2.8,0.2-5.6,1.3-8.2c1.1-2.9,2.6-4.7,4.1-6.6c1.6-1.9,3.2-3.8,4.7-6.8c0.8-1.6,1.5-3.5,2.2-5.8c0.8,5.7,0.7,9.3,0.1,11.9
	c-0.4,2.1-1.2,3.6-2,5c-0.9,1.6-1.8,3.1-2.6,5.2c-1,2.6-1.4,5.8-2.2,9.1c-0.7,2.8-1.6,5.7-3.4,8.1
	C1140.9,150.9,1138.8,152.6,1135.7,153.7z"/>
<path class="st0" d="M1119.9,113.3c-0.3,0.3-0.4,0.7-0.2,1.1c0.2,0.4,0.6,0.6,1,0.5c6.1-1.4,10.1-4,12.8-7.2c3.1-3.7,4.4-8,5.4-12.1
	c0.7-3.1,1.2-6.1,2-8.3c0.9-2.3,2.7-3.7,4.4-5.3c1.8-1.6,3.6-3.4,4.5-6.4c1.1-3.2,1.1-7.8-1.1-15.2c-0.1-0.4-0.5-0.7-0.9-0.7
	s-0.8,0.3-0.9,0.8c-0.9,4.7-2.4,7.8-4.1,10.1c-1.9,2.5-4.1,4-6.2,5.5c-2.4,1.8-4.5,3.7-5.8,6.8c-1,2.5-1.3,5.2-1.6,8.1
	c-0.4,3.6-0.6,7.5-2.2,11.6C1125.9,106.1,1123.7,109.6,1119.9,113.3L1119.9,113.3z M1123.6,112.2c2.6-3,4.3-6,5.4-8.8
	c1.6-4.3,1.9-8.3,2.3-12c0.3-2.7,0.6-5.2,1.5-7.6c1.1-2.8,3-4.4,5.1-6s4.5-3.2,6.5-5.9c1.4-1.8,2.6-4.1,3.6-7.2
	c1.1,4.8,1,8.1,0.2,10.5c-1,3.1-3.2,4.8-5.1,6.5c-1.6,1.4-3,2.9-3.8,5c-0.8,2.2-1.3,5.3-2,8.5c-0.9,3.8-2.1,7.9-5,11.3
	C1130.2,108.8,1127.5,110.8,1123.6,112.2L1123.6,112.2z"/>
<path class="st0" d="M1146.6,163c-0.4,0.2-0.6,0.7-0.4,1.1c0.1,0.4,0.6,0.7,1,0.6c6.2-0.7,10.3-2.5,13.3-4.8
	c4.5-3.5,6.2-7.9,8.7-10.9c1.1-1.3,2.5-2.3,4-3.4c2.1-1.6,4.2-3.4,5.7-6.4c1.5-3.1,2.4-7.4,1.9-14c0-0.4-0.4-0.8-0.8-0.9
	c-0.4-0.1-0.9,0.2-1,0.6c-1.6,3.9-3.6,6.7-5.8,8.8c-2.6,2.5-5.5,4.2-7.9,5.8c-2.2,1.4-4,2.8-5.2,4.7c-1.1,1.7-1.8,3.6-2.5,5.5
	c-0.9,2.4-1.8,4.9-3.9,7.4C1152.2,159,1149.9,161,1146.6,163L1146.6,163z M1151.2,162.2c1.7-1.3,3-2.6,4-3.9
	c2.2-2.7,3.2-5.4,4.2-7.9c0.6-1.8,1.3-3.5,2.3-5.1c1-1.7,2.7-2.9,4.6-4.1c2.5-1.6,5.4-3.4,8.1-6c1.6-1.6,3.2-3.5,4.6-6
	c0,4.1-0.7,7-1.8,9.2c-1.3,2.8-3.3,4.4-5.1,5.8c-1.6,1.2-3.2,2.3-4.3,3.7c-2.4,2.9-4,7.3-8.4,10.6
	C1157.3,160,1154.7,161.3,1151.2,162.2L1151.2,162.2z"/>
<path class="st0" d="M1078,138.8c-2.6-4-4.8-5.8-7.2-7.7c-2.2-1.7-4.6-3.3-7.6-6.6c-2.2-2.5-4.8-5.9-7.9-11
	c-0.2-0.3-0.5-0.5-0.9-0.4c-0.3,0-0.6,0.2-0.8,0.6c-4.1,9.3-4.7,15.6-3.7,20.2c1.1,4.8,4,7.8,6.9,10.4c2,1.9,4.1,3.5,5.4,5.6
	c1.4,2.3,2,5.5,2.8,9c1.1,4.7,2.6,9.8,6.4,13.5c3.2,3.1,8,5.1,15.7,5.1c0.3,0,0.6-0.2,0.8-0.5c0.2-0.3,0.2-0.6,0-0.9
	c-2-3.9-3.3-7.4-4.1-10.6c-1.3-5-1.5-9.3-1.9-13.3C1081.5,147.3,1080.7,143,1078,138.8L1078,138.8z M1076.4,139.8
	c2.6,4,3.2,8,3.7,12.5c0.4,4.1,0.7,8.5,2,13.6c0.8,3,1.9,6.2,3.6,9.7c-6.2-0.2-10.2-2-12.9-4.6c-3.6-3.4-4.8-8.2-5.9-12.6
	c-0.9-3.7-1.6-7.1-3.1-9.5c-1.4-2.2-3.5-4.1-5.7-6c-2.6-2.4-5.3-5.1-6.3-9.5c-0.9-4.1-0.4-9.5,2.8-17.4c2.8,4.3,5.1,7.4,7.2,9.7
	c3.1,3.4,5.6,5.2,7.9,6.9C1071.9,134.3,1074,136.1,1076.4,139.8z"/>
<path class="st0" d="M1082.4,83.1c-2.4-3.2-2.3-5.4-2.1-8.2c0.2-2.5,0.4-5.4-0.7-9.7c-0.5-2.2-1.4-4.7-2.9-7.8
	c-0.1-0.3-0.4-0.4-0.6-0.5c-0.3-0.1-0.6,0-0.8,0.2c-8.3,6.5-12,11.5-13.4,15.6c-1.3,4-0.5,7.3,0.9,10.5c1.2,2.9,2.9,5.8,3.4,9.3
	c0.7,4.9,2.2,8.2,5.5,11.2c4.3,4,11.8,7.6,25.1,13.6c0.3,0.1,0.6,0.1,0.9,0s0.4-0.4,0.5-0.7c1.1-9.3,0-15.3-2.2-19.5
	c-2.1-4.1-5.1-6.6-7.9-8.9C1085.9,86.6,1083.9,85.1,1082.4,83.1L1082.4,83.1z M1080.9,84.3c1.6,2.1,3.7,3.7,5.8,5.4
	c2.7,2.1,5.5,4.5,7.4,8.2c1.9,3.8,3,9.1,2.1,17.1c-12.3-5.6-19.3-8.9-23.4-12.7c-2.9-2.8-4.2-5.8-4.9-10.2c-0.5-3.6-2.2-6.7-3.5-9.7
	c-1.2-2.8-2-5.7-0.8-9.2c1.2-3.7,4.6-8.1,11.8-13.9c3.3,7.5,3.1,11.8,2.9,15.2c-0.1,1.6-0.2,3.1,0.1,4.5
	C1078.8,80.7,1079.4,82.3,1080.9,84.3L1080.9,84.3z"/>
<path class="st0" d="M1117,71.3c0.4-6.8,1.5-12.8-2.3-20.3c-2.3-4.5-6.4-9.4-13.5-15.4c-0.2-0.2-0.5-0.3-0.8-0.2
	c-0.3,0.1-0.5,0.3-0.6,0.5c-4.5,10.3-6.4,16.5-6.6,20.7c-0.3,4,0.8,6.4,2.4,8.7c1,1.4,2.1,2.8,3.3,4.7c0.7,1.2,0.9,2.6,0.8,4.2
	c-0.1,1.4-0.4,3-0.8,4.7c-1,4.5-2.3,9.6-0.8,15c1.2,4.2,4.1,8.6,10.4,13c0.4,0.3,0.9,0.2,1.2-0.1c7-6.7,9.6-12,10.2-16.6
	c0.5-3.6-0.3-6.7-1.1-9.8C1117.8,77.5,1116.9,74.5,1117,71.3z M1115.1,71.2c-0.2,3.4,0.8,6.5,1.7,9.7c0.8,2.9,1.5,5.8,1.1,9.1
	c-0.5,4.2-2.9,8.9-9.1,14.9c-5.3-3.9-7.9-7.8-9-11.6c-1.4-5.1-0.2-9.9,0.8-14c0.9-4,1.5-7.5-0.2-10.3c-1.1-1.9-2.3-3.3-3.3-4.7
	c-1.4-2-2.3-4.1-2.1-7.5c0.3-3.9,1.9-9.6,6-18.9c6.3,5.4,10,9.9,12.1,14C1116.7,59,1115.5,64.7,1115.1,71.2L1115.1,71.2z"/>
<path class="st0" d="M1073.6,140.5c-1.5-2.5-3.1-3.8-4.8-5.1c-2.2-1.6-4.5-3-7-6.6c-2.1-3-4.2-7.6-6.5-15.1
	c-0.1-0.4-0.5-0.7-0.9-0.7s-0.8,0.3-0.9,0.7c-2.4,9-1.8,15,0,19.4c1.7,4.1,4.5,6.9,7.1,9.4c1.9,1.8,3.7,3.5,5,5.5
	c1.4,2.3,2,5.2,2.8,8.3c1,4.2,2.2,8.7,5.5,12.7c2.6,3.3,6.6,6.2,13,8.3c0.4,0.1,0.8,0,1-0.3s0.3-0.7,0-1.1
	c-3.4-5.3-5.7-9.7-7.3-13.4c-2.3-5.6-3.1-9.6-3.8-13.1C1076.2,146.2,1075.5,143.4,1073.6,140.5L1073.6,140.5z M1072.1,141.5
	c1.7,2.8,2.3,5.4,3,8.4c0.8,3.6,1.5,7.8,3.9,13.5c1.4,3.2,3.2,6.9,5.9,11.3c-4.5-1.9-7.4-4.2-9.5-6.8c-3-3.8-4.2-8.1-5.1-12
	c-0.8-3.3-1.5-6.4-3-8.8c-1.3-2.2-3.3-3.9-5.3-5.9c-2.5-2.4-5.1-4.9-6.7-8.7c-1.5-3.6-2-8.3-0.7-15c2,5.8,3.9,9.7,5.7,12.3
	c2.2,3.2,4.2,4.8,6.1,6.1C1068.4,137.4,1070.3,138.6,1072.1,141.5L1072.1,141.5z"/>
<path class="st0" d="M1078.1,85c-1.5-2.6-2-4.8-2.1-7.6c-0.1-4.4,0.8-10,0.8-19.5c0-0.4-0.3-0.8-0.6-0.9c-0.4-0.1-0.8,0-1,0.3
	c-5.9,7.6-8.5,12.7-9.4,16.6c-1,4-0.1,6.8,1.1,9.7c1.1,2.5,2.5,5,3.1,8.6c0.6,3.1,1.8,5.2,3.4,7c1.9,2,4.5,3.4,7.4,5.2
	c4.5,2.6,9.9,5.8,15.5,12.7c0.3,0.3,0.7,0.4,1.1,0.3c0.4-0.2,0.6-0.5,0.6-0.9c-0.7-8.9-3.1-14.6-5.9-18.6c-2.7-3.8-5.9-6-8.7-8
	C1081.2,88.2,1079.2,86.9,1078.1,85z M1076.5,85.9c1.2,2.2,3.4,3.7,5.9,5.5c2.6,1.8,5.7,3.9,8.2,7.5c2.4,3.3,4.3,7.9,5.2,14.7
	c-5.1-5.6-10-8.5-14.1-10.8c-2.8-1.6-5.2-2.9-7-4.8c-1.4-1.5-2.5-3.4-3-6c-0.7-3.8-2.1-6.4-3.3-9c-1.1-2.6-1.9-5-1-8.6
	c0.8-3.3,3-7.6,7.4-13.6c-0.2,7.8-0.9,12.8-0.7,16.8C1074.3,80.5,1074.9,83,1076.5,85.9z"/>
<path class="st0" d="M1113,71.3c0.3-5.5,0.4-9.7-1.3-15.2c-1.5-4.9-4.5-11-10.2-20.3c-0.2-0.3-0.6-0.5-0.9-0.4
	c-0.4,0.1-0.7,0.3-0.8,0.7c-2.3,9.1-2.8,14.6-2.1,18.8c0.7,4.5,2.7,7.4,5.3,11.6c1.4,2.3,1,5.5,0.4,9.2c-0.8,4.5-2,9.7-1.7,15.2
	c0.3,5.1,2,10.5,6.6,15.8c0.2,0.2,0.5,0.3,0.8,0.3s0.6-0.2,0.7-0.5c3.1-5.4,4.6-9.8,5.1-13.8c0.5-4.1,0.1-7.7-0.5-11
	C1113.6,78.3,1112.8,75,1113,71.3z M1111.1,71.2c-0.2,3.1,0.3,5.9,0.9,8.8c0.7,3.8,1.5,7.8,0.9,12.6c-0.4,3.5-1.6,7.3-4.2,11.9
	c-3.6-4.6-5-9.2-5.3-13.7c-0.4-6.4,1.4-12.5,2-17.3c0.4-3.2,0.3-5.9-1-8c-2.4-3.9-4.3-6.7-5-10.9c-0.6-3.7-0.2-8.4,1.5-15.9
	c4.8,8,7.5,13.4,8.9,17.9C1111.5,62,1111.4,65.9,1111.1,71.2z"/>
<path class="st0" d="M1102.7,167.5c0.9-4.7,4.2-10.9,8.3-16.6c4-5.6,8.7-10.8,12.7-13.8c0.4-0.3,0.5-0.9,0.2-1.3
	c-0.3-0.4-0.9-0.5-1.3-0.2c-4.1,3-9,8.4-13.1,14.2c-4.2,6-7.6,12.4-8.6,17.3c-0.1,0.5,0.2,1,0.7,1.1
	C1102.2,168.4,1102.7,168,1102.7,167.5L1102.7,167.5z"/>
<path class="st0" d="M1114.9,134.5c0,2.1,0,3.8,0,5.3c0,1.6-0.1,2.7-0.2,3.4c-0.1,0.5,0.3,1,0.8,1.1s1-0.3,1.1-0.8
	c0.1-0.8,0.2-2,0.2-3.6c0-1.4,0-3.2,0-5.3c0-0.5-0.4-0.9-0.9-0.9C1115.3,133.6,1114.9,134,1114.9,134.5z"/>
<path class="st0" d="M1114.4,135.3c1.4,0.4,2.7-0.4,3.4-1.6c0.7-1.2,0.8-2.8,0-3.8l0,0c-0.7-0.8-1.4-1.1-2.2-1.2
	c-1.2-0.1-2.3,0.7-3,1.7c-0.6,0.9-0.8,2-0.6,2.9C1112.3,134.1,1113,134.9,1114.4,135.3z M1114.8,133.5c-0.5-0.1-0.9-0.4-1-0.7
	c-0.1-0.4,0-0.9,0.3-1.3c0.3-0.5,0.8-0.9,1.4-0.9c0.3,0,0.6,0.2,0.8,0.5c0.1,0.1,0.1,0.3,0.2,0.5c0,0.4-0.1,0.8-0.3,1.1
	C1115.9,133.2,1115.4,133.6,1114.8,133.5z"/>
<path class="st0" d="M1122.4,135.5L1122.4,135.5c1.1,2.2,3.2,2.5,4.8,1.8c1.6-0.8,2.7-2.7,1.5-4.9c-0.9-1.7-2.9-1.9-4.5-1.1
	C1122.7,132.1,1121.6,133.8,1122.4,135.5z M1124.1,134.7c-0.4-0.7,0.3-1.4,1-1.7s1.6-0.4,2,0.3c0.6,1,0.1,1.9-0.7,2.3
	C1125.7,135.9,1124.7,135.8,1124.1,134.7z"/>
<path class="st0" d="M1109.6,153.1l5.9-1.3c0.5-0.1,0.8-0.6,0.7-1.1c-0.1-0.5-0.6-0.8-1.1-0.7l-5.9,1.3c-0.5,0.1-0.8,0.6-0.7,1.1
	C1108.6,152.9,1109.1,153.2,1109.6,153.1z"/>
<path class="st0" d="M1115.3,148.8c-1.2,1.6-0.8,3.8,0.4,5c0.7,0.7,1.7,1.1,2.7,0.9c0.7-0.1,1.5-0.6,2.2-1.5s0.9-1.7,0.9-2.4
	c0-1-0.5-1.9-1.3-2.4C1118.8,147.2,1116.5,147.2,1115.3,148.8z M1116.8,149.9c0.6-0.7,1.6-0.6,2.3-0.1c0.3,0.2,0.5,0.6,0.6,1
	c0,0.4-0.2,0.8-0.5,1.3c-0.4,0.5-0.7,0.7-1.1,0.8s-0.7-0.1-1-0.4C1116.4,151.8,1116.2,150.7,1116.8,149.9z"/>
<path class="st0" d="M1087.8,137.1c3.2,5.1,5.4,10.7,7,16.4c2.4,8.8,3.5,18,4.3,26.8c0,0.4,0.3,0.8,0.8,0.8c0.4,0.1,0.8-0.1,1-0.5
	c2.9-6.1,6.3-10.1,9.9-13c7.4-5.9,15.7-7.3,22.5-11.3c4.3-2.6,6.9-5.6,8.5-8.7c1.9-3.6,2.4-7.3,2.7-10.6c0.3-2.6,0.4-4.9,1.1-6.7
	s1.6-3.1,2.6-4.5c1.3-1.9,2.6-4,3.7-7.5c0.9-3.1,1.6-7.3,1.7-13.6c0-0.5-0.4-0.9-0.9-1c-0.5,0-0.9,0.4-1,0.9
	c-0.2,6-0.8,10.1-1.7,13.1c-1,3.3-2.2,5.2-3.4,7c-1,1.5-2,2.9-2.8,4.9c-0.7,2-0.9,4.5-1.2,7.2c-0.3,3.1-0.8,6.6-2.5,9.9
	c-1.5,2.8-3.9,5.6-7.8,7.9c-6.8,4.1-15.2,5.5-22.7,11.5c-3.2,2.6-6.3,6-9,10.8c-0.8-7.9-1.9-16.1-4-23.9c-1.7-6-3.9-11.7-7.2-16.9
	c-0.3-0.4-0.9-0.6-1.3-0.3C1087.6,136.1,1087.5,136.6,1087.8,137.1z"/>
<path class="st0" d="M1088.7,151.9c1.3,0.6,2.4,1.6,3.5,2.8c1.4,1.6,2.8,3.7,4.1,5.8c0.2,0.4,0.7,0.5,1.1,0.4
	c0.4-0.2,0.7-0.6,0.6-1.1c-0.9-4.4-1.5-8.9-1.7-12.6c-0.1-2.3-0.1-4.3,0.2-5.7c0.2-0.8,0.4-1.5,0.7-1.9c0.3-0.4,0.3-1-0.1-1.3
	s-1-0.3-1.3,0.1c-1,1.1-1.4,3.6-1.4,6.8c0,3,0.4,6.7,1,10.6c-0.6-0.8-1.2-1.6-1.8-2.3c-1.2-1.4-2.6-2.5-4.1-3.2
	c-0.5-0.2-1,0-1.2,0.4C1088,151.1,1088.3,151.7,1088.7,151.9z"/>
<path class="st0" d="M1096.1,139.6c2,0.9,3.6,0.2,4.4-0.9c0.8-1.2,0.8-3-0.9-4.4l0,0c-1.6-1.3-3.7-0.6-4.7,0.7
	c-0.6,0.8-0.8,1.7-0.6,2.6C1094.5,138.3,1095,139.1,1096.1,139.6z M1096.8,137.8c-0.4-0.2-0.7-0.4-0.7-0.7c-0.1-0.3,0.1-0.7,0.3-1
	c0.4-0.6,1.3-1,2-0.4s0.9,1.4,0.5,1.9C1098.6,138.1,1097.8,138.3,1096.8,137.8z"/>
<path class="st0" d="M1088.4,137.5c2.1-0.7,2.3-2.7,1.5-4.3s-2.6-2.6-4.4-1.4c-1.9,1.2-2,2.9-1.3,4.2
	C1085,137.2,1086.7,138.1,1088.4,137.5z M1087.8,135.7c-0.8,0.3-1.6-0.1-1.9-0.7c-0.3-0.5-0.1-1.2,0.7-1.7l0,0
	c0.7-0.5,1.4,0.1,1.7,0.7C1088.6,134.6,1088.6,135.5,1087.8,135.7z"/>
<path class="st0" d="M1089.8,151.4C1089.8,151.4,1089.9,151.4,1089.8,151.4c0.3-0.4,0.5-1,0.5-1.5c0-0.9-0.4-2.1-1.1-2.8
	c-0.5-0.5-1-0.8-1.7-0.9c-0.7-0.1-1.6,0.1-2.6,0.9c-0.9,0.8-1.3,1.6-1.2,2.4c0,0.9,0.5,1.8,1.3,2.4
	C1086.4,152.8,1088.5,153,1089.8,151.4z M1088.4,150.3c-0.6,0.7-1.6,0.5-2.2,0c-0.3-0.2-0.6-0.5-0.6-0.9c0-0.3,0.2-0.6,0.6-0.9
	c0.4-0.4,0.8-0.5,1.1-0.5c0.2,0,0.4,0.2,0.6,0.3c0.3,0.3,0.5,0.8,0.6,1.3C1088.5,149.9,1088.5,150.1,1088.4,150.3z"/>
<path class="st0" d="M1114.3,186.2c0.3,1,0.9,1.7,1.6,2.1c1.1,0.6,2.5,0.5,3.7-0.1c1.8-0.9,3.1-2.9,2.3-5.2
	c-0.8-2.2-3.3-2.6-5.2-1.7C1114.9,182.1,1113.6,183.9,1114.3,186.2z M1116.1,185.7c-0.4-1.3,0.4-2.3,1.3-2.7c1-0.5,2.2-0.4,2.7,0.7
	c0.5,1.2-0.4,2.3-1.4,2.8c-0.6,0.3-1.4,0.5-1.9,0.1C1116.4,186.5,1116.2,186.2,1116.1,185.7z"/>
<path class="st0" d="M1105.6,182.8c0.3,0.9,0.7,2.5,0.7,4.3c0,1.3-0.4,2.7-1.3,3.9c-0.3,0.4-0.2,1,0.2,1.3c0.4,0.3,1,0.2,1.3-0.2
	c1.1-1.5,1.6-3.3,1.6-4.9c0.1-2-0.4-3.9-0.8-5c-0.2-0.5-0.7-0.8-1.2-0.6C1105.7,181.8,1105.5,182.3,1105.6,182.8z"/>
<path class="st0" d="M1105.7,182.7c1.9,0.3,3.1-1.3,3.1-3.1c0-1.5-0.9-3-2.9-3.2c-0.5,0-1.1,0.1-1.6,0.5c-0.9,0.6-1.6,1.6-1.7,2.7
	c-0.1,0.6,0,1.1,0.3,1.6C1103.3,181.8,1104.1,182.4,1105.7,182.7z M1106,180.8c-0.9-0.1-1.4-0.3-1.5-0.8s0.2-1,0.6-1.4
	c0.1-0.1,0.3-0.3,0.5-0.4c0.1-0.1,0.2-0.1,0.3-0.1c0.8,0.1,1.2,0.7,1.2,1.4C1106.9,180.2,1106.6,180.9,1106,180.8z"/>
<path class="st0" d="M1102,196.4c1.3-0.8,3.3-1,5.2-0.6c1.8,0.3,3.6,1.1,4.6,2.4c0.3,0.4,0.9,0.5,1.3,0.2s0.5-0.9,0.2-1.3
	c-1.3-1.7-3.5-2.8-5.8-3.1c-2.4-0.4-4.9-0.1-6.5,0.9c-0.4,0.3-0.6,0.8-0.3,1.3C1101,196.5,1101.6,196.7,1102,196.4z"/>
<path class="st0" d="M1111.4,199.4c0,2.2,2.3,3.3,4.3,3c1-0.2,2-0.7,2.4-1.6c0.4-0.7,0.5-1.6,0.2-2.8l0,0c-0.3-1-0.9-1.7-1.5-2.1
	c-0.8-0.5-1.7-0.6-2.6-0.3C1112.7,196,1111.4,197.5,1111.4,199.4z M1113.2,199.4c0-1,0.7-1.8,1.5-2c0.4-0.1,0.8-0.1,1.1,0.1
	c0.3,0.2,0.5,0.5,0.7,1c0.2,0.6,0.2,1.1,0,1.4c-0.2,0.4-0.6,0.6-1.1,0.7c-0.5,0.1-1.1,0-1.5-0.2
	C1113.5,200.2,1113.3,199.8,1113.2,199.4z"/>
<g>
	<path class="st1" d="M355.4,110.1c0.9-1.4,2.3-2.3,4-2.5c0.6-0.2,1.4-0.1,1.9,0.3c0.6,0.2,0.9,0.6,1.1,1.2c0.2,0.6,0.1,1.1-0.2,1.6
		c-0.5,0.9-1.2,1.7-1.9,2.4c-1.7,1.5-3.5,2.7-5.5,3.6c-0.7,0.3-1.5,0.4-2.3,0.3c-0.5,0-0.8,0.2-1,0.6c-0.3,0.6-0.6,1.4-0.9,2.1l0,0
		c-0.1,0.3,0.1,0.6,0.3,0.6l0.3,0.1l0,0c0.6,0.1,1,0.4,1.3,0.8c0.3,0.5,0.4,1,0.3,1.6c0,0.6-0.1,1.4-0.2,1.9
		c-0.3,0.5-0.6,0.8-0.9,1.1c-0.6,0.6-1.2,0.9-1.9,1c-1.2,0.2-2.3,0.5-3.4,0.9c-0.2,0.4-0.1,0.7,0.1,1c0.8,1.1,1.6,2.2,2.4,3.2
		c0.2,0.3,0.5,0.5,0.6,0.7c1.8,2.7,3.6,5.4,5,8.3c1.7,2.6,2.8,5.3,4.4,8c0.1,0.2,0.3,0.4,0.5,0.6c0.1,0.2,0.6,0,0.6,0
		c0.4-0.5,0.5-1.1,0.5-1.7c-0.1-0.6,0.1-1,0.4-1.5c1.3-1.8,2.3-3.8,2.9-5.9c0.4-1.2,0.3-1.4-0.7-1.7l0,0c-0.5-0.2-0.9-0.5-1.3-0.8
		c-1.2-1.3-2-2.8-2.5-4.4c-0.1-0.3-0.2-0.6-0.1-1c0-1.4,0.6-2.8,1.6-3.8c0.2,0,0.5-0.1,0.6-0.1c1.2-0.3,2.4,0.5,2.8,1.6
		c0.4,0.7,0.6,1.6,1.1,2.3l0,0c0.2,0.4,0.5,0.6,0.6,0.9c0.3-0.8,0.6-1.6,0.8-2.3c0.3-0.7,0.6-1.2,0.7-1.9l0,0
		c0.2-0.6,0.3-1.2,0.4-1.7c-0.3-0.1-0.5-0.2-0.7-0.3h-1.6c-0.3,0-0.5-0.2-0.6-0.4c-0.1-0.3-0.1-0.5,0.1-0.7l0.4-0.7
		c-0.8-1.5-1.5-3-1.7-4.8c-0.1-0.7-0.2-1.5-0.2-2.2c0-1,0.5-2,1.4-2.6c0.1-0.1,0.3-0.2,0.5-0.2c0.6-0.2,1.3-0.2,1.9,0
		c0.3,0.1,0.6,0.3,0.8,0.6c0.6,0.6,1,1.2,1.5,1.7c0.1,0.1,0.2,0.1,0.4,0.1c0.1,0,0.2-0.1,0.3-0.3c0.1-0.2,0.2-0.3,0.2-0.5
		c0.7-2.5,1.4-4.9,2.1-7.4c0-0.1,0-0.2,0-0.3c-0.7,0-1.5-0.4-1.8-1.1c-1.1-1.5-1.7-3.3-1.9-5.1c0-0.7-0.1-1.6-0.2-2.3l0,0
		c0-1.1,0.2-2.2,0.6-3.2c0.3-0.7,0.9-1.3,1.6-1.6c0.3-0.1,0.5-0.2,0.7-0.1c0.4,0,0.6,0.1,1,0.3c0.4,0.1,0.6,0.3,0.8,0.6
		c0.4,0.6,0.7,1.3,1,1.9c0.6,1.8,0.9,3.8,1,5.7v4c0,0.6-0.3,1.2-0.8,1.5l-0.6,0.5c-0.3,1.3-0.6,2.5-0.9,3.8c0,0,0,0.2,0.1,0.2
		c0.1,0,0.4,0.2,0.5,0c0.6-0.6,1.1-1.3,1.7-1.9l0,0c0.3-0.5,0.6-0.8,0.9-1.2c0.2-0.2,0.5-0.3,0.6-0.3c0.9-0.1,1.7,0.5,1.9,1.3
		c0.4,1.1,0.5,2.4,0.1,3.5c-0.3,1.2-1,2.2-1.8,2.9c-0.6,0.6-1.4,1.3-1.9,1.9l0,0c-1,1-2.1,1.9-3.4,2.7c-0.4,0.3-0.6,0.6-0.7,1
		c-0.1,0.2,0,0.4,0.1,0.5c0.1,0.2,0.2,0.3,0.4,0.3h2.3c0.9,0,1.7,0.6,2.1,1.6c0.3,1,0.2,2-0.4,2.9c-1.1,1.9-2.6,3.6-4.4,4.9
		c-0.6,0.6-1.5,0.8-2.3,0.9c-0.6,0-0.7,0.4-0.9,0.8c-0.4,1.1-0.6,2.3-0.9,3.4c0.2,0.6,0.6,0.6,1.1,0.6l0,0c0.6,0.1,1,0.4,1.4,0.8
		c0.3,0.5,0.4,1,0.3,1.6c0,0.3-0.1,0.5-0.2,0.7c-0.9,3.6-0.4,2.5-2.8,5.2c-0.5,0.6-0.9,0.9-1.6,1.3l-3.3,1.9
		c-0.4,0.3-0.5,0.7-0.3,1.1c0.9,1.8,1.7,3.8,2.4,5.8c0,0,0,0.2,0.1,0.3c1.6,3.2,3,6.4,4.3,9.8c0.1,0.3,0.3,0.5,0.6,0.5
		c0.6,0,1.5-0.6,1.3-1.2c-0.3-1.9-0.6-4-0.8-6.1c-0.1-0.5-0.2-1-0.2-1.5c0-1-0.4-2-1-2.8c-0.7-1-1.1-2.3-1-3.6
		c0.1-1.5,0.3-2.8,0.6-4.2c0.1-0.4,0.3-0.6,0.6-0.9c0.2-0.3,0.5-0.5,0.8-0.5c0.4,0,0.6,0.1,0.9,0.3c0.6,0.6,1,1.2,1.2,1.9
		c0.3,1,0.5,2,0.5,3v3c0,0.2,0.1,0.4,0.3,0.4c0.1,0,0.2,0,0.2,0l1.6-1.9l0,0c0.3-0.2,0.6-0.3,0.9-0.1c0.5,0.2,0.9,0.6,1.1,1.1
		c0.4,1.1,0.5,2.4,0.2,3.5c-0.3,1.7-0.8,3.5-1.7,5.1c-0.1,0.3-0.1,0.5,0,0.7c-0.6-0.1-1.1,0.2-1.4,0.6c0,0.1,0,0.2,0,0.3
		c0,0.2,0.2,0.3,0.4,0.2c0.6-0.2,1-0.5,1.1-1.1h0.7c1.5-1.4,3-2.8,4.4-4.2c1.4-1.5,2.5-2.8,3.7-4.2l0,0c0.3-0.4,0.6-0.8,0.8-1.3
		c0.1-0.2,0.1-0.4,0-0.5c-0.1-0.2-0.1-0.3-0.3-0.5c-1.1-1.3-2-2.7-2.8-4.1c-0.5-0.3-0.9,0-1.3,0c-0.5,0.1-1,0.1-1.5,0.1
		c-1.7-0.1-3.1-1.2-3.8-2.7c-0.4-0.8-0.6-1.7-0.9-2.7c-0.2-0.6-0.1-1.4,0.4-1.9c0.5-0.6,1.2-0.7,1.8-0.6c0.4,0.1,0.8,0.2,1.2,0.3
		c0,0,0.4-0.2,0.4-0.3l0,0c0-0.4,0-0.6-0.1-1c-0.7-2.7-1-5.5-0.6-8.4c0.1-0.7,0.6-1.4,1.2-1.7c0.6-0.4,1.5-0.3,2.1,0.1
		c0.3,0.2,0.6,0.4,0.7,0.6c0.5,0.6,0.7,1.4,0.7,2.1c0.1,1.6-0.1,3.2-0.6,4.8c-0.1,0.5-0.6,0.8-1.1,0.9c-0.6,0.1-0.6,0.3-0.6,0.9
		c0.4,1.1,0.8,2.2,1.5,3.2c0.1,0.1,0.1,0.1,0.2,0.2c0.1,0,0.2,0,0.3,0h0.2c0.3-0.9,0.6-1.7,0.8-2.7c0.3-0.8,0.7-1.5,1.5-1.9
		c0.6-0.4,1.2-0.3,1.6,0.3c0.5,0.6,0.7,1.4,0.8,2.1c0.2,1.4,0.4,2.7,0.5,4c0.1,1.6-0.1,3-0.6,4.5c-0.1,0.5-0.3,1-0.3,1.5
		c0,0.3,0.2,0.5,0.5,0.6h0.5c0.6-0.6,1.1-1.3,1.7-1.8c1.2-1.1,2.2-2.3,3.1-3.6c0.6-0.7,1.3-1.4,1.9-2.1l0,0c0.7-0.7,1.4-1.5,1.9-2.3
		c0.4-0.6,0.8-1.1,1.4-1.5c0.5-0.4,0.7-1,0.6-1.7c-0.3-0.2-0.5-0.5-0.7-0.6c-0.7-0.5-1.3-1.1-1.6-1.9c-0.3-0.6-0.6-1-0.9-1.5
		c-0.3-0.5-0.7-0.7-1.2-0.7c-0.8-0.2-1.6-0.6-2.3-1.1c-0.9-0.6-1.9-1-2.9-1.4c-0.1,0-0.4,0-0.4,0.2l0,0c-0.1,0.1-0.2,0.3-0.1,0.5
		c0.1,0.7,0.6,1.4,1.4,1.7c0.9,0.6,2.1,0.7,3.2,0.6c0.3-0.1,0.5-0.1,0.7-0.1c0.4,0,0.6,0.2,0.8,0.6c0,0.4-0.2,0.6-0.6,0.7
		c-0.7,0.1-1.5,0.2-2.3,0.3c-1.5,0.1-2.8-0.4-4-1.3c-0.6-0.4-0.9-1-1.1-1.7c-0.1-0.6-0.1-1.3,0-1.9c0.1-0.6,0.5-0.9,0.9-1
		c0.6-0.2,1.4-0.1,1.9,0.1l3.3,1.3c0.3,0,0.6,0,0.6-0.2c0-0.2,0-0.4,0-0.5c-0.3-0.7-0.6-1.4-0.9-2.1s-0.6-1.4-0.8-2.1
		c-0.2-0.7-0.3-1.5-0.4-2.3l0,0c-0.1-0.6-0.2-1.2-0.4-1.7c-0.5-1.3-0.6-2.6-0.3-4c0.2-1.3,0.5-2.5,0.9-3.7c0.4-0.8,1-1.4,1.8-1.7
		c0.5-0.2,1-0.1,1.5,0.2c0.2,0.2,0.4,0.4,0.5,0.6c0.4,0.9,0.5,2,0.3,3c-0.5,1.7-1.1,3.4-1.8,5c-0.2,0.3-0.4,0.6-0.6,0.8
		c-0.4,0.4-0.5,0.9-0.2,1.4c0.4,0.8,0.6,1.6,1,2.3c0,0.2,0.4,0.5,0.6,0.4c0.3-0.1,0.5-0.3,0.6-0.5c0.4-0.6,0.7-1.3,1.1-1.9
		c0.3-0.6,0.7-0.9,1.3-1.2s1.2-0.2,1.7,0.3c0.6,0.8,0.9,1.8,1.1,2.8c0.1,0.3,0.1,0.5,0,0.7c-0.4,2.2-1.3,4.2-2.8,5.9
		c0,0.6,0.2,1.2,0.6,1.7c0.5,0.6,1,1.2,1.6,1.7c0.2,0.2,0.5,0.2,0.7,0.2c0.6-0.1,1.2-0.4,1.6-0.7c0.6-0.6,1-1.1,1.5-1.7
		c1.3-1.9,2.5-4,3.7-5.9l0,0c0.2-0.3,0.2-0.6,0-0.9c-0.2-0.2-0.3-0.4-0.6-0.6c-1.4-1.3-2.5-2.8-3.4-4.4c-0.6-0.8-0.8-1.7-1-2.6
		c-0.1-0.6,0.1-1.4,0.6-1.8c0.3-0.3,0.7-0.4,1.2-0.3c0.9,0.3,1.7,0.8,2.3,1.6l2.2,2.5l0,0c0.3,0.4,0.6,0.6,1.1,0.6
		c0.7-1.1,1.4-2.4,1.7-3.7c-0.4-0.9-0.7-1.9-1.2-2.8c-0.7-1.6-1.1-3.2-0.9-5c-0.1-1.3,0.5-2.5,1.5-3.3c0.3-0.2,0.6-0.2,0.9,0
		c0.5,0.2,0.9,0.6,1.1,1c0.4,0.6,0.6,1.4,0.9,2.1c0.3,0.6,0.4,1.3,0.6,1.9c0.3,0,0.5,0,0.6-0.2l0,0c1.2-1.3,2.1-2.8,2.7-4.6
		c-0.5-1.1-0.8-2.3-0.9-3.5c0-1.4,0-2.8,0.1-4c0.1-1.1,0.3-2.2,0.6-3.2c0.2-0.8,0.5-1.7,0.8-2.4c0.2-0.3,0.4-0.6,0.6-0.8
		c0.5-0.5,1-0.6,1.7-0.6c0.6,0.1,1.1,0.6,1.3,1.1c0.5,1.3,0.7,2.6,0.8,4c0,0.7-0.1,1.5-0.3,2.3c-0.6,2.1-1.4,4.2-2.3,6.2
		c-0.4,0.7-0.6,1.4-0.7,2.1c0,0.1,0.1,0.3,0.2,0.3s0.2,0.1,0.4,0.1c0.4-0.1,0.6-0.3,0.9-0.4c0.6-0.2,1.3,0,1.7,0.5
		c0.5,0.5,0.6,1.1,0.5,1.7c-0.3,1.2-0.8,2.2-1.7,3.1c-1.3,1.3-2.7,2.4-4.1,3.4c-0.6,0.5-1.4,0.6-2.1,0.7c-0.6,0.1-0.9,0.4-1.2,0.8
		c-0.5,0.6-0.8,1.3-1.1,1.9c-0.1,0.4,0,0.7,0.5,0.6l0,0c1.4-0.3,2.7-0.7,3.8-1.4l4-1.9l0,0c0.3-0.2,0.6-0.3,0.9-0.4
		c0.5-0.1,0.9,0,1.2,0.4c0.2,0.2,0.4,0.5,0.3,0.6c-0.5,2.8-2.3,5.2-5,6.4c-1.4,0.6-2.8,1.3-4.2,1.7c-1.2,0.6-2.6,0.6-4,0.4
		c-0.2,0.1-0.3,0.3-0.5,0.4c-0.6,1.1-1.4,2.1-1.9,3.2c-0.2,0.5-0.6,0.8-0.9,1.2c-1,0.7-1.8,1.7-2.4,2.9c-0.2,0.2-0.2,0.5-0.1,0.7
		c0.1,0.3,0.4,0.4,0.6,0.5c1.5,0.3,3,0.2,4.5-0.3l0.9-0.3l0,0c0.4-0.6,0.7-1.3,1.1-1.9c0.5-0.6,0.9-1.2,1.5-1.7c0.5-0.6,1-1,1.6-1.5
		c0.7-0.6,1.7-1,2.8-1c0.5,0,0.8,0.1,1.2,0.3c0.4,0.1,0.7,0.5,0.8,0.8c0.2,0.4,0.2,0.8,0,1.2c-0.1,0.3-0.2,0.5-0.3,0.7
		c0,0.1,0.1,0.3,0.2,0.4c0.1,0.1,0.2,0,0.3,0l0,0c0.6-0.2,1.2-0.7,1.4-1.4c0.1-0.3,0.2-0.6,0.3-0.9c0.4-1.3,1.3-2.5,2.5-3.1
		c0.5-0.3,1-0.6,1.6-0.9l0,0c0.6-0.3,1.3-0.5,1.9-0.5s1.2,0.4,1.4,0.9c0.4,0.7,0.4,1.6,0,2.2c-0.3,0.6-0.6,1-1.1,1.4
		c-1.4,1.2-2.8,2.3-4.2,3.3l0,0c-0.8,0.5-1.7,0.9-2.5,1.2c-0.3,0.1-0.5,0.1-0.7,0c-0.6-0.1-1.2,0-1.7,0.4c-0.2,0.2-0.3,0.5-0.1,0.6
		c0.7,0.8,1.5,1.7,2.1,2.5l0,0c0.4,0.6,0.4,1.4,0,1.9c-0.3,0.4-0.6,0.7-0.8,1c-0.7,0.7-1.7,1.1-2.8,0.9c-1.3-0.2-2.5-0.6-3.5-1.5
		c-0.3-0.2-0.6-0.5-0.7-0.6c-0.7-0.6-1.7-1.1-2.7-1.4c-0.3-0.1-0.5-0.1-0.7,0c-0.5,0-0.8,0.1-1.3,0.2c-1.7,0.4-3.4,0.4-5.1,0
		c-0.6-0.2-1.4,0.1-1.8,0.6c-0.5,0.8-1.2,1.7-1.9,2.3c-0.3,0.2-0.5,0.5-0.6,0.8c-0.9,1.7-2,3.3-3.3,4.8c-0.9,1.1-1.7,2.3-2.7,3.5
		c-0.1,0.2-0.1,0.4,0,0.5c0.1,0.2,0.2,0.3,0.4,0.3l0.7,0.1c0.5,0,0.8-0.2,1.1-0.6c0.3-0.4,0.5-0.7,0.6-1.1c0.6-1,1.2-1.8,1.9-2.7
		c1-1.1,2.2-1.8,3.6-2.3c1-0.4,2.2-0.4,3.2,0c0.2,0.1,0.3,0.2,0.4,0.3c0.8,1.2,0.8,1.6,0,2.5c-0.9,1.1-2,2.1-3.2,2.9
		c-0.1,0.1-0.2,0.3-0.1,0.5c0.1,0.2,0.2,0.3,0.4,0.3h2.5c1.7-2.3,3.8-4.1,6.2-5.3c1-0.5,2.1-0.7,3.2-0.7c0.6,0,1,0.1,1.5,0.3
		c0.6,0.3,0.9,0.8,1,1.4c0.1,0.6-0.1,1.2-0.5,1.7c-0.8,0.8-1.8,1.6-2.8,2.1c-0.7,0.4-1.5,0.8-2.1,1.4c0.2,0.2,0.3,0.4,0.4,0.5l0,0
		c1.5,0.7,3,1.2,4.6,1.4c0.6,0.1,1.2-0.1,1.7-0.6c0.5-0.4,0.9-0.7,1.4-1.2c1.6-1.4,3.5-2.5,5.5-3.1c1.1-0.5,2.4-0.4,3.5,0.3
		c0.3,0.2,0.6,0.4,0.7,0.6c0.3,0.3,0.3,0.6,0.2,0.9c-0.2,0.5-0.4,0.9-0.8,1.3c-0.7,0.7-1.7,1.2-2.6,1.6l-5.7,1.9l-0.6,0.3
		c0.1,0.7,0.7,0.9,1.2,1.4c0.4,0.5,0.7,1,0.8,1.6c0.1,0.6-0.2,1.2-0.6,1.5c-1.5,0.6-3.1,0.8-4.7,0.6c-0.7-0.1-1.5-0.2-2.3-0.4
		c-1.2-0.2-2.2-1-2.6-2.1c-0.7-1.4-1.2-2.9-1.4-4.6c-0.6-0.5-1.3-0.6-1.9-0.6c-0.2,0-0.3,0.1-0.4,0.3c-0.1,0.2-0.1,0.3,0,0.5
		c0.2,0.2,0.4,0.4,0.6,0.6c0.5,0.5,0.8,1.1,1.1,1.7c0.2,0.5,0.1,1-0.3,1.5c-0.3,0.5-0.7,0.7-1.2,0.9c-1.7,0.5-3.4,0.5-5.1,0
		c-0.5-0.2-0.9-0.5-1.3-0.8c-1.3-0.9-1.8-2.6-1.3-4c0-0.1,0-0.2,0-0.3c-0.5-0.5-1.1-0.5-1.6,0c-0.4,0.3-0.6,0.6-0.9,0.8l0,0
		c-0.3,0.2-0.6,0.2-0.9,0c-0.6-0.6-1.5-0.8-2.3-0.7h-1.7c-1.1-0.1-2.2,0.5-2.9,1.3c-1.6,1.8-3.1,3.6-4.7,5.4l0,0
		c-1.4,1.6-2.8,2.9-4.4,4.1c-1.2,1-2.4,1.9-3.6,2.8c-0.1,0.1-0.2,0.3-0.2,0.5c0.1,0.2,0.2,0.3,0.4,0.3c0.6,0.1,1.2,0.2,1.7,0.3l0,0
		c0.4,0,0.6-0.2,0.8-0.5c0.2-0.3,0.3-0.6,0.5-0.9l0,0c1.2-1.9,2.9-3.6,5-4.6c1.5-0.8,3.2-0.8,4.6,0l0.6,0.4c0.4,0.3,0.5,0.7,0.3,1.2
		c-0.2,0.3-0.4,0.6-0.6,0.8c-0.8,0.7-1.7,1.5-2.4,2.3c-0.2,0.1-0.1,0.5-0.2,0.6h0.7c0.1,0,0.2,0,0.3,0c0.8-0.6,1.9-1,3-0.9
		c0.5,0,0.8-0.2,1.1-0.6c0-0.1,0.1-0.1,0.2-0.2c1.4-1.7,3.2-3,5.4-3.6c0.5-0.2,1-0.2,1.5,0c0.5,0.2,0.9,0.5,1.4,0.6
		c0.6,0.3,1,0.8,1.1,1.5s-0.2,1.3-0.6,1.7c-0.2,0.2-0.4,0.4-0.6,0.6c-0.6,0.7-1.7,1.3-2.7,1.5c-1.2,0.3-2.5,0.6-3.8,0.7l-3,0.6
		c0,0.3,0.1,0.6,0.3,0.7c0.6,0.4,1.2,0.7,1.7,1.1c0.2,0.2,0.4,0.4,0.4,0.6c0,0.3-0.1,0.6-0.2,0.7c-0.8,1.1-2.1,1.7-3.5,1.8
		c-2.2,0.1-4.4-0.7-6-2.3c-0.6-0.6-1-1.1-1.6-1.7h-2c-2.1,0.1-4.2,0-6.3,0c-0.2,0-0.4,0-0.6,0c-0.5,0-1,0.2-1.3,0.6
		c-0.3,0.4-0.4,0.9-0.2,1.4c0.4,1.5,0.6,2.9,0.9,4.5c0.2,0.9,0.5,1.8,0.7,2.7c0.6,2.3,1.1,4.6,1.2,7c0,1.4,0.3,2.7,0.5,4
		c0.4,2.5,0.6,5,0.6,7.4c0,0.6,0,1,0,1.6c-0.1,0.2-0.2,0.3-0.3,0.4c-0.1,0.1-0.5,0-0.6-0.3l0,0c-0.2-0.4-0.4-0.7-0.6-1.1
		c-0.3-1-0.6-1.9-0.7-2.9c-0.3-1.5-0.6-2.8-0.8-4.2l0,0c-0.4-1.6-0.6-3.2-0.6-4.8c-0.1-1.7-0.4-3.2-0.8-4.8
		c-0.7-2.4-1.3-4.8-2.2-7.1c-0.1-0.2-0.2-0.3-0.4-0.3c-0.2-0.1-0.4,0-0.5,0.1c-3.3,2.3-6.2,5.2-8.5,8.6c-0.4,0.6-0.8,1.1-1.2,1.7
		l0,0c-2.3,2.9-4.3,6.1-6.2,9.4c-0.2,0.4-0.4,0.7-0.5,1.2c-0.6,1.4-1,2.8-1.5,4l0,0c-0.1,0.3-0.4,0.6-0.6,0.7
		c-0.5,0.3-1,0.3-1.5,0.1c-0.3-0.1-0.5-0.9-0.4-1.4c0.1-0.6,0.3-0.8,0.4-1.2c0.3-0.9,0.6-1.9,0.9-2.9l0,0c0.5-1.4,1-2.7,1.7-4
		c0.2-0.3,0.3-0.6,0.6-0.8c1.3-1.7,2.5-3.4,3.5-5.2c2.6-3.7,5.5-7.1,8.8-10.2l3.5-3.3c0.4-0.3,0.5-0.7,0.4-1.2c-0.1-1-0.4-2-0.7-2.9
		c-1.1-2.9-2.3-5.8-3.8-8.6c-0.6-1.2-1.2-2.5-1.8-3.7c-0.2-0.5-0.5-0.7-0.8-1c-1.5,0.6-3,0.8-4.7,0.9c-0.3,0-0.6,0.1-0.7,0.2
		c-0.4,0.1-0.6,0.3-0.6,0.6c-0.2,0.6-0.3,1.4-0.5,1.9l0,0c-0.7,2-2.2,3.7-4.2,4.5c-0.9,0.6-2,0.5-2.8-0.3c-0.4-0.3-0.6-0.6-0.6-1.1
		c-0.1-0.6,0.1-1.2,0.4-1.7c0.6-0.7,1.1-1.6,1.7-2.3c0.3-0.4,0.6-0.6,0.8-1c0.1-0.2,0-0.6-0.1-0.6c-0.3-0.1-0.5-0.2-0.7-0.3
		l-1.3-0.2l0,0c-0.9-0.3-1.8-0.4-2.8-0.5c-0.9,0-1.5,1.1-2.2,1.6l0,0c-1.9,1.2-4,2.3-6.1,3.2c-0.6,0.2-1.1,0.4-1.7,0.6
		c-1.6,0.6-3.3,0-4.3-1.4c-0.9-1.1-0.9-1.8,0-2.9c0.5-0.5,1-0.9,1.6-1.3V156c0-0.2-0.1-0.1-0.2-0.1h-1.6c-3.2-0.2-6.2-1.7-8.1-4.3
		c-0.5-0.5-0.6-1.1-0.6-1.7c0-0.6,0.4-1.3,0.8-1.7c0.3-0.3,0.6-0.6,0.9-0.8c0.2-0.2,0.5-0.3,0.6-0.3c0.9-0.2,1.9,0,2.7,0.6
		c0.9,0.8,1.9,1.5,2.9,1.9c0.4,0.2,0.7,0.5,1,0.8c0.7,0.7,1.4,1.5,2.2,2.3l2.9,0.3c0.2,0,0.5-0.4,0.4-0.6l0,0
		c-0.2-0.4-0.4-0.7-0.6-1.1c-0.4-0.6-0.6-1.4-0.7-2.1c-0.1-0.5,0.1-0.9,0.5-1.3c0.4-0.4,0.8-0.5,1.3-0.5c1.1,0.1,2.1,0.6,3,1.3
		c1.8,1.1,3.4,2.6,4.7,4.2c0.5,0.6,0.9,1.3,1.6,1.7c1.2,0.2,2.3,0.3,3.5,0.3c0.1,0,0.3-0.2,0.4-0.3c0.1-0.1,0.1-0.2,0-0.3
		c-0.5-0.6-0.9-1-1.3-1.6c-0.7-0.9-1.3-2-1.7-3.1c-0.2-0.7,0-1.5,0.5-1.9c0.4-0.5,1-0.7,1.6-0.6c0.6,0.2,1.3,0.5,1.9,0.7
		c0.7,0.4,1.5,0.9,2.2,1.3s1.6,1.3,2.5,1.7c0.6,0.5,1.2,0.9,1.7,1.6c0.3,0.4,0.5,0.7,0.4,1.2c0,0.2,0.1,0.4,0.2,0.5
		c0.1,0.1,0.3,0.2,0.5,0.2h0.7c1.4,0,1.7-0.6,1-1.7c-1.2-1.9-1.9-4.1-3.1-6.2l0,0c-1.1-2.3-2.4-4.5-3.7-6.6
		c-1.1-1.6-2.3-3.1-3.4-4.8c-0.5-0.6-0.8-1.3-1.3-1.9c-0.2-0.3-0.5-0.5-0.7-0.6c-0.2,0-0.3,0-0.4,0.2c-0.1,0.3-0.1,0.5,0,0.7
		c0.4,0.9,0.6,2,0.4,3c-0.1,0.8-0.5,1.7-1.1,2.3c-0.5,0.6-1.3,0.6-1.8,0.3c-1.6-0.7-2.6-2.2-2.8-4c-0.1-0.7-0.4-0.9-1-0.7
		c-1.3,0.3-2.4,0.6-3.7,1c-0.1,0.7-0.3,1.5-0.4,2.1l0,0c-0.1,0.6-0.4,1.1-0.8,1.6c-1.5,1.6-3.3,2.8-5.3,3.5c-0.5,0.1-1,0.2-1.5,0.3
		c-1.1,0-1.3-0.3-1.6-1.2c-0.1-0.3-0.1-0.5,0-0.7c0.4-0.7,0.8-1.3,1.4-1.7c0.6-0.5,1.2-1.2,1.5-1.9c0-0.1,0-0.2,0-0.3
		c0-0.1-0.1-0.1-0.2-0.1c-0.6-0.1-1.2-0.1-1.7,0c-1.7,0.5-3.5,0.7-5.2,0.8c-0.6,0.1-0.9,0.5-1,1c-0.1,0.6-0.3,1.3-0.4,1.9
		c-0.2,1.4-0.9,2.6-2.1,3.4c-1.1,0.8-2.6,1.1-3.9,0.9c-0.5-0.1-0.9-0.3-1.4-0.6c-0.7-0.3-1.2-1-1.3-1.7c-0.2-0.5,0-1,0.3-1.4
		c0.7-0.8,1.6-1.6,2.3-2.4l0.1-0.1c0-0.1-0.2-0.4-0.3-0.4l-4.6-0.1c-0.3,0-0.6,0.1-0.7,0.1c-0.1,0.2-0.4,0.4-0.4,0.6
		c-0.6,1.5-1.7,2.7-2.9,3.5c-0.6,0.5-1.3,0.9-1.9,1.3c-0.7,0.5-1.6,0.6-2.4,0.7c-1.9,0.2-3.7-1.1-4.1-3c-0.2-0.5,0-1,0.5-1.4
		c0.8-0.6,1.7-1.1,2.7-1.4c0.3-0.1,0.6-0.3,0.9-0.5c0.1,0,0.1-0.3,0.1-0.5s-0.1-0.1-0.2-0.1l0,0c-0.4-0.1-0.6-0.1-1-0.2h-1.9l0,0
		c-1.6,0.2-3.2-0.2-4.6-1c-2.8,1.5-6.2,2-9.4,1.6c-0.9-0.2-1.8-0.5-2.6-1c-0.3-0.2-0.6-0.5-0.6-0.7c-0.3-0.6-0.6-1-0.7-1.6
		c-0.1-0.4,0-0.7,0.3-0.9c0.3-0.4,0.6-0.6,1.1-0.6c0.4,0,0.6,0,1,0c3.9-0.2,7.6,0.1,11.4,0.8c0.7,0.2,1.5,0.2,2.3,0.3
		c0.2,0.2,0.4,0.4,0.5,0.6l0,0c0.2,0.3,0.5,0.5,0.8,0.6c0.2,0,0.4,0,0.6,0l4-0.2c0,0,0.2,0,0.2-0.1v-0.5c-0.6-0.5-1.2-0.9-1.7-1.5
		c-0.6-0.6-1-1.2-1.2-1.9c-0.1-0.4-0.1-0.7,0.1-1c0.4-0.7,1.2-1.1,1.9-1.1c1.7,0,3.2,0.3,4.7,0.9c0.6,0.3,1.2,0.6,1.6,1.2
		c0.5,0.6,0.9,1.2,1.3,1.8c0.3,0.5,0.3,1,0,1.5c-0.1,0.2-0.3,0.4-0.5,0.6l0,0c0.2,0.1,0.4,0.3,0.6,0.3c1,0.3,2,0.4,3,0.3
		c1.8,0,3.8-0.3,5.6-0.5c0.1,0,0.4-0.2,0.4-0.3c0-0.2-0.1-0.3-0.2-0.5c-1.1-0.9-2.2-1.8-3.3-2.8l0,0c-0.4-0.4-0.7-0.7-1-1.2
		c-0.2-0.3-0.3-0.6-0.3-0.9c-0.1-0.3,0-0.6,0.2-0.7c0.2-0.2,0.4-0.4,0.6-0.4c1.2-0.2,2.4-0.2,3.5,0.2c2.4,0.5,4.5,1.7,6.2,3.5
		c0.3,0.3,0.6,0.6,0.6,1c0.6,1.1,0.6,1.2,1.7,1.1l4.8-0.6l0,0c0.3-0.1,0.5-0.2,0.7-0.3c0.1-0.1,0.1-0.1,0.1-0.2s0-0.2-0.1-0.2
		l-1.6-1.3c-1-0.7-1.8-1.7-2.4-2.9c-0.1-0.3-0.2-0.6-0.3-1c-0.1-0.4,0-0.6,0.2-1c0.2-0.3,0.5-0.5,0.8-0.6c0.9-0.2,1.8-0.2,2.8,0.1
		c3.1,0.9,5.9,2.7,8.1,5.1c0.1,0.2,0.3,0.2,0.5,0.2s0.4-0.1,0.5-0.2c0.6-0.9,1.6-1.4,2.6-1.4c0.2,0,0.3,0,0.5-0.1
		c0.3-0.2,0.6-0.4,0.8-0.5c0-0.4-0.1-0.7-0.4-1c-2.3-3.1-4.5-6.2-6.8-9.3c-1.5-1.9-3-3.7-4.8-5.2c-0.6-0.5-1.3-0.6-1.8-0.3
		c-0.7,0.2-1.3,0.6-1.7,1.3c-0.4,0.6-0.5,1.4-0.3,2c0,0.5,0,0.8,0,1.3c0,0.8-0.3,1.7-0.7,2.4c-0.6,0.9-1.7,1.6-2.8,1.6
		c-0.5,0-0.8-0.2-1-0.6c-0.4-0.7-0.4-1.7,0.1-2.5c0.4-0.5,0.6-1,1.1-1.4c0.4-0.5,0.6-1,0.6-1.7c-0.1-0.2-0.2-0.3-0.3-0.4
		c-0.7,0.1-1.5,0.3-2.2,0.5c-0.8,0.3-1.7,0.5-2.5,0.4c-0.6-0.1-1.2,0.2-1.6,0.6c-0.3,0.3-0.6,0.4-0.9,0.4h-1.5l0,0
		c-0.2,0-0.3,0.2-0.4,0.4c-0.2,0.7-0.2,1.6,0,2.3c0.2,0.6,0.1,1.2-0.3,1.7c-0.8,1.3-1.9,2.3-3.3,2.9c-1.1,0.6-2.1,1.1-3.2,1.5l0,0
		c-1.5,0.6-3.2,0.6-4.6-0.3c-0.1-0.1-0.2-0.3-0.3-0.4c-0.6-1.9-0.6-2.1,0.7-3.3l2.8-2.5c0.2-0.2,0.3-0.5,0.2-0.6
		c-0.2-0.2-0.4-0.3-0.6-0.3h-1.9l-5.6,0.1h-1.3c-0.3,0.5-0.6,0.9-0.8,1.3c-0.4,0.5-0.8,0.8-1.3,1.2c-0.8,0.6-1.7,1.2-2.4,1.9l0,0
		c-1.2,1.1-2.8,1.7-4.3,1.9c-1,0.2-2,0-2.9-0.6c-0.2-0.1-0.4-0.3-0.6-0.6c-0.5-0.6-0.6-1.3-0.6-2c0.1-0.7,0.6-1.4,1.2-1.7
		c0.6-0.2,1-0.6,1.5-1c0.1-0.2,0.1-0.3,0-0.5c-1.3-0.4-2.7-0.7-4-1c-0.2,0-0.6,0.1-0.6,0.3l0,0c-0.5,1.7-1.8,3.1-3.5,3.8
		c-1.7,0.8-3.3,1.4-5.1,1.7c-1,0.2-1.9,0.5-3,0.6l0,0c-0.8,0.1-1.7,0.1-2.6,0s-1.7-0.6-1.9-1.5c-0.6-1-0.2-2.3,0.8-2.8
		c0.3-0.2,0.6-0.4,0.9-0.5c0.8-0.4,1.7-0.6,2.7-0.8c1.6-0.3,3-1,4.6-1.4c0.2,0,0.4-0.4,0.6-0.6c-1.5-0.4-2.8-0.7-4.2-1.1l0,0
		c-0.4,0-0.6,0.1-0.9,0.2c-0.3,0.1-0.6,0-0.7-0.1c-0.2-0.2-0.4-0.4-0.6-0.6c-0.4-0.5-0.9-0.8-1.5-0.9c-0.5-0.1-1-0.3-1.5-0.4l0,0
		c-0.6-0.2-1.1-0.4-1.7-0.6c-1.4-0.8-2.7-1.7-4-2.8c-1.2-1.1-2.1-2.4-2.8-3.9c-0.1-0.5,0.1-0.9,0.5-1.1c0.4-0.2,0.8-0.3,1.3-0.3
		c0.9-0.1,1.8,0.1,2.8,0.5c2.4,1,4.4,2.6,6,4.6c0.4,0.5,0.7,0.9,1.1,1.5l0,0c0.4,0.6,1.1,0.9,1.7,0.8h0.3c0.5-0.1,1,0.1,1.3,0.5
		c0.6,0.7,1.6,1.1,2.5,1.1c0.2,0,0.5-0.4,0.4-0.6c-0.3-0.6-0.5-1.3-0.6-1.9l0,0c-0.2-0.4-0.3-0.8-0.4-1.2c-0.2-1,0.5-1.6,1.5-1.4
		l0,0c0.4,0.1,0.8,0.3,1.2,0.5c1.3,0.9,2.6,1.9,3.8,3c0.8,0.8,1.7,1.5,2.4,2.3l0,0c0.6,0.6,1.3,0.9,1.9,1.3c0.7,0.4,1.6,0.6,2.4,0.6
		c1.3,0,2.6,0.2,3.8,0.3c1.3,0,1.9,0,3,0c0,0,0.2-0.2,0.3-0.4c0.1-0.1,0-0.2-0.1-0.2c-0.7-0.6-1.6-1-2.3-1.6
		c-1.3-0.9-2.3-2.3-2.9-3.8c-0.2-0.5-0.2-1,0.1-1.4c0.3-0.4,0.7-0.6,1.3-0.6c0.1,0,0.2,0,0.3,0.1c1.7,0.4,3.4,0.9,5.1,1.7
		c1.7,0.9,3.1,2,4.5,3.2c0.4,0.3,0.8,0.6,1.3,0.7c0.5,0.2,0.6,0.6,0.4,1.1c-0.1,0.5,0,0.7,0.4,0.7h2.6c0.8,0,2.2-0.3,3.3-0.4
		c0.6,0,1.1-0.4,1.1-0.6l0,0c-0.1-0.4-0.3-0.6-0.6-0.7l-1.4-1.1c-1-0.7-1.8-1.6-2.6-2.5c-0.4-0.5-0.6-1-0.9-1.5
		c-0.2-0.4-0.2-0.7,0-1.1c0.2-0.4,0.6-0.6,0.9-0.6c0.6-0.1,1.2-0.1,1.7,0c3.2,0.6,6.2,2.1,8.5,4.3c0.6,0.6,1.5,1.1,2.2,1.7
		c0.4,0.4,0.9,0.5,1.5,0.3c1.3-0.5,2.6-0.8,4-1c0.6-0.1,1.2-0.4,1.6-0.7c0.1-0.1,0.1-0.3,0.1-0.4c0,0,0-0.2-0.2-0.2l0,0
		c-0.7-0.3-1.5-0.5-2.2-0.5c-1.6-0.2-2.9-0.8-4.1-1.8c-1.2-0.9-2-2.1-2.4-3.6c-0.1-0.3-0.1-0.6,0.1-0.8c0.2-0.3,0.4-0.5,0.7-0.5
		c0.8-0.3,1.7-0.4,2.5-0.1c0.6,0.2,1.3,0.4,1.9,0.6c0.6,0.3,1.3,0.6,1.9,0.7c0.1,0,0.3,0,0.5-0.1l0,0c0-0.1,0-0.2,0-0.3
		c-2.3-3.3-4.3-6.7-6.8-9.8c-1-1.3-1.9-2.6-2.8-4c-0.9-1.3-1.6-1.9-2.2-2.9c-0.9-0.1-1.8,0.1-2.7,0.5c-0.5,0.2-0.8,0.6-0.9,1.1
		c-0.4,1.2-0.6,2.5-0.6,3.8c0,0.6-0.1,1.3-0.3,1.9c-0.5,1.4-1.5,2.5-2.7,3c-1.3,0.6-2.8,0.6-4,0.2c-0.6-0.2-1.2-0.6-1.5-1.3
		c-0.3-0.6-0.2-1.4,0.2-1.9c0.5-0.9,1-1.7,1.6-2.6l0,0c0.2-0.2,0.3-0.5,0.4-0.6c0-0.1,0-0.3-0.1-0.5l0,0c-0.1-0.1-0.1-0.1-0.2-0.1
		c-0.1,0-0.2,0-0.3,0L291.1,95c-0.2,0.1-0.3,0.1-0.5,0.3c-0.1,0.1-0.3,0.2-0.4,0.4c-0.1,0.2-0.1,0.3-0.1,0.5
		c-0.3,1.8-1.5,3.3-3.1,4.1c-2,1.2-4.2,2.2-6.4,2.9c-1,0.3-2,0.3-3,0.1c-0.5-0.1-0.8-0.4-1.1-0.6c-0.2-0.4-0.2-0.8,0-1.2
		c0.3-0.5,0.6-0.8,1.1-1c1.2-0.6,2.4-0.9,3.5-1.6c0.9-0.6,1.8-1.1,2.8-1.7c0-0.1,0-0.2,0-0.3s-0.1-0.1-0.1-0.2c-0.4,0-0.6,0-1,0
		c-2,0.3-4,0.3-6.2,0.2c-1.4-0.1-2.7-0.1-4,0c-1.4,0-2.7-0.2-4-0.6c-2.4-0.7-4-3-3.8-5.5c0.1-0.8,0.5-1.7,1-2.3
		c0.6-0.7,1.7-0.8,2.5-0.3c1.1,0.9,2.1,2,2.9,3.2c0.5,0.8,1.1,1.6,1.7,2.3l0,0c0.6,0.8,1.6,1.3,2.6,1.2c1.6-0.1,3.2-0.2,4.8-0.3l0,0
		c0.2-0.1,0.3-0.2,0.4-0.3c0.1-0.2,0.1-0.4,0-0.5c-0.3-0.3-0.5-0.5-0.7-0.6l-1.8-1.4l0,0c-0.8-0.7-1.6-1.6-1.9-2.7
		c-0.2-0.6,0.2-1.3,0.8-1.6c0.8-0.2,1.7,0,2.5,0.3c0.7,0.4,1.6,0.6,2.3,1c1.7,1,3.6,1.8,5.5,2.7l0,0c0.4,0.2,0.7,0.4,1.2,0.6
		c0.4,0.2,0.6,0.6,0.9,0.7c1.5-0.1,2.9-0.4,4.2-0.9c0.6-0.2,1.3-0.4,1.9-0.6c0,0,0.2-0.4,0-0.5c-0.6-0.6-1.2-1.2-1.8-1.7
		c-0.9-0.9-1.7-1.9-2.2-3c-0.1-0.3-0.1-0.5-0.2-0.7c0-0.6,0.3-1,0.7-1.2c0.4-0.2,0.8-0.2,1.2-0.3c1.5,0,2.8,0.4,4.1,1.1l6.1,3.8
		l5.5-1.8l0,0c0.3-0.2,0.5-0.6,0.3-0.8c-0.1-0.2-0.2-0.3-0.3-0.5l-4.5-5.9l0,0c-1.2-1.5-2.3-2.9-3.2-4.6c-0.4-0.6-0.7-1.2-1.1-1.7
		c-0.7-1.1-1.1-1.5-2.8-1l0,0c-0.5,0.1-0.9,0.5-1.1,0.9c-0.5,1.2-1.1,2.3-1.6,3.5c-0.6,1.7-1.6,3.2-2.4,4.8c-0.5,1-1.7,1.6-2.8,1.3
		c-0.7-0.1-1.4-0.7-1.5-1.6c-0.1-1.5,0.2-2.9,1-4.1c0.6-1.1,1.3-2.1,1.9-3.2l0,0c0.1-0.2,0.1-0.4,0-0.5c-0.1-0.2-0.2-0.3-0.4-0.3
		c-0.6,0-1.2,0-1.7,0.1c-0.6,0.1-1.3,0.3-2.1,0.4c-0.5,0.6-0.9,1.1-1.4,1.7l0,0c-0.6,0.6-1,1.2-1.4,1.8c-0.6,0.7-1.1,1.5-1.7,2.1
		c-1.2,1.3-2.9,2-4.8,1.9c-0.3,0-0.6-0.2-0.7-0.5s-0.3-0.6-0.2-0.8c0.1-0.3,0.3-0.6,0.4-0.9c1-1.5,2.2-2.8,3.7-4l0.8-0.6
		c0-0.1,0-0.2,0-0.3c-0.1,0-0.3-0.3-0.4-0.2c-0.6,0.3-1.2,0.6-1.8,0.8c-0.6,0.2-1.3,0.4-1.9,0.5c-1.9,0.4-3.9,0.5-5.7,0.4
		c-0.9-0.1-1.8-0.5-2.6-1c-0.5-0.4-0.6-1-0.4-1.6c0.4-0.8,1.1-1.4,1.9-1.6c2.1-0.6,4.4-0.6,6.6-0.4c1.7,0,3.4,0.3,5,0.8
		c0.3,0.1,0.6,0.1,1,0c1.7-0.3,3.3-0.7,4.9-1.4c0,0,0.1-0.1,0.3-0.3c0-0.6,0-1.5,0.1-2.2l0,0c0.2-1.7,0.7-3.5,1.7-5
		c0-0.1,0.2-0.3,0.3-0.4c0.2-0.2,0.5-0.3,0.6-0.3c0.3,0,0.5,0.1,0.6,0.3c0.2,0.3,0.4,0.6,0.5,0.9c0.5,1.2,0.9,2.4,1.3,3.6
		c0.4,1,1,1.9,1.9,2.6c0.6,0,1.4-0.3,1.8-0.6v-0.3c-1.7-2.7-3.2-5.4-4.5-8.3c-0.4-0.6-0.6-1.4-1.1-1.9c-0.1-0.2-0.4-0.3-0.6-0.5
		l-2.7,0.9l0,0c-0.6,1.2-0.9,2.4-1.3,3.7c-0.3,0.7-0.6,1.5-0.8,2.1c-0.4,0.6-0.8,1.3-1.5,1.7c-0.9,0.7-2.2,1-3.3,0.6
		c-0.7-0.3-1.2-1-1.1-1.7c0.2-0.6,0.6-1.3,0.8-1.8c0.8-1.3,1.7-2.6,2.5-4l0,0c0-0.1,0-0.3,0-0.4c-0.1-0.1-0.2-0.2-0.3-0.2
		c-1-0.3-2.1-0.1-2.8,0.6c-1.7,1.4-3.8,2.4-5.3,4c-1.1,1-2.6,1.4-4,1.1c-0.4-0.1-0.7-0.4-1-0.7c-0.7-1.4-0.4-3.1,0.9-4.1
		c1.2-0.9,2.5-1.5,4-1.8l1-0.1c0-0.2,0-0.5-0.2-0.6c-3-2.4-5.3-5.7-6.5-9.5c-0.3-0.8-0.4-1.7-0.2-2.5c0.2-0.6,0.6-1.1,1.2-1.3
		c0.6-0.3,1.2-0.2,1.7,0.1c1,0.8,1.9,1.8,2.8,2.9c1.2,1.7,2.4,3.5,3.6,5.2l0,0c0.7,1.1,1.7,2,2.7,2.8c0.4,0.2,0.6,0.6,0.7,1
		c0,0.6,0.6,1.1,1.2,1.1c0.6,0,1.2,0.2,1.7,0.2c0.5,0,0.8,0,1.2-0.2c0.7-0.3,1.5-0.5,2.2-0.6c0.4-0.1,0.6-0.3,0.9-0.5
		c0.5-0.2,0.7-0.7,0.6-1.2c-0.3-1.3-0.7-2.5-1.4-3.6c-0.2-0.3-0.5-0.6-0.7-0.6c-2.7-1-5.1-2.7-7.2-4.8c-0.6-0.6-1.1-1.1-1.7-1.6
		c-1.5-1.4-2.8-3-3.8-4.8c-0.1-0.2-0.1-0.3-0.1-0.5c0-0.3,0.1-0.5,0.3-0.6c0.6-0.5,1.3-0.6,1.9-0.5c1.7,0.5,3.3,1.3,4.7,2.5
		c0.8,0.6,1.6,1.3,2.4,1.9c0.4,0.3,0.8,0.6,1.3,0.7c0.2,0.1,0.3,0.1,0.5,0v-0.3l0,0c0-0.4-0.1-0.6-0.1-1c-0.3-1.6-0.6-3.2-0.9-4.8
		c-0.1-0.4-0.2-0.6-0.3-1c0-0.3-0.2-0.5-0.3-0.7c-0.6-1.2,0.2-2.6-0.7-3.7l0,0c-0.3-1.3-0.5-2.5-0.4-3.8c0-2.1,0.1-4.2,0.2-6.3
		c0.1-1.5,0.6-2.8,1.4-4c0.3-0.5,0.7-0.7,1.2-0.8c0.5-0.1,1,0,1.4,0.3c0.4,0.3,0.6,0.6,0.9,0.9c0.3,0.4,0.5,0.7,0.6,1.1
		c0.2,0.9,0.3,1.8,0.2,2.8c-0.4,2.7-0.9,5.3-1.7,7.9c-0.5,1.5-0.8,3-1,4.5c-0.2,0.8-0.1,1.7,0.3,2.5c0.2,0.4,0.3,0.8,0.5,1.3
		c0.3-0.2,0.6-0.3,0.6-0.5c0.5-1.4,0.9-2.8,1.4-4.1c0.4-1,0.9-2,1.6-2.9c0.4-0.5,0.9-0.6,1.5-0.6c0.6,0.1,1,0.4,1.3,0.9
		c0.5,0.9,0.6,1.9,0.4,2.9c-0.6,2.6-1.3,5.1-2.2,7.6c-0.4,1-1.2,1.8-1.5,2.9c-0.2,0.6-0.5,1.2-0.7,1.7c0,0.9,0.8,1.2,1.1,1.8
		c0.2,0.6,0.4,1.1,0.6,1.7c0.3,0.6,0.6,1.2,0.9,1.8c0.3,0.6,0.7,0.6,1,0.3c0.6-0.7,1.3-1.6,1.9-2.3l0,0c0.2-0.3,0.3-0.6,0.1-1
		c-0.5-1.4-0.6-2.8-0.6-4.3c0-0.8-0.1-1.7-0.2-2.6l0,0c-0.1-1.4-0.1-2.8,0-4c0.1-1.2,0.6-2.3,1.2-3.3c0.2-0.4,0.6-0.6,1-0.6
		c0.5,0,0.7,0.2,1,0.6c0.5,0.6,0.9,1.5,1.2,2.3c0.3,0.8,0.6,1.6,1,2.3c0.2,0.4,0.5,0.7,0.8,1c0.1,0.1,0.2,0.2,0.4,0.2
		c0.1,0,0.3-0.1,0.4-0.2c1.1-1.5,2.2-2.9,3.3-4.3c0.6-0.6,1.1-1.3,1.7-1.9c0.7-0.7,1.7-1.1,2.8-0.9c0.6,0.1,1.1,0.6,1.1,1.2
		c0.2,2.2-0.6,4.4-2.1,6.1c-1,1.1-1.9,2.4-2.9,3.5c-1,1.1-2,2.3-3.1,3.3c-1.1,1.1-1.9,1.7-2.8,2.6l0,0c-0.2,0.2-0.4,0.4-0.6,0.4
		c-1,0.3-1.8,0.9-2.3,1.8c-0.6,0.8-1.2,1.7-1.7,2.5l0,0c-0.3,0.4-0.4,0.8-0.2,1.2c0.9,2.1,2,4.1,3.2,6.1c0.1,0.2,0.4,0.2,0.6,0.3
		c0-0.6,0.2-1.1,0.3-1.6c0.1-0.7,0.6-1.5,1.2-1.9c0.3-0.2,0.6-0.4,0.9-0.4c1,0,2,0.6,2.5,1.5c0.2,0.5,0.4,0.9,0.5,1.5l0,0
		c0.1,0.2,0.2,0.3,0.4,0.3c0.2,0,0.4,0,0.5-0.2c0.6-0.5,1.1-1,1.6-1.7c0.2-0.6-0.3-1-0.4-1.5l0,0c-0.1-0.5-0.2-1-0.3-1.5
		c-0.3-0.9-0.3-1.8-0.2-2.8c0.1-1.6,0.5-3,1-4.4c0.3-0.6,0.6-1.2,1.1-1.7c0.3-0.3,0.6-0.4,0.9-0.2c0.9,0.3,1.7,1,1.9,1.9
		c0.4,1,0.5,2,0.5,3.1c0,0.6,0.1,1.3,0.3,1.9c0,0.2,0.5,0.4,0.6,0.2c0.9-0.5,1.7-1.2,2.3-1.9c0.1-0.1,0.1-0.3,0.1-0.4
		c0-0.1-0.1-0.3-0.2-0.3c-0.4-0.1-0.6-0.5-0.6-0.8c0-0.7,0.1-1.6,0.2-2.3c0.1-0.6,0.2-1.2,0.3-1.7c0.5-2.4,0.6-4.7,0.8-7.1l0,0
		c0.1-1.1,0.5-2.2,1-3.1c0.3-0.4,0.6-0.6,0.9-0.8c0.6-0.3,1.4-0.1,1.7,0.6c0.1,0.2,0.2,0.3,0.2,0.5c0.6,2.3,0.8,4.7,0.6,7.1
		c0,0.2,0,0.4,0,0.5c0,0.3,0.1,0.5,0.2,0.7c0.1,0.2,0.5,0.1,0.6-0.1l0,0c0.3-0.2,0.5-0.5,0.6-0.7c1.5-1.4,3.1-2.8,4.8-4
		c0.5-0.4,1-0.7,1.5-1c0.5-0.4,1.1-0.5,1.7-0.3c0.6,0.2,1,0.6,1.3,1.1l0.1,0.3c0.5,0.6,0.7,1.3,0.6,2c-0.1,0.7-0.6,1.4-1.2,1.8
		c-0.7,0.7-1.5,1.4-2.2,2.1c-0.3,0.2-0.6,0.4-0.8,0.6c-0.6,0.2-1.1,0.6-1.6,0.8c-1.4,1-2.9,1.7-4.7,1.9l-1.2,0.2
		c-0.6,0.4-1.1,0.9-1.5,1.6c-0.4,0.7-1.1,1.3-1.2,2.3c0.3,0,0.6,0.1,0.7,0c0.7-0.3,1.5-0.4,2.2-0.4s1.5,0.4,1.9,0.9
		c0.5,0.5,0.5,1.2,0,1.6c-1.1,1.1-2.2,2.1-3.5,2.9l-3.9,2.5c-0.6,0.4-1.3,0.6-1.9,0.7c-0.6,0.2-1.4,0.1-1.9-0.2
		c-0.7-0.4-1.7-0.5-2.5-0.3c-0.3,0.1-0.6,0.2-0.8,0.5c-1.2,1.3-2.4,2.7-3.5,4c-0.5,0.6-0.9,1.3-1.5,1.8c0.2,0.5,0.3,0.9,0.6,1.4
		c0.6,1,1.1,1.9,1.6,2.9l0,0c1.5,2.8,3.1,5.6,5.1,8.2c0.5,0.6,0.8,1,1.3,1.6c0.1,0.1,0.3,0.2,0.5,0.2c0.2,0,0.4-0.1,0.5-0.2l1.3-1.2
		l0,0c-0.1-0.3-0.2-0.6-0.3-0.7c-1.2-3.3-0.7-7.1,1.4-9.9c0.6-0.9,1.7-1.6,2.3-1.3l0,0c0.9,0.3,1.6,1,1.7,1.9
		c0.1,0.4,0.2,0.8,0.2,1.3v2.3c0,0.2,0.1,0.3,0.4,0.3c0.1,0,0.2,0,0.3-0.1c0.5-0.6,1-1.1,1.5-1.7c1.5-2,2.9-4.1,4.4-6.2
		c0.3-0.5,0.4-1,0.2-1.5c-0.4-1.4-0.7-2.8-0.9-4.2c-0.5-2.7,0-5.5,1.5-7.8c0.1-0.2,0.2-0.3,0.3-0.5c0.4-0.6,0.8-1.2,1.6-1.1
		c0.7,0,1.3,0.7,1.6,1.5l0,0c0.4,0.9,0.5,1.8,0.6,2.8c0,0.8,0,1.7,0.1,2.6c0,0.1,0,0.2,0.1,0.2c0.1,0.1,0.2,0.1,0.3,0.1s0.2,0,0.3,0
		c0.9-1.1,1.9-2.2,2.8-3.3l0,0c0.5-0.6,0.7-1.4,0.6-2.1c0-1.6,0.3-3,0.8-4.5c0.6-2.3,1.6-4.5,2.7-6.6c0.3-0.5,0.6-0.9,0.8-1.3l0,0
		c0.6-0.6,1.6-0.7,2.2-0.3c0.6,0.5,1,1.2,1,1.9c0,0.7-0.1,1.6-0.3,2.3c-0.6,1.8-1.3,3.7-2.1,5.4c-0.5,1-1.2,1.8-2.1,2.4
		c-0.3,0.2-0.6,0.5-0.6,0.7c-0.1,0.4-0.2,0.6-0.4,0.9c-1.6,1.9-2.4,4.3-4,6.2c-0.3,0.4-0.3,0.8,0,1.2l-0.2-0.1l0.1,0.1l1.9-0.7
		c1.1-0.5,2.5-0.2,3.2,0.8c0.2,0.3,0.4,0.6,0.6,0.8c0.1,0.3,0.1,0.5,0,0.7c-0.2,0.7-0.6,1.5-1.1,1.9c-1.5,1.4-3.2,2.5-5.1,3.3
		c-1.1,0.6-2.4,0.9-3.7,1c-0.7,0.1-1.4,0.4-1.9,0.9c-1.3,1.2-2.4,2.7-3.2,4.2c-0.3,0.4-0.6,0.6-0.5,1.1c0.6,0.4,0.9-0.1,1.5-0.2l0,0
		c0.6-0.1,1,0.1,1.5,0.4c0.3,0.2,0.6,0.4,0.7,0.6l0,0c0.4,0.4,0.5,0.9,0.4,1.4c-0.2,0.8-0.6,1.7-1.2,2.3l-1.7,1.6l0,0
		c-1.1,1-2.7,1.6-4.2,1.5c-0.2,0-0.3-0.1-0.5-0.2c-0.1-0.1-0.2-0.3-0.2-0.4c0-0.1,0-0.2,0-0.2c0.1-0.1,0.3-0.3,0.4-0.3
		c1.3-0.4,2.5-1.1,3.3-2.2c0.5-0.6,0.8-1.1,1.2-1.7c0.2-0.3,0.1-0.6,0-0.6c-0.1-0.1-0.4-0.1-0.5,0c-1.7,0.8-3.4,2-4.7,3.5l-0.6,0.7
		l0,0c-0.6,0.7-1.4,1.3-2.2,1.7c-0.6,0.4-1.1,0.7-1.7,1.1c-0.1,0.1-0.2,0.3-0.1,0.5c0.3,0.9,0.7,1.7,1.4,2.4
		c1.2,1.3,2.2,2.8,3.2,4.2c1.3,1.9,2.8,3.8,4.2,5.7c0.7,0.9,1.5,1.8,2.1,2.8c0.1,0.2,0.2,0.3,0.3,0.5l5.9,7.3
		c0.1,0.1,0.3,0.3,0.4,0.4c0.2,0.1,0.5,0.1,0.6-0.1c1.4-1.9,2.5-4,3.6-6.2c0.2-0.4,0.1-0.7-0.3-0.9c-2.4-1.5-4.1-3.9-4.7-6.7
		c-0.6-1.6-0.4-3.3,0.6-4.7l1.5-0.7l0,0c0.8,0.2,1.7,0.6,2.1,1.4c1.3,1.6,2.3,3.3,3,5.2c0.1,0.1,0.2,0.3,0.4,0.4h0.3
		c0.9-1.8,1.7-3.7,2.2-5.6c0.2-0.8,0.3-1.7,0.4-2.6c0-0.4-0.6-0.4-0.9-0.6c-0.8-0.6-1.5-1.5-1.9-2.4c-0.7-1.6-1.2-3.2-1.4-4.9
		c-0.1-0.6,0.1-1.4,0.4-1.9c0.1-0.4,0.4-0.6,0.7-0.6c0.4-0.1,0.6-0.2,1-0.2c0.3,0,0.5,0.1,0.7,0.2c0.5,0.4,0.9,0.8,1.3,1.3
		c0.6,0.6,0.9,1.4,1.5,2.1c0.2,0.2,0.5,0.4,0.7,0.6c0.7-2.1,1.2-4.3,1.5-6.5c-0.1-0.5-0.3-0.9-0.6-1.2c-0.8-0.8-1.5-1.9-1.8-3
		c-0.4-1.1-0.6-2.3-0.9-3.5c-0.1-0.6-0.1-1.2,0-1.7s0.3-1.2,0.4-1.7c0.1-0.6,0.5-1.1,0.9-1.5c0.2-0.1,0.4-0.3,0.6-0.5l0,0
		c0.4-0.4,1-0.4,1.4,0c0.4,0.4,0.7,0.7,1.1,1.1c0.4,0.4,0.8,0.4,1-0.3c0.6-1.9,1.1-3.8,1.6-5.6c0.2-0.6,0.1-1.2-0.4-1.7
		c-0.6-0.6-0.9-1.2-1.1-1.9c-0.6-1.5-1-3-1.4-4.6c-0.3-1.3-0.4-2.6-0.2-3.8c0-0.8,0.4-1.7,0.9-2.3c0.4-0.5,0.9-0.7,1.6-0.7
		c0.6-0.1,1.2,0.3,1.4,0.9c0.3,0.7,0.5,1.5,0.7,2.2c0.1,0.6,0.4,1.4,0.6,1.9c0.9,1.8,1.1,4,0.6,5.9c-0.1,1.1-0.3,2.2-0.6,3.2
		c-0.2,1.1-0.6,2.1-0.7,3.2c-0.4,1.7-0.7,3.3-1.1,5l0,0c-0.2,0.8-0.3,1.7-0.4,2.6c0,0.1,0,0.3,0.2,0.5c0.2,0.1,0.5,0,0.6-0.2
		c0.7-0.8,1.4-1.7,2.1-2.6l0,0c0.8-1,1.8-1.9,3-2.6c0.5-0.2,1,0,1.3,0.6c0.3,0.9,0.3,1.8,0,2.8c-0.4,0.8-0.7,1.7-1,2.7
		c-0.3,0.9-0.9,1.4-1.2,2.2c-0.6,1.4-1.6,2.7-2.7,3.8c-0.8,0.9-1.8,1.5-3,1.8c-0.5,0.1-0.7,0.5-0.7,0.9c-0.3,2.4-0.7,4.7-1.4,7
		c0,0,0.1,0.3,0.2,0.4c0.1,0.1,0.2,0,0.3,0c0.8-0.7,1.7-1.5,2.4-2.2c0.7-0.6,1.6-1.2,2.5-1.7c0.3-0.2,0.6-0.2,1-0.2
		c0.5,0,0.8,0.3,0.9,0.7c0.4,1.2,0.2,2.4-0.6,3.4c-0.3,0.5-0.6,0.8-0.9,1.2c-0.6,0.6-1.3,1.4-1.9,1.9l0,0c-0.5,0.6-0.9,1-1.5,1.4
		c-0.9,0.6-1.8,1.1-2.9,1.6c-0.4,0.1-0.6,0.2-0.9,0.4c-0.3,0.2-0.6,0.4-0.6,0.7c-0.4,1.5-1.2,2.8-1.7,4.2c-0.1,0.4,0.2,0.7,0.5,0.6
		l1.5-0.3l0,0c0.4-0.1,0.7,0.1,1,0.4c0.3,0.3,0.4,0.6,0.4,1c-0.1,0.6-0.3,1.3-0.5,1.9c-0.1,0.3-0.2,0.5-0.4,0.6
		c-1.3,1.2-2.3,2.7-3.7,4c-0.7,0.7-1.7,1.1-2.8,1.1c-0.5-0.1-0.8,0.2-1.1,0.6c-0.9,1.6-1.7,3-2.7,4.7c-0.2,0.3-0.3,0.6-0.4,0.9
		c-0.2,0.5-0.1,1,0.3,1.5c0.6,0.7,1.3,1.6,1.9,2.3l0,0c2.1,2.4,4.1,5,5.9,7.7c0.6,0.7,1.1,1.5,1.7,2.2c0.3,0.3,0.6,0.5,0.8,0.6
		c0.3-0.4,0.5-0.6,0.6-0.8l0,0c0.2-0.3,0.2-0.6-0.1-0.9c-0.1,0-0.4-0.1-0.4-0.3c-1.4-1.9-2-4.3-1.9-6.7c0-0.8,0.5-1.7,1.2-2.1
		c0.4-0.3,0.8-0.4,1.2-0.2c1.6,0.5,2.9,1.5,4,2.8c0.2,0.2,0.5,0.2,0.6,0c0.1-0.1,0.2-0.3,0.3-0.4c0.4-0.8,0.7-1.7,1.1-2.5
		c-0.1-0.2-0.1-0.4-0.3-0.6c-0.6-0.5-1.1-1-1.6-1.7c-0.5-1-0.8-2-1-3.1c-0.2-1.1-0.4-2.3-0.4-3.4c-0.1-0.6,0.1-1.2,0.6-1.7
		c0.4-0.5,0.9-0.8,1.5-0.8c0.6-0.1,1.2,0.2,1.7,0.6c0.8,0.9,1.7,1.9,2.5,2.9c0,0,0.3,0,0.3-0.2l0,0c0.6-1.1,1.1-2.3,1.5-3.5
		c0.3-1.4,0.7-2.7,1.3-4c0.2-0.4,0.2-0.8-0.1-1.2c-0.4-0.6-0.6-1.2-0.9-1.7c-1.1-2.2-1.4-4.8-0.8-7.2c0.2-0.6,0.4-1.1,0.7-1.7
		c0.5-0.7,1.4-1.1,2.2-0.8c0.3,0.1,0.5,0.2,0.6,0.4c0.4,0.5,0.6,1,0.9,1.6c0.2,0.2,0.5,0.2,0.6,0c0.2-0.4,0.4-0.7,0.6-1.1
		c0.5-1.7,0.9-3.6,1.5-5.5c-0.5-0.7-0.9-1.6-1.5-2.3c-0.6-0.8-0.9-1.8-1-2.8c0-1-0.3-1.9-0.4-3c-0.1-0.9-0.1-1.8,0.2-2.8
		c0.4-1.6,1.8-2.6,3.4-2.4c0.4,0.1,0.6,0.3,0.8,0.5c0.3,0.5,0.5,0.9,0.7,1.4c0,0.2,0.6,0.3,0.6,0.1c0.8-1,1-2.4,0.6-3.6
		c-0.6-1.7-0.7-3.3-0.7-5.1c0-0.8,0.3-1.5,0.4-2.3l0,0c0-0.1,0-0.2,0-0.3c0.2-0.6,0.6-1,1.3-1.2c0.6-0.1,1.4,0.2,1.8,0.7
		c0.2,0.2,0.3,0.5,0.4,0.6c0.6,2.5,0.6,5.1,0.2,7.5c0,0.2-0.1,0.4-0.1,0.6c-0.3,1.3-0.6,2.6-1.1,3.8c-0.5,1.4-0.8,2.8-1.1,4.3v0.3
		c0,0,0.4,0,0.5,0l1.6-1.5l0.6-0.6c0.6-0.4,1.5-0.2,1.9,0.4c0.6,0.9,0.8,2.1,0.5,3.2c-0.2,0.6-0.4,1.1-0.6,1.7l0,0
		c-0.9,2.6-2.5,5-4.4,6.8c-0.2,0.2-0.5,0.3-0.6,0.3s-0.4-0.1-0.5-0.2c-0.1-0.2-0.1-0.3,0-0.5c0-0.2,0.1-0.3,0.2-0.5
		c1-1.4,1.8-2.8,2.6-4.4c0.5-0.8,0.8-1.7,0.9-2.7c0-0.1-0.1-0.3-0.3-0.4c-0.1-0.1-0.3,0-0.5,0c-0.1,0-0.1,0.1-0.2,0.2l0,0
		c-1.2,1.5-2.3,3.1-3.1,5c-0.3,0.5-0.6,0.8-0.7,1.3c-0.3,0.5-0.5,0.9-0.6,1.4c-0.6,2.5-1.2,5-1.9,7.4c-0.2,0.6-0.4,1.3-0.5,1.9
		c0,0.1,0.1,0.3,0.2,0.4c0.1,0.1,0.2,0,0.3,0l0,0c0.7-0.4,1.5-0.8,2.1-1.5c1-0.8,1.9-1.6,2.9-2.4c0.3-0.2,0.6-0.3,0.9-0.2
		s0.5,0.2,0.6,0.4c0.1,0.2,0.1,0.4,0,0.5c0,1.4-0.4,2.7-0.9,4c-1,2-2.4,4-4,5.6c-0.3,0.3-0.6,0.6-1,0.8c-0.8,0.8-2,1-3,0.6
		c-0.2-0.1-0.5-0.1-0.6,0c-0.2,0.1-0.3,0.3-0.4,0.5c-0.6,1.7-1.2,3.4-1.9,5c-0.2,0.4-0.3,0.7-0.5,1.2c-0.1,0.4,0,0.7,0.2,1h-0.1
		L355.4,110.1z M277.5,112.1L277.5,112.1l0.5,0.9l0,0c0.6,0.6,1.2,1.2,1.9,1.7c0.1,0,0.2,0,0.3,0c0.1-0.1,0.1-0.1,0.1-0.2
		c0-0.1,0-0.2-0.1-0.2c-0.6-0.5-1-0.9-1.6-1.3c-0.1,0-0.5,0-0.6,0.1C278.1,112.7,277.7,112.4,277.5,112.1z M303.4,41.3
		c0.3-0.1,0.6,0,0.7-0.4c0.2-0.4,0.6,0,0.6-0.3c0.9-1.1,1.9-2.1,2.8-3.2l0,0c0.2-0.3,0.4-0.6,0.6-0.8c0.2-0.3,0.1-0.7-0.1-0.9
		c-0.2,0.1-0.5,0.2-0.6,0.4c-1.1,1.3-2.2,2.8-3.1,4.2c0,0.3,0,0.5,0,0.7L303.4,41.3c0.2,0.1,0.3,0.1,0.1,0.2L303.4,41.3z
		 M293.7,75.7c-0.3,0.4-0.9,0.5-0.6,1.1l0,0c-0.3-0.1-0.5,0-0.6,0.3c-0.3,0.3-0.4,0.7-0.7,0.9c0,0.5-0.4,0.9-0.1,1.5
		c-0.3-0.1-0.4,0-0.5,0.3l0,0c0,0.1,0,0.1,0.1,0.2c0.1,0,0.1,0,0.2,0c0.1-0.1,0.1-0.3,0.1-0.4c0.6-0.5,0.4-0.9,0.1-1.5
		c0.3,0,0.6,0.2,0.7,0c0.3-0.2,0.5-0.5,0.6-0.7c0-0.2,0-0.3,0-0.5c0.2-0.2,0.3-0.4,0.5-0.6C293.5,76.1,293.6,75.9,293.7,75.7
		C293.8,75.6,293.5,75.7,293.7,75.7L293.7,75.7z M380.9,168.8c0.5,0,1,0.3,1.2-0.4c0.5,0,0.9-0.2,1.3-0.5c0.2,0,0.3-0.4,0.2-0.6
		c0.3,0,0.5,0,0.2-0.3c-0.3-0.3-0.2,0.2-0.1,0.3c-0.9,0-1.3,0.3-1.6,1C381.5,168.3,381.2,168.6,380.9,168.8L380.9,168.8L380.9,168.8
		z M395.3,167.7l-0.4,0.2c-0.3,0-0.3,0.2,0,0.3c0.3,0.1,0.2,0,0.2,0l0,0C395.2,168.1,395.2,168,395.3,167.7L395.3,167.7L395.3,167.7
		z M352,65.2c-0.4,0.6-0.3,1.2,0.1,1.7l-0.7-0.3c-0.2,0.1-0.3,0.2-0.5,0.3c-1.3,1.3-2.3,2.9-2.9,4.7c-0.1,0.3-0.2,0.6-0.3,1
		c0,0.1,0.1,0.2,0.1,0.2c0.1,0,0.4,0.1,0.5,0c0.4-0.3,0.6-0.6,0.8-0.9c0.8-1.5,1.6-2.9,2.4-4.4c0.2-0.2,0.3-0.4,0.5-0.6
		c0-0.3,0-0.5,0-0.7C352.1,65.7,352.1,65.5,352,65.2L352,65.2z M340.2,85.5c0-0.4,0.1-0.9-0.4-1.2c0-0.5,0-1-0.1-1.5
		c-0.1-0.2-0.2-0.3-0.4-0.3c-0.2,0-0.3,0.1-0.3,0.3c0.1,0.4,0.2,0.7,0.4,1.2c0,0.1,0.3,0.2,0.4,0.3C340,84.7,340.2,85,340.2,85.5z
		 M336.9,46.3l0.6-0.2c0.1,0,0.1-0.1,0.1-0.2c0-0.1,0-0.2,0-0.2c0-0.1-0.2-0.1-0.3,0.1C337.3,46,337.2,46.3,336.9,46.3L336.9,46.3
		c0.1,0.3,0.1,0.5,0.1,0.6c0,0.2,0.2,0.3,0.3,0c0-0.1,0-0.2,0-0.3L336.9,46.3z M372.6,162.9c0.6-0.2,0.5-0.7,0.6-1.2s0-0.3-0.3-0.3
		l0,0c-0.1,0-0.2,0.1-0.2,0.1c-0.3,0.3-0.4,0.6-0.4,1.1c-0.3,0.2-0.6,0.4-0.7,0.6l0,0c-0.2,0.2-0.2,0.5,0,0.6
		c0.1,0.1,0.2,0.1,0.4,0.1c0.1,0,0.2-0.1,0.3-0.2C372.4,163.5,372.5,163.2,372.6,162.9z M374.1,119.6c0.8-0.6,1.5-1.5,1.8-2.4
		c0.2-0.4,0.1-0.7-0.2-1c-0.7,0.8-1.3,1.7-1.7,2.8C374,119.1,374,119.4,374.1,119.6c-0.1-0.1-0.3-0.3-0.4,0.1L374.1,119.6z
		 M266.2,110.6L266.2,110.6l-1.8-1.6l0,0c-0.7-0.6-1.7-1-2.6-1.2c-0.1,0-0.3,0.1-0.5,0.2c-0.2,0.1,0,0.2,0,0.2
		c0.9,1.3,2.3,2.3,3.8,2.7C265.6,110.9,266,110.8,266.2,110.6z M316.5,56.8c-0.4-0.1-0.6-0.1-1,0c-1.7,0.6-3.4,1.7-4.7,3
		c0,0.1,0,0.1,0,0.2s0.3,0.3,0.4,0.3c0.5,0,0.8-0.1,1.2-0.3c1.4-0.7,2.8-1.7,4-2.8C316.4,57.1,316.5,56.9,316.5,56.8L316.5,56.8z
		 M327.9,67.3L327.9,67.3c0.4,0.2,0.8,0.2,1.2,0c0.3-0.1,0.6-0.3,0.9-0.5c1-0.8,2.1-1.7,3.3-2.3c0.4-0.3,0.7-0.6,1.1-1v-0.4
		c-0.1-0.1-0.1-0.1-0.2-0.1c-0.7,0.1-1.4,0.4-1.9,0.8c-1.4,1-2.8,2.2-4,3.4C328.1,67.2,328,67.2,327.9,67.3c0.3-0.1,0.3-0.1,0.2,0
		H327.9z M355,114.6c0.9-0.7,1.9-1.4,2.8-2.1c0.8-0.7,1.5-1.4,2.1-2.1l0,0c0.1-0.2,0.1-0.3,0-0.5c-0.2-0.2-0.4-0.3-0.6-0.4
		c-0.3,0-0.5,0.1-0.6,0.3c-1.5,1-2.7,2.3-3.6,3.8C354.9,113.9,354.9,114.2,355,114.6c-0.6-0.1-1.1-0.1-1.7-0.1
		c-0.2,0-0.3,0.1-0.4,0.2c-0.1,0.1-0.1,0.3,0,0.5C353.7,115.3,354.3,114.5,355,114.6z M335.1,131.4c0,0.1-0.2,0.3-0.3,0.4
		c-0.1,0.1,0,0.1,0,0.1C335.1,131.9,335,131.6,335.1,131.4L335.1,131.4c-0.4,0-0.7-0.2-0.9-0.4c-1.5-1.4-3.3-2.3-5.3-2.7
		c-0.1,0-0.3,0-0.4,0.2c-0.1,0.2,0,0.2,0,0.3l0,0c0.4,0.5,0.7,0.9,1.2,1.3C331.1,131.4,333.1,132,335.1,131.4L335.1,131.4z
		 M304.7,137.9c-1.9,1.1-4,1.9-6,2.7c-0.3,0.1-0.6,0.3-0.8,0.5c-0.2,0.1-0.3,0.3-0.1,0.5c0.1,0.2,0.2,0.3,0.4,0.4l0,0
		c0.3,0.1,0.6,0.2,1,0.1c2.1-0.5,4-1.6,5.4-3.1C304.6,138.5,304.7,138.1,304.7,137.9L304.7,137.9L304.7,137.9z M299.9,115.2
		c-0.3,0.2-0.4,0.6-0.3,0.8c0.1,0.3,0.3,0.4,0.6,0.4c0.1,0,0.1,0,0.2-0.1c0-0.2-0.1-0.3-0.1-0.5C300.1,115.5,300,115.4,299.9,115.2
		s-0.7-0.5-1.1-0.6c-1.7-1.2-3.6-2.2-5.5-3c-0.4-0.2-0.8-0.2-1.2,0c-0.1,0-0.2,0.1-0.2,0.2c0,0.1,0,0.2,0,0.3
		c0.2,0.3,0.4,0.6,0.6,0.7c0.7,0.6,1.6,1,2.3,1.5l0,0c1.3,0.8,2.8,1.2,4.3,1.2C299.4,115.4,299.7,115.3,299.9,115.2z M312.6,118.1
		c-2.8,1.4-5.2,3.1-7.4,5.2c0,0,0,0.2-0.1,0.2l0,0c-0.1,0.1-0.1,0.3,0,0.4c0.1,0.1,0.2,0.2,0.3,0.3c0.3,0.1,0.5,0.2,0.7,0.2
		c1-0.2,1.9-0.5,2.8-1c1.1-0.6,2.1-1.4,3-2.3c0.2-0.3,0.5-0.6,0.6-0.8c0.4-0.5,0.5-1.1,0.4-1.7C312.9,118.5,312.7,118.3,312.6,118.1
		z M301.9,97.3c1.3,0.1,2.6-0.5,3.5-1.5c0.4-0.3,0.4-0.8,0.1-1.2c-0.3-0.4-0.4-0.7-0.4-1.2v-1.9c0-0.2-0.1-0.4-0.3-0.4
		c-0.2,0-0.4,0-0.5,0c0,0-0.2,0-0.2,0.1l-3,4.3c-0.1,0.2-0.2,0.5-0.3,0.7c0,0.3,0.1,0.5,0.3,0.6L301.9,97.3z M330.3,159.8
		c0.9,0.1,1.8-0.1,2.7-0.5c1.5-0.7,2.8-1.4,4.3-2.1l0,0c0.2-0.1,0.4-0.3,0.4-0.5c0-0.2-0.1-0.4-0.4-0.5c-0.7-0.6-1.7-0.8-2.6-0.9
		c-0.3,0-0.5,0.2-0.6,0.4c-0.2,0.6-0.6,1-1.2,1.2c-0.4,0.1-0.6,0.3-0.9,0.5c-0.9,0.5-1.7,1-2.6,1.7c-0.1,0.1,0,0.6,0.1,0.6
		L330.3,159.8z M418,123l-0.2-0.2l0,0c-0.4,0.1-0.6,0.1-0.9,0.3c-1.2,0.6-2.4,1.2-3.7,1.7c-0.9,0.3-1.7,0.6-2.6,1.2
		c-0.6,0.4-1.3,0.8-1.7,1.5c-0.1,0.2-0.1,0.3,0,0.5s0.2,0.3,0.4,0.3c0.6,0.1,1.2,0,1.7-0.3l2.6-1.2c1.4-0.6,2.8-1.5,4-2.4
		c0.2-0.2,0.4-0.4,0.5-0.6C418,123.5,418,123.3,418,123L418,123z M278.1,55.2c-0.1-0.2-0.3-0.4-0.4-0.6c-1-1.3-2.1-2.7-3-4.1
		c-0.6-1.1-1.5-2.1-2.2-3.1c-0.2-0.2-0.3-0.4-0.5-0.6c-0.2-0.2-0.6-0.3-0.6,0c-0.1,0.3-0.1,0.3,0,0.5l0,0c0.7,2.8,2.2,5.4,4.4,7.4
		c0.6,0.5,1.3,0.8,2,0.9c0,0,0.1,0,0.2-0.1C278,55.4,278.1,55.3,278.1,55.2z M269.8,122.1c2.4-0.1,4.7-0.6,6.9-1.5
		c0.8-0.4,1.7-0.7,2.5-1.3c0.3-0.1,0.4-0.6,0.6-0.8c0.1-0.4-0.1-0.6-0.4-0.8c-0.3,0-0.5,0-0.7,0c-0.1,0-0.2,0.1-0.2,0.1
		c-0.9,0.9-2,1.6-3.3,1.7c-1.7,0.4-3.4,0.9-5.1,1.4l-0.9,0.3c-0.2,0-0.4,0.5-0.3,0.6l0,0c0.1,0.1,0.2,0.2,0.4,0.3
		C269.4,122.1,269.6,122.1,269.8,122.1z M287.9,48.9c0-0.1,0-0.2,0-0.3c0-0.6-0.4-1.3-0.9-1.7c-2-1.5-4-3.1-5.7-5
		c-0.6-0.6-1.3-1.1-2.1-1.4l-0.2,0.1l0,0c0.1,0.3,0.2,0.6,0.4,0.9c1.6,1.7,3,3.4,4.6,5.1l0,0c1,1,2.2,1.8,3.5,2.5
		c0.1,0.1,0.2,0.1,0.3,0C287.8,49.1,287.9,49,287.9,48.9z M412.3,161.8c1.3,0.5,2.6,0.4,3.9-0.2c0.2-0.2,0.2-0.5,0.1-0.6
		c-0.1-0.1-0.2-0.3-0.4-0.4c-1.4-0.6-2.7-1.4-3.8-2.5c-0.5-0.5-1.1-0.7-1.8-0.8c-0.2-0.1-0.5,0-0.6,0.2c-0.2,0.2-0.2,0.4-0.2,0.6
		c0.1,0.4,0.2,0.6,0.4,0.9C410.8,159.8,411.6,160.8,412.3,161.8z M369.1,134.5c0.2-0.1,0.4-0.1,0.6-0.3c0.7-0.6,1.5-1.4,2.1-2.1
		c0.6-0.6,0.9-1.4,1.3-2.1c0.1-0.3,0.2-0.6,0.1-1c0-0.5-0.4-0.9-0.6-0.9l0,0c-0.4,0-0.6,0.1-0.9,0.3c-0.2,0.1-0.4,0.3-0.6,0.5
		c-1.1,1.4-1.9,3-2.3,4.8v0.5l0,0C368.9,134.2,369,134.3,369.1,134.5z M327.1,153.5h0.2c0.1,0,0.2-0.1,0.2-0.1c0-0.1,0.1-0.4,0-0.5
		c-1.4-1.7-3.2-2.9-5.3-3.6c-0.2,0-0.4-0.1-0.5,0l0,0c-0.3,0.1-0.6,0.4-0.7,0.6c-0.1,0.2-0.1,0.5,0,0.6c0.3,0.4,0.6,0.7,1.1,1
		C323.5,152.7,325.2,153.3,327.1,153.5z M370.9,102.3c0.1,1.5,0.3,2.8,0.6,4.2c0.1,0.4,0.3,0.7,0.6,1.1c0,0.1,0.3,0.2,0.4,0.3
		c0.1,0.1,0.5-0.3,0.5-0.6c0.4-2.5,0-5.1-1-7.4c-0.1-0.1-0.2-0.2-0.4-0.3c-0.1,0-0.4,0.2-0.4,0.3C371.1,100.8,371,101.6,370.9,102.3
		z M328.4,41.8c-0.2,0-0.5-0.3-0.6-0.3l0,0c-1.3,0.6-2.5,1.4-3.5,2.4c-0.6,0.6-1.2,1-1.7,1.6c-0.6,0.6-0.7,0.9-1.1,1.4
		c-0.4,0.5-0.1,0.4,0,0.5c0.1,0,0.2,0,0.3,0c2.4-1,4.4-2.5,6.2-4.3c0.2-0.3,0.4-0.6,0.5-0.8C328.4,42,328.4,41.9,328.4,41.8z
		 M353.3,154.5c-0.1-0.3-0.2-0.6-0.3-0.6c-1.9-1.3-4-2.5-6-3.7c-0.2-0.1-0.5-0.2-0.7-0.3c-0.1,0-0.3,0.1-0.4,0.2
		c-0.1,0.1,0,0.2,0,0.3c0.3,0.6,0.6,1.2,1.2,1.6c0.8,1,1.9,1.7,3.2,1.9c0.4,0,0.7,0.5,1,0.6c0.3,0.2,0.6,0.3,0.9,0.3
		C352.6,154.7,353,154.6,353.3,154.5z M399.2,156.1c-0.3,0.6-0.4,1.2-0.1,1.7c0.1,0.4,0.3,0.7,0.6,1.1c1.1,1,2.8,1.3,4.2,0.6
		c0.1-0.1,0.2-0.3,0.3-0.4c0-0.2,0-0.4-0.1-0.5c-0.2-0.2-0.3-0.4-0.6-0.6C402.1,157.2,400.8,156.4,399.2,156.1z M307.1,110.6
		c0,0.1,0,0.2,0,0.3c1.7,2,4.1,3.3,6.7,4c0.1,0,0.2,0,0.3,0s0.2-0.1,0.2-0.2v-0.3c-0.8-0.9-1.8-1.7-2.9-2.3c-1.1-0.6-2.3-1-3.5-1.5
		C307.5,110.6,307.3,110.5,307.1,110.6L307.1,110.6z M314.6,79.5c0.4-0.1,0.6-0.4,0.7-0.7c0.3-1.5,0.6-2.9,0.7-4.4
		c0.1-0.7,0.1-1.5,0.1-2.3c0-0.3-0.1-0.5-0.2-0.7c0,0-0.1,0-0.2-0.1c-0.1-0.1-0.2,0-0.2,0c-0.6,1-1,2.1-1.2,3.3
		C313.9,76.2,314,77.9,314.6,79.5L314.6,79.5z M335.2,98.8c0-0.1,0-0.2,0-0.3c-0.2-2.2-1.2-4.2-2.7-5.9c0,0-0.1-0.1-0.2-0.1
		s-0.4,0-0.4,0.2l0,0c-0.1,0.1-0.2,0.3-0.1,0.5c0.4,2,1.3,4,2.5,5.7c0.1,0.1,0.1,0.1,0.2,0.2c0.2,0,0.4,0.2,0.5,0.1
		C335.1,99.1,335.1,98.9,335.2,98.8z M313.6,142.3c0.8,0.1,1.7-0.2,2.2-0.7c0.8-0.7,1.3-1.8,1.4-2.9c0-0.1-0.1-0.2-0.1-0.2
		c-0.2-0.1-0.3-0.1-0.5-0.1c-0.1,0-0.2,0-0.3,0c-0.7,0.6-1.6,1.3-2.3,1.9c-0.4,0.4-0.7,0.7-1,1.1c-0.1,0.2-0.1,0.4,0,0.5
		c0,0.1,0.3,0.2,0.4,0.2C313.6,142.2,313.6,142.4,313.6,142.3z M364,95.2c-0.1,0-0.1,0-0.2,0s-0.2,0-0.3,0c-1.5,1.3-2.8,2.7-4,4.2
		c-0.2,0.3-0.3,0.6-0.4,0.9c0,0.1,0.1,0.3,0.2,0.5c0.1,0.1,0.2,0,0.2,0c0.9-0.5,1.7-1.1,2.3-1.9c0.8-1,1.5-2.2,1.9-3.4
		C363.9,95.4,364,95.2,364,95.2z M344.4,116.6h-0.2l0,0c-0.1,0.5-0.1,1,0,1.5c0.2,0.8,0.5,1.6,0.8,2.4c0.2,0.3,0.4,0.6,0.6,0.7
		c0.2,0.1,0.7-0.3,0.9-0.6c0.2-0.3,0.3-0.6,0.2-0.9c-0.5-1.2-1.2-2.2-2.1-3C344.7,116.5,344.5,116.6,344.4,116.6L344.4,116.6z
		 M367.9,123c-0.1-1.2-0.4-2.3-0.6-3.4c-0.2-0.4-0.4-0.7-0.6-1h-0.3c-0.1,0-0.2,0-0.3,0.1c-0.1,0.1-0.1,0.1-0.1,0.2
		c0,0.1,0,0.2,0,0.3c-0.1,0.5-0.1,1,0,1.5c0.3,1.2,0.6,2.5,1.1,3.6c0,0,0.2,0.2,0.2,0.1c0,0,0.4-0.1,0.4-0.2l0,0
		C367.7,123.7,367.8,123.3,367.9,123z M292.2,120.9c0-0.1,0-0.1,0-0.2c-0.1,0-0.2,0-0.3,0c-1.8,0.3-3.7,0.8-5.3,1.7
		c-0.2,0.1-0.3,0.2-0.4,0.4c-0.1,0.2-0.1,0.3,0,0.5s0.2,0.3,0.4,0.3c2-0.1,4-0.8,5.5-2.3C292.2,121,292.2,121,292.2,120.9z
		 M301.1,131.1h-0.7c-0.1,0-0.1,0.1-0.1,0.2s0,0.2,0,0.3c1.4,1.3,3.1,2,5,2.3c0.1-0.1,0.2-0.2,0.3-0.4c0-0.4-0.3-0.7-0.6-0.9
		C303.7,131.6,302.3,131.1,301.1,131.1z M285.7,24.1V26c0,0.1,0.2,0.2,0.3,0.3c0.1,0.1,0.3-0.2,0.3-0.4l0,0c0.5-1.4,0.8-2.8,1.1-4.1
		c0-0.5,0-0.8,0-1.3c0-0.2-0.1-0.3-0.2-0.5c-0.1-0.1-0.3-0.2-0.5-0.2c-0.1,0-0.2,0.1-0.2,0.2C286,21.4,285.7,22.7,285.7,24.1z
		 M405.9,152.8c0,0,0.2,0.1,0.2,0l4.7-1.7l0,0c0.5-0.2,0.9-0.6,1.2-0.9c0.1-0.2,0.1-0.3,0-0.5c-0.1-0.1-0.3-0.2-0.5-0.2
		c-2.1,0.4-4.1,1.5-5.7,3C405.8,152.5,405.9,152.7,405.9,152.8z M364.1,148.9L364.1,148.9c1.2-1,2-2.4,2.4-4c0.1-0.2,0.1-0.4,0-0.5
		s-0.2-0.3-0.4-0.3c-0.1,0-0.2,0-0.3,0c-0.4,0.4-0.7,0.7-1,1.1c-0.6,1.1-1.1,2.3-1.3,3.5c0,0,0,0.2,0.1,0.2
		C363.9,149,363.9,148.8,364.1,148.9L364.1,148.9z M290,68.1c0,0.7,0.3,1.4,0.6,1.9c0.2,0.3,0.5,0.4,0.7,0.4c0.3,0,0.6-0.1,0.8-0.3
		c0.1-0.1,0.2-0.4,0.2-0.5c-0.4-1.1-0.8-2.2-1.2-3.3c-0.1-0.1-0.2-0.3-0.4-0.3c-0.2,0-0.3,0.1-0.4,0.2
		C290.3,66.9,290.2,67.6,290,68.1z M308.9,54.2v-1.6v-1c0-0.4-0.3-0.6-0.4-0.5c-0.2,0.1-0.3,0.2-0.4,0.4c-0.5,1.8-0.6,3.7-0.3,5.5
		c0,0,0.2,0.3,0.3,0.3c0.2,0,0.4-0.1,0.5-0.2c0.1-0.1,0.2-0.3,0.3-0.5C308.9,55.9,308.9,55.1,308.9,54.2z M361,71.3
		c-0.2,1.8,0,3.7,0.6,5.4c0.2,0,0.4-0.1,0.6-0.2c0.1-0.1,0.2-0.3,0.2-0.5c0.1-1.6-0.2-3.1-0.7-4.6C361.4,71.4,361.2,71.4,361,71.3z
		 M417.5,98.4l-0.7,4.7c0,0.3,0,0.5,0,0.7c0,0.1,0.2,0.2,0.3,0.3l0,0c0.1,0,0.2,0,0.2,0c0.9-1.7,1.2-3.5,0.8-5.3
		C418,98.4,417.8,98.4,417.5,98.4z M325.7,58.5c0,0.7,0,1.5,0.1,2.1l0.1,0.1c0,0,0.4,0,0.4-0.2c0.5-1.5,0.6-2.9,0.7-4.5
		c0-0.3,0-0.5,0-0.7c0-0.1-0.1-0.1-0.2-0.1h-0.3C326,56.2,325.7,57.3,325.7,58.5z M287.7,95.5H287c-0.6,0.1-1.1,0.4-1.2,1.1
		c-0.1,0.5-0.3,0.8-0.6,1c-0.4,0.3-0.7,0.6-1.1,1v0.3c0,0,0.3,0.2,0.4,0.1c0.6,0,1.4-0.3,1.7-0.8c0.5-0.8,1.3-1.3,1.8-1.9l0,0
		c0.1-0.2,0.1-0.3,0-0.5C288.1,95.7,287.9,95.6,287.7,95.5z M315.2,131L315.2,131c0,0.1,0,0.2,0,0.3c1.1,1.1,2.5,1.8,4,2.2h0.5
		c0,0,0.2,0,0.2-0.2c0-0.2,0-0.4,0-0.5c-1.2-1.1-2.7-1.7-4.2-1.9C315.4,130.7,315.3,130.9,315.2,131L315.2,131z M342.8,134.5
		c-0.1-0.4-0.2-0.6-0.4-0.9c0-0.1-0.1-0.2-0.3-0.3c-0.1,0-0.3,0-0.4,0c-0.6,0.4-0.9,0.9-1.2,1.6c-0.2,0.6,0.1,1.2,0.6,1.5
		c0.2,0.2,0.5,0.2,0.7,0.1c0.3-0.1,0.5-0.3,0.5-0.6C342.6,135.4,342.7,134.9,342.8,134.5z M339.1,153.4L339.1,153.4
		c-0.1-0.2-0.2-0.3-0.3-0.4c-1.1-1.1-2.3-1.9-3.7-2.7c-0.1,0-0.2,0-0.3,0c-0.1,0-0.1,0.1-0.2,0.2c0,0.1,0,0.2,0,0.3
		c1,1.3,2.3,2.3,3.8,2.9c0.1,0,0.2,0,0.3,0c0.1,0,0.2,0,0.2,0C339,153.8,339.1,153.5,339.1,153.4L339.1,153.4z M299.8,89.1
		c-0.3-0.3-0.4-0.6-0.6-0.7c-1.1-0.6-2.3-1.1-3.4-1.7c0,0-0.3,0.1-0.4,0.2c0,0.1,0,0.2,0,0.3c1.1,1.2,2.6,1.9,4.2,2.1
		C299.4,89.3,299.6,89.2,299.8,89.1z M346.6,45.2c-0.3,1.6-0.2,3.2,0.5,4.7c0,0,0.1,0.1,0.2,0.2c0.1,0.1,0.2,0,0.2,0
		s0.4-0.1,0.4-0.3l0,0c0.2-0.8,0.1-1.7-0.3-2.5C347.4,46.7,347.4,45.8,346.6,45.2z M297.3,44c0.1-0.1,0.3-0.2,0.4-0.3
		c0.5-1.1,0.6-2.2,0.4-3.4c0-0.4-0.1-0.6-0.3-0.9c0-0.2-0.4-0.3-0.6-0.5C296.9,40.6,296.9,42.4,297.3,44L297.3,44z M270.1,93.7v-0.3
		l0,0c-0.6-1-1.4-1.9-2.3-2.8h-0.5c-0.1,0-0.1,0.1-0.2,0.2c-0.2,0.6,0,1.2,0.4,1.7c0.5,0.6,1.2,1.1,2,1.4c0.1,0,0.2,0,0.3,0
		C269.9,93.9,270.1,93.8,270.1,93.7z M349.4,83c0,0-0.1-0.2-0.2-0.2l0,0c-0.1,0-0.2,0-0.3,0c-1.2,1-2.3,2.2-3.1,3.6v0.5
		c0,0.2,0.4,0,0.5,0l0,0c1.1-0.9,2-1.9,2.8-3.1C349.2,83.5,349.3,83.2,349.4,83z M317.1,41.2c-0.3,0.4-0.1,0.8-0.2,1.2
		c-0.2,1.7-0.5,3.5-1,5.2c0,0.1,0,0.2,0,0.3s0.1,0.2,0.1,0.2c0.1,0.2,0.2,0.1,0.4,0l0,0c0.5-1.2,0.8-2.5,0.9-3.8
		c0.1-0.9,0.1-1.8,0-2.8C317.4,41.5,317.2,41.4,317.1,41.2z M376.3,146.2c0,0.2-0.3,0.5-0.2,0.6c0.3,1,1,1.7,1.9,2.1
		c0.3,0.1,0.5,0.1,0.7,0c0.1-0.1,0.3-0.2,0.3-0.4c0.1-0.4-0.1-0.6-0.4-0.9C378,147.1,377.1,146.6,376.3,146.2z M411.5,136.8
		c0.5,0.1,0.8-0.1,1.2-0.4c0.8-0.6,1.5-1.5,1.9-2.3c0-0.1,0-0.2,0-0.3c0-0.2-0.2-0.3-0.4-0.2c-1.2,0.7-2.2,1.7-2.9,2.8
		c0,0.1,0,0.2,0,0.2C411.4,136.7,411.5,136.8,411.5,136.8L411.5,136.8z M346.9,161.8L346.9,161.8c0.3-0.1,0.6-0.2,0.8-0.4
		c0.9-0.6,1.7-1.6,2.3-2.5c0.1-0.2,0.1-0.3,0.1-0.5c0-0.2,0-0.4-0.1-0.5s-0.3-0.1-0.5,0c-0.9,1-1.9,2.1-2.8,3.2v0.4
		c0,0.1,0.2,0.1,0.4,0.2H346.9z M319.4,106.7L319.4,106.7c-0.1,0-0.2,0-0.2,0v0.2c1,1.3,2.5,2,4,2.2h0.3c0.1,0,0-0.2,0-0.4
		c-0.1-0.1-0.3-0.3-0.4-0.4l-3.3-1.7l0,0h-0.1L319.4,106.7z M413.8,140.8c-0.5,0-0.9,0-1.3,0.2v0.2l0,0c0,0.1,0,0.2,0,0.3
		c0.6,0.6,1.2,0.9,1.9,1c0.3,0.1,0.5,0.1,0.7,0c0.2-0.1,0.4-0.3,0.5-0.6c0.1-0.3-0.2-0.7-0.5-0.8c-0.3-0.1-0.8-0.3-1.2-0.4
		L413.8,140.8z M363.3,135.6c-0.1-0.6-0.3-1.4-0.6-2.1l0,0c-0.1-0.3-0.2-0.5-0.4-0.6c-0.1-0.1-0.3-0.1-0.5,0c0,0,0,0.1-0.1,0.2l0,0
		c-0.2,1.2,0.2,2.4,0.9,3.2c0,0.1,0.3,0.1,0.4,0.1s0.1-0.1,0.1-0.2C363.3,136.1,363.3,135.9,363.3,135.6z M284.1,64.7
		c0.2-0.1,0.3-0.2,0.4-0.3c0.6-0.9,1.3-1.9,1.7-3c0-0.2,0-0.3-0.1-0.4c-0.2,0-0.3,0-0.5,0.1c-0.6,0.7-1.2,1.6-1.6,2.5
		c-0.1,0.3-0.3,0.6-0.1,0.9C284,64.6,284,64.7,284.1,64.7z M329.3,138.4c0,0,0,0.2,0.2,0.2l0,0c0.1,0,0.2,0,0.3,0
		c0.9-0.4,1.6-1.1,1.9-1.9c0-0.2,0-0.4,0-0.5c0,0-0.1-0.1-0.2-0.2c-0.2-0.1-0.5-0.2-0.7-0.1c-0.3,0.1-0.5,0.3-0.6,0.5
		c-0.3,0.6-0.6,1-0.8,1.6l0,0C329.4,138,329.4,138.2,329.3,138.4z M383.3,150.2c0.1,0,0.4,0,0.4-0.1c0.2-0.3,0.3-0.6,0.3-0.9
		c0-1.3-0.1-2.6-0.3-3.8c0-0.2,0-0.5-0.4-0.4l0,0C383,146.6,383,148.4,383.3,150.2z M400.2,149.6c0,0,0-0.2-0.1-0.2l0,0
		c-0.1,0-0.2,0-0.2,0c-1.2,0.5-2.2,1.3-3,2.3c0,0.1,0,0.1,0,0.2c0,0.2,0.3,0.3,0.5,0.2l2.7-1.9C400,149.9,400.1,149.7,400.2,149.6
		L400.2,149.6z M343.4,68c0-0.9,0-1.8-0.1-2.7c0-0.2-0.2-0.3-0.4-0.2c-0.2,0.1-0.2,0.1-0.2,0.2C342.5,66.3,342.5,66.5,343.4,68
		L343.4,68z M273,62.2h0.5c0.7-0.4,1.5-0.8,2.1-1.2l0,0c0.1-0.1,0.2-0.3,0.3-0.4c0,0-0.1-0.2-0.2-0.2l0,0c-1.1,0.2-2.1,0.6-2.8,1.5
		c0,0-0.1,0.2,0,0.2C273.1,62.2,273,62.2,273,62.2z M402.9,122.3c0,0-0.1,0.1-0.1,0.2c0.3,1,0.8,2,1.7,2.7c0,0.1,0.1,0.1,0.2,0.1
		c0.1,0,0.2-0.1,0.2-0.1c0-0.1,0-0.2,0-0.2C404.3,124.1,403.7,123.2,402.9,122.3L402.9,122.3z M422.5,132.6h0.3l0,0
		c0.9-0.4,1.7-1.1,2.1-1.9v-0.2c0,0-0.3-0.2-0.4-0.2c-0.9,0.3-1.7,1-2.1,1.9c0,0.1,0,0.2,0,0.2C422.4,132.5,422.4,132.5,422.5,132.6
		L422.5,132.6z M340.4,99.6c0,0-0.1-0.2-0.2-0.2c-0.8,0.4-1.5,1.1-1.7,1.9c0,0.1,0,0.1,0,0.2c0.1,0,0.1,0,0.2,0
		C339.5,101.2,340,100.5,340.4,99.6z M417.9,113.9c0,0,0-0.2-0.1-0.2s-0.2,0-0.2,0c-0.7,0.6-1.3,1.3-1.7,2.2v0.2l0,0
		c0.1,0,0.1,0,0.2,0c0.7-0.5,1.3-1.2,1.7-1.9C417.8,114.2,417.9,114,417.9,113.9L417.9,113.9z M409.9,116.3c0.3-1.5,0.3-1.5-0.6-3.6
		C409.1,113.6,409.1,113.6,409.9,116.3z M349.7,106.1c-0.1,0-0.2,0-0.2,0c-0.1,0.1-0.1,0.1-0.1,0.2l0.4,2.2h0.2c0.1,0,0.2,0,0.2-0.1
		s0.3-0.5,0.3-0.6l0,0c-0.1-0.6-0.3-1.1-0.5-1.7C349.8,106,349.8,106.1,349.7,106.1z M423,153.9c-0.3,0-0.6-0.2-0.7-0.1
		c-0.6,0.2-1.2,0.5-1.7,0.9c-0.1,0-0.1,0.1-0.1,0.2c0,0,0,0.2,0.1,0.2l0,0C421.4,154.9,422.3,154.5,423,153.9z M383.8,173.6
		c0.1,0.1,0.2,0.3,0.3,0.4c0.6,0.4,1.4,0.6,2.1,0.5c0.1,0,0.2-0.1,0.2-0.1v-0.3c-0.6-0.4-1.4-0.5-2.2-0.5
		C384,173.6,383.8,173.6,383.8,173.6z M379.3,136.4c0-0.4-0.1-0.6-0.1-1c0-0.3-0.2-0.6-0.6-0.6c-0.4-0.1-0.5,0.3-0.5,0.6l0,0
		c-0.1,0.6,0.2,1.3,0.6,1.7c0.1,0,0.2,0,0.3,0c0.1,0,0.1-0.1,0.1-0.2L379.3,136.4z M395.1,131.4c0.6-0.7,0.9-1.6,0.9-2.5
		c0-0.1-0.1-0.3-0.2-0.4c-0.1-0.1-0.2,0-0.2,0.1c-0.3,0.6-0.5,1.3-0.6,1.9C394.9,130.8,395.1,131.1,395.1,131.4z M348.6,124.4
		c0.6,0.1,1-0.3,1.1-0.7c0.1-0.1,0.1-0.3,0-0.5l-0.4-0.2c-0.4,0.2-0.6,0.5-1,0.6c-0.1,0.2-0.1,0.3,0,0.5
		C348.2,124.4,348.5,124.4,348.6,124.4z M301.7,61.8c0-0.4-0.1-0.6-0.2-1l0,0c-0.1,0-0.1,0-0.2,0c0,0-0.2,0-0.2,0.1
		c-0.3,0.6-0.5,1.3,0,1.9h0.3l0,0C301.5,62.5,301.6,62.2,301.7,61.8L301.7,61.8z M276.1,73.5c-0.5-0.3-1-0.4-1.6-0.3
		c-0.1,0-0.2,0.1-0.2,0.1s0.1,0.2,0.2,0.2C274.9,73.5,275.4,73.5,276.1,73.5z M291.2,35.9v-0.2V35.9L291.2,35.9L291.2,35.9z
		 M350.7,110.9L350.7,110.9L350.7,110.9L350.7,110.9z"/>
</g>
</svg>
