<svg width="134" height="181" viewBox="0 0 134 181" fill="none" xmlns="http://www.w3.org/2000/svg">
<path fill-rule="evenodd" clip-rule="evenodd" d="M50.4435 1.27046C50.4435 12.2908 52.81 17.164 54.9704 21.1359C56.3073 23.5937 57.5877 25.6773 58.0836 28.8006C58.3823 30.6451 58.4011 32.8505 58.027 35.7069C57.3078 41.1722 57.2324 45.6033 57.4296 49.5403C57.7936 56.8846 59.1406 62.4831 59.0188 69.9507C58.9434 74.2994 58.3649 80.5505 57.6253 86.9883C56.4189 97.4504 54.7833 108.4 54.1931 112.52C52.4357 124.866 50.304 139.452 47.8447 152.985C46.0496 162.832 44.0948 172.122 41.9723 179.576C41.8316 180.073 42.1216 180.59 42.6175 180.732C43.1134 180.872 43.6268 180.584 43.7674 180.088C45.9091 172.584 47.8826 163.233 49.6863 153.321C52.1455 139.764 54.277 125.154 56.0447 112.785C56.6349 108.654 58.2705 97.6842 59.4769 87.2006C60.2338 80.6945 60.8139 74.3751 60.8892 69.98C61.011 62.4675 59.664 56.8341 59.2986 49.4463C59.1028 45.6051 59.1782 41.2828 59.8887 35.9496C60.2903 32.8712 60.2526 30.4933 59.9351 28.5036C59.3928 25.141 58.0559 22.8847 56.616 20.2398C54.5483 16.4479 52.3137 11.7904 52.3137 1.2693C52.3137 0.753101 51.8932 0.334045 51.3784 0.334045C50.855 0.334045 50.4432 0.753101 50.4432 1.2693L50.4435 1.27046Z" fill="#B68176"/>
<path fill-rule="evenodd" clip-rule="evenodd" d="M97.4048 25.6883C97.9196 30.4227 97.573 33.6258 96.6856 35.9429C95.6097 38.7705 93.7391 40.2263 91.841 41.5923C89.5963 43.2149 87.3431 44.7301 85.9785 47.7057C84.875 50.1113 84.4255 53.0344 83.9021 56.2275C83.2945 59.957 82.5463 64.0722 80.2828 68.1105C78.3949 71.4674 75.4486 74.7663 70.6519 77.7534C67.2211 79.8936 63.8818 83.1982 61.1048 87.969C58.2439 92.8774 55.9717 99.3531 54.8028 107.723C54.7274 108.235 55.0827 108.707 55.5974 108.778C56.1107 108.849 56.5791 108.494 56.6531 107.982C57.5608 101.483 59.15 96.1631 61.1699 91.8638C64.0322 85.7823 67.7633 81.7599 71.6435 79.3415C76.768 76.15 79.8999 72.6119 81.9111 69.0275C84.2949 64.7791 85.0997 60.4549 85.7538 56.5312C86.2497 53.5195 86.6325 50.7556 87.6707 48.4865C88.8859 45.8445 90.9434 44.5483 92.9445 43.1084C95.105 41.5467 97.1989 39.8444 98.4342 36.6093C99.3971 34.095 99.8263 30.6221 99.2651 25.4861C99.1999 24.9728 98.7416 24.6016 98.2283 24.6582C97.7136 24.7147 97.3482 25.1772 97.4047 25.6891L97.4048 25.6883Z" fill="#B68176"/>
<path fill-rule="evenodd" clip-rule="evenodd" d="M25.7955 22.8227C23.3638 26.8132 21.5036 31.8593 20.8205 36.9994C20.1289 42.2008 20.6523 47.4934 22.9796 51.9216C24.4209 54.6404 26.0667 56.6819 27.8617 58.48C31.742 62.3573 36.3616 65.0445 40.9612 71.2781C44.2818 75.7705 47.9752 83.6512 50.6126 91.8526C53.2212 99.9494 54.8191 108.36 53.9404 114.115C53.8664 114.625 54.2115 115.102 54.7263 115.181C55.2411 115.258 55.7181 114.907 55.7921 114.395C56.6998 108.424 55.1004 99.6843 52.3889 91.2798C49.686 82.8609 45.8708 74.7801 42.4676 70.166C37.7912 63.8395 33.1251 61.0933 29.1885 57.1593C27.5151 55.483 25.9723 53.5821 24.6352 51.0503C22.4848 46.9555 22.0354 42.0545 22.6719 37.2459C23.3172 32.3679 25.0934 27.58 27.3933 23.7926C27.6557 23.3518 27.5151 22.7762 27.0757 22.5094C26.6364 22.2411 26.0564 22.3804 25.7955 22.8227Z" fill="#B68176"/>
<path fill-rule="evenodd" clip-rule="evenodd" d="M129.058 90.36C127.824 96.3152 126.056 99.9041 124.074 102.349C122.148 104.725 120.034 106.022 118.08 107.392C116.547 108.467 115.097 109.584 113.854 111.197C112.32 113.204 111.208 115.54 109.899 117.844C108.739 119.877 107.429 121.887 105.457 123.573C102.67 125.951 98.5653 127.664 91.8038 127.981C86.549 128.226 79.789 126.438 73.458 126.241C70.6058 126.153 67.8291 126.38 65.2945 127.211C64.8087 127.372 64.5375 127.9 64.7058 128.391C64.8638 128.881 65.3887 129.148 65.8832 128.987C68.2119 128.223 70.7653 128.029 73.4016 128.112C79.789 128.31 86.5954 130.097 91.8881 129.849C99.2194 129.505 103.642 127.574 106.662 124.996C108.823 123.158 110.263 120.982 111.526 118.766C112.788 116.541 113.855 114.275 115.341 112.336C116.753 110.501 118.473 109.391 120.259 108.156C122.017 106.94 123.841 105.616 125.533 103.525C127.637 100.915 129.563 97.0997 130.891 90.7413C130.994 90.2353 130.677 89.7408 130.172 89.6349C129.666 89.5305 129.171 89.8539 129.058 90.36L129.058 90.36Z" fill="#B68176"/>
<path fill-rule="evenodd" clip-rule="evenodd" d="M4.02795 78.6001C4.55142 87.5789 5.64474 92.5233 7.13246 95.6682C8.40414 98.3449 9.94695 99.7689 11.7146 101.196C13.7345 102.821 16.0533 104.453 18.5311 108.355C20.9715 112.197 21.8691 115.529 22.6927 118.821C23.5714 122.394 24.3559 125.922 26.6846 129.96C28.677 133.407 31.8002 137.232 37.1014 141.765C39.1489 143.525 41.3094 146.096 42.8147 150.948C44.0211 154.858 44.8157 160.21 44.8157 167.735C44.8157 168.142 45.0782 168.505 45.4711 168.626C45.8539 168.748 46.2846 168.603 46.518 168.268C49.202 164.414 52.0731 161.119 55.1486 158.389C58.5532 155.356 62.2 153.018 66.0992 151.38C66.5762 151.18 66.7908 150.63 66.5936 150.154C66.3979 149.679 65.8469 149.456 65.3698 149.656C61.2924 151.372 57.4672 153.816 53.9058 156.991C51.3523 159.258 48.9309 161.897 46.6398 164.912C46.4716 158.597 45.6958 153.926 44.6011 150.394C42.9553 145.077 40.5716 142.272 38.3165 140.344C33.221 135.992 30.2198 132.334 28.3114 129.025C26.0769 125.165 25.3476 121.788 24.5066 118.372C23.6452 114.905 22.6824 111.402 20.1115 107.352C17.484 103.212 15.0334 101.466 12.8919 99.7403C11.3302 98.4802 9.94687 97.2346 8.82456 94.8682C7.39338 91.8521 6.39287 87.1018 5.89842 78.4932C5.86942 77.9784 5.43007 77.584 4.90659 77.6144C4.39184 77.6434 3.99896 78.0854 4.02795 78.6001Z" fill="#B68176"/>
<path fill-rule="evenodd" clip-rule="evenodd" d="M82.5008 119.57C82.3413 119.856 82.3515 120.201 82.5095 120.482C82.6777 120.764 82.9779 120.941 83.2954 120.949C89.551 121.115 93.4791 119.678 96.1065 117.392C98.7151 115.126 100.052 111.992 101.025 108.594C101.895 105.541 102.474 102.272 103.541 99.3075C104.195 97.4819 105.261 95.6868 106.242 93.6975C107.57 91.0222 108.767 88.0177 108.833 84.2087C108.907 80.1793 107.72 75.2289 103.989 68.7951C103.821 68.4964 103.493 68.3166 103.148 68.3296C102.801 68.3412 102.492 68.5428 102.343 68.8546C100.968 71.656 99.6691 73.7861 98.4164 75.5088C96.2094 78.5394 94.1705 80.307 92.3104 82.2239C90.3644 84.2221 88.607 86.3726 87.0177 90.1121C85.4372 93.8126 85.3618 97.3087 85.5025 100.925C85.633 104.198 85.9505 107.575 85.3531 111.322C84.95 113.868 84.1177 116.588 82.5009 119.571L82.5008 119.57ZM84.847 119.087C86.1288 116.422 86.8306 113.95 87.2047 111.615C87.821 107.735 87.5121 104.239 87.3729 100.849C87.241 97.5037 87.2787 94.2674 88.7374 90.8438C90.215 87.3739 91.852 85.38 93.6473 83.5255C95.5643 81.5534 97.6493 79.7291 99.9215 76.6088C100.987 75.1529 102.082 73.4173 103.222 71.2538C106.055 76.555 107.028 80.7195 106.963 84.1751C106.897 87.6653 105.784 90.4147 104.569 92.8665C103.549 94.9256 102.465 96.7861 101.782 98.674C100.697 101.677 100.108 104.988 99.2298 108.08C98.3597 111.121 97.2186 113.954 94.8811 115.982C92.7394 117.845 89.6073 119 84.847 119.087Z" fill="#B68176"/>
<path fill-rule="evenodd" clip-rule="evenodd" d="M70.3144 78.1027C70.165 78.3912 70.165 78.7422 70.3332 79.0264C70.5014 79.3077 70.8103 79.4817 71.138 79.4817C78.2343 79.4817 82.844 77.7794 85.9777 75.2013C89.204 72.5449 90.8672 68.9357 91.9808 65.1557C93.093 61.3842 93.6455 57.4457 94.8041 54.2415C95.4493 52.429 96.9081 51.0166 98.3769 49.4537C100.5 47.2032 102.678 44.6918 103.285 40.7448C103.847 37.0806 103.033 32.1228 99.3398 24.8902C99.1716 24.5741 98.8541 24.3769 98.4988 24.3798C98.1436 24.3841 97.8159 24.5871 97.6665 24.9062C96.2353 27.8395 94.6461 29.9698 93.0004 31.6257C90.3817 34.2706 87.6239 35.7294 85.1457 37.352C82.3588 39.1819 79.9098 41.2062 78.2725 45.046C75.3361 51.9322 75.9437 60.042 73.8499 68.7323C73.1206 71.7918 72.0359 74.9255 70.3147 78.1038L70.3144 78.1027ZM72.6895 77.5821C74.083 74.7343 75.0081 71.9227 75.6722 69.1676C77.7298 60.5894 77.0932 52.5766 79.9934 45.7772C81.4521 42.3421 83.6765 40.5528 86.1733 38.9158C88.7456 37.228 91.6066 35.6924 94.3283 32.9416C95.7682 31.4887 97.1703 29.7008 98.4799 27.3794C101.238 33.2245 101.911 37.3382 101.435 40.4615C100.901 43.9705 98.9004 46.1703 97.021 48.17C95.3563 49.9332 93.7758 51.5645 93.0379 53.6063C92.0548 56.341 91.5038 59.5964 90.6802 62.84C89.9334 65.7778 88.9691 68.7084 87.1929 71.1807C84.6307 74.739 80.3675 77.2837 72.6898 77.5825L72.6895 77.5821Z" fill="#B68176"/>
<path fill-rule="evenodd" clip-rule="evenodd" d="M96.9261 127.722C96.6738 127.98 96.5999 128.357 96.7202 128.693C96.842 129.03 97.1509 129.266 97.5061 129.302C105.231 130.072 109.764 129.078 112.86 127.226C115.301 125.764 116.871 123.757 118.378 121.564C119.696 119.65 120.976 117.588 122.865 115.684C124.091 114.457 125.745 113.365 127.355 112.032C129.552 110.207 131.664 107.958 132.665 104.491C133.665 101.036 133.554 96.329 131.179 89.5296C131.057 89.1903 130.758 88.9496 130.403 88.9075C130.048 88.8683 129.701 89.0351 129.505 89.3367C127.981 91.7495 126.017 93.6085 123.894 95.1542C120.556 97.5845 116.835 99.246 113.693 100.989C110.935 102.522 108.625 104.139 107.297 106.282C105.857 108.616 105.296 110.912 104.697 113.389C104.201 115.453 103.669 117.649 102.463 120.114C101.351 122.386 99.6672 124.883 96.9266 127.722L96.9261 127.722ZM99.5913 127.599C101.742 125.161 103.154 122.96 104.146 120.934C105.418 118.329 105.987 116.01 106.511 113.826C107.063 111.544 107.559 109.418 108.886 107.267C110.065 105.366 112.159 103.984 114.599 102.623C117.798 100.847 121.594 99.1434 124.998 96.6652C126.822 95.337 128.533 93.7884 129.991 91.9004C131.637 97.2554 131.702 101.085 130.87 103.973C129.991 107.025 128.102 108.986 126.158 110.593C124.503 111.966 122.801 113.1 121.538 114.365C119.566 116.355 118.219 118.501 116.844 120.503C115.48 122.475 114.095 124.305 111.898 125.62C109.298 127.175 105.595 127.994 99.5919 127.598L99.5913 127.599Z" fill="#B68176"/>
<path fill-rule="evenodd" clip-rule="evenodd" d="M82.6756 119.34C82.3769 119.627 82.3015 120.079 82.4885 120.448C82.6858 120.818 83.0975 121.015 83.5079 120.932C88.9223 119.829 92.2703 117.462 94.4485 114.548C96.422 111.92 97.4413 108.83 98.1519 105.765C98.9001 102.569 99.3119 99.4066 100.237 96.9184C100.994 94.8999 101.91 93.4543 102.753 91.9739C103.997 89.7815 105.09 87.5194 105.38 83.4926C105.614 80.2199 105.315 75.7437 104.098 69.0939C104.014 68.6516 103.632 68.3297 103.182 68.3282C102.734 68.3282 102.341 68.6487 102.257 69.091C101.416 73.5759 100.35 76.7237 99.1712 79.1295C97.769 82.0035 96.2161 83.8115 94.7297 85.5878C93.0839 87.567 91.5223 89.5114 90.2971 92.6581C89.185 95.5103 88.9979 98.4727 88.9138 101.511C88.8384 104.276 88.8384 107.106 88.1845 109.964C87.4638 113.07 85.9585 116.208 82.6756 119.34ZM86.2108 118.248C88.306 115.618 89.3993 112.989 89.9982 110.383C90.6898 107.4 90.6985 104.45 90.7826 101.562C90.858 98.742 91.0074 95.9857 92.0369 93.3379C93.1766 90.4161 94.6354 88.621 96.1696 86.7869C97.7312 84.9062 99.3669 82.9894 100.855 79.9485C101.63 78.3636 102.36 76.4728 103.024 74.118C103.8 79.8008 103.707 83.4055 103.146 86.0489C102.696 88.1413 101.939 89.6116 101.126 91.0516C100.247 92.6104 99.2828 94.1388 98.4881 96.2645C97.534 98.8165 97.1048 102.059 96.3377 105.34C95.6736 108.158 94.7673 111.011 92.9534 113.425C91.4468 115.434 89.3152 117.126 86.2108 118.248Z" fill="#B68176"/>
<path fill-rule="evenodd" clip-rule="evenodd" d="M70.4923 77.8764C70.1834 78.1693 70.1182 78.6231 70.3139 78.9914C70.5111 79.3597 70.9317 79.5511 71.342 79.4612C77.4858 78.1025 81.4689 75.4448 84.1631 72.2357C87.2299 68.5787 88.6131 64.1865 89.5396 60.1191C90.2502 56.9726 90.6895 54.0347 91.503 51.8539C92.373 49.5251 94.187 48.1403 95.9356 46.5612C97.7495 44.9227 99.5258 43.1116 100.48 40.2073C101.537 36.9925 101.592 32.3874 99.3952 25.0472C99.2734 24.6339 98.8805 24.3584 98.4498 24.3816C98.0206 24.4048 97.6653 24.7195 97.5813 25.1429C96.7011 29.8234 95.2148 32.9267 93.4661 35.2059C91.5491 37.7014 89.3334 39.2153 87.3137 40.748C84.9298 42.5577 82.7969 44.3992 81.5541 47.5908C80.571 50.1154 80.2345 52.8197 79.9445 55.6921C79.5806 59.2838 79.2993 63.1481 77.7477 67.2473C76.4572 70.6361 74.288 74.1845 70.4918 77.8761L70.4923 77.8764ZM74.1391 76.7366C76.7665 73.6959 78.4124 70.748 79.4971 67.9105C81.1139 63.6431 81.4328 59.6207 81.807 55.8797C82.0781 53.1841 82.3769 50.6408 83.3019 48.2714C84.4054 45.4395 86.3325 43.8429 88.445 42.2378C90.5867 40.6138 92.9154 38.9912 94.9541 36.3449C96.3461 34.5281 97.6004 32.2327 98.5444 29.1224C99.6203 33.9236 99.4985 37.1976 98.7039 39.6234C97.6657 42.7598 95.5051 44.4202 93.5794 46.163C91.9887 47.5883 90.5488 49.0645 89.7541 51.1988C88.9131 53.4448 88.4447 56.4654 87.7154 59.7031C86.8468 63.502 85.5925 67.6187 82.7315 71.0334C80.7581 73.381 78.0191 75.3866 74.1389 76.7363L74.1391 76.7366Z" fill="#B68176"/>
<path fill-rule="evenodd" clip-rule="evenodd" d="M97.1265 127.566C96.7423 127.791 96.5741 128.25 96.7147 128.666C96.8554 129.084 97.2657 129.348 97.7066 129.299C103.933 128.603 108.038 126.752 110.974 124.482C115.453 121.019 117.183 116.533 119.634 113.58C120.708 112.283 122.167 111.304 123.663 110.171C125.721 108.607 127.844 106.783 129.349 103.723C130.854 100.669 131.743 96.3584 131.228 89.7639C131.2 89.3303 130.873 88.9765 130.443 88.9113C130.004 88.846 129.592 89.0867 129.433 89.4913C127.871 93.4209 125.813 96.1934 123.617 98.3219C120.989 100.868 118.164 102.507 115.753 104.097C113.601 105.521 111.768 106.925 110.599 108.794C109.506 110.537 108.842 112.36 108.14 114.245C107.262 116.621 106.336 119.108 104.279 121.65C102.709 123.594 100.473 125.57 97.1258 127.566L97.1265 127.566ZM101.709 126.716C103.401 125.408 104.7 124.108 105.738 122.826C107.935 120.098 108.954 117.442 109.9 114.893C110.545 113.128 111.161 111.419 112.181 109.787C113.219 108.13 114.873 106.921 116.79 105.658C119.278 104.009 122.196 102.301 124.916 99.6645C126.562 98.0739 128.134 96.1468 129.509 93.6993C129.462 97.7725 128.76 100.69 127.666 102.898C126.32 105.652 124.384 107.274 122.533 108.681C120.914 109.905 119.363 110.982 118.194 112.386C115.809 115.252 114.182 119.64 109.834 123.001C107.833 124.55 105.242 125.868 101.708 126.716L101.709 126.716Z" fill="#B68176"/>
<path fill-rule="evenodd" clip-rule="evenodd" d="M28.535 103.322C25.983 99.3595 23.7472 97.5019 21.298 95.6518C19.091 93.9916 16.6969 92.3371 13.6957 89.0106C11.451 86.5209 8.86997 83.1002 5.75666 78.057C5.57831 77.7612 5.24191 77.5916 4.8968 77.6148C4.55024 77.6394 4.25153 77.8526 4.11088 78.1701C0.0146171 87.4588 -0.601583 93.7404 0.453905 98.3356C1.55739 103.091 4.44735 106.096 7.35612 108.75C9.40355 110.619 11.4613 112.295 12.7516 114.392C14.1349 116.648 14.7613 119.909 15.5748 123.363C16.7058 128.11 18.1747 133.194 21.9896 136.845C25.1782 139.899 30.0125 141.99 37.708 141.99C38.0357 141.99 38.3344 141.819 38.5026 141.537C38.6708 141.258 38.681 140.91 38.5316 140.62C36.5016 136.751 35.24 133.227 34.4164 129.97C33.1636 125.007 32.92 120.657 32.5096 116.646C32.0224 111.88 31.2844 107.583 28.5351 103.321L28.535 103.322ZM26.9646 104.335C29.5355 108.33 30.1895 112.37 30.6477 116.84C31.0696 120.929 31.3306 125.366 32.6023 130.429C33.3607 133.415 34.4641 136.617 36.165 140.089C30.0023 139.841 25.9918 138.082 23.2886 135.494C19.7361 132.101 18.4455 127.342 17.3987 122.932C16.5287 119.26 15.8182 115.81 14.3406 113.41C12.966 111.176 10.7967 109.36 8.60878 107.368C5.96249 104.951 3.27863 102.248 2.27786 97.9153C1.34261 93.8595 1.87622 88.4251 5.1199 80.5614C7.88799 84.9101 10.2444 87.9711 12.3105 90.2636C15.415 93.7089 17.8846 95.4271 20.1653 97.1454C22.4664 98.8811 24.5707 100.62 26.9646 104.335Z" fill="#B68176"/>
<path fill-rule="evenodd" clip-rule="evenodd" d="M32.9782 47.7083C30.5567 44.5386 30.6596 42.3013 30.8365 39.459C30.996 36.9548 31.2208 34.0242 30.1738 29.8002C29.6315 27.6078 28.7427 25.0614 27.3216 22.0439C27.1998 21.7857 26.9664 21.5987 26.6851 21.532C26.4139 21.4667 26.1152 21.532 25.8905 21.7075C17.6152 28.221 13.8653 33.1584 12.4996 37.2632C11.1815 41.2567 12.0414 44.5248 13.3884 47.7572C14.6137 50.6732 16.2595 53.5529 16.7728 57.0144C17.4935 61.869 18.9797 65.2054 22.2251 68.2578C26.517 72.3047 34.0168 75.8401 47.286 81.8778C47.5571 82.001 47.8747 81.988 48.1372 81.8415C48.3982 81.6965 48.5663 81.4355 48.6041 81.1383C49.7351 71.8522 48.5765 65.8884 46.4261 61.647C44.3685 57.5826 41.3759 55.0811 38.4771 52.7829C36.4485 51.1705 34.4751 49.6654 32.9788 47.7078L32.9782 47.7083ZM31.4919 48.8437C33.0811 50.9216 35.1663 52.5355 37.3165 54.2481C40.0193 56.3927 42.8338 58.7011 44.7611 62.4944C46.6968 66.3038 47.7148 71.5905 46.8926 79.6408C34.6343 74.0583 27.5825 70.7363 23.5066 66.8966C20.5891 64.1444 19.2696 61.1199 18.6245 56.7407C18.0822 53.1171 16.39 50.0895 15.1183 47.0356C13.9308 44.2051 13.1173 41.3487 14.2773 37.8526C15.52 34.1202 18.9145 29.7225 26.124 23.9194C29.4533 31.3985 29.201 35.6733 28.9951 39.0735C28.8921 40.6918 28.7993 42.1273 29.0516 43.5934C29.3228 45.213 29.9869 46.8762 31.492 48.8441L31.4919 48.8437Z" fill="#B68176"/>
<path fill-rule="evenodd" clip-rule="evenodd" d="M67.5672 35.878C67.9326 29.0586 69.1014 23.0324 65.295 15.5893C63.0142 11.1364 58.9366 6.16256 51.746 0.214718C51.5213 0.0276634 51.2225 -0.0419374 50.9412 0.0247647C50.6512 0.0929145 50.4178 0.290121 50.296 0.55693C45.7617 10.839 43.9376 17.0292 43.6666 21.2602C43.4143 25.2737 44.4989 27.6246 46.0794 29.9561C47.0423 31.3771 48.2023 32.7894 49.3333 34.6281C50.0815 35.8447 50.2308 37.2498 50.1192 38.7997C50.0162 40.2483 49.6798 41.8158 49.2956 43.4818C48.2762 47.9422 46.9856 53.0607 48.5386 58.4562C49.7451 62.6802 52.6813 67.0983 58.8905 71.4848C59.2544 71.7429 59.7503 71.7067 60.078 71.3978C67.1091 64.6886 69.6815 59.3989 70.2788 54.8312C70.7559 51.2468 70.0076 48.0872 69.1565 44.9928C68.3343 42.013 67.399 39.0986 67.5672 35.878ZM65.6967 35.7794C65.5198 39.2087 66.4739 42.3175 67.3526 45.4917C68.1385 48.3525 68.8679 51.2728 68.4271 54.5862C67.8848 58.7404 65.5096 63.4822 59.3485 69.5069C54.0183 65.5977 51.4184 61.7056 50.3337 57.9401C48.8851 52.8794 50.1568 48.0827 51.1196 43.8996C52.0361 39.8872 52.6059 36.3871 50.9224 33.6465C49.7725 31.7832 48.6038 30.3491 47.6222 28.9076C46.2563 26.8892 45.3123 24.8548 45.537 21.3792C45.7893 17.4351 47.4728 11.7468 51.5127 2.45361C57.8422 7.82868 61.5368 12.3529 63.6308 16.4421C67.2587 23.5329 66.0436 29.2822 65.697 35.7798L65.6967 35.7794Z" fill="#B68176"/>
<path fill-rule="evenodd" clip-rule="evenodd" d="M24.1881 105.052C22.6641 102.574 21.056 101.216 19.3539 99.9772C17.1846 98.3909 14.8471 97.0207 12.3503 93.3404C10.2927 90.3084 8.14232 85.7352 5.86163 78.2761C5.73983 77.8759 5.36573 77.6062 4.94519 77.615C4.53337 77.6222 4.16945 77.9079 4.06648 78.3124C1.70003 87.3186 2.2525 93.3173 4.07518 97.7369C5.75867 101.838 8.54562 104.596 11.2194 107.118C13.1175 108.912 14.9504 110.577 16.1943 112.594C17.6052 114.879 18.2316 117.772 18.9798 120.86C19.9992 125.047 21.2158 129.576 24.4596 133.6C27.0972 136.869 31.0715 139.815 37.4113 141.942C37.7854 142.07 38.2059 141.944 38.4496 141.629C38.6917 141.315 38.7106 140.881 38.4873 140.546C35.0449 135.245 32.7725 130.872 31.2213 127.157C28.8925 121.606 28.1443 117.526 27.396 114.018C26.7145 110.781 26.0127 108.01 24.1885 105.052L24.1881 105.052ZM22.5989 106.033C24.3012 108.793 24.9276 111.386 25.5729 114.407C26.3399 118.006 27.1056 122.187 29.491 127.879C30.8467 131.109 32.726 134.827 35.4288 139.202C30.9773 137.342 27.9946 135.003 25.9092 132.426C22.8613 128.64 21.7576 124.36 20.8036 120.418C19.9988 117.124 19.2884 114.053 17.7832 111.614C16.4651 109.462 14.5294 107.67 12.4995 105.76C10.0127 103.403 7.37496 100.853 5.80476 97.0264C4.32717 93.4375 3.79501 88.7396 5.11309 82.0634C7.09526 87.9014 8.99331 91.7207 10.7985 94.3886C12.9489 97.554 14.9775 99.1389 16.9045 100.518C18.9244 101.969 20.8311 103.164 22.5988 106.032L22.5989 106.033Z" fill="#B68176"/>
<path fill-rule="evenodd" clip-rule="evenodd" d="M28.6835 49.5235C27.2248 46.9671 26.7202 44.6848 26.626 41.9543C26.4868 37.5098 27.4032 31.9402 27.4032 22.4414C27.4032 22.0412 27.1509 21.6859 26.7768 21.5569C26.3925 21.4264 25.972 21.5526 25.7284 21.8687C19.8745 29.4394 17.2111 34.5376 16.2845 38.4337C15.3217 42.4532 16.1627 45.2606 17.4156 48.1679C18.4828 50.6402 19.8748 53.1907 20.5491 56.781C21.1291 59.8492 22.3254 61.9968 23.99 63.7411C25.8968 65.7378 28.4504 67.1893 31.4241 68.899C35.8931 71.4685 41.3539 74.6717 46.9465 81.6114C47.2075 81.9318 47.6382 82.0464 48.021 81.8941C48.4052 81.7404 48.6387 81.3576 48.6111 80.9487C47.8716 72.0397 45.553 66.3399 42.7197 62.3564C40.0081 58.5516 36.8194 56.3114 34.0327 54.3725C31.7794 52.805 29.7972 51.4722 28.6835 49.5235ZM27.0566 50.4486C28.3008 52.6208 30.4598 54.1622 32.967 55.9065C35.6031 57.7422 38.6338 59.8431 41.1959 63.4409C43.5522 66.7556 45.5067 71.3375 46.4232 78.118C41.3451 72.5065 36.4455 69.6311 32.3493 67.2762C29.5537 65.6696 27.1409 64.3283 25.3457 62.4475C23.9059 60.9438 22.8865 59.082 22.3906 56.4358C21.6801 52.6833 20.2489 50.0106 19.128 47.4255C18.0245 44.8692 17.2575 42.4027 18.0985 38.8659C18.8931 35.5323 21.0624 31.2996 25.5052 25.2645C25.3544 33.1092 24.625 38.0173 24.757 42.0152C24.8599 45.0588 25.4384 47.5993 27.0566 50.4486Z" fill="#B68176"/>
<path fill-rule="evenodd" clip-rule="evenodd" d="M63.499 35.878C63.789 30.3374 63.892 26.2267 62.1708 20.699C60.6381 15.7731 57.6454 9.70501 51.9511 0.446376C51.7539 0.125921 51.3798 -0.0451778 51.0159 0.011357C50.6418 0.0679066 50.3431 0.341959 50.2488 0.705919C47.9302 9.81941 47.4619 15.3441 48.126 19.5216C48.8466 23.998 50.8564 26.9573 53.3997 31.0944C54.8309 33.4245 54.4481 36.5986 53.8028 40.3151C53.0169 44.8075 51.7829 50.0333 52.1193 55.5476C52.4369 60.6806 54.1102 66.0572 58.7301 71.3398C58.9273 71.566 59.2159 71.6835 59.5247 71.6545C59.8249 71.6255 60.0859 71.4544 60.2352 71.1934C63.3586 65.8224 64.7899 61.3434 65.2944 57.4049C65.828 53.2738 65.3597 49.7313 64.7521 46.3689C64.1069 42.8381 63.312 39.5177 63.499 35.878ZM61.6285 35.7809C61.4704 38.8332 61.9649 41.6738 62.5173 44.584C63.2366 48.4149 64.0602 52.372 63.4425 57.1646C62.9944 60.6171 61.7967 64.5004 59.2824 69.0866C55.6356 64.5074 54.2611 59.8718 53.9897 55.4333C53.5866 49.0025 55.4296 42.9804 56.027 38.0939C56.4199 34.943 56.2981 32.2329 54.9902 30.1144C52.5962 26.2153 50.6504 23.4472 49.9774 19.2262C49.3887 15.5591 49.7527 10.8176 51.5202 3.34263C56.3545 11.3466 58.9923 16.7784 60.3858 21.2548C62.0301 26.5445 61.8996 30.4797 61.6285 35.7809Z" fill="#B68176"/>
<path fill-rule="evenodd" clip-rule="evenodd" d="M53.2945 132.091C54.2211 127.355 57.5215 121.195 61.5713 115.488C65.5733 109.858 70.2947 104.668 74.2503 101.73C74.6621 101.422 74.7549 100.836 74.446 100.421C74.1386 100.008 73.5484 99.9208 73.1381 100.23C69.0608 103.259 64.1698 108.599 60.0457 114.405C55.8291 120.356 52.4155 126.797 51.4615 131.735C51.3687 132.242 51.6964 132.734 52.201 132.831C52.7056 132.93 53.2015 132.599 53.2943 132.091L53.2945 132.091Z" fill="#B68176"/>
<path fill-rule="evenodd" clip-rule="evenodd" d="M65.4144 99.0537C65.4333 101.145 65.4231 102.898 65.3869 104.313C65.3492 105.872 65.2839 107.009 65.181 107.725C65.1056 108.235 65.4608 108.709 65.9756 108.78C66.4802 108.853 66.9573 108.496 67.0327 107.986C67.1356 107.225 67.2096 106.015 67.256 104.359C67.2937 102.928 67.3038 101.155 67.285 99.0392C67.285 98.5245 66.8543 98.1083 66.3396 98.1112C65.8263 98.1156 65.4144 98.5374 65.4144 99.0537Z" fill="#B68176"/>
<path fill-rule="evenodd" clip-rule="evenodd" d="M64.9209 99.8294C66.3521 100.214 67.6426 99.4307 68.3618 98.2315C69.1013 97.0019 69.1666 95.4054 68.3806 94.447V94.4441C67.7165 93.6307 66.9509 93.3001 66.2027 93.2623C65.0427 93.2029 63.8827 93.9206 63.1823 94.9545C62.5834 95.8405 62.35 96.928 62.6298 97.856C62.8923 98.697 63.5651 99.4713 64.9209 99.8294ZM65.398 98.0227C64.8557 97.8777 64.5279 97.6399 64.4163 97.3006C64.2945 96.8801 64.4627 96.403 64.7339 96.0013C65.0616 95.5141 65.5662 95.1023 66.1085 95.1299C66.3985 95.1444 66.6798 95.3111 66.9321 95.6258C67.0438 95.7635 67.0815 95.9448 67.0902 96.1333C67.1003 96.5088 66.9684 96.9163 66.7639 97.2672C66.4637 97.7587 65.9867 98.1807 65.398 98.0227Z" fill="#B68176"/>
<path fill-rule="evenodd" clip-rule="evenodd" d="M72.9907 100.082V100.085C74.0942 102.266 76.2271 102.58 77.8078 101.841C79.4347 101.078 80.528 99.1872 79.3405 96.9628C78.4429 95.2691 76.4607 95.0647 74.8526 95.8288C73.2068 96.6162 72.1308 98.3506 72.9907 100.082ZM74.6654 99.2438C74.3 98.5014 74.9555 97.8561 75.6558 97.5168C76.3664 97.1775 77.2929 97.0847 77.6946 97.8387C78.247 98.8856 77.7787 99.7876 77.0116 100.147C76.2359 100.51 75.2077 100.314 74.6654 99.2438Z" fill="#B68176"/>
<path fill-rule="evenodd" clip-rule="evenodd" d="M60.1134 117.688L65.9674 116.353C66.4734 116.238 66.791 115.736 66.6794 115.233C66.5576 114.73 66.0616 114.414 65.557 114.529L59.7031 115.866C59.1985 115.98 58.8795 116.482 59.0013 116.983C59.113 117.487 59.619 117.803 60.1134 117.688Z" fill="#B68176"/>
<path fill-rule="evenodd" clip-rule="evenodd" d="M65.8375 113.356C64.6224 114.956 65.0704 117.131 66.2681 118.33C66.9975 119.052 67.9603 119.423 68.9797 119.22C69.6989 119.075 70.466 118.634 71.1765 117.715C71.8508 116.837 72.0929 116.011 72.0741 115.29C72.0567 114.274 71.5318 113.426 70.756 112.859C69.3161 111.804 67.0164 111.808 65.8375 113.356ZM67.3238 114.486C67.8849 113.756 68.9695 113.872 69.6525 114.368C69.9613 114.594 70.1948 114.919 70.2049 115.325C70.2136 115.701 70.0454 116.117 69.6902 116.575C69.3349 117.042 68.9695 117.313 68.6056 117.386C68.2228 117.464 67.8675 117.283 67.5963 117.009C66.9873 116.4 66.7075 115.299 67.3238 114.486Z" fill="#B68176"/>
<path fill-rule="evenodd" clip-rule="evenodd" d="M38.3277 101.637C41.4974 106.722 43.7131 112.298 45.3227 118.078C47.7529 126.841 48.7912 136.08 49.632 144.832C49.6697 145.251 49.9786 145.59 50.3991 145.664C50.8109 145.737 51.2227 145.525 51.3996 145.147C54.2895 139.096 57.6927 135.057 61.3308 132.146C68.7275 126.218 77.0403 124.872 83.8004 120.817C88.149 118.212 90.7386 115.21 92.3381 112.132C94.1898 108.558 94.7031 104.872 95.0409 101.554C95.3121 98.9849 95.4513 96.6503 96.1444 94.8132C96.8172 93.0355 97.7423 91.7551 98.7066 90.3413C99.987 88.4693 101.334 86.3857 102.371 82.8548C103.287 79.7561 103.962 75.522 104.111 69.2854C104.13 68.7692 103.718 68.3399 103.203 68.3269C102.69 68.3153 102.259 68.7242 102.25 69.239C102.1 75.2536 101.454 79.3384 100.576 82.3255C99.6128 85.6112 98.3499 87.5454 97.1623 89.2871C96.1154 90.8226 95.125 92.2219 94.3957 94.1517C93.6562 96.118 93.4691 98.6136 93.1791 101.364C92.8717 104.469 92.4135 107.926 90.6735 111.271C89.2148 114.091 86.8207 116.826 82.8377 119.213C76.0108 123.309 67.6327 124.7 60.1622 130.687C56.9359 133.268 53.8776 136.684 51.1749 141.507C50.3716 133.601 49.2957 125.403 47.1265 117.577C45.472 111.623 43.181 105.884 39.9084 100.647C39.6373 100.209 39.0572 100.074 38.6179 100.348C38.1872 100.622 38.0463 101.199 38.3277 101.637Z" fill="#B68176"/>
<path fill-rule="evenodd" clip-rule="evenodd" d="M39.2702 116.474C40.5607 117.083 41.6917 118.052 42.7488 119.241C44.1886 120.865 45.5082 122.892 46.8914 125.041C47.135 125.42 47.6106 125.57 48.0225 125.401C48.443 125.232 48.6779 124.792 48.5938 124.351C47.7136 119.953 47.0597 115.5 46.8538 111.801C46.732 109.53 46.7798 107.551 47.051 106.062C47.209 105.215 47.4338 104.543 47.7803 104.121C48.1066 103.724 48.0515 103.134 47.6585 102.806C47.2554 102.477 46.6667 102.532 46.339 102.929C45.3863 104.076 44.9092 106.515 44.918 109.721C44.9368 112.714 45.3298 116.416 45.9562 120.28C45.3675 119.463 44.7686 118.694 44.1422 117.998C42.9083 116.607 41.58 115.492 40.0649 114.782C39.598 114.561 39.0368 114.763 38.8222 115.228C38.5974 115.697 38.8033 116.254 39.2702 116.474Z" fill="#B68176"/>
<path fill-rule="evenodd" clip-rule="evenodd" d="M46.6201 104.117C48.64 105.007 50.2394 104.34 51.0048 103.244C51.8473 102.052 51.8096 100.203 50.1363 98.8244V98.823C48.4905 97.4745 46.4793 98.1908 45.4413 99.5668C44.8714 100.331 44.6191 101.279 44.825 102.144C45.012 102.903 45.5355 103.638 46.6201 104.117ZM47.3771 102.406C46.9667 102.223 46.7129 101.993 46.639 101.703C46.5549 101.36 46.7042 100.997 46.9377 100.693C47.3872 100.099 48.2384 99.6857 48.9489 100.267C49.6782 100.873 49.8465 101.648 49.481 102.17C49.1171 102.687 48.3312 102.826 47.3771 102.406Z" fill="#B68176"/>
<path fill-rule="evenodd" clip-rule="evenodd" d="M38.9734 102.057C41.031 101.359 41.3108 99.3161 40.5162 97.7195C39.7303 96.1534 37.9627 95.137 36.14 96.2854C34.2129 97.4962 34.1013 99.2333 34.822 100.514C35.5412 101.8 37.2143 102.657 38.9734 102.057ZM38.3745 100.286C37.561 100.562 36.7853 100.19 36.4576 99.6003C36.1487 99.0624 36.3271 98.3779 37.1304 97.8704L37.1405 97.869C37.8597 97.4093 38.5239 97.9313 38.8428 98.5577C39.1502 99.1784 39.1793 100.014 38.3745 100.286Z" fill="#B68176"/>
<path fill-rule="evenodd" clip-rule="evenodd" d="M40.3839 116.003C40.3926 115.984 40.4114 115.968 40.4201 115.949C40.7014 115.563 40.8595 115.04 40.8696 114.454C40.8783 113.513 40.4868 112.401 39.7937 111.654C39.3355 111.155 38.7468 110.815 38.074 110.726C37.3447 110.629 36.4659 110.825 35.5205 111.602C34.5853 112.366 34.2677 113.217 34.2778 113.995C34.3054 114.898 34.81 115.755 35.5959 116.348C36.9604 117.373 39.0834 117.552 40.3839 116.003ZM38.9252 114.831C38.3162 115.516 37.3446 115.324 36.7182 114.853C36.4094 114.62 36.1571 114.311 36.1469 113.954C36.1469 113.648 36.334 113.349 36.6994 113.048C37.1286 112.697 37.5027 112.536 37.8304 112.579C38.0639 112.611 38.2611 112.749 38.4293 112.924C38.7468 113.268 38.9339 113.758 38.9904 114.211C39.0093 114.446 39.018 114.673 38.9252 114.831Z" fill="#B68176"/>
<path fill-rule="evenodd" clip-rule="evenodd" d="M64.8351 150.785C65.1439 151.81 65.7239 152.466 66.4243 152.843C67.4915 153.415 68.8835 153.325 70.0813 152.712C71.8851 151.794 73.1945 149.766 72.3534 147.543C71.5124 145.31 69.0894 144.894 67.145 145.824C65.4239 146.647 64.1521 148.48 64.8351 150.785ZM66.6302 150.253C66.2474 148.97 66.9956 147.969 67.9497 147.512C68.9212 147.047 70.1842 147.087 70.6047 148.203C71.0716 149.445 70.2407 150.533 69.2388 151.046C68.6037 151.369 67.8743 151.497 67.3131 151.195C66.9956 151.027 66.7621 150.713 66.6302 150.253Z" fill="#B68176"/>
<path fill-rule="evenodd" clip-rule="evenodd" d="M56.1864 147.377C56.4952 148.285 56.9346 149.902 56.8693 151.672C56.8229 152.964 56.4952 154.345 55.6064 155.567C55.2975 155.984 55.3918 156.569 55.8123 156.873C56.2241 157.178 56.8128 157.085 57.1115 156.669C58.244 155.12 58.6732 153.379 58.7399 151.743C58.8138 149.698 58.3092 147.829 57.9626 146.78C57.7944 146.291 57.2623 146.027 56.7751 146.192C56.2893 146.356 56.0269 146.887 56.1864 147.377Z" fill="#B68176"/>
<path fill-rule="evenodd" clip-rule="evenodd" d="M56.2531 147.225C58.1237 147.495 59.3388 145.879 59.3301 144.131C59.32 142.634 58.4413 141.125 56.4591 140.926C55.9632 140.877 55.3933 141.036 54.851 141.399C53.9998 141.967 53.2429 143.034 53.1023 144.073C53.0269 144.641 53.1298 145.202 53.4387 145.705C53.8505 146.374 54.6828 146.999 56.2531 147.225ZM56.5156 145.373C55.6079 145.243 55.112 145.027 54.9815 144.615C54.8321 144.142 55.1787 143.619 55.5426 143.24C55.692 143.095 55.8413 142.972 56.0008 142.885C56.0951 142.833 56.1879 142.779 56.272 142.788C57.1043 142.871 57.4596 143.516 57.4596 144.142C57.4683 144.763 57.1797 145.47 56.5156 145.373Z" fill="#B68176"/>
<path fill-rule="evenodd" clip-rule="evenodd" d="M52.5669 160.963C53.8299 160.199 55.8309 160.008 57.7753 160.347C59.5806 160.665 61.338 161.448 62.3675 162.788C62.6749 163.199 63.2651 163.278 63.6754 162.964C64.0872 162.653 64.1626 162.065 63.8538 161.655C62.5632 159.963 60.3752 158.904 58.0941 158.506C55.6712 158.081 53.1656 158.41 51.595 159.367C51.1557 159.635 51.015 160.211 51.2862 160.652C51.5573 161.092 52.1276 161.232 52.5669 160.963Z" fill="#B68176"/>
<path fill-rule="evenodd" clip-rule="evenodd" d="M61.9287 163.985C61.9461 166.141 64.2284 167.32 66.2484 166.989C67.2867 166.821 68.2031 166.273 68.6888 165.376C69.0818 164.672 69.2224 163.731 68.857 162.531V162.526C68.5482 161.516 67.987 160.853 67.3519 160.457C66.5573 159.961 65.6119 159.876 64.7245 160.14C63.2367 160.58 61.9185 162.016 61.9287 163.985ZM63.7978 163.972C63.7978 162.934 64.4721 162.165 65.2565 161.933C65.6306 161.82 66.0338 161.836 66.3702 162.045C66.679 162.238 66.9125 162.584 67.0705 163.076C67.2489 163.666 67.2387 164.131 67.0517 164.476C66.8371 164.872 66.4078 165.07 65.9496 165.144C65.4349 165.228 64.8636 165.151 64.4242 164.909C64.0791 164.717 63.8079 164.41 63.7978 163.972Z" fill="#B68176"/>
</svg>
