<svg width="69" height="124" viewBox="0 0 69 124" fill="none" xmlns="http://www.w3.org/2000/svg">
<path d="M58.4619 39.6241C62.7905 27.1717 65.3035 14.1148 63.5635 1.02693C63.3769 -0.380987 61.1603 -0.324376 61.3479 1.09316C63.0282 13.7366 60.6784 26.2415 56.5777 38.2245C49.8256 34.207 40.4697 34.0178 34.2902 36.1895C33.4991 36.4683 33.2806 37.4127 33.8574 38.0717C42.7794 48.2701 15.2631 37.2599 0.921265 77.2896C-3.57166 94.7103 9.9093 112.657 8.39637 122.939C8.29188 123.649 9.1459 124.124 9.82081 123.971C55.7081 113.492 60.6948 100.078 66.7623 84.7617C71.2285 73.4812 69.2796 49.4735 58.4632 39.626L58.4619 39.6241ZM63.1328 88.5993C52.3802 112.47 27.6365 117.28 10.5911 121.413C12.0326 113.302 -0.987669 92.8571 3.07892 77.7864C7.90019 62.3623 18.5281 52.6509 26.6192 48.4516C31.6687 45.8312 40.9318 45.4905 36.5762 37.8151C42.0542 35.7523 51.8665 37.7958 55.8763 40.2197C55.2014 42.0965 54.4871 43.9585 53.7407 45.8066C49.2552 50.746 44.1951 55.1537 38.7725 59.0301C33.3669 62.895 25.6349 65.8432 18.8989 67.8163C28.6504 66.5846 36.0368 66.2759 51.3356 51.4873C50.0263 54.4506 39.9156 75.3719 32.9588 86.1329C28.1375 89.6805 15.2325 94.3369 12.9965 94.9243C17.062 94.5632 24.7181 92.8434 31.0589 89.345C22.5837 103.619 14.6536 116.272 14.8902 116.492C19.7871 111.36 47.8018 66.5652 52.2071 54.9948C51.4352 68.1565 47.6855 84.119 44.4869 89.7333C50.5331 81.8498 54.6657 64.0157 54.5656 49.84C54.5656 49.7908 56.7544 44.3526 57.747 41.6286C69.28 56.2249 68.0261 77.7399 63.1344 88.602L63.1328 88.5993Z" fill="#D63C1A"/>
</svg>
