<svg width="185" height="203" viewBox="0 0 185 203" fill="none" xmlns="http://www.w3.org/2000/svg">
<mask id="mask0_38_38" style="mask-type:luminance" maskUnits="userSpaceOnUse" x="0" y="0" width="185" height="203">
<path d="M0 0H184.977V202.594H0V0Z" fill="white"/>
</mask>
<g mask="url(#mask0_38_38)">
<path d="M106.454 101.468C107.414 99.9834 108.969 98.9875 110.719 98.7378C111.441 98.587 112.192 98.6843 112.852 99.0158C113.409 99.253 113.84 99.7164 114.035 100.291C114.231 100.865 114.173 101.495 113.876 102.022C113.334 103.017 112.611 103.899 111.743 104.625C109.922 106.179 107.908 107.49 105.75 108.527C104.971 108.835 104.129 108.945 103.298 108.847C102.827 108.814 102.384 109.077 102.189 109.509C101.848 110.255 101.486 111.023 101.208 111.791V111.79C101.135 112.064 101.283 112.35 101.55 112.451L101.806 112.558H101.804C102.382 112.664 102.89 113.004 103.209 113.495C103.526 113.987 103.628 114.59 103.49 115.159C103.49 115.885 103.341 116.631 103.256 117.292C103 117.768 102.651 118.189 102.232 118.528C101.654 119.111 100.907 119.499 100.099 119.637C98.8482 119.851 97.6214 120.179 96.4307 120.619C96.2548 120.979 96.2972 121.407 96.5375 121.728C97.4125 122.901 98.2859 124.095 99.1812 125.268C99.3948 125.567 99.7137 125.781 99.9069 126.099C101.95 128.949 103.763 131.958 105.325 135.099C107.137 137.893 108.46 140.942 110.102 143.841C110.246 144.069 110.409 144.283 110.592 144.482C110.741 144.674 111.146 144.482 111.273 144.482C111.647 143.948 111.814 143.296 111.743 142.648C111.658 142.092 111.796 141.525 112.126 141.069C113.526 139.118 114.613 136.958 115.346 134.673C115.794 133.415 115.645 133.201 114.536 132.86H114.537C114.003 132.698 113.52 132.405 113.13 132.007C111.867 130.652 110.933 129.024 110.4 127.251C110.279 126.902 110.243 126.53 110.293 126.164C110.328 124.637 110.956 123.184 112.041 122.111C112.271 122.091 112.499 122.055 112.725 122.005C114.01 121.753 115.288 122.465 115.752 123.69C116.179 124.521 116.498 125.375 116.903 126.206H116.905C117.121 126.557 117.363 126.891 117.629 127.209C117.949 126.271 118.183 125.503 118.482 124.735C118.78 123.966 119.101 123.392 119.313 122.601H119.314C119.495 121.972 119.638 121.331 119.74 120.684C119.49 120.556 119.225 120.464 118.951 120.405H117.288C117.013 120.382 116.771 120.211 116.657 119.959C116.542 119.708 116.572 119.414 116.733 119.19L117.181 118.422C116.259 116.824 115.625 115.077 115.304 113.261C115.177 112.478 115.098 111.688 115.07 110.894C115.046 109.771 115.593 108.712 116.52 108.079C116.655 107.951 116.826 107.869 117.01 107.845C117.706 107.63 118.449 107.63 119.143 107.845C119.486 107.98 119.798 108.183 120.06 108.442C120.637 109.039 121.147 109.701 121.681 110.34C121.785 110.423 121.923 110.453 122.054 110.42C122.184 110.387 122.291 110.293 122.341 110.169C122.431 110.007 122.503 109.836 122.555 109.658C123.323 106.992 124.09 104.347 124.837 101.682C124.862 101.57 124.862 101.452 124.837 101.341C124.008 101.375 123.235 100.926 122.853 100.189C121.675 98.54 120.942 96.6158 120.722 94.6018C120.722 93.7709 120.594 92.9384 120.55 92.1074V92.1059C120.518 90.9042 120.774 89.712 121.297 88.6297C121.641 87.8616 122.255 87.2458 123.025 86.9034C123.276 86.7777 123.555 86.7259 123.835 86.7542C124.199 86.7981 124.556 86.8845 124.902 87.0086C125.268 87.0825 125.582 87.3181 125.755 87.6495C126.199 88.314 126.565 89.0303 126.842 89.7811C127.487 91.8059 127.861 93.9077 127.95 96.0297V100.296C127.925 100.948 127.603 101.552 127.076 101.937L126.479 102.47C126.138 103.855 125.797 105.178 125.454 106.522C125.454 106.522 125.454 106.736 125.582 106.756C125.709 106.778 126.009 106.906 126.072 106.756C126.691 106.095 127.288 105.391 127.885 104.623L127.886 104.625C128.203 104.172 128.546 103.737 128.91 103.323C129.118 103.145 129.383 103.046 129.656 103.046C130.622 102.905 131.54 103.511 131.79 104.454C132.214 105.687 132.258 107.019 131.915 108.279C131.574 109.537 130.861 110.665 129.87 111.513C129.166 112.239 128.398 112.898 127.737 113.646V113.644C126.642 114.775 125.411 115.763 124.069 116.588C123.681 116.846 123.395 117.231 123.259 117.675C123.207 117.848 123.227 118.035 123.317 118.192C123.405 118.349 123.554 118.462 123.728 118.508H126.223C127.262 118.548 128.172 119.214 128.527 120.191C128.858 121.263 128.726 122.422 128.164 123.391C126.972 125.483 125.343 127.295 123.387 128.7C122.676 129.291 121.793 129.637 120.871 129.682C120.316 129.682 120.06 130.109 119.911 130.557C119.528 131.793 119.207 133.031 118.867 134.247C119.101 134.823 119.57 134.801 120.018 134.908V134.907C120.61 134.996 121.138 135.332 121.471 135.832C121.804 136.331 121.911 136.947 121.766 137.53C121.766 137.786 121.617 138.042 121.532 138.318C120.53 142.22 121.085 141.026 118.504 144.055C118.029 144.621 117.459 145.096 116.818 145.462L113.235 147.596C112.833 147.86 112.695 148.384 112.916 148.811C113.958 150.841 114.834 152.952 115.54 155.123C115.54 155.123 115.54 155.314 115.646 155.379C117.31 158.897 118.973 162.374 120.359 166.041C120.442 166.318 120.673 166.524 120.956 166.576C121.682 166.576 122.513 165.936 122.406 165.275C122.107 163.142 121.787 161.01 121.468 158.706C121.358 158.164 121.279 157.616 121.234 157.064C121.207 155.951 120.826 154.875 120.145 153.993C119.333 152.861 118.941 151.48 119.036 150.09C119.137 148.526 119.358 146.972 119.698 145.442C119.806 145.082 119.995 144.754 120.252 144.482C120.466 144.181 120.8 143.986 121.168 143.95C121.535 143.912 121.901 144.036 122.172 144.291C122.8 144.858 123.246 145.601 123.45 146.422C123.769 147.482 123.948 148.579 123.984 149.685V152.99C123.984 153.224 124.091 153.352 124.325 153.352C124.402 153.378 124.484 153.378 124.559 153.352L126.265 151.219L126.267 151.221C126.557 150.992 126.952 150.943 127.289 151.092C127.825 151.287 128.247 151.708 128.441 152.243C128.855 153.475 128.923 154.796 128.634 156.062C128.351 157.98 127.737 159.834 126.821 161.543C126.766 161.802 126.766 162.07 126.821 162.331C126.204 162.202 125.577 162.498 125.285 163.057C125.252 163.139 125.252 163.23 125.285 163.313C125.285 163.527 125.477 163.611 125.648 163.547C126.224 163.313 126.757 163.035 126.842 162.311H127.61C129.251 160.819 130.915 159.347 132.451 157.747C133.986 156.148 135.159 154.719 136.481 153.184V153.183C136.805 152.733 137.097 152.264 137.355 151.775C137.408 151.601 137.408 151.415 137.355 151.241C137.3 151.064 137.213 150.899 137.099 150.751C135.914 149.369 134.865 147.876 133.965 146.295C133.433 146.018 133.005 146.295 132.558 146.295C132.014 146.378 131.464 146.422 130.915 146.422C129.111 146.299 127.537 145.156 126.864 143.48C126.444 142.555 126.124 141.59 125.904 140.601C125.671 139.883 125.835 139.096 126.334 138.532C126.834 137.966 127.594 137.707 128.334 137.849C128.775 137.969 129.224 138.054 129.678 138.105C129.678 138.105 130.041 137.891 130.041 137.784V137.786C130.063 137.418 130.019 137.051 129.913 136.697C129.086 133.752 128.841 130.673 129.188 127.634C129.283 126.818 129.784 126.105 130.52 125.741C131.256 125.375 132.126 125.405 132.834 125.821C133.158 125.998 133.43 126.255 133.623 126.569C134.118 127.247 134.405 128.055 134.455 128.892C134.567 130.639 134.342 132.392 133.794 134.054C133.651 134.595 133.181 134.99 132.621 135.034C131.939 135.141 131.917 135.354 132.066 135.993C132.46 137.228 132.99 138.416 133.645 139.534C133.701 139.608 133.774 139.666 133.858 139.705C133.949 139.726 134.044 139.726 134.135 139.705H134.326C134.625 138.746 134.881 137.765 135.179 136.784C135.457 135.912 136.021 135.161 136.78 134.65C137.33 134.264 138.087 134.388 138.486 134.928C138.962 135.62 139.262 136.418 139.359 137.252C139.598 138.708 139.761 140.173 139.851 141.645C139.966 143.312 139.755 144.985 139.232 146.571C139.086 147.098 138.971 147.632 138.891 148.17C138.904 148.452 139.106 148.689 139.381 148.747H139.893C140.555 148.108 141.13 147.361 141.833 146.785C143.107 145.621 144.238 144.311 145.203 142.882C145.842 142.093 146.61 141.41 147.336 140.599V140.601C148.142 139.84 148.858 138.988 149.469 138.062C149.882 137.451 150.377 136.898 150.939 136.421C151.462 135.978 151.739 135.312 151.687 134.629C151.437 134.387 151.173 134.159 150.897 133.947C150.104 133.449 149.502 132.698 149.191 131.814C148.921 131.228 148.569 130.681 148.146 130.194C147.865 129.714 147.359 129.407 146.803 129.384C145.899 129.205 145.055 128.803 144.35 128.21C143.332 127.588 142.243 127.087 141.109 126.718C141.002 126.718 140.746 126.718 140.661 126.889V126.888C140.552 127.035 140.498 127.218 140.512 127.4C140.655 128.232 141.197 128.941 141.962 129.297C143.008 129.915 144.251 130.113 145.438 129.852C145.702 129.784 145.974 129.748 146.249 129.745C146.626 129.732 146.973 129.952 147.122 130.299C147.165 130.678 146.916 131.027 146.547 131.11C145.716 131.217 144.906 131.281 144.073 131.408C142.518 131.547 140.976 131.038 139.809 130.001C139.206 129.56 138.792 128.903 138.656 128.168C138.598 127.458 138.598 126.745 138.656 126.035C138.72 125.471 139.144 125.012 139.702 124.905C140.409 124.725 141.153 124.77 141.834 125.033L145.437 126.418C145.693 126.418 146.119 126.418 146.163 126.226C146.203 126.052 146.203 125.87 146.163 125.694C145.822 124.926 145.459 124.202 145.118 123.434C144.772 122.683 144.466 121.913 144.201 121.131C143.987 120.342 143.924 119.489 143.773 118.679L143.775 118.677C143.681 118.039 143.532 117.413 143.327 116.802C142.834 115.433 142.745 113.952 143.071 112.535C143.258 111.163 143.608 109.816 144.116 108.527C144.488 107.666 145.198 106.995 146.078 106.672C146.61 106.488 147.199 106.574 147.656 106.906C147.876 107.072 148.04 107.303 148.125 107.567C148.563 108.597 148.668 109.738 148.423 110.83C147.922 112.697 147.259 114.516 146.441 116.267C146.263 116.596 146.032 116.891 145.757 117.142C145.355 117.549 145.261 118.17 145.523 118.677C145.886 119.53 146.227 120.383 146.61 121.215C146.61 121.429 147.038 121.685 147.187 121.663C147.449 121.572 147.663 121.38 147.784 121.131C148.211 120.427 148.572 119.681 148.978 118.998C149.312 118.44 149.791 117.983 150.365 117.675C150.969 117.392 151.686 117.521 152.155 117.995C152.735 118.941 153.146 119.981 153.371 121.066C153.423 121.333 153.423 121.608 153.371 121.877C152.97 124.242 151.931 126.456 150.364 128.275C150.336 128.937 150.566 129.588 151.004 130.087C151.521 130.738 152.083 131.352 152.689 131.92C152.909 132.087 153.182 132.162 153.456 132.134C154.106 132.062 154.712 131.777 155.184 131.323C155.755 130.723 156.283 130.081 156.762 129.404C158.127 127.271 159.428 125.139 160.751 123.006H160.749C160.964 122.7 160.964 122.29 160.749 121.984C160.587 121.757 160.402 121.55 160.196 121.365C158.746 119.935 157.491 118.322 156.464 116.566C155.909 115.708 155.547 114.74 155.397 113.73C155.272 112.987 155.547 112.233 156.121 111.747C156.461 111.418 156.957 111.31 157.402 111.47C158.377 111.781 159.249 112.358 159.918 113.132L162.285 115.84V115.842C162.546 116.247 162.978 116.514 163.459 116.566C164.286 115.35 164.92 114.012 165.334 112.599C164.887 111.575 164.503 110.466 163.991 109.571C163.185 107.893 162.832 106.034 162.967 104.175C162.91 102.774 163.509 101.426 164.588 100.529C164.899 100.327 165.301 100.327 165.612 100.529C166.137 100.742 166.569 101.136 166.828 101.638C167.219 102.37 167.568 103.126 167.873 103.899C168.129 104.56 168.32 105.284 168.534 106.032C168.79 106.032 169.024 106.032 169.11 105.84L169.109 105.839C170.431 104.408 171.408 102.694 171.968 100.828C171.424 99.6216 171.093 98.3304 170.986 97.0109C170.986 95.539 170.986 94.0468 171.135 92.5751C171.244 91.3844 171.429 90.2016 171.69 89.0345C171.928 88.1454 172.235 87.2752 172.607 86.4332C172.764 86.0986 172.989 85.8002 173.268 85.5583C173.719 85.0729 174.393 84.8608 175.04 85.0007C175.689 85.1405 176.215 85.6117 176.424 86.2416C176.95 87.605 177.252 89.0455 177.319 90.5061C177.299 91.3323 177.192 92.1539 177 92.9581C176.374 95.275 175.524 97.5242 174.462 99.6764C174.104 100.427 173.824 101.213 173.631 102.022C173.636 102.155 173.696 102.279 173.798 102.364C173.9 102.449 174.032 102.488 174.164 102.469C174.526 102.342 174.845 102.193 175.208 102.086C175.89 101.885 176.627 102.073 177.129 102.574C177.632 103.077 177.819 103.814 177.618 104.496C177.302 105.749 176.696 106.911 175.849 107.887C174.495 109.277 172.993 110.515 171.371 111.575C170.675 112.035 169.875 112.315 169.046 112.386C168.493 112.47 168.003 112.789 167.701 113.261C167.181 113.889 166.79 114.613 166.55 115.394C166.423 115.841 166.55 116.162 167.082 116.119L167.084 116.118C168.538 115.851 169.936 115.339 171.22 114.604L175.484 112.471L175.486 112.472C175.809 112.302 176.153 112.174 176.508 112.087C176.97 111.965 177.46 112.105 177.789 112.45C177.96 112.642 178.172 112.94 178.129 113.132C177.591 116.198 175.582 118.804 172.756 120.106C171.257 120.826 169.72 121.46 168.149 122.004C166.804 122.582 165.307 122.709 163.884 122.367C163.708 122.494 163.545 122.637 163.394 122.794C162.668 123.967 161.88 125.097 161.261 126.312C161.03 126.817 160.68 127.255 160.238 127.591C159.126 128.427 158.239 129.526 157.658 130.791C157.497 131.022 157.471 131.32 157.59 131.575C157.708 131.829 157.953 132.002 158.233 132.027C159.883 132.288 161.57 132.193 163.181 131.751L164.225 131.41V131.408C164.601 130.676 165.014 129.965 165.463 129.277C165.952 128.609 166.501 127.987 167.105 127.421C167.646 126.845 168.231 126.309 168.853 125.821C169.693 125.078 170.782 124.674 171.903 124.691C172.36 124.732 172.811 124.825 173.246 124.968C173.666 125.112 174.008 125.422 174.194 125.824C174.379 126.228 174.391 126.689 174.228 127.101C174.113 127.354 174.029 127.618 173.972 127.889C173.972 128.017 174.099 128.188 174.206 128.317C174.313 128.444 174.398 128.317 174.483 128.317H174.484C175.194 128.097 175.758 127.55 175.998 126.845C176.122 126.51 176.229 126.168 176.317 125.821C176.738 124.385 177.703 123.169 179.005 122.431C179.537 122.09 180.114 121.792 180.69 121.471H180.689C181.347 121.132 182.082 120.97 182.822 121.002C183.488 121.005 184.085 121.408 184.336 122.026C184.719 122.783 184.719 123.678 184.336 124.435C184.017 124.991 183.614 125.496 183.142 125.928C181.65 127.186 180.156 128.422 178.557 129.531V129.532C177.695 130.059 176.779 130.495 175.827 130.833C175.562 130.907 175.282 130.907 175.017 130.833C174.379 130.72 173.722 130.858 173.182 131.216C172.953 131.386 172.898 131.705 173.055 131.942C173.843 132.837 174.633 133.712 175.4 134.63V134.628C175.815 135.278 175.815 136.111 175.4 136.761C175.139 137.148 174.847 137.511 174.527 137.848C173.771 138.692 172.632 139.08 171.52 138.872C170.135 138.693 168.828 138.133 167.745 137.251C167.452 137.02 167.175 136.771 166.913 136.505C166.076 135.783 165.083 135.264 164.013 134.991C163.746 134.927 163.468 134.927 163.203 134.991C162.736 135.022 162.273 135.087 161.816 135.183C160.012 135.588 158.14 135.588 156.335 135.183C155.589 134.996 154.807 135.294 154.373 135.93C153.824 136.874 153.101 137.707 152.242 138.382C151.964 138.616 151.752 138.916 151.623 139.257C150.619 141.133 149.403 142.886 147.997 144.482C146.973 145.676 146.1 146.976 145.14 148.234C145.043 148.391 145.035 148.588 145.117 148.753C145.2 148.918 145.362 149.028 145.545 149.045L146.376 149.152C146.844 149.194 147.297 148.971 147.55 148.575C147.806 148.187 148.034 147.78 148.231 147.361C148.827 146.307 149.541 145.327 150.365 144.439C151.434 143.282 152.776 142.408 154.266 141.901C155.401 141.474 156.651 141.474 157.785 141.901C157.961 141.965 158.112 142.085 158.212 142.242C159.065 143.542 159.065 143.97 158.212 144.95C157.187 146.139 156.027 147.206 154.758 148.128C154.628 148.242 154.579 148.423 154.636 148.586C154.691 148.751 154.841 148.864 155.013 148.874H157.743C159.494 146.384 161.85 144.381 164.588 143.052C165.686 142.564 166.864 142.281 168.064 142.221C168.62 142.172 169.176 142.29 169.663 142.562C170.241 142.871 170.643 143.429 170.755 144.075C170.868 144.72 170.678 145.38 170.24 145.867C169.324 146.791 168.265 147.56 167.104 148.149C166.299 148.581 165.535 149.089 164.824 149.664C164.995 149.855 165.08 150.069 165.229 150.133V150.132C166.787 150.939 168.49 151.432 170.24 151.583C170.895 151.662 171.553 151.459 172.052 151.029C172.522 150.601 173.034 150.198 173.524 149.77C175.262 148.239 177.294 147.078 179.495 146.357C180.728 145.903 182.096 146.004 183.249 146.635C183.551 146.83 183.818 147.075 184.038 147.361C184.294 147.645 184.36 148.054 184.207 148.405C184.055 148.943 183.761 149.428 183.354 149.813C182.544 150.575 181.586 151.162 180.54 151.539L174.291 153.672L173.609 153.971C173.736 154.759 174.44 154.995 174.889 155.443C175.329 155.915 175.639 156.497 175.785 157.127C175.917 157.778 175.617 158.441 175.039 158.77C173.421 159.469 171.644 159.712 169.899 159.473C169.089 159.324 168.258 159.239 167.425 159.11C166.146 158.898 165.07 158.033 164.588 156.828C163.775 155.281 163.255 153.597 163.054 151.86C162.449 151.385 161.687 151.158 160.92 151.221C160.737 151.238 160.572 151.34 160.473 151.497C160.399 151.652 160.399 151.833 160.473 151.989C160.642 152.207 160.836 152.408 161.049 152.586C161.577 153.106 161.979 153.74 162.221 154.441C162.435 154.97 162.326 155.573 161.945 155.997C161.624 156.456 161.158 156.794 160.622 156.957C158.827 157.435 156.937 157.435 155.141 156.957C154.611 156.791 154.127 156.498 153.734 156.104C152.3 155.146 151.709 153.33 152.305 151.711C152.316 151.618 152.316 151.525 152.305 151.434C151.821 150.975 151.062 150.975 150.578 151.434C150.215 151.733 149.939 152.116 149.576 152.372H149.575C149.278 152.615 148.85 152.615 148.552 152.372C147.869 151.736 146.94 151.431 146.014 151.539H144.074C142.853 151.484 141.68 152.015 140.916 152.969C139.253 154.953 137.525 156.871 135.862 158.855H135.863C134.398 160.52 132.777 162.04 131.022 163.397C129.742 164.464 128.421 165.531 127.141 166.511C127.01 166.629 126.954 166.808 126.991 166.98C127.064 167.144 127.203 167.268 127.376 167.321C128.016 167.434 128.656 167.521 129.296 167.577H129.294C129.668 167.601 130.021 167.4 130.191 167.065C130.383 166.745 130.532 166.384 130.724 166.083V166.085C132.034 163.947 133.908 162.213 136.14 161.073C137.695 160.165 139.619 160.165 141.173 161.073L141.876 161.5C142.227 161.819 142.33 162.328 142.133 162.758C141.936 163.066 141.716 163.358 141.471 163.631C140.596 164.462 139.701 165.273 138.87 166.126C138.699 166.275 138.721 166.596 138.656 166.852H139.467C139.555 166.894 139.657 166.894 139.745 166.852C140.684 166.104 141.875 165.746 143.072 165.849C143.548 165.856 143.995 165.623 144.266 165.23C144.31 165.152 144.368 165.08 144.437 165.018C145.898 163.086 147.974 161.71 150.323 161.115C150.841 160.901 151.424 160.901 151.942 161.115C152.453 161.332 152.951 161.574 153.436 161.841C154.063 162.153 154.495 162.755 154.594 163.449C154.691 164.144 154.441 164.842 153.926 165.317C153.705 165.491 153.499 165.684 153.307 165.892C152.569 166.737 151.557 167.295 150.45 167.47C149.107 167.769 147.742 168.047 146.397 168.301L143.05 168.878C143.05 169.198 143.177 169.517 143.348 169.646C143.945 170.094 144.607 170.435 145.183 170.862C145.406 171.03 145.551 171.283 145.584 171.561C145.615 171.839 145.532 172.117 145.353 172.332C144.417 173.509 143.017 174.223 141.515 174.294C139.08 174.404 136.712 173.501 134.968 171.8C134.371 171.245 133.837 170.584 133.283 169.965H131.043C128.74 170.114 126.437 169.965 124.113 169.965C123.929 169.944 123.744 169.944 123.558 169.965C123.023 169.922 122.504 170.163 122.19 170.6C121.876 171.035 121.813 171.603 122.024 172.098C122.429 173.697 122.663 175.34 123.026 176.982C123.239 177.964 123.495 178.944 123.794 179.926C124.542 182.404 124.966 184.971 125.052 187.559C125.052 189.031 125.329 190.481 125.542 191.953C125.977 194.639 126.199 197.357 126.203 200.077C126.235 200.632 126.235 201.186 126.203 201.741C126.144 201.896 126.04 202.03 125.905 202.125C125.756 202.275 125.372 202.125 125.223 201.827L125.222 201.825C124.985 201.434 124.785 201.02 124.625 200.589C124.326 199.523 124.07 198.456 123.857 197.369C123.536 195.812 123.302 194.276 122.982 192.72H122.983C122.613 191.006 122.371 189.267 122.258 187.517C122.135 185.767 121.821 184.036 121.32 182.355C120.552 179.797 119.912 177.195 118.888 174.699C118.811 174.533 118.668 174.407 118.492 174.355C118.316 174.302 118.128 174.327 117.971 174.423C114.327 176.972 111.165 180.15 108.631 183.805C108.225 184.424 107.778 184.999 107.33 185.596V185.598C104.834 188.827 102.589 192.242 100.612 195.812C100.408 196.216 100.236 196.637 100.1 197.07C99.5453 198.542 99.0332 200.035 98.4787 201.506H98.4803C98.3389 201.844 98.1017 202.135 97.797 202.337C97.3148 202.637 96.7147 202.677 96.1979 202.444C95.8775 202.295 95.6859 201.462 95.8351 200.909C95.9843 200.355 96.1115 200.034 96.2623 199.587C96.6032 198.542 97.0085 197.454 97.2865 196.431H97.2849C97.7672 194.962 98.3656 193.536 99.0772 192.165C99.228 191.829 99.4212 191.513 99.6521 191.227C101.033 189.399 102.315 187.498 103.491 185.533C106.286 181.512 109.495 177.795 113.067 174.443L116.884 170.818C117.235 170.501 117.403 170.028 117.331 169.56C117.202 168.46 116.923 167.384 116.5 166.362C115.328 163.152 113.962 160.019 112.405 156.978C111.744 155.655 111.125 154.312 110.443 153.011C110.266 152.551 109.934 152.168 109.505 151.924C107.87 152.495 106.16 152.818 104.429 152.884C104.151 152.914 103.877 152.986 103.618 153.098C103.255 153.168 102.965 153.442 102.872 153.801C102.701 154.527 102.551 155.251 102.339 155.935V155.933C101.556 158.143 99.8968 159.932 97.7544 160.881C96.7522 161.442 95.5082 161.332 94.6191 160.603C94.2437 160.324 94.0034 159.898 93.9578 159.431C93.8651 158.784 94.0096 158.124 94.3631 157.576C94.9395 156.745 95.5365 155.913 96.1333 155.102C96.4019 154.728 96.6941 154.372 97.0083 154.036C97.1575 153.822 97.0083 153.396 96.859 153.332C96.6014 153.23 96.3375 153.145 96.0689 153.076L94.7039 152.862H94.7055C93.7206 152.598 92.7138 152.427 91.6974 152.35C90.6528 152.35 90.1188 153.524 89.2658 154.078H89.2674C87.1594 155.405 84.9494 156.56 82.6561 157.532C82.0513 157.766 81.4309 157.96 80.801 158.109C79.0857 158.717 77.1756 158.106 76.1311 156.617C75.1289 155.423 75.1714 154.655 76.1311 153.396C76.6558 152.886 77.2103 152.408 77.7946 151.967V151.455C77.7946 151.284 77.6673 151.328 77.6029 151.328H75.9379C72.4712 151.139 69.2635 149.43 67.1744 146.656C66.6969 146.132 66.4487 145.439 66.4849 144.73C66.521 144.022 66.8383 143.356 67.3661 142.882C67.6755 142.544 68.018 142.236 68.3887 141.966C68.6007 141.784 68.8599 141.666 69.1364 141.623C70.1448 141.427 71.191 141.626 72.0565 142.178C73.0257 143.035 74.1095 143.753 75.2782 144.311C75.6913 144.514 76.0542 144.806 76.3432 145.164C77.1317 145.952 77.8778 146.763 78.7104 147.638L81.9085 147.894C82.1221 147.894 82.3986 147.446 82.3137 147.275H82.3153C82.13 146.852 81.9242 146.439 81.6964 146.039C81.2629 145.329 80.9801 144.537 80.8655 143.714C80.7948 143.202 80.966 142.687 81.3304 142.318C81.6932 141.95 82.2069 141.773 82.7205 141.837C83.9253 141.931 85.0689 142.41 85.9831 143.202C87.9623 144.396 89.687 145.968 91.0583 147.83C91.5264 148.552 92.1013 149.199 92.7642 149.749C94.0145 149.93 95.2759 150.022 96.5388 150.027C96.666 150.027 96.7948 149.835 96.9016 149.707C96.9519 149.628 96.9519 149.529 96.9016 149.451C96.4319 148.896 95.9199 148.342 95.4722 147.765C94.6397 146.772 94.0349 145.607 93.7019 144.353C93.4663 143.603 93.6627 142.783 94.214 142.222C94.6051 141.675 95.2978 141.435 95.9419 141.623C96.6754 141.82 97.3902 142.084 98.075 142.413C98.8855 142.819 99.6317 143.395 100.442 143.843C101.253 144.291 102.106 145.25 103.108 145.783C103.79 146.252 104.401 146.821 104.921 147.467C105.217 147.826 105.378 148.28 105.368 148.747C105.373 148.928 105.45 149.099 105.583 149.223C105.715 149.347 105.891 149.414 106.072 149.408H106.903C108.417 149.408 108.758 148.769 108.012 147.511C106.732 145.378 105.879 142.99 104.642 140.836V140.835C103.42 138.367 102.074 135.961 100.612 133.626C99.3758 131.898 98.1176 130.192 96.9018 128.466C96.4117 127.784 95.9845 127.059 95.4943 126.333C95.2572 126.061 94.976 125.83 94.6618 125.651C94.4937 125.631 94.3257 125.694 94.2141 125.821C94.1293 126.079 94.1293 126.355 94.2141 126.611C94.632 127.645 94.7718 128.769 94.6194 129.874C94.5613 130.807 94.1497 131.685 93.468 132.326C92.9528 132.893 92.1155 133.034 91.4417 132.666C89.7782 131.824 88.6142 130.241 88.3079 128.402C88.2011 127.591 87.9027 127.442 87.1989 127.571C85.8339 127.827 84.5553 128.317 83.1902 128.702C83.041 129.533 82.9342 130.259 82.785 130.962L82.7834 130.961C82.6813 131.603 82.3829 132.2 81.9305 132.667C80.3298 134.384 78.3412 135.694 76.131 136.485C75.5923 136.623 75.0425 136.708 74.488 136.74C73.2518 136.74 73.0806 136.419 72.7821 135.397C72.6863 135.136 72.6863 134.848 72.7821 134.586C73.1434 133.834 73.668 133.171 74.3184 132.646C75.0582 132.112 75.6221 131.369 75.9378 130.513C75.985 130.433 75.985 130.332 75.9347 130.252C75.886 130.172 75.798 130.125 75.7038 130.13C75.0661 130.054 74.422 130.054 73.7843 130.13C71.9025 130.598 69.983 130.896 68.0476 131.025C67.4727 131.083 67.0187 131.537 66.9606 132.112C66.8114 132.838 66.7046 133.562 66.5978 134.245C66.3731 135.736 65.5563 137.074 64.3311 137.954C63.1059 138.834 61.5775 139.181 60.0931 138.915C59.5606 138.794 59.0454 138.609 58.5585 138.361C57.7809 138.028 57.2437 137.304 57.151 136.463C56.9955 135.926 57.1243 135.348 57.4919 134.929C58.3228 134.076 59.1774 133.223 60.0083 132.348C60.046 132.312 60.0759 132.268 60.0931 132.219C60.0931 132.07 59.8795 131.856 59.7523 131.856L54.784 131.707C54.5029 131.73 54.2264 131.774 53.9515 131.836C53.8023 132.07 53.5682 132.263 53.5038 132.517C52.8645 134.071 51.7524 135.384 50.3261 136.272C49.6491 136.777 48.9376 137.235 48.1946 137.637C47.3903 138.1 46.4949 138.384 45.5714 138.468C43.4618 138.708 41.522 137.288 41.1134 135.205C40.9626 134.665 41.148 134.087 41.5831 133.733C42.4769 133.075 43.4696 132.565 44.5252 132.219C44.8708 132.1 45.1944 131.927 45.4849 131.707C45.5917 131.707 45.5917 131.386 45.6122 131.217C45.6342 131.046 45.5053 131.09 45.4205 131.09H45.4221C45.0624 131.011 44.6995 130.954 44.3336 130.918H42.2004H42.202C40.4568 131.112 38.6976 130.73 37.1895 129.831C34.0479 131.435 30.4934 132.045 26.9965 131.58C25.9896 131.427 25.033 131.039 24.2021 130.449C23.8957 130.238 23.6413 129.962 23.4559 129.64C23.1355 129.085 22.8574 128.507 22.625 127.912C22.5024 127.549 22.603 127.15 22.8794 126.888C23.1606 126.515 23.5722 126.264 24.0324 126.184C24.4015 126.164 24.7707 126.164 25.1414 126.184C29.2993 126.021 33.4633 126.327 37.5521 127.101C38.3626 127.273 39.1936 127.335 40.0041 127.442C40.1958 127.676 40.3874 127.89 40.5366 128.103H40.5382C40.7503 128.414 41.0833 128.622 41.454 128.68C41.6393 128.691 41.8247 128.691 42.0084 128.68L46.4226 128.488C46.4226 128.488 46.6362 128.488 46.6362 128.361V127.891C45.9969 127.359 45.3356 126.867 44.6963 126.313C44.0522 125.75 43.5904 125.007 43.3736 124.18C43.248 123.821 43.3045 123.424 43.5229 123.113C43.958 122.351 44.7779 121.891 45.656 121.919C47.4153 121.893 49.1636 122.219 50.7955 122.879C51.4961 123.148 52.104 123.614 52.5438 124.222C53.034 124.883 53.5256 125.565 53.9937 126.248C54.2953 126.731 54.2953 127.343 53.9937 127.827C53.8665 128.061 53.6733 128.275 53.4816 128.553V128.551C53.6968 128.691 53.9246 128.806 54.1649 128.892C55.2425 129.179 56.3578 129.288 57.4699 129.212C59.4962 129.212 61.5225 128.914 63.5472 128.743C63.6744 128.743 63.91 128.572 63.91 128.487C63.9038 128.309 63.8268 128.141 63.698 128.019C62.5042 126.994 61.2884 126.014 60.115 124.97V124.968C59.7082 124.594 59.35 124.172 59.0484 123.71C58.8756 123.386 58.7673 123.031 58.728 122.665C58.6652 122.395 58.7201 122.111 58.8788 121.883C59.0374 121.657 59.2856 121.506 59.5605 121.472C60.8376 121.264 62.1413 121.314 63.398 121.621C65.9552 122.161 68.2846 123.471 70.074 125.373C70.3788 125.711 70.6301 126.093 70.8202 126.504C71.4391 127.741 71.4595 127.827 72.6109 127.678L77.793 126.932L77.7946 126.93C78.0648 126.864 78.324 126.757 78.5611 126.611C78.6428 126.559 78.6915 126.471 78.6915 126.376C78.6915 126.281 78.6428 126.192 78.5611 126.141L76.8552 124.756C75.7478 123.916 74.8619 122.818 74.2744 121.556C74.1346 121.217 74.0482 120.857 74.0199 120.49C73.9445 120.124 74.0231 119.744 74.2367 119.437C74.4503 119.131 74.7802 118.927 75.1493 118.87C76.1452 118.644 77.1835 118.69 78.1558 118.998C81.5283 120.022 84.5725 121.911 86.9853 124.478C87.0937 124.63 87.268 124.72 87.455 124.72C87.6403 124.72 87.8162 124.63 87.9231 124.478C88.5341 123.523 89.6054 122.964 90.7379 123.006C90.9139 123.012 91.0867 122.961 91.2296 122.857C91.5501 122.686 91.8485 122.474 92.0826 122.324C92.1187 121.919 91.9694 121.519 91.6773 121.236C89.2253 117.867 86.7935 114.497 84.2774 111.17C82.727 109.106 80.9929 107.185 79.0952 105.434C78.5439 104.923 77.7287 104.82 77.0689 105.179C76.3134 105.368 75.6677 105.856 75.2813 106.533C74.8949 107.209 74.8007 108.015 75.0222 108.761C75.0536 109.222 75.0536 109.686 75.0222 110.148C75.0143 111.079 74.7237 111.985 74.1897 112.749C73.522 113.765 72.4178 114.412 71.2036 114.497C70.7386 114.53 70.2972 114.288 70.0742 113.88C69.6453 113.03 69.694 112.019 70.2014 111.214C70.5548 110.674 70.9475 110.16 71.3748 109.678C71.7408 109.146 71.967 108.53 72.0361 107.887C71.9858 107.727 71.8696 107.595 71.7156 107.524C70.9004 107.622 70.0946 107.785 69.306 108.015C68.4374 108.348 67.5043 108.486 66.576 108.42C65.9288 108.333 65.2864 108.604 64.8921 109.124C64.6376 109.405 64.2685 109.556 63.8899 109.529H62.2484H62.2469C62.0662 109.578 61.9217 109.714 61.8636 109.892C61.672 110.705 61.672 111.552 61.8636 112.366C62.0662 112.988 61.9374 113.671 61.5227 114.178C60.6541 115.564 59.421 116.684 57.9617 117.419C56.7883 117.973 55.6589 118.592 54.4432 119.04H54.4416C52.8189 119.77 50.9403 119.642 49.4307 118.699C49.3129 118.57 49.2124 118.427 49.1323 118.272C48.4066 116.139 48.4506 115.947 49.9428 114.668L53.0781 111.981C53.3074 111.817 53.4017 111.524 53.3122 111.257C53.1519 111.03 52.8833 110.908 52.6084 110.936H50.4753L44.3759 111.085H42.9905C42.7313 111.579 42.4328 112.05 42.0951 112.493C41.6474 112.966 41.162 113.401 40.6452 113.793C39.7923 114.497 38.875 115.137 38.0864 115.927H38.0848C36.7575 117.095 35.1066 117.838 33.3506 118.06C32.2432 118.22 31.1138 118.017 30.1305 117.483C29.898 117.339 29.6954 117.15 29.5336 116.929C29.02 116.318 28.8 115.512 28.932 114.725C29.0624 113.936 29.532 113.247 30.2169 112.834C30.8201 112.601 31.3557 112.22 31.7735 111.725C31.8395 111.576 31.8395 111.406 31.7735 111.257C30.3441 110.873 28.9163 110.489 27.509 110.17C27.2954 110.17 26.8477 110.319 26.8273 110.468L26.8257 110.467C26.3011 112.378 24.8638 113.903 22.9867 114.541C21.2337 115.404 19.3676 116.015 17.4418 116.354C16.3328 116.546 15.3087 116.824 14.1573 116.93L14.1589 116.929C13.2431 117.014 12.3226 117.014 11.4068 116.929C10.4486 116.833 9.62394 116.206 9.27522 115.308C8.67674 114.189 9.09615 112.796 10.213 112.195C10.513 111.987 10.8444 111.829 11.1947 111.725C12.134 111.34 13.1032 111.034 14.0944 110.809C15.8427 110.489 17.4213 109.7 19.1274 109.295C19.341 109.295 19.4902 108.932 19.7667 108.634C18.1252 108.206 16.6313 107.803 15.1173 107.46H15.1189C14.7576 107.451 14.401 107.523 14.0727 107.674C13.8041 107.754 13.5135 107.707 13.2842 107.545C13.0706 107.371 12.8695 107.177 12.6873 106.97C12.2522 106.475 11.682 106.119 11.0458 105.946C10.5133 105.797 9.95884 105.69 9.44673 105.519L9.44516 105.52C8.81841 105.351 8.21679 105.099 7.65446 104.774C6.15434 103.863 4.72809 102.836 3.38994 101.703C2.09559 100.519 1.06989 99.0721 0.38186 97.4588C0.257768 96.9954 0.469827 96.5084 0.893926 96.2854C1.32902 96.1047 1.78929 95.9963 2.25893 95.9665C3.27208 95.9052 4.2837 96.0733 5.22302 96.4566C7.80072 97.5169 10.0517 99.2369 11.7495 101.447C12.1547 101.959 12.5176 102.492 12.9009 103.026V103.024C13.325 103.652 14.0695 103.984 14.8204 103.877H15.0968C15.6404 103.728 16.2184 103.932 16.5467 104.389C17.2159 105.182 18.2212 105.61 19.2548 105.54C19.4684 105.54 19.7244 105.178 19.638 104.964C19.382 104.26 19.126 103.579 18.8919 102.831L18.8935 102.832C18.7332 102.402 18.6044 101.961 18.5086 101.51C18.317 100.401 18.9987 99.7615 20.1501 100.018H20.1517C20.6009 100.104 21.0282 100.278 21.4099 100.53C22.8582 101.524 24.2263 102.628 25.5035 103.835C26.3564 104.688 27.2737 105.456 28.1471 106.287H28.1487C28.7943 106.849 29.5106 107.322 30.2803 107.696C31.0955 108.132 32.0018 108.373 32.9255 108.399C34.3109 108.399 35.6759 108.633 37.0629 108.676C38.4484 108.718 39.1961 108.676 40.3899 108.676C40.3899 108.676 40.5815 108.462 40.6459 108.313C40.7103 108.164 40.6459 108.142 40.5391 108.099C39.7081 107.523 38.8332 106.99 38.0007 106.393C36.5618 105.368 35.4638 103.934 34.8449 102.278C34.6219 101.788 34.6769 101.216 34.9894 100.778C35.3005 100.338 35.822 100.098 36.3592 100.145C36.455 100.162 36.5477 100.192 36.6356 100.231C38.5347 100.61 40.3773 101.233 42.1162 102.086C43.8801 103.082 45.5373 104.254 47.0643 105.583C47.4978 105.916 47.9706 106.196 48.4717 106.416C48.9618 106.65 49.0262 107.034 48.877 107.567C48.7278 108.099 48.877 108.377 49.2603 108.377H52.0107C52.928 108.377 54.3999 108.079 55.5937 107.95C56.2126 107.95 56.7671 107.587 56.7451 107.353H56.7467C56.6697 106.994 56.4341 106.689 56.1058 106.522L54.5711 105.349C53.5171 104.59 52.5715 103.693 51.7562 102.683C51.3572 102.178 51.0211 101.626 50.7541 101.042C50.5546 100.662 50.5656 100.208 50.7823 99.8386C50.9991 99.4695 51.3918 99.2386 51.8206 99.2292C52.4552 99.1223 53.104 99.1223 53.7385 99.2292C57.1943 99.9391 60.3973 101.559 63.0155 103.921C63.7617 104.647 64.657 105.095 65.4251 105.776C65.854 106.149 66.4524 106.255 66.9818 106.053C68.3688 105.559 69.7967 105.189 71.2479 104.944C71.8951 104.854 72.4999 104.564 72.9742 104.113C73.0685 103.981 73.1203 103.825 73.1235 103.665C73.1235 103.665 73.1235 103.494 72.9318 103.473V103.472C72.1574 103.164 71.3343 102.991 70.5002 102.961C68.8477 102.732 67.2942 102.038 66.0218 100.955C64.7683 99.9863 63.8682 98.6291 63.4629 97.096C63.3656 96.785 63.4064 96.4457 63.5729 96.1661C63.7394 95.8849 64.0175 95.6886 64.3379 95.6242C65.2034 95.299 66.149 95.2472 67.0459 95.4749C67.7716 95.6666 68.4534 95.9022 69.1791 96.1567C69.9048 96.4127 70.5441 96.7332 71.3122 96.9876C71.4394 96.9876 71.6327 96.9876 71.8023 96.8384V96.84C71.84 96.7599 71.84 96.6656 71.8023 96.5839C69.3283 93.0229 67.1103 89.2906 64.4024 85.9212C63.3155 84.5562 62.2693 83.1064 61.3096 81.6567C60.3498 80.2068 59.5817 79.5235 58.878 78.5009C57.8899 78.402 56.894 78.5779 55.9987 79.0114C55.4693 79.2047 55.075 79.6555 54.9541 80.2068C54.5896 81.5483 54.4027 82.9322 54.3996 84.3222C54.42 85.0479 54.3038 85.7705 54.0587 86.4537C53.5734 87.9224 52.5068 89.1288 51.1088 89.7886C49.7092 90.4498 48.1023 90.5096 46.6589 89.9519C45.9238 89.7713 45.3206 89.2498 45.0331 88.5508C44.7472 87.8502 44.8116 87.0553 45.209 86.4113C45.6991 85.4296 46.34 84.5138 46.9149 83.5745V83.576C47.0689 83.342 47.2118 83.1001 47.3422 82.8503C47.3422 82.7231 47.3422 82.5299 47.2149 82.3807H47.2134C47.1505 82.3147 47.0689 82.2691 46.9793 82.2534C46.8882 82.233 46.7924 82.233 46.7013 82.2534L36.5288 84.9191C36.356 84.9835 36.1911 85.0683 36.0387 85.1751C35.891 85.2835 35.7669 85.4217 35.6758 85.5804C35.6051 85.7437 35.5549 85.9165 35.5266 86.0924C35.2171 88.0512 33.9542 89.7304 32.1572 90.5709C29.9346 91.8825 27.575 92.9491 25.1201 93.7486C24.0503 94.0439 22.9257 94.0879 21.8355 93.8758C21.3831 93.7659 20.9779 93.5114 20.6841 93.1501C20.4422 92.7511 20.4422 92.25 20.6841 91.8495C20.9637 91.3672 21.3894 90.9871 21.8999 90.7625C23.1581 90.208 24.4807 89.7179 25.6965 89.077C26.7238 88.4833 27.7213 87.8361 28.681 87.1371C28.714 87.0554 28.714 86.9627 28.681 86.8811C28.6496 86.8057 28.5978 86.7381 28.5318 86.6894C28.1705 86.6674 27.8061 86.6674 27.4448 86.6894C25.2363 86.9455 23.0106 87.0099 20.7909 86.8811C19.3207 86.8072 17.8472 86.8072 16.3768 86.8811C14.9238 86.9235 13.4771 86.6926 12.1107 86.1993C9.48745 85.4265 7.77376 82.9085 8.01704 80.1848C8.14585 79.269 8.52127 78.4066 9.10403 77.6904C9.78732 76.8657 11.0094 76.7526 11.8341 77.4343C13.0326 78.4506 14.0929 79.6193 14.9898 80.9105C15.5223 81.7634 16.1632 82.574 16.7601 83.3845V83.3829C17.3727 84.3207 18.4628 84.8328 19.575 84.7055C21.3233 84.5563 23.0731 84.4919 24.8215 84.3851V84.3867C24.9848 84.3301 25.1199 84.2154 25.2047 84.0662C25.2817 83.9044 25.2817 83.7159 25.2047 83.5542C24.9534 83.2855 24.6738 83.0421 24.3738 82.83L22.4119 81.2953V81.2938C21.4678 80.5398 20.7343 79.5549 20.2787 78.4365C20.1107 77.7218 20.5191 76.9976 21.2165 76.773C22.1385 76.6207 23.0857 76.7322 23.9465 77.0919C24.7775 77.4752 25.6744 77.7532 26.4629 78.2009C28.4029 79.2674 30.4088 80.1848 32.4132 81.1005V81.1021C32.842 81.2796 33.263 81.4791 33.6714 81.699C34.0546 81.9331 34.3971 82.2535 34.6955 82.4672C36.2836 82.3729 37.8481 82.0493 39.3437 81.5074C40.071 81.3393 40.7825 81.1194 41.4768 80.8461C41.4768 80.8461 41.648 80.4409 41.4768 80.3764C40.8155 79.7371 40.1542 79.1182 39.4505 78.5213C38.4389 77.5663 37.6142 76.4306 37.0204 75.174C36.9309 74.9179 36.8728 74.654 36.8492 74.3839C36.8178 73.8184 37.1288 73.289 37.6378 73.0409C38.0713 72.8869 38.5237 72.7943 38.9824 72.7628C40.5673 72.7346 42.1271 73.1555 43.4813 73.9786L50.0504 78.0939L56.065 76.0896H56.0634C56.4011 75.9105 56.5409 75.5006 56.3839 75.1518C56.277 74.9806 56.2126 74.811 56.1074 74.6617L51.1814 68.264H51.1798C49.8871 66.6979 48.7246 65.0297 47.7037 63.2736C47.3345 62.6327 46.9277 62.0138 46.4879 61.4185C45.6774 60.2027 45.2941 59.8194 43.4594 60.3519H43.461C42.9175 60.498 42.4714 60.8829 42.2452 61.3965C41.7127 62.6767 41.0718 63.9129 40.5817 65.1931C39.9 67.0278 38.8538 68.6693 38.0229 70.4175C37.4951 71.5548 36.2259 72.1485 35.0148 71.825C34.165 71.6757 33.5194 70.9783 33.4377 70.1191C33.2995 68.5294 33.6733 66.9382 34.5043 65.5763C35.1656 64.3825 35.9541 63.2311 36.6374 62.0577H36.6359C36.7003 61.8865 36.7003 61.6964 36.6359 61.5252C36.551 61.3744 36.4018 61.2723 36.2306 61.2472C35.5913 61.2472 34.9504 61.2472 34.3111 61.3744C33.6718 61.5016 32.8612 61.6305 32.0287 61.7797C31.5386 62.3562 31.0266 62.9955 30.5145 63.6348L30.5161 63.6364C29.9553 64.2505 29.4432 64.9072 28.9798 65.5983C28.4128 66.4371 27.7703 67.2209 27.0603 67.9435C25.7141 69.3698 23.8182 70.1457 21.8577 70.0766C21.5356 70.0358 21.2466 69.863 21.0566 69.6007C20.8665 69.3383 20.7942 69.0084 20.8555 68.6896C20.9686 68.3409 21.1194 68.0063 21.3032 67.6874C22.4122 66.0821 23.7473 64.6448 25.2694 63.4229L26.1224 62.7192C26.1475 62.6359 26.1475 62.5464 26.1224 62.4632C25.9951 62.4632 25.8019 62.2071 25.6951 62.2291C25.0134 62.5056 24.3725 62.848 23.6908 63.0821C22.9918 63.302 22.2802 63.4795 21.5592 63.6146C19.5015 64.0135 17.3996 64.1361 15.3106 63.9774C14.2911 63.8847 13.322 63.4999 12.5162 62.8684C11.9821 62.4679 11.7967 61.7516 12.0685 61.1405C12.4298 60.2405 13.2419 59.5996 14.2016 59.4566C16.5421 58.8708 18.9704 58.72 21.3675 59.009C23.2131 59.0231 25.0463 59.3184 26.8042 59.8823C27.1529 59.9891 27.5236 59.9891 27.8707 59.8823C29.696 59.587 31.4836 59.0938 33.2021 58.4121C33.2021 58.4121 33.3293 58.3053 33.4785 58.1561C33.4785 57.4099 33.4785 56.5994 33.6058 55.7669H33.6074C33.7896 53.8301 34.4493 51.9687 35.5269 50.3507C35.5269 50.2015 35.7405 50.0522 35.8473 49.903C36.0436 49.7019 36.3122 49.5888 36.5934 49.5888C36.8746 49.5888 37.1432 49.7019 37.3396 49.903C37.5579 50.1983 37.737 50.5203 37.8736 50.8627C38.3637 52.1429 38.8758 53.4436 39.2591 54.7646C39.6141 55.9144 40.3712 56.8993 41.3922 57.537C42.1305 57.5386 42.8468 57.2825 43.417 56.8113V56.5348C41.5478 53.6729 39.9 50.6711 38.491 47.5562C38.1281 46.8101 37.7448 46.0844 37.3176 45.4231C37.1903 45.2095 36.9123 45.0822 36.6987 44.8906L33.8194 45.8928H33.821C33.2523 47.1761 32.7889 48.5019 32.4355 49.859C32.1732 50.6444 31.8669 51.4141 31.5182 52.1634C31.1349 52.908 30.6056 53.5677 29.9615 54.1033C28.95 54.9531 27.5786 55.2343 26.3142 54.8495C25.4974 54.5856 25.0026 53.7546 25.1628 52.9095C25.4047 52.2105 25.7204 51.5382 26.1005 50.9052C26.9535 49.4758 27.8912 48.1108 28.8086 46.6407L28.8101 46.6391C28.8557 46.515 28.8478 46.3768 28.7866 46.259C28.7253 46.1412 28.6185 46.0548 28.4897 46.0218C27.3996 45.7249 26.2325 45.9715 25.3544 46.6831C23.4993 48.1973 21.3018 49.2419 19.5328 50.9476C18.3296 52.0142 16.696 52.4556 15.1187 52.1414C14.671 52.0472 14.2831 51.7691 14.0522 51.3733C13.2872 49.8292 13.6956 47.9615 15.0324 46.8743C16.2937 45.9146 17.7498 45.2454 19.2985 44.9124L20.4075 44.7632C20.4075 44.5291 20.4075 44.2935 20.2362 44.2087C16.8936 41.5619 14.432 37.9617 13.177 33.887C12.8879 33.0074 12.8078 32.0727 12.9429 31.1569C13.1094 30.5066 13.5744 29.9726 14.1949 29.7165C14.8169 29.4605 15.5222 29.5123 16.0987 29.8563C17.239 30.7941 18.2428 31.8842 19.0848 33.0969C20.343 35.0368 21.708 36.8935 23.0306 38.791H23.029C23.7987 39.9706 24.7993 40.9791 25.9727 41.7551C26.3811 41.9765 26.6701 42.3661 26.7612 42.8216C26.8068 43.4923 27.3707 44.0075 28.0414 43.995C28.6807 43.995 29.342 44.1662 29.9813 44.1866C30.4384 44.2338 30.9003 44.1678 31.3259 43.995C32.0878 43.6714 32.892 43.4546 33.7136 43.3557C34.0701 43.2395 34.4063 43.0745 34.7157 42.864C35.2498 42.6551 35.531 42.0676 35.3566 41.521C35.0488 40.1686 34.5618 38.8632 33.9052 37.6396C33.7293 37.316 33.4418 37.0663 33.0963 36.9359C30.1526 35.8112 27.5011 34.0394 25.3333 31.7537C24.7144 31.1772 24.1394 30.5803 23.5206 30.0258C21.9121 28.4974 20.5329 26.746 19.4253 24.8232C19.328 24.6708 19.2761 24.4933 19.2761 24.3111C19.284 24.0346 19.3908 23.7707 19.5746 23.565C20.1448 23.0293 20.9647 22.8487 21.7077 23.0953C23.5848 23.6121 25.3253 24.5373 26.8034 25.8033C27.6564 26.5071 28.5093 27.2328 29.3843 27.9365C29.8257 28.2585 30.2969 28.5365 30.7917 28.7674C30.9582 28.8193 31.1373 28.8193 31.3037 28.7674V28.5114V28.513C31.2896 28.1485 31.2535 27.7841 31.1969 27.4244C30.8765 25.6965 30.5356 23.9703 30.1948 22.2422C30.1304 21.8825 30.044 21.526 29.9387 21.1757C29.9387 20.9197 29.7675 20.6432 29.6623 20.3872C29.1078 19.129 29.8963 17.5723 28.8313 16.4209H28.8297C28.4999 15.0684 28.3711 13.6736 28.4465 12.2835C28.4465 9.98066 28.5957 7.67794 28.6805 5.35327C28.7543 3.77618 29.2712 2.2541 30.1743 0.959667C30.4728 0.504142 30.944 0.19153 31.4781 0.0909996C32.0137 -0.00953125 32.5666 0.111419 33.0096 0.42715C33.3788 0.70675 33.7149 1.02877 34.0118 1.38533C34.2992 1.74033 34.516 2.14558 34.6527 2.58072C34.9009 3.57031 34.959 4.59761 34.8224 5.6092C34.4721 8.54502 33.8296 11.4368 32.9028 14.2456C32.3798 15.8557 32.0075 17.5129 31.7939 19.1937C31.6132 20.1048 31.7169 21.0504 32.0923 21.9018C32.284 22.329 32.4128 22.7547 32.6044 23.2872C32.8604 23.0736 33.1809 22.9668 33.2437 22.7752C33.7762 21.3033 34.2459 19.8111 34.7579 18.3188C35.1679 17.1879 35.7428 16.1244 36.4654 15.1631C36.8597 14.6965 37.4613 14.4562 38.0692 14.5254C38.6771 14.5945 39.2111 14.9605 39.4923 15.504C39.9934 16.4983 40.1442 17.634 39.9196 18.7241C39.296 21.5217 38.498 24.2782 37.5304 26.9769C37.1031 28.0858 36.2722 28.9812 35.9313 30.1546C35.7161 30.8096 35.4601 31.4505 35.1632 32.0741C35.1632 33.0338 36.0805 33.3543 36.3146 34.058C36.5486 34.7617 36.7623 35.2738 37.0183 35.8707C37.2743 36.4676 37.6372 37.1933 37.978 37.8546C38.3189 38.5159 38.7666 38.4939 39.065 38.153C39.7907 37.3221 40.5149 36.4676 41.1982 35.6146L41.1997 35.6131C41.4369 35.3115 41.4951 34.9031 41.349 34.5481C40.8667 33.0323 40.6641 31.4426 40.7505 29.8561C40.7505 28.9184 40.6232 28.001 40.5793 27.0837H40.5808C40.474 25.6071 40.474 24.1243 40.5808 22.6478C40.7191 21.3598 41.1495 20.1204 41.839 19.0225C42.0684 18.6549 42.4721 18.4318 42.9056 18.4318C43.3391 18.4318 43.7412 18.6549 43.9706 19.0225C44.5204 19.767 44.946 20.5948 45.2288 21.4745C45.4848 22.3635 45.8508 23.2149 46.3173 24.0129C46.553 24.4103 46.8483 24.77 47.1907 25.0794C47.285 25.1815 47.4153 25.2397 47.5536 25.2397C47.6918 25.2397 47.8237 25.1815 47.9164 25.0794C49.1526 23.4584 50.2836 21.9221 51.5638 20.4096C52.1403 19.6839 52.7372 18.9802 53.3765 18.2764C54.1666 17.4644 55.3117 17.103 56.4254 17.3167C57.093 17.3905 57.6019 17.9466 57.6192 18.6173C57.7998 21.0489 56.9579 23.446 55.2944 25.2286C54.1635 26.4444 53.1613 27.7875 52.0743 29.0252C50.9873 30.2614 49.8344 31.4773 48.6626 32.6506C47.4892 33.824 46.5294 34.5482 45.6137 35.4655V35.4639C45.422 35.6681 45.1786 35.8158 44.9099 35.8912C43.8371 36.1959 42.926 36.9075 42.3715 37.8751C41.7102 38.7705 41.0709 39.6878 40.452 40.6051V40.6036C40.1567 40.9711 40.0908 41.4738 40.2824 41.9058C41.2657 44.1944 42.4516 46.3919 43.8214 48.4732C43.9282 48.6445 44.2487 48.6445 44.5471 48.7293C44.5471 48.09 44.7183 47.5355 44.8456 47.0014C44.9901 46.1563 45.4472 45.3945 46.1258 44.8698C46.4085 44.6499 46.7494 44.5164 47.1059 44.485C48.2369 44.4473 49.2909 45.0599 49.814 46.0636C50.0276 46.5757 50.1768 47.1082 50.3465 47.6423H50.3481C50.4062 47.8167 50.5538 47.947 50.7345 47.9816C50.9167 48.0177 51.102 47.9517 51.2214 47.8119C51.8843 47.3203 52.4607 46.7218 52.9289 46.0417C53.1001 45.4228 52.6304 44.9751 52.5456 44.4426H52.544C52.4686 43.8975 52.3618 43.3556 52.2236 42.8216C51.955 41.8367 51.8764 40.8094 51.9895 39.7931C52.123 38.1422 52.4969 36.518 53.0985 34.974C53.4237 34.3159 53.8164 33.6954 54.2719 33.1189C54.5436 32.8582 54.9363 32.7686 55.2945 32.8849C56.3438 33.1488 57.1621 33.9687 57.4276 35.0164C57.7779 36.1066 57.957 37.2423 57.9617 38.3858C57.9947 39.1037 58.0874 39.8168 58.2382 40.5189C58.2382 40.7106 58.7283 40.8818 58.9419 40.753C59.9142 40.2174 60.7703 39.4932 61.4583 38.6214C61.5447 38.5115 61.5761 38.3701 61.5478 38.235C61.5195 38.0983 61.4316 37.9821 61.3091 37.9177C60.9572 37.7732 60.7357 37.4229 60.7546 37.0428C60.7546 36.204 60.819 35.373 60.9462 34.5483C61.02 33.9106 61.1269 33.276 61.2667 32.6492C61.7787 30.0904 61.8211 27.5097 62.184 24.9289V24.9304C62.2672 23.7288 62.6552 22.5695 63.3134 21.5611C63.5647 21.1637 63.9291 20.8527 64.358 20.6642C65.0554 20.3343 65.8895 20.606 66.2571 21.2831C66.3576 21.4433 66.4362 21.6145 66.4911 21.7951C67.1933 24.2833 67.4101 26.8812 67.1304 29.4512C67.1116 29.6287 67.1116 29.8077 67.1304 29.9836C67.1571 30.2538 67.2357 30.5146 67.366 30.7518C67.4729 30.9434 67.8357 30.879 68.0918 30.645H68.0902C68.3557 30.3984 68.6054 30.1345 68.8363 29.8564C70.4668 28.3296 72.1916 26.9049 73.998 25.5919C74.5116 25.1961 75.0536 24.8411 75.619 24.5254C76.139 24.139 76.8065 24.0117 77.4333 24.1767C78.06 24.3432 78.5768 24.7845 78.8391 25.3783L78.9664 25.6344C79.5146 26.2438 79.7675 27.0654 79.6559 27.879C79.546 28.6911 79.0826 29.4152 78.3915 29.8567C77.6029 30.6452 76.7924 31.3913 75.9599 32.117C75.6771 32.3495 75.3614 32.5364 75.0221 32.6715C74.4142 32.9071 73.8409 33.2229 73.3147 33.6093C71.8098 34.701 70.0725 35.4314 68.2395 35.7424L66.9813 35.9341C66.3184 36.3566 65.7702 36.9347 65.3822 37.6195C64.9549 38.43 64.2088 39.0489 64.0815 40.0715C64.38 40.0715 64.7005 40.2208 64.9125 40.0715C65.6885 39.7731 66.5131 39.6286 67.3441 39.6443C68.1578 39.6537 68.9306 40.0024 69.4772 40.604C69.9375 41.0973 69.9375 41.8607 69.4772 42.3539C68.307 43.5414 67.0362 44.6253 65.6806 45.5945L61.5227 48.3025C60.8802 48.7235 60.1514 48.9921 59.3895 49.0926C58.6748 49.2607 57.924 49.1853 57.2579 48.879C56.4317 48.4455 55.4751 48.3323 54.5703 48.5585C54.2389 48.6371 53.9357 48.8067 53.6954 49.0502C52.3571 50.4435 51.0973 51.9106 49.9208 53.4422C49.4338 54.1459 48.8997 54.8167 48.3217 55.4466C48.5133 55.9586 48.6626 56.4912 48.8982 56.9812C49.4527 58.0478 50.092 59.1144 50.6041 60.137V60.1385C52.1874 63.2723 54.0488 66.2552 56.1694 69.0528C56.6234 69.6387 57.1072 70.2011 57.6193 70.7383C57.745 70.8765 57.924 70.955 58.111 70.955C58.2979 70.955 58.4754 70.8765 58.6011 70.7383L60.0305 69.4801H60.0289C59.963 69.1973 59.8781 68.9193 59.7745 68.6475C58.4409 65.0222 58.9922 60.9726 61.2447 57.8356C61.884 56.8115 63.0354 56.1722 63.7391 56.4062H63.7407C64.7036 56.7471 65.4324 57.5482 65.6806 58.5394C65.7906 58.9855 65.8487 59.4441 65.8518 59.9044V62.3988C65.8518 62.6328 65.9791 62.7192 66.2147 62.6972C66.3074 62.6847 66.3953 62.6486 66.4692 62.592C67.0017 61.9731 67.5561 61.3558 68.0478 60.6945C69.6689 58.4545 71.2459 56.1738 72.8669 53.934C73.2014 53.4784 73.2831 52.8831 73.0805 52.3553C72.6312 50.8536 72.2888 49.3205 72.0563 47.7703C71.5364 44.8298 72.0972 41.7996 73.635 39.2392C73.7072 39.0696 73.7936 38.9062 73.891 38.7491C74.3387 38.1727 74.8083 37.4689 75.6189 37.5129C76.4294 37.5553 77.0043 38.3439 77.3044 39.1544H77.3028C77.6547 40.1047 77.8479 41.1069 77.8793 42.1185C77.8793 43.0562 77.8793 43.9736 78.0285 44.8909C78.0269 44.9836 78.0662 45.0731 78.1369 45.1344C78.206 45.1957 78.2987 45.2239 78.3914 45.2114C78.4746 45.2334 78.5626 45.2334 78.6474 45.2114C79.6496 44.0175 80.7805 42.8442 81.6759 41.6284H81.6743C82.2068 40.9671 82.4738 40.1298 82.422 39.2832C82.4079 37.6197 82.7126 35.9688 83.3174 34.4199C84.0666 31.9459 85.0453 29.5474 86.239 27.2557C86.5155 26.786 86.7935 26.2959 87.114 25.8482H87.1124C87.7109 25.1178 88.7837 25.0047 89.5236 25.5922C90.2163 26.0807 90.6294 26.8755 90.631 27.7238C90.6671 28.5579 90.5744 29.3919 90.3545 30.1978C89.7655 32.2445 88.9801 34.2299 88.0093 36.1259C87.4878 37.1956 86.6836 38.1035 85.6846 38.7491C85.3657 38.9313 85.1285 39.2297 85.0233 39.5816C84.9306 39.9382 84.7798 40.2775 84.5756 40.5838C82.9121 42.7169 81.9524 45.2536 80.3111 47.4291C80.0111 47.803 80.0111 48.3339 80.3111 48.7077L80.1399 48.5585L80.2671 48.7077L82.4003 47.8768C83.6286 47.3317 85.0706 47.7229 85.8544 48.8146C86.0743 49.1146 86.2738 49.4287 86.4529 49.7539C86.5267 50.0115 86.5267 50.2848 86.4529 50.5424C86.2817 51.3639 85.856 52.11 85.2371 52.6755C83.6192 54.1898 81.7594 55.4228 79.7345 56.3214C78.5061 56.9623 77.1521 57.3267 75.7682 57.3879C74.9702 57.4617 74.2194 57.7994 73.6351 58.3477C72.2261 59.6765 71.0322 61.2159 70.0945 62.9109C69.8384 63.2738 69.4976 63.6147 69.5824 64.1471C70.1369 64.51 70.627 63.9979 71.1391 63.9555H71.1406C71.6967 63.8707 72.2638 64.0089 72.7177 64.3404C72.9942 64.5744 73.2942 64.788 73.5487 65.0441H73.5502C73.9524 65.4446 74.1 66.0352 73.9335 66.5787C73.7482 67.4961 73.313 68.3459 72.6753 69.0323L70.8846 70.7602V70.7586C69.6421 71.8881 67.9975 72.4724 66.3197 72.3797C66.1422 72.3781 65.971 72.3184 65.8296 72.2085C65.7165 72.0844 65.6427 71.9289 65.616 71.7608C65.5877 71.6854 65.5877 71.6021 65.616 71.5267C65.7652 71.3995 65.8924 71.2283 66.0432 71.2063C67.4884 70.8356 68.7717 69.9952 69.6906 68.8187C70.1807 68.2642 70.586 67.6453 71.0336 67.0484C71.2253 66.7924 71.1828 66.3871 71.0336 66.3227C70.8844 66.2583 70.6708 66.2159 70.5216 66.3227C68.5863 67.2165 66.8522 68.4935 65.4243 70.0769L64.6985 70.9078H64.7001C64.0404 71.6822 63.2361 72.32 62.3329 72.7849C61.6968 73.1509 61.092 73.5641 60.5202 74.0212C60.4024 74.1641 60.3553 74.3526 60.3914 74.5332C60.737 75.4867 61.2412 76.3742 61.8852 77.1564C63.1764 78.5968 64.3325 80.1535 65.3394 81.8058C66.7688 83.9389 68.4747 85.9211 69.9887 88.0122C70.8103 89.0049 71.5658 90.0526 72.2491 91.1459C72.3434 91.3108 72.4502 91.4679 72.568 91.6156L78.9658 99.5483C79.0899 99.6881 79.2265 99.8153 79.371 99.9331C79.6192 100.051 79.913 100.009 80.1172 99.8263C81.5717 97.6947 82.8629 95.4564 83.9782 93.1301C84.1353 92.7767 84.03 92.362 83.7222 92.128C81.0864 90.5179 79.228 87.8964 78.5826 84.8773C77.97 83.1667 78.2072 81.266 79.2219 79.7595L80.8634 78.9709L80.865 78.9694C81.8012 79.1532 82.6274 79.6967 83.1678 80.4836C84.5454 82.2068 85.659 84.1263 86.4727 86.1777C86.5796 86.319 86.7084 86.4416 86.856 86.5405H87.1765C88.1551 84.566 88.9609 82.5113 89.5861 80.3989C89.7934 79.48 89.9144 78.5454 89.9489 77.6045C89.9489 77.1772 89.2672 77.2212 88.9467 76.9652C88.0325 76.2866 87.299 75.3928 86.8136 74.3639C86.0423 72.6816 85.5397 70.8909 85.3213 69.0531C85.2491 68.3226 85.3748 67.586 85.6842 66.9215C85.8177 66.5649 86.1224 66.2994 86.4947 66.2178C86.8529 66.1251 87.2157 66.0544 87.5817 66.0041C87.8519 65.9884 88.1189 66.0544 88.3498 66.1958C88.8509 66.601 89.308 67.0581 89.7148 67.5608C90.2693 68.2865 90.7594 69.075 91.3139 69.8212C91.5417 70.0411 91.8009 70.228 92.0821 70.3757C92.8659 68.0634 93.4094 65.6756 93.7015 63.252C93.6293 62.7274 93.3622 62.2483 92.9554 61.909C92.071 60.9697 91.4019 59.8497 90.9935 58.6245C90.5992 57.3945 90.2788 56.141 90.0337 54.8719C89.9285 54.2357 89.9285 53.5885 90.0337 52.9524C90.1515 52.3193 90.3008 51.6926 90.4814 51.0753C90.6055 50.4312 90.9809 49.8626 91.5276 49.4982C91.7412 49.3489 91.9548 49.1573 92.1889 49.0081V49.0065C92.6381 48.6515 93.2743 48.6515 93.7235 49.0065C94.1288 49.3898 94.5121 49.795 94.8969 50.1799C95.2802 50.5632 95.8143 50.6071 96.0059 49.8594C96.5824 47.7263 97.1573 45.7642 97.7118 43.7178C97.9427 43.0895 97.7746 42.3842 97.2845 41.9271C96.7332 41.3177 96.3311 40.5872 96.1127 39.794C95.5048 38.1525 95.0131 36.4717 94.6409 34.761C94.3565 33.4023 94.2843 32.0058 94.4272 30.6252C94.4744 29.6921 94.8262 28.7999 95.4294 28.0868C95.8158 27.559 96.4394 27.2558 97.0929 27.2762C97.762 27.2134 98.3919 27.6077 98.6291 28.236C98.9056 29.0245 99.1616 29.8146 99.4176 30.6032C99.5527 31.3399 99.7821 32.0577 100.099 32.7363C101.106 34.7124 101.342 36.9932 100.761 39.1341C100.611 40.3279 100.44 41.5013 100.206 42.6747C99.9721 43.8481 99.6297 44.9994 99.3752 46.1728C98.9699 47.9855 98.5647 49.7762 98.2238 51.589V51.5874C98.0494 52.4969 97.9285 53.4159 97.861 54.3395C97.861 54.4887 97.8609 54.6599 98.0322 54.8092C98.2034 54.9584 98.5442 54.8092 98.7579 54.5751C99.5464 53.6578 100.293 52.7404 101.061 51.8027L101.059 51.8011C101.954 50.6607 103.082 49.7229 104.366 49.0507C104.895 48.8276 105.504 49.0758 105.731 49.6052C106.072 50.5696 106.072 51.6236 105.731 52.5897C105.368 53.5274 104.963 54.4668 104.664 55.447C104.366 56.4287 103.682 56.9816 103.341 57.8361C102.613 59.3425 101.631 60.7123 100.442 61.8888C99.559 62.8438 98.4296 63.5365 97.1777 63.8931C96.7096 64.0062 96.3703 64.413 96.3467 64.8953C95.998 67.4604 95.5001 70.0018 94.8545 72.5091C94.8545 72.5091 94.9613 72.7855 95.0461 72.8923C95.131 72.9992 95.2378 72.8923 95.3022 72.8923C96.1771 72.0818 97.0929 71.3137 97.9458 70.4607C98.7736 69.7727 99.6674 69.1648 100.611 68.6481C100.944 68.4941 101.312 68.4281 101.678 68.4564C102.16 68.4329 102.589 68.7549 102.702 69.2245C103.068 70.4827 102.866 71.8383 102.148 72.9348C101.843 73.4029 101.501 73.8458 101.124 74.2574C100.442 75.0035 99.7585 75.7496 98.9904 76.3905V76.389C98.5286 76.9686 97.9741 77.465 97.3489 77.8608C96.3625 78.5394 95.3037 79.1033 94.1932 79.5463C93.8319 79.6343 93.4863 79.7772 93.169 79.972C92.8501 80.1432 92.5956 80.4118 92.4433 80.7401C92.038 82.3612 91.1426 83.811 90.6306 85.3677C90.5033 85.751 90.8222 86.1783 91.1631 86.1139L92.7841 85.7934L92.7857 85.795C93.2004 85.7306 93.6229 85.8657 93.9245 86.1594C94.2245 86.4532 94.3722 86.8694 94.3203 87.2873C94.1711 88.013 93.9999 88.7371 93.7879 89.4204C93.7297 89.6859 93.5962 89.9309 93.403 90.1241C91.9532 91.4248 90.8866 93.0678 89.3725 94.3887C88.5934 95.1882 87.5033 95.6092 86.388 95.5401C85.9121 95.4866 85.4503 95.7207 85.2146 96.137C84.2329 97.8004 83.2951 99.4843 82.3353 101.192C82.1657 101.518 82.0306 101.861 81.9301 102.214C81.7337 102.745 81.839 103.342 82.2081 103.771C82.9542 104.581 83.6375 105.434 84.3412 106.223L84.3397 106.225C86.6582 108.863 88.796 111.656 90.7375 114.584C91.3344 115.395 91.9313 116.226 92.5721 116.994C92.8486 117.25 93.1659 117.459 93.5099 117.613C93.7864 117.25 94.0424 116.973 94.2356 116.675V116.673C94.4618 116.369 94.4162 115.941 94.1288 115.693C94.0016 115.693 93.7659 115.544 93.6811 115.395C92.203 113.263 91.4553 110.712 91.548 108.122C91.5762 107.175 92.0616 106.301 92.8486 105.777C93.2209 105.494 93.7078 105.414 94.1508 105.563C95.863 106.094 97.3584 107.164 98.4153 108.612C98.6195 108.802 98.9353 108.802 99.1395 108.612C99.2651 108.477 99.3735 108.328 99.4599 108.164C99.8652 107.247 100.248 106.309 100.611 105.456C100.553 105.24 100.468 105.032 100.355 104.837C99.7065 104.322 99.1332 103.719 98.6494 103.047C98.131 101.969 97.7509 100.829 97.52 99.6554C97.2859 98.4381 97.143 97.205 97.0927 95.9672C97.0409 95.3137 97.2388 94.665 97.6472 94.1545C98.0368 93.6251 98.6336 93.2906 99.2855 93.234C99.939 93.1759 100.585 93.4036 101.059 93.8545C101.976 94.8786 102.829 95.9876 103.747 97.0322C103.747 97.0322 104.003 97.0322 104.045 96.8609V96.8625C104.724 95.653 105.267 94.3728 105.666 93.0455C105.98 91.5768 106.453 90.1474 107.074 88.7793C107.259 88.3458 107.235 87.851 107.009 87.4363C106.623 86.8112 106.274 86.1624 105.965 85.4964C104.808 83.057 104.501 80.3018 105.09 77.6691C105.261 77.0455 105.52 76.4502 105.858 75.8988C106.376 75.104 107.359 74.7474 108.267 75.0254C108.534 75.0883 108.77 75.2485 108.929 75.4731C109.291 75.9852 109.568 76.5821 109.888 77.1366C110.089 77.3125 110.391 77.3125 110.592 77.1366C110.834 76.7455 111.034 76.3308 111.189 75.8988C111.721 73.9589 112.234 71.975 112.768 69.9281C112.278 69.1176 111.765 68.2426 111.211 67.4117C110.57 66.4975 110.181 65.4309 110.08 64.3188C110.08 63.2318 109.782 62.1856 109.632 61.0342C109.515 60.0227 109.581 58.9969 109.824 58.0073C110.223 56.3187 111.809 55.1878 113.534 55.3621C113.892 55.4328 114.214 55.6197 114.452 55.8962C114.742 56.3674 114.998 56.8591 115.22 57.3664C115.22 57.5801 115.774 57.6649 115.901 57.4732C116.772 56.3627 117.034 54.894 116.605 53.5494C116.032 51.7885 115.773 49.9413 115.839 48.091C115.839 47.238 116.159 46.4699 116.266 45.639L116.264 45.6374C116.245 45.5541 116.245 45.4662 116.264 45.3813C116.492 44.7593 116.998 44.2786 117.629 44.0807C118.372 43.9739 119.118 44.2645 119.591 44.8489C119.783 45.0578 119.908 45.317 119.954 45.595C120.603 48.2936 120.669 51.1005 120.146 53.8277C120.1 54.0099 120.064 54.1952 120.039 54.3822C119.737 55.7707 119.346 57.1389 118.867 58.4758C118.319 59.9916 117.92 61.5545 117.672 63.1472V63.4033C117.672 63.4253 118.055 63.4033 118.141 63.4033L119.805 61.8451L120.424 61.2906C121.146 60.89 122.056 61.0801 122.555 61.7398C123.235 62.7545 123.43 64.0206 123.089 65.194C122.898 65.8129 122.726 66.4302 122.513 67.0287V67.0271C121.523 69.8435 119.861 72.3773 117.672 74.4069C117.46 74.5765 117.197 74.6739 116.926 74.6833C116.739 74.688 116.56 74.6095 116.435 74.4713C116.379 74.3126 116.379 74.1383 116.435 73.9796C116.473 73.8005 116.553 73.6324 116.669 73.4895C117.745 71.9941 118.668 70.3934 119.422 68.7127C119.954 67.8456 120.282 66.8686 120.38 65.8554C120.38 65.7281 120.23 65.5145 120.103 65.4281C119.976 65.3433 119.783 65.4281 119.634 65.4281C119.484 65.4281 119.484 65.5349 119.42 65.5993H119.422C118.079 67.2487 116.927 69.0441 115.988 70.9512C115.732 71.4413 115.411 71.8889 115.177 72.3806C114.91 72.8644 114.709 73.3796 114.58 73.9168C114.029 76.6296 113.317 79.3061 112.447 81.9344C112.256 82.6601 112.064 83.3638 111.915 84.0675C111.915 84.1948 112.021 84.366 112.106 84.4948C112.191 84.622 112.298 84.4948 112.383 84.4948V84.4932C113.209 84.0801 113.971 83.5476 114.643 82.9161C115.71 82.0412 116.776 81.1678 117.885 80.3353C118.201 80.1515 118.565 80.0698 118.93 80.1012C119.18 80.1798 119.396 80.3369 119.549 80.5489C119.602 80.7217 119.602 80.9086 119.549 81.0814C119.514 82.558 119.172 84.0094 118.547 85.3475C117.425 87.5734 115.988 89.6282 114.282 91.4453C113.955 91.7721 113.599 92.0643 113.216 92.3203C112.326 93.1795 111.021 93.445 109.867 93.002C109.653 92.9062 109.406 92.9172 109.201 93.0303C108.995 93.1434 108.855 93.346 108.822 93.5785C108.264 95.4477 107.551 97.2667 106.689 99.0164C106.502 99.4311 106.345 99.8584 106.221 100.297C106.134 100.663 106.204 101.049 106.412 101.362H106.285L106.454 101.468ZM21.7065 103.643H21.8558L22.283 104.625H22.2814C22.8893 105.334 23.6103 105.94 24.4146 106.416C24.4963 106.447 24.5874 106.447 24.6706 106.416C24.7507 106.359 24.7994 106.268 24.7994 106.171C24.7994 106.073 24.7507 105.981 24.6706 105.926C24.1161 105.456 23.5836 104.944 22.9852 104.518C22.8359 104.518 22.4951 104.518 22.239 104.668C22.3678 104.22 21.9626 103.964 21.7065 103.643ZM49.9195 26.5523C50.196 26.4251 50.5588 26.5523 50.73 26.169C50.9013 25.7858 51.3065 26.169 51.4557 25.913C52.5003 24.7616 53.5889 23.5678 54.4842 22.3944V22.3928C54.7214 22.1148 54.9083 21.7975 55.0387 21.4551C55.2021 21.1079 55.1424 20.6964 54.8895 20.4105C54.6397 20.5063 54.4104 20.643 54.2062 20.8158C52.9637 22.2656 51.8359 23.8144 50.8368 25.4434C50.7897 25.6963 50.7897 25.957 50.8368 26.2099L49.9415 26.6576C50.1551 26.6576 50.1975 26.6576 50.0483 26.7644L49.9195 26.5523ZM39.2994 63.9779C39.0434 64.3612 38.3177 64.4476 38.5737 65.1513H38.5753C38.3208 65.0665 38.0428 65.1733 37.914 65.4074C37.6375 65.7278 37.5087 66.1959 37.083 66.3671C37.083 66.8996 36.6998 67.4117 36.9558 67.9662C36.6794 67.839 36.5081 67.9662 36.4438 68.2222H36.4422C36.45 68.2976 36.4877 68.3667 36.549 68.4139C36.6087 68.4437 36.6809 68.4437 36.7406 68.4139C36.8097 68.2709 36.86 68.1217 36.8899 67.9662C37.5936 67.4965 37.2951 66.942 37.0171 66.3875C37.2935 66.3875 37.614 66.5792 37.7852 66.3875C38.068 66.1833 38.2942 65.9116 38.4465 65.599C38.4795 65.4294 38.4795 65.2566 38.4465 65.0869C38.6146 64.9047 38.7717 64.7131 38.9162 64.5105C39.0434 64.2968 39.1502 64.0832 39.2571 63.8712C39.3639 63.6575 39.023 63.8712 39.1502 63.7644L39.2994 63.9779ZM134.265 165.317C134.797 165.317 135.331 165.594 135.608 164.89C136.115 164.869 136.605 164.7 137.015 164.4C137.249 164.4 137.292 164.037 137.249 163.76C137.526 163.76 137.74 163.76 137.441 163.504C137.143 163.248 137.227 163.654 137.314 163.825C136.29 163.825 135.884 164.101 135.65 164.956C135.053 164.764 134.669 165.169 134.221 165.425H134.328L134.265 165.317ZM149.938 164.208L149.511 164.422C149.255 164.422 149.255 164.613 149.511 164.72C149.767 164.827 149.725 164.72 149.745 164.72H149.747C149.81 164.582 149.86 164.439 149.896 164.293H150.088L149.938 164.208ZM102.745 52.5706C102.382 53.1313 102.444 53.8681 102.894 54.3613L102.126 54.0628C101.957 54.1288 101.798 54.223 101.657 54.3408C100.216 55.7687 99.1292 57.5138 98.4805 59.4366C98.358 59.7853 98.2575 60.1418 98.1821 60.5031C98.1884 60.5911 98.2355 60.6696 98.3093 60.7167C98.4585 60.7167 98.6926 60.866 98.779 60.7167C99.1434 60.4356 99.4607 60.0963 99.7167 59.7146C100.612 58.1155 101.445 56.4944 102.318 54.8734C102.48 54.6661 102.657 54.4728 102.852 54.2969C102.83 54.0424 102.83 53.7848 102.852 53.5304C102.927 53.1927 102.866 52.8408 102.681 52.5486L102.745 52.5706ZM89.9497 74.6419C89.9497 74.1942 90.0769 73.6602 89.5868 73.3413C89.5868 72.8088 89.5868 72.2747 89.4596 71.7626C89.3968 71.6008 89.2633 71.4752 89.0968 71.4218C88.9051 71.4218 88.7983 71.549 88.8407 71.7626C88.946 72.1899 89.0748 72.6093 89.224 73.0208C89.224 73.1481 89.5004 73.1921 89.6292 73.2769C89.7785 73.7246 89.9497 74.1942 89.9497 74.6419ZM86.3667 31.9927L87.028 31.7791C87.105 31.7414 87.1599 31.6707 87.1772 31.5874C87.2086 31.512 87.2086 31.4272 87.1772 31.3518C87.1772 31.2026 87.006 31.245 86.9007 31.4791C86.7939 31.7131 86.7295 31.9487 86.4735 32.0335V32.0351C86.4515 32.211 86.4515 32.3901 86.4735 32.5676C86.4735 32.8017 86.6447 32.8237 86.7939 32.5676C86.8348 32.4875 86.8348 32.3917 86.7939 32.3116L86.3667 31.9927ZM125.201 158.923C125.841 158.709 125.713 158.112 125.82 157.622C125.927 157.132 125.82 157.324 125.544 157.366H125.542C125.459 157.396 125.385 157.448 125.329 157.516C125.047 157.838 124.909 158.262 124.945 158.689C124.689 158.903 124.391 159.072 124.157 159.308L124.155 159.306C123.97 159.504 123.97 159.814 124.155 160.01C124.257 160.09 124.389 160.12 124.515 160.096C124.642 160.071 124.752 159.994 124.817 159.883C124.964 159.57 125.093 159.25 125.201 158.923ZM126.843 111.774C127.726 111.095 128.417 110.198 128.847 109.171C129.028 108.802 128.941 108.358 128.635 108.084C127.836 108.967 127.199 109.985 126.758 111.091C126.758 111.282 126.758 111.603 126.885 111.837C126.714 111.71 126.522 111.474 126.458 111.837L126.843 111.774ZM9.40268 101.92H9.55191L7.41876 100.235L7.42033 100.236C6.61295 99.5924 5.66104 99.1526 4.64789 98.9563C4.49867 98.9563 4.32745 99.0631 4.17821 99.1275C4.02898 99.1919 4.17821 99.2987 4.17821 99.3615C5.16152 100.793 6.63181 101.815 8.31566 102.241C8.70836 102.337 9.12465 102.214 9.40268 101.92ZM64.1679 43.4677C63.816 43.4017 63.4547 43.4017 63.1013 43.4677C61.1912 44.217 59.4461 45.3322 57.9634 46.7507C57.9508 46.8072 57.9508 46.8653 57.9634 46.9219C57.9634 47.0491 58.2194 47.2423 58.3467 47.2203C58.8006 47.1999 59.2483 47.0978 59.6693 46.9219C61.2086 46.0737 62.6412 45.0416 63.9338 43.851C64.039 43.7049 64.1113 43.5368 64.1474 43.3609L64.1679 43.4677ZM76.5364 54.8136L76.538 54.812C76.9542 55.0147 77.4412 55.0147 77.859 54.812C78.203 54.6895 78.525 54.5167 78.8187 54.3C79.9591 53.3874 81.1561 52.547 82.4018 51.7836C82.8321 51.4568 83.2186 51.0783 83.5532 50.6542V50.2065C83.4919 50.1405 83.4086 50.1028 83.3191 50.0997C82.5353 50.2081 81.7954 50.5332 81.186 51.0374C79.6576 52.1794 78.1967 53.4124 76.8145 54.7272C76.7375 54.7429 76.6574 54.7429 76.5804 54.7272C76.7941 54.7272 76.8365 54.7272 76.6872 54.8545L76.5364 54.8136ZM106.074 106.334C107.098 105.566 108.207 104.841 109.122 104.009C110.04 103.178 110.701 102.517 111.468 101.727H111.469C111.541 101.571 111.541 101.392 111.469 101.236C111.301 101.034 111.067 100.899 110.808 100.853C110.533 100.853 110.269 100.952 110.062 101.13C108.491 102.242 107.153 103.646 106.116 105.267C105.967 105.606 105.967 105.993 106.116 106.334C105.502 106.247 104.881 106.205 104.261 106.205C104.093 106.199 103.934 106.279 103.838 106.417C103.742 106.555 103.725 106.733 103.791 106.888C104.624 107.037 105.241 106.29 106.074 106.334ZM84.3854 124.674C84.3854 124.801 84.1938 124.93 84.109 125.079C84.0241 125.229 84.109 125.207 84.109 125.207C84.4498 125.207 84.2158 124.844 84.3006 124.674L84.299 124.673C83.9393 124.655 83.6016 124.495 83.3613 124.225C81.7182 122.762 79.717 121.762 77.5602 121.325C77.433 121.325 77.2618 121.325 77.133 121.539C77.0058 121.752 77.133 121.71 77.133 121.795L77.1346 121.793C77.4848 122.329 77.9325 122.792 78.4556 123.158C80.0201 124.687 82.2805 125.263 84.3853 124.673L84.3854 124.674ZM51.3092 131.667C49.2373 132.841 47.0507 133.799 44.7827 134.526C44.4403 134.644 44.123 134.825 43.845 135.059C43.6313 135.186 43.5889 135.357 43.7177 135.528C43.845 135.7 43.9313 135.869 44.0806 135.891L44.079 135.89C44.4199 136.017 44.7859 136.061 45.1456 136.019C47.3997 135.495 49.4479 134.316 51.0314 132.627C51.2812 132.349 51.3613 131.958 51.2451 131.605H51.3723L51.3092 131.667ZM46.0848 106.93C45.7895 107.133 45.6732 107.515 45.8067 107.848C45.879 108.105 46.1398 108.264 46.4037 108.209C46.4728 108.2 46.534 108.16 46.5749 108.102C46.5545 107.939 46.5042 107.78 46.4257 107.634C46.3188 107.4 46.1916 107.164 46.0628 106.93C45.9356 106.696 45.2743 106.461 44.9114 106.205C43.0406 104.887 41.0221 103.792 38.8968 102.942C38.4633 102.782 37.9874 102.782 37.5538 102.942C37.4564 102.95 37.3716 103.011 37.3355 103.102C37.2994 103.193 37.3182 103.296 37.3826 103.369C37.5727 103.682 37.8177 103.957 38.1083 104.178C38.9189 104.755 39.7938 105.265 40.6467 105.82V105.821C42.0432 106.704 43.6627 107.171 45.3166 107.164C45.5821 107.122 45.8397 107.043 46.0848 106.93ZM59.9029 110.193C56.942 111.669 54.231 113.597 51.8637 115.908C51.8637 115.908 51.8637 116.079 51.7145 116.142V116.143C51.6516 116.263 51.6454 116.404 51.7003 116.53C51.7537 116.654 51.8606 116.746 51.9909 116.782C52.2423 116.881 52.5109 116.932 52.7795 116.932C53.8602 116.781 54.8984 116.412 55.8299 115.845C57.0488 115.209 58.1579 114.381 59.1145 113.391C59.3579 113.119 59.5794 112.826 59.7758 112.518C60.1339 111.97 60.2706 111.307 60.159 110.663C60.2014 110.513 60.0946 110.385 59.9029 110.193ZM48.2164 87.4384C49.66 87.5374 51.0658 86.953 52.013 85.8598C52.3712 85.5377 52.4356 84.999 52.1623 84.6015C51.8984 84.2183 51.7507 83.7675 51.735 83.3009V81.1678C51.735 80.9337 51.6078 80.8049 51.3942 80.7845C51.2167 80.7625 51.0376 80.7625 50.8617 80.7845C50.8617 80.7845 50.6904 80.7845 50.6276 80.9337L47.2991 85.6036C47.1719 85.8471 47.0792 86.1047 47.0227 86.3717C46.9755 86.645 47.0918 86.9199 47.3211 87.0754L48.2164 87.4384ZM79.1172 155.554C80.1131 155.614 81.109 155.432 82.0184 155.02C83.5971 154.252 85.1538 153.485 86.7104 152.675H86.7089C86.9225 152.577 87.0607 152.365 87.0607 152.131C87.0607 151.897 86.9225 151.684 86.7089 151.588C85.8763 151 84.8915 150.666 83.8736 150.628C83.6065 150.649 83.3662 150.801 83.2327 151.033C83.0285 151.657 82.5242 152.138 81.8896 152.312C81.5315 152.411 81.1922 152.57 80.8875 152.782C79.9136 153.286 78.9915 153.886 78.137 154.572C78.0098 154.7 78.137 155.276 78.2643 155.318L79.1172 155.554ZM174.658 115.505C174.658 115.505 174.487 115.291 174.424 115.313V115.312C174.072 115.362 173.728 115.455 173.4 115.59C172.118 116.309 170.767 116.901 169.369 117.36C168.398 117.666 167.471 118.103 166.619 118.661C165.883 119.041 165.243 119.58 164.741 120.238C164.668 120.401 164.668 120.588 164.741 120.75C164.814 120.91 164.955 121.028 165.126 121.07C165.772 121.172 166.433 121.077 167.024 120.792L169.796 119.534C171.339 118.866 172.776 117.976 174.061 116.89C174.273 116.716 174.454 116.507 174.595 116.272C174.659 116.022 174.681 115.763 174.658 115.503L174.658 115.505ZM22.3092 41.6309C22.182 41.4393 22.0328 41.2257 21.8615 41.012C20.7306 39.5622 19.6012 38.1123 18.599 36.5557C17.8529 35.4043 17.0203 34.2953 16.2318 33.1643C16.0653 32.9413 15.8878 32.7277 15.6978 32.525C15.5265 32.3114 15.0365 32.2486 14.9721 32.525C14.9076 32.8015 14.8228 32.8659 14.9721 33.0151H14.9736C15.7276 36.1285 17.4084 38.9384 19.7927 41.0765C20.4241 41.6232 21.2032 41.9719 22.031 42.0787C22.031 42.0787 22.1803 42.0787 22.2447 41.9295C22.2855 41.8352 22.3077 41.733 22.3092 41.6309ZM13.395 114.415C15.9632 114.296 18.4923 113.748 20.8797 112.794C21.8222 112.414 22.7285 111.951 23.5877 111.409C23.8642 111.26 24.015 110.854 24.1642 110.534C24.2569 110.171 24.0998 109.791 23.781 109.596C23.5108 109.563 23.239 109.563 22.9704 109.596C22.8872 109.626 22.8134 109.678 22.7568 109.745C21.8065 110.757 20.5451 111.425 19.1738 111.643C17.2967 112.091 15.4416 112.625 13.5646 113.135L12.52 113.456C12.3064 113.456 12.0723 113.988 12.1791 114.137V114.139C12.275 114.274 12.4085 114.378 12.5624 114.437C12.8404 114.451 13.1185 114.444 13.395 114.415ZM33.0568 34.827C33.0788 34.7437 33.0788 34.6558 33.0568 34.571C33.0097 33.8248 32.6342 33.1384 32.0342 32.6954C29.7942 31.0948 27.7081 29.2883 25.8061 27.2997C25.1794 26.6369 24.4049 26.1326 23.5457 25.8279C23.5457 25.8279 23.3321 25.9551 23.3321 25.9771H23.3337C23.4232 26.318 23.5661 26.6415 23.7594 26.9368C25.4228 28.7715 27.0439 30.6471 28.7923 32.3969V32.3953C29.8777 33.5263 31.1752 34.4311 32.6094 35.0625C32.6989 35.1128 32.8073 35.1159 32.8984 35.0688C32.9895 35.0201 33.0489 34.9291 33.0568 34.827ZM168.412 157.619C169.772 158.094 171.261 158.025 172.571 157.428C172.738 157.217 172.794 156.939 172.72 156.68C172.593 156.531 172.507 156.339 172.357 156.275C170.821 155.665 169.433 154.735 168.284 153.546C167.741 153.039 167.042 152.731 166.3 152.671C166.074 152.605 165.828 152.67 165.663 152.839C165.498 153.009 165.44 153.256 165.512 153.482C165.584 153.838 165.721 154.178 165.917 154.484C166.728 155.529 167.601 156.617 168.412 157.619ZM121.452 127.955C121.686 127.848 121.899 127.828 122.028 127.699C122.85 126.965 123.627 126.181 124.353 125.354C124.906 124.62 125.385 123.835 125.781 123.007C125.914 122.669 125.958 122.301 125.909 121.942C125.909 121.472 125.482 120.897 125.163 120.897V120.896C124.797 120.919 124.441 121.021 124.117 121.194C123.877 121.318 123.671 121.502 123.52 121.728C122.284 123.227 121.414 124.994 120.983 126.888V127.421V127.422C121.117 127.617 121.274 127.796 121.452 127.955ZM75.6658 148.62H75.8794C75.9721 148.616 76.0601 148.568 76.1135 148.491C76.1135 148.342 76.2407 148.108 76.1135 148.022C74.6008 146.175 72.5745 144.817 70.2919 144.12C70.1207 144.12 69.8867 143.993 69.7594 144.12H69.7579C69.4406 144.263 69.1609 144.483 68.9473 144.759C68.8358 144.996 68.8358 145.27 68.9473 145.505C69.2961 145.925 69.6888 146.303 70.1207 146.636C71.7606 147.777 73.674 148.462 75.6658 148.62ZM123.35 93.0026C123.43 94.5671 123.673 96.1175 124.074 97.6302C124.204 98.0622 124.399 98.4722 124.65 98.846C124.65 98.9952 124.906 99.0801 125.055 99.1664C125.205 99.2513 125.525 98.846 125.568 98.59C125.963 95.8568 125.594 93.0656 124.501 90.5302C124.411 90.3873 124.262 90.293 124.096 90.2742C123.946 90.2742 123.712 90.4454 123.712 90.5506C123.499 91.3611 123.434 92.1936 123.35 93.0026ZM77.1577 27.171C76.966 27.171 76.6676 26.8301 76.5388 26.9149H76.5403C75.1266 27.5762 73.8307 28.4622 72.7013 29.5381C72.1468 30.157 71.4431 30.6251 70.8666 31.2016C70.2901 31.7781 70.0561 32.1834 69.6508 32.6735C69.2456 33.1636 69.5236 33.0363 69.6508 33.1431C69.7356 33.162 69.8236 33.162 69.9069 33.1431C72.4594 32.075 74.7512 30.4665 76.6251 28.429C76.8403 28.14 77.0194 27.8243 77.1576 27.4913C77.1702 27.3845 77.1702 27.2778 77.1577 27.171ZM104.263 149.75C104.136 149.474 104.092 149.153 103.922 149.047C101.789 147.682 99.6578 146.359 97.3754 145.058C97.1382 144.915 96.8774 144.815 96.6072 144.76C96.48 144.76 96.2868 144.867 96.1595 144.951C96.0323 145.036 96.1595 145.123 96.1595 145.208C96.447 145.881 96.901 146.469 97.4806 146.913C98.3838 147.975 99.6011 148.723 100.957 149.047C101.362 149.047 101.725 149.516 102.088 149.772C102.381 149.989 102.749 150.08 103.112 150.028C103.453 149.921 103.816 149.835 104.263 149.75ZM154.143 151.414C153.832 151.998 153.778 152.686 153.993 153.311C154.092 153.754 154.314 154.161 154.633 154.485C155.87 155.633 157.691 155.887 159.196 155.124C159.34 155.019 159.435 154.858 159.458 154.683C159.482 154.505 159.435 154.326 159.325 154.186C159.174 153.965 158.985 153.77 158.77 153.61C157.369 152.612 155.801 151.869 154.143 151.414ZM53.9133 101.936C53.9055 102.035 53.9055 102.136 53.9133 102.235C55.8265 104.388 58.3729 105.881 61.1861 106.499C61.2678 106.531 61.3589 106.531 61.4406 106.499C61.5286 106.468 61.604 106.408 61.6542 106.33V106.074C60.74 105.061 59.6483 104.223 58.4341 103.6C57.1963 102.984 55.913 102.464 54.5951 102.043C54.3657 101.944 54.1207 101.886 53.8709 101.872L53.9133 101.936ZM62.0169 68.1565C62.4096 68.0748 62.7144 67.7622 62.785 67.368C63.0615 65.7689 63.382 64.1478 63.616 62.5268C63.7055 61.7116 63.7401 60.8932 63.7228 60.0748C63.693 59.8014 63.6207 59.536 63.5092 59.2847C63.5092 59.2847 63.3819 59.2847 63.2956 59.1778C63.2107 59.071 63.0819 59.1778 63.0615 59.1778C62.4332 60.29 61.9808 61.4901 61.7185 62.7404C61.3682 64.5186 61.4562 66.3548 61.9745 68.0923L62.0169 68.1565ZM84.5579 89.1409C84.5689 89.0482 84.5689 88.9555 84.5579 88.8644C84.3082 86.4815 83.3076 84.2416 81.7007 82.4666C81.7007 82.4666 81.5514 82.3174 81.4666 82.3394C81.3818 82.3614 81.1037 82.3394 81.0189 82.5106V82.509C80.9027 82.6441 80.8477 82.8216 80.8697 82.9992C81.3048 85.2438 82.2222 87.369 83.5558 89.2256C83.6092 89.2947 83.6736 89.3513 83.7474 89.3968C83.9186 89.3968 84.1102 89.5885 84.2375 89.5461C84.3663 89.5037 84.4731 89.2901 84.5579 89.1409ZM60.9927 136.483C61.8692 136.579 62.7442 136.299 63.4023 135.715C64.282 134.882 64.8082 133.745 64.8742 132.537C64.8522 132.449 64.8003 132.374 64.7249 132.323C64.5694 132.251 64.4045 132.201 64.2348 132.174C64.15 132.154 64.0636 132.154 63.9788 132.174C63.1683 132.9 62.3153 133.624 61.5268 134.307C61.1309 134.684 60.7743 135.097 60.4602 135.544C60.377 135.704 60.377 135.895 60.4602 136.056C60.4602 136.183 60.7367 136.227 60.9079 136.29C61.0791 136.354 61.0367 136.588 60.9927 136.483ZM115.842 85.3006C115.772 85.2865 115.699 85.2865 115.629 85.3006C115.545 85.277 115.456 85.277 115.373 85.3006C113.783 86.6719 112.354 88.2176 111.108 89.9077C110.909 90.2046 110.77 90.5376 110.703 90.8879C110.703 91.0151 110.81 91.2083 110.895 91.3576C110.979 91.5068 111.066 91.3576 111.129 91.3576C112.14 90.8785 113.007 90.1434 113.645 89.2244C114.509 88.0746 115.225 86.8211 115.778 85.4938C115.778 85.4938 115.863 85.3006 115.842 85.3006ZM94.5173 108.588H94.2833L94.2817 108.589C94.2079 109.126 94.2079 109.671 94.2817 110.21C94.5016 111.09 94.7875 111.952 95.1347 112.789C95.3137 113.105 95.5713 113.369 95.8808 113.558C96.1148 113.707 96.6693 113.302 96.9254 112.854C97.1374 112.549 97.1987 112.166 97.0966 111.809C96.6206 110.529 95.8368 109.387 94.8142 108.482C94.8142 108.482 94.6446 108.525 94.5802 108.525L94.5173 108.588ZM120.022 115.455C119.906 114.191 119.663 112.94 119.297 111.723C119.1 111.314 118.851 110.934 118.551 110.593H118.295C118.207 110.575 118.114 110.593 118.042 110.647C117.968 110.7 117.921 110.78 117.911 110.87C117.894 110.963 117.894 111.057 117.911 111.148C117.825 111.691 117.825 112.246 117.911 112.789C118.174 114.131 118.56 115.444 119.063 116.713C119.063 116.713 119.234 116.884 119.276 116.862C119.319 116.84 119.66 116.735 119.704 116.628H119.702C119.84 116.247 119.947 115.854 120.022 115.455ZM37.7037 113.13C37.7273 113.069 37.7273 113.001 37.7037 112.939C37.6205 112.907 37.5309 112.907 37.4477 112.939C35.4449 113.239 33.4956 113.836 31.6688 114.709C31.507 114.802 31.3797 114.943 31.3059 115.114C31.2431 115.271 31.2431 115.447 31.3059 115.604C31.3766 115.766 31.518 115.885 31.6892 115.925C33.9182 115.859 36.0482 114.989 37.6816 113.473C37.7256 113.364 37.732 113.245 37.7037 113.13ZM47.2996 124.284H46.4891C46.42 124.319 46.3666 124.38 46.3398 124.456C46.299 124.542 46.299 124.644 46.3398 124.732C47.8494 126.091 49.7265 126.974 51.7355 127.27C51.8769 127.175 51.9759 127.03 52.0136 126.865C51.9727 126.43 51.7261 126.042 51.3523 125.819C50.2213 124.851 48.7887 124.31 47.2996 124.284ZM30.6239 7.86965V10.0028C30.6239 10.13 30.8156 10.2368 30.9004 10.3437C30.9852 10.4505 31.1769 10.1096 31.2208 9.96038V9.95881C31.7408 8.49014 32.1256 6.97743 32.3722 5.43814C32.4147 4.97635 32.4147 4.51293 32.3722 4.0527C32.3518 3.87206 32.2686 3.70713 32.1382 3.58302C32.0015 3.47464 31.8397 3.40081 31.6685 3.3694C31.5806 3.40395 31.5114 3.47307 31.4769 3.56103C30.9051 4.92604 30.6145 6.38991 30.6239 7.86965ZM161.415 147.917C161.415 147.917 161.586 148.044 161.649 147.917L166.766 145.998H166.768C167.293 145.801 167.742 145.443 168.048 144.974C168.106 144.815 168.106 144.641 168.048 144.483C167.916 144.356 167.74 144.287 167.557 144.292C165.211 144.719 163.058 145.867 161.394 147.575C161.394 147.575 161.437 147.831 161.415 147.917ZM115.946 143.653L115.948 143.651C117.224 142.515 118.141 141.034 118.592 139.387C118.645 139.212 118.645 139.027 118.592 138.854C118.504 138.71 118.378 138.592 118.229 138.512C118.149 138.471 118.053 138.471 117.973 138.512C117.549 138.862 117.169 139.262 116.843 139.707C116.126 140.876 115.64 142.172 115.414 143.524C115.414 143.524 115.414 143.716 115.563 143.738C115.712 143.758 115.734 143.609 115.948 143.566L115.946 143.653ZM35.377 55.7485C35.4163 56.4993 35.6362 57.2313 36.0163 57.88C36.2127 58.1345 36.5064 58.2947 36.8269 58.323C37.1473 58.3513 37.4646 58.2461 37.7018 58.0293C37.8086 57.902 37.9358 57.6664 37.8934 57.5392C37.4662 56.3454 37.0405 55.15 36.5708 53.9782C36.475 53.8289 36.3211 53.7268 36.1451 53.7001C35.9849 53.7048 35.8372 53.7944 35.7618 53.9358C35.6126 54.4902 35.5058 55.1296 35.377 55.7485ZM55.8286 40.5213V38.8578V37.7488C55.8286 37.3655 55.5522 37.1299 55.3809 37.2587C55.2097 37.386 55.0605 37.4723 55.0181 37.6216C54.4997 39.5898 54.4055 41.6476 54.7401 43.6566C54.7401 43.6566 54.9537 43.9331 55.0605 43.9551C55.2427 43.9378 55.4155 43.864 55.5506 43.7415C55.692 43.6221 55.7831 43.4556 55.8067 43.2718C55.8286 42.4408 55.8286 41.5234 55.8286 40.5213ZM112.556 59.2876C112.332 61.2668 112.522 63.2711 113.111 65.1734C113.312 65.1562 113.508 65.098 113.687 65.0038C113.807 64.864 113.887 64.6943 113.921 64.5121C114.055 62.7921 113.769 61.0658 113.089 59.4791C113.046 59.3739 112.77 59.374 112.556 59.2876ZM174.081 88.7182L173.249 93.836C173.206 94.1046 173.206 94.3779 173.249 94.6465C173.249 94.7737 173.44 94.8806 173.589 94.967V94.9654C173.665 95.0015 173.75 95.0015 173.825 94.9654C174.823 93.1983 175.134 91.1263 174.698 89.1438C174.656 88.7606 174.4 88.6742 174.081 88.7182ZM74.1494 45.2768C74.1494 46.1077 74.1494 46.8334 74.2986 47.5796C74.2986 47.5796 74.4054 47.7288 74.4478 47.7068C74.4902 47.6848 74.8531 47.7068 74.8751 47.5152C75.3369 45.9334 75.6024 44.2998 75.6636 42.6535C75.684 42.3912 75.684 42.1273 75.6636 41.8634C75.6338 41.7943 75.5678 41.7456 75.4924 41.7362H75.2363C74.4886 42.7619 74.1054 44.0076 74.1494 45.2768ZM32.8433 85.6017H32.0751C31.3714 85.7289 30.8813 86.0494 30.8169 86.8175C30.7494 87.2699 30.4839 87.6689 30.0912 87.906C29.664 88.2422 29.2634 88.6129 28.8974 89.015V89.2711C28.8974 89.2711 29.2178 89.4423 29.3451 89.4203C30.0928 89.425 30.8043 89.0967 31.2866 88.5233C31.8191 87.6484 32.694 87.1159 33.2485 86.3902V86.3918C33.3082 86.2268 33.3082 86.0446 33.2485 85.8797C33.2485 85.7305 33.0129 85.6881 32.8433 85.6017ZM62.6993 124.116H62.6977C62.6805 124.201 62.6805 124.289 62.6977 124.372C63.8821 125.537 65.354 126.37 66.9639 126.782H67.4964C67.4964 126.782 67.688 126.782 67.71 126.61C67.732 126.439 67.71 126.227 67.71 126.12C66.4487 124.925 64.8307 124.176 63.1029 123.989C62.9756 123.904 62.8044 124.053 62.6552 124.116L62.6993 124.116ZM92.7472 127.955C92.6199 127.592 92.5131 127.251 92.3843 126.91C92.3388 126.788 92.2414 126.69 92.1189 126.645C91.9948 126.599 91.8581 126.61 91.7434 126.675C91.1685 127.116 90.7272 127.707 90.4648 128.382C90.2638 128.999 90.5324 129.673 91.1041 129.981C91.3287 130.145 91.6193 130.19 91.8817 130.101C92.1456 130.011 92.3482 129.799 92.4267 129.534C92.554 128.957 92.6404 128.425 92.7472 127.955ZM88.7385 148.598H88.7369C88.6568 148.437 88.5563 148.286 88.4385 148.151C87.251 146.987 85.9016 146.002 84.4298 145.229C84.3512 145.187 84.2586 145.183 84.1785 145.221C84.0983 145.259 84.0402 145.334 84.0245 145.421C83.9915 145.51 83.9915 145.609 84.0245 145.699C85.1335 147.062 86.5315 148.162 88.1181 148.919C88.2014 148.952 88.2925 148.952 88.3742 148.919C88.4496 148.95 88.5344 148.95 88.6098 148.919C88.6098 148.919 88.7166 148.62 88.737 148.534L88.7385 148.598ZM45.9164 78.5444C45.6603 78.2679 45.4687 77.9051 45.1702 77.7559C43.9545 77.0946 42.6963 76.5197 41.46 75.9212C41.46 75.9212 41.1616 76.0484 41.0327 76.1552C41.0045 76.2385 41.0045 76.328 41.0327 76.4113C42.2187 77.7166 43.8429 78.5444 45.596 78.736C45.596 78.736 45.7671 78.6292 45.9164 78.5444ZM96.97 30.8365C96.6527 32.5392 96.816 34.297 97.4381 35.9133C97.4381 35.9133 97.5449 36.0625 97.6093 36.1269C97.6737 36.1913 97.8009 36.1269 97.8433 36.1269C97.8858 36.1269 98.2062 35.9997 98.2486 35.8709V35.8693C98.4324 34.9755 98.3428 34.0472 97.9926 33.2037C97.7585 32.4152 97.7805 31.4553 96.97 30.8365ZM43.2302 29.6003C43.3574 29.4935 43.5506 29.3866 43.6135 29.2594C44.0988 28.1017 44.2544 26.8309 44.0611 25.5916C44.0219 25.2319 43.9135 24.8847 43.7407 24.5674C43.7407 24.3538 43.3574 24.2266 43.1438 24.0349C42.861 25.8806 42.8909 27.7624 43.2286 29.6003L43.2302 29.6003ZM13.693 83.5773V83.3008V83.2993C13.0003 82.2139 12.1772 81.218 11.241 80.3352H10.7509C10.6723 80.3823 10.6174 80.4593 10.6001 80.5488C10.4022 81.1787 10.5655 81.8667 11.0273 82.3395C11.574 83.0432 12.328 83.5584 13.1809 83.8113C13.2657 83.8333 13.3537 83.8333 13.437 83.8113C13.437 83.8113 13.6286 83.6197 13.693 83.5773ZM99.9324 71.9551C99.9324 71.9551 99.7832 71.7839 99.6984 71.7635L99.6968 71.7619C99.6151 71.7321 99.524 71.7321 99.4423 71.7619C98.0993 72.8411 96.9589 74.148 96.0714 75.623V76.0926C96.0714 76.2639 96.4547 76.0926 96.5615 76.0926L96.5631 76.0911C97.7506 75.1078 98.792 73.9579 99.6544 72.6793C99.7785 72.4515 99.8711 72.2065 99.9324 71.9551ZM64.8721 26.5071C64.5312 26.9124 64.7448 27.4025 64.6584 27.8298C64.4668 29.7414 64.1102 31.6311 63.5935 33.4816C63.562 33.5712 63.562 33.6685 63.5935 33.7581C63.6154 33.8429 63.6516 33.9214 63.7003 33.9937C63.8071 34.1649 63.9343 34.1209 64.0631 33.9937H64.0616C64.6003 32.6711 64.9381 31.2778 65.0637 29.8562C65.1705 28.8572 65.1705 27.8488 65.0637 26.8497C65.1077 26.7853 64.9585 26.6564 64.8721 26.5071ZM129.212 140.75C129.212 140.984 128.956 141.241 128.998 141.432C129.303 142.505 130.093 143.374 131.131 143.779C131.397 143.853 131.676 143.853 131.942 143.779C132.09 143.691 132.192 143.543 132.218 143.374C132.269 143.008 132.123 142.643 131.835 142.414C131.083 141.687 130.19 141.121 129.212 140.75ZM167.597 130.493C168.059 130.543 168.521 130.405 168.878 130.108C169.735 129.398 170.458 128.539 171.011 127.571C171.051 127.491 171.051 127.395 171.011 127.315C171.011 127.081 170.777 127.017 170.605 127.124C169.335 127.875 168.244 128.894 167.406 130.108C167.374 130.184 167.374 130.268 167.406 130.344C167.489 130.4 167.583 130.436 167.684 130.449L167.597 130.493ZM97.2217 157.683L97.2233 157.682C97.5484 157.599 97.8579 157.462 98.139 157.278C99.1365 156.549 99.9784 155.627 100.613 154.569C100.698 154.411 100.742 154.236 100.742 154.056C100.762 153.877 100.717 153.695 100.613 153.546C100.467 153.469 100.291 153.469 100.145 153.546C99.1003 154.677 98.0117 155.828 97.0316 157V157.448C97.03 157.597 97.2232 157.555 97.3929 157.639L97.2217 157.683ZM67.3656 97.8032L67.3672 97.8016C67.2887 97.7859 67.2101 97.7859 67.1316 97.8016V97.9933C68.2123 99.3536 69.7972 100.214 71.5252 100.382H71.7812C71.866 100.382 71.7812 100.148 71.7812 99.9772C71.6618 99.8327 71.5268 99.7039 71.376 99.5939L67.7286 97.8032V97.8017C67.6815 97.7812 67.6312 97.7671 67.5794 97.7592L67.3656 97.8032ZM170.028 134.91C169.495 134.91 169.046 134.91 168.598 135.102V135.293L168.6 135.292C168.575 135.383 168.575 135.479 168.6 135.57C169.173 136.157 169.921 136.547 170.731 136.679C170.999 136.743 171.277 136.743 171.542 136.679C171.765 136.539 171.943 136.339 172.054 136.102C172.203 135.846 171.883 135.292 171.584 135.227C171.286 135.164 170.711 134.93 170.241 134.866L170.028 134.91ZM115.074 129.172C114.924 128.575 114.733 127.679 114.477 126.826V126.825C114.389 126.575 114.243 126.349 114.049 126.165C113.899 126.109 113.732 126.109 113.581 126.165C113.581 126.165 113.581 126.292 113.454 126.379L113.452 126.377C113.264 127.643 113.621 128.93 114.434 129.918C114.434 130.025 114.733 130.045 114.882 130.067C115.031 130.089 114.989 129.918 115.009 129.833C115.031 129.747 115.031 129.555 115.074 129.172ZM28.8342 52.0565C29.0038 51.9889 29.1562 51.8884 29.2819 51.758C30.028 50.7401 30.65 49.6374 31.137 48.4735C31.1778 48.3085 31.1197 48.1342 30.9877 48.0258C30.8244 47.9771 30.6469 48.0179 30.5196 48.1326C29.7908 48.9353 29.2065 49.8589 28.7917 50.8626C28.6645 51.2035 28.4713 51.5239 28.6645 51.9072C28.7101 51.9669 28.7682 52.0188 28.8342 52.0565ZM78.0983 132.22C78.0983 132.22 78.0983 132.411 78.2695 132.433H78.268C78.3512 132.462 78.4407 132.462 78.524 132.433C79.4979 132.045 80.2691 131.274 80.6571 130.3C80.6996 130.126 80.6996 129.942 80.6571 129.768C80.6571 129.768 80.5503 129.641 80.4655 129.619C80.2252 129.485 79.9424 129.455 79.6801 129.535C79.4194 129.615 79.201 129.801 79.0785 130.046C78.78 130.6 78.502 131.155 78.2256 131.731V131.73C78.1517 131.884 78.1093 132.05 78.0983 132.22ZM136.873 145.015C137.022 145.015 137.278 145.015 137.32 144.866C137.482 144.539 137.576 144.184 137.598 143.822C137.598 142.436 137.449 141.071 137.342 139.706C137.342 139.515 137.342 139.194 136.959 139.279H136.958C136.549 141.167 136.519 143.116 136.873 145.015ZM155.256 144.418C155.256 144.418 155.256 144.247 155.128 144.205H155.127C155.05 144.186 154.97 144.186 154.893 144.205C153.589 144.698 152.457 145.557 151.63 146.679C151.602 146.748 151.602 146.823 151.63 146.892C151.63 147.106 151.929 147.169 152.1 147.042L155 144.908C155.085 144.739 155.149 144.56 155.191 144.376L155.256 144.418ZM93.4132 55.7019C93.4132 54.7202 93.4132 53.74 93.264 52.7583C93.264 52.5666 93.0503 52.5022 92.8587 52.5871C92.6671 52.6719 92.6671 52.6939 92.6451 52.7787C92.4739 53.784 92.4958 53.9961 93.4116 55.6596L93.4132 55.7019ZM16.8931 49.3906H17.4052C18.1937 48.9634 18.9838 48.4953 19.7504 48.0476L19.7519 48.046C19.8823 47.9267 19.997 47.79 20.0928 47.6423C20.0928 47.6423 19.9656 47.4507 19.9216 47.4507V47.4491C18.7466 47.6361 17.6612 48.1968 16.8303 49.0498C16.8303 49.0498 16.703 49.221 16.8303 49.2838C16.9575 49.3482 16.8303 49.3262 16.8931 49.3906ZM158.195 114.776C158.195 114.776 158.046 114.925 158.068 115.01C158.354 116.144 158.979 117.164 159.859 117.932C159.904 118.013 159.991 118.064 160.083 118.064C160.176 118.064 160.262 118.013 160.306 117.932C160.333 117.856 160.333 117.773 160.306 117.698C159.796 116.655 159.135 115.692 158.344 114.84L158.195 114.776ZM179.52 125.973H179.776L179.778 125.971C180.757 125.538 181.561 124.787 182.059 123.839V123.626C182.059 123.604 181.718 123.392 181.611 123.434C180.579 123.781 179.746 124.559 179.329 125.566C179.308 125.643 179.308 125.724 179.329 125.801C179.338 125.86 179.352 125.916 179.373 125.971L179.52 125.973ZM90.1041 90.0594C90.1041 90.0594 89.9549 89.8677 89.9329 89.8882C88.9936 90.251 88.2867 91.0458 88.0354 92.0213C88.0086 92.0904 88.0086 92.1658 88.0354 92.2349C88.095 92.2695 88.1689 92.2695 88.227 92.2349C89.116 91.7872 89.7915 91.005 90.1041 90.0594ZM174.554 105.585C174.554 105.585 174.554 105.414 174.427 105.371C174.3 105.329 174.235 105.371 174.193 105.371C173.395 105.976 172.787 106.798 172.443 107.739V107.952V107.951C172.507 107.995 172.592 107.995 172.657 107.951C173.453 107.44 174.07 106.695 174.427 105.819C174.427 105.819 174.554 105.69 174.554 105.583L174.554 105.585ZM165.853 108.122C166.152 106.523 166.152 106.523 165.277 104.262C164.98 105.222 164.98 105.222 165.853 108.122ZM100.255 97.032C100.178 97.0195 100.099 97.0195 100.021 97.032C99.947 97.0823 99.8936 97.1593 99.8716 97.2457L100.319 99.6348H100.511C100.575 99.6348 100.703 99.6348 100.725 99.528C100.747 99.4212 101.045 99.016 101.001 98.8023H101.003C100.857 98.1897 100.679 97.585 100.469 96.9896C100.469 96.9896 100.341 97.054 100.255 97.032ZM180.056 149.023C179.736 149.023 179.459 148.809 179.246 148.873C178.547 149.052 177.898 149.389 177.348 149.855C177.268 149.899 177.213 149.978 177.199 150.069C177.199 150.069 177.199 150.24 177.326 150.24V150.238C178.354 150.176 179.323 149.745 180.056 149.023ZM137.299 170.605C137.393 170.748 137.5 170.885 137.617 171.011C138.321 171.438 139.144 171.625 139.964 171.543C140.047 171.526 140.118 171.471 140.156 171.394V171.138C139.421 170.775 138.609 170.591 137.789 170.605C137.627 170.564 137.459 170.564 137.299 170.605ZM132.457 130.087C132.437 129.721 132.395 129.359 132.329 128.999C132.329 128.658 132.095 128.317 131.667 128.253C131.24 128.188 131.135 128.551 131.155 128.999H131.157C131.081 129.72 131.341 130.435 131.86 130.94C131.942 130.972 132.033 130.972 132.115 130.94C132.192 130.903 132.247 130.832 132.264 130.749L132.457 130.087ZM149.667 124.692C150.288 123.938 150.647 123.002 150.69 122.026C150.69 121.877 150.54 121.728 150.456 121.578C150.371 121.429 150.264 121.578 150.242 121.706C149.95 122.4 149.7 123.113 149.496 123.839C149.431 123.966 149.667 124.264 149.667 124.692ZM99.0598 117.1C99.6206 117.18 100.148 116.819 100.276 116.267C100.34 116.118 100.34 115.949 100.276 115.799C100.276 115.799 99.9127 115.565 99.8279 115.628C99.4478 115.84 99.0912 116.09 98.7613 116.374C98.6781 116.527 98.6781 116.712 98.7613 116.864C98.6765 116.971 98.9106 117.014 99.0598 117.1ZM48.0907 48.8597C48.0907 48.4544 47.9634 48.1135 47.877 47.7507V47.7491C47.8142 47.7271 47.7467 47.7271 47.6854 47.7491C47.6854 47.7491 47.4718 47.7491 47.4513 47.8559C47.1749 48.5596 46.9189 49.2414 47.4513 49.9891H47.7074H47.7058C47.8582 49.6356 47.987 49.2712 48.0907 48.9021V48.8597ZM20.1539 61.5893C19.6309 61.2688 19.0072 61.1542 18.4041 61.2704C18.3177 61.305 18.2375 61.3552 18.17 61.4196C18.17 61.4196 18.2972 61.5908 18.3616 61.5908C18.8957 61.6113 19.4502 61.5893 20.1539 61.5893ZM36.6378 20.6893V20.4977C36.6378 20.4977 36.531 20.6045 36.531 20.6469V20.8605L36.6378 20.6893ZM101.36 102.365L101.509 102.471V102.365H101.36Z" fill="#B68176"/>
</g>
</svg>
