<?xml version="1.0" encoding="utf-8"?>
<!-- Generator: Adobe Illustrator 23.1.0, SVG Export Plug-In . SVG Version: 6.00 Build 0)  -->
<svg version="1.1" id="Calque_1" xmlns="http://www.w3.org/2000/svg" xmlns:xlink="http://www.w3.org/1999/xlink" x="0px" y="0px"
	 viewBox="0 0 1197 557" style="enable-background:new 0 0 1197 557;" xml:space="preserve">
<style type="text/css">
	.st0{fill:#D63C1A;}
</style>
<path class="st0" d="M130.3,120.6c5.4,1.9,10.4,5.2,14.9,10c2.2,2.3,3.3,5.4,3,8.5c-1.1,11.6-6.1,20.4-14.8,26.3
	c-26.2,17.5-76.8,2.3-78.9,1.7c-0.4-0.1-0.9-0.5-1-1c-0.2-0.5-0.1-1,0.2-1.4c1.3-1.8,31.7-43.6,63.2-45.9
	C121.6,118.6,126.1,119.1,130.3,120.6L130.3,120.6z M57.5,164.8c9.9,2.7,52.2,12.8,74.2-1.9c7.9-5.3,12.5-13.4,13.5-24.1
	c0.2-2.2-0.6-4.5-2.1-6.2c-7.5-7.8-16.3-11.4-26-10.7C90.6,123.8,63.7,156.7,57.5,164.8L57.5,164.8z"/>
<path class="st0" d="M173.3,107.9l0.2,0.1c0.7,0.4,1,1.3,0.6,2c-5.1,9.4-14.1,18.2-26.7,26c-0.7,0.5-1.7,0.2-2.1-0.5
	c-0.5-0.7-0.2-1.7,0.5-2.1c12.2-7.5,20.8-16,25.7-24.9C171.8,107.9,172.6,107.6,173.3,107.9L173.3,107.9z"/>
<path class="st0" d="M146.8,134.1c0.1,0,0.3,0.2,0.4,0.3c0.2,0.3,0.1,0.8-0.3,1c-36,22.5-91.3,30.9-91.8,31.1
	c-0.4,0.1-0.8-0.2-0.8-0.6c-0.1-0.4,0.2-0.8,0.6-0.8c0.6,0,55.4-8.4,91.3-30.7C146.4,134,146.6,134,146.8,134.1L146.8,134.1z"/>
<path class="st0" d="M97.7,155.1c0.1,0,0.1,0,0.2,0.1c0.3,0.3,0.4,0.8,0.1,1.1l-12.5,15.7c-0.3,0.3-0.8,0.4-1.1,0.1
	s-0.4-0.8-0.1-1.1l12.5-15.7C97,155.1,97.4,155,97.7,155.1z"/>
<path class="st0" d="M125.9,144.9l0.2,0.1c0.3,0.3,0.4,0.7,0.2,1l-18.2,25.9c-0.3,0.3-0.7,0.4-1,0.2c-0.3-0.3-0.4-0.7-0.2-1
	l18.2-25.9C125.2,144.9,125.5,144.8,125.9,144.9z"/>
<path class="st0" d="M67.3,150.5L67.3,150.5l17.3,8.4c0.3,0.2,0.5,0.7,0.4,1c-0.2,0.3-0.7,0.5-1,0.4l-17.3-8.4
	c-0.3-0.2-0.5-0.7-0.4-1C66.6,150.5,66.9,150.4,67.3,150.5z"/>
<path class="st0" d="M81.9,137.1C82,137.1,82,137.1,81.9,137.1l30.7,12.6c0.4,0.1,0.6,0.6,0.4,1c-0.1,0.4-0.6,0.6-1,0.4l-30.7-12.6
	c-0.4-0.1-0.6-0.6-0.4-1C81.2,137.1,81.5,136.9,81.9,137.1z"/>
<path class="st0" d="M101.1,124.1l35.3,15.7c0.4,0.1,0.6,0.6,0.4,1c-0.1,0.4-0.6,0.6-1,0.4l-35.2-15.7c-0.4-0.1-0.6-0.6-0.4-1
	C100.3,124.1,100.7,124,101.1,124.1L101.1,124.1z"/>
<path class="st0" d="M1129.5,440.6c4.3-12.5,6.8-25.5,5.1-38.6c-0.2-1.4-2.4-1.4-2.2,0.1c1.7,12.6-0.7,25.1-4.8,37.1
	c-6.8-4-16.1-4.2-22.3-2c-0.8,0.3-1,1.2-0.4,1.9c8.9,10.2-18.6-0.8-32.9,39.2c-4.5,17.4,9,35.4,7.5,45.6c-0.1,0.7,0.8,1.2,1.4,1
	c45.9-10.5,50.9-23.9,56.9-39.2C1142.2,474.5,1140.3,450.5,1129.5,440.6L1129.5,440.6z M1134.1,489.6
	c-10.8,23.9-35.5,28.7-52.5,32.8c1.4-8.1-11.6-28.6-7.5-43.6c4.8-15.4,15.5-25.1,23.5-29.3c5.1-2.6,14.3-3,10-10.6
	c5.5-2.1,15.3,0,19.3,2.4c-0.7,1.9-1.4,3.7-2.1,5.6c-4.5,4.9-9.5,9.3-15,13.2c-5.4,3.9-13.1,6.8-19.9,8.8
	c9.8-1.2,17.1-1.5,32.4-16.3c-1.3,3-11.4,23.9-18.4,34.6c-4.8,3.5-17.7,8.2-20,8.8c4.1-0.4,11.7-2.1,18.1-5.6
	c-8.5,14.3-16.4,26.9-16.2,27.1c4.9-5.1,32.9-49.9,37.3-61.5c-0.8,13.2-4.5,29.1-7.7,34.7c6-7.9,10.2-25.7,10.1-39.9
	c0,0,2.2-5.5,3.2-8.2C1140.3,457.2,1139,478.7,1134.1,489.6L1134.1,489.6z"/>
</svg>
