<svg width="206" height="205" viewBox="0 0 206 205" fill="none" xmlns="http://www.w3.org/2000/svg">
<path d="M130.414 73.9884C139.574 77.1527 148.023 82.7691 155.637 90.7964C159.305 94.6263 161.145 99.8486 160.642 105.207C158.735 124.785 150.347 139.697 135.602 149.576C91.4048 179.101 6.06926 153.533 2.53096 152.445C1.80727 152.195 1.08876 151.542 0.814953 150.773C0.541161 150.003 0.711637 149.118 1.20326 148.478C3.33306 145.437 54.6683 74.9362 107.821 71.0382C115.812 70.5598 123.302 71.5284 130.413 73.9849L130.414 73.9884ZM7.6562 148.55C24.3026 153.086 95.6972 170.193 132.906 145.273C146.271 136.264 153.961 122.596 155.73 104.588C156.094 100.801 154.723 96.9551 152.174 94.185C139.452 81.0205 124.677 74.9729 108.372 76.086C63.3714 79.4289 18.0046 134.992 7.65592 148.548L7.6562 148.55Z" fill="#4C160D"/>
<path d="M202.995 52.5136L203.356 52.6384C204.598 53.3378 205.026 54.8341 204.327 56.0772C195.725 71.9937 180.523 86.71 159.208 99.988C157.99 100.782 156.381 100.361 155.709 99.1836C154.915 97.9655 155.335 96.3567 156.513 95.6842C177.096 82.9626 191.609 68.6847 199.876 53.7308C200.533 52.6081 201.789 52.0979 202.994 52.5144L202.995 52.5136Z" fill="#4C160D"/>
<path d="M158.315 96.7098C158.557 96.7932 158.756 96.9971 158.956 97.2014C159.313 97.7292 159.142 98.6154 158.493 98.9309C97.7499 136.903 4.48359 151.095 3.59377 151.329C2.8661 151.482 2.22669 150.992 2.1933 150.306C2.04031 149.578 2.5303 148.939 3.21664 148.905C4.18473 148.835 96.7692 134.678 157.263 97.0214C157.55 96.5807 157.954 96.585 158.315 96.7098L158.315 96.7098Z" fill="#4C160D"/>
<path d="M75.3837 132.145C75.5045 132.186 75.6253 132.228 75.7032 132.39C76.2226 132.84 76.3343 133.687 75.8856 134.207L54.7498 160.633C54.2999 161.153 53.4523 161.265 52.9328 160.816C52.4134 160.366 52.3018 159.518 52.7505 158.999L73.8862 132.573C74.2944 132.174 74.9016 131.978 75.3837 132.145Z" fill="#4C160D"/>
<path d="M122.993 115L123.354 115.125C123.873 115.575 124.027 116.301 123.698 116.862L92.9381 160.606C92.4882 161.125 91.7618 161.278 91.2006 160.949C90.6812 160.499 90.5278 159.773 90.8569 159.212L121.496 115.427C121.783 114.987 122.39 114.792 122.993 115Z" fill="#4C160D"/>
<path d="M24.0883 124.41L24.2091 124.452L53.3334 138.56C53.8945 138.889 54.1683 139.658 53.9605 140.26C53.6314 140.821 52.862 141.095 52.2603 140.887L23.1361 126.779C22.5749 126.45 22.3011 125.68 22.509 125.079C22.8786 124.396 23.4854 124.202 24.0883 124.41Z" fill="#4C160D"/>
<path d="M48.772 101.773C48.8928 101.814 48.8928 101.814 48.772 101.773L100.643 123.064C101.367 123.314 101.64 124.083 101.27 124.764C101.02 125.487 100.251 125.761 99.57 125.391L47.8184 104.141C47.0947 103.891 46.8209 103.122 47.1913 102.441C47.5204 101.88 48.1691 101.564 48.772 101.773Z" fill="#4C160D"/>
<path d="M81.152 79.9054L140.668 106.401C141.392 106.651 141.666 107.421 141.295 108.101C141.087 108.704 140.276 109.099 139.595 108.728L80.1984 82.2739C79.4747 82.0239 79.2009 81.2545 79.5713 80.5737C79.7795 79.9708 80.5477 79.6966 81.1506 79.9049L81.152 79.9054Z" fill="#4C160D"/>
</svg>
