<?xml version="1.0" encoding="utf-8"?>
<!-- Generator: Adobe Illustrator 23.1.0, SVG Export Plug-In . SVG Version: 6.00 Build 0)  -->
<svg version="1.1" id="Calque_1" xmlns="http://www.w3.org/2000/svg" xmlns:xlink="http://www.w3.org/1999/xlink" x="0px" y="0px"
	 viewBox="0 0 1440 250" style="enable-background:new 0 0 1440 250;" xml:space="preserve">
<style type="text/css">
	.st0{fill:#D63C1A;stroke:#D63C1A;stroke-width:0.5;stroke-miterlimit:10;}
	.st1{fill:#D63C1A;stroke:#32110C;stroke-width:0.5;stroke-miterlimit:10;}
</style>
<path class="st0" d="M96.4,188.5c3.7-5.3,5.8-11.1,12-14c1.8,2.5,2.8,5.4,2.8,8.4s-1,5.9-2.8,8.4c-2.1,2.6-4.6,4.9-7.2,7.6
	c1.4,3.5,2.9,7.3,4.4,11.2c1.7,4.5,3.2,9,4.7,13.6c1,3,2.1,6,2.9,9c0.7,2.7,1,5.5,1.5,8.3c0.2,1.3,0.6,2.7,0.9,4l0.7-0.1
	c0-26.5,0-53.1,0-80c-1.7-1.1-3.7-2.6-5.8-3.8l0,0c-1.8-1.1-3.4-2.6-4.6-4.3c-3.6-5.2-5.2-11.4-4.6-17.6c6.1-1.8,12.2,1.2,15.9,7.3
	c0.8-20.6,1-41.3,4.7-61.4c-5.2-4.6-8.2-10.9-8.3-17.6c-0.1-3.6,0.4-7.1,0.6-10.7l0,0c-0.1-0.6,0.2-1.1,0.7-1.4
	c0.5-0.3,1.1-0.3,1.6,0l6.9,11.9c0.3-1.6,0.4-3.1,0.5-4.7c0.2-5.8,1.5-11.4,4-16.7c0.7-1.4,0.8-2.9,0.3-4.4c-1-2.5-1.3-5.2-0.8-7.9
	c0.5-2.6,1.8-5.1,3.8-7.1c3-3.4,5.8-7,8.4-10.7c0.3-0.4,0.8-0.7,1.3-1c0.3,0,0.6,0.1,0.9,0.2c-0.1,2.2-0.1,4.4-0.3,6.6
	c-0.3,4.1-0.5,8.2-0.9,12.3l0,0c-0.2,2.3-1.5,4.4-3.5,5.7c-0.8,0.7-1.7,1.4-2.7,2.1c-4.8,2.3-5.9,6.6-7.1,10.9
	c-1.7,6.6-2.4,13.5-2.1,20.3c0.2,6.7-1.8,13-2.6,19.5c-0.7,5.9-1.4,11.8-1.5,17.9c0.4-0.5,0.9-1.1,1.3-1.6s0.8-1.1,1.1-1.6
	c2.4-4,6.3-7,11-8.4c1.1-0.4,2.2-0.8,3.2-1.1l0,0c1.3-0.6,2.8-0.4,3.8,0.6c-0.8,3.1-1.6,6.1-2.5,9.1l0,0c-1,3.8-3.7,7.1-7.5,8.8
	c-2.1,1.3-4.4,2.3-6.9,2.9c-1.3,0.7-2.4,1.5-3.4,2.5c-1.1,0.8-1.6,2.1-1.3,3.4c-0.2,6.9-0.4,13.9-0.6,20.8c-0.3,6.3-0.7,12.5-1,18.8
	c0,0.1,0,0.2,0,0.3c-0.3,9.3-0.8,18.6-0.9,27.9c-0.1,4.5,0.6,9.1,0.7,13.6c0.1,4.2-0.4,8.4-0.4,12.7c0,4.1,0.3,8.2,0.4,12.3
	c0.1,2.3,0.1,4.5,0.1,6.8l0,0c0,1.2,0.2,2.4,0.6,3.5c0.6-2.7,1.2-5.4,1.7-8.1c1.6-8.6,3.2-17.3,4.8-25.9c2.1-10.5,4.2-21.1,6.4-31.6
	l0,0c0.6-2,0.1-4.1-1.2-5.8c-3.3-4.1-5-9.2-4.7-14.3c0.1-3.1,0.3-6.3,0.4-9.4c0.4-2.5,1.2-5,2.5-7.3c5.6,4.7,7.2,10.6,7.3,17.1
	l0.9-0.3c1.5-4.3,2.8-8.7,4.4-13c2.2-5.6,4.4-11.2,6.9-16.6c3.2-7,6.4-13.9,10-20.7c2.7-5,5.9-9.8,9.1-14.6l0,0c1-1.2,1.3-2.8,1-4.3
	c-0.2-1.1-0.4-2.1-0.5-3.2c-0.3-2.4,0.5-4.8,2.2-6.7c2.8-2.9,5.8-5.6,8.7-8.3c1-1,2.1-2,3.1-3c0.4-0.4,0.9-0.8,1.5-1.3l0,0
	c0.3,0.2,0.6,0.5,0.8,0.8c0.2,5.6-1.2,11.2-4.2,16.1c-0.9,1.1-1.9,2.1-3,3c-1.3,1.2-2.6,2.4-3.9,3.6c-0.2,0.4-0.5,0.7-0.9,1
	c-3.9,1.7-5.2,5.3-7.1,8.4c-2.7,4.4-5.3,8.9-7.9,13.4c-0.6,1.1-1.1,2.3-1.7,3.5l0,0c0.3,0.1,0.6,0.1,1,0.1
	c4.8-3.3,10.3-2.5,15.7-2.4c1,0.1,2,0.5,2.8,1.1c0.8,0.5,1.4,1.2,1.5,2.1s-0.2,1.8-0.8,2.4c-3.2,4.2-8.3,6.8-13.9,6.9
	c-2.2,0-4.4-0.1-6.5-0.4c-1.2-0.1-2.5-0.3-4-0.5c-13.3,25.3-18.3,52.6-23.7,79.8l0.7,0.4c0.7-0.9,1.4-1.9,2.2-2.7
	c2.1-2.2,4.1-4.4,6.3-6.5c0.8-0.7,1.7-1.1,2.7-1.3c3.7-0.8,7.4-1.4,11.4-2.2c0.1,0.6,0.2,1.2,0,1.8c-1.7,4-3.6,7.9-5.8,11.8
	c-2.4,3.8-6.5,6.4-11.2,6.9c-3,0.7-5.8,2-8.3,3.7c-0.5,0.6-0.8,1.3-0.8,2c-1.3,7.6-2.6,15.2-3.7,22.8c-0.5,4-1,7.7-5.7,9.8
	c-1.3-0.1-1.5-1.3-1.7-2.5c-0.4-2.8-1-5.6-1.3-8.4l0,0c-0.8-5.7-2.3-11.3-4.6-16.6c-2.3-6-4.3-12.1-6.6-18.1
	c-2.1-5.5-4.5-10.9-6.8-16.4c-0.9-2.1-1.7-4.2-2.5-6.4c-0.6-1.7-1.1-3.5-1.8-5.3c-1-2.6-2-2.9-4.8-1.7c-2.2,0.9-4.5,1.7-6.7,2.5l0,0
	c-3.2,1.3-6.7,1.6-10,0.7c-3.3-0.8-6.2-2.8-8.3-5.4c-1.1-1.3-2.1-2.6-3.1-3.8c0.5-2.8,3-4.9,6-5.2c2.7-0.5,5.4-1.3,8.1-1.6l0,0
	c3.1-0.2,6.3,0.5,8.9,2.1c0.9,0.4,1.7,0.9,3.3,1.8c-1.6-2.9-2.7-5.2-4-7.3c-4-6.5-7.9-13-12.1-19.3c-3.3-4.9-7-9.6-10.4-14.5
	c-3.1-4.4-6.2-8.9-9.3-13.3l0,0c-0.4-0.5-0.9-0.9-1.5-1.3c-0.3-0.2-0.6-0.3-1-0.4c-9.3-1.7-10.6-11.1-8.4-17.1
	c0.4-1.2,0.8-2.4,1.3-4.1c1,0,2,0.1,2.9,0.4c3.8,1.9,6.7,5.1,8,9c1.2,3.4,1.6,7,1.2,10.5c-0.3,2,0.1,4.1,1.2,5.9
	c3.2,4.7,6.9,9.2,10.5,13.8c0.4-3.7,0.5-7.2,1.2-10.6c1.4-4.6,3.7-8.9,6.8-12.7c0.3-0.5,0.7-0.9,1.2-1.2c1.2-0.8,2.3-0.6,2.7,0.8
	l0,0c0.8,2.3,1.3,4.6,1.3,7c-0.4,5.4-1,10.7-2.1,16.1c-0.7,2.1-1.8,4-3.4,5.6c-1.7,1.7-1.8,4.3-0.1,6.1c2.7,3.9,4.9,8.1,7.3,12.1
	c3.6,6,7,12.2,11.1,17.9l0,0c2.5,3.7,4.4,7.7,5.7,11.9C94.5,183.4,95.5,186,96.4,188.5L96.4,188.5z M60,167.6c0.8,1.1,1.3,2,2,2.9
	l0,0c2.4,3.4,6.5,5.3,10.9,5.1c5-0.4,9.8-1.8,14.2-4.2C77.2,161.7,66.3,162.9,60,167.6L60,167.6z M116.7,161.1
	c0.2-0.6,0.3-1.3,0.2-2c-1.6-2.7-1-5.7-1.7-8.5c-0.2-1.1-0.5-2.1-0.8-3.2l0,0c-0.8-2.6-2.8-4.8-5.5-6c-1.6-0.9-3.7-0.9-5.3,0
	c-0.5,4.2,0.5,8.4,2.8,12C108.9,157,112.5,159.7,116.7,161.1z M146.6,193.9c-10.1,2-8.7,0.6-15.2,8.7c-1.7,2.1-3.5,4.3-2.5,7.3
	C137.7,210.4,145.7,202.8,146.6,193.9L146.6,193.9z M138.1,100.1c-4.5,0.8-8.6,2.9-11.7,6.1c-3.1,3.2-4.9,7.2-5.3,11.5
	c3.8-0.5,7.3-2,10.3-4.2c1.5-0.9,2.8-2.2,3.6-3.7C136.3,106.6,137.3,103.3,138.1,100.1z M66.9,132.2c4.6-4.9,6.7-18,4.2-24
	c-3.2,3.1-5.3,7.1-6.1,11.4C64.3,123.9,64.9,128.3,66.9,132.2z M174,114.9c-6.2-4-17.5-0.9-20.3,5.3
	C159.6,123.5,171.2,120.6,174,114.9z M132,167.9c3.6-7.8,2.2-20-2.6-24.7C126.2,148.2,127.6,162.3,132,167.9z M131.5,41.4
	c3-2.3,6-4.2,6.5-7.7c0.6-4.3,0.7-8.6,1-13.3c-1.9,2.1-3.3,3.7-4.8,5.3c-2.3,2.3-3.9,5.1-4.6,8.2C128.7,36.6,129.4,39.4,131.5,41.4
	L131.5,41.4z M100.4,196.2c6.7-4,10.8-13.2,6.4-18.5l0,0c-0.5,0.3-0.9,0.6-1.3,1c-2.1,3.3-4.3,6.6-6.2,10.1
	C97.8,191.1,98.3,194.2,100.4,196.2z M47.8,106.9c-0.3-6.2-1.6-11.6-7-15.5C35,99.3,39.9,107,47.8,106.9z M171,85.9
	c6-3.1,11.3-10.3,9.5-17.2c-3.2,3.2-6.4,6.2-9.3,9.3C169.3,80.3,169.2,83.6,171,85.9L171,85.9z M122.3,80.4c0.1-7.1-0.6-14.1-5.5-20
	c-1.1,3.5-1.2,7.2-0.2,10.7C117.6,74.6,119.5,77.8,122.3,80.4z"/>
<g>
	<path class="st1" d="M1323.7,154.9c0.5,0.7,0.6,1.6,0.3,2.4c0,0.1-0.3,0.2-0.5,0.2s-0.3-0.1-0.5-0.2c-0.4-0.3-0.8-0.6-1.2-1
		c-2-1.7-3.5-4-4.4-6.4c0,0,0-0.1-0.1-0.2c-0.1-0.1-0.5-0.4-0.7-0.2c-0.8,1-1.8,1.7-2.6,2.6l0,0c-1,1.2-1.6,2.6-2,4.1
		c-0.3,1.1-0.7,2.3-1.1,3.3c-0.3,0.7-0.9,1.3-1.7,1.6c-0.4,0.2-0.9,0-1.1-0.5c-0.1-0.5-0.2-1.1-0.1-1.6c0.1-0.9,0.1-1.8,0-2.7
		c-0.1-1.8-0.2-3.6-0.2-5.4c0-0.7-0.2-1.4-0.2-2.1c0-0.7-0.6-0.5-0.8-0.2c-0.3,0.3-0.8,0.7-0.8,1c-0.1,0.5-0.3,1.1-0.7,1.4
		c-0.8,0.8-1.5,1.7-2.1,2.7c-0.4,0.6-0.9,1.2-1.4,1.8l-1.7,0.6c-0.2,0-0.4,0-0.6-0.2c-0.2-0.1-0.3-0.3-0.3-0.6c0-0.2,0-0.4,0-0.5
		c0.2-2.7,0.8-5.3,1.6-7.9c0-0.2,0.1-0.3,0.2-0.5c0.8-1.7,1.7-3.4,2.6-5c0.4-0.8,0.9-1.5,1.4-2.2l0,0c0.9-1.8,2.3-3.2,4-4.3
		c0.5-0.3,0.8-0.8,0.8-1.3c0-0.3,0.1-0.7,0.3-1c0.3-0.6,0.6-1.3,0.9-1.9c0.4-1.3,1.2-2.4,2.3-3.2c0.9-0.9,2-1.5,3.2-1.8
		c1.1-0.3,2.3-0.4,3.5-0.3c0.9,0.1,1.8,0.2,2.7,0.4c0.3,0.1,0.5,0.1,0.7,0.3c1.2,0.7,2.2,1.4,3.7,2.2c0.8,0,1.6-0.2,2.3-0.5
		c0.8-0.1,1.6-0.3,2.3-0.6c1.1-0.5,2.3-0.6,3.4-0.4c0.5,0.1,1.1,0.1,1.6,0.1c0.7-0.2,1.4-0.2,2.1-0.2c2.1,0,4.1,0.2,6.1,0.6
		c0.7,0.2,1.4,0.2,2.1,0.1c1.6-0.1,1.7-0.3,1.6-1.8c0-0.8-0.2-1.6-0.2-2.3l0,0c0-1.1-0.6-2.2-1.6-2.8c-1.6-1-3-2.3-4.6-3.2
		c-1.6-0.9-3-1.7-4.5-2.5c-2.6-1.6-5.1-3.3-7.7-5c-1.5-1-3-2-4.5-3l0,0c-1.1-0.7-2.2-1.6-3.1-2.6c-1.2-1.3-2.5-2.6-3.7-3.9
		c-0.4-0.4-0.8-0.8-1.1-1.2c-2.9-3.5-5.1-7.4-6.5-11.7c-1-2.9-1.9-5.8-2.8-8.7c-0.2-0.7-0.5-1.3-0.8-2l0,0c-0.1-0.2-0.2-0.5-0.3-0.8
		c-0.2-2.2-1.3-4.1-1.5-6.3c-0.6-1.6-1.1-3.2-1.8-4.7c-0.2-0.7-0.4-1.4-0.4-2.1c0-0.4,0.1-0.7,0.4-0.9c0.4-0.4,1-0.4,1.5-0.2
		c0.5,0.3,0.8,0.7,1,1.2c0.3,0.8,0.6,1.5,0.8,2.4l0,0c0.4,1.3,1.1,2.4,2,3.4c0.8,0.8,1.4,1.6,1.9,2.6c0.2,0.4,0.5,0.7,0.8,1.1
		c0.5,0.6,1.1,1.2,1.6,1.8c0.5,0.5,1,1,1.5,1.5c0.8,0.7,1.5,1.5,2.2,2.3c1,1.1,2.1,2.2,3.3,3.1l4.1,3.5l0,0c2.8,2.5,5.8,4.7,8.9,6.7
		c0.9,0.5,1.8,1.2,2.7,1.9c1,0.9,2.2,1.7,3.2,2.5c0.6,0.5,1.2,1.1,1.8,1.6c0.4,0.6,1,1.1,1.5,1.5c0.5,0.5,1,1.1,1.3,1.7
		c0.4,0.8,0.8,1.6,1.5,2.2c0.1,0.1,0.2,0.1,0.3,0c0.1,0,0.1-0.1,0.1-0.2s0-0.2,0-0.3c-0.3-2.6-0.6-5.2-1-7.8
		c-0.1-0.7-0.2-1.4-0.4-2.1c-0.1-0.5-0.3-1.1-0.3-1.6c-0.2-2.2-0.5-4.5-1-6.6c-0.2-0.9-0.3-1.8-0.6-2.6l0,0
		c-0.2-0.8-0.3-1.5-0.3-2.3c0-1.6-0.2-3.2-0.7-4.8c-0.7-0.7-1.4-1.3-2.2-1.9c-1.1-0.7-2-1.5-2.8-2.6c-0.6-0.9-1.2-1.8-1.9-2.8
		c-1-0.5-2.1-0.8-3.1-0.9c-2.4-0.3-4.7-1.1-6.8-2.4c-0.7-0.4-1.4-0.7-2.1-1.1c-2.8-1.6-5.4-3.6-7.6-6c-0.5-0.6-1.1-1.2-1.7-1.8
		c-1.5-1.6-2.5-3.6-2.7-5.7c0-0.5,0.1-1.1,0-1.6c0-0.7,0.4-1.4,0.9-1.9c0.6-0.5,1.3-0.7,2.1-0.6c0.4,0,0.9,0.1,1.3,0.3
		c0.4,0,0.8,0.3,1.3,0.5l0,0c0.5,0.2,1.1,0,1.5-0.3c0.6-0.6,1.3-1,2-1.3c0.5-0.2,0.8-0.7,0.9-1.2c0.2-0.6,0.3-1.2,0.6-1.8l0,0
		c0.4-0.9,1.2-1.6,2.2-1.9c0.1,0,0.2,0,0.3,0c1.8-0.2,3.5-0.8,5-1.8c1.3-0.8,2.9-1.1,4.4-1c0.8,0.1,1.6,0,2.3-0.2
		c1.1-0.4,2.3-0.4,3.4,0c0.4,0.1,0.8,0,1-0.3c0.6-0.9,1.6-0.7,2.4-1c0.5-0.2,1.1-0.2,1.6,0.1c0.6,0.2,1.2,0.3,1.8,0.1
		c1.3-0.4,2.6-0.7,3.9-1.1c0.8-0.3,1.5-0.4,2.3-0.4c1.2-0.2,2.4,0.2,3.2,1c0.7,0.7,1.8,1,2.7,0.7c2-0.4,4,0.3,5.4,1.7
		c0.5,0.4,1,0.8,1.4,1.1s0.9-0.3,1.3-0.6c0.5-0.3,1-0.5,1.5-0.6c0.9-0.2,1.8,0.3,2.3,1.1c0.2,0.3,0.3,0.6,0.5,1l0,0
		c0.2,0.4,0.2,0.9,0.1,1.3c-0.4,1.6-0.9,3.1-1.6,4.5c-0.5,0.8-0.9,1.6-1.3,2.2l0,0c-0.5,1.2-1.2,2.2-2.2,3.1c-1,1.5-2.1,2.9-3.1,4.5
		l0,0c-0.5,0.8-1,1.5-1.7,2.1c-0.3,0.3-0.6,0.6-0.9,1c-0.8,1.2-1.8,2.3-2.8,3.3c-0.8,0.8-1.6,1.4-2.6,2l-0.7,0.4l0,0
		c-1.5,0.7-2.7,2-3.4,3.6c-0.6,1.3-1.3,2.6-2.1,3.8c-0.6,1.2-1.7,2.2-3,2.6c-0.2,0-0.3,0.2-0.5,0.4l0,0c0.4,3.6,1,7.2,1.8,10.8
		c0.6,2.5,0.9,5.1,1.1,7.7c0.1,0.7,0.2,1.4,0.3,2.1c0.6,3,1.1,6,1.2,9c0.1,1.4,0.4,2.8,0.8,4.2c0,0.3,0,0.5,0,0.8
		c-0.1,1.2,0.1,2.3,0.5,3.4c0.2,0.4,0.3,0.9,0.3,1.3c-0.1,1.7,0.4,3.4,0.4,5.1c-0.1,1.3,0.2,2.5,0.7,3.7c0.1,0.2,0.2,0.5,0.2,0.8
		c-0.1,1.2,0,2.3,0.2,3.5c0.2,1.5,0.2,3,0.3,4.6l0,0c0,0.5,0,1.1,0.1,1.6c0.3,1,0.2,2.2-0.2,3.2c-0.1,0.4-0.1,0.9,0.1,1.3
		c0.4,1.2,0.5,2.5,0.3,3.7c0,0.6,0.3,1.2,0.2,1.8c-0.2,1.8,0.4,3.5,0.4,5.3l0,0c0.1,0.7,0.3,1.3,0.5,2c0.4-1.1,0.6-2,1-2.9
		s1-2.1,1.5-3.2c0.5-1.1,0.9-1.9,1.4-2.9c0.9-1.9,1.8-3.9,2.8-5.8c1-1.9,2-3.6,3.1-5.4c1.4-2.5,3.4-4.6,5-7l0,0
		c0.1-0.2,0.2-0.3,0.3-0.4c1.9-2.2,3.7-4.6,5.3-7.1c0.3-0.4,0.5-0.8,0.8-1.1c1.7-2.2,3.2-4.5,4.6-6.9c0.2-0.3,0.4-0.6,0.6-0.9
		c1.5-1.9,2.7-3.9,3.6-6.2c0-0.2,0.1-0.3,0.3-0.5c0-0.1,0.3-0.3,0.5-0.2c0.3,0,0.5,0.1,0.7,0.3c0.1,0.2,0.2,0.5,0.3,0.7
		c0,0.5,0.2,0.9,0.5,1.2c0.3,0.3,0.4,0.6,0.2,1l-1.3,5.5c-0.2,0.8-0.4,1.6-0.6,2.3l0,0c-0.1,0.5-0.2,1-0.5,1.5
		c-0.5,0.9-0.8,1.8-1,2.7c-0.7,2.6-1.4,5.2-2.2,7.8c-0.8,2.6-1.6,4.9-2.4,7.4c-0.4,1-0.7,2-1.1,3c-0.1,0.4-0.3,0.9-0.5,1.2
		c-0.9,1.5-1.8,3-2.8,4.5c-0.3,0.3-0.5,0.7-0.7,1.1c-1.2,2.1-2.6,4.1-4.1,6c0,0.1-0.2,0.3-0.3,0.4c-2,3-4.2,5.8-6.8,8.3
		c-0.6,0.5-1.1,1.2-1.6,1.9c-0.2,0.4-0.5,0.7-0.9,1c-1.2,1.1-2.1,2.3-2.7,3.8c-0.2,0.3-0.4,0.6-0.6,0.9c-0.5,0.7-0.8,1.4-1,2.3
		c-0.1,0.4-0.2,0.7-0.4,1c-0.6,1-0.9,2.1-0.9,3.3c-0.1,1.2-0.1,2.3,0,3.5c0.1,0.6,0.1,1.2,0.1,1.9c-0.1,1.2-0.1,2.3,0,3.5
		c0.1,1.5-0.2,3-0.2,4.6c0,0.2,0,0.3,0,0.5c-0.4,1-0.4,2.1-0.2,3.2c0.1,0.5,0.2,1.1,0.2,1.6c-0.3,1.8-0.2,3.6-0.5,5.3
		c-0.2,0.9,0.3,1.8-0.1,2.6l-0.2,3c-0.1,1,0.1,1.8,0.1,2.7l0,0c0.3,3.6,0.4,7.3,0.3,10.9c0,0.3-0.1,0.5,0,0.8
		c0.2,1.6,0.2,3.2,0.1,4.7c-0.1,1.3,0.1,2.7,0,4.1c0,1.4-0.1,2.5-0.1,3.7c0.1,1.3-0.1,2-0.2,3l0,0c0.2,1.1,0.1,2.2-0.3,3.2
		c-0.1,0.2-0.1,0.4,0,0.5c0,2-0.1,3.9-0.3,5.9c-0.2,0.7-0.2,1.4-0.1,2.1c0,0.9,0,1.8-0.1,2.7c-0.3,2-0.4,4.1-0.8,6.1
		c-0.2,0.8-0.4,1.6-0.7,2.3c-0.2,0.3-0.6,0.4-0.9,0.2c-0.4-0.3-0.7-0.6-0.8-1.1c-0.4-1.1-0.5-2.3-0.4-3.4c0.5-3.6,0.6-7.2,1-10.7
		c0.3-3,0.3-6.1,0.5-9.2c0.1-1.8,0.1-3.6,0.1-5.4c0-4.3,0-8.6-0.1-12.9c0-3.1-0.1-6.3-0.1-9.4c-0.1-2.1-0.1-4.1-0.1-6.2
		c0-2.1,0.2-4.3,0.3-6.5l0.2-3.7l0.1-2.1c0.2-3.7,0.3-7.4,0.1-11.1c-0.2-3.7-0.1-7.9-0.2-11.9c0-0.8-0.1-1.6-0.1-2.3
		c-0.1-1.1-0.1-2.1-0.1-3.2c0.1-2.8-0.1-5.6-0.2-8.4c-0.1-2.8-0.2-5.2-0.4-7.8c-0.1-2-0.4-3.9-0.6-5.9c0-0.2-0.2-0.5-0.4-0.7
		c-4,1-7.8,2.5-11.4,4.4c0.2,0.5,0.5,0.9,1,1.1c1.4,0.8,2.6,1.9,3.6,3.2c0.3,0.4,0.7,0.8,1.1,1.1c0.4,0.4,0.8,0.7,1.1,1.1l0,0
		c0.4,0.6,0.3,1.4-0.2,2c-0.2,0.1-0.5,0.2-0.7,0.1c-1.2-0.3-2.4-0.6-3.6-0.9l-5.5-1.4l0,0c-1.4-0.2-2.8-0.3-4.3-0.4
		c0,0.3-0.1,0.6,0,0.8c0.9,1.1,1.8,2.2,2.7,3.4l0,0c0.7,0.8,1.3,1.7,1.8,2.7c0.1,0.2,0.2,0.5,0.3,0.7c0.1,0.2-0.2,1.2,0.2,1.8
		c0.3,0.4,0.6,0.9,0.9,1.3c0.2,0.3,0.1,0.7-0.2,1c-0.3,0.3-0.8,0.4-1.2,0.3c-0.2-0.1-0.3-0.1-0.4-0.3c-0.7-0.8-1.8-1.2-2.4-2.1
		c-0.1-0.1-0.1-0.1-0.2-0.2c-2.3-0.6-3.8-2.7-6.1-3.5c0,0-0.3,0.5-0.2,0.6c0.4,1.1,0.8,2.2,1.3,3.2l0,0c0.8,1.6,1.2,3.4,1.4,5.2
		c0,0.7,0.1,1.4,0.3,2.1c0.3,1,0.5,2,0.5,3c0,0.5,0.1,1.1,0.3,1.6c0.8,2.7,1.6,5.3,2.5,8l0,0c0.1,0.2,0.2,0.5,0.2,0.8
		c0.3,1.9,0.7,3.7,1.3,5.5c0.4,1.8,0.8,3.5,1.2,5.2c0.1,0.7,0.3,1.4,0.4,2.1c0.3,1.7,0.7,3.3,1.1,5l0,0c0.6,2.4,0.8,4.9,0.7,7.4
		c0,2,0.2,3.9,0.5,5.9c0.1,0.3,0.1,0.7,0.2,1.1c0,1.9,0.2,3.8,0.4,5.6c0.1,2,0.3,3.9,0.3,5.9c0,1.4,0.3,2.9,0.4,4.3l0,0
		c0.1,0.4,0.1,0.9,0.1,1.4c-0.2,3.2,0.5,6.4,0.5,9.7c0,2.6,0.7,5.2,0.5,7.8c0.4,2.8,0.5,5.7,0.5,8.6c-0.1,0.7,0,1.4,0.1,2.1
		c0.1,0.6,0,1.3-0.3,1.8c-0.2,0.3-0.5,0.5-0.8,0.6c-0.3,0-0.5-0.1-0.7-0.3c-0.9-1.1-1.5-2.5-1.6-3.9c0.1-1.5-0.2-3.1-0.1-4.6
		c0.1-1.3,0-2.7-0.1-4c-0.3-3-0.5-6.1-0.6-9.1c-0.1-4.6-0.5-9.3-0.9-13.9c-0.4-4-0.6-8.1-0.8-12.1c-0.1-3.1-0.5-6.1-0.7-9.1l0,0
		c-0.1-0.6-0.2-1.3-0.3-1.9c-0.4-2.1-0.8-4.2-1.2-6.3c-0.4-2.1-1.1-4.7-1.7-7l-1-4.5c-0.2-1-0.4-1.9-0.7-2.9c-1.1-3-1.7-6.1-2.5-9.1
		c-0.5-1.9-0.7-3.9-1.1-5.8L1323.7,154.9c0.3-0.6,0.4-1.2,0.4-1.8h-0.1c-0.1,0-0.1,0-0.2,0C1323.7,153.6,1323.7,154.2,1323.7,154.9
		L1323.7,154.9z M1338.9,67.2c0-0.1,0-0.1,0-0.2h-0.1C1338.8,67.2,1338.8,67.2,1338.9,67.2c0,0.1,0,0.4,0.2,0.6
		c0.8,0.9,1.7,1.7,2.7,2.2c0.8,0.7,1.9,0.7,2.8,0.1c1.3-0.5,2.3-1.4,2.9-2.6c0.2-0.5,0.6-0.9,0.9-1.3l-0.1-0.2l0,0
		c-0.6-0.1-1.3-0.1-1.9,0.1c-0.7,0.1-1.4-0.3-2.2-0.4l-0.9,0.5c-0.8,0.7-2,0.9-3,0.6C1339.8,67,1339.3,67,1338.9,67.2L1338.9,67.2z
		 M1360.4,151.5L1360.4,151.5c0.5-0.1,0.8-0.3,1.1-0.7c0.9-1.1,1.8-2.2,2.8-3.3l0,0c2.8-3.2,5.3-6.6,7.5-10.2
		c1.7-2.9,3.2-5.8,4.5-8.9c1.3-3.2,2.3-6.4,3.3-9.7c0.8-2.6,1.3-5.2,1.9-7.8c0,0-0.1-0.4-0.2-0.4l0,0c-0.2,0-0.3,0-0.5,0.1
		c-0.1,0.1-0.2,0.3-0.3,0.4c-1.4,2.3-2.9,4.5-4.6,6.7c-0.5,0.5-0.9,1.1-1.3,1.7c-1.3,2.3-2.9,4.4-4.7,6.2c-0.4,0.4-0.8,0.9-1.1,1.4
		c-0.8,1.2-1.7,2.2-2.5,3.6c-1.6,2.7-3.3,5.5-4.7,8.3c-1.4,2.9-2.6,5.2-3.7,7.8c-0.6,1.3-1.1,2.7-1.3,4.1c0,0,0,0.2,0.1,0.2
		s0.2,0,0.3,0c0.3-0.2,0.5-0.5,0.7-0.8c1.7-2.8,3.6-5.4,5.6-7.9c1.5-1.8,3-3.5,4.4-5.4c0.6-0.8,1.2-1.5,1.9-2.2l0,0
		c0-0.1,0.1-0.1,0.2-0.2h0.5l0,0c0.1,0.1,0.2,0.3,0.1,0.5c-0.9,2-2.5,3.8-3.4,5.8c-0.3,0.7-1.1,1.1-1.6,1.8l0,0
		c-0.4,0.6-0.8,1.2-1.1,1.8c-0.2,0.6-0.5,1.1-0.8,1.7c-1,1.4-1.8,2.9-2.5,4.5c-0.2,0.3-0.2,0.7-0.2,1c-0.3-0.2-0.5,0-0.6,0.3
		s0,0.3,0.1,0.5s0.3-0.1,0.4-0.3l0,0C1360.5,151.9,1360.5,151.6,1360.4,151.5L1360.4,151.5z M1310.6,75.2c-0.2,0.3-0.2,0.7-0.1,1.1
		c0.3,1.3,0.7,2.6,1,3.9s0.7,3,1.1,4.4l0,0c0.5,1.4,1.1,2.8,1.8,4.2c0.5,1.1,1.1,2.2,1.9,3.2c1.7,2.6,3.6,5,5.8,7.2
		c0.2,0.3,0.5,0.5,0.7,0.8c1.8,2,3.8,3.8,6.1,5.3c2,1.3,4.1,2.5,6.1,3.9s3.5,2.2,5.3,3.1c1.8,1,3.3,1.9,4.8,2.9
		c0.4,0.3,0.9,0.6,1.4,0.8l0,0c0.1,0.1,0.3,0.1,0.5,0c0.1-0.1,0.1-0.3,0-0.4c-0.5-0.8-1.1-1.4-1.7-2c-2.1-1.7-4-3.5-6.2-5.1l0,0
		c-2.4-1.8-4.6-3.9-6.6-6.2c-1.8-2-3.3-4.3-5-6.3c-0.3-0.3-0.6-0.7-0.5-1.2c0.2-0.5,0.8-0.2,1.4,0.4c0.7,0.6,1.4,1.2,2,1.8
		c1.1,1.2,2.1,2.4,3.1,3.7c0.6,0.9,1.4,1.6,2.4,2.1c0.5,0.2,0.9,0.5,1.3,0.9c0.9,1,2,1.8,3.2,2.5c1.2,0.6,2.2,1.4,3.1,2.5
		c0.2,0.2,0.4,0.3,0.6,0.4l1.2,0.6h0.4c0.1-0.2,0.1-0.3,0-0.5c-0.1-0.4-0.3-0.8-0.5-1.2c-1-1.9-2.1-3.8-3.2-5.6l0,0
		c-1-1.9-2.4-3.5-4.1-4.7c-0.8-0.7-1.7-1.4-2.5-2c-1.6-1.4-3.2-2.6-4.9-3.7c-1.3-0.9-2.6-1.9-3.9-2.8c-0.8-0.6-1.5-1.2-2.2-1.9
		c-2.2-1.9-4.4-3.7-6.7-5.5l0,0c-0.2-0.2-0.4-0.4-0.5-0.6l-5.8-5.8C1311,75.4,1310.8,75.3,1310.6,75.2L1310.6,75.2z M1344.7,57.7
		l-0.2,3.5c0,0.4,0,0.7,0.1,1c0,0.1,0.3,0.2,0.4,0.2c0.3-0.1,0.5-0.2,0.7-0.3c2-1.5,3.6-3.5,4.6-5.8c0.7-1.7,1.3-3.3,1.9-5l0,0
		c0.1-0.4,0-0.7-0.3-1c-0.3-0.4-0.7-0.6-1.1-0.7c-1.3-0.1-2.5-0.6-3.4-1.4c-0.4-0.3-1.1-0.4-1.5-0.1c-0.5,0.2-1,0.5-1.4,0.7
		c-1.1,0.8-2.6,1-3.9,0.6c-0.2,0-0.3,0-0.5,0c-0.7-0.1-1.5,0.1-2,0.5c-1.2,1.1-2.9,1.5-4.5,1.2c-0.3,0-0.5,0-0.8,0
		c-1.5-0.4-1.7,0.4-1.7,1.6l0,0c0,0.9,0.2,1.7,0.6,2.5c1.4,2.5,3.2,4.8,5.3,6.7c0.2,0.2,0.4,0.3,0.7,0.4c0.1,0,0.1,0,0.2,0
		c0-0.1,0-0.2,0-0.2c-0.1-0.6-0.2-1.2-0.3-1.8c-0.1-0.4,0-0.9,0.2-1.3c0.2-0.3,0.4-0.5,0.7-0.6c0,0,0.3,0.1,0.4,0.3
		c0.2,0.2,0.3,0.5,0.4,0.7c0.4,1,0.9,1.9,1.6,2.7c0.2,0.2,0.6,0.4,0.7,0.3c0.1-0.1,0.2-0.2,0.3-0.4c0.2-0.7,0.3-1.4,0.5-2.1l0,0
		c0.4-1.1,0.7-2.2,0.8-3.3c0-0.7,0.2-1.4,0.4-2.1c0.2-0.4,0.4-0.8,0.7-1.1h0.5l0,0c0.2,0.2,0.3,0.5,0.3,0.7
		C1344.7,55.4,1344.6,56.5,1344.7,57.7z M1331,47.5c-0.8-0.8-2.1-0.8-3-0.2l-1.1,0.7l0,0c-0.8,0.5-1.7,0.6-2.6,0.3
		c-0.8-0.3-1.6-0.7-2.5-1.1l0,0c-0.7-0.3-1.4-0.2-2,0.2l-0.2,0.2c-0.8,0.9-2,1.3-3.2,1c-0.5,0-1-0.2-1.6-0.3
		c-0.3-0.1-0.7-0.1-1.1-0.1c-0.3,0-0.5,0.1-0.7,0.4c-0.4,0.8-0.3,1.7,0.3,2.4c1.4,1.5,2.9,3.1,4.4,4.6c2.3,2,4.8,3.7,7.5,5.3
		c0.3,0.2,0.6,0.3,1,0.4l4.4,1.5c0.3,0.1,0.5,0.1,0.8,0c0,0,0.1,0,0.1-0.2c0.1-0.1,0.1-0.2,0-0.3c-1-0.9-2.2-1.6-3.2-2.5l0,0
		c-1.8-1.6-3.5-3.3-5.1-5.2c-0.1-0.1-0.2-0.3-0.3-0.5c-0.1-0.2,0-0.7,0-0.7l0,0c0.2,0,0.3,0,0.5,0c0.8,0.3,1.6,0.8,2.2,1.4
		c1,0.9,2.1,1.7,3.1,2.5c0.2,0.2,0.3,0.1,0.4-0.1c-0.4-0.9-0.8-1.9-1.2-2.9l0,0c-0.4-1-0.4-2.1-0.1-3.2
		C1328.2,49.6,1329.4,48.2,1331,47.5z M1357.8,41.3l4.3-0.1c0.3-0.1,0.5-0.2,0.7-0.4c0.6-0.4,0.7-0.8,0.1-1.2l0,0
		c-1.5-1.1-3.4-1.7-5.3-1.5l-1.1-0.1c-0.7,0.1-1.4-0.1-2-0.5s-1.2-0.8-1.8-1.1c-0.6-0.3-1.2-0.4-1.8-0.2l-2.8,1l0,0
		c-1.7,0.7-3.5,0.9-5.3,0.8c-0.4,0-0.7,0-1.1,0.1s-0.7,0.3-0.9,0.6c-0.2,0.3-0.2,0.7-0.1,1c0.5,1.5,0.7,3.1,0.7,4.7l-0.1,1.6
		c0,0.3,0.2,0.6,0.5,0.7c0.3,0.2,0.6,0.1,0.9,0c0.5-0.3,0.9-0.6,1.3-1c0.8-0.7,2-1,3-0.6c0.5,0,1,0.3,1.5,0.5l0,0
		c0.3,0.1,0.5,0,0.7-0.2s0.4-0.4,0.5-0.6c0.5-1.1,1.5-1.8,2.6-2.2c0.8-0.3,1.7-0.7,2.5-0.9l0,0C1355.8,41.2,1356.8,41.1,1357.8,41.3
		z M1355.1,51.2c0.2-0.2,0.5-0.2,0.6-0.4c0.6-1.1,1.2-2.3,1.8-3.3l0,0c0.2-0.2,0.4-0.4,0.6-0.5c0.2,0,0.3,0,0.5,0
		c0.1,0,0.1,0.1,0.1,0.2c0,0.3,0,0.5,0,0.8c-1,2.3-2.1,4.7-3.2,7.1c-0.3,0.5-0.6,1.1-1,1.6c-0.3,0.3-0.6,0.7-0.8,1.1
		c-0.5,1.1-1.4,2.1-2.5,2.7c-0.3,0.2-0.5,0.5-0.7,0.7s-0.2,0.7,0,0.7c0.2,0.1,0.3,0.1,0.5,0c1.5-0.8,2.9-1.7,4.2-2.9
		c1.6-1.6,3-3.4,4.3-5.3c1.2-1.9,2.5-3.7,3.9-5.4l0,0c1.6-2.2,2.9-4.5,3.9-7v-0.2c0,0-0.3,0-0.4,0l0,0c-0.5,0.4-0.9,0.8-1.4,1.3
		c-1,1.2-2.5,1.8-4.1,1.6c-1.4,0-2.9,0-4.3-0.2c-0.3-0.1-0.5-0.1-0.8,0c-1.5,0.1-2.9,0.7-4.1,1.6c-0.4,0.3-0.6,0.7-0.7,1.1
		c0.1,0,0.2,0.3,0.4,0.3c1.9,0.4,3.1,2,3.1,3.9C1355,50.8,1355,51,1355.1,51.2z M1338.8,45.9c0.5-2,0.2-4.2-0.8-6
		c-0.2-0.3-0.5-0.5-0.9-0.5c-0.5,0-1.1,0.1-1.6,0.2c-1,0.2-2.1,0.3-3.2,0.1c-0.7-0.1-1.5,0-2.1,0.4c-0.9,0.4-1.8,0.8-2.7,1.2
		c-1,0.5-2,0.8-3.1,0.9c-0.6,0.1-1,0.4-1.2,0.9c-0.2,0.3-0.3,0.7-0.3,1c-0.1,0.3,0,0.5,0.1,0.7c1,1,2.3,1.3,3.1,0.6
		c0.9-0.7,1.9-1.1,2.9-1.3c1.3-0.2,2.7,0.1,3.9,0.8c0.2,0.1,0.4,0.3,0.6,0.6s0.4,0.6,0.6,0.9c1.3,1.6,1.3,1.8,2.9,0.6
		C1337.5,46.6,1338.2,46.3,1338.8,45.9z M1310.4,148.4l-0.2,3.5c0.1,0.3,0.2,0.7,0.3,1c0,0.2,0.3,0.3,0.4,0c0.2-0.2,0.4-0.4,0.5-0.6
		c1.1-2,2.5-3.9,4.2-5.4c0.2-0.3,0.3-0.6,0.2-1c-0.1-0.3-0.2-0.5-0.3-0.8c-1-2-1.4-4.3-1.2-6.5c0-0.3,0.1-0.7,0.1-1
		c0,0-0.1-0.1-0.2-0.2c-0.1-0.1-0.1-0.1-0.2-0.1s-0.2,0-0.2,0.1c-0.5,0.4-0.9,0.9-1.3,1.3c-0.3,0.4-0.6,0.9-0.7,1.4
		C1311.2,142.8,1310.7,145.6,1310.4,148.4z M1312.3,134.1c1.4,0.5,2.9,0.4,4.2-0.1c0.5-0.3,1-0.4,1.6-0.3c0.6,0,1.3-0.2,1.7-0.7
		c0.3-0.2,0.6-0.4,1-0.4c0.7-0.1,1.4-0.1,2.1-0.2l0,0c0.8-0.1,1.5-0.8,1.4-1.6c0-0.4-0.1-0.7-0.4-0.9c-1.3-0.9-2.7-1.4-4.3-1.4
		c-1.8-0.2-3.6,0.6-4.7,1.9C1313.9,131.5,1313,132.7,1312.3,134.1z M1340.8,139.9c-1-1.3-2.4-2.2-3.9-2.8c-0.3-0.1-0.6-0.3-0.9-0.5
		c-2.1-1.2-4.4-2.1-6.7-2.8c-1.1-0.4-2.4-0.1-3.2,0.7c-0.1,0.1-0.1,0.3,0,0.5c0.2,0.3,0.3,0.6,0.6,0.9c0.5,0.7,1.4,1.2,2.3,1.2
		c1.5,0.1,2.9,0.7,4.5,0.6l0,0c0.4,0.1,0.9,0.2,1.3,0.3c1.9,0.5,3.8,1.1,5.5,2C1340.2,140,1340.5,139.9,1340.8,139.9z M1321.7,135.1
		c-0.1,0.2-0.3,0.5-0.3,0.7c0,0.7,0.2,1.4,0.3,2.1c0.2,2.5,0.2,2,1.9,3.5l0,0c0.7,0.7,1.5,1.2,2.4,1.7c1.2,0.6,2.3,1.3,3.4,2.1
		c0.1,0.1,0.3,0.1,0.5,0.1l0.2-0.2c-0.5-0.8-0.9-1.6-1.4-2.4c-1-1.6-2.2-3-3.1-4.6l0,0c-0.8-1.1-1.9-2.1-3-2.9
		C1322.2,135.1,1321.9,135.1,1321.7,135.1z M1321,150.3c0.1-0.4,0.1-0.8,0.1-1.2c-0.4-1.5-0.3-3-0.7-4.5c-0.4-1.5-0.6-3.3-0.9-5
		c-0.2-1-0.4-1.9-0.6-2.9c-0.1-0.2-0.2-0.5-0.4-0.7c-0.1-0.1-0.3-0.2-0.4-0.2c-0.2,0-0.3,0.1-0.5,0.2c-0.3,0.4-0.5,0.9-0.5,1.5
		c-0.1,1,0.2,2,0.2,2.9c0,1.1,0.3,2.1,0.6,3.1c0.2,0.5,0.3,1,0.5,1.5c0.6,1.6,1.2,3.2,1.9,4.7C1320.4,150.1,1320.7,150.1,1321,150.3
		z M1303.2,148.6v0.6l0,0c0.1,0.1,0.3,0.1,0.5,0c0.4-0.2,0.8-0.5,1.1-0.8c0.9-0.8,1.7-1.8,2.5-2.8c0.6-0.4,1-1.1,1-1.8
		c0.1-1.2,0.4-2.5,0.7-3.7c0.1-0.3,0.1-0.5,0-0.8c0-0.1-0.1-0.4-0.2-0.4l0,0c-0.2,0-0.3,0-0.5,0.1c-0.7,0.7-1.3,1.5-1.7,2.4
		c-1.1,2.1-2.1,4.2-3.2,6.2C1303.4,148,1303.3,148.3,1303.2,148.6L1303.2,148.6z M1329.4,130.6c0.2,0.2,0.4,0.4,0.6,0.6
		c0.6,0.2,1.2,0.3,1.8,0.5l0,0c0.5,0.2,1,0.3,1.5,0.4c0.6,0,0.9-0.6,1.4-0.7c0.9-0.3,1.8-0.6,2.8-0.8c1-0.1,1.9-0.6,2.6-1.3
		c0-0.1,0-0.2,0-0.3s-0.1-0.1-0.1-0.2c-0.5-0.1-1-0.1-1.6-0.1c-1-0.1-2,0.2-2.9,0.2l0,0c-1.6,0.1-3.2,0.4-4.7,0.9
		C1330.3,130.1,1329.8,130.4,1329.4,130.6z"/>
</g>
</svg>
