<?xml version="1.0" encoding="utf-8"?>
<!-- Generator: Adobe Illustrator 23.1.0, SVG Export Plug-In . SVG Version: 6.00 Build 0)  -->
<svg version="1.1" id="Calque_1" xmlns="http://www.w3.org/2000/svg" xmlns:xlink="http://www.w3.org/1999/xlink" x="0px" y="0px"
	 viewBox="0 0 85 218" style="enable-background:new 0 0 85 218;" xml:space="preserve">
<style type="text/css">
	.st0{fill:#D63C1A;}
</style>
<path class="st0" d="M62.9,120.4c2.4-2.6,4.5-5.5,6.3-8.6c0.1-0.1,0.1-0.2,0.2-0.2c0,0,0.1-0.1,0.1-0.1v-0.1l0,0
	c1.4-2,2.7-4,3.8-6.2c0.2-0.4,0.4-0.8,0.7-1.2c0.9-1.5,1.8-3,2.6-4.6c0.2-0.4,0.3-0.8,0.4-1.2c0.3-1,0.7-2.1,1-3.1
	c0.3-1.2,0.6-2.3,0.9-3.5c0.4-1.3,0.7-2.6,1.1-4c0.6-2.5,1.2-5.1,1.7-7.6l0.1-0.3c0.2-1,0.5-2,0.9-2.9c0.2-0.4,0.3-0.9,0.4-1.4
	c0.2-0.8,0.3-1.5,0.5-2.3l1-5.6c0.1-0.3,0-0.5-0.2-0.7c-0.4-0.4-0.6-0.9-0.6-1.4c0-0.2-0.1-0.4-0.3-0.5c-0.1-0.1-0.3-0.2-0.5-0.2
	c0,0-0.1,0-0.1,0v0l-0.1,0.1c-0.1,0.1-0.1,0.2-0.2,0.3c-0.8,2.3-1.9,4.5-3.4,6.5c-0.2,0.3-0.3,0.6-0.5,0.9c-1.3,2.5-2.7,4.9-4.3,7.2
	c-0.2,0.2-0.3,0.5-0.5,0.8l-0.2,0.4c-1.5,2.6-3.2,5-5,7.4c-0.1,0.1-0.2,0.3-0.3,0.4c-0.6,1.1-1.4,2.2-2.1,3.2
	c-0.9,1.3-1.8,2.6-2.5,4c-0.2,0.5-0.5,0.9-0.7,1.4c-0.7,1.3-1.4,2.7-2.1,4.1c-0.7,1.5-1.3,3.1-2,4.6l-0.5,1.3c-0.4,1-0.8,1.9-1.2,3
	l-0.4,0.9c-0.3,0.8-0.7,1.7-0.9,2.4c-0.2,0.6-0.4,1.2-0.6,1.9c-0.1,0.3-0.2,0.7-0.3,1l-0.2,0.9l-0.4-0.8c-0.2-0.5-0.4-1-0.5-1.6
	l-0.1,0l0-0.5c0-0.8-0.2-1.6-0.3-2.4c-0.2-1-0.4-1.9-0.3-3c0-0.3-0.1-0.6-0.1-0.9c-0.1-0.3-0.2-0.6-0.2-0.9c0.2-1.2,0-2.5-0.4-3.6
	c-0.2-0.5-0.3-1-0.2-1.5c0.3-1,0.3-2,0-3c-0.1-0.6-0.2-1.1-0.2-1.7c-0.1-0.4-0.1-0.9-0.2-1.4c-0.1-1.1-0.2-2.2-0.4-3.2
	c-0.3-1.1-0.4-2.3-0.4-3.5c0-0.2-0.1-0.4-0.2-0.6c-0.6-1.2-1-2.5-0.9-3.8c0-0.8-0.2-1.6-0.3-2.4c-0.2-0.9-0.3-1.8-0.3-2.7
	c0-0.4-0.1-0.8-0.3-1.1c-0.5-1.1-0.8-2.4-0.7-3.6c0.1-0.3,0.1-0.5,0-0.7c-0.5-1.3-0.8-2.7-1-4.2c-0.3-3-0.9-6-1.7-8.9
	c-0.2-0.7-0.4-1.4-0.4-2.1c-0.2-2.6-0.7-5.1-1.4-7.6c-0.9-3.4-1.7-7-2.3-10.5h-0.6l0.6-0.6c0.1-0.1,0.1-0.1,0.2-0.2
	c0.1-0.1,0.2-0.3,0.4-0.3c1.2-0.4,2.1-1.3,2.6-2.5c0.7-1.3,1.4-2.6,1.9-3.9c0.6-1.7,1.8-3.1,3.3-3.9l0,0l0.7-0.4
	c0.9-0.6,1.7-1.2,2.4-2c1-1,1.8-2.2,2.6-3.4c0.2-0.4,0.5-0.8,0.9-1.1c0.6-0.6,1.1-1.3,1.5-2v0l0-0.1c0.7-1.3,1.5-2.5,2.3-3.7
	l0.6-0.9c0.9-0.9,1.6-2,2-3.1c0.3-0.5,0.6-1,0.8-1.6c0.1-0.2,0.2-0.5,0.4-0.7c0.6-1.4,1.1-3,1.3-4.5c0.1-0.4,0-0.8-0.2-1.1
	c-0.1-0.1-0.1-0.2-0.2-0.4c-0.1-0.2-0.2-0.4-0.3-0.6c-0.4-0.7-1.2-1-2-0.8c-0.5,0.1-0.9,0.3-1.3,0.6c-0.1,0-0.1,0.1-0.2,0.2
	c-0.3,0.3-0.9,0.8-1.4,0.4C59.5,4.4,59,4,58.5,3.6c-1.4-1.3-3.4-1.8-5.2-1.3c-1.1,0.3-2.2,0.1-3.1-0.7c-0.8-0.7-1.9-0.9-3-0.7
	c-0.8,0.1-1.5,0.3-2.3,0.5c-0.8,0.3-1.6,0.6-2.5,0.9c-0.5,0.1-0.9,0.3-1.4,0.4c-0.7,0.2-1.4,0.2-2,0c-0.4-0.2-0.9-0.2-1.3,0
	c-0.3,0.1-0.6,0.2-0.9,0.3c-0.5,0.1-1,0.2-1.3,0.7c-0.3,0.5-0.8,0.7-1.3,0.5C33.1,3.9,32,4,30.9,4.4c-0.8,0.3-1.6,0.4-2.4,0.4
	c-1.5-0.1-2.9,0.3-4.2,1.1c-1.5,1-3.2,1.7-5,2.1l-0.1,0l-0.1,0c0,0-0.1,0-0.1,0c-0.8,0.2-1.5,0.9-1.8,1.7l0,0
	c-0.2,0.6-0.3,1.3-0.5,1.8c-0.1,0.6-0.5,1.1-1,1.4c-0.8,0.3-1.4,0.7-1.9,1.3c-0.5,0.5-1.1,0.7-1.8,0.5l0,0c-0.2,0-0.4-0.1-0.5-0.2
	c-0.2-0.1-0.5-0.2-0.7-0.2l-0.1,0c-0.4-0.1-0.8-0.2-1.2-0.2c-0.7-0.1-1.3,0.1-1.8,0.6C7.3,15.2,7,15.8,7,16.5
	c0.1,0.5,0.1,1.1,0.1,1.6c0.3,2,1.4,3.9,2.9,5.3l0.5,0.5c0.4,0.4,0.9,0.8,1.3,1.2c2.3,2.3,4.9,4.1,7.8,5.5c0.3,0.2,0.6,0.3,1,0.4
	c0.4,0.2,0.8,0.4,1.2,0.6c2.1,1.1,4.4,1.8,6.8,2c1.1,0.1,2.2,0.3,3.3,0.7l0.1,0l0.6,0.8c0.5,0.7,1,1.3,1.5,2c0.8,1,1.7,1.8,2.8,2.3
	c0.9,0.5,1.6,1.1,2.4,1.8l0.1,0.1c0.5,1.6,0.9,3.2,0.9,4.9c0,0.8,0.1,1.5,0.4,2.2l0,0c0,0.1,0.1,0.2,0.1,0.3l0,0h0
	c0.1,0.4,0.2,0.7,0.3,1.1c0.1,0.4,0.2,0.7,0.3,1.1c0.7,2.2,1.1,4.4,1.4,6.6c0.1,0.5,0.2,1,0.4,1.5c0.2,0.7,0.4,1.4,0.5,2.1
	c0.2,1.3,0.4,2.5,0.7,3.8c0.2,1.3,0.5,2.6,0.7,3.9c0,0.1,0,0.3,0,0.4c-0.1,0.2-0.2,0.3-0.3,0.4c-0.2,0.1-0.4,0.1-0.6,0l-0.1-0.1
	c-0.7-0.7-1.2-1.4-1.6-2.2c-0.3-0.6-0.7-1.1-1.3-1.6c-0.6-0.4-1.2-0.9-1.7-1.5c-0.5-0.5-1.1-1-1.8-1.5c-0.5-0.4-1-0.7-1.6-1.1
	c-0.6-0.4-1.2-0.8-1.7-1.2c-0.8-0.6-1.8-1.2-2.7-1.7c-3.3-1.8-6.4-3.9-9.3-6.2l0,0l-4.2-3.3c-1.2-0.9-2.4-1.9-3.5-3
	c-0.7-0.8-1.5-1.5-2.3-2.1c-0.6-0.4-1.2-0.9-1.7-1.4c-0.3-0.3-0.6-0.6-1-0.9c-0.3-0.2-0.5-0.5-0.8-0.7c-0.3-0.3-0.7-0.7-0.9-1.1
	c-0.5-0.9-1.2-1.7-2-2.4c-1-1-1.8-2.2-2.3-3.4c-0.3-0.8-0.6-1.6-0.9-2.3c-0.2-0.4-0.5-0.8-0.9-1c-0.4-0.2-0.8-0.1-1.1,0.2
	c-0.2,0.2-0.3,0.4-0.3,0.7c0,0.7,0.2,1.4,0.5,2c0.5,1,1,2.2,1.4,3.3c0.2,0.5,0.4,0.9,0.6,1.4l0,0.1c0.2,1,0.5,2,0.9,3
	c0.4,1,0.8,2.1,0.9,3.2c0,0.1,0,0.1,0.1,0.2l0,0l0.2,0.4c0.3,0.7,0.6,1.3,0.9,2c0.4,1,0.7,1.9,1.1,2.9C8,52.2,8.7,54.1,9.4,56
	c1.6,4.2,4,7.9,7,11.2c0.4,0.4,0.8,0.8,1.1,1.1c0.5,0.4,0.9,0.9,1.4,1.3c0.8,0.8,1.7,1.6,2.5,2.4c0.9,0.9,1.8,1.6,2.9,2.2l0,0
	l0.3,0.1c0.7,0.4,1.3,0.8,2,1.2c0.9,0.5,1.7,1,2.6,1.5c2.9,1.8,5.5,3.3,7.9,4.6c1.4,0.7,2.7,1.4,4.2,2.1l0.5,0.2
	c1,0.5,1.9,1.1,2.8,1.7c0.7,0.4,1.3,0.9,2,1.3c1.1,0.6,1.8,1.7,1.9,2.9c0,0.2,0.1,0.4,0.1,0.7c0.1,0.5,0.2,1.1,0.2,1.7
	c0.1,0.7,0.2,1.3-0.1,1.6c-0.3,0.4-0.8,0.5-1.6,0.6c-0.7,0.1-1.5,0.1-2.2,0c-2-0.3-4-0.4-6.1-0.3c-0.7,0-1.4,0.1-2.1,0.3
	c-0.6,0.1-1.2,0.1-1.7,0c-1.1-0.2-2.2,0-3.2,0.5c-0.8,0.3-1.6,0.6-2.4,0.7c-0.7,0.3-1.5,0.5-2.3,0.6l-0.1,0l-0.1,0
	c-0.8-0.4-1.5-0.8-2.2-1.1c-0.5-0.3-1.1-0.6-1.6-0.8c-0.2-0.1-0.4-0.2-0.7-0.2c-0.9-0.1-1.8-0.2-2.6-0.2c-1.1-0.1-2.3,0.1-3.3,0.4
	c-1.1,0.4-2.1,1-3,1.9c-1,0.9-1.7,2-2,3.2c-0.2,0.7-0.5,1.4-0.8,2c-0.1,0.3-0.2,0.6-0.2,0.9c0,0.6-0.3,1.3-0.9,1.6
	c-1.6,1.1-2.8,2.6-3.6,4.3l-0.6,1.4v-0.3c-0.2,0.4-0.4,0.8-0.6,1.2l-0.3,0.8c-0.7,1.4-1.3,2.9-2,4.4c-0.1,0.2-0.1,0.3-0.2,0.4
	c-0.7,2.6-1.1,5.3-1.2,7.9c0,0.2,0,0.3,0,0.5c0,0.1,0.1,0.2,0.2,0.3c0.1,0.1,0.2,0.1,0.4,0.1l1.5-0.6c0.5-0.5,0.9-1.1,1.2-1.7
	c0.5-1,1.2-2,2-2.8c0.3-0.3,0.5-0.8,0.5-1.3c0-0.4,0.4-0.8,0.7-1.1l0.1-0.1c0.2-0.2,0.6-0.5,1-0.3c0.2,0.1,0.4,0.2,0.5,0.7
	c0,0.3,0.1,0.5,0.2,0.8c0.1,0.4,0.2,0.8,0.2,1.3c0.1,1.5,0.2,3,0.4,4.5l0.1,0.8c0.1,0.9,0.2,1.8,0.1,2.8c0,0.5,0.1,1,0.2,1.5
	c0.1,0.2,0.4,0.3,0.7,0.2c0.7-0.3,1.2-0.9,1.4-1.5l0.2-0.6c0.3-0.9,0.5-1.8,0.7-2.8c0.3-1.6,0.9-3,1.9-4.3c0.4-0.5,0.9-1,1.3-1.5
	c0.4-0.4,0.8-0.8,1.2-1.3c0.2-0.3,0.6-0.3,1.1,0.1c0.2,0.1,0.3,0.3,0.3,0.4c1,2.3,2.6,4.4,4.6,6c0.4,0.3,0.8,0.7,1.2,0.9
	c0.1,0.1,0.2,0.1,0.3,0.1c0,0,0.1,0,0.1-0.1c0.2-0.7,0.1-1.4-0.3-2l-0.2-0.1l0.1-0.2c0-0.3,0-0.5,0-0.7c0-0.4,0-0.7,0-1v-0.2
	l0.2-0.1c0.1-0.1,0.3-0.1,0.4,0h0.4l0,0.3c0.1,0.6,0,1.2-0.2,1.7l0.6,0.2l0,0.2c0.1,0.6,0.3,1.2,0.4,1.8c0.3,1.3,0.6,2.7,1,4
	c0.3,0.8,0.5,1.7,0.8,2.5c0.6,2.1,1.3,4.3,2.2,6.4c0.4,1,0.6,1.9,0.9,2.9l1.3,4.4c0.2,0.7,0.4,1.4,0.6,2c0.5,1.7,1,3.4,1.4,4.9
	c0.4,1.5,0.8,3,1.1,4.5l0.4,1.8c0.2,0.6,0.3,1.2,0.4,1.9l0,0l0,0c0.1,1.1,0.3,2.2,0.4,3.3c0.3,1.9,0.5,3.8,0.7,5.8
	c0.4,4.3,0.9,8.2,1.4,12c0.6,4.5,1.2,9.2,1.6,13.9c0.2,2.8,0.6,5.8,1.1,9.1c0.2,1.3,0.3,2.7,0.4,4.1c0,0.8,0.1,1.6,0.2,2.3
	c0.1,0.8,0.2,1.5,0.2,2.3c0.1,1.3,0.7,2.6,1.7,3.6c0.1,0.1,0.3,0.2,0.4,0.2c0.2-0.1,0.4-0.2,0.5-0.5c0.3-0.5,0.3-1.1,0.2-1.6
	c-0.2-0.7-0.2-1.5-0.2-2.2c-0.1-2.8-0.4-5.7-0.9-8.5c0-1.5-0.2-3-0.5-4.3c-0.2-1.1-0.4-2.3-0.4-3.4c-0.1-1.4-0.3-2.8-0.5-4.2
	c-0.3-1.8-0.5-3.6-0.5-5.5c0-0.4-0.1-0.9-0.2-1.3c-0.1-0.5-0.2-0.9-0.2-1.3c-0.2-1-0.4-2-0.4-3c-0.1-1.3-0.2-2.6-0.4-3.9
	c-0.1-0.7-0.2-1.3-0.2-2c-0.3-1.8-0.6-3.7-0.7-5.6c0-0.3-0.1-0.6-0.2-1c-0.4-2-0.7-3.9-0.8-5.9c0-2.3-0.3-4.6-1-6.9l0,0l-0.4-1.5
	c-0.4-1.3-0.7-2.5-1-3.8c-0.1-0.5-0.2-0.9-0.4-1.4l-0.2-0.7c-0.2-0.9-0.5-1.7-0.7-2.6c-0.3-0.9-0.5-1.7-0.8-2.6
	c-0.7-1.8-1.2-3.6-1.6-5.5c-0.1-0.2-0.1-0.4-0.2-0.7c-1-2.7-2-5.3-2.9-7.9c-0.2-0.5-0.4-1.1-0.4-1.6c-0.1-1-0.3-2-0.6-2.9
	c-0.2-0.7-0.4-1.4-0.5-2.2c-0.2-1.8-0.8-3.4-1.6-5c-0.5-0.9-0.9-1.9-1.4-2.9l-0.1-0.3c-0.1-0.2,0-0.5,0.2-0.9l0.1-0.2l0.3,0.1
	c1.2,0.3,2.2,1,3.2,1.6c1,0.7,2,1.3,3.1,1.5c0.2,0.1,0.3,0.2,0.4,0.3c0.4,0.5,0.8,0.8,1.4,1.1c0.4,0.3,0.8,0.5,1.1,0.9
	c0.1,0.1,0.2,0.1,0.3,0.2c0.3,0.1,0.7,0,0.9-0.3c0.1-0.2,0.2-0.4,0.1-0.6c-0.3-0.4-0.6-0.8-0.9-1.2c-0.4-0.4-0.4-1.1-0.3-1.5
	c0-0.1,0-0.3,0-0.4c-0.1-0.1-0.2-0.3-0.2-0.4c0-0.1-0.1-0.2-0.1-0.3c-0.5-0.9-1.1-1.8-1.9-2.5c-1-1.1-2-2.2-2.9-3.2
	c-0.2-0.2-0.1-0.5-0.1-0.7c0-0.1,0-0.2,0-0.3V107l0.3,0c1.4,0,2.9,0,4.3,0.2l0,0.2l0-0.2l5.6,1.1c0.5,0.1,1,0.2,1.5,0.3
	c0.7,0.1,1.5,0.3,2.2,0.4c0.2,0,0.4,0,0.5-0.1c0.3-0.4,0.4-1,0.1-1.5c-0.3-0.3-0.6-0.6-0.9-0.8l-0.2-0.2c-0.4-0.3-0.8-0.7-1.2-1.1
	c-1-1.2-2.2-2.2-3.7-3c-0.5-0.2-1-0.6-1.2-1.2l-0.1-0.3l0.2-0.1c3.5-2.1,7.3-3.8,11.3-5l0.2-0.1l0.1,0.2c0,0.1,0.1,0.1,0.2,0.2
	c0.1,0.2,0.3,0.4,0.3,0.7l0.1,0.8c0.3,1.6,0.6,3.3,0.8,5c0.4,2.7,0.6,5.1,0.8,7.8c0.1,0.9,0.2,1.8,0.2,2.6c0.2,1.9,0.4,3.8,0.4,5.7
	c0,1,0.1,2.1,0.3,3.2c0,0.3,0.1,0.5,0.1,0.8c0.1,0.5,0.2,1,0.2,1.6c0.1,1.3,0.2,2.6,0.2,3.9c0.1,2.7,0.3,5.4,0.5,7.9
	c0.3,3.4,0.5,7,0.5,11.1v5.9c0,0.7,0,1.4,0,2.2c0,1.4,0,2.9,0,4.3c0.1,2.1,0.2,4.2,0.4,6.2l0.2,3.1c0.1,2.1,0.3,4.2,0.4,6.3
	c0.3,4.4,0.5,8.9,0.7,12.9l0,0.8c0.1,1.5,0.2,3,0.2,4.6c0,1.1,0,2.1,0,3.1c0,2,0.1,4.1,0,6.1c-0.1,1.5-0.1,3.1-0.2,4.6
	c-0.1,2-0.1,4.1-0.3,6.2c-0.1,1.1,0.1,2.2,0.5,3.3c0.2,0.3,0.4,0.7,0.8,0.9c0.1,0.1,0.4,0,0.5-0.2c0.3-0.6,0.5-1.4,0.6-2.2
	c0.2-1.3,0.3-2.7,0.4-4c0-0.7,0.1-1.4,0.2-2.2c0.1-0.9,0.1-1.8,0-2.6c-0.2-0.7-0.2-1.5,0-2.2c0.1-1.9,0.1-3.8,0-5.8
	c-0.1-0.2-0.1-0.5,0-0.7c0.3-1,0.4-2,0.1-3c0-0.4,0-0.7,0-1c0-0.6,0.1-1.2,0-2c-0.1-0.8-0.1-1.5-0.1-2.2c0-0.5,0-1,0-1.5
	c0-0.5-0.1-1.1-0.1-1.6c-0.1-0.8-0.1-1.6-0.1-2.5c0-1.6-0.1-3.1-0.4-4.7c0-0.3,0-0.6,0-0.9c0-3.6-0.3-7.2-0.8-10.8l-0.1-0.4h0
	c0-0.1,0-0.2,0-0.2c-0.1-0.6-0.2-1.3-0.2-2.1l0-3.1c0.2-0.4,0.1-0.9,0-1.4c-0.1-0.4-0.1-0.8-0.1-1.2c0.1-0.9,0.1-1.9,0.1-2.8
	c0-0.8,0-1.7,0.1-2.5c0-0.5-0.1-1-0.2-1.5c-0.3-1.1-0.3-2.3,0-3.4c0-0.1,0-0.2,0-0.3c0-0.6,0-1.1,0-1.6c0-1,0.1-2,0-3
	c-0.2-1.2-0.2-2.3-0.2-3.5c0-0.6-0.1-1.2-0.2-1.8c-0.2-1.2-0.3-2.4-0.2-3.6c-0.1-1.2,0.2-2.4,0.8-3.5c0.1-0.3,0.2-0.6,0.3-0.9
	c0.1-0.9,0.4-1.7,0.9-2.4c0.2-0.3,0.4-0.6,0.5-0.9c0.5-1.5,1.4-2.9,2.6-4c0.3-0.3,0.6-0.6,0.8-1C61.8,121.6,62.3,121,62.9,120.4z
	 M61.2,8.3c0.4-0.5,0.8-0.9,1.3-1.4v0c0.1,0,0.4,0,0.4,0v0.2c-0.8,2.6-2,5-3.5,7.2h0c-1.3,1.8-2.5,3.7-3.6,5.6c-1.1,2-2.5,3.8-4,5.5
	c-1.2,1.2-2.5,2.3-4,3.1c-0.2,0-0.3,0-0.5,0c-0.2,0-0.2-0.4,0-0.7c0.2-0.3,0.4-0.6,0.7-0.8c1-0.7,1.8-1.7,2.3-2.9
	c0.2-0.4,0.5-0.8,0.7-1.1c0.4-0.5,0.7-1.1,0.9-1.6c0.9-2.4,1.9-4.9,2.8-7.2c0-0.3,0-0.5,0-0.8c0-0.1-0.1-0.2-0.1-0.2
	c-0.2-0.1-0.3-0.1-0.5,0c-0.2,0.1-0.5,0.3-0.6,0.5l0,0c-0.6,1-1.1,2.3-1.7,3.4c-0.1,0.2-0.4,0.3-0.6,0.4c-0.2-0.2-0.2-0.4-0.2-0.6
	c0-1.9-1.4-3.5-3.3-3.8c-0.1,0-0.2-0.3-0.4-0.3c0-0.4,0.3-0.9,0.6-1.2c1.1-1,2.5-1.6,4-1.8c0.3-0.1,0.5-0.1,0.8,0
	c1.4,0.1,2.9,0.1,4.3,0C58.8,10.2,60.3,9.6,61.2,8.3z M36.4,5.8c0.2-0.3,0.5-0.5,0.8-0.6C37.5,5.1,37.9,5,38.3,5
	c1.8,0.1,3.6-0.3,5.2-1v0l2.7-1.1C46.8,2.6,47.5,2.7,48,3c0.6,0.3,1.3,0.6,1.9,1c0.6,0.4,1.3,0.5,2.1,0.4h1.1
	c1.9-0.2,3.8,0.2,5.4,1.3v0c0.6,0.3,0.6,0.8,0,1.2c-0.2,0.2-0.4,0.3-0.7,0.4l-4.3,0.4c-1-0.2-2,0-2.9,0.4h0c-0.9,0.3-1.6,0.7-2.5,1
	c-1.1,0.4-2,1.2-2.5,2.3c-0.1,0.3-0.2,0.5-0.4,0.7c-0.2,0.2-0.5,0.3-0.7,0.2v0c-0.5-0.1-1-0.4-1.5-0.4c-1.1-0.3-2.2,0-3,0.8
	c-0.4,0.4-0.8,0.7-1.2,1c-0.3,0.2-0.6,0.2-0.9,0c-0.3-0.1-0.5-0.4-0.5-0.7v-1.6c-0.1-1.6-0.4-3.2-1-4.6C36.2,6.5,36.2,6.1,36.4,5.8z
	 M19,11.3c0.2-0.5,0.6-0.9,1.2-1c1.1-0.2,2.1-0.5,3.1-1c0.9-0.4,1.8-0.8,2.6-1.3c0.6-0.4,1.3-0.6,2.1-0.5c1.1,0.1,2.1,0,3.2-0.3
	c0.5-0.1,1.1-0.3,1.6-0.3c0.4,0,0.7,0.1,0.9,0.4c1.1,1.8,1.5,3.9,1.1,6c-0.6,0.4-1.2,0.8-1.7,1.2c-1.5,1.2-1.6,1.1-3-0.4
	c-0.2-0.3-0.4-0.6-0.6-0.9c-0.2-0.2-0.4-0.4-0.6-0.5c-1.2-0.6-2.6-0.8-3.9-0.6c-1.1,0.2-2.1,0.7-2.9,1.4c-0.8,0.8-2.1,0.5-3.1-0.4
	c-0.2-0.2-0.2-0.5-0.2-0.7C18.7,11.9,18.8,11.6,19,11.3z M28.2,30.5c0,0.2-0.1,0.2-0.1,0.2c-0.3,0-0.5,0-0.8,0l-4.4-1.2
	c-0.3-0.1-0.7-0.2-1-0.4c-2.7-1.4-5.3-3.1-7.7-4.9c-1.6-1.4-3.1-2.9-4.6-4.3c-0.6-0.7-0.7-1.6-0.4-2.4c0.2-0.2,0.4-0.4,0.7-0.4
	c0.4,0,0.7,0,1.1,0c0.5,0.1,1,0.3,1.6,0.3c1.2,0.2,2.4-0.3,3.1-1.2l0.2-0.2c0.6-0.4,1.3-0.5,2-0.3h0c0.9,0.3,1.7,0.7,2.5,0.9
	c0.9,0.3,1.8,0.2,2.5-0.4h0l1.1-0.8c0.9-0.7,2.1-0.7,3,0c-1.5,0.8-2.6,2.2-3,4c-0.3,1.1-0.2,2.2,0.3,3.2l0,0
	c0.5,0.9,0.9,1.9,1.3,2.8c-0.1,0.3-0.2,0.3-0.4,0.2c-1.1-0.7-2.1-1.5-3.2-2.3c-0.7-0.6-1.5-1-2.3-1.3c-0.1-0.1-0.3-0.1-0.5,0v0
	c0,0.1-0.1,0.5,0,0.7c0.1,0.2,0.2,0.3,0.3,0.4c1.7,1.8,3.4,3.4,5.4,4.9v0c1,0.9,2.3,1.5,3.3,2.3C28.3,30.3,28.3,30.4,28.2,30.5z
	 M35,25.8c-0.3,0.1-0.5,0.3-0.7,0.6c-0.2,0.4-0.2,0.9-0.1,1.3c0.1,0.6,0.3,1.2,0.4,1.8c0,0.1,0,0.2,0,0.2c-0.1,0-0.2,0-0.2,0
	c-0.2-0.1-0.5-0.2-0.7-0.4c-2.2-1.8-4.1-4-5.7-6.4c-0.4-0.7-0.7-1.6-0.7-2.4h0c-0.1-1.1,0.1-1.9,1.6-1.6c0.3,0,0.5,0,0.8,0
	c1.6,0.2,3.3-0.4,4.4-1.5c0.5-0.5,1.3-0.7,2-0.6c0.2,0,0.4,0,0.5,0c1.3,0.3,2.7,0,3.8-0.8c0.4-0.3,0.9-0.6,1.4-0.8
	c0.5-0.3,1.1-0.3,1.5,0c1,0.8,2.2,1.2,3.5,1.2c0.5,0,0.9,0.3,1.2,0.6c0.3,0.2,0.4,0.6,0.4,0.9v0c-0.5,1.7-1,3.4-1.6,5.1
	c-0.9,2.4-2.4,4.5-4.3,6.1c-0.2,0.2-0.4,0.3-0.7,0.4c-0.1,0-0.4-0.1-0.4-0.2c-0.1-0.3-0.1-0.7-0.2-1v-3.5c-0.1-1.2-0.1-2.3,0-3.5
	c0-0.3-0.1-0.5-0.3-0.7h-0.5c-0.3,0.3-0.5,0.7-0.7,1.1c-0.2,0.7-0.2,1.4-0.3,2.1c-0.1,1.1-0.3,2.3-0.6,3.3v0
	c-0.2,0.7-0.3,1.4-0.4,2.1c0,0.2-0.1,0.3-0.3,0.4c-0.1,0.1-0.5,0-0.7-0.3c-0.8-0.8-1.4-1.7-1.8-2.7c-0.1-0.3-0.2-0.5-0.4-0.7
	C35.3,25.9,35,25.8,35,25.8z M35.8,34.4h0.1c0,0.1,0,0.1,0,0.2C35.8,34.6,35.8,34.5,35.8,34.4z M38.9,37.3c-1-0.5-2-1.2-2.8-2.1
	C36,35,35.9,34.7,36,34.5c0,0-0.1,0-0.1,0l0,0c0.4-0.1,0.9-0.2,1.3-0.2c1.1,0.2,2.2,0,3-0.8l0.9-0.6c0.8,0,1.4,0.4,2.2,0.3
	c0.6-0.2,1.2-0.3,1.8-0.2l0,0l0.1,0.2c-0.3,0.5-0.6,0.9-0.8,1.4c-0.6,1.2-1.6,2.2-2.8,2.8C40.9,37.9,39.7,37.9,38.9,37.3z
	 M46.5,83.1c-0.2,0.1-0.3,0.1-0.5,0v0c-0.5-0.2-0.9-0.5-1.4-0.8c-1.6-1-3.1-1.8-5-2.7c-1.8-0.9-3.4-1.5-5.5-2.9
	c-2.1-1.3-4.2-2.4-6.3-3.6c-2.3-1.3-4.5-3-6.3-4.9c-0.2-0.3-0.5-0.5-0.7-0.8c-2.3-2.1-4.4-4.4-6.2-6.9c-0.8-0.9-1.5-2-2-3.1
	c-0.7-1.3-1.4-2.7-2-4.1v0c-0.5-1.4-1-3.1-1.3-4.4c-0.3-1.3-0.8-2.5-1.2-3.8c-0.2-0.3-0.2-0.7,0-1.1l0,0c0.2,0.1,0.4,0.2,0.6,0.3
	l6.1,5.5c0.2,0.2,0.4,0.4,0.6,0.5v0c2.3,1.6,4.6,3.3,6.9,5.1c0.7,0.6,1.5,1.2,2.3,1.8c1.3,0.9,2.7,1.7,4.1,2.6
	c1.8,1,3.5,2.2,5.1,3.4c0.9,0.6,1.8,1.2,2.6,1.9c1.8,1.2,3.2,2.7,4.3,4.5l0,0c1.2,1.8,2.3,3.6,3.5,5.4c0.2,0.4,0.4,0.8,0.6,1.2
	c0.1,0.2,0.1,0.3,0,0.5h-0.4l-1.2-0.6c-0.2-0.1-0.5-0.2-0.7-0.4c-0.9-1-2-1.8-3.2-2.3c-1.2-0.6-2.3-1.4-3.3-2.3
	c-0.4-0.4-0.8-0.7-1.3-0.9c-1-0.4-1.9-1.1-2.5-1.9c-1.1-1.2-2.2-2.4-3.3-3.5c-0.7-0.6-1.3-1.2-2.1-1.7c-0.7-0.5-1.3-0.8-1.5-0.3
	c-0.1,0.5,0.2,0.8,0.5,1.1c1.8,2,3.4,4.1,5.3,6.1c2.1,2.2,4.4,4.1,6.9,5.8h0c2.3,1.5,4.3,3.2,6.5,4.8c0.7,0.6,1.3,1.2,1.9,1.9
	C46.5,82.8,46.5,82.9,46.5,83.1z M9.7,108.9c-0.3,1.2-0.5,2.5-0.5,3.7c0,0.7-0.3,1.4-0.9,1.9c-0.7,1-1.4,2-2.3,2.9
	c-0.3,0.3-0.7,0.6-1,0.8c-0.1,0.1-0.3,0.1-0.5,0v-0.6v0c0.1-0.3,0.2-0.6,0.1-0.9c0.9-2.1,1.9-4.3,2.8-6.4c0.4-0.9,0.9-1.8,1.6-2.5
	c0.1-0.1,0.3-0.2,0.5-0.1v0c0.1,0,0.2,0.2,0.2,0.3C9.8,108.3,9.8,108.6,9.7,108.9z M17,115.3c-1.6,1.7-2.9,3.6-4,5.6
	c-0.1,0.2-0.3,0.4-0.5,0.6c-0.2,0.3-0.4,0.2-0.4,0c-0.2-0.3-0.3-0.6-0.4-1v-3.5c0.1-2.8,0.5-5.6,1.1-8.3c0.1-0.5,0.3-1,0.6-1.5
	c0.4-0.5,0.8-1,1.2-1.4c0.1-0.1,0.1-0.1,0.2-0.1c0.1,0,0.2,0,0.2,0.1c0,0.1,0.2,0.2,0.2,0.2c0,0.3,0,0.7,0,1
	c-0.1,2.2,0.4,4.5,1.5,6.4c0.1,0.2,0.3,0.5,0.3,0.7C17.3,114.6,17.2,115,17,115.3z M17.1,102.3c-1.3,0.7-2.8,0.8-4.2,0.4
	c0.7-1.4,1.5-2.7,2.4-3.9c1.1-1.4,2.8-2.2,4.6-2.2c1.5,0,3,0.4,4.3,1.2c0.3,0.2,0.5,0.5,0.5,0.9c0.1,0.8-0.5,1.6-1.4,1.7l0,0
	c-0.7,0.1-1.4,0.2-2.1,0.3c-0.3,0.1-0.7,0.2-0.9,0.5c-0.4,0.5-1,0.8-1.6,0.8C18.1,101.9,17.5,102,17.1,102.3z M22.4,118.4
	c-0.3-0.2-0.6-0.2-0.7-0.5c-0.7-1.5-1.4-3.1-2.1-4.6c-0.2-0.5-0.4-1-0.6-1.5c-0.4-1-0.7-2-0.8-3.1c-0.1-1-0.4-1.9-0.4-2.9
	c0-0.5,0.1-1.1,0.5-1.5c0.1-0.1,0.3-0.2,0.5-0.2c0.2,0,0.3,0.1,0.5,0.2c0.2,0.2,0.3,0.4,0.4,0.7c0.3,0.9,0.6,1.9,0.8,2.8
	c0.4,1.7,0.7,3.5,1.1,5c0.4,1.5,0.4,3,0.9,4.4C22.5,117.6,22.5,118,22.4,118.4z M31.1,112.8c0,0-0.2,0.2-0.2,0.2
	c-0.2,0-0.3-0.1-0.5-0.1c-1.1-0.7-2.3-1.4-3.5-1.9c-0.9-0.4-1.7-0.9-2.5-1.5l0,0c-1.8-1.4-1.8-0.9-2.1-3.4c-0.1-0.7-0.4-1.4-0.4-2.1
	c0-0.2,0.2-0.4,0.3-0.7c0.3,0,0.6,0,0.8,0.1c1.2,0.7,2.3,1.7,3.2,2.8v0c1.1,1.5,2.3,2.9,3.4,4.4C30.2,111.3,30.6,112.1,31.1,112.8z
	 M37.5,104.4c1.6,0.5,3,1.4,4.1,2.6c-0.3,0-0.6,0.1-0.6,0.1c-1.8-0.8-3.7-1.3-5.6-1.7c-0.4-0.1-0.9-0.2-1.3-0.3h0
	c-1.5,0.1-3-0.4-4.5-0.4c-0.9,0-1.8-0.3-2.3-1.1c-0.2-0.3-0.4-0.6-0.6-0.9c-0.1-0.1-0.1-0.3,0-0.5c0.8-0.9,2.1-1.2,3.2-0.9
	c2.3,0.6,4.6,1.4,6.8,2.5C36.8,104.1,37.2,104.3,37.5,104.4z M40.4,96.5c-0.7,0.7-1.5,1.2-2.5,1.4c-0.9,0.2-1.8,0.5-2.7,0.9
	c-0.5,0.2-0.8,0.8-1.3,0.8c-0.5-0.1-1-0.2-1.5-0.4v0c-0.6-0.1-1.2-0.2-1.8-0.4c-0.2-0.1-0.5-0.3-0.7-0.5c0.4-0.3,0.9-0.5,1.4-0.7
	c1.5-0.6,3-1,4.6-1.1v0c1-0.1,1.9-0.4,2.9-0.4c0.5,0,1,0,1.6,0c0.1,0,0.1,0.1,0.1,0.2C40.4,96.4,40.4,96.5,40.4,96.5z M58.8,116.5
	c-0.2,0.3-0.4,0.6-0.6,0.8c-0.1,0-0.2,0-0.3,0c-0.2,0-0.2-0.2-0.2-0.2c0.2-1.4,0.6-2.8,1.1-4.1c1-2.7,2-5,3.3-8
	c1.2-2.9,2.8-5.8,4.3-8.6c0.7-1.4,1.6-2.4,2.3-3.7c0.3-0.5,0.7-1,1.1-1.5c1.8-1.9,3.2-4.1,4.4-6.4c0.3-0.6,0.7-1.2,1.2-1.8
	c1.5-2.2,2.9-4.6,4.2-6.9c0.1-0.2,0.2-0.3,0.3-0.5c0.1-0.1,0.3-0.2,0.5-0.2l0,0c0.1,0,0.2,0.4,0.2,0.4c-0.4,2.7-0.8,5.3-1.5,7.9
	c-0.7,3.3-1.7,6.6-2.7,9.8c-1.1,3.1-2.5,6.2-4,9.1c-2,3.7-4.4,7.2-6.9,10.6l0,0c-0.9,1.1-1.7,2.3-2.6,3.4c-0.2,0.4-0.6,0.7-1,0.8
	c0-0.3,0-0.6,0.1-0.8c0.7-1.6,1.4-3.1,2.3-4.6c0.3-0.5,0.6-1.1,0.8-1.7c0.3-0.7,0.6-1.3,1-1.9h0c0.5-0.7,1.2-1.2,1.5-1.9
	c0.8-2.1,2.3-3.9,3.1-5.9c0-0.2,0-0.3-0.1-0.5H70c-0.1,0-0.1,0.1-0.2,0.2v0c-0.6,0.7-1.2,1.5-1.8,2.3c-1.2,2-2.7,3.8-4.1,5.6
	C62.1,110.9,60.3,113.7,58.8,116.5z M61.8,117.6C61.8,117.6,61.8,117.6,61.8,117.6L61.8,117.6C61.8,117.5,61.8,117.5,61.8,117.6z
	 M61.3,118.1c0.1-0.3,0.2-0.5,0.6-0.3c0,0.2,0,0.3-0.1,0.5v0c-0.1,0.1-0.2,0.5-0.4,0.3C61.3,118.4,61.2,118.4,61.3,118.1z"/>
</svg>
