<svg width="122" height="121" viewBox="0 0 122 121" fill="none" xmlns="http://www.w3.org/2000/svg">
<path d="M77.2859 43.5939C82.7144 45.4692 87.7213 48.7975 92.2335 53.5546C94.4074 55.8243 95.4974 58.9191 95.1995 62.0949C94.0696 73.697 89.0982 82.5343 80.3601 88.3884C54.1682 105.885 3.5968 90.7337 1.49994 90.0886C1.07106 89.9405 0.64526 89.5538 0.482998 89.0978C0.320743 88.6418 0.421769 88.1174 0.713113 87.738C1.97528 85.9355 32.3975 44.1556 63.8966 41.8456C68.6323 41.5621 73.071 42.1361 77.2854 43.5918L77.2859 43.5939ZM4.53725 87.7807C14.4022 90.4688 56.712 100.607 78.7624 85.8384C86.683 80.4994 91.2401 72.3996 92.2883 61.7277C92.5041 59.4837 91.6918 57.2044 90.1809 55.5628C82.6417 47.7613 73.8861 44.1774 64.2234 44.837C37.5551 46.8181 10.6699 79.7457 4.53708 87.7794L4.53725 87.7807Z" fill="#D63C1A"/>
<path d="M120.299 30.8675L120.513 30.9415C121.249 31.356 121.502 32.2427 121.088 32.9794C115.99 42.4118 106.981 51.133 94.3496 59.0018C93.6278 59.4721 92.6744 59.2229 92.2758 58.525C91.8055 57.8032 92.0547 56.8498 92.7526 56.4513C104.951 48.9122 113.551 40.4509 118.45 31.5889C118.84 30.9236 119.584 30.6212 120.298 30.868L120.299 30.8675Z" fill="#D63C1A"/>
<path d="M93.8207 57.0589C93.9639 57.1084 94.0816 57.2292 94.2001 57.3503C94.4118 57.663 94.3106 58.1882 93.9262 58.3752C57.9284 80.878 2.65708 89.2885 2.12976 89.4273C1.69852 89.518 1.3196 89.2276 1.29981 88.8208C1.20915 88.3896 1.49952 88.0107 1.90626 87.9909C2.47997 87.9494 57.3473 79.5597 93.1973 57.2436C93.3668 56.9824 93.6064 56.985 93.8204 57.0589L93.8207 57.0589Z" fill="#D63C1A"/>
<path d="M44.6738 78.0584C44.7454 78.0831 44.817 78.1079 44.8631 78.204C45.1709 78.4706 45.2371 78.9727 44.9712 79.2807L32.4458 94.9412C32.1792 95.249 31.6768 95.3159 31.369 95.0493C31.0612 94.7827 30.995 94.2806 31.2609 93.9725L43.7863 78.312C44.0282 78.0758 44.3881 77.9597 44.6738 78.0584Z" fill="#D63C1A"/>
<path d="M72.8878 67.8982L73.1019 67.9721C73.4097 68.2388 73.5006 68.6693 73.3056 69.0018L55.0768 94.9249C54.8102 95.2327 54.3797 95.3236 54.0472 95.1286C53.7393 94.862 53.6484 94.4314 53.8435 94.0989L72.0007 68.1511C72.171 67.8902 72.5305 67.7748 72.8878 67.8982Z" fill="#D63C1A"/>
<path d="M14.2752 73.4746L14.3467 73.4993L31.6063 81.8601C31.9389 82.0551 32.1011 82.5111 31.978 82.8677C31.7829 83.2002 31.327 83.3625 30.9704 83.2393L13.7109 74.8785C13.3783 74.6835 13.216 74.2275 13.3392 73.8709C13.5582 73.4666 13.9179 73.3511 14.2752 73.4746Z" fill="#D63C1A"/>
<path d="M28.9031 60.0593C28.9747 60.084 28.9747 60.084 28.9031 60.0593L59.6428 72.6766C60.0717 72.8248 60.234 73.2808 60.0145 73.6842C59.8663 74.1131 59.4104 74.2753 59.0069 74.0558L28.338 61.4629C27.9091 61.3147 27.7469 60.8588 27.9664 60.4553C28.1614 60.1228 28.5459 59.9359 28.9031 60.0593Z" fill="#D63C1A"/>
<path d="M48.0921 47.1003L83.3624 62.8022C83.7913 62.9503 83.9536 63.4063 83.7341 63.8097C83.6107 64.167 83.13 64.4008 82.7266 64.1814L47.527 48.5039C47.0981 48.3558 46.9358 47.8998 47.1553 47.4964C47.2787 47.1391 47.734 46.9766 48.0913 47.1L48.0921 47.1003Z" fill="#D63C1A"/>
</svg>
