<svg width="119" height="119" viewBox="0 0 119 119" fill="none" xmlns="http://www.w3.org/2000/svg">
<path d="M59.503 0C26.6927 0 0 26.6912 0 59.5C0 92.3088 26.6912 119 59.5 119C92.3088 119 119 92.3088 119 59.5C119 26.6912 92.3088 0 59.5 0H59.503ZM98.395 35.2029L99.3518 37.2484C99.3973 37.3453 99.3728 37.4305 99.353 37.4713C99.3331 37.5133 99.2853 37.5891 99.1826 37.6171L98.7567 37.7362C98.6739 37.7572 98.5852 37.7397 98.5175 37.686L96.0053 35.6452C95.5397 35.2695 94.9248 35.1481 94.3496 35.3325L90.9774 36.406C90.5574 36.5378 90.2026 36.8225 89.9798 37.2064L88.3112 40.0897C88.2681 40.1643 88.1899 40.2145 88.1 40.2204L84.3987 40.4852C84.3007 40.4852 84.2214 40.4386 84.1898 40.4059C84.1583 40.3732 84.1058 40.302 84.1163 40.1947L84.5049 36.0408C84.5166 35.9101 84.6227 35.8075 84.7534 35.8005L89.0743 35.5216C89.9144 35.4679 90.6052 34.8238 90.716 33.9884L91.0077 32.0374L95.8991 25.3341C95.9341 25.2874 95.9808 25.2548 96.0356 25.2372L99.5314 24.1988L103.483 24.1066C107.619 29.2348 110.87 35.0982 113.021 41.4691L112.869 41.4446C112.78 41.4294 112.704 41.3711 112.668 41.2882L111.376 38.2754C111.123 37.6838 110.566 37.2766 109.923 37.2101L109.641 37.1809C109.153 37.1296 108.678 37.2848 108.313 37.5963C107.948 37.909 107.721 38.3641 107.696 38.8437L107.614 40.3151C107.607 40.4563 107.489 40.5659 107.348 40.5659H106.724C106.634 40.5659 106.552 40.5204 106.502 40.4457L101.891 33.4437C101.537 32.9046 100.928 32.5966 100.273 32.6503L99.8615 32.6818C99.2815 32.7273 98.7611 33.0552 98.4694 33.5557C98.18 34.061 98.1485 34.6759 98.3947 35.2033L98.395 35.2029ZM95.3019 15.8358C96.1268 16.5126 96.9284 17.2162 97.7137 17.9384L95.4629 18.2558C95.3485 18.2722 95.2797 18.2197 95.2447 18.1882C95.2097 18.1566 95.1525 18.0855 95.1607 17.9758L95.3019 15.8358ZM39.3685 12.3866C39.4 12.5161 39.3358 12.6036 39.2938 12.6421C39.2518 12.6818 39.1643 12.7402 39.0336 12.7051L32.8891 10.8756C32.7783 10.8429 32.7328 10.76 32.7141 10.7145C32.6978 10.6679 32.6768 10.5757 32.7386 10.48L33.3944 9.43101C34.9276 8.6294 36.5003 7.89197 38.1107 7.22919L39.3685 12.3866ZM31.4246 42.9745C31.3277 43.2569 30.4293 44.3467 27.6838 46.6453C27.3058 46.9615 27.0759 47.4259 27.0537 47.9183C27.0316 48.4154 27.2206 48.8997 27.573 49.252L28.6079 50.399L28.3606 50.4398L26.0024 48.0817C25.6734 47.7526 25.2171 47.5624 24.7504 47.5624H16.2838C15.3071 47.5624 14.5125 48.3571 14.5125 49.3337V57.2029C14.5125 58.1795 15.3071 58.9742 16.2838 58.9742H18.5707C18.7936 58.9742 19.0107 58.9333 19.2137 58.8528L22.1529 57.7058C22.2778 57.6545 22.4248 57.7105 22.4866 57.8342L26.1599 65.1818C26.4621 65.7851 27.0688 66.162 27.7444 66.162H41.8444C41.9156 66.162 41.9833 66.1911 42.0323 66.2401L45.5831 69.7909C45.8468 70.0546 46.1793 70.2261 46.5445 70.2856L50.0335 70.8667C50.1618 70.8877 50.2563 70.9986 50.2563 71.1304V73.2307C50.2563 73.988 50.7382 74.6601 51.4523 74.9051L57.5281 76.9868L62.7158 79.0626C62.8161 79.1022 62.8826 79.2014 62.8826 79.3099V80.842C62.8826 80.9237 62.8453 81.0018 62.7788 81.0532L59.9621 83.2445C59.6435 83.493 59.416 83.8477 59.3238 84.2421L57.6039 91.6364C57.5817 91.7344 57.5059 91.8091 57.4102 91.8347L54.6308 92.529C54.0847 92.6655 53.632 93.0599 53.4196 93.5838L49.9411 102.137L40.0416 112.54C38.1105 111.83 36.2342 111.007 34.407 110.096L37.2331 99.1366C37.2693 98.992 37.2891 98.8426 37.2891 98.6944V88.0774C37.2891 87.6048 37.1036 87.1591 36.7698 86.8242L28.9171 78.9714C28.8669 78.9212 28.8389 78.8535 28.8389 78.7835L28.8552 74.0508L30.8062 68.7989C31.008 68.2551 30.931 67.646 30.5996 67.17C30.2683 66.6939 29.7257 66.4104 29.1457 66.4104H26.3722C26.3033 66.4104 26.2333 66.3812 26.1843 66.3322L20.1787 60.2821C19.845 59.9437 19.3981 59.757 18.9209 59.757L15.3492 59.7512C15.2781 59.7512 15.2104 59.722 15.1614 59.673L4.07775 48.5894C6.18739 37.8499 11.354 28.2001 18.6258 20.5677L26.8263 24.0611C27.048 24.1545 27.2814 24.2023 27.5206 24.2023H29.7901C30.7667 24.2023 31.5613 23.4077 31.5613 22.4311V16.3344C31.5613 16.2259 31.6232 16.1582 31.6582 16.1302C31.6943 16.0999 31.7737 16.0567 31.8775 16.0742L40.2229 17.7101C40.2812 17.7206 40.3361 17.7521 40.3746 17.7976L46.0898 24.4648L48.651 31.6676C48.6918 31.7808 48.6475 31.8683 48.6183 31.9103C48.588 31.9523 48.5203 32.0235 48.4001 32.0235H38.8053C38.3397 32.0235 37.8846 32.2114 37.5521 32.5427L31.9337 38.16C31.6046 38.4879 31.4144 38.9453 31.4144 39.4132L31.4246 42.9745ZM3.00861 59.5003C3.00861 56.4 3.26998 53.3615 3.75189 50.3956L14.0947 60.7373C14.4284 61.071 14.8742 61.2565 15.3467 61.2565H18.9196C18.9908 61.2565 19.0584 61.2857 19.1075 61.3347L25.1154 67.3859C25.4468 67.7185 25.9042 67.9099 26.3721 67.9099H29.1457C29.267 67.9099 29.3335 67.981 29.3639 68.0242C29.3942 68.0662 29.4374 68.1549 29.3954 68.2692L27.4444 73.52C27.3709 73.7183 27.3336 73.926 27.3336 74.1384V78.7776C27.3336 79.2502 27.5191 79.6959 27.8528 80.0297L35.7056 87.8824C35.7558 87.9326 35.7838 88.0014 35.7838 88.0703L35.7744 98.7551L33.0324 109.386C15.1905 99.8825 3.00906 81.0915 3.00906 59.5017L3.00861 59.5003ZM59.5006 115.989C53.2474 115.989 47.2371 114.952 41.6094 113.069L51.0292 103.169C51.1856 103.007 51.3081 102.818 51.3909 102.609L54.8144 94.1413C54.8459 94.062 54.9148 94.0013 54.9964 93.9814L57.7747 93.2872C58.4234 93.1261 58.9182 92.6221 59.0699 91.9698L60.7898 84.5743C60.8038 84.5137 60.8376 84.4612 60.8866 84.4238L63.7034 82.2325C64.1328 81.9 64.3895 81.3772 64.3895 80.8346V79.3026C64.3895 78.5745 63.9519 77.928 63.2763 77.6573L58.0548 75.5687L51.9453 73.4743C51.8368 73.4381 51.7645 73.3377 51.7645 73.2234V71.1231C51.7645 70.255 51.1426 69.5199 50.2849 69.3763L46.7948 68.7952C46.7411 68.7859 46.691 68.7602 46.6513 68.7217L43.1005 65.171C42.7668 64.8373 42.3211 64.6517 41.8485 64.6517H27.7485C27.6482 64.6517 27.556 64.5946 27.5105 64.5047L23.8372 57.157C23.4265 56.3344 22.4697 55.9634 21.6098 56.2994L18.5761 57.4639H16.2891C16.1421 57.4639 16.0231 57.3449 16.0231 57.1979V49.3287C16.0231 49.1816 16.1421 49.0626 16.2891 49.0626H24.7557C24.8246 49.0626 24.8946 49.0918 24.9436 49.1408L27.3017 51.499C28.038 52.2352 29.5666 52.0229 30.0018 50.9692C30.255 50.3578 30.1162 49.6601 29.6483 49.1922L28.6401 48.184C28.5666 48.1105 28.5584 48.0265 28.5608 47.9821C28.5619 47.9308 28.5818 47.8573 28.6541 47.7955C32.9236 44.2238 32.9236 43.4701 32.9236 43.0651V39.4083C32.9236 39.3394 32.9527 39.2694 33.0018 39.2204L38.6202 33.6011C38.6704 33.5509 38.7392 33.5229 38.8104 33.5229H48.4052C48.9805 33.5229 49.5219 33.2417 49.8509 32.7715C50.1823 32.3024 50.2652 31.698 50.0726 31.1578L47.5114 23.9574C47.4379 23.7485 47.3259 23.5583 47.1847 23.3949L41.5173 16.8129C41.2594 16.513 40.9047 16.3076 40.515 16.2306L32.1687 14.5947C31.6541 14.4955 31.1139 14.6274 30.7032 14.9646C30.2925 15.303 30.0579 15.8012 30.0579 16.3321V22.4288C30.0579 22.5758 29.9389 22.6948 29.7919 22.6948L27.4174 22.6738L19.7501 19.4065C23.1676 16.0168 27.0195 13.0706 31.2062 10.6355C31.2097 10.8386 31.2365 11.0416 31.3101 11.2388C31.5073 11.7615 31.9273 12.1512 32.4629 12.3099L38.6074 14.1395C38.7789 14.1909 38.9516 14.2142 39.1219 14.2142C39.5677 14.2142 39.9982 14.0462 40.3355 13.7253C40.8022 13.2831 40.9889 12.646 40.836 12.0217L39.528 6.66257C45.7439 4.3044 52.4753 3.00218 59.5054 3.00218C72.4258 3.00218 84.3381 7.37201 93.866 14.6985L93.6618 17.8722C93.6268 18.4055 93.8322 18.9212 94.2266 19.2853C94.6198 19.6494 95.1448 19.8162 95.6769 19.7404L98.083 19.4008C98.167 19.3845 98.2405 19.4148 98.3012 19.4685L99.4972 20.5805C99.8332 20.8932 100.266 21.0542 100.703 21.0542C100.746 21.0542 100.79 21.0402 100.833 21.0379C101.316 21.556 101.785 22.0869 102.25 22.6224L99.4984 22.6855C99.3408 22.6901 99.1821 22.7158 99.0316 22.7601L95.6069 23.7881C95.2382 23.899 94.9103 24.1311 94.6863 24.4415L89.7973 31.1416C89.6246 31.3773 89.5114 31.6574 89.4706 31.9525L89.2267 33.781C89.2104 33.9058 89.1065 34.0038 88.9793 34.0108L84.6585 34.2897C83.7845 34.3469 83.0903 35.0201 83.0086 35.8906L82.6189 40.0445C82.571 40.5637 82.7507 41.0748 83.1171 41.4482C83.4824 41.8216 83.9899 42.0211 84.5092 41.9767L88.2081 41.713C88.795 41.6722 89.3213 41.3431 89.6165 40.8344L91.285 37.9523C91.3177 37.894 91.3714 37.852 91.4355 37.8322L94.8101 36.7587C94.8964 36.7283 94.9886 36.7481 95.0598 36.8053L97.572 38.8449C98.0154 39.2078 98.6069 39.3292 99.1647 39.1775L99.5906 39.0585C100.094 38.9185 100.507 38.5649 100.724 38.0912C100.942 37.6174 100.938 37.0749 100.718 36.6023L99.761 34.5568C99.7096 34.4471 99.7458 34.3549 99.7715 34.3094C99.7971 34.2639 99.8602 34.1881 99.9804 34.1787L100.391 34.1472C100.484 34.1332 100.581 34.1834 100.635 34.2663L105.247 41.2707C105.575 41.7701 106.128 42.0688 106.726 42.0688H107.35C108.289 42.0688 109.065 41.3349 109.118 40.3956L109.199 38.9242C109.205 38.8262 109.261 38.7643 109.293 38.7363C109.324 38.7072 109.4 38.664 109.493 38.6733L109.776 38.7025C109.873 38.7118 109.958 38.7737 109.995 38.8624L111.287 41.8751C111.527 42.4352 112.029 42.8273 112.631 42.9253L113.55 43.0746C113.852 44.0618 114.121 45.0629 114.367 46.0722L108.375 45.4608C107.956 45.4199 107.533 45.5284 107.187 45.7676L105.441 46.9765C105.366 47.029 105.268 47.0395 105.182 46.9986L99.1508 44.2997C99.0867 44.2694 99.033 44.2157 99.0096 44.1492L98.4332 42.6113C98.138 41.8237 97.3201 41.3512 96.4916 41.483L85.8898 43.1925C85.2282 43.2998 84.6891 43.7619 84.4838 44.4013L83.1314 48.5342L78.3589 53.3067C78.0252 53.6405 77.8397 54.0862 77.8397 54.5587V61.9309C77.8397 62.337 77.9809 62.736 78.2387 63.0511L83.7251 69.7768C84.0624 70.191 84.5629 70.4279 85.0974 70.4279H96.5651C96.6958 70.4279 96.8078 70.5224 96.8288 70.6519L97.6759 75.9878C97.7156 76.2328 97.8066 76.472 97.9443 76.6786L100.332 80.3201C100.361 80.3633 100.375 80.4135 100.375 80.466V84.7913C100.375 84.8625 100.346 84.9302 100.297 84.9792L98.6199 86.6559C98.2839 86.9896 98.1007 87.4354 98.1007 87.9091C98.1007 88.3828 98.2862 88.8274 98.6199 89.1611L101.971 92.5147C102.021 92.5649 102.049 92.6337 102.049 92.7026V96.5918C91.6832 108.468 76.4582 115.989 59.5011 115.989L59.5006 115.989ZM103.551 94.8042V92.7097C103.551 92.243 103.363 91.7868 103.032 91.4577L99.6785 88.1041C99.6108 88.0364 99.6015 87.9583 99.6015 87.9163C99.6015 87.8743 99.6108 87.7961 99.6796 87.7284L101.356 86.0505C101.69 85.7168 101.876 85.271 101.876 84.7985V80.4732C101.876 80.1266 101.776 79.7917 101.586 79.5023L99.1592 75.7556L98.3121 70.4222C98.1756 69.5552 97.4393 68.9275 96.5619 68.9275H85.0941C85.0148 68.9275 84.9389 68.8924 84.8876 68.8294L79.4012 62.1037C79.3615 62.0559 79.3405 61.9963 79.3405 61.9357L79.3417 54.5623C79.3417 54.4911 79.3708 54.4235 79.4198 54.3745L84.1923 49.602C84.3907 49.4036 84.5412 49.1562 84.6275 48.889L85.9157 44.8633C85.9472 44.7665 86.0266 44.6976 86.1281 44.6813L96.7299 42.9719C96.8548 42.9497 96.9773 43.0232 97.0216 43.1422L97.598 44.6801C97.7626 45.12 98.1033 45.4841 98.5338 45.6766L104.565 48.3755C105.13 48.6298 105.791 48.5668 106.298 48.2156L108.043 47.0068C108.095 46.9706 108.157 46.9531 108.221 46.9613L114.724 47.6252C115.546 51.4547 115.99 55.4254 115.99 59.4977C115.99 72.8498 111.325 85.1261 103.551 94.8052L103.551 94.8042Z" fill="#D63C1A"/>
</svg>
