<?xml version="1.0" encoding="utf-8"?>
<!-- Generator: Adobe Illustrator 23.1.0, SVG Export Plug-In . SVG Version: 6.00 Build 0)  -->
<svg version="1.1" id="Calque_1" xmlns="http://www.w3.org/2000/svg" xmlns:xlink="http://www.w3.org/1999/xlink" x="0px" y="0px"
	 viewBox="0 0 1440 782" style="enable-background:new 0 0 1440 782;" xml:space="preserve">
<style type="text/css">
	.st0{fill:#D63C1A;}
	.st1{fill:#34130F;}
	.st2{fill:#B68176;}
	.st3{fill:#CD9082;}
	.st4{fill:#953122;}
	.st5{fill:#FFFFFF;}
	.st6{fill:#4B1912;}
	.st7{fill:#33120E;}
	.st8{fill:#E8907C;}
	.st9{fill:#7F1710;}
</style>
<path class="st0" d="M393.4,141.9L628.2,90l6.7,34.6L833.4,83l2.1,22.6L967.4,72l8.5,17.3L1109,57.9l-149.4,46.2l-6.5-15
	l-133.4,33.3l-4.9-18.2l-201.5,39.2l-1-27.8L393.4,141.9z"/>
<path class="st0" d="M637.8,114.2l248-75.6l-0.6,14.6L637.8,114.2z"/>
<path class="st0" d="M787.9,241.7l185.2,40.4l-9.1-19.2L787.9,241.7z"/>
<path class="st0" d="M488.2,238.7l129.3,32.5l3.8-23.4l109.2,25.9l1.3-15.2l72.5,21.2l4.9-11.7l73.2,19.8l-82.2-29.5l-3.6,10.2
	l-73.4-21.1l-2.8,12.3l-110.9-24.3l-0.7,18.8L488.2,238.7z"/>
<path class="st0" d="M507.2,250.1l43.2,32.7l3.4-8.1L507.2,250.1z"/>
<path class="st1" d="M199.7,173c3.3-0.5,6.7-0.7,10.2-0.6c-27.2-0.6-50.2,15.8-52.3,38.3c-1,11.3,2.4,20.9,8.8,28.7l0.6-2.2l8.9,1.5
	l-1.2,8.5c0.6,0.4,1.1,0.8,1.6,1.2l2.4-8.6l9.5,1.9l-2,11.8c0.4,0.2,0.8,0.4,1.2,0.5l2.8-11.7l9.7,1.6l-2.3,13.1
	c0.6,0.1,1.1,0.3,1.7,0.4l2.5-12.6l1.3,0.3c-1.3-6-2.4-12.1-2.7-18.4c-1-15.6,0.6-29.2,4-40.8l-3.7,0.3L199.7,173z M166.5,190.2
	c2.4-2.9,5.2-5.4,8.4-7.6l0.3,6.8L166.5,190.2z M178,188.8l-1.3-7.4c3.1-1.9,6.3-3.7,10-5.1l0.8,11.3L178,188.8z M189.5,187.2
	l-1.6-11.3c3.3-1.2,6.6-2,10.2-2.7l1.1,13.2L189.5,187.2z"/>
<path class="st2" d="M491.5,604.7c1.4-10.5,2.1-21.2,1.9-32.2c-11.1,6-28.5,10.2-48.3,11.1c-4.9,0.2-9.7,0.2-14.3,0
	c-10.2-0.5-19.6-1.8-27.6-4.1c-0.2,6.2-0.8,12.1-1.7,17.7c10.8,5.2,25.2,8.9,40.5,10.8C461.8,610.3,479.8,608.8,491.5,604.7z"/>
<path class="st2" d="M468.5,641c-9.1-0.4-19.2-1.8-29.4-4.4c-18.2-4.5-33.6-11.6-43.4-19.2c-1.8,4.3-3.9,8.5-6.1,12.4
	c1.1,1.2,2.3,2.4,3.7,3.7c8.9,8.5,22.1,16.5,37.3,23c15.1,6.3,29.6,9.9,41.3,10.6c4.4-8.4,8.3-17.2,11.4-26.2
	C478.5,641.1,473.7,641.2,468.5,641z"/>
<path class="st2" d="M392.3,634.2c-1.2-1.2-2.4-2.3-3.5-3.5c-2.4,3.7-4.9,7.2-7.6,10.4c0.1,0.2,0.3,0.4,0.4,0.6
	c6.8,10.1,18,20.9,31.2,30.4c13.4,9.4,27.2,16.2,39.3,19.5c1,0.3,2,0.6,3,0.7c6-7.7,11.2-15.9,15.9-24.4
	c-11.7-0.7-26.3-4.2-41.2-10.5C414.6,650.9,401.4,642.7,392.3,634.2z"/>
<path class="st2" d="M483.1,639.5c0.1,0,0.1,0,0.2,0c3.7-10.9,6.3-22.1,8.1-33.8c-9.5,3.2-22.9,4.8-37.8,4.1
	c-3.8-0.2-7.7-0.5-11.7-0.9c-15.5-1.8-29.8-5.6-40.6-10.8c-1.2,6.5-3,12.6-5.3,18.3c9.6,7.5,25.2,14.6,43.3,19.1
	C455.3,639.5,470.9,640.9,483.1,639.5z"/>
<path class="st2" d="M180.4,606.1c14.7-3,29-3.2,40.5-0.5c2.8,0.7,5.4,1.5,7.6,2.5c-1.2-4.2-2.2-8.8-3-13.5
	c-10.1-6.4-27.2-9.6-46.2-7.5c-14,1.5-26.9,5.7-36.4,11.6c-2.8,1.7-5.3,3.7-7.2,5.7c1,7,2.4,13.7,3.9,20.1
	C148.6,616.6,163.2,609.7,180.4,606.1z"/>
<path class="st2" d="M173.3,572.4c21.9-2.4,41.5,2.2,50.8,10.8c-0.1-1.2-0.3-2.6-0.4-3.9c-0.3-3.7-0.9-7.2-2-10.6
	c-9.8-6.8-26.9-10.7-45.8-9.3c-17.1,1.2-32,6.2-41.2,13.1c-0.9,4-1.2,8.2-1,12.5c0,0.4,0.1,0.8,0.1,1.2c0.8-0.6,1.7-1.2,2.6-1.8
	C146,578.3,159,574.1,173.3,572.4z"/>
<path class="st2" d="M448.1,558.6c16-3.4,30.7-8.9,41.1-15.5c0.7-0.4,1.2-0.8,1.7-1.2c-1.6-11.5-4-22.5-7.3-32.9
	c-0.4,0.4-0.8,0.7-1.1,1.1c-9.1,8.4-22.7,16.3-38,22.5c-15.4,6.1-30.7,9.7-43.1,10c-0.7,0-1.2,0-1.9,0c1.2,5.5,2.3,11.5,2.9,18
	C414.3,562.8,430.7,562.2,448.1,558.6z"/>
<path class="st2" d="M142.5,598.1c9.5-6.1,22.6-10.3,36.8-11.8c18.7-2,35.7,1,46.1,7.3c-0.5-2.9-0.9-5.7-1.1-8.7
	c-8.6-8.8-28.5-13.7-50.8-11.2c-14,1.5-26.9,5.7-36.4,11.6c-1.1,0.7-2.2,1.4-3.2,2.2c0.5,5.5,1,10.9,1.7,16
	C137.6,601.5,139.8,599.7,142.5,598.1z"/>
<path class="st2" d="M221.2,567.2c-2.1-5.6-5.3-10.8-9.2-15c-9.8-4.1-23.3-5.9-38-4.2c-13.2,1.4-25,5.4-33.4,10.6
	c-2.4,3.8-4.3,8-5.6,12.5c9.4-6.6,24-11.4,40.7-12.6C194.4,557.1,211,560.7,221.2,567.2z"/>
<path class="st2" d="M412.3,672.7c-13.5-9.5-24.6-20.4-31.5-30.6c-0.1-0.1-0.1-0.2-0.2-0.3c-3.2,3.7-6.5,6.9-10.2,10
	c4.9,9.5,12.5,20.1,22.3,30.3c15.4,16,32,26.8,44.3,30c3.6-3.3,6.9-6.7,10.2-10.4c2.5-2.8,4.9-5.7,7.3-8.6c-0.8-0.2-1.7-0.4-2.5-0.6
	C439.8,689.2,425.8,682.2,412.3,672.7z"/>
<path class="st2" d="M210.2,550.5c-8.8-8.4-21.1-13.3-34.3-12.5c-14.1,0.9-26.3,8-33.8,18.4c8.5-4.8,19.6-8.4,31.9-9.7
	C187.7,545.4,200.5,546.9,210.2,550.5z"/>
<path class="st2" d="M445.1,582.6c20-0.9,37.5-5.2,48.3-11.1c-0.1-3-0.2-6.1-0.4-9c-0.5-6.5-1.1-13-2-19.2c-0.5,0.3-0.9,0.6-1.3,0.9
	c-10.6,6.6-25.3,12.2-41.4,15.6c-12.5,2.7-24.6,3.7-34.8,3.2c-4-0.2-7.7-0.6-11.1-1.2c0.2,2,0.4,4.1,0.6,6.4c0.3,3.6,0.3,7,0.3,10.4
	C414.7,581.8,429.5,583.3,445.1,582.6z"/>
<path class="st2" d="M311.2,366.2c1.5-3,2.6-5.9,3.5-8.5c-6.7-3.7-13.3-7.4-19.5-11.1c-1,3.8-3.1,8.2-6.3,13
	c-7,10.2-18.3,21-31.7,30.5c-11.1,7.8-22.4,13.6-32.5,17.3c8.3,5.6,16.7,10.8,25.1,15.8c10.6-4.5,22.7-12.5,34.3-23.1
	C296,389,305.7,377.1,311.2,366.2z"/>
<path class="st2" d="M307.9,413.3c14.8-16,24.5-32.8,26.9-45c-1.8-1-3.7-1.8-5.5-2.9c-4.6-2.4-9.1-4.9-13.6-7.3
	c-0.9,2.6-1.9,5.4-3.5,8.4c-5.7,11.1-15.4,23.2-27.5,34.1c-11.4,10.4-23.5,18.4-34,23c8.9,5.3,17.9,10.2,26.5,14.9
	C286.9,433,297.7,424.3,307.9,413.3z"/>
<path class="st2" d="M288,359c3.3-4.8,5.4-9.1,6.2-13c-6.3-3.8-12.4-7.7-18.2-11.5c-1.5,3.7-4.2,7.6-8.1,11.8
	c-8.4,9.1-21.1,18.4-35.8,25.8c-12.9,6.5-25.9,11.1-37.4,13.1c9.3,7.8,19,14.9,28.8,21.5c10.1-3.6,21.5-9.4,32.9-17.4
	C269.8,379.9,281.1,369.1,288,359z"/>
<path class="st2" d="M171.5,293c19.8-3,37.1-8.4,46.3-14c-1.5-2.4-2.9-4.8-4.2-7.3c-1.9,0.5-5.7-0.3-8.4-0.5
	c-35.7-2.4-64.4-29.9-62.3-60.8c2.2-30.9,34.4-54.3,70.1-51.9c1.6,0.1,1.9-0.2,4.9,0.5h0.1c17.6-23.3,45.7-34.1,71.9-35.7
	c24.9-1.6,43.7-22.6,42.1-47S309,33.4,284.1,35c-50.1,3.1-95.2,23.4-126.8,57.5c-16.6,17.8-29.2,38.7-37.2,62.1
	c-8.1,23.9-11.3,50-9.5,77.4c1.3,21.3,6,41.7,13.8,61.1C135.1,295.6,152.6,295.8,171.5,293z"/>
<path class="st3" d="M267.2,345.6c3.8-4.1,6.5-8.1,8-11.6c-24.4-16.4-43.8-33.9-56.7-54.1c-9.2,5.8-26.3,11.2-46.7,14.1
	c-12.2,1.8-23.5,2.4-32.9,1.9c-5.3-0.3-10-0.8-13.8-1.6c11.1,27.1,28.5,52.2,52.1,75c5.4,5.2,11,10.1,16.6,14.9
	c11.5-1.8,24.8-6.5,38-13.1C246.3,363.8,258.9,354.6,267.2,345.6z"/>
<path class="st2" d="M333.8,419c11.1-13.9,18.7-28.2,21.9-39.9c-3.8-1.9-7.6-3.9-11.4-5.9c-2.9-1.5-5.7-3-8.6-4.4
	c-2.5,12.5-12.2,29.3-26.9,45.3c-10,10.9-20.7,19.4-30.4,25c2.9,1.5,5.7,3,8.6,4.5c4.1,2.2,8.4,4.3,12.4,6.4
	C310,444.2,322.5,433.2,333.8,419z"/>
<path class="st2" d="M444.1,531.8c15.3-6.1,28.5-14,37.7-22.3c0.6-0.5,1-1,1.5-1.4c-2.8-8.8-6.1-17.3-10-25.3
	c-8.1,8.9-20.8,18.3-36.1,25.9c-14.7,7.4-29.7,12.2-42.2,13.5c-0.9,0.1-1.5,0.2-2.4,0.2c2.7,5.8,4.9,12.2,6.5,19.1
	c0.8,0,1.3,0,2.1,0C413.7,541.4,428.9,537.7,444.1,531.8z"/>
<path class="st2" d="M417.4,465.2c9.6-9.9,17.2-20.3,22.2-29.5c-7.7-7.7-15.8-14.6-24.3-20.9c0,0.2-0.1,0.3-0.1,0.4
	c-3.4,11.8-10.6,25.6-20.4,38.6c-10.9,14.4-23.2,25.7-33.7,31.8c4,3,7.9,6.1,11.3,9.4c3.1-0.7,6.4-1.8,10.1-3.7
	C393.6,486.1,406.1,476.8,417.4,465.2z"/>
<path class="st2" d="M436.6,507.8c15.5-7.7,28.2-17.2,36.2-25.9c-3.9-7.8-8.4-15.4-13.4-22.5c-7.2,10-18.6,20.5-32.2,29.5
	c-13.7,9.1-28,15.8-40.1,18.5c-1.1,0.3-2.1,0.5-3.2,0.6c3.1,4.1,5.8,8.6,8.2,13.5c0.9-0.1,1.7-0.1,2.7-0.3
	C407.2,520,422,515.2,436.6,507.8z"/>
<path class="st2" d="M393.9,453.2c9.7-13,17-26.5,20.3-38.2c0.1-0.3,0.2-0.6,0.2-0.8c-6.3-4.6-12.9-8.9-19.6-13.2
	c-2.2,12.2-9.1,27.9-20.2,43.3c-9,12.9-19.5,23.7-29.6,30.7c5.5,3.3,10.5,6.6,15.1,10.1C370.6,478.9,382.9,467.6,393.9,453.2z"/>
<path class="st2" d="M355.9,426.7c8.6-13.6,14.3-27.2,16.8-38.3c-5.4-3-10.7-5.8-16.2-8.6c-3.3,11.6-10.8,26-21.9,40
	c-11.1,14.1-23.6,25-34.4,30.8c0.7,0.4,1.3,0.7,2,1.1c7.3,3.7,14.1,7.3,20.5,10.8c1.4-0.9,2.9-1.8,4.4-3
	C337.1,451.9,347.3,440.2,355.9,426.7z"/>
<path class="st2" d="M373.8,443.7c11-15.6,18.1-31.3,20.2-43.3c-6.6-4-13.4-7.9-20.3-11.6c-2.4,11.3-8.3,24.9-16.8,38.4
	c-8.7,13.7-18.9,25.6-28.9,32.9c-1.3,1.1-2.7,1.9-4,2.8c7.3,3.9,14,7.8,20.3,11.4C354.2,467.5,364.6,456.6,373.8,443.7z"/>
<path class="st2" d="M426.7,488c13.6-9,25-19.5,32.1-29.5c0,0,0-0.1,0.1-0.1c-5.6-7.7-11.7-15.1-18.5-22c-5,9.3-12.6,19.7-22.2,29.5
	c-11.4,11.7-23.9,21-35.3,26.4c-3.5,1.6-6.7,2.8-9.6,3.6c3.7,3.6,7.2,7.3,10.2,11.3c1.2-0.2,2.4-0.5,3.7-0.7
	C399,503.5,413.1,497,426.7,488z"/>
<path class="st2" d="M202.3,661.5c12.7-7.8,25.9-13,37.4-14.8c3.8-0.6,7.3-0.8,10.3-0.6c-2.5-2.6-4.9-5.4-7.1-8.3
	c-1.3-0.2-2.7-0.4-4.2-0.6c-11.3-0.9-25.3,1.1-39.5,5.6c-20,6.4-35.8,16.5-42.5,26c4.2,8,8.9,15.1,13.8,21.5
	C176.5,680.9,187.8,670.3,202.3,661.5z"/>
<path class="st2" d="M302.2,683.8c1-5.4,2.5-9.8,4.7-13.3c-2.9-0.3-5.8-0.6-8.7-1.1c-2.8,3-5.3,7-7.2,12.1
	c-3.9,10.4-5.2,23.8-3.6,37.8c1.5,13.9,5.8,26.8,12,36.1c0.9,1.2,1.6,2.4,2.5,3.5c6.9,0.5,13.8,0.6,20.9,0.4
	c-7.4-8.8-13.7-21.3-17.6-35.3C301.1,709.5,300.1,695.2,302.2,683.8z"/>
<path class="st2" d="M324.8,725.3c-5.5-15.5-7.1-31.1-4.6-44.2c0.8-3.8,1.8-7.3,3.2-10.4c-5.2,0.3-10.2,0.3-15.2-0.1
	c-2.2,3.4-3.9,7.9-4.8,13.4c-2.1,11.3-1,25.5,2.9,39.8c4,14.1,10.4,26.8,18,35.6c2.4-0.1,4.8-0.2,7.2-0.4c0.1,0,0.2,0,0.2,0
	c0.1,0,0.2,0,0.2,0c0.1,0,0.2,0,0.3,0c0.1,0,0.2,0,0.3,0c3.8-0.3,7.5-0.6,11.2-1.2C335.7,749.1,329.2,737.9,324.8,725.3z"/>
<path class="st2" d="M270.5,709c3.3-17.9,10.7-32.9,19.4-41.1c-2.9-0.7-5.7-1.5-8.5-2.5c-3.2,1.3-6.5,3.5-10,6.4
	c-8.6,7.3-16.2,18.4-21.7,31.4c-5.5,13-8.1,26.2-7.3,37.3c0.2,1.9,0.4,3.7,0.8,5.5c10.1,4,20.6,7.2,31.5,9.4c-1.2-2.3-2.4-5-3.3-7.9
	C268.3,736.6,268,722.9,270.5,709z"/>
<path class="st2" d="M286.3,719.5c-1.6-14.1-0.3-27.7,3.7-38.2c1.9-5,4.2-8.9,7-12c-2-0.4-4-0.7-6-1.2c-8.7,8-16.2,23.1-19.5,41.1
	c-2.5,13.7-2.1,27.3,1.1,37.9c1,3.2,2.2,6.1,3.6,8.5c7.9,1.6,16,2.7,24.3,3.3c-0.7-0.9-1.3-1.8-2-2.9
	C292.3,746.5,287.9,733.6,286.3,719.5z"/>
<path class="st2" d="M231.4,690.9c8.2-11.7,18.3-21.1,28.2-26.6c3.5-1.8,6.7-3.2,9.8-4c-3.1-1.6-6-3.3-8.8-5.3
	c-12,1.1-27.4,8.7-41.3,21.2c-10.6,9.6-18.4,20.6-22.4,30.8c-1.2,3.3-2.1,6.4-2.4,9.2c0.2,0.2,0.4,0.4,0.7,0.6
	c6.5,5.5,13.5,10.6,20.7,15.1C216,720.3,221.4,705.2,231.4,690.9z"/>
<path class="st2" d="M248.8,702.7c5.6-13.2,13.4-24.4,22-31.8c3.2-2.7,6.2-4.7,9.2-6.1c-3.2-1.2-6.1-2.4-9-3.8
	c-3.4,0.7-7,2-10.8,4.1c-9.9,5.4-19.8,14.8-27.9,26.3c-10.2,14.5-15.5,29.7-15.5,41.2c8,4.9,16.4,9,25.3,12.7
	c-0.3-1.6-0.5-3.2-0.7-4.9C240.7,729.3,243.3,715.9,248.8,702.7z"/>
<path class="st2" d="M218.7,675.6c13.5-12.4,28.7-19.9,40.8-21.4c-1.7-1.2-3.5-2.6-5.1-3.9c-1.2-1-2.3-2-3.4-3
	c-3.2-0.4-7-0.2-11.2,0.5c-11.2,1.7-24.3,6.9-36.9,14.7c-14.6,8.9-25.9,19.6-31.8,29.1c7.4,9.8,15.3,17.8,22.6,24.3
	c0.4-2.8,1.2-5.7,2.4-8.8C200,696.4,208,685.3,218.7,675.6z"/>
<path class="st2" d="M198.8,642c14.2-4.5,28.4-6.5,39.9-5.7c1.2,0.1,2.3,0.2,3.3,0.4c-2.9-4.1-5.5-8.5-7.7-13.3
	c-2.7-1-5.9-1.7-9.3-2.2c-11.5-1.5-25.7,0.2-39.8,4.7c-14,4.5-26.5,11.3-34.9,19.3c-1.1,1.1-2.2,2.1-3.1,3.2
	c2.7,7,5.7,13.6,8.9,19.6C163.2,658.4,178.9,648.4,198.8,642z"/>
<path class="st2" d="M336,669.1c-3.5,0.8-6.9,1.2-10.3,1.5c-0.1,0-0.2,0-0.3,0c-0.1,0-0.2,0-0.3,0c-0.3,0-0.6,0-0.9,0.1
	c-1.4,3.1-2.5,6.6-3.3,10.7c-2.5,12.9-0.9,28.4,4.6,43.6c4.5,12.7,11.1,24,19,32.5c7.3-1.1,14.7-2.8,21.9-4.8
	c-6.8-7.3-13.5-16.7-19-27.7C336.5,703.4,332.6,682.1,336,669.1z"/>
<path class="st2" d="M184.9,625c14.2-4.6,28.5-6.2,40.2-4.7c3.2,0.5,6.1,1.1,8.6,1.9c-1.8-4-3.4-8.2-4.6-12.6
	c-2.4-1.1-5.2-2-8.3-2.8c-11.2-2.8-25.5-2.6-40,0.5c-17.4,3.6-32,10.7-40.6,18.6c1.9,7.7,4.1,14.9,6.7,21.5c0.8-1,1.8-1.8,2.8-2.9
	C158.1,636.5,170.6,629.5,184.9,625z"/>
<path class="st2" d="M369.6,652.5c-2.8,2.3-5.8,4.3-8.8,6.3c0.1,0.5,0.2,0.8,0.3,1.2c3.3,12.6,10.7,27.1,21,40.8
	c9.9,13.1,20.9,23.4,31.1,30.2c8.1-5.4,15.8-11.3,23-18.2c-12.4-3.4-29-14.2-44.3-30C382.2,672.6,374.6,662.1,369.6,652.5z"/>
<path class="st2" d="M381.4,701.4c-10.5-13.7-18-28.4-21.2-41.1c-0.1-0.3-0.2-0.6-0.2-0.9c-3.2,1.8-6.3,3.6-9.6,5
	c-0.5,12.6,3.9,29.8,12.8,47.1c7.3,14,16.1,25.7,25,33.3c8.5-3.7,16.6-8.2,24.3-13.3C402.2,724.7,391.2,714.3,381.4,701.4z"/>
<path class="st2" d="M362.2,711.8c-8.8-17.2-13.2-34.2-12.8-47c-4.1,1.7-8.3,3.1-12.2,4.1c-3.7,12.5,0.4,33.9,11.5,55.6
	c5.7,11.1,12.3,20.5,19.2,27.9c6.5-1.9,13-4.3,19.3-7.1C378.3,737.4,369.4,725.9,362.2,711.8z"/>
<path class="st4" d="M207.7,258.1c-0.1,0-0.2,0-0.3,0c1.7,4.6,3.8,9.1,6.1,13.5c0.4-0.1,0.7-0.2,0.9-0.4c1.2-1.1,4-1.6,4.4-6.9
	c0.4-5.4-6.2-6.1-6.2-6.1c-1.3,0-2.7,0-4-0.1c-0.1,0-0.3,0-0.4,0C208,258.1,207.8,258.1,207.7,258.1z"/>
<g>
	<path class="st4" d="M216.9,158.6c-3.1,4.1-5.6,8.8-8,13.6c0.3-0.1,1.6,0,2,0c0.9,0,1.5,0,2.3,0.1c0,0,7.6,0.1,8.6-5.7
		C222.7,161,221,158.6,216.9,158.6z"/>
	<path class="st4" d="M207.2,258c-0.1,0-0.2,0-0.3,0c-2.5-0.2-5-0.5-7.3-0.8v-0.1c-0.6-0.1-1.1-0.2-1.7-0.4v0.1
		c-3.6-0.7-7-1.7-10.4-2.9v-0.2c-0.5-0.2-0.8-0.4-1.2-0.5v0.2c-3.6-1.4-6.9-3.2-10-5.2l0.1-0.3c-0.6-0.4-1.1-0.7-1.6-1.2v0.3
		c-3.2-2.2-5.9-4.8-8.4-7.7l0.1-0.3c-6.4-7.8-9.8-17.4-8.8-28.7c2.1-22.7,25.1-38.8,52.3-38.3c2.4-4.9,5.1-9.3,8.2-13.4h-0.1
		c-2.9-0.6-3.2-0.2-4.8-0.4c-35.7-2.4-67.9,21-70.1,51.9c-2.2,30.9,26.5,58.4,62.3,60.8c2.6,0.2,6.4,0.8,8.4,0.5
		c-2.4-4.3-4.3-8.9-6.1-13.5C207.4,258,207.3,258,207.2,258z"/>
</g>
<path class="st5" d="M167,237.2l-0.6,2.2c2.4,2.9,5.2,5.4,8.3,7.8l1.2-8.5L167,237.2z"/>
<path class="st5" d="M166.4,239.4l-0.1,0.3c2.4,2.9,5.2,5.4,8.4,7.7v-0.3C171.6,244.9,168.8,242.3,166.4,239.4z"/>
<path class="st5" d="M178.8,239.7l-2.4,8.6c3.1,2,6.3,3.8,10,5.3l2-11.8L178.8,239.7z"/>
<path class="st5" d="M176.3,248.4c3.1,2,6.4,3.7,10,5.2v-0.2c-3.6-1.4-6.9-3.2-10-5.3V248.4z"/>
<path class="st5" d="M190.3,242.3l-2.8,11.7c3.3,1.2,6.7,2.2,10.3,3l2.3-13.1L190.3,242.3z"/>
<path class="st5" d="M187.5,254.1c3.3,1.2,6.7,2.2,10.4,2.9v-0.1c-3.6-0.7-7-1.7-10.3-3L187.5,254.1z"/>
<path class="st5" d="M207.7,258.1c0.3,0,0.6,0,0.9,0c0.8,0,1.6,0.1,2.5,0.1l1.4-11.9l-8.9-1.5C204.7,249.3,206,253.7,207.7,258.1
	C207.5,258.1,207.6,258.1,207.7,258.1z"/>
<path class="st5" d="M199.6,257.2c2.4,0.5,4.9,0.7,7.3,0.9c0.2,0,0.4,0,0.6,0c-1.6-4.3-3-8.8-4-13.4l-1.3-0.3L199.6,257.2z"/>
<path class="st5" d="M199.6,257.2c2.4,0.5,4.9,0.7,7.3,0.8C204.4,258,201.9,257.6,199.6,257.2z"/>
<path class="st5" d="M166.5,190.2l8.6-0.7l-0.3-6.8C171.7,184.9,168.8,187.5,166.5,190.2z"/>
<path class="st5" d="M176.7,181.4l1.3,7.4l9.4-1.2l-0.8-11.3C183,177.8,179.7,179.4,176.7,181.4z"/>
<path class="st5" d="M187.8,175.9l1.6,11.3l9.6-0.8l-1.1-13.2C194.5,173.8,191.1,174.7,187.8,175.9z"/>
<path class="st5" d="M209.9,172.3c-2,4.1-3.7,8.6-5.1,13.3l6.5-0.6l-0.4-12.6h-0.1C210.5,172.3,210.2,172.3,209.9,172.3z"/>
<path class="st5" d="M199.7,173l1.3,12.9l3.7-0.3c1.4-4.7,3.1-9,5.1-13.3C206.4,172.2,202.9,172.5,199.7,173z"/>
<path class="st6" d="M288.8,359.6c3.3-4.8,5.4-9.1,6.3-13c-0.3-0.2-0.7-0.4-0.9-0.6c-0.9,3.8-3,8.2-6.2,13
	c-6.9,10.1-18.1,20.9-31.5,30.3c-11.3,7.9-22.8,13.8-32.9,17.4c0.4,0.3,0.7,0.5,1,0.7c10.1-3.6,21.3-9.4,32.5-17.3
	C270.6,380.6,281.9,369.9,288.8,359.6z"/>
<path class="st6" d="M268,346.2c3.8-4.1,6.5-8.2,8.1-11.8c-0.3-0.2-0.7-0.4-0.9-0.6c-1.4,3.6-4.1,7.5-8,11.6
	c-8.3,9-20.9,18.2-35.6,25.6c-13.1,6.6-26.4,11.2-38,13.1c0.4,0.3,0.8,0.6,1.1,0.9c11.4-1.9,24.5-6.5,37.4-13.1
	C246.8,364.6,259.6,355.5,268,346.2z"/>
<path class="st6" d="M171.7,294c20.4-3,37.5-8.4,46.7-14.1c-0.2-0.3-0.4-0.6-0.6-0.9c-9.1,5.7-26.5,11.1-46.3,14
	c-18.9,2.8-36.5,2.6-47.1,0.1c0.2,0.5,0.4,0.8,0.6,1.2c3.9,0.9,8.6,1.4,13.8,1.6C148.2,296.4,159.5,295.8,171.7,294z"/>
<path class="st6" d="M312.2,366.6c1.5-3,2.6-5.8,3.5-8.4c-0.3-0.2-0.7-0.4-0.9-0.6c-0.9,2.6-1.9,5.4-3.5,8.5
	C305.7,377,296,389,284,399.9c-11.6,10.6-23.7,18.4-34.3,23.1c0.4,0.2,0.8,0.5,1,0.6c10.6-4.6,22.5-12.5,34-23
	C296.9,389.8,306.6,377.6,312.2,366.6z"/>
<path class="st6" d="M308.6,414c14.7-16,24.4-32.8,26.9-45.3c-0.3-0.2-0.6-0.3-0.9-0.5c-2.4,12.1-12.2,29-26.9,45
	c-10.2,11-20.9,19.6-30.7,25.2c0.4,0.2,0.7,0.4,1,0.6C287.9,433.5,298.6,424.8,308.6,414z"/>
<path class="st6" d="M334.7,419.6c11.1-13.9,18.7-28.3,21.9-40c-0.3-0.2-0.6-0.3-0.9-0.5c-3.2,11.4-10.8,25.8-21.9,39.9
	c-11.2,14.2-23.8,25.3-34.6,31c0.4,0.2,0.8,0.4,1,0.6C311,444.6,323.4,433.8,334.7,419.6z"/>
<path class="st6" d="M356.9,427.1c8.6-13.5,14.3-27.1,16.8-38.4c-0.3-0.2-0.7-0.4-0.9-0.5c-2.4,11.2-8.3,24.8-16.8,38.3
	c-8.6,13.7-18.8,25.3-28.6,32.7c-1.5,1.2-3,2.1-4.4,3c0.4,0.2,0.8,0.4,1.1,0.6c1.2-0.8,2.6-1.8,4-2.8
	C337.8,452.6,348.1,441,356.9,427.1z"/>
<path class="st6" d="M374.6,444.2c10.9-15.5,18-31.2,20.2-43.3c-0.3-0.2-0.6-0.4-0.9-0.6c-2.1,12-9.1,27.8-20.2,43.3
	c-9.1,12.9-19.7,23.7-29.7,30.7c0.4,0.2,0.7,0.4,1,0.6C355,468,365.5,457.1,374.6,444.2z"/>
<path class="st6" d="M394.7,453.7c9.8-13.1,17.1-26.8,20.4-38.6c0-0.2,0.1-0.3,0.1-0.4c-0.3-0.3-0.7-0.5-0.9-0.7
	c-0.1,0.3-0.1,0.6-0.2,0.8c-3.4,11.7-10.6,25.3-20.3,38.2c-10.9,14.5-23.3,25.8-33.7,31.8c0.3,0.2,0.6,0.5,0.9,0.6
	C371.7,479.4,383.9,468.2,394.7,453.7z"/>
<path class="st6" d="M418.1,466c9.6-9.9,17.2-20.2,22.2-29.5c-0.3-0.3-0.5-0.5-0.8-0.7c-5,9.3-12.6,19.6-22.2,29.5
	c-11.3,11.6-23.7,20.9-35,26.1c-3.7,1.7-7.1,3-10.1,3.7c0.3,0.3,0.7,0.6,0.9,0.9c3-0.7,6.1-1.8,9.6-3.6
	C394.1,487,406.6,477.6,418.1,466z"/>
<path class="st6" d="M427.4,488.8c13.6-9,25-19.5,32.2-29.5c-0.2-0.3-0.5-0.6-0.7-0.9c0,0,0,0.1-0.1,0.1
	c-7.1,10-18.5,20.5-32.1,29.5c-13.6,9-27.7,15.6-39.8,18.4c-1.2,0.3-2.4,0.6-3.7,0.7c0.3,0.3,0.5,0.6,0.8,1c1-0.2,2.1-0.5,3.2-0.6
	C399.4,504.5,413.7,498,427.4,488.8z"/>
<path class="st6" d="M437.2,508.7c15.5-7.7,28.2-17.1,36.1-25.9c-0.2-0.4-0.3-0.6-0.5-0.9c-7.9,8.8-20.7,18.3-36.2,25.9
	c-14.6,7.3-29.5,12.1-41.8,13.5c-0.9,0.1-1.8,0.2-2.7,0.3c0.2,0.4,0.4,0.7,0.5,1c0.8-0.1,1.5-0.1,2.4-0.2
	C407.4,520.9,422.4,516.1,437.2,508.7z"/>
<path class="st6" d="M444.5,532.7c15.4-6.1,28.7-14.1,38-22.5c0.4-0.4,0.8-0.7,1.1-1.1c-0.1-0.4-0.2-0.7-0.4-1.2
	c-0.5,0.5-1,1-1.5,1.4c-9,8.3-22.4,16.1-37.7,22.3c-15.3,6.1-30.4,9.6-42.9,9.9c-0.8,0-1.4,0-2.1,0c0.1,0.4,0.2,0.7,0.3,1.1
	c0.7,0,1.2,0,1.9,0C413.9,542.3,429.2,538.9,444.5,532.7z"/>
<path class="st6" d="M448.3,559.6c16.1-3.4,30.8-8.9,41.4-15.6c0.5-0.3,0.9-0.6,1.3-0.9c-0.1-0.4-0.1-0.8-0.2-1.2
	c-0.6,0.4-1.2,0.8-1.7,1.2c-10.5,6.5-25.1,12.1-41.1,15.5c-17.5,3.7-33.8,4.1-45.7,2c0,0.4,0.1,0.6,0.1,1c3.4,0.6,7.1,1,11.1,1.2
	C423.8,563.2,435.8,562.2,448.3,559.6z"/>
<path class="st6" d="M445.2,583.7c19.8-0.9,37.2-5.2,48.3-11.1c0-0.4,0-0.7,0-1.1c-10.9,6-28.5,10.2-48.3,11.1
	c-15.5,0.7-30.3-0.8-41.8-4.1c0,0.4,0,0.7,0,1.1c8,2.3,17.4,3.7,27.6,4.1C435.5,583.9,440.3,583.9,445.2,583.7z"/>
<path class="st6" d="M453.6,610c14.9,0.6,28.2-0.9,37.8-4.1c0.1-0.4,0.1-0.7,0.2-1.1c-11.8,4.1-29.8,5.5-49.5,3.2
	c-15.5-1.8-29.8-5.6-40.5-10.8c-0.1,0.4-0.2,0.7-0.2,1.1c10.9,5.2,25.3,8.9,40.6,10.8C445.9,609.4,449.9,609.8,453.6,610z"/>
<path class="st6" d="M468.5,641c5.1,0.2,10,0.1,14.4-0.4c0.1-0.4,0.3-0.7,0.4-1.1c-0.1,0-0.1,0-0.2,0c-12.3,1.4-27.9,0-43.8-4
	c-18.3-4.5-33.7-11.6-43.3-19.1c-0.1,0.3-0.3,0.6-0.4,0.9c9.8,7.6,25.3,14.7,43.4,19.2C449.3,639,459.4,640.5,468.5,641z"/>
<path class="st6" d="M393.1,633.3c-1.3-1.2-2.5-2.5-3.7-3.7c-0.2,0.4-0.4,0.6-0.6,1c1,1.2,2.2,2.3,3.5,3.5
	c8.9,8.6,22.3,16.7,37.6,23.2c14.9,6.2,29.5,9.8,41.2,10.5c0.2-0.3,0.4-0.6,0.5-0.9c-11.6-0.7-26.2-4.2-41.3-10.6
	C415.2,650,401.9,641.8,393.1,633.3z"/>
<path class="st6" d="M413,672c-13.4-9.4-24.4-20.2-31.2-30.4c-0.1-0.2-0.3-0.4-0.4-0.6c-0.3,0.3-0.5,0.6-0.8,0.8
	c0.1,0.1,0.1,0.2,0.2,0.3c6.9,10.2,18.1,21.1,31.5,30.6c13.5,9.5,27.5,16.4,39.6,19.6c0.9,0.3,1.7,0.5,2.5,0.6
	c0.3-0.3,0.5-0.6,0.8-0.9c-1-0.2-2-0.5-3-0.7C440.2,688.2,426.2,681.4,413,672z"/>
<path class="st6" d="M370.5,651.9c-0.3,0.2-0.6,0.5-0.9,0.6c4.9,9.6,12.6,20.2,22.3,30.4c15.2,15.8,31.7,26.7,44.3,30
	c0.3-0.3,0.6-0.6,0.9-0.8c-12.2-3.1-28.9-14-44.3-30C383,672,375.4,661.4,370.5,651.9z"/>
<path class="st6" d="M219.4,676.4c13.8-12.6,29.3-20.2,41.3-21.2c-0.5-0.3-0.9-0.6-1.2-0.9c-12.1,1.4-27.2,9-40.8,21.4
	c-10.6,9.7-18.7,20.9-22.7,31.3c-1.2,3.1-2,6.1-2.4,8.8c0.4,0.3,0.7,0.6,0.9,0.8c0.4-2.9,1.2-6,2.4-9.2
	C201,696.9,208.9,685.9,219.4,676.4z"/>
<path class="st6" d="M232.2,691.4c8.1-11.5,18-20.9,27.9-26.3c3.8-2,7.4-3.5,10.8-4.1c-0.5-0.3-1-0.5-1.4-0.7
	c-3.1,0.8-6.3,2.1-9.8,4c-10,5.4-20.1,14.9-28.2,26.6c-10.1,14.3-15.5,29.5-15.6,41.2c0.4,0.2,0.7,0.5,1,0.6
	C216.9,721.2,222.2,705.9,232.2,691.4z"/>
<path class="st6" d="M276.3,659.6l0.2-0.2c-0.1,0-0.3,0-0.4,0C276.2,659.5,276.3,659.6,276.3,659.6z"/>
<path class="st6" d="M243.3,745.9c-0.4-0.2-0.9-0.4-1.2-0.5L243.3,745.9z"/>
<path class="st6" d="M249.8,703.2c5.5-13,13.2-24.1,21.7-31.4c3.4-3,6.7-5.1,10-6.4c-0.5-0.2-0.9-0.4-1.4-0.6
	c-3,1.4-6.1,3.5-9.2,6.1c-8.6,7.4-16.4,18.6-22,31.8c-5.6,13.2-8.2,26.5-7.3,37.7c0.1,1.7,0.4,3.4,0.7,4.9c0.4,0.2,0.9,0.4,1.2,0.5
	c-0.4-1.7-0.6-3.6-0.8-5.5C241.8,729.3,244.3,716.2,249.8,703.2z"/>
<path class="st6" d="M271.4,709.2c3.3-18.1,10.8-33.1,19.5-41.1c-0.4-0.1-0.8-0.2-1.2-0.3c-8.7,8.3-16.1,23.3-19.4,41.1
	c-2.5,13.9-2.1,27.6,1.1,38.4c0.9,3,2,5.6,3.3,7.9c0.5,0.1,0.9,0.2,1.3,0.3c-1.3-2.4-2.5-5.3-3.6-8.5
	C269.4,736.4,269,723,271.4,709.2z"/>
<path class="st6" d="M287.5,719.3c-1.5-13.9-0.3-27.4,3.6-37.8c1.9-5.2,4.3-9.2,7.2-12.1c-0.5-0.1-0.8-0.2-1.2-0.2
	c-2.7,3-5.1,7-7,12c-4,10.6-5.3,24.1-3.7,38.2c1.6,14.1,5.9,27,12.1,36.5c0.7,1,1.3,1.9,2,2.9c0.5,0,0.9,0.1,1.4,0.1
	c-0.9-1.1-1.7-2.2-2.5-3.5C293.3,746.1,289,733.3,287.5,719.3z"/>
<path class="st6" d="M303.2,684c1-5.4,2.6-10,4.8-13.4c-0.4,0-0.8-0.1-1.2-0.1c-2.2,3.5-3.7,7.9-4.7,13.3c-2.1,11.4-1,25.8,3,40.2
	c3.9,13.9,10.2,26.5,17.6,35.3c0.5,0,0.9,0,1.3-0.1c-7.6-8.7-13.9-21.3-18-35.6C302.2,709.3,301.1,695.3,303.2,684z"/>
<path class="st6" d="M363.1,711.4c-8.9-17.3-13.3-34.4-12.8-47.1c-0.4,0.2-0.7,0.3-1,0.5c-0.4,12.8,4,29.9,12.8,47.1
	c7.2,13.9,16,25.6,25,33.3c0.4-0.2,0.7-0.3,1-0.5C379.3,737,370.3,725.4,363.1,711.4z"/>
<path class="st6" d="M337.1,668.8c-0.4,0.1-0.8,0.2-1.1,0.3c-3.5,13,0.6,34.3,11.6,55.8c5.7,10.9,12.2,20.4,19,27.7
	c0.4-0.1,0.8-0.2,1.1-0.4c-6.9-7.3-13.6-16.8-19.2-27.9C337.5,702.8,333.4,681.4,337.1,668.8z"/>
<path class="st6" d="M325.7,724.9c-5.4-15.3-7.1-30.7-4.6-43.6c0.8-3.9,1.8-7.5,3.3-10.7c-0.4,0-0.9,0-1.2,0.1
	c-1.3,3.1-2.5,6.5-3.2,10.4c-2.5,13.1-0.9,28.8,4.6,44.2c4.4,12.6,11,23.8,18.7,32.3c0.5-0.1,0.9-0.1,1.2-0.2
	C336.9,748.9,330.2,737.8,325.7,724.9z"/>
<path class="st6" d="M202.8,662.4c12.6-7.7,25.8-12.9,36.9-14.7c4.2-0.6,8-0.8,11.2-0.5c-0.4-0.4-0.8-0.8-1.1-1.2
	c-3-0.2-6.4,0-10.3,0.6c-11.3,1.8-24.6,7-37.4,14.8c-14.5,8.9-25.8,19.5-31.8,29.1c0.2,0.3,0.5,0.6,0.7,0.8
	C176.9,681.9,188.2,671.2,202.8,662.4z"/>
<path class="st6" d="M199.1,642.9c14-4.5,28.2-6.5,39.5-5.6c1.4,0.1,2.9,0.3,4.2,0.6c-0.3-0.4-0.6-0.8-0.9-1.2
	c-1.1-0.2-2.2-0.3-3.3-0.4c-11.4-0.9-25.6,1.1-39.9,5.7c-19.8,6.4-35.6,16.4-42.7,26.1c0.2,0.4,0.4,0.6,0.5,1
	C163.3,659.5,179.2,649.4,199.1,642.9z"/>
<path class="st6" d="M185.1,625.9c14-4.5,28.2-6.2,39.8-4.7c3.6,0.5,6.6,1.2,9.3,2.2c-0.2-0.5-0.4-0.9-0.7-1.3
	c-2.5-0.9-5.5-1.5-8.6-1.9c-11.7-1.5-25.9,0.2-40.2,4.7c-14.2,4.6-26.8,11.4-35.3,19.6c-1,1-1.9,1.8-2.8,2.9
	c0.2,0.4,0.3,0.7,0.5,1.1c0.9-1.1,2-2.1,3.1-3.2C158.7,637.4,171,630.6,185.1,625.9z"/>
<path class="st6" d="M180.7,607.1c14.5-3,28.7-3.1,40-0.5c3.1,0.7,5.8,1.7,8.3,2.8c-0.1-0.5-0.3-0.9-0.4-1.3c-2.3-1-4.8-1.8-7.6-2.5
	c-11.4-2.8-25.8-2.6-40.5,0.5c-17.2,3.6-31.8,10.6-40.7,18.5c0.1,0.4,0.2,0.7,0.3,1.1C148.6,617.8,163.3,610.7,180.7,607.1z"/>
<path class="st6" d="M143.1,598.8c9.3-6,22.3-10.1,36.4-11.6c18.9-2,36.1,1.1,46.2,7.5c-0.1-0.5-0.1-0.9-0.2-1.2
	c-10.4-6.2-27.4-9.2-46.1-7.3c-14.2,1.5-27.3,5.8-36.8,11.8c-2.6,1.7-4.9,3.5-6.8,5.4c0.1,0.5,0.1,0.9,0.2,1.2
	C137.8,602.6,140.2,600.8,143.1,598.8z"/>
<path class="st6" d="M173.4,573.5c22.3-2.4,42.2,2.4,50.8,11.2c-0.1-0.6-0.1-1-0.1-1.5c-9.3-8.6-28.9-13.1-50.8-10.8
	c-14.2,1.5-27.3,5.8-36.8,11.8c-0.9,0.6-1.8,1.2-2.6,1.8c0,0.5,0.1,0.8,0.1,1.2c1-0.7,2-1.5,3.2-2.2
	C146.4,579.2,159.3,575,173.4,573.5z"/>
<path class="st6" d="M221.8,568.8c-0.2-0.6-0.4-1.1-0.6-1.5c-10.2-6.5-26.9-10.1-45.4-8.8c-16.7,1.2-31.3,6-40.7,12.6
	c-0.1,0.6-0.3,1-0.4,1.5c9.1-6.8,24.1-11.9,41.2-13.1C195,558.1,212.1,561.9,221.8,568.8z"/>
<path class="st6" d="M212,552.1c-0.6-0.6-1.2-1.2-1.7-1.8c-9.7-3.6-22.5-5.1-36.3-3.6c-12.3,1.3-23.5,4.9-31.9,9.7
	c-0.5,0.6-0.9,1.3-1.3,1.9c8.6-5.3,20.3-9.1,33.4-10.6C188.6,546.3,202.2,548.1,212,552.1z"/>
<path class="st6" d="M382.2,700.8c-10.4-13.7-17.8-28.2-21-40.8c-0.1-0.5-0.2-0.8-0.3-1.2c-0.3,0.2-0.7,0.4-0.9,0.6
	c0.1,0.3,0.1,0.6,0.2,0.9c3.3,12.7,10.8,27.4,21.2,41.1c9.8,13,20.8,23.3,31,30.1c0.3-0.2,0.6-0.4,0.9-0.6
	C403.2,724.2,392,713.9,382.2,700.8z"/>
<path class="st6" d="M396.6,235.4c14-1.8,22.3-26.4,18.5-54.9c-3.7-28.4-18.2-50.1-32.1-48.2c-14,1.8-22.3,26.4-18.5,54.9
	C368.2,215.7,382.6,237.3,396.6,235.4z"/>
<path class="st7" d="M385.8,225.3c11.4-1.5,18.4-20.1,15.7-41.5c-2.8-21.4-14.4-37.6-25.8-36c-11.4,1.5-18.4,20.1-15.7,41.5
	S374.4,226.8,385.8,225.3z"/>
<path class="st8" d="M246.8,186.6c-1,0,3.9-19.6,3.9-19.6l7.9-2.6l27.2-3c0,0,24.2-4.2,26.1-3.9c1.9,0.3,23.3-5.9,23.3-5.9
	l29.1-11.1l-3.1,16.3l-15.9,14.4l-96.9,15.4H246.8z"/>
<path class="st0" d="M234.1,191.5l3.7,21.1c14.3,22.6,35.4,17.5,35.4,17.5l20,0.4c0,0,1.4,8.6,6.6,20.9c5.1,12.2-7.1,12.4-7.1,12.4
	l7,26.8c0,0,21.3-1.2,28.6-2.4c26.5-4.1,17.4-22,17.4-22l-13.8-40.2c0,0,20.2-2.3,33.2,7c6.3,4.5,16.9,10.5,33.3,8.7
	c36.6-4.9,20.2-87.7,5.6-107.7c-14.6-20.1-37.1-8.3-40.6,2.9c-30.2,16.3-83,23.3-100.6,24.1C238.2,162.4,234.1,191.5,234.1,191.5z
	 M368.4,170c-0.8-16.6,8.7-32.6,15.1-33.2c6.2-0.6,23.2-2.5,28.9,45.6c5.5,45.6-15.1,53-24.1,48.9c-15.3-7-16.6-27.6-16.6-27.6
	s18.6-4.1,20-14.6C393,178.8,381.8,169.5,368.4,170z M252.9,172.3l9-4.8l5.6,0.3c66.4-8,93.7-24,93.7-24s-3.9,10.7-5.3,13.2
	C297.3,183.2,252.9,172.3,252.9,172.3z"/>
<path class="st9" d="M387.1,189.1c0.8-10.5-7.9-19.6-18.7-19.1c0,0,0,9.8,0.6,16.7c0.5,6,1.2,9.4,2.7,17.1
	C371.9,203.8,386.4,200.5,387.1,189.1z"/>
</svg>
