<?xml version="1.0" encoding="utf-8"?>
<!-- Generator: Adobe Illustrator 23.1.0, SVG Export Plug-In . SVG Version: 6.00 Build 0)  -->
<svg version="1.1" id="Calque_1" xmlns="http://www.w3.org/2000/svg" xmlns:xlink="http://www.w3.org/1999/xlink" x="0px" y="0px"
	 viewBox="0 0 768 350" style="enable-background:new 0 0 768 350;" xml:space="preserve">
<style type="text/css">
	.st0{clip-path:url(#SVGID_2_);fill:#D63C1A;}
	.st1{clip-path:url(#SVGID_2_);fill:#351410;}
	.st2{clip-path:url(#SVGID_2_);fill:#B68176;}
	.st3{clip-path:url(#SVGID_2_);fill:#CE9183;}
	.st4{clip-path:url(#SVGID_2_);fill:#963223;}
	.st5{clip-path:url(#SVGID_2_);}
	.st6{fill:#963223;}
	.st7{clip-path:url(#SVGID_2_);fill:#FFFFFF;}
	.st8{clip-path:url(#SVGID_2_);fill:#4B1A14;}
	.st9{fill:#4B1A14;}
	.st10{fill:#34130F;}
	.st11{fill:#E8907C;}
	.st12{fill:#D63C1A;}
	.st13{fill:#7F1713;}
</style>
<g>
	<defs>
		<rect id="SVGID_1_" width="768" height="350"/>
	</defs>
	<clipPath id="SVGID_2_">
		<use xlink:href="#SVGID_1_"  style="overflow:visible;"/>
	</clipPath>
	<path class="st0" d="M134.6,140.2l191.9-59.6l8,28.3l162.4-48.5l3.3,18.7l107.5-37.2l8.3,13.8l108.6-35.4L603.4,69.2l-6.5-12
		l-108.8,37l-5.3-14.8l-165.1,46.7L315,103L134.6,140.2z"/>
	<path class="st0" d="M336.1,100.1l201.2-80.3l0.5,12.2L336.1,100.1z"/>
	<path class="st0" d="M517.6,274.9L685.4,326l-7-18.4L517.6,274.9z"/>
	<path class="st0" d="M241.3,249.7l116.9,39.6l5.3-21.3l98.8,32.1l2.3-13.9l65.3,25l5.4-10.4l66.1,23.7l-73.6-33.4l-4.1,9.1
		l-66.1-24.9l-3.5,11.1l-100.5-30.7l-2.1,17.3L241.3,249.7z"/>
	<path class="st0" d="M256.5,278.3l40,30.3l3.1-7.5L256.5,278.3z"/>
	<path class="st1" d="M97.1,167c3-0.9,6.1-1.5,9.3-1.8c-25,2.9-44.1,20.8-43.2,41.7c0.5,10.5,4.8,18.9,11.7,25.2l0.3-2.1l8.3,0.3
		l0,7.9c0.6,0.3,1.1,0.6,1.6,0.9l1.1-8.2l9,0.6l-0.4,11.1c0.4,0.1,0.8,0.3,1.2,0.3l1.1-11.1l9.1,0.3l-0.5,12.3c0.6,0,1,0.1,1.6,0.2
		l0.7-11.9l1.2,0.1c-1.9-5.3-3.7-10.8-4.8-16.5c-2.9-14.2-3.1-26.9-1.5-37.9l-3.4,0.7L97.1,167z M68.8,187c1.8-3,4.1-5.6,6.7-8
		l1.1,6.2L68.8,187z M79.2,184.3l-2.1-6.6c2.6-2.1,5.3-4.2,8.5-5.9l2.2,10.3L79.2,184.3z M89.6,181.3l-2.9-10.2
		c2.9-1.5,5.8-2.7,9-3.8l2.7,12L89.6,181.3z"/>
	<path class="st2" d="M418.9,526.3c0-9.8-0.7-19.7-2.3-29.8c-9.4,6.9-24.9,12.9-42.9,16.2c-4.5,0.8-8.9,1.4-13.1,1.8
		c-9.4,0.8-18.2,0.8-25.8-0.3c0.6,5.7,0.8,11.2,0.7,16.4c10.6,3.4,24.2,5,38.5,4.8C392.3,535.2,408.7,531.5,418.9,526.3z"/>
	<path class="st2" d="M402.3,562.5c-8.4,0.8-17.8,0.8-27.5-0.3c-17.3-1.8-32.3-6.4-42.2-12.2c-1.1,4.2-2.5,8.3-4,12.1
		c1.2,1,2.4,1.9,3.9,2.9c9.2,6.7,22.3,12.4,37.1,16.4c14.6,3.9,28.4,5.4,39.2,4.5c3-8.3,5.5-16.8,7.2-25.5
		C411.5,561.3,407.1,562,402.3,562.5z"/>
	<path class="st2" d="M331.6,565.8c-1.3-0.9-2.5-1.8-3.6-2.8c-1.7,3.7-3.6,7.2-5.7,10.5c0.1,0.2,0.3,0.3,0.4,0.5
		c7.5,8.4,19.1,16.9,32.4,24c13.5,6.9,27,11.4,38.5,13c1,0.1,1.9,0.3,2.8,0.3c4.5-7.8,8.3-16,11.5-24.4c-10.8,0.8-24.6-0.6-39.1-4.5
		C354.2,578.3,341,572.5,331.6,565.8z"/>
	<path class="st2" d="M415.5,559.3c0.1,0,0.1,0,0.2,0c2-10.5,3-21.1,3.2-32c-8.3,4.1-20.4,7.3-34.1,8.5c-3.5,0.3-7.1,0.5-10.8,0.6
		c-14.4,0.3-28-1.4-38.6-4.8c-0.3,6.1-1.2,11.9-2.6,17.4c9.7,5.7,24.9,10.2,42.1,12.1C390,562.8,404.5,562.1,415.5,559.3z"/>
	<path class="st2" d="M133.8,566.6c13.1-4.6,26.2-6.6,37.1-5.5c2.7,0.3,5.1,0.7,7.3,1.3c-1.6-3.7-3.1-7.8-4.4-12
		c-10.1-4.6-26.1-5.4-43.3-1.1c-12.7,3.1-24,8.6-31.9,15.2c-2.4,1.9-4.4,4.1-5.9,6.1c1.8,6.3,3.9,12.3,6.1,17.9
		C105.9,580.2,118.4,572.1,133.8,566.6z"/>
	<path class="st2" d="M123,536.6c19.8-4.9,38.3-3.2,47.9,3.5c-0.2-1.1-0.6-2.3-0.9-3.5c-0.7-3.4-1.7-6.5-3.2-9.5
		c-9.8-5-26-6.4-43.2-2.8c-15.5,3.2-28.6,9.7-36.1,17.2c-0.3,3.8-0.1,7.7,0.7,11.6c0.1,0.4,0.2,0.7,0.2,1.1c0.7-0.7,1.4-1.3,2.2-2
		C98.7,545.4,110.1,540,123,536.6z"/>
	<path class="st2" d="M373.3,489.5c14.2-5.1,27-12,35.7-19.4c0.6-0.5,1-0.9,1.4-1.3c-2.9-10.3-6.5-20.1-10.8-29.3
		c-0.3,0.4-0.6,0.7-0.9,1.1c-7.3,8.8-18.8,17.8-32,25.4c-13.4,7.5-26.9,12.7-38.3,14.6c-0.6,0.1-1.1,0.2-1.7,0.2
		c1.8,4.9,3.6,10.3,4.9,16.1C342.8,497.6,357.8,495,373.3,489.5z"/>
	<path class="st2" d="M98,564c7.9-6.8,19.4-12.3,32.3-15.4c16.9-4.2,32.9-3.6,43.2,0.9c-0.8-2.6-1.5-5.1-2.1-7.8c-9-7-27.9-9-48-3.9
		c-12.7,3.1-24,8.6-31.9,15.2c-0.9,0.8-1.8,1.6-2.7,2.4c1.1,5,2.3,9.9,3.6,14.5C93.9,567.8,95.7,565.8,98,564z"/>
	<path class="st2" d="M166.3,525.8c-2.6-4.9-6.2-9.2-10.3-12.6c-9.5-2.5-22.1-2.5-35.4,0.9c-11.9,2.9-22.2,8.1-29.3,13.9
		c-1.7,3.8-2.9,7.9-3.6,12.2c7.8-7.2,20.6-13.5,35.7-16.7C140.5,519.9,156.1,521.2,166.3,525.8z"/>
	<path class="st2" d="M354.8,598.6c-13.6-7-25.1-15.6-32.7-24.1c-0.1-0.1-0.1-0.2-0.2-0.3c-2.5,3.8-5.1,7.1-8.1,10.4
		c5.7,8.1,14,16.9,24.3,25c16.1,12.7,32.7,20.6,44.4,22c2.9-3.5,5.5-7,8-10.8c1.9-2.9,3.8-5.8,5.6-8.8c-0.8-0.1-1.6-0.2-2.4-0.2
		C382.1,610.3,368.4,605.6,354.8,598.6z"/>
	<path class="st2" d="M154.1,511.9c-9.1-6.6-21-9.5-33-7.2c-12.8,2.6-23.1,10.6-28.7,21.1c7.2-5.5,16.9-10.2,28-12.9
		C132.8,510,144.8,509.8,154.1,511.9z"/>
	<path class="st2" d="M373.6,511.9c18.2-3.3,33.7-9.5,42.9-16.2c-0.5-2.7-0.9-5.6-1.5-8.2c-1.3-5.9-2.6-11.8-4.2-17.4
		c-0.4,0.3-0.8,0.7-1.1,1c-8.9,7.4-21.7,14.4-36,19.5c-11.1,4-22.1,6.5-31.5,7.3c-3.7,0.3-7.1,0.4-10.3,0.3c0.4,1.8,0.9,3.7,1.4,5.8
		c0.7,3.3,1.2,6.4,1.6,9.5C345.6,514.9,359.3,514.5,373.6,511.9z"/>
	<path class="st2" d="M223.6,330.2c1-2.9,1.6-5.7,2.1-8.2c-6.6-2.6-13.1-5.1-19.3-7.7c-0.4,3.6-1.8,7.9-4.1,12.7
		c-5.1,10.2-14.1,21.6-25.2,31.9c-9.2,8.5-18.8,15.3-27.6,19.9c8.3,4.1,16.7,7.8,25,11.3c9.2-5.5,19.2-14.3,28.6-25.5
		C212.5,353,219.9,340.9,223.6,330.2z"/>
	<path class="st2" d="M226.5,373.8c11.6-16.5,18.4-33.2,19-44.6c-1.8-0.7-3.6-1.2-5.4-2c-4.5-1.6-9-3.4-13.4-5
		c-0.5,2.5-1.1,5.2-2.2,8.1c-3.8,10.9-11.2,23.2-20.9,34.7c-9.1,11-19.2,19.8-28.3,25.4c8.8,3.7,17.7,7.1,26.2,10.3
		C209.7,394.5,218.5,385.2,226.5,373.8z"/>
	<path class="st2" d="M201.4,326.5c2.4-4.8,3.8-9,4.1-12.7c-6.3-2.7-12.3-5.5-18.1-8.3c-0.9,3.6-2.9,7.5-5.9,11.8
		c-6.6,9.4-17,19.5-29.6,28.2c-11,7.6-22.4,13.4-32.7,16.7c9.5,6,19.3,11.3,29.1,16.1c8.8-4.6,18.5-11.3,28-20.1
		C187.4,348,196.4,336.7,201.4,326.5z"/>
	<path class="st2" d="M86.3,280.6c17.8-5.2,33-12.4,40.7-18.6c-1.7-2-3.3-4-4.8-6.2c-1.7,0.7-5.3,0.4-7.8,0.6
		c-33,2.3-62.8-19.3-64.8-47.9c-1.9-28.6,24.7-54.1,57.8-56.4c1.5-0.1,1.7-0.4,4.6-0.2l0.1,0c13.2-23.6,37.6-37,61.5-41.8
		c22.6-4.6,37.2-26.2,32.7-48.4c-4.5-22.2-26.5-36.5-49.1-31.9C111.7,39,72.9,63.3,48.2,98.5c-13,18.4-21.9,39.2-26.3,61.6
		c-4.4,22.9-4.1,47.3,1,72.2c3.9,19.4,10.7,37.5,20.3,54.3C53.3,287.6,69.3,285.6,86.3,280.6z"/>
	<path class="st3" d="M180.7,316.9c3-4.2,4.9-8.2,5.9-11.6c-24.4-12-44.4-25.6-58.8-42.5c-7.7,6.5-22.7,13.6-41.1,18.8
		c-11,3.2-21.2,5.1-29.9,5.9c-4.9,0.4-9.3,0.5-12.9,0.3c13.6,23.5,32.7,44.3,57.2,62.2c5.6,4.1,11.4,7.9,17.1,11.6
		c10.3-3.1,21.9-9.1,33.2-16.8C163.8,336.2,174.2,326.1,180.7,316.9z"/>
	<path class="st2" d="M251,375.8c8.4-14.1,13.6-28.2,15.1-39.3c-3.7-1.3-7.5-2.6-11.2-4c-2.8-1-5.6-2-8.4-3
		c-0.7,11.8-7.5,28.4-19,44.9c-7.8,11.3-16.5,20.4-24.7,26.7c2.8,1,5.6,2,8.5,3c4,1.5,8.2,2.9,12.2,4.3
		C232.3,401.9,242.4,390.2,251,375.8z"/>
	<path class="st2" d="M366.3,465.4c13.3-7.5,24.4-16.4,31.8-25.2c0.5-0.5,0.8-1,1.2-1.5c-3.7-7.7-7.8-15.1-12.3-21.9
		c-6.3,9.2-16.8,19.4-29.9,28.3c-12.6,8.6-25.7,14.9-37,17.7c-0.8,0.2-1.4,0.4-2.2,0.5c3.2,5,6,10.6,8.4,16.7
		c0.7-0.1,1.2-0.2,1.9-0.3C339.6,478,353.1,472.7,366.3,465.4z"/>
	<path class="st2" d="M333.4,407.7c7.6-10.3,13.2-20.8,16.7-29.8c-8-6.1-16.3-11.4-24.9-16.1c0,0.2-0.1,0.3,0,0.4
		c-1.6,11.2-6.5,24.8-13.9,38c-8.2,14.6-18.1,26.5-26.9,33.4c4,2.2,8,4.6,11.5,7.2c2.8-1,5.6-2.5,8.8-4.7
		C314.2,429.8,324.5,419.7,333.4,407.7z"/>
	<path class="st2" d="M356.4,444.3c13.2-9,23.7-19.3,29.9-28.3c-4.6-6.7-9.6-13.1-15.1-19c-5.3,10.1-14.5,21.1-25.8,31.1
		c-11.4,10.1-23.7,18-34.5,22c-1,0.4-1.9,0.7-2.9,1c3.4,3.4,6.4,7.2,9.2,11.4c0.8-0.2,1.5-0.3,2.4-0.6
		C330.9,459.2,343.9,453,356.4,444.3z"/>
	<path class="st2" d="M310.4,399.6c7.3-13.1,12.3-26.4,13.8-37.6c0.1-0.3,0.1-0.6,0.1-0.8c-6.4-3.4-12.9-6.5-19.6-9.6
		c-0.5,11.5-4.8,26.7-13.1,42.2c-6.6,13-14.9,24.2-23.3,31.9c5.5,2.3,10.5,4.7,15.1,7.4C292.2,426.1,302.1,414.2,310.4,399.6z"/>
	<path class="st2" d="M272.2,380.1c6.2-13.6,9.7-26.7,10.6-37.2c-5.3-2.1-10.5-4-15.9-5.9c-1.6,11.1-6.6,25.2-15.1,39.4
		c-8.4,14.3-18.5,25.9-27.7,32.6c0.7,0.3,1.3,0.5,2,0.8c7.2,2.5,13.8,4.9,20.2,7.3c1.2-1,2.4-2,3.7-3.3
		C258.1,405.6,266,393.6,272.2,380.1z"/>
	<path class="st2" d="M290.7,393.4c8.1-15.7,12.7-31,13.1-42.2c-6.6-2.8-13.3-5.6-20.1-8.1c-0.8,10.7-4.5,23.9-10.6,37.3
		c-6.3,13.7-14.1,25.8-22.4,33.8c-1.1,1.2-2.2,2.1-3.3,3.1c7.2,2.7,13.8,5.4,20,7.9C275.8,417.7,283.9,406.4,290.7,393.4z"/>
	<path class="st2" d="M344.8,427.4c11.3-10,20.5-21,25.7-31.1c0,0,0-0.1,0.1-0.1c-6.1-6.4-12.6-12.4-19.7-17.9
		c-3.4,9.2-9.1,19.6-16.7,29.8c-9,12.2-19.3,22.3-29.1,28.6c-3,1.9-5.8,3.4-8.4,4.5c3.8,2.8,7.5,5.8,10.8,9.1
		c1.1-0.3,2.1-0.8,3.3-1.1C321.4,445.1,333.5,437.4,344.8,427.4z"/>
	<path class="st2" d="M160.8,614.7c10.7-8.7,22.1-15.2,32.4-18.3c3.4-1,6.6-1.6,9.4-1.8c-2.6-2.1-5.2-4.3-7.6-6.7
		c-1.2,0-2.5,0-3.9,0c-10.5,0.6-23.1,4.2-35.5,10.1c-17.5,8.4-30.8,19.6-35.7,29.2c4.9,6.8,10.1,12.7,15.4,18
		C139.6,635.7,148.6,624.6,160.8,614.7z"/>
	<path class="st2" d="M255.2,622.6c0.2-5.1,1.1-9.3,2.6-12.8c-2.7,0.1-5.4,0.2-8.1,0.1c-2.2,3.1-4,7.1-5.1,12
		c-2.3,10-1.8,22.5,1.4,35.1c3.1,12.6,8.7,23.8,15.5,31.6c1,1,1.8,2,2.7,2.9c6.4-0.4,12.7-1.2,19.2-2.3
		c-7.9-7.1-15.2-17.8-20.6-30.2C257.4,646.3,254.7,633.3,255.2,622.6z"/>
	<path class="st2" d="M281.1,657.8c-7-13.5-10.4-27.6-9.8-40c0.3-3.6,0.7-6.9,1.6-9.9c-4.7,0.9-9.3,1.6-14,1.8
		c-1.6,3.4-2.6,7.7-2.7,12.9c-0.5,10.6,2.3,23.5,7.7,36.1c5.4,12.4,12.9,23.3,21,30.4c2.2-0.4,4.4-0.8,6.6-1.3c0.1,0,0.2,0,0.2,0
		c0.1,0,0.2,0,0.2,0c0.1,0,0.2,0,0.3,0c0.1,0,0.2,0,0.3,0c3.4-0.8,6.8-1.5,10.1-2.5C294.1,678.3,286.8,668.8,281.1,657.8z"/>
	<path class="st2" d="M229.3,649.7c0.8-16.8,5.7-31.5,12.6-40.1c-2.7-0.3-5.4-0.7-8.1-1.2c-2.8,1.6-5.5,4-8.4,7.1
		c-7,7.8-12.5,18.9-16,31.5c-3.4,12.6-4.1,25-2,35.1c0.4,1.7,0.8,3.3,1.4,4.9c9.8,2.4,19.8,4,30.1,4.7c-1.4-2-2.8-4.3-4-6.8
		C230.7,675.3,228.8,662.7,229.3,649.7z"/>
	<path class="st2" d="M245.1,657.3c-3.2-12.7-3.8-25.4-1.4-35.5c1.1-4.8,2.7-8.7,4.9-11.9c-1.9-0.1-3.8-0.1-5.7-0.3
		c-7,8.4-12,23.2-12.7,40.1c-0.6,12.9,1.5,25.3,5.8,34.6c1.3,2.8,2.8,5.3,4.4,7.3c7.4,0.5,15,0.5,22.7,0c-0.8-0.7-1.4-1.5-2.2-2.4
		C254,681.3,248.3,670.1,245.1,657.3z"/>
	<path class="st2" d="M191.2,638c6.1-11.8,14.1-21.6,22.5-27.9c3-2.1,5.7-3.8,8.5-4.9c-3-1.1-5.9-2.3-8.7-3.8
		c-10.9,2.5-24,11.4-35.2,24.6c-8.5,10.1-14.3,21.2-16.7,31.1c-0.7,3.2-1.1,6.1-1,8.7c0.2,0.2,0.4,0.3,0.7,0.5
		c6.7,4.2,13.7,8,20.9,11.3C180.7,666.9,183.8,652.4,191.2,638z"/>
	<path class="st2" d="M208.6,646.6c3.5-12.8,9.2-24.1,16.2-31.9c2.6-2.9,5.1-5.1,7.7-6.7c-3.1-0.7-5.9-1.4-8.7-2.4
		c-3,1.1-6.2,2.7-9.4,5.1c-8.4,6.2-16.3,16.1-22.3,27.6c-7.5,14.6-10.5,29.2-9,39.7c8,3.5,16.2,6.2,24.8,8.5
		c-0.5-1.4-0.9-2.9-1.3-4.4C204.5,672,205.2,659.4,208.6,646.6z"/>
	<path class="st2" d="M177.6,625.6c10.8-13.1,23.8-21.8,34.7-24.7c-1.7-0.9-3.5-1.9-5.2-2.9c-1.2-0.8-2.4-1.5-3.5-2.3
		c-3,0-6.4,0.7-10.2,1.9c-10.1,3-21.4,9.4-32,18.1c-12.3,10-21.3,21.2-25.5,30.7c8,8.1,16.3,14.4,23.8,19.4c0-2.6,0.4-5.4,1.1-8.4
		C163.1,647,169,635.8,177.6,625.6z"/>
	<path class="st2" d="M155.1,597.2c12.5-5.9,25.2-9.5,35.9-10.2c1.1-0.1,2.1-0.1,3.1,0c-3.2-3.4-6.1-7.1-8.7-11.2
		c-2.6-0.6-5.6-0.8-8.8-0.9c-10.7,0.1-23.5,3.4-35.9,9.3c-12.3,5.9-22.9,13.7-29.6,22.1c-0.9,1.1-1.8,2.2-2.4,3.3
		c3.4,6.1,6.9,11.8,10.6,16.9C124.6,616.7,137.7,605.6,155.1,597.2z"/>
	<path class="st2" d="M284.4,604.9c-3.1,1.2-6.2,2-9.3,2.7c-0.1,0-0.2,0-0.3,0c-0.1,0-0.2,0-0.3,0c-0.3,0-0.6,0.1-0.8,0.2
		c-0.9,3-1.5,6.4-1.7,10.2c-0.7,12.1,2.7,26.2,9.7,39.4c5.7,11.1,13.2,20.6,21.5,27.4c6.6-1.9,13.1-4.4,19.5-7.1
		c-7.2-5.8-14.5-13.6-20.9-23C289.1,636.3,282.9,617.2,284.4,604.9z"/>
	<path class="st2" d="M140.3,583.4c12.4-6,25.4-9.3,36.3-9.4c3,0.1,5.7,0.2,8.1,0.7c-2.2-3.4-4.1-7.1-5.8-11c-2.3-0.7-5-1.2-8-1.5
		c-10.6-1.2-23.7,0.8-36.6,5.5c-15.5,5.5-28,13.8-34.9,22.1c2.7,6.8,5.6,13.1,8.8,18.9c0.6-1,1.4-1.9,2.2-3
		C117.1,597.3,127.7,589.3,140.3,583.4z"/>
	<path class="st2" d="M313.1,585.4c-2.3,2.5-4.8,4.7-7.3,6.9c0.2,0.4,0.3,0.7,0.4,1.1c4.6,11.1,13.2,23.5,24.4,34.8
		c10.7,10.8,22.1,18.8,32.3,23.8c6.8-6,13.1-12.3,18.8-19.6c-11.8-1.6-28.4-9.4-44.4-22C327.2,602.3,318.9,593.6,313.1,585.4z"/>
	<path class="st2" d="M330,628.8c-11.3-11.2-20.1-23.8-24.6-35c-0.1-0.3-0.3-0.5-0.3-0.8c-2.7,2.1-5.3,4.1-8.2,5.8
		c1.1,11.6,7.3,26.8,17.6,41.6c8.5,11.9,18,21.5,27.1,27.4c7.3-4.5,14.2-9.6,20.6-15.2C352,647.6,340.7,639.4,330,628.8z"/>
	<path class="st2" d="M313.7,640.7c-10.2-14.7-16.4-29.7-17.6-41.5c-3.5,2.1-7.2,3.9-10.7,5.3c-1.8,11.9,4.6,31,17.5,49.5
		c6.6,9.5,13.9,17.3,21.1,23.2c5.7-2.6,11.4-5.6,16.8-8.9C331.7,662.2,322.1,652.8,313.7,640.7z"/>
	<path class="st4" d="M115.1,244.1c-0.1,0-0.2,0-0.3,0c2.1,4,4.6,7.9,7.3,11.6c0.4-0.1,0.6-0.3,0.8-0.5c1-1.2,3.5-2,3.2-6.9
		c-0.3-5-6.5-4.8-6.5-4.8c-1.2,0.2-2.5,0.3-3.7,0.4c-0.1,0-0.3,0-0.4,0.1C115.4,244,115.2,244.1,115.1,244.1z"/>
	<g class="st5">
		<path class="st6" d="M111.1,151.7c-2.3,4.1-4,8.8-5.6,13.5c0.3-0.1,1.5-0.2,1.8-0.3c0.8-0.1,1.4-0.2,2.1-0.2c0,0,7-0.9,7.2-6.3
			C116.7,153.2,114.9,151.2,111.1,151.7z"/>
		<path class="st6" d="M114.7,244c-0.1,0-0.2,0-0.3,0c-2.3,0.1-4.6,0.2-6.8,0.2l0-0.1c-0.6,0-1,0-1.6-0.2l0,0.1
			c-3.4-0.2-6.6-0.7-9.9-1.4l0-0.2c-0.5-0.1-0.8-0.3-1.2-0.3l0,0.2c-3.5-0.8-6.7-2.1-9.8-3.5l0.1-0.3c-0.6-0.3-1.1-0.5-1.6-0.9
			l0,0.3c-3.2-1.6-6-3.7-8.7-6l0.1-0.3c-6.8-6.3-11.2-14.7-11.7-25.2c-0.9-21.1,18.1-38.7,43.2-41.7c1.6-4.8,3.5-9.2,5.8-13.3
			l-0.1,0c-2.7-0.2-3,0.2-4.5,0.2c-33,2.3-59.6,27.8-57.8,56.4c1.9,28.6,31.6,50.2,64.8,47.9c2.4-0.1,6-0.1,7.8-0.6
			c-2.7-3.6-5.1-7.6-7.3-11.6C114.9,244,114.8,244,114.7,244z"/>
	</g>
	<path class="st7" d="M75.2,230l-0.3,2.1c2.6,2.4,5.4,4.3,8.6,6.1l0-7.9L75.2,230z"/>
	<path class="st7" d="M74.9,232.1l-0.1,0.3c2.6,2.4,5.4,4.3,8.7,6l0-0.3C80.4,236.5,77.5,234.5,74.9,232.1z"/>
	<path class="st7" d="M86.3,230.8l-1.1,8.2c3.1,1.4,6.3,2.7,9.8,3.6l0.4-11.1L86.3,230.8z"/>
	<path class="st7" d="M85.1,239.1c3.1,1.4,6.3,2.6,9.8,3.5l0-0.2c-3.5-0.8-6.7-2.1-9.8-3.6L85.1,239.1z"/>
	<path class="st7" d="M97.2,231.8l-1.1,11.1c3.2,0.7,6.4,1.2,9.8,1.5l0.5-12.3L97.2,231.8z"/>
	<path class="st7" d="M96.1,242.9c3.2,0.7,6.4,1.2,9.9,1.4l0-0.1c-3.4-0.2-6.6-0.7-9.8-1.5L96.1,242.9z"/>
	<path class="st7" d="M115.1,244.1c0.3,0,0.6-0.1,0.8-0.1c0.7-0.1,1.5-0.1,2.3-0.2l-0.2-11.1l-8.3-0.3
		C111.3,236.4,113,240.3,115.1,244.1C115,244.1,115.1,244.1,115.1,244.1z"/>
	<path class="st7" d="M107.6,244.3c2.3,0.2,4.6,0,6.8-0.1c0.2,0,0.4-0.1,0.6-0.1c-2-3.7-3.9-7.7-5.3-11.8l-1.2-0.1L107.6,244.3z"/>
	<path class="st7" d="M107.6,244.3c2.3,0.2,4.6,0,6.8-0.2C112.1,244.4,109.8,244.3,107.6,244.3z"/>
	<path class="st7" d="M68.8,187l7.8-1.7l-1.1-6.2C73,181.5,70.6,184.2,68.8,187z"/>
	<path class="st7" d="M77.1,177.6l2.1,6.6l8.5-2.3l-2.2-10.3C82.4,173.5,79.6,175.4,77.1,177.6z"/>
	<path class="st7" d="M86.6,171.2l2.9,10.2l8.7-1.9l-2.7-12C92.5,168.4,89.5,169.7,86.6,171.2z"/>
	<path class="st7" d="M106.4,165.1c-1.3,4-2.3,8.4-3,12.8l5.9-1.4l-1.9-11.5l-0.1,0C107,165,106.7,165.1,106.4,165.1z"/>
	<path class="st7" d="M97.1,167l2.8,11.7l3.4-0.7c0.7-4.5,1.7-8.6,3-12.8C103.2,165.5,100,166.2,97.1,167z"/>
	<path class="st8" d="M202.3,327c2.4-4.8,3.8-9,4.1-12.7c-0.3-0.1-0.7-0.3-0.9-0.4c-0.3,3.6-1.7,7.9-4.1,12.7
		c-5.1,10.1-14,21.4-25.1,31.7c-9.4,8.7-19.2,15.5-28,20.1c0.4,0.2,0.7,0.4,1,0.5c8.8-4.6,18.4-11.3,27.6-19.9
		C188.2,348.5,197.2,337.3,202.3,327z"/>
	<path class="st8" d="M181.5,317.3c3-4.2,4.9-8.3,5.9-11.8c-0.3-0.1-0.7-0.3-0.9-0.4c-0.8,3.5-2.8,7.4-5.9,11.6
		c-6.5,9.3-16.9,19.3-29.4,27.9c-11.2,7.7-22.8,13.6-33.2,16.8c0.4,0.2,0.8,0.4,1.1,0.7c10.2-3.2,21.7-9,32.7-16.7
		C164.4,336.8,175,326.9,181.5,317.3z"/>
	<path class="st8" d="M86.6,281.5c18.3-5.3,33.3-12.4,41.1-18.8c-0.2-0.3-0.4-0.5-0.7-0.8c-7.6,6.4-22.9,13.5-40.7,18.6
		c-17,4.9-33.1,7-43.2,6c0.2,0.4,0.5,0.7,0.7,1c3.7,0.3,8.1,0.2,12.9-0.3C65.4,286.7,75.7,284.7,86.6,281.5z"/>
	<path class="st8" d="M224.6,330.5c1-2.9,1.7-5.6,2.2-8.1c-0.3-0.1-0.7-0.3-0.9-0.4c-0.5,2.5-1.1,5.2-2.1,8.2
		c-3.8,10.7-11.2,22.9-20.8,34.4c-9.3,11.2-19.4,19.8-28.6,25.5c0.4,0.1,0.8,0.4,1,0.4c9.1-5.5,19.1-14.3,28.3-25.4
		C213.5,353.7,220.8,341.3,224.6,330.5z"/>
	<path class="st8" d="M227.2,374.4c11.5-16.5,18.3-33.1,19-44.9c-0.3-0.1-0.6-0.2-0.9-0.3c-0.7,11.4-7.5,28.1-19,44.6
		c-8,11.4-16.7,20.6-25,27c0.4,0.1,0.7,0.3,1,0.4C210.7,394.9,219.4,385.5,227.2,374.4z"/>
	<path class="st8" d="M251.9,376.2c8.4-14.1,13.6-28.3,15.1-39.4c-0.3-0.1-0.6-0.2-0.9-0.3c-1.5,10.9-6.7,25-15.1,39.3
		c-8.5,14.4-18.7,26.2-27.8,32.8c0.4,0.1,0.8,0.3,1,0.4C233.3,402.1,243.3,390.7,251.9,376.2z"/>
	<path class="st8" d="M273.2,380.3c6.2-13.5,9.7-26.6,10.6-37.3c-0.3-0.1-0.7-0.3-0.9-0.3c-0.8,10.6-4.5,23.8-10.6,37.2
		c-6.2,13.6-14.1,25.6-22.1,33.6c-1.2,1.3-2.5,2.3-3.7,3.3c0.4,0.1,0.8,0.3,1.1,0.4c1-0.9,2.2-2,3.3-3.1
		C258.9,406.1,266.8,394.2,273.2,380.3z"/>
	<path class="st8" d="M291.5,393.8c8.1-15.6,12.6-30.9,13.1-42.2c-0.3-0.1-0.6-0.3-0.9-0.4c-0.4,11.3-4.9,26.6-13.1,42.2
		c-6.7,13-15.1,24.2-23.4,31.9c0.4,0.1,0.7,0.3,1,0.4C276.6,418.1,284.8,406.8,291.5,393.8z"/>
	<path class="st8" d="M311.2,400c7.3-13.2,12.3-26.7,13.9-38c0-0.2,0.1-0.3,0-0.4c-0.3-0.2-0.7-0.4-0.9-0.5c-0.1,0.3,0,0.6-0.1,0.8
		c-1.7,11.2-6.5,24.5-13.8,37.6c-8.2,14.7-18.1,26.6-26.9,33.4c0.3,0.1,0.6,0.4,0.9,0.4C293.3,426.4,303.1,414.6,311.2,400z"/>
	<path class="st8" d="M334.2,408.3c7.6-10.3,13.2-20.7,16.7-29.8c-0.3-0.2-0.5-0.4-0.8-0.5c-3.4,9.2-9.1,19.6-16.7,29.8
		c-8.9,12.1-19.1,22.1-28.8,28.3c-3.2,2-6.1,3.6-8.8,4.7c0.3,0.2,0.7,0.5,0.9,0.7c2.7-1,5.4-2.4,8.4-4.5
		C314.8,430.6,325.1,420.4,334.2,408.3z"/>
	<path class="st8" d="M345.6,428.1c11.3-10,20.5-21,25.8-31.1c-0.2-0.3-0.5-0.5-0.8-0.7c0,0,0,0.1-0.1,0.1
		c-5.3,10.1-14.4,21.1-25.7,31.1c-11.3,10-23.4,17.8-34.2,21.9c-1.1,0.4-2.1,0.9-3.3,1.1c0.3,0.2,0.5,0.5,0.9,0.8
		c0.9-0.3,1.9-0.7,2.9-1C321.9,446,334.1,438.2,345.6,428.1z"/>
	<path class="st8" d="M357,445.1c13.2-9,23.7-19.2,29.9-28.3c-0.2-0.3-0.4-0.5-0.6-0.8c-6.1,9.1-16.7,19.4-29.9,28.3
		c-12.5,8.5-25.5,14.8-36.6,17.6c-0.8,0.2-1.6,0.4-2.4,0.6c0.2,0.3,0.5,0.6,0.6,0.9c0.7-0.2,1.4-0.3,2.2-0.5
		C331.2,460,344.4,453.7,357,445.1z"/>
	<path class="st8" d="M366.7,466.2c13.4-7.5,24.5-16.5,32-25.4c0.3-0.4,0.6-0.7,0.9-1.1c-0.1-0.4-0.3-0.6-0.5-1.1
		c-0.4,0.5-0.8,1-1.2,1.5c-7.2,8.7-18.5,17.6-31.8,25.2c-13.3,7.5-26.7,12.6-38.1,14.5c-0.7,0.1-1.3,0.2-1.9,0.3
		c0.1,0.4,0.3,0.6,0.4,1c0.6-0.1,1.1-0.2,1.7-0.2C339.9,478.8,353.5,473.8,366.7,466.2z"/>
	<path class="st8" d="M373.6,490.4c14.3-5.1,27.1-12,36-19.5c0.4-0.3,0.8-0.7,1.1-1c-0.1-0.4-0.2-0.7-0.3-1.1
		c-0.5,0.4-1,0.9-1.4,1.3c-8.8,7.3-21.5,14.2-35.7,19.4c-15.6,5.6-30.5,8-41.7,7.6c0.1,0.4,0.2,0.5,0.2,0.9c3.2,0.1,6.6,0,10.3-0.3
		C351.6,496.7,362.5,494.3,373.6,490.4z"/>
	<path class="st8" d="M373.8,512.9c18-3.3,33.5-9.4,42.9-16.2c-0.1-0.4-0.1-0.6-0.1-1c-9.2,6.9-24.9,12.9-42.9,16.2
		c-14.1,2.6-27.9,3.1-38.8,1.5c0.1,0.4,0.1,0.6,0.1,1c7.6,1.1,16.4,1.2,25.8,0.3C364.9,514.3,369.3,513.7,373.8,512.9z"/>
	<path class="st8" d="M384.8,535.9c13.7-1.3,25.7-4.4,34.1-8.5c0-0.4,0-0.7,0-1c-10.3,5.2-26.6,8.8-45,9.1
		c-14.4,0.3-28-1.4-38.5-4.8c0,0.4-0.1,0.7,0,1c10.6,3.4,24.3,5,38.6,4.8C377.7,536.3,381.4,536.2,384.8,535.9z"/>
	<path class="st8" d="M402.3,562.5c4.7-0.5,9.2-1.2,13.2-2.2c0-0.4,0.2-0.7,0.2-1.1c-0.1,0-0.1,0-0.2,0c-11.1,2.8-25.6,3.5-40.7,1.8
		c-17.3-1.8-32.4-6.4-42.1-12.1c-0.1,0.3-0.2,0.6-0.3,0.9c9.9,5.7,25,10.3,42.2,12.2C384.5,563.1,393.9,563.2,402.3,562.5z"/>
	<path class="st8" d="M332.2,564.9c-1.3-0.9-2.6-2-3.9-2.9c-0.1,0.4-0.3,0.6-0.4,1c1.1,1,2.3,1.8,3.6,2.8
		c9.2,6.8,22.5,12.5,37.4,16.6c14.4,3.8,28.3,5.3,39.1,4.5c0.1-0.3,0.3-0.6,0.3-0.9c-10.7,0.8-24.6-0.6-39.2-4.5
		C354.6,577.4,341.4,571.6,332.2,564.9z"/>
	<path class="st8" d="M355.3,597.9c-13.5-6.9-24.9-15.5-32.4-24c-0.1-0.2-0.3-0.3-0.4-0.5c-0.2,0.3-0.4,0.6-0.6,0.8
		c0.1,0.1,0.1,0.2,0.2,0.3c7.6,8.5,19.2,17.1,32.7,24.1c13.6,7,27.3,11.6,38.8,13c0.9,0.2,1.6,0.2,2.4,0.2c0.2-0.3,0.4-0.6,0.6-0.9
		c-0.9-0.1-1.9-0.2-2.8-0.3C382.3,609.3,368.6,604.8,355.3,597.9z"/>
	<path class="st8" d="M313.8,584.8c-0.3,0.2-0.5,0.5-0.8,0.7c5.7,8.2,14.1,16.9,24.3,25.1c15.9,12.6,32.4,20.5,44.4,22
		c0.2-0.3,0.5-0.6,0.7-0.8c-11.6-1.3-28.3-9.2-44.4-22C327.8,601.6,319.5,592.9,313.8,584.8z"/>
	<path class="st8" d="M178.4,626.2c11.1-13.3,24.3-22.2,35.2-24.6c-0.5-0.2-0.9-0.4-1.2-0.7c-10.9,2.8-23.8,11.7-34.7,24.7
		c-8.5,10.2-14.5,21.5-16.9,31.6c-0.7,3-1.1,5.8-1.1,8.4c0.4,0.2,0.7,0.5,0.9,0.6c0-2.7,0.3-5.7,1-8.7
		C164.1,647.3,169.9,636.2,178.4,626.2z"/>
	<path class="st8" d="M192,638.3c6-11.6,13.9-21.4,22.3-27.6c3.2-2.3,6.3-4.1,9.4-5.1c-0.5-0.2-1-0.3-1.4-0.5
		c-2.7,1.1-5.5,2.7-8.5,4.9c-8.5,6.2-16.6,16.2-22.5,27.9c-7.5,14.4-10.5,29-9.1,39.7c0.4,0.1,0.7,0.4,1,0.4
		C181.7,667.6,184.6,652.9,192,638.3z"/>
	<path class="st8" d="M228.4,603.7l0.2-0.2c-0.1,0-0.3,0-0.4,0.1C228.3,603.6,228.4,603.7,228.4,603.7z"/>
	<path class="st8" d="M209,686.9c-0.4-0.1-0.9-0.3-1.2-0.3L209,686.9z"/>
	<path class="st8" d="M209.6,647c3.4-12.6,9.1-23.8,16-31.5c2.7-3.2,5.5-5.5,8.4-7.1c-0.5-0.1-0.9-0.3-1.4-0.4
		c-2.6,1.7-5.2,4-7.7,6.7c-7,7.9-12.7,19.1-16.2,31.9c-3.5,12.8-4.2,25.3-2,35.5c0.3,1.5,0.8,3.1,1.3,4.4c0.4,0.1,0.9,0.3,1.2,0.3
		c-0.6-1.5-1-3.2-1.4-4.9C205.5,671.9,206.2,659.6,209.6,647z"/>
	<path class="st8" d="M230.2,649.8c0.8-17,5.8-31.7,12.7-40.1c-0.4,0-0.8-0.1-1.1-0.1c-6.9,8.7-11.8,23.4-12.6,40.1
		c-0.5,13.1,1.5,25.6,5.8,35.1c1.2,2.6,2.5,4.9,4,6.8c0.5,0,0.9,0.1,1.2,0.1c-1.5-2-3-4.5-4.4-7.3
		C231.7,674.9,229.7,662.7,230.2,649.8z"/>
	<path class="st8" d="M246.2,657c-3.1-12.6-3.7-25.1-1.4-35.1c1.1-5,2.8-9,5.1-12c-0.5,0-0.8-0.1-1.1,0c-2.1,3.1-3.8,7.1-4.9,11.9
		c-2.3,10.2-1.8,22.8,1.4,35.5c3.2,12.7,8.8,24,15.7,32c0.8,0.8,1.4,1.6,2.2,2.4c0.5-0.1,0.8,0,1.3-0.1c-1-0.9-1.8-1.8-2.7-2.9
		C254.9,680.8,249.3,669.6,246.2,657z"/>
	<path class="st8" d="M256.2,622.7c0.2-5.1,1.1-9.5,2.7-12.9c-0.4,0.1-0.7,0-1.1,0.1c-1.6,3.5-2.4,7.7-2.6,12.8
		c-0.5,10.7,2.3,23.8,7.8,36.5c5.3,12.3,12.7,23,20.6,30.2c0.5-0.1,0.8-0.1,1.2-0.3c-8.1-7-15.4-17.8-21-30.4
		C258.4,646,255.6,633.3,256.2,622.7z"/>
	<path class="st8" d="M314.5,640.3c-10.3-14.7-16.5-29.9-17.6-41.6c-0.3,0.2-0.6,0.4-0.9,0.6c1.2,11.8,7.4,26.9,17.6,41.6
		c8.3,11.8,17.9,21.5,27.1,27.4c0.3-0.2,0.6-0.4,0.9-0.6C332.6,661.7,322.9,652.2,314.5,640.3z"/>
	<path class="st8" d="M285.3,604.5c-0.4,0.1-0.7,0.3-1,0.4c-1.6,12.4,4.9,31.4,17.6,49.7c6.6,9.3,13.7,17.2,20.9,23
		c0.4-0.1,0.7-0.3,1-0.5c-7.2-5.8-14.6-13.7-21.1-23.2C290,635.6,283.5,616.5,285.3,604.5z"/>
	<path class="st8" d="M281.9,657.3c-6.9-13.4-10.4-27.3-9.7-39.4c0.2-3.7,0.7-7.1,1.7-10.2c-0.4,0.1-0.8,0.1-1.1,0.2
		c-0.8,3-1.5,6.3-1.6,9.9c-0.6,12.3,2.8,26.5,9.8,40c5.6,11,13.1,20.4,21.2,27.3c0.4-0.2,0.8-0.2,1.1-0.3
		C295.2,677.9,287.7,668.6,281.9,657.3z"/>
	<path class="st8" d="M161.4,615.4c10.6-8.6,22-15.1,32-18.1c3.8-1.1,7.2-1.7,10.2-1.9c-0.4-0.3-0.8-0.6-1.2-1
		c-2.8,0.2-5.9,0.8-9.4,1.8c-10.1,3.1-21.7,9.5-32.4,18.3c-12.2,10-21.2,21.1-25.5,30.7c0.2,0.3,0.5,0.5,0.7,0.6
		C140.1,636.6,149.1,625.3,161.4,615.4z"/>
	<path class="st8" d="M155.5,598c12.3-5.9,25-9.5,35.5-10.1c1.3-0.1,2.7-0.1,3.9,0c-0.3-0.3-0.7-0.7-1-1c-1,0-2.1,0-3.1,0
		c-10.6,0.6-23.3,4.2-35.9,10.2c-17.4,8.4-30.6,19.5-35.9,29.3c0.2,0.3,0.4,0.5,0.6,0.9C124.8,617.7,138.1,606.5,155.5,598z"/>
	<path class="st8" d="M140.6,584.2c12.3-5.9,25.1-9.2,35.9-9.3c3.4,0,6.2,0.3,8.8,0.9c-0.2-0.4-0.5-0.8-0.8-1.1
		c-2.4-0.5-5.2-0.7-8.1-0.7c-10.9,0.1-23.7,3.4-36.3,9.4c-12.4,6-23.1,13.8-29.9,22.4c-0.8,1-1.5,1.9-2.2,3c0.2,0.3,0.4,0.6,0.6,0.9
		c0.7-1.1,1.6-2.2,2.4-3.3C117.8,598.1,128.2,590.3,140.6,584.2z"/>
	<path class="st8" d="M134.2,567.5c12.9-4.6,25.9-6.4,36.6-5.5c2.9,0.3,5.5,0.8,8,1.5c-0.2-0.4-0.4-0.8-0.5-1.1
		c-2.2-0.6-4.6-1-7.3-1.3c-10.8-1.1-24,0.9-37.1,5.5c-15.3,5.5-27.8,13.7-35,22.1c0.1,0.4,0.3,0.6,0.4,1
		C106.1,581.3,118.7,573,134.2,567.5z"/>
	<path class="st8" d="M98.7,564.6c7.8-6.7,19.2-12.1,31.9-15.2c17.1-4.2,33.2-3.5,43.3,1.1c-0.2-0.4-0.2-0.8-0.3-1.1
		c-10.3-4.4-26.3-5-43.2-0.9c-12.8,3.2-24.3,8.7-32.3,15.4c-2.2,1.9-4.1,3.8-5.6,5.8c0.2,0.4,0.2,0.8,0.3,1.1
		C94.3,568.8,96.2,566.8,98.7,564.6z"/>
	<path class="st8" d="M123.3,537.6c20.1-5,39-3.1,48,3.9c-0.2-0.5-0.2-0.9-0.3-1.4c-9.6-6.7-28.1-8.4-47.9-3.5
		c-12.8,3.2-24.3,8.7-32.3,15.4c-0.8,0.7-1.5,1.3-2.2,2c0.1,0.5,0.2,0.7,0.2,1.1c0.8-0.8,1.6-1.6,2.7-2.4
		C99.2,546.2,110.5,540.8,123.3,537.6z"/>
	<path class="st8" d="M167.1,527.2c-0.3-0.5-0.5-1-0.7-1.3c-10.2-4.7-25.9-5.9-42.7-2.4c-15.2,3.2-27.9,9.4-35.7,16.7
		c0,0.6-0.1,1-0.2,1.4c7.5-7.4,20.6-13.9,36.1-17.2C141.1,520.8,157.3,522.1,167.1,527.2z"/>
	<path class="st8" d="M156,513.1c-0.6-0.5-1.3-0.9-1.8-1.4c-9.3-2.1-21.3-1.9-33.7,1.3c-11.1,2.7-20.9,7.4-28,12.9
		c-0.4,0.6-0.7,1.3-1,1.9c7.2-5.9,17.5-10.9,29.3-13.9C133.8,510.8,146.5,510.7,156,513.1z"/>
	<path class="st8" d="M330.7,628.2c-11.3-11.3-19.9-23.6-24.4-34.8c-0.2-0.4-0.3-0.7-0.4-1.1c-0.3,0.2-0.6,0.5-0.8,0.7
		c0.1,0.3,0.2,0.5,0.3,0.8c4.6,11.2,13.3,23.8,24.6,35c10.6,10.7,22,18.8,32.2,23.7c0.3-0.2,0.5-0.4,0.8-0.7
		C352.9,647,341.3,638.9,330.7,628.2z"/>
	<g class="st5">
		<path class="st9" d="M271.8,226.8c12.8-2.5,18.9-25.8,13.6-51.9c-5.2-26-20-45.1-32.7-42.5c-12.8,2.5-18.9,25.8-13.6,51.9
			C244.3,210.4,259,229.5,271.8,226.8z"/>
		<path class="st10" d="M261.2,218.2c10.4-2.1,15.7-19.7,11.9-39.3c-3.9-19.6-15.7-33.8-26.1-31.6c-10.4,2.1-15.7,19.7-11.9,39.3
			S250.7,220.3,261.2,218.2z"/>
		<path class="st11" d="M130.4,191.2c-0.9,0.1,2.4-18.3,2.4-18.3l7.1-2.9l24.9-4.5c0,0,22.1-5.4,23.9-5.3s21.1-6.9,21.1-6.9
			l26.2-12.1l-1.8,15.2l-13.8,14.3l-88.5,20.4L130.4,191.2L130.4,191.2z"/>
		<path class="st12" d="M119,196.6l4.8,19.2c14.6,20,33.8,13.9,33.8,13.9l18.5-0.9c0,0,1.8,7.9,7.4,18.9c5.5,10.9-5.8,11.9-5.8,11.9
			l8.2,24.3c0,0,19.6-2.5,26.3-4c24.2-5.5,14.7-21.4,14.7-21.4l-15.3-36.2c0,0,18.5-3.4,31.1,4.4c6.1,3.8,16.3,8.6,31.3,5.9
			c33.5-6.8,13.1-82.3-1.6-99.8c-14.8-17.6-34.8-5.3-37.3,5.2c-26.9,17-75.2,26.8-91.4,28.6C120.9,169.4,119,196.6,119,196.6z
			 M241.6,168.2c-1.8-15.3,6-30.7,11.8-31.6c5.7-0.9,21.3-3.8,29.6,40.3c8,41.8-10.6,49.9-19.2,46.7c-14.6-5.5-17.1-24.4-17.1-24.4
			s16.9-5,17.5-14.7C264.9,174.8,253.9,166.9,241.6,168.2z M135.1,177.6l8-5l5.2-0.1c60.8-11.6,85-28.1,85-28.1s-2.9,10.1-4.1,12.5
			C176.8,184.9,135.1,177.6,135.1,177.6z"/>
		<path class="st13" d="M260.1,184.7c0.1-9.7-8.5-17.6-18.5-16.5c0,0,0.6,9,1.6,15.4c0.8,5.5,1.7,8.6,3.6,15.6
			C247,199.2,260.2,195.2,260.1,184.7z"/>
	</g>
</g>
</svg>
