<?xml version="1.0" encoding="utf-8"?>
<!-- Generator: Adobe Illustrator 23.1.0, SVG Export Plug-In . SVG Version: 6.00 Build 0)  -->
<svg version="1.1" id="Calque_1" xmlns="http://www.w3.org/2000/svg" xmlns:xlink="http://www.w3.org/1999/xlink" x="0px" y="0px"
	 viewBox="0 0 102 112" style="enable-background:new 0 0 102 112;" xml:space="preserve">
<style type="text/css">
	.st0{fill:#B68176;}
</style>
<path class="st0" d="M46.4,48.7v-7c0-7.2-1.4-14.1-4.1-20.8c-2.7-6.6-6.7-12.5-11.8-17.6c-1.9-1.9-4.4-2.9-7.1-2.9
	c-2.7,0-5.2,1.1-7.1,2.9c-5.1,5-9,11-11.8,17.6c-2.7,6.6-4.1,13.6-4.1,20.8v7c0,2.3,0.9,4.4,2.5,6c1.6,1.6,3.7,2.5,6,2.5h5.9v12
	l-0.3,0.1c-1,0.3-1.8,1-2.4,1.8S11.3,73,11.3,74v32.5c0,1.3,0.5,2.5,1.4,3.5c0.9,0.9,2.2,1.4,3.5,1.4h14.4c1.3,0,2.5-0.5,3.5-1.4
	c0.9-0.9,1.4-2.2,1.4-3.5V74c0-1-0.3-2-0.9-2.8c-0.6-0.8-1.4-1.4-2.4-1.8L32,69.3v-12h5.9c2.3,0,4.4-0.9,6-2.5
	C45.5,53.1,46.4,51,46.4,48.7z M33,106.5c0,0.6-0.2,1.2-0.7,1.6c-0.4,0.4-1,0.7-1.6,0.7H16.2c-1.3,0-2.3-1-2.3-2.3v-24h19V106.5z
	 M32.3,72.4c0.4,0.4,0.7,1,0.7,1.6v5.9h-19V74c0-1.3,1-2.3,2.3-2.3h14.4C31.3,71.7,31.9,71.9,32.3,72.4z M29.4,57.2l0,11.8H17.5
	V57.2H29.4z M19.4,54.6V40.1l4.1-5.5l4.1,5.5v14.5H19.4z M43.8,48.7c0,1.6-0.6,3.1-1.7,4.2c-1.1,1.1-2.6,1.7-4.2,1.7h-7.7V39.7
	c0-0.3-0.1-0.6-0.3-0.8l-5.4-7.2c-0.5-0.6-1.6-0.6-2.1,0L17,38.9c-0.2,0.2-0.3,0.5-0.3,0.8v14.9H9c-1.6,0-3.1-0.6-4.2-1.7
	c-1.1-1.1-1.7-2.6-1.7-4.2v-7C3.1,35,4.4,28.3,7,22c2.6-6.3,6.4-11.9,11.2-16.7c1.4-1.4,3.3-2.2,5.2-2.2c2,0,3.8,0.8,5.2,2.2
	c4.8,4.8,8.6,10.4,11.2,16.7c2.6,6.3,3.9,12.9,3.9,19.8L43.8,48.7z"/>
<path class="st0" d="M100.6,30.2V10.8c0-0.2-0.1-0.5-0.2-0.7l0,0l-5.4-9c-0.5-0.7-1.7-0.7-2.3,0l-5.4,9c-0.1,0.2-0.2,0.4-0.2,0.7
	v21.7c0,1.3-1,2.3-2.3,2.3s-2.3-1-2.3-2.3V10.8c0-0.2-0.1-0.5-0.2-0.7l-5.4-9c-0.5-0.7-1.7-0.7-2.3,0l-5.4,9
	c-0.1,0.2-0.2,0.4-0.2,0.7v21.7c0,1.3-1,2.3-2.3,2.3s-2.3-1-2.3-2.3V10.8c0-0.2-0.1-0.5-0.2-0.7l-5.4-9c-0.2-0.3-0.7-0.6-1.1-0.6
	s-0.9,0.2-1.1,0.6l-5.4,9c-0.1,0.2-0.2,0.4-0.2,0.7v19.3c0,7.6,3.3,14.8,8.9,19.9l7.3,6.5v12.7l-0.3,0.1c-1,0.3-1.8,1-2.4,1.8
	C64,72,63.7,73,63.7,74v32.5c0,1.3,0.5,2.5,1.4,3.5c0.9,0.9,2.2,1.4,3.5,1.4H83c1.3,0,2.5-0.5,3.5-1.4s1.4-2.2,1.4-3.5V74
	c0-1-0.3-2-0.9-2.8c-0.6-0.8-1.4-1.4-2.4-1.8l-0.3-0.1V56.5l7.3-6.5C97.3,45,100.6,37.7,100.6,30.2z M85.3,106.5
	c0,0.6-0.2,1.2-0.7,1.6c-0.4,0.4-1,0.7-1.6,0.7v0l-14.4,0c-1.3,0-2.3-1-2.3-2.3v-24h19V106.5z M84.6,72.4c0.4,0.4,0.7,1,0.7,1.6v5.9
	h-19V74c0-1.3,1-2.3,2.3-2.3v0H83C83.6,71.7,84.2,71.9,84.6,72.4z M69.9,69.1V57.3h11.8v11.8H69.9z M89.9,48.1l-7.4,6.6H69.1
	l-7.4-6.6c-5.1-4.5-8-11.1-8-17.9v-19l4.1-6.9l4.1,6.9v21.3c0,1.7,0.9,3.4,2.5,4.3c1.5,0.9,3.4,0.9,4.9,0c1.5-0.9,2.5-2.5,2.5-4.3
	V11.2l4.1-6.9l4.1,6.9l0,21.3c0,1.7,0.9,3.4,2.5,4.3s3.4,0.9,4.9,0c1.5-0.9,2.5-2.5,2.5-4.3V11.2l4.1-6.9l4.1,6.9l0,19
	C97.9,37,95,43.5,89.9,48.1z"/>
</svg>
