<svg width="47" height="61" viewBox="0 0 47 61" fill="none" xmlns="http://www.w3.org/2000/svg">
<path d="M0.959549 0H31.709C31.728 0 31.7443 0.0100897 31.7629 0.0116031C31.8506 0.0166481 31.9378 0.0353148 32.0208 0.0660895C32.0494 0.0761791 32.0771 0.0847537 32.1047 0.09787C32.2101 0.146301 32.3059 0.213903 32.388 0.298154L45.8408 14.5316H45.8412C45.9199 14.6183 45.9838 14.7187 46.0291 14.8292C46.0415 14.8605 46.0525 14.8928 46.0615 14.9256C46.0887 15.0098 46.1054 15.0976 46.1106 15.1864C46.1121 15.2086 46.1226 15.2283 46.1226 15.2504V59.9835C46.1226 60.2529 46.0215 60.5117 45.8412 60.7024C45.661 60.8926 45.4164 61 45.1618 61H0.96077C0.705677 61 0.461548 60.8925 0.281303 60.7024C0.101063 60.5117 -1.52588e-05 60.2529 -1.52588e-05 59.9835V1.01704C-1.52588e-05 0.747147 0.101067 0.48885 0.281303 0.29815C0.461548 0.10745 0.705677 0 0.96077 0H0.959549ZM32.6696 3.47137V14.2335H42.8416L32.6696 3.47137ZM1.9202 58.9663H44.1999V16.2674H31.7078C31.4527 16.2674 31.208 16.1604 31.0283 15.9697C30.848 15.779 30.7465 15.5207 30.7465 15.2508V2.03381H1.91959L1.9202 58.9663Z" fill="#D63C1A"/>
<path d="M11.5287 41.6825H34.5905C35.1212 41.6825 35.5513 42.1375 35.5513 42.699C35.5513 43.2605 35.1212 43.7161 34.5905 43.7161H11.5287C10.998 43.7161 10.5675 43.2605 10.5675 42.699C10.5675 42.1375 10.998 41.6825 11.5287 41.6825Z" fill="#D63C1A"/>
<path d="M30.7476 28.4656C30.7476 28.7355 30.6465 28.9938 30.4662 29.1845C30.286 29.3752 30.0419 29.4821 29.7868 29.4821H11.5295C10.9988 29.4821 10.5682 29.0271 10.5682 28.4656C10.5682 27.9041 10.9988 27.449 11.5295 27.449H29.7868C30.3175 27.449 30.7476 27.9041 30.7476 28.4656Z" fill="#D63C1A"/>
</svg>
