<svg width="781" height="370" viewBox="0 0 781 370" fill="none" xmlns="http://www.w3.org/2000/svg">
<path d="M591.977 369.22H589.615C522.703 368.433 462.089 337.732 413.287 281.054C403.839 270.031 395.971 259.015 389.673 249.567C382.587 259.802 374.713 270.032 365.271 281.054C315.674 335.37 254.273 364.495 186.568 363.707C82.6557 362.92 -0.791215 279.479 0.00566009 179.504C0.793019 130.701 21.2588 85.0403 57.4697 51.1903C93.6806 17.3403 140.91 -0.76285 191.295 0.0246501C258.207 0.81201 318.821 31.5121 367.623 88.1903C377.071 99.2132 384.938 110.229 391.237 119.678C398.323 109.442 406.197 99.2121 415.638 88.1903C465.229 32.2996 526.637 3.17468 594.326 3.96218C698.239 5.53687 782.467 88.1903 780.888 188.165C780.101 236.968 759.635 282.629 723.424 316.479C688.006 350.323 641.563 369.22 591.967 369.22H591.977ZM425.102 184.236C440.849 216.511 492.802 303.889 590.415 305.464C624.265 306.251 656.54 293.653 680.155 270.826C703.769 248.787 717.155 218.873 717.943 187.386C718.73 122.048 662.84 67.7325 593.565 66.945C495.944 66.1515 441.63 152.748 425.096 184.236H425.102ZM188.946 62.2137C155.883 62.2137 124.396 74.0241 100.78 96.8513C77.1661 118.89 63.7802 148.804 62.9927 180.292C62.2053 245.629 118.096 299.945 187.371 300.732H189.733C285.772 300.732 339.3 215.717 355.827 183.442C340.08 151.167 288.127 63.7887 190.514 62.2137H188.939H188.946Z" fill="#4B1810"/>
</svg>
