<?xml version="1.0" encoding="utf-8"?>
<!-- Generator: Adobe Illustrator 23.1.0, SVG Export Plug-In . SVG Version: 6.00 Build 0)  -->
<svg version="1.1" id="Calque_1" xmlns="http://www.w3.org/2000/svg" xmlns:xlink="http://www.w3.org/1999/xlink" x="0px" y="0px"
	 viewBox="0 0 43 63" style="enable-background:new 0 0 43 63;" xml:space="preserve">
<style type="text/css">
	.st0{fill:none;stroke:#D63C1A;stroke-width:2.15;stroke-linecap:round;stroke-linejoin:round;stroke-miterlimit:10;}
</style>
<path class="st0" d="M41.3,20.4c0,10.7-12.8,34-20.2,34C13.9,54.4,1,31,1,20.4c0-5.1,2.1-10.1,5.9-13.7C10.7,3,15.8,1,21.2,1
	c5.3,0,10.5,2,14.3,5.7C39.2,10.3,41.3,15.2,41.3,20.4z"/>
<path class="st0" d="M12.3,18.5c-0.2,1.3,0,2.6,0.4,3.9c0.4,1.2,1.2,2.4,2.1,3.3c1,0.9,2.1,1.6,3.4,2c1.3,0.4,2.7,0.5,4,0.4
	c1.9-0.3,3.8-1.1,5.1-2.5c1.4-1.3,2.3-3.1,2.6-4.9c0.2-1.3,0-2.6-0.4-3.9c-0.4-1.2-1.2-2.4-2.1-3.3c-1-0.9-2.1-1.6-3.4-2
	c-1.3-0.4-2.7-0.5-4-0.4c-1.9,0.3-3.7,1.1-5.1,2.5S12.6,16.6,12.3,18.5z"/>
<path class="st0" d="M1,53.7c0,4.4,9,7.9,20.2,7.9c11.1,0,20.2-3.5,20.2-7.9c0-2.7-3.7-5.2-9.2-6.6"/>
</svg>
