<svg width="208" height="246" viewBox="0 0 208 246" fill="none" xmlns="http://www.w3.org/2000/svg">
<path d="M140.123 148.685C137.094 147.657 134.065 147.062 131.415 146.9C129.414 149.442 127.683 151.984 126.223 154.688C129.306 154.58 133.092 155.121 136.986 156.257C141.853 157.609 145.964 159.61 148.398 161.557C149.642 159.935 151.048 158.312 152.562 156.744C150.994 153.931 146.234 150.686 140.123 148.685Z" fill="#B68075"/>
<path d="M145.964 211.587C143.638 214.507 141.204 216.941 139.041 218.618C141.15 220.078 143.422 221.322 145.748 222.404C147.587 220.348 149.588 217.59 151.373 214.345C153.428 210.721 154.888 207.043 155.591 204.069C155.753 203.474 155.808 202.933 155.916 202.446C154.726 201.959 153.536 201.364 152.454 200.715C152.292 201.148 152.13 201.635 151.913 202.176C150.669 204.988 148.614 208.341 145.964 211.587Z" fill="#B68075"/>
<path d="M151.589 214.453C149.804 217.698 147.803 220.457 145.964 222.512C148.398 223.594 150.94 224.459 153.59 225.162C155.104 222.728 156.619 219.321 157.809 215.427C158.999 211.424 159.702 207.584 159.756 204.501C159.756 204.177 159.756 203.906 159.756 203.636C158.512 203.366 157.322 202.987 156.132 202.554C156.078 203.041 155.97 203.582 155.807 204.177C155.158 207.097 153.644 210.775 151.589 214.453Z" fill="#B68075"/>
<path d="M126.06 154.905C124.546 157.663 123.302 160.476 122.328 163.396C124.979 163.018 128.332 163.018 131.902 163.396C138.013 164.045 142.989 165.614 144.828 167.344C145.747 165.397 146.883 163.504 148.235 161.665C145.856 159.772 141.745 157.771 136.877 156.419C132.983 155.337 129.143 154.797 126.06 154.905Z" fill="#B68075"/>
<path d="M192.099 68.6381C195.452 67.0155 198.805 65.9879 201.672 65.6093C200.482 63.4999 199.13 61.4988 197.67 59.6599C194.749 60.5252 191.125 62.4723 187.772 65.1225C184.31 67.8809 181.606 70.9097 180.092 73.5058C180.795 74.3171 181.39 75.2365 181.985 76.2101C183.878 73.614 187.502 70.8015 192.099 68.6381Z" fill="#B68075"/>
<path d="M158.025 215.481C156.835 219.375 155.321 222.782 153.86 225.216C155.699 225.649 157.646 226.027 159.539 226.244C160.567 224.189 161.541 221.701 162.352 218.996C163.542 214.994 164.245 211.154 164.299 208.071C164.299 206.448 164.137 205.096 163.812 204.231C162.514 204.123 161.216 203.96 159.972 203.69C159.972 203.96 159.972 204.231 159.972 204.501C159.972 207.584 159.269 211.478 158.025 215.481Z" fill="#B68075"/>
<path d="M156.24 125.482C154.239 126.78 152.184 128.186 150.128 129.647C152.779 130.728 155.862 132.621 158.782 135.109C162.784 138.517 165.651 142.303 166.787 145.278C168.193 144.304 169.653 143.385 171.168 142.411C171.222 142.357 171.33 142.303 171.384 142.249C170.519 139.22 167.977 135.326 164.353 131.594C161.757 128.998 158.836 126.834 156.24 125.482Z" fill="#B68075"/>
<path d="M187.556 64.8521C190.963 62.1478 194.479 60.2548 197.453 59.3895C196.372 58.0914 195.236 56.7934 193.992 55.6035C193.667 55.279 193.397 55.0085 193.073 54.7381C190.044 55.7657 186.041 58.7404 182.634 62.6887C180.308 65.393 178.469 68.2054 177.388 70.6393C178.307 71.3965 179.118 72.2619 179.93 73.2354C181.39 70.5852 184.094 67.5564 187.556 64.8521Z" fill="#B68075"/>
<path d="M131.848 163.613C128.278 163.234 124.871 163.234 122.22 163.613C121.463 165.938 120.868 168.318 120.436 170.698C123.14 169.832 126.439 169.292 129.955 169.183C135.417 169.021 140.285 169.995 143.152 171.617C143.584 170.211 144.071 168.859 144.666 167.507C142.989 165.884 137.851 164.262 131.848 163.613Z" fill="#B68075"/>
<path d="M164.569 208.071C164.515 211.154 163.812 215.048 162.622 219.05C161.811 221.755 160.837 224.189 159.81 226.244C161.919 226.514 164.083 226.622 166.246 226.568C166.679 226.568 167.111 226.514 167.544 226.46C168.139 224.243 168.626 221.701 168.95 218.942C169.383 214.778 169.329 210.883 168.842 207.855C168.572 206.34 168.193 205.15 167.706 204.339C167.165 204.285 166.571 204.231 166.03 204.231C165.381 204.231 164.786 204.231 164.137 204.177C164.461 205.15 164.623 206.448 164.569 208.071Z" fill="#B68075"/>
<path d="M151.913 138.3C149.209 136.516 146.397 135.163 143.909 134.352C141.691 136.137 139.528 138.084 137.418 140.139C140.069 140.572 143.043 141.546 146.018 142.952C151.805 145.656 156.132 149.334 157.376 152.255C158.728 151.119 160.189 149.983 161.703 148.901C160.892 145.872 157.16 141.762 151.913 138.3Z" fill="#B68075"/>
<path d="M149.858 129.863C147.965 131.215 146.018 132.676 144.125 134.19C146.613 135.001 149.371 136.353 152.022 138.084C157.268 141.492 160.946 145.656 161.919 148.685C163.434 147.603 164.948 146.467 166.625 145.386C165.543 142.465 162.622 138.679 158.62 135.272C155.699 132.838 152.562 130.891 149.858 129.863Z" fill="#B68075"/>
<path d="M132.064 191.413C128.278 192.765 124.654 193.955 121.896 194.82C122.383 196.389 122.923 197.957 123.572 199.471C123.843 200.066 124.059 200.661 124.33 201.202C126.926 200.445 130.171 199.201 133.849 197.362C137.581 195.523 140.934 193.468 143.314 191.629C143.638 191.413 143.909 191.142 144.179 190.926C143.692 189.736 143.26 188.438 142.935 187.086C142.773 187.14 142.556 187.248 142.394 187.356C139.636 188.546 135.958 190.006 132.064 191.413Z" fill="#B68075"/>
<path d="M133.957 197.578C130.712 199.201 127.25 200.607 124.438 201.418C125.357 203.42 126.439 205.313 127.629 207.097C129.684 206.232 132.118 205.042 134.66 203.582C138.284 201.527 141.529 199.255 143.8 197.308C144.936 196.334 145.748 195.469 146.234 194.766C145.531 193.684 144.828 192.494 144.287 191.25C144.017 191.467 143.746 191.683 143.476 191.899C141.042 193.684 137.689 195.739 133.957 197.578Z" fill="#B68075"/>
<path d="M169.221 219.05C168.95 221.809 168.464 224.297 167.869 226.514C170.465 226.136 172.736 224.838 174.413 222.999C174.413 221.43 174.359 219.754 174.197 217.969C173.818 213.804 173.007 209.964 171.871 207.097C171.655 206.503 171.384 205.962 171.114 205.475C170.14 204.988 169.113 204.664 168.031 204.447C168.464 205.259 168.842 206.448 169.059 207.909C169.599 210.883 169.653 214.886 169.221 219.05Z" fill="#B68075"/>
<path d="M140.177 207.584C137.473 209.91 134.822 211.749 132.443 213.047C132.929 213.534 133.362 213.966 133.849 214.453C135.417 215.913 137.094 217.266 138.825 218.455C140.988 216.779 143.422 214.345 145.802 211.424C148.398 208.179 150.507 204.826 151.697 202.013C151.913 201.473 152.076 200.986 152.238 200.499C150.994 199.688 149.804 198.768 148.722 197.687C148.452 198.227 148.127 198.768 147.749 199.363C146.018 201.959 143.314 204.88 140.177 207.584Z" fill="#B68075"/>
<path d="M143.963 197.47C141.691 199.471 138.446 201.689 134.822 203.798C132.497 205.15 130.009 206.394 127.791 207.314C129.143 209.315 130.658 211.154 132.28 212.885C134.66 211.641 137.31 209.748 140.015 207.422C143.152 204.718 145.856 201.797 147.533 199.255C147.911 198.66 148.236 198.065 148.506 197.524C147.749 196.767 147.046 195.902 146.343 194.928C145.748 195.794 144.828 196.713 143.963 197.47Z" fill="#B68075"/>
<path d="M174.413 217.915C174.575 219.591 174.629 221.16 174.629 222.674C176.306 220.673 177.334 218.131 177.28 215.318C177.226 211.154 174.9 207.53 171.492 205.637C171.709 206.07 171.871 206.503 172.087 206.989C173.223 209.856 174.034 213.75 174.413 217.915Z" fill="#B68075"/>
<path d="M130.171 177.08C126.169 177.783 122.491 178.757 119.732 179.838C119.732 179.946 119.732 180.055 119.732 180.109C119.732 182.651 119.949 185.085 120.273 187.464C120.327 187.41 120.436 187.41 120.49 187.356C123.248 186.274 126.98 185.031 130.982 183.895C134.39 182.921 138.825 181.731 142.07 181.136C142.07 180.704 142.016 180.271 142.016 179.838C142.016 178.54 142.07 177.296 142.232 176.052C139.474 175.944 135.255 176.16 130.171 177.08Z" fill="#B68075"/>
<path d="M204.755 72.2618C203.944 70.0443 202.916 67.8809 201.78 65.8256C198.968 66.2042 195.56 67.2318 192.207 68.8544C187.61 71.0719 183.932 73.8844 182.093 76.3723C182.634 77.3459 183.175 78.3735 183.607 79.5093C185.933 77.3459 189.881 75.2365 194.641 73.8303C198.211 72.6945 201.78 72.1536 204.755 72.2618Z" fill="#B68075"/>
<path d="M120.327 187.789C120.652 190.115 121.193 192.386 121.842 194.604C124.438 193.846 127.953 192.711 132.01 191.196C136.553 189.52 140.339 188.005 142.881 186.869C142.503 185.193 142.232 183.408 142.124 181.461C139.474 181.948 135.688 182.867 131.09 184.219C126.493 185.517 122.815 186.815 120.327 187.789Z" fill="#B68075"/>
<path d="M120.436 171.022C119.949 173.835 119.732 176.701 119.732 179.622C122.491 178.54 126.169 177.567 130.171 176.864C134.606 176.052 139.203 175.674 142.34 175.89C142.502 174.538 142.773 173.186 143.152 171.942C140.339 170.373 135.525 169.4 130.009 169.508C126.439 169.562 123.14 170.103 120.436 171.022Z" fill="#B68075"/>
<path d="M145.964 143.168C142.935 141.762 139.906 140.788 137.256 140.356C135.958 141.6 134.714 142.952 133.524 144.304C132.875 145.061 132.226 145.872 131.577 146.63C134.227 146.792 137.202 147.441 140.177 148.414C146.288 150.47 151.048 153.661 152.671 156.527C154.077 155.121 155.591 153.769 157.214 152.363C156.078 149.55 151.751 145.872 145.964 143.168Z" fill="#B68075"/>
<path d="M185.555 89.1366C185.555 89.4611 185.555 89.7856 185.555 90.1101C185.555 91.2459 185.555 92.3276 185.5 93.3553C185.879 93.2471 186.258 93.1389 186.69 93.0848C189.719 92.4899 193.667 92.544 197.724 93.2471C201.672 93.8961 205.188 95.1401 207.73 96.5463C207.946 94.437 208 92.2195 208 89.9479C208 89.7856 208 89.5693 208 89.407C205.242 88.2171 201.185 87.514 196.696 87.4599C192.261 87.3518 188.313 88.0008 185.555 89.1366Z" fill="#B68075"/>
<path d="M161.378 122.237C160.675 122.67 159.972 123.102 159.269 123.589C158.35 124.13 157.484 124.725 156.565 125.32C159.107 126.618 161.973 128.781 164.623 131.486C168.247 135.163 170.735 139.112 171.655 142.195C172.736 141.546 173.764 140.897 174.792 140.248C175.332 139.923 175.873 139.544 176.468 139.22C175.495 136.462 173.548 133.162 170.843 130.025C167.706 126.348 164.245 123.535 161.378 122.237Z" fill="#B68075"/>
<path d="M134.119 92.6522C132.605 92.8144 130.982 92.8685 129.359 92.7603C124.924 92.4358 121.084 91.0837 118.813 89.2448C118.813 89.7315 118.813 90.2724 118.813 90.8132C118.813 92.5981 119.245 94.2747 120.003 95.735C122.166 97.4658 125.736 98.7638 129.792 99.0343C133.037 99.2506 136.12 98.8179 138.554 97.7903C140.177 95.8432 141.15 93.3012 141.096 90.5428C141.096 90.4346 141.096 90.2724 141.096 90.1642C140.501 90.651 139.744 91.0837 138.824 91.4623C137.472 92.0031 135.85 92.4358 134.119 92.6522Z" fill="#B68075"/>
<path d="M193.072 111.528C188.746 108.824 184.202 107.201 181.011 107.039C180.254 108.067 179.443 109.04 178.523 109.96C181.769 110.122 186.69 112.88 191.179 117.207C193.343 119.262 195.128 121.48 196.426 123.535C196.696 123.211 197.021 122.886 197.291 122.562C198.535 121.047 199.671 119.479 200.699 117.856C198.914 115.747 196.264 113.529 193.072 111.528Z" fill="#B68075"/>
<path d="M195.615 80.9696C191.342 81.6727 187.61 82.9708 185.014 84.4852C185.284 85.8914 185.447 87.3517 185.501 88.9202C188.313 87.8385 192.261 87.1354 196.588 87.1354C201.023 87.1354 205.026 87.8926 207.892 89.0825C207.838 86.3782 207.568 83.6739 207.081 81.0778C206.919 81.0237 206.702 80.9696 206.486 80.9696C203.511 80.3206 199.671 80.3206 195.615 80.9696Z" fill="#B68075"/>
<path d="M195.344 106.39C190.909 104.335 186.366 103.253 183.175 103.415C182.634 104.605 181.931 105.741 181.174 106.823C184.419 106.985 188.8 108.661 193.181 111.366C196.318 113.313 198.968 115.584 200.807 117.694C201.942 115.855 202.97 113.962 203.835 111.961C201.834 109.96 198.86 108.012 195.344 106.39Z" fill="#B68075"/>
<path d="M129.792 99.2506C125.898 98.9802 122.491 97.8444 120.273 96.2218C122.22 99.6292 125.898 101.901 130.117 101.847C133.362 101.793 136.228 100.386 138.284 98.223C137.094 98.6557 135.688 98.9802 134.281 99.1965C132.767 99.3047 131.307 99.3588 129.792 99.2506Z" fill="#B68075"/>
<path d="M196.967 100.278C192.477 98.6557 188.042 97.9525 184.905 98.2771C184.527 100.062 183.986 101.63 183.337 103.145C186.528 103.037 190.963 104.118 195.452 106.174C198.914 107.796 201.888 109.743 203.998 111.69C204.863 109.635 205.62 107.472 206.215 105.2C203.944 103.415 200.698 101.63 196.967 100.278Z" fill="#B68075"/>
<path d="M139.69 65.9879C142.665 68.5299 146.018 70.2606 148.831 70.8015C149.534 70.2065 150.291 69.6657 151.102 69.1789C148.236 68.1513 145.099 65.6093 142.557 62.1478C139.582 58.1995 138.067 53.9268 138.284 50.8439C136.445 52.0338 134.714 53.44 133.037 54.9003C132.983 57.9832 135.471 62.3641 139.69 65.9879Z" fill="#B68075"/>
<path d="M186.907 49.9785C180.146 45.6517 172.304 43.2719 164.515 43.326H164.461H164.407H164.353H164.299C154.726 43.3801 145.802 45.9221 138.5 50.6816C138.23 53.7104 139.744 57.9832 142.773 61.9855C145.369 65.447 148.56 68.0431 151.427 68.9626C155.104 66.7992 159.648 65.6093 164.515 65.6093H164.569H164.623C167.76 65.5552 171.438 66.5828 174.792 68.6922C175.387 65.5011 177.063 61.661 179.659 57.875C181.823 54.5758 184.473 51.8174 186.907 49.9785Z" fill="#CE8F83"/>
<path d="M186.745 93.2471C186.312 93.3553 185.879 93.4093 185.501 93.5175C185.392 95.1401 185.23 96.6004 184.96 97.9525C188.097 97.628 192.532 98.3311 197.075 99.9537C200.807 101.306 204.052 103.091 206.269 104.93C206.919 102.279 207.405 99.521 207.676 96.6545C205.134 95.2483 201.618 94.0584 197.67 93.3553C193.613 92.7062 189.773 92.6521 186.745 93.2471Z" fill="#B68075"/>
<path d="M178.307 110.23C177.55 110.987 176.739 111.69 175.927 112.393C178.848 113.691 182.472 116.72 185.554 120.56C187.934 123.535 189.665 126.564 190.693 129.214C192.694 127.537 194.587 125.698 196.318 123.751C195.019 121.696 193.235 119.533 191.071 117.423C186.528 113.097 181.444 110.23 178.307 110.23Z" fill="#B68075"/>
<path d="M139.528 66.1501C135.363 62.5805 132.875 58.3077 132.767 55.1166C132.334 55.5493 131.902 55.9279 131.469 56.3606C130.009 57.8209 128.44 59.6058 126.98 61.7692C128.332 64.3112 131.523 67.34 135.742 69.7198C139.582 71.8832 143.53 73.1272 146.451 73.1272C146.775 72.8027 147.046 72.4241 147.37 72.0995C147.749 71.7209 148.182 71.3423 148.56 70.9637C145.748 70.4229 142.448 68.6921 139.528 66.1501Z" fill="#B68075"/>
<path d="M166.895 118.776C165.651 119.587 164.299 120.452 162.893 121.318C162.46 121.588 162.027 121.858 161.595 122.129C164.461 123.481 167.923 126.293 170.952 129.863C173.602 133.054 175.549 136.299 176.576 139.112C177.929 138.3 179.227 137.435 180.525 136.624C179.713 133.974 178.253 130.945 176.198 127.862C173.277 123.535 169.762 120.182 166.895 118.776Z" fill="#B68075"/>
<path d="M123.626 67.5564C124.925 70.2066 129.36 73.0731 135.039 74.6416C138.446 75.6151 141.853 75.9937 144.612 75.6692C145.098 74.8579 145.639 74.0467 146.288 73.3435C143.314 73.2895 139.474 72.0455 135.688 69.8821C131.523 67.5023 128.332 64.5276 126.926 61.9315" fill="#B68075"/>
<path d="M179.821 58.0373C177.279 61.8233 175.603 65.7175 175.008 68.8545C175.765 69.3412 176.522 69.8821 177.225 70.477C178.361 67.9891 180.146 65.1766 182.472 62.5264C185.825 58.5782 189.773 55.6035 192.856 54.5217C191.071 52.8992 189.178 51.4389 187.177 50.1408C184.689 51.9256 182.039 54.7381 179.821 58.0373Z" fill="#B68075"/>
<path d="M171.979 115.368C170.519 116.396 168.896 117.477 167.166 118.613C170.032 120.074 173.548 123.481 176.414 127.7C178.469 130.728 179.93 133.811 180.741 136.462C182.418 135.38 184.04 134.298 185.609 133.108C184.797 130.242 183.013 126.726 180.417 123.319C177.766 119.803 174.629 116.937 171.979 115.368Z" fill="#B68075"/>
<path d="M123.464 67.7727C120.868 73.2354 118.921 80.2124 118.759 88.9202C120.976 90.8132 124.87 92.2194 129.305 92.4899C132.821 92.7062 136.174 92.2735 138.716 91.1918C139.636 90.8132 140.447 90.3264 141.096 89.8397C141.15 84.3229 142.232 79.6716 144.395 75.9396C141.637 76.2101 138.284 75.8315 134.93 74.8579C129.305 73.2894 124.925 70.4229 123.464 67.7727Z" fill="#B68075"/>
<path d="M175.657 112.556C174.575 113.421 173.439 114.34 172.141 115.206C174.846 116.774 177.929 119.641 180.579 123.156C183.175 126.564 184.96 130.079 185.771 132.946C187.339 131.81 188.908 130.62 190.422 129.322C189.449 126.672 187.664 123.643 185.284 120.669C182.201 116.828 178.578 113.8 175.657 112.556Z" fill="#B68075"/>
<path d="M194.695 73.9926C189.935 75.3988 185.987 77.5622 183.716 79.6716C184.256 81.0778 184.689 82.5922 185.014 84.2148C187.61 82.7004 191.342 81.4023 195.614 80.6992C199.671 80.0502 203.565 80.0502 206.648 80.6451C206.81 80.6992 206.972 80.6992 207.135 80.7533C206.594 77.8868 205.837 75.1284 204.863 72.4782C201.888 72.37 198.319 72.9109 194.695 73.9926Z" fill="#B68075"/>
<path d="M152.076 138.138C149.426 136.407 146.667 135.055 144.179 134.244C144.125 134.298 144.017 134.352 143.963 134.406C146.451 135.218 149.263 136.57 151.968 138.355C157.214 141.762 160.946 145.927 161.811 148.901C161.865 148.847 161.919 148.793 161.973 148.739C161 145.656 157.268 141.546 152.076 138.138Z" fill="#4C160D"/>
<path d="M146.072 142.952C143.097 141.546 140.123 140.626 137.472 140.139C137.418 140.193 137.31 140.302 137.256 140.356C139.906 140.788 142.935 141.762 145.964 143.168C151.751 145.872 156.132 149.55 157.268 152.417C157.322 152.363 157.376 152.309 157.43 152.255C156.186 149.334 151.859 145.656 146.072 142.952Z" fill="#4C160D"/>
<path d="M131.902 163.396C128.386 163.018 124.979 163.018 122.328 163.396C122.274 163.504 122.274 163.558 122.22 163.667C124.87 163.288 128.278 163.288 131.847 163.667C137.851 164.316 142.935 165.938 144.666 167.615C144.72 167.561 144.72 167.453 144.774 167.399C142.989 165.614 138.013 164.045 131.902 163.396Z" fill="#4C160D"/>
<path d="M150.129 129.647C150.02 129.701 149.966 129.755 149.858 129.809C152.562 130.891 155.699 132.784 158.62 135.272C162.622 138.679 165.543 142.465 166.625 145.386C166.679 145.332 166.733 145.277 166.787 145.277C165.651 142.303 162.785 138.517 158.782 135.109C155.862 132.676 152.833 130.728 150.129 129.647Z" fill="#4C160D"/>
<path d="M156.511 125.32C156.402 125.374 156.348 125.428 156.24 125.482C158.836 126.78 161.703 128.944 164.407 131.648C168.031 135.326 170.573 139.274 171.438 142.303C171.492 142.249 171.546 142.249 171.655 142.195C170.735 139.112 168.247 135.163 164.624 131.486C161.919 128.781 159.053 126.672 156.511 125.32Z" fill="#4C160D"/>
<path d="M161.595 122.075C161.486 122.129 161.432 122.183 161.324 122.237C164.191 123.535 167.706 126.347 170.735 129.971C173.385 133.162 175.386 136.407 176.36 139.166C176.414 139.112 176.468 139.112 176.576 139.058C175.549 136.245 173.602 133 170.951 129.809C167.923 126.239 164.515 123.427 161.595 122.075Z" fill="#4C160D"/>
<path d="M167.166 118.613C167.111 118.667 167.003 118.721 166.949 118.776C169.816 120.182 173.331 123.589 176.252 127.862C178.307 130.891 179.822 133.974 180.579 136.624C180.633 136.57 180.687 136.516 180.795 136.516C179.984 133.865 178.524 130.783 176.468 127.754C173.548 123.481 170.032 120.074 167.166 118.613Z" fill="#4C160D"/>
<path d="M172.196 115.206C172.142 115.26 172.033 115.314 171.979 115.368C174.684 116.883 177.766 119.749 180.417 123.319C183.013 126.726 184.798 130.242 185.609 133.108C185.663 133.054 185.717 133 185.825 132.946C185.014 130.079 183.175 126.564 180.633 123.156C177.983 119.641 174.9 116.774 172.196 115.206Z" fill="#4C160D"/>
<path d="M175.873 112.393C175.819 112.448 175.711 112.502 175.657 112.556C178.578 113.8 182.201 116.828 185.284 120.723C187.664 123.697 189.449 126.726 190.422 129.376C190.476 129.322 190.531 129.268 190.585 129.214C189.557 126.564 187.826 123.535 185.446 120.56C182.418 116.72 178.848 113.691 175.873 112.393Z" fill="#4C160D"/>
<path d="M178.523 109.96C178.469 110.014 178.361 110.122 178.307 110.176C181.444 110.176 186.528 113.042 191.017 117.369C193.181 119.479 194.966 121.642 196.264 123.697C196.318 123.643 196.372 123.589 196.426 123.535C195.128 121.48 193.343 119.316 191.18 117.207C186.69 112.934 181.769 110.122 178.523 109.96Z" fill="#4C160D"/>
<path d="M193.235 111.312C188.854 108.607 184.473 106.985 181.228 106.768C181.174 106.877 181.12 106.931 181.065 106.985C184.256 107.147 188.8 108.77 193.127 111.474C196.318 113.421 198.914 115.693 200.753 117.802C200.807 117.748 200.861 117.694 200.861 117.586C199.022 115.53 196.372 113.313 193.235 111.312Z" fill="#4C160D"/>
<path d="M195.452 106.174C190.963 104.118 186.528 103.037 183.337 103.145C183.283 103.253 183.283 103.307 183.229 103.415C186.42 103.253 190.909 104.335 195.398 106.39C198.914 108.012 201.889 109.96 203.944 111.907C203.998 111.853 203.998 111.744 204.052 111.69C201.889 109.743 198.914 107.796 195.452 106.174Z" fill="#4C160D"/>
<path d="M197.021 100.008C192.478 98.3852 188.097 97.6821 184.906 98.0066C184.906 98.1148 184.852 98.1689 184.852 98.277C187.989 97.9525 192.424 98.6556 196.913 100.278C200.699 101.63 203.89 103.415 206.161 105.254C206.161 105.2 206.215 105.092 206.215 105.038C203.998 103.145 200.753 101.36 197.021 100.008Z" fill="#4C160D"/>
<path d="M186.69 93.0307C186.258 93.1389 185.879 93.193 185.5 93.3012C185.5 93.4093 185.5 93.4634 185.5 93.5716C185.879 93.4634 186.312 93.3552 186.744 93.3012C189.773 92.7062 193.667 92.7603 197.67 93.4634C201.618 94.1665 205.134 95.3564 207.676 96.7626C207.676 96.6545 207.676 96.6004 207.676 96.4922C205.134 95.086 201.618 93.8961 197.67 93.193C193.613 92.4899 189.719 92.4358 186.69 93.0307Z" fill="#4C160D"/>
<path d="M185.555 88.8661C185.555 88.9202 185.555 89.0284 185.555 89.0825C188.313 88.0008 192.261 87.2976 196.642 87.2976C201.131 87.2976 205.134 88.0548 207.946 89.2447C207.946 89.1906 207.946 89.0825 207.946 89.0284C205.134 87.8385 201.131 87.0813 196.642 87.0813C192.315 87.0813 188.367 87.7844 185.555 88.8661Z" fill="#4C160D"/>
<path d="M195.615 80.6992C191.342 81.4023 187.61 82.7004 185.014 84.2148C185.014 84.2689 185.068 84.377 185.068 84.4311C187.61 82.9167 191.396 81.6187 195.669 80.9156C199.671 80.2665 203.565 80.2665 206.594 80.8615C206.81 80.9156 206.973 80.9696 207.189 80.9696C207.189 80.8615 207.135 80.8074 207.135 80.6992C206.973 80.6451 206.81 80.6451 206.648 80.591C203.565 80.0502 199.617 80.0502 195.615 80.6992Z" fill="#4C160D"/>
<path d="M194.587 73.7762C189.827 75.1824 185.879 77.3459 183.553 79.4552C183.608 79.5093 183.608 79.6175 183.662 79.6716C185.933 77.5622 189.881 75.3988 194.641 73.9926C198.265 72.9108 201.834 72.37 204.809 72.4782C204.755 72.37 204.755 72.3159 204.701 72.2077C201.78 72.1536 198.211 72.6945 194.587 73.7762Z" fill="#4C160D"/>
<path d="M192.207 68.8544C195.561 67.2318 198.968 66.2042 201.78 65.8256C201.726 65.7174 201.672 65.6633 201.618 65.5552C198.806 65.9338 195.452 66.9614 192.045 68.584C187.502 70.7474 183.824 73.5599 181.931 76.1019C181.985 76.156 182.039 76.2641 182.039 76.3182C183.932 73.8303 187.61 71.0178 192.207 68.8544Z" fill="#4C160D"/>
<path d="M187.718 65.0684C191.071 62.4182 194.695 60.4711 197.616 59.6057C197.562 59.5517 197.508 59.4435 197.454 59.3894C194.533 60.2548 190.963 62.2019 187.556 64.8521C184.094 67.5563 181.39 70.5851 179.876 73.2353C179.93 73.2894 179.984 73.3435 180.038 73.3976C181.552 70.8015 184.257 67.7727 187.718 65.0684Z" fill="#4C160D"/>
<path d="M182.634 62.6887C186.096 58.7404 190.044 55.7116 193.073 54.7381C193.018 54.684 192.91 54.6299 192.856 54.5758C189.773 55.6575 185.825 58.6322 182.418 62.5805C180.092 65.2848 178.307 68.0431 177.171 70.5311C177.225 70.5852 177.28 70.6393 177.334 70.6933C178.469 68.2054 180.254 65.3929 182.634 62.6887Z" fill="#4C160D"/>
<path d="M139.69 65.9879C135.471 62.4182 132.983 58.0373 132.983 54.9003C132.929 54.9544 132.821 55.0626 132.767 55.1167C132.875 58.3077 135.363 62.5805 139.528 66.1502C142.502 68.6922 145.747 70.4229 148.56 70.9638C148.668 70.9097 148.722 70.8015 148.83 70.7474C145.964 70.2607 142.665 68.5299 139.69 65.9879Z" fill="#4C160D"/>
<path d="M142.719 61.9855C139.744 57.9832 138.23 53.7104 138.446 50.6816C138.392 50.7357 138.284 50.7898 138.23 50.8439C138.068 53.9268 139.582 58.1995 142.503 62.1478C145.099 65.6093 148.236 68.1513 151.048 69.1789C151.156 69.1249 151.21 69.0708 151.319 69.0167C148.506 68.0431 145.315 65.5011 142.719 61.9855Z" fill="#4C160D"/>
<path d="M126.817 61.9856C126.871 61.9315 126.926 61.8233 126.98 61.7692Z" fill="#4C160D"/>
<path d="M126.98 61.7692C126.926 61.8233 126.871 61.9315 126.817 61.9856C128.224 64.5817 131.415 67.5564 135.579 69.9362C139.365 72.0996 143.259 73.2895 146.18 73.3976C146.234 73.3436 146.288 73.2354 146.396 73.1813C143.476 73.1813 139.528 71.9373 135.687 69.7739C131.523 67.34 128.332 64.3113 126.98 61.7692Z" fill="#B68075"/>
<path d="M123.464 67.7727C123.518 67.6645 123.573 67.6104 123.573 67.5023Z" fill="#4C160D"/>
<path d="M123.626 67.5564C123.572 67.6646 123.518 67.7187 123.518 67.8268C124.925 70.477 129.36 73.3436 134.984 74.9121C138.392 75.8856 141.691 76.2642 144.449 75.9938C144.504 75.8856 144.558 75.8315 144.612 75.7233C141.853 75.9938 138.5 75.6693 135.039 74.6957C129.305 73.0191 124.87 70.1525 123.626 67.5564Z" fill="#B68075"/>
<path d="M129.359 92.4899C124.87 92.1654 121.03 90.7591 118.813 88.9202C118.813 89.0284 118.813 89.1366 118.813 89.1907C121.138 91.0296 124.979 92.4358 129.359 92.7062C130.982 92.8144 132.605 92.7603 134.119 92.5981C135.85 92.3817 137.472 91.949 138.879 91.4082C139.744 91.0296 140.501 90.5969 141.15 90.1101C141.15 90.0019 141.15 89.8938 141.15 89.7856C140.501 90.2724 139.744 90.7591 138.77 91.1377C136.228 92.2735 132.875 92.7603 129.359 92.4899Z" fill="#4C160D"/>
<path d="M129.792 98.9801C125.736 98.7097 122.166 97.4117 120.003 95.6809C120.111 95.8432 120.165 96.0054 120.273 96.1677C122.491 97.7903 125.952 98.9261 129.792 99.1965C131.307 99.3047 132.821 99.2506 134.173 99.0883C135.634 98.9261 136.986 98.6015 138.176 98.1148C138.284 98.0066 138.392 97.8443 138.5 97.7362C136.12 98.7638 133.038 99.1965 129.792 98.9801Z" fill="#4C160D"/>
<path d="M179.822 58.0373C182.093 54.684 184.689 51.9256 187.177 50.0867C187.123 50.0326 187.015 49.9785 186.961 49.9244C184.473 51.7634 181.877 54.5217 179.605 57.875C177.063 61.661 175.387 65.5011 174.738 68.6922C174.792 68.7463 174.9 68.8003 174.954 68.8003C175.549 65.7175 177.225 61.8774 179.822 58.0373Z" fill="#4C160D"/>
<path d="M140.177 148.414C137.202 147.441 134.227 146.792 131.577 146.63C131.523 146.684 131.469 146.792 131.415 146.846C134.065 147.008 137.094 147.603 140.123 148.631C146.234 150.686 150.994 153.877 152.562 156.635C152.616 156.581 152.67 156.527 152.725 156.473C151.102 153.661 146.288 150.47 140.177 148.414Z" fill="#4C160D"/>
<path d="M136.986 156.203C133.091 155.121 129.305 154.58 126.223 154.634C126.168 154.742 126.114 154.797 126.06 154.905C129.143 154.797 132.929 155.337 136.877 156.419C141.745 157.771 145.802 159.718 148.235 161.665C148.29 161.611 148.344 161.557 148.344 161.503C145.91 159.556 141.799 157.555 136.986 156.203Z" fill="#4C160D"/>
<path d="M120.49 170.752C120.49 170.86 120.436 170.914 120.436 171.022C123.14 170.103 126.439 169.562 130.009 169.508C135.471 169.346 140.339 170.319 143.152 171.942C143.152 171.888 143.206 171.779 143.206 171.725C140.339 170.103 135.471 169.129 130.009 169.292C126.493 169.346 123.194 169.832 120.49 170.752Z" fill="#4C160D"/>
<path d="M130.117 176.864C126.169 177.567 122.491 178.54 119.678 179.622C119.678 179.73 119.678 179.784 119.678 179.892C122.437 178.811 126.169 177.837 130.117 177.134C135.201 176.214 139.42 175.944 142.232 176.16C142.232 176.052 142.232 175.998 142.286 175.89C139.149 175.674 134.552 176.052 130.117 176.864Z" fill="#4C160D"/>
<path d="M121.788 194.55C121.788 194.604 121.842 194.712 121.842 194.766C124.654 193.955 128.224 192.765 132.01 191.359C135.958 189.952 139.582 188.492 142.286 187.302C142.502 187.194 142.665 187.14 142.827 187.032C142.827 186.978 142.773 186.869 142.773 186.815C140.231 187.951 136.445 189.466 131.902 191.142C127.899 192.657 124.384 193.792 121.788 194.55Z" fill="#4C160D"/>
<path d="M120.49 187.41C120.435 187.464 120.327 187.464 120.273 187.518C120.273 187.627 120.273 187.681 120.327 187.789C122.815 186.815 126.493 185.571 131.09 184.219C135.688 182.867 139.474 181.948 142.124 181.461C142.124 181.353 142.124 181.299 142.124 181.19C138.879 181.839 134.498 182.975 131.036 183.949C126.98 185.139 123.248 186.383 120.49 187.41Z" fill="#4C160D"/>
<path d="M133.849 197.362C130.171 199.201 126.872 200.445 124.33 201.202C124.384 201.256 124.384 201.364 124.438 201.418C127.25 200.607 130.712 199.201 133.957 197.578C137.689 195.739 141.096 193.684 143.476 191.845C143.747 191.629 144.017 191.413 144.287 191.196C144.233 191.142 144.233 191.034 144.179 190.98C143.909 191.196 143.638 191.413 143.314 191.683C140.934 193.468 137.581 195.523 133.849 197.362Z" fill="#4C160D"/>
<path d="M143.8 197.254C141.529 199.255 138.284 201.473 134.66 203.528C132.064 204.988 129.684 206.178 127.629 207.043C127.683 207.098 127.737 207.152 127.737 207.26C129.954 206.286 132.442 205.096 134.768 203.744C138.392 201.689 141.637 199.417 143.908 197.416C144.774 196.659 145.747 195.74 146.288 194.874C146.234 194.82 146.18 194.712 146.126 194.658C145.693 195.415 144.882 196.28 143.8 197.254Z" fill="#4C160D"/>
<path d="M140.014 207.422C137.31 209.748 134.606 211.587 132.28 212.885C132.334 212.939 132.388 212.993 132.442 213.047C134.768 211.803 137.472 209.91 140.177 207.584C143.368 204.88 146.018 201.959 147.749 199.363C148.127 198.768 148.452 198.227 148.722 197.687C148.668 197.632 148.614 197.578 148.56 197.524C148.289 198.065 147.965 198.606 147.586 199.255C145.801 201.797 143.151 204.718 140.014 207.422Z" fill="#4C160D"/>
<path d="M145.802 211.424C143.476 214.345 141.042 216.779 138.825 218.455C138.879 218.51 138.987 218.564 139.041 218.618C141.204 216.941 143.638 214.507 145.964 211.587C148.614 208.341 150.669 204.934 151.859 202.122C152.076 201.581 152.238 201.148 152.4 200.661C152.346 200.607 152.238 200.553 152.184 200.553C152.022 201.04 151.859 201.527 151.643 202.067C150.453 204.88 148.398 208.179 145.802 211.424Z" fill="#4C160D"/>
<path d="M151.372 214.345C149.587 217.59 147.586 220.403 145.747 222.404C145.801 222.458 145.91 222.458 145.964 222.512C147.803 220.457 149.75 217.698 151.589 214.453C153.644 210.775 155.158 207.152 155.807 204.123C155.915 203.528 156.024 202.987 156.132 202.5C156.078 202.446 155.97 202.446 155.915 202.392C155.861 202.879 155.753 203.474 155.591 204.015C154.888 207.043 153.427 210.667 151.372 214.345Z" fill="#4C160D"/>
<path d="M157.809 215.373C156.619 219.267 155.104 222.674 153.59 225.108C153.698 225.108 153.752 225.162 153.86 225.162C155.375 222.728 156.835 219.321 158.025 215.427C159.269 211.424 159.972 207.53 159.972 204.447C159.972 204.177 159.972 203.906 159.972 203.636C159.864 203.636 159.81 203.582 159.702 203.582C159.702 203.852 159.702 204.123 159.702 204.447C159.702 207.53 159.053 211.424 157.809 215.373Z" fill="#4C160D"/>
<path d="M164.353 208.071C164.299 211.154 163.596 214.994 162.406 218.996C161.595 221.701 160.621 224.189 159.594 226.244C159.702 226.244 159.756 226.244 159.864 226.298C160.892 224.243 161.865 221.809 162.676 219.104C163.92 215.102 164.623 211.208 164.623 208.125C164.623 206.502 164.461 205.204 164.137 204.285C164.029 204.285 163.974 204.285 163.866 204.285C164.191 205.096 164.353 206.394 164.353 208.071Z" fill="#4C160D"/>
<path d="M168.95 218.996C168.68 221.755 168.193 224.297 167.544 226.514C167.652 226.514 167.706 226.514 167.814 226.46C168.409 224.297 168.896 221.755 169.167 218.996C169.599 214.832 169.545 210.883 169.058 207.855C168.788 206.394 168.463 205.259 168.031 204.393C167.923 204.393 167.814 204.339 167.706 204.339C168.193 205.15 168.572 206.34 168.842 207.855C169.329 210.938 169.383 214.886 168.95 218.996Z" fill="#4C160D"/>
<path d="M174.197 217.915C174.359 219.645 174.413 221.322 174.413 222.945C174.521 222.836 174.575 222.782 174.684 222.674C174.684 221.16 174.629 219.591 174.467 217.915C174.089 213.75 173.277 209.856 172.142 206.989C171.925 206.502 171.763 206.016 171.547 205.637C171.438 205.583 171.276 205.529 171.168 205.421C171.438 205.908 171.655 206.448 171.925 207.043C173.007 209.91 173.818 213.804 174.197 217.915Z" fill="#4C160D"/>
<path d="M66.4037 51.6552C64.4566 57.4424 60.9951 61.7692 57.75 63.1214C60.3461 63.7163 62.78 64.6358 64.8893 65.9338C65.5383 66.3124 66.1333 66.7451 66.6741 67.1778C69.9193 67.3942 74.8952 65.5552 79.7088 62.1478C84.0357 59.065 87.3349 55.279 88.4707 52.1961C85.0633 48.5183 81.5477 45.814 78.3567 43.8669C74.8411 41.7035 71.1092 40.0268 67.215 38.8369C68.3508 42.1361 68.0263 46.8957 66.4037 51.6552Z" fill="#CE8F83"/>
<path d="M79.8709 62.3642C75.2736 65.6093 70.5141 67.4482 67.2149 67.4482C67.1608 67.4482 67.1067 67.4482 66.9985 67.4482C71.7581 71.2342 75.1114 77.1296 76.9503 84.972C77.0044 85.1343 77.0044 85.2424 77.0585 85.4047C79.9791 86.8109 84.4682 87.2977 89.3359 86.4323C93.176 85.7833 96.6375 84.3771 99.0714 82.5381C100.586 81.4023 101.613 80.1584 102.1 78.9144C99.2336 66.8533 94.1495 58.3618 88.6869 52.4124C87.497 55.5494 84.1978 59.2813 79.8709 62.3642Z" fill="#CE8F83"/>
<path d="M60.346 50.3031C59.7511 55.7657 57.6958 60.363 55.1538 62.6887C55.8569 62.7969 56.56 62.9051 57.2632 63.0132C60.5083 61.9315 64.132 57.4965 66.1332 51.5471C67.7558 46.7334 68.0803 41.9739 66.9445 38.7287C64.0239 37.8634 61.0491 37.2143 57.9663 36.8898C58.5071 37.647 58.9398 38.5124 59.3725 39.5941C60.4542 42.5688 60.8328 46.3548 60.346 50.3031Z" fill="#CE8F83"/>
<path d="M126.98 201.094C127.304 198.606 127.413 196.064 127.413 193.522C124.925 194.171 121.95 194.496 118.813 194.496C117.731 194.496 116.65 194.442 115.514 194.387C109.781 193.955 104.751 192.549 101.343 190.601C101.506 192.278 101.56 193.901 101.506 195.415C104.642 197.687 109.402 199.634 114.919 200.661C119.3 201.419 123.518 201.581 126.98 201.094Z" fill="#CE8F83"/>
<path d="M127.412 193.252C127.358 190.71 127.196 188.168 126.817 185.625C123.464 186.978 119.137 187.843 114.54 188.059C113.945 188.059 113.296 188.113 112.701 188.113C107.996 188.113 103.777 187.356 100.64 186.166C100.964 187.627 101.181 188.979 101.343 190.331C104.696 192.278 109.78 193.738 115.568 194.171C119.894 194.441 124.059 194.117 127.412 193.252Z" fill="#CE8F83"/>
<path d="M55.1 133.162C57.4797 130.188 60.0218 127.754 62.4015 126.077C61.9148 125.915 61.3739 125.753 60.8871 125.59C59.0482 124.995 57.3716 124.4 55.6949 123.86C53.207 125.753 50.4486 128.673 48.0688 132.189C44.4451 137.489 42.3357 143.114 42.498 146.63C44.4451 147.333 46.4462 148.036 48.5015 148.739C48.4474 148.577 48.4474 148.36 48.3933 148.198C48.0688 144.629 50.7731 138.625 55.1 133.162Z" fill="#CE8F83"/>
<path d="M114.486 187.789C119.137 187.627 123.464 186.707 126.763 185.355C126.493 183.516 126.168 181.677 125.736 179.838C125.627 179.46 125.573 179.081 125.465 178.703C121.95 180.487 116.974 181.623 111.565 181.839C110.97 181.839 110.321 181.894 109.726 181.894C105.616 181.894 101.83 181.299 98.855 180.325C99.5581 182.002 100.153 183.787 100.586 185.68V185.734C104.047 187.194 109.023 188.005 114.486 187.789Z" fill="#CE8F83"/>
<path d="M99.2337 82.7545C96.7458 84.5934 93.2302 85.9996 89.3901 86.7028C87.7675 86.9732 86.145 87.1354 84.6306 87.1354C81.7099 87.1354 79.1138 86.6487 77.1667 85.7292C77.5994 87.2977 78.3566 88.7039 79.2761 89.9479C81.9263 90.7051 85.2796 90.9214 88.9033 90.4347C92.7434 89.9479 96.259 88.7039 98.801 86.9732C101.289 85.2424 102.533 83.2413 102.317 81.3483H102.479C102.425 80.6992 102.371 80.0502 102.208 79.4012C101.668 80.537 100.64 81.6728 99.2337 82.7545Z" fill="#CE8F83"/>
<path d="M71.4878 129.16C69.5407 128.457 67.5936 127.808 65.7006 127.159C64.673 126.834 63.6995 126.51 62.7259 126.185C60.2921 127.862 57.75 130.35 55.3162 133.325C50.9893 138.733 48.3391 144.683 48.7177 148.144C48.7177 148.36 48.7718 148.631 48.8259 148.793C50.178 149.226 51.4761 149.658 52.8282 150.145C53.2068 150.253 53.5313 150.362 53.9099 150.524C54.0181 146.954 57.1551 141.383 61.8605 136.462C65.1057 133.108 68.5131 130.566 71.4878 129.16Z" fill="#CE8F83"/>
<path d="M69.6488 138.95C73.4348 135.867 77.3831 133.703 80.6282 132.73C77.6535 131.486 74.6788 130.35 71.8122 129.268C68.8375 130.674 65.376 133.216 62.1309 136.624C57.4254 141.546 54.2885 147.116 54.2344 150.578C55.3161 150.957 56.3978 151.281 57.4795 151.66C58.2908 151.93 59.1021 152.201 59.9134 152.471C59.9134 152.363 59.9134 152.309 59.9134 152.201C60.2379 148.685 64.1861 143.385 69.6488 138.95Z" fill="#CE8F83"/>
<path d="M106.157 147.928C104.534 146.522 102.749 145.115 100.91 143.817C98.5306 145.494 95.8263 147.603 92.9057 149.983C87.4971 154.364 82.8457 158.637 80.4119 161.395C81.8722 162.206 83.2784 163.072 84.5765 163.991C87.7134 162.044 91.7699 159.286 96.3131 155.932C99.9909 153.066 103.452 150.253 106.157 147.928Z" fill="#CE8F83"/>
<path d="M15.8336 102.442C19.9982 100.44 24.1087 99.2506 27.4079 98.9261C27.1915 98.223 27.0293 97.4658 26.867 96.7086C26.6507 95.735 26.4343 94.7615 26.3262 93.7879C23.081 93.5175 18.8624 93.9502 14.4814 95.1942C8.8565 96.7627 3.98879 99.3047 1.55493 101.901C1.60902 102.117 1.6631 102.388 1.71719 102.604C2.4203 105.687 3.28567 108.607 4.3133 111.366C6.2063 108.337 10.5872 104.93 15.8336 102.442Z" fill="#CE8F83"/>
<path d="M14.3193 94.9778C18.7543 93.7339 22.973 93.3012 26.2181 93.5716C25.9477 91.949 25.8395 90.3265 25.8395 88.8121C22.8107 88.163 18.9706 88.0008 14.806 88.4876C10.3169 88.9743 6.20639 90.1101 3.17759 91.6245C1.93362 92.2736 0.960081 92.9226 0.202881 93.6257C0.419224 96.2759 0.851909 98.9802 1.39277 101.63C3.93479 99.0343 8.74842 96.5463 14.3193 94.9778Z" fill="#CE8F83"/>
<path d="M83.1704 148.198C87.4972 144.683 91.6618 141.816 95.0151 139.923C92.5272 138.409 89.9852 137.057 87.3891 135.813C84.5766 137.543 81.5478 139.707 78.5731 142.303C73.489 146.684 69.3785 151.443 67.2151 155.175C69.2163 155.987 71.1633 156.798 73.0563 157.609C75.5984 154.797 79.1139 151.497 83.1704 148.198Z" fill="#CE8F83"/>
<path d="M111.132 152.687C109.618 151.119 108.05 149.55 106.373 148.09C103.669 150.47 100.261 153.228 96.4211 156.041C92.4188 159.015 88.2001 161.936 84.7927 164.099C86.253 165.073 87.6052 166.101 88.8492 167.182C91.878 165.83 96.0966 163.45 100.91 160.259C104.967 157.609 108.536 154.905 111.132 152.687Z" fill="#CE8F83"/>
<path d="M55.4786 58.3618C54.9378 60.2007 54.1265 61.607 53.0989 62.5264C53.6938 62.5805 54.2887 62.5805 54.8296 62.6887C57.3716 60.4712 59.4269 55.8198 60.0759 50.3031C60.5086 46.4089 60.1841 42.677 59.1024 39.7564C58.6697 38.6206 58.1829 37.7011 57.588 36.9439C55.3705 36.7276 53.1529 36.6194 50.8813 36.6194C53.0989 38.9992 54.9378 43.0015 55.7491 47.707C56.5063 51.547 56.3981 55.333 55.4786 58.3618Z" fill="#CE8F83"/>
<path d="M92.7434 149.767C95.3936 147.603 98.152 145.494 100.694 143.655C100.532 143.547 100.424 143.439 100.261 143.385C98.6388 142.249 96.9621 141.167 95.2314 140.085C91.824 141.978 87.6053 144.899 83.2784 148.415C79.2761 151.66 75.7605 154.959 73.2185 157.771C75.6524 158.853 77.978 160.043 80.1415 161.233C82.6835 158.474 87.2808 154.202 92.7434 149.767Z" fill="#CE8F83"/>
<path d="M109.239 169.129C113.133 167.723 116.649 165.938 119.57 164.045C118.434 162.044 117.19 160.097 115.784 158.258C113.133 160.097 109.618 162.206 105.724 164.208C100.748 166.75 95.4475 168.967 91.8237 169.941C92.5268 170.698 93.23 171.401 93.879 172.212C98.0436 172.266 103.506 171.239 109.239 169.129Z" fill="#CE8F83"/>
<path d="M15.5089 73.3977C19.944 74.2089 24.0545 75.6693 26.9751 77.4541C27.2996 77.6163 27.57 77.8327 27.8405 77.9949C31.0856 69.8821 37.7922 64.8521 43.7958 63.4459H43.8498H43.9039C46.9327 62.6887 49.9615 62.4183 52.8281 62.5264C53.8557 61.6611 54.7211 60.2548 55.316 58.3077C56.1814 55.333 56.2896 51.6011 55.6405 47.707C54.8292 42.9474 52.9362 38.9451 50.7187 36.6194C46.5 36.7276 42.2273 37.2684 37.9545 38.296H37.9004H37.8463H37.7922C37.7382 38.296 37.7382 38.296 37.7382 38.296C25.677 41.1626 14.8599 49.1673 7.99103 60.2007C5.449 64.2572 3.556 68.6381 2.20386 73.2354C5.449 72.4241 10.2626 72.4241 15.5089 73.3977Z" fill="#B68075"/>
<path d="M115.622 158.042C114.27 156.257 112.863 154.526 111.295 152.85C108.753 155.067 105.129 157.771 101.073 160.476C96.9081 163.234 92.419 165.83 89.0657 167.345C89.931 168.102 90.7964 168.913 91.6077 169.724C94.8528 168.913 99.7746 166.966 105.616 163.991C109.456 161.99 112.917 159.935 115.622 158.042Z" fill="#CE8F83"/>
<path d="M15.1846 81.1319C19.3492 81.3483 23.2434 82.1596 26.2722 83.3495C26.5967 81.5646 27.0835 79.8339 27.6784 78.2654C27.408 78.0491 27.0835 77.8868 26.813 77.6705C23.8924 75.8856 19.8901 74.4794 15.455 73.614C10.2087 72.6405 5.34102 72.6946 2.04179 73.5599C1.12234 76.8051 0.527395 80.1584 0.202881 83.6199C3.23168 81.781 8.85659 80.7533 15.1846 81.1319Z" fill="#CE8F83"/>
<path d="M14.806 88.2172C18.9706 87.7845 22.8106 87.9467 25.8394 88.5417C25.8394 86.8109 26.0017 85.1343 26.218 83.5117C23.1892 82.3218 19.2951 81.5105 15.1846 81.2942C8.74836 80.9697 3.12345 81.9973 0.202821 83.8362C-0.0676071 86.9191 -0.0676071 90.0561 0.202821 93.2471C0.905935 92.5981 1.87948 91.9491 3.06936 91.3541C6.09816 89.8397 10.2628 88.7039 14.806 88.2172Z" fill="#CE8F83"/>
<path d="M98.9092 87.0813C96.3672 88.8121 92.7975 90.1101 88.9033 90.5969C87.6053 90.7592 86.3613 90.8673 85.1714 90.8673C83.1162 90.8673 81.1691 90.5969 79.4924 90.1642C82.5212 93.8961 87.4971 95.7891 92.473 94.5992C98.2602 93.2471 102.208 88.2171 102.425 82.5922C102.154 84.1607 100.91 85.7292 98.9092 87.0813Z" fill="#CE8F83"/>
<path d="M97.449 208.45C96.8541 209.315 96.2591 210.126 95.6101 210.884C96.6377 214.832 101.343 219.97 107.996 224.08C110.43 225.595 112.972 226.785 115.351 227.65C116.758 225.973 118.056 224.243 119.3 222.404C115.838 221.647 111.782 219.97 107.888 217.59C103.29 214.886 99.6125 211.533 97.449 208.45Z" fill="#CE8F83"/>
<path d="M36.5484 125.861C38.3333 122.886 40.3885 120.29 42.3897 118.343C40.7671 117.477 39.3068 116.558 38.0087 115.584C35.6831 117.532 33.3033 120.344 31.1399 123.697C27.5161 129.322 25.4609 135.326 26.0017 138.733C28.0029 139.977 30.0582 141.113 32.1134 142.195C32.0593 142.032 31.9512 141.816 31.9512 141.6C31.0317 138.192 32.9247 131.864 36.5484 125.861Z" fill="#CE8F83"/>
<path d="M95.3937 211.1C94.4742 212.127 93.5007 213.047 92.4189 213.912C93.2302 217.861 96.4754 223.107 101.289 227.866C103.777 230.3 106.427 232.356 108.969 233.816C111.187 231.977 113.242 229.976 115.135 227.866C112.755 227.001 110.267 225.757 107.833 224.297C101.181 220.24 96.5295 215.048 95.3937 211.1Z" fill="#CE8F83"/>
<path d="M41.6866 130.296C43.7418 126.51 46.1757 123.319 48.5013 121.155C46.3379 120.29 44.3908 119.425 42.606 118.451C40.6048 120.398 38.6037 122.994 36.7648 125.969C33.1951 131.918 31.3021 138.138 32.1675 141.546C32.2216 141.87 32.3297 142.141 32.4379 142.357C34.1146 143.168 35.8453 143.979 37.6301 144.683C37.3056 141.113 38.82 135.596 41.6866 130.296Z" fill="#CE8F83"/>
<path d="M78.4107 142.141C81.3854 139.599 84.3601 137.381 87.1726 135.704C85.1173 134.677 83.008 133.757 80.9528 132.892C77.7076 133.811 73.7053 136.029 69.8111 139.166C64.4025 143.547 60.5084 148.847 60.1838 152.309C60.1838 152.417 60.1838 152.525 60.1838 152.633C62.5636 153.444 64.8352 154.31 67.0527 155.175C69.1621 151.281 73.3267 146.522 78.4107 142.141Z" fill="#CE8F83"/>
<path d="M92.2026 214.075C90.8504 215.156 89.4442 216.076 87.9839 216.833C88.9033 220.565 91.3372 225.108 94.8528 229.489C97.6652 232.95 100.802 235.763 103.723 237.602C105.454 236.466 107.13 235.276 108.753 233.978C106.211 232.464 103.615 230.463 101.127 228.029C96.3131 223.323 93.122 218.077 92.2026 214.075Z" fill="#CE8F83"/>
<path d="M34.2228 112.231C33.3033 111.204 32.4379 110.068 31.6266 108.878C28.5978 109.851 24.9741 111.853 21.4585 114.557C16.7531 118.235 13.1293 122.562 11.9395 125.861C13.6161 128.132 15.5091 130.242 17.5644 132.243C18.4838 128.835 20.9177 124.563 24.2169 120.56C27.5161 116.666 31.1399 113.746 34.2228 112.231Z" fill="#CE8F83"/>
<path d="M126.926 201.31C125.627 201.473 124.221 201.581 122.761 201.581C120.327 201.581 117.623 201.31 114.918 200.824C109.456 199.796 104.696 197.849 101.505 195.631C101.397 197.524 101.127 199.309 100.748 200.932C103.561 203.366 107.671 205.691 112.539 207.314C117.082 208.882 121.517 209.585 125.195 209.477C125.844 207.26 126.385 204.934 126.763 202.608C126.817 202.176 126.871 201.743 126.926 201.31Z" fill="#CE8F83"/>
<path d="M112.485 207.584C107.617 205.908 103.507 203.636 100.694 201.202C100.424 202.284 100.099 203.257 99.6665 204.231C101.776 206.503 104.588 208.828 107.942 210.829C113.188 214.075 118.651 215.968 122.707 216.022C123.626 213.966 124.438 211.911 125.087 209.748C124.87 209.748 124.654 209.748 124.438 209.748C120.922 209.748 116.703 209.045 112.485 207.584Z" fill="#CE8F83"/>
<path d="M99.6123 204.447C99.0173 205.799 98.3683 207.043 97.6111 208.233C99.7745 211.316 103.398 214.615 107.996 217.428C111.89 219.808 115.946 221.484 119.408 222.242C120.652 220.349 121.733 218.347 122.707 216.292C118.596 216.13 113.134 214.237 107.887 211.046C104.534 209.045 101.722 206.719 99.6123 204.447Z" fill="#CE8F83"/>
<path d="M18.2675 108.986C22.1616 106.66 26.1099 105.146 29.301 104.551C28.5978 102.928 27.9488 101.144 27.408 99.1425C24.1628 99.4129 20.0523 100.603 15.8877 102.658C10.5873 105.2 6.20636 108.662 4.25928 111.636C5.17873 114.178 6.26045 116.558 7.45033 118.776C9.23516 115.639 13.2916 111.907 18.2675 108.986Z" fill="#CE8F83"/>
<path d="M30.8695 123.535C33.0329 120.182 35.4668 117.423 37.7925 115.422C36.5485 114.503 35.4127 113.475 34.3851 112.339C31.3563 113.8 27.7325 116.774 24.4333 120.669C21.08 124.671 18.6461 128.998 17.7808 132.351C19.2952 133.811 20.9177 135.164 22.6485 136.407C23.6761 137.165 24.6496 137.868 25.6773 138.517C25.2446 135.001 27.2458 129.106 30.8695 123.535Z" fill="#CE8F83"/>
<path d="M94.3661 172.429C94.258 172.429 94.1498 172.429 93.9875 172.429C94.8529 173.456 95.6101 174.538 96.3132 175.674C99.8829 176.323 104.426 176.323 109.24 175.457C114.648 174.484 119.462 172.645 122.653 170.427C121.788 168.318 120.76 166.263 119.624 164.262C116.704 166.155 113.188 167.939 109.294 169.4C103.831 171.401 98.5307 172.429 94.3661 172.429Z" fill="#CE8F83"/>
<path d="M94.6904 229.651C91.1748 225.324 88.7409 220.727 87.8215 216.941C87.1724 217.32 86.4693 217.644 85.7662 217.915C85.3876 221.971 87.1724 228.083 90.7962 234.14C92.4728 236.953 94.4199 239.495 96.367 241.496C98.855 240.414 101.235 239.116 103.506 237.71C100.586 235.871 97.4487 233.059 94.6904 229.651Z" fill="#CE8F83"/>
<path d="M74.6787 222.62C71.2173 225.649 69.4865 230.463 70.6223 235.276C71.4336 238.684 73.4889 241.442 76.1931 243.173C75.3278 240.685 74.6787 237.872 74.3542 234.952C73.8134 230.354 73.9756 226.028 74.6787 222.62Z" fill="#CE8F83"/>
<path d="M47.9065 132.027C50.2862 128.511 52.9905 125.644 55.4784 123.751C53.0446 122.886 50.773 122.075 48.7177 121.263C46.3921 123.427 43.9582 126.618 41.9029 130.458C39.0364 135.813 37.522 141.275 37.8465 144.845C39.3068 145.44 40.8212 146.035 42.3356 146.576C42.1734 142.952 44.2827 137.327 47.9065 132.027Z" fill="#CE8F83"/>
<path d="M78.627 220.24C77.2749 220.727 76.0309 221.484 75.0033 222.35C74.2461 225.811 74.0297 230.192 74.6247 234.898C75.0033 237.98 75.7064 240.847 76.5717 243.389C78.1402 244.363 79.9251 244.958 81.8181 245.174C80.4118 242.361 79.276 238.9 78.5729 235.222C77.4371 229.435 77.5453 224.026 78.627 220.24Z" fill="#CE8F83"/>
<path d="M101.938 176.377C99.991 176.377 98.1521 176.215 96.5295 175.944C97.3408 177.242 98.0439 178.648 98.693 180.109C102.1 181.245 106.644 181.84 111.511 181.677C116.92 181.461 121.95 180.271 125.411 178.54C124.708 175.836 123.843 173.24 122.815 170.698C119.57 172.915 114.756 174.808 109.348 175.728C106.752 176.161 104.264 176.377 101.938 176.377Z" fill="#CE8F83"/>
<path d="M85.496 218.023C84.7388 218.347 83.9816 218.618 83.2244 218.888C82.359 222.728 82.6295 228.299 84.1979 234.14C85.2797 238.035 86.74 241.55 88.4707 244.308C91.1209 243.605 93.6629 242.686 96.0968 241.604C94.1497 239.549 92.2026 237.061 90.526 234.249C86.9563 228.245 85.1715 222.133 85.496 218.023Z" fill="#CE8F83"/>
<path d="M21.2962 114.341C24.8118 111.636 28.3815 109.689 31.4643 108.662C30.7071 107.472 30.004 106.174 29.4091 104.767C26.218 105.362 22.3239 106.877 18.3756 109.202C13.3456 112.177 9.28921 115.963 7.61255 119.1C8.85652 121.426 10.2087 123.643 11.7231 125.699C13.0211 122.291 16.6449 117.964 21.2962 114.341Z" fill="#CE8F83"/>
<path d="M83.008 218.942C82.0886 219.213 81.2232 219.483 80.3037 219.699C79.817 219.808 79.3302 219.97 78.8975 220.132C77.8158 223.918 77.6536 229.327 78.7894 235.168C79.4925 238.9 80.6823 242.361 82.0886 245.228C83.4407 245.336 84.7929 245.282 86.1991 244.957C86.9022 244.795 87.6053 244.633 88.2543 244.417C86.5236 241.604 85.0092 238.089 83.9816 234.249C82.4131 228.353 82.1427 222.836 83.008 218.942Z" fill="#CE8F83"/>
<path d="M69.811 139.112C73.7052 135.921 77.7616 133.757 80.9527 132.838C80.8445 132.784 80.7363 132.73 80.6282 132.676C77.383 133.649 73.4348 135.813 69.6488 138.895C64.1861 143.33 60.2919 148.685 59.9133 152.201C59.9133 152.309 59.9133 152.363 59.9133 152.471C59.9674 152.525 60.0756 152.525 60.1297 152.579C60.1297 152.471 60.1297 152.363 60.1297 152.255C60.5083 148.793 64.3484 143.547 69.811 139.112Z" fill="#4C160D"/>
<path d="M71.7581 129.268C71.6499 129.214 71.5417 129.214 71.4876 129.16C68.5129 130.566 65.1055 133.108 61.9145 136.462C57.209 141.383 54.072 146.954 53.9639 150.524C54.072 150.524 54.1261 150.578 54.2343 150.578C54.2884 147.116 57.4254 141.546 62.1308 136.624C65.3219 133.216 68.7834 130.62 71.7581 129.268Z" fill="#4C160D"/>
<path d="M55.3162 133.325C57.696 130.35 60.2921 127.862 62.7259 126.185C62.6178 126.131 62.5637 126.131 62.4555 126.077C60.0757 127.808 57.4796 130.242 55.1539 133.162C50.773 138.625 48.1228 144.683 48.5014 148.144C48.5014 148.36 48.5555 148.523 48.6096 148.685C48.7177 148.739 48.7718 148.739 48.88 148.793C48.8259 148.577 48.7718 148.36 48.7718 148.144C48.3391 144.683 50.9893 138.733 55.3162 133.325Z" fill="#4C160D"/>
<path d="M48.1228 132.189C50.5567 128.619 53.261 125.753 55.7489 123.86C55.6408 123.806 55.5867 123.806 55.4785 123.751C52.9906 125.644 50.2863 128.511 47.9065 132.027C44.3369 137.327 42.1734 142.952 42.3357 146.522C42.4438 146.576 42.4979 146.576 42.6061 146.63C42.3357 143.114 44.4991 137.435 48.1228 132.189Z" fill="#4C160D"/>
<path d="M41.9029 130.404C43.9582 126.564 46.3921 123.373 48.7177 121.209C48.6637 121.155 48.5555 121.155 48.5014 121.101C46.1757 123.265 43.7419 126.456 41.6866 130.242C38.8201 135.542 37.3057 141.059 37.5761 144.629C37.6843 144.683 37.7383 144.683 37.8465 144.737C37.522 141.275 39.0364 135.758 41.9029 130.404Z" fill="#4C160D"/>
<path d="M36.7647 125.969C38.6036 122.994 40.6048 120.398 42.6059 118.451C42.5519 118.397 42.4437 118.397 42.3896 118.343C40.3884 120.29 38.3873 122.886 36.5483 125.861C32.9246 131.864 31.0316 138.192 31.897 141.6C31.9511 141.816 32.0051 142.032 32.0592 142.195C32.1674 142.249 32.2756 142.303 32.3837 142.357C32.2756 142.087 32.1674 141.816 32.1133 141.546C31.302 138.192 33.1409 131.918 36.7647 125.969Z" fill="#4C160D"/>
<path d="M31.0858 123.697C33.2492 120.344 35.6831 117.532 37.9547 115.584C37.9006 115.53 37.8465 115.476 37.7924 115.422C35.4667 117.369 33.0329 120.182 30.8694 123.535C27.2998 129.106 25.2445 135.001 25.6772 138.571C25.7854 138.625 25.8395 138.679 25.9476 138.733C25.4068 135.272 27.408 129.322 31.0858 123.697Z" fill="#4C160D"/>
<path d="M34.385 112.393C34.3309 112.339 34.2768 112.285 34.2227 112.231C31.1398 113.746 27.5702 116.666 24.2709 120.56C20.9176 124.509 18.4838 128.836 17.6184 132.243C17.6725 132.297 17.7266 132.351 17.8348 132.459C18.7001 129.106 21.134 124.779 24.4873 120.777C27.7324 116.828 31.3562 113.854 34.385 112.393Z" fill="#4C160D"/>
<path d="M21.4584 114.557C24.974 111.853 28.5978 109.906 31.6266 108.878C31.5725 108.824 31.5184 108.77 31.5184 108.662C28.4355 109.689 24.8658 111.636 21.3503 114.341C16.6448 117.964 13.0752 122.237 11.7771 125.644C11.8312 125.699 11.8853 125.807 11.9394 125.861C13.1292 122.507 16.753 118.181 21.4584 114.557Z" fill="#4C160D"/>
<path d="M18.4298 109.202C22.3781 106.877 26.2722 105.362 29.4633 104.767C29.4092 104.713 29.4092 104.605 29.3551 104.551C26.1641 105.146 22.2158 106.66 18.3216 108.986C13.3458 111.961 9.28934 115.693 7.55859 118.83C7.61268 118.938 7.66677 118.992 7.72085 119.1C9.28934 115.909 13.3458 112.177 18.4298 109.202Z" fill="#4C160D"/>
<path d="M15.9417 102.658C20.1063 100.657 24.2168 99.467 27.4619 99.1425C27.4619 99.0884 27.4078 98.9802 27.4078 98.9261C24.1086 99.1966 20.0522 100.386 15.8335 102.442C10.5872 104.984 6.20625 108.391 4.20508 111.366C4.25916 111.474 4.25916 111.582 4.31325 111.636C6.26033 108.662 10.6413 105.2 15.9417 102.658Z" fill="#4C160D"/>
<path d="M14.3733 95.1942C18.8083 93.9502 23.027 93.5176 26.218 93.788C26.218 93.7339 26.218 93.6257 26.164 93.5716C22.9188 93.3012 18.7001 93.7339 14.2651 94.9779C8.69428 96.5464 3.88065 99.0884 1.33862 101.63C1.33862 101.739 1.39271 101.847 1.39271 101.901C3.93474 99.3588 8.80245 96.7627 14.3733 95.1942Z" fill="#4C160D"/>
<path d="M14.806 88.4876C18.9706 88.0549 22.8107 88.2172 25.8395 88.8121C25.8395 88.758 25.8395 88.6498 25.8395 88.5958C22.8107 87.9467 18.9165 87.7845 14.806 88.2713C10.3169 88.758 6.15231 89.8938 3.06942 91.4623C1.87954 92.0573 0.905995 92.7063 0.202881 93.3553C0.202881 93.4635 0.202881 93.5716 0.202881 93.6798C0.905995 92.9767 1.93362 92.3277 3.17759 91.6786C6.20639 90.0561 10.3169 88.9744 14.806 88.4876Z" fill="#4C160D"/>
<path d="M15.1846 81.3482C19.3492 81.5646 23.2434 82.3759 26.2181 83.5658C26.2181 83.4576 26.2722 83.4035 26.2722 83.2953C23.2434 82.1054 19.3492 81.2942 15.1846 81.0778C8.85659 80.7533 3.23168 81.7809 0.202881 83.6198C0.202881 83.728 0.202881 83.7821 0.202881 83.8903C3.12351 82.0514 8.74842 81.0237 15.1846 81.3482Z" fill="#4C160D"/>
<path d="M15.455 73.614C19.89 74.4253 23.8924 75.8856 26.813 77.6704C27.1375 77.8868 27.4079 78.049 27.6784 78.2654C27.7325 78.2113 27.7325 78.1031 27.7865 78.049C27.5161 77.8868 27.2457 77.6704 26.9212 77.5082C24.0005 75.7233 19.9441 74.263 15.455 73.4517C10.2628 72.4782 5.44915 72.5323 2.09583 73.3977C2.09583 73.5058 2.04175 73.5599 2.04175 73.6681C5.34098 72.6945 10.2087 72.6405 15.455 73.614Z" fill="#4C160D"/>
<path d="M66.1873 51.6011C64.1321 57.4965 60.5624 61.9315 57.2632 63.0132C57.4254 63.0673 57.5336 63.0673 57.6959 63.1214C60.941 61.8233 64.4025 57.4424 66.3496 51.6552C67.9722 46.8957 68.2967 42.1362 67.2149 38.891C67.1068 38.8369 66.9986 38.8369 66.9445 38.7828C68.0803 41.9739 67.8099 46.7875 66.1873 51.6011Z" fill="#4C160D"/>
<path d="M60.1301 50.3031C59.4811 55.8198 57.4258 60.4712 54.8838 62.6887C54.992 62.6887 55.1001 62.6887 55.2083 62.7428C57.7503 60.4171 59.7515 55.8198 60.4005 50.3572C60.8332 46.4089 60.5087 42.6229 59.427 39.7023C59.0484 38.6206 58.5616 37.7552 58.0208 36.998C57.9126 36.998 57.8044 36.998 57.6962 36.9439C58.2912 37.7011 58.778 38.6206 59.2106 39.7564C60.2383 42.6229 60.5628 46.4089 60.1301 50.3031Z" fill="#4C160D"/>
<path d="M54.559 63.1214L54.5049 63.2837C54.559 63.2296 54.6131 63.2296 54.6671 63.1755C54.6131 63.1214 54.6131 63.1214 54.559 63.1214Z" fill="#4C160D"/>
<path d="M55.2621 58.3078C54.6671 60.2548 53.8559 61.6611 52.7741 62.5264C52.8823 62.5264 52.9905 62.5264 53.1527 62.5264C54.1263 61.607 54.9376 60.2008 55.5325 58.3618C56.452 55.3871 56.5601 51.547 55.857 47.6529C55.0457 42.9474 53.2068 38.9451 50.9893 36.5653C50.8811 36.5653 50.773 36.5653 50.6648 36.5653C52.8823 38.891 54.7753 42.8933 55.5866 47.6529C56.2897 51.547 56.1275 55.333 55.2621 58.3078Z" fill="#4C160D"/>
<path d="M79.7087 62.1478C74.8951 65.5552 69.9192 67.3941 66.6741 67.1778C66.7822 67.2319 66.8904 67.3401 66.9986 67.3941C67.0527 67.3941 67.1068 67.3941 67.2149 67.3941C70.5142 67.3941 75.2737 65.5552 79.871 62.3101C84.1978 59.2272 87.4971 55.4953 88.6869 52.3583C88.6329 52.3042 88.5788 52.2501 88.5247 52.142C87.3348 55.333 84.0897 59.0649 79.7087 62.1478Z" fill="#4C160D"/>
<path d="M99.0715 82.5382C96.5835 84.3771 93.1221 85.7292 89.3361 86.4323C84.4683 87.2977 79.9792 86.8109 77.0586 85.4047C77.0586 85.5129 77.1127 85.6211 77.1127 85.6751C79.0598 86.5946 81.6559 87.0814 84.5765 87.0814C86.0909 87.0814 87.7135 86.9191 89.3361 86.6487C93.1761 85.9997 96.6917 84.5934 99.1796 82.7004C100.64 81.6187 101.614 80.4829 102.154 79.293C102.154 79.1849 102.1 79.1308 102.1 79.0226C102.1 78.9685 102.1 78.9144 102.046 78.8604C101.614 80.1584 100.586 81.4024 99.0715 82.5382Z" fill="#4C160D"/>
<path d="M102.479 82.5923C102.587 82.1596 102.587 81.6728 102.533 81.2401H102.479C102.479 81.7269 102.479 82.1596 102.479 82.5923Z" fill="#4C160D"/>
<path d="M98.7471 86.9191C96.2051 88.6498 92.6895 89.8938 88.8494 90.3806C85.2798 90.8674 81.8724 90.651 79.2222 89.8938C79.2763 90.002 79.3844 90.1102 79.4385 90.2183C81.1152 90.651 83.0623 90.9214 85.1175 90.9214C86.3074 90.9214 87.5514 90.8674 88.8494 90.651C92.7436 90.1102 96.3133 88.8662 98.8553 87.1354C100.856 85.7833 102.1 84.2148 102.425 82.6463C102.425 82.2136 102.425 81.781 102.425 81.2942H102.263C102.533 83.1872 101.289 85.1884 98.7471 86.9191Z" fill="#4C160D"/>
<path d="M83.3324 148.415C87.6593 144.899 91.878 141.978 95.2854 140.085C95.1772 140.031 95.1231 139.977 95.0149 139.923C91.6616 141.816 87.497 144.683 83.1702 148.198C79.1137 151.497 75.5982 154.797 73.0562 157.663C73.1102 157.717 73.2184 157.717 73.2725 157.771C75.8145 154.959 79.3301 151.66 83.3324 148.415Z" fill="#4C160D"/>
<path d="M78.5728 142.303C81.6016 139.707 84.6304 137.489 87.3887 135.813C87.2806 135.758 87.2265 135.758 87.1183 135.704C84.3599 137.381 81.3311 139.599 78.3564 142.141C73.2724 146.576 69.1078 151.335 66.9443 155.121C66.9984 155.175 67.1066 155.175 67.1607 155.229C69.3782 151.443 73.4887 146.684 78.5728 142.303Z" fill="#4C160D"/>
<path d="M106.319 148.09C106.265 148.036 106.211 147.982 106.157 147.928C103.452 150.308 100.045 153.066 96.2591 155.878C91.7159 159.286 87.6594 162.044 84.5225 163.937C84.5765 163.991 84.6847 164.045 84.7388 164.099C88.1462 161.99 92.3649 159.069 96.3672 156.041C100.207 153.228 103.615 150.416 106.319 148.09Z" fill="#4C160D"/>
<path d="M92.9058 149.929C95.8265 147.549 98.5307 145.494 100.911 143.763C100.856 143.709 100.748 143.655 100.694 143.601C98.1521 145.44 95.3938 147.549 92.7436 149.713C87.2809 154.148 82.6295 158.42 80.1416 161.233C80.1957 161.287 80.3039 161.287 80.3579 161.341C82.9 158.583 87.5513 154.31 92.9058 149.929Z" fill="#4C160D"/>
<path d="M111.295 152.85C111.241 152.795 111.187 152.741 111.133 152.687C108.591 154.905 104.967 157.609 100.91 160.313C96.0968 163.504 91.8782 165.83 88.8494 167.236C88.9035 167.29 88.9575 167.345 89.0657 167.399C92.419 165.884 96.8541 163.288 101.073 160.53C105.129 157.771 108.699 155.067 111.295 152.85Z" fill="#4C160D"/>
<path d="M115.784 158.258C115.73 158.204 115.676 158.15 115.622 158.042C112.917 159.881 109.456 161.99 105.562 163.991C99.7745 166.966 94.7986 168.913 91.5535 169.724C91.6076 169.778 91.6616 169.887 91.7698 169.941C95.3936 168.967 100.694 166.804 105.67 164.208C109.618 162.206 113.08 160.097 115.784 158.258Z" fill="#4C160D"/>
<path d="M94.3661 172.429C98.5307 172.429 103.831 171.401 109.348 169.4C113.242 167.994 116.812 166.209 119.678 164.262C119.624 164.208 119.57 164.099 119.57 164.045C116.703 165.938 113.134 167.723 109.24 169.129C103.507 171.239 97.9898 172.212 93.8252 172.158C93.8793 172.212 93.9334 172.32 93.9875 172.374C94.1497 172.374 94.2579 172.429 94.3661 172.429Z" fill="#4C160D"/>
<path d="M96.3672 175.674C96.4213 175.782 96.4754 175.836 96.5294 175.944C98.152 176.215 99.9909 176.377 101.938 176.377C104.264 176.377 106.752 176.161 109.348 175.674C114.756 174.7 119.57 172.861 122.815 170.644C122.761 170.59 122.761 170.482 122.707 170.427C119.516 172.645 114.702 174.484 109.294 175.457C104.426 176.323 99.8828 176.323 96.3672 175.674Z" fill="#4C160D"/>
<path d="M111.511 181.84C116.92 181.623 121.95 180.433 125.411 178.703C125.411 178.648 125.357 178.54 125.357 178.486C121.896 180.271 116.92 181.407 111.457 181.623C106.535 181.84 102.046 181.245 98.6387 180.055C98.6928 180.163 98.6928 180.217 98.7468 180.325C101.722 181.299 105.508 181.894 109.618 181.894C110.267 181.894 110.916 181.894 111.511 181.84Z" fill="#4C160D"/>
<path d="M114.486 188.005C119.137 187.843 123.464 186.924 126.763 185.571C126.763 185.463 126.763 185.409 126.709 185.301C123.41 186.653 119.083 187.518 114.432 187.735C108.969 187.951 103.993 187.194 100.478 185.788C100.478 185.896 100.532 185.95 100.532 186.058C103.669 187.302 107.887 188.005 112.593 188.005C113.296 188.059 113.891 188.059 114.486 188.005Z" fill="#4C160D"/>
<path d="M118.813 194.441C121.95 194.441 124.925 194.117 127.413 193.468C127.413 193.36 127.413 193.306 127.413 193.197C124.059 194.063 119.895 194.387 115.568 194.063C109.781 193.63 104.697 192.17 101.343 190.223C101.343 190.331 101.343 190.385 101.397 190.493C104.805 192.44 109.835 193.901 115.568 194.279C116.65 194.441 117.731 194.441 118.813 194.441Z" fill="#4C160D"/>
<path d="M122.761 201.581C124.221 201.581 125.627 201.473 126.925 201.31C126.925 201.202 126.925 201.148 126.979 201.04C123.518 201.527 119.353 201.364 114.972 200.553C109.456 199.526 104.642 197.578 101.559 195.307C101.559 195.415 101.559 195.469 101.559 195.577C104.696 197.849 109.456 199.742 114.972 200.769C117.623 201.364 120.327 201.581 122.761 201.581Z" fill="#4C160D"/>
<path d="M112.539 207.368C107.671 205.691 103.507 203.366 100.748 200.986C100.748 201.094 100.694 201.148 100.694 201.256C103.507 203.69 107.617 206.016 112.485 207.638C116.758 209.099 120.922 209.856 124.492 209.856C124.708 209.856 124.924 209.856 125.141 209.856C125.141 209.748 125.195 209.694 125.195 209.585C121.571 209.64 117.082 208.882 112.539 207.368Z" fill="#4C160D"/>
<path d="M99.6663 204.231C99.6122 204.285 99.6122 204.393 99.5581 204.447C101.667 206.719 104.48 208.991 107.779 211.046C113.025 214.237 118.488 216.13 122.599 216.292C122.653 216.238 122.653 216.13 122.707 216.076C118.65 215.968 113.188 214.075 107.941 210.884C104.642 208.828 101.83 206.503 99.6663 204.231Z" fill="#4C160D"/>
<path d="M97.557 208.233C97.5029 208.287 97.4489 208.342 97.3948 208.45C99.6123 211.533 103.236 214.832 107.779 217.644C111.673 220.024 115.676 221.701 119.191 222.458C119.191 222.404 119.245 222.404 119.245 222.35C119.245 222.296 119.299 222.296 119.299 222.242C115.838 221.484 111.782 219.862 107.887 217.428C103.398 214.67 99.7205 211.316 97.557 208.233Z" fill="#4C160D"/>
<path d="M95.5558 210.884C95.5017 210.938 95.4476 210.992 95.3936 211.1C96.5294 215.102 101.181 220.24 107.833 224.297C110.267 225.811 112.755 227.001 115.135 227.866C115.189 227.812 115.243 227.758 115.297 227.65C112.917 226.785 110.429 225.541 107.941 224.08C101.289 219.97 96.5834 214.778 95.5558 210.884Z" fill="#4C160D"/>
<path d="M92.419 213.912C92.3649 213.966 92.3108 214.02 92.2026 214.075C93.068 218.077 96.2591 223.323 101.127 228.029C103.615 230.463 106.211 232.464 108.753 233.978C108.807 233.924 108.861 233.87 108.969 233.816C106.427 232.301 103.777 230.3 101.289 227.866C96.4754 223.107 93.2303 217.861 92.419 213.912Z" fill="#4C160D"/>
<path d="M94.8528 229.489C91.3372 225.162 88.9034 220.565 87.9839 216.833C87.9298 216.887 87.8217 216.887 87.7676 216.941C88.7411 220.727 91.1209 225.27 94.6365 229.651C97.3948 233.059 100.532 235.871 103.507 237.764C103.561 237.71 103.669 237.656 103.723 237.602C100.802 235.763 97.6653 232.896 94.8528 229.489Z" fill="#4C160D"/>
<path d="M85.7124 217.915C85.6583 217.969 85.5501 217.969 85.4961 218.023C85.1715 222.133 86.9564 228.245 90.5801 234.249C92.2568 237.061 94.2039 239.549 96.1509 241.604C96.205 241.55 96.3132 241.55 96.3673 241.496C94.4202 239.441 92.4731 236.953 90.7965 234.14C87.1186 228.083 85.3338 221.971 85.7124 217.915Z" fill="#4C160D"/>
<path d="M83.2243 218.888C83.1161 218.942 83.0621 218.942 82.9539 218.996C82.0885 222.891 82.359 228.407 83.9274 234.249C85.0091 238.143 86.4695 241.658 88.2002 244.417C88.3084 244.417 88.3625 244.363 88.4706 244.363C86.7399 241.604 85.2255 238.035 84.1979 234.194C82.6294 228.245 82.3589 222.728 83.2243 218.888Z" fill="#4C160D"/>
<path d="M78.8975 220.132C78.7893 220.186 78.7352 220.186 78.6271 220.24C77.5453 224.026 77.4372 229.435 78.573 235.222C79.2761 238.954 80.4119 242.361 81.8181 245.174C81.9263 245.174 81.9804 245.174 82.0885 245.228C80.6823 242.415 79.5465 238.954 78.7893 235.168C77.6535 229.327 77.8158 223.918 78.8975 220.132Z" fill="#4C160D"/>
<path d="M75.0034 222.35C74.8952 222.458 74.7871 222.512 74.733 222.62C73.9758 226.082 73.8135 230.354 74.4085 234.952C74.7871 237.926 75.4361 240.739 76.2474 243.173C76.3556 243.227 76.4637 243.335 76.5719 243.389C75.7065 240.847 75.0034 237.981 74.6248 234.898C74.0299 230.192 74.1921 225.811 75.0034 222.35Z" fill="#4C160D"/>
<path d="M94.1245 1.99471C101.9 1.99471 110.952 6.99223 111.044 7.04526L112.001 7.5837L112.965 7.05196C113.058 6.99889 122.228 1.99468 130.096 1.99468C133.552 1.99468 136.177 2.98501 137.898 4.93883C140.49 7.85567 141.308 13.0526 140.371 20.3824C138.364 35.9987 117.251 53.4367 112.02 57.5377C106.751 53.4573 85.4845 36.0858 83.684 20.4088C82.8534 13.0586 83.7572 7.84881 86.3422 4.92432C88.1435 2.97712 90.7218 1.9935 94.1241 1.9935M130.096 0C121.63 0 112.007 5.31647 112.007 5.31647C112.007 5.31647 102.53 0 94.1241 0C86.5549 0 79.8492 4.29988 81.6971 20.6011C83.857 39.5138 112.028 60.0225 112.028 60.0225C112.028 60.0225 139.939 39.4676 142.332 20.6341C144.432 4.30542 137.74 0.0329765 130.117 0.0329765L130.096 0Z" fill="#D63C1A"/>
<path d="M98.6238 8.99893C104.459 8.99893 111.25 12.7469 111.31 12.7871L112.034 13.1926L112.752 12.7938C112.825 12.7542 119.724 8.99943 125.605 8.99943C128.197 8.99943 130.164 9.74397 131.453 11.2058C133.38 13.3988 134.005 17.293 133.294 22.7955C131.792 34.5181 115.955 47.5833 112.028 50.654C108.041 47.597 92.0919 34.5589 90.7623 22.8153C90.1378 17.2995 90.8153 13.3918 92.7557 11.1988C94.0851 9.73705 96.0188 8.99917 98.5839 8.99917M125.565 7.51733C119.212 7.51733 111.995 11.5049 111.995 11.5049C111.995 11.5049 104.891 7.51733 98.5839 7.51733C92.9089 7.51733 87.8846 10.7403 89.2799 22.982C90.9081 37.1434 112.068 52.5211 112.068 52.5211C112.068 52.5211 132.955 37.1091 134.769 22.9807C136.344 10.7464 131.339 7.51733 125.605 7.51733H125.565Z" fill="#D63C1A"/>
<path d="M101.986 14.2567C106.359 14.2567 111.449 17.0679 111.502 17.0943L112.068 17.3931L112.606 17.0943C112.659 17.0943 117.836 14.2501 122.249 14.2501C124.189 14.2501 125.671 14.8082 126.635 15.9046C128.083 17.5462 128.542 20.4703 128.017 24.5904C126.887 33.3889 115.012 43.1984 112.068 45.4909C109.078 43.2047 97.1022 33.4225 96.1195 24.6168C95.6475 20.4834 96.1591 17.5525 97.6282 15.9042C98.6051 14.8078 100.074 14.2559 102.001 14.2559M122.222 13.1399C117.458 13.1399 112.068 16.1237 112.068 16.1237C112.068 16.1237 106.752 13.1399 101.987 13.1399C97.727 13.1399 93.959 15.559 94.9956 24.743C96.1982 35.3363 112.068 46.8993 112.068 46.8993C112.068 46.8993 127.732 35.3364 129.093 24.743C130.27 15.559 126.508 13.1399 122.222 13.1399H122.222Z" fill="#D63C1A"/>
<path d="M104.504 18.1967C107.787 18.1967 111.602 20.3037 111.642 20.3299L112.047 20.5561L112.453 20.3299C112.492 20.3299 116.36 18.1967 119.683 18.1967H119.683C120.909 18.106 122.112 18.561 122.972 19.4395C124.055 20.6689 124.408 22.8618 124.009 25.9524C123.158 32.5513 114.253 39.9081 112.046 41.6294C109.821 39.9079 100.843 32.5712 100.105 25.9656C99.7592 22.8622 100.138 20.6491 101.241 19.4332H101.242C102.099 18.5598 103.297 18.1079 104.518 18.1971M119.683 17.3928C116.108 17.3928 112.067 19.5992 112.067 19.5992C112.067 19.5992 108.08 17.3928 104.504 17.3928C101.314 17.3928 98.4835 19.207 99.2679 26.0918C100.165 34.0665 112.047 42.7054 112.047 42.7054C112.047 42.7054 123.816 34.0063 124.833 26.0312C125.724 19.1731 122.9 17.3918 119.683 17.3918L119.683 17.3928Z" fill="#D63C1A"/>
<path d="M106.398 21.154C108.857 21.154 111.715 22.7359 111.748 22.7488L112.054 22.9214L112.359 22.7488C112.359 22.7488 115.29 21.154 117.775 21.154H117.776C118.697 21.0855 119.601 21.4256 120.247 22.0846C121.058 23.0085 121.318 24.6495 121.025 26.9692C120.36 31.9203 113.715 37.4295 112.053 38.7253C110.385 37.4362 103.647 31.9404 103.088 26.9827C102.822 24.6568 103.088 22.9951 103.939 22.0784L103.939 22.0779C104.585 21.4261 105.483 21.0886 106.398 21.154ZM117.776 20.5228C115.118 20.5228 112.054 22.2041 112.054 22.2041C112.054 22.2041 109.057 20.5228 106.398 20.5228C103.999 20.5228 101.88 21.8522 102.464 27.0486C103.129 33.0298 112.054 39.5158 112.054 39.5158C112.054 39.5158 120.879 33.0102 121.643 27.0486C122.308 21.8852 120.188 20.5228 117.776 20.5228Z" fill="#D63C1A"/>
<path d="M107.814 23.3741C109.213 23.49 110.571 23.8996 111.801 24.5772L112.067 24.7034L112.3 24.5772C113.552 23.8971 114.933 23.4874 116.354 23.3741C117.037 23.3158 117.711 23.5585 118.201 24.0387C118.812 24.7364 119.005 25.9658 118.786 27.7069C118.307 31.4152 113.297 35.5486 112.054 36.5255C110.804 35.5553 105.754 31.4347 105.335 27.7135C105.136 25.9658 105.335 24.7297 106 24.0387H105.999C106.489 23.5585 107.164 23.3158 107.847 23.3741M116.387 22.9088C114.874 23.0144 113.402 23.44 112.067 24.1583C110.757 23.4421 109.309 23.0139 107.82 22.9021C106.026 22.9021 104.431 23.9187 104.87 27.7934C105.375 32.2726 112.067 37.1371 112.067 37.1371C112.067 37.1371 118.679 32.2658 119.258 27.7934C119.756 23.9192 118.168 22.9021 116.36 22.9021L116.387 22.9088Z" fill="#D63C1A"/>
</svg>
