<?xml version="1.0" encoding="utf-8"?>
<!-- Generator: Adobe Illustrator 23.1.0, SVG Export Plug-In . SVG Version: 6.00 Build 0)  -->
<svg version="1.1" id="Calque_1" xmlns="http://www.w3.org/2000/svg" xmlns:xlink="http://www.w3.org/1999/xlink" x="0px" y="0px"
	 viewBox="0 0 195 176" style="enable-background:new 0 0 195 176;" xml:space="preserve">
<style type="text/css">
	.st0{fill:#4B1810;}
	.st1{fill:#32110C;}
	.st2{fill:#E8907C;}
	.st3{fill:#D63C1A;}
	.st4{fill:#7F1105;}
</style>
<g>
	
		<ellipse transform="matrix(0.9914 -0.1306 0.1306 0.9914 -6.9814 21.7581)" class="st0" cx="162.4" cy="64.1" rx="26.6" ry="54.1"/>
	
		<ellipse transform="matrix(0.9914 -0.1306 0.1306 0.9914 -7.4157 20.5407)" class="st1" cx="152.9" cy="66.8" rx="21.8" ry="40.7"/>
	<path class="st2" d="M13.6,66.9c-1,0,4.1-20.4,4.1-20.4l8.2-2.7l28.3-3.1c0,0,25.2-4.4,27.2-4.1c2,0.3,24.2-6.1,24.2-6.1l30.3-11.6
		l-3.2,17l-16.5,15l-100.8,16H13.6z"/>
	<path class="st3" d="M0.3,72l3.8,22c14.9,23.5,36.8,18.2,36.8,18.2l20.8,0.4c0,0,1.5,9,6.9,21.8c5.3,12.7-7.4,12.9-7.4,12.9
		l7.3,27.9c0,0,22.2-1.3,29.8-2.5c27.6-4.3,18.1-22.9,18.1-22.9L102,108c0,0,21-2.4,34.5,7.3c6.6,4.7,17.6,10.9,34.7,9.1
		c38.1-5.1,21-91.3,5.8-112.1c-15.2-20.9-38.6-8.6-42.3,3C103.3,32.3,48.3,39.5,30,40.4C4.6,41.7,0.3,72,0.3,72L0.3,72z M140.1,49.6
		c-0.8-17.3,9.1-33.9,15.7-34.6c6.5-0.6,24.1-2.6,30.1,47.5c5.7,47.5-15.7,55.2-25.1,50.9c-15.9-7.3-17.3-28.7-17.3-28.7
		s19.4-4.3,20.8-15.2C165.7,58.8,154.1,49.1,140.1,49.6L140.1,49.6z M19.9,52l9.4-5l5.8,0.3c69.1-8.3,97.5-25,97.5-25
		s-4.1,11.1-5.5,13.7C66.1,63.3,19.9,52,19.9,52L19.9,52z"/>
	<g>
		<path class="st4" d="M159.6,69.5c0.8-10.9-8.2-20.4-19.5-19.9c0,0,0,10.2,0.6,17.4c0.5,6.2,1.3,9.8,2.8,17.8
			C143.7,84.8,158.8,81.3,159.6,69.5z"/>
	</g>
</g>
</svg>
