<svg width="102" height="117" viewBox="0 0 102 117" fill="none" xmlns="http://www.w3.org/2000/svg">
<path d="M94.1551 44.3534C90.0002 40.9377 84.6364 39.3535 79.2922 39.9642C77.533 40.1306 75.7942 40.4712 74.1009 40.9802V35.1009C74.1009 34.5832 73.8957 34.0878 73.5299 33.722C73.1642 33.3563 72.6687 33.1511 72.1511 33.1511H1.951C0.874009 33.1511 0.000242142 34.0239 0.000242142 35.1009V87.7503C-0.0326569 95.8021 3.28817 103.504 9.16571 109.006C10.802 110.59 11.7184 112.774 11.7008 115.051C11.7008 115.568 11.906 116.064 12.2717 116.43C12.6375 116.795 13.1339 117.001 13.6506 117.001H60.4515C60.9682 117.001 61.4646 116.795 61.8304 116.43C62.1961 116.064 62.4013 115.568 62.4013 115.051C62.3829 112.773 63.2992 110.588 64.9364 109.006C68.7517 105.416 71.5241 100.86 72.9592 95.8214C80.4612 93.7148 87.1272 89.3362 92.0419 83.2885C97.1887 77.4003 100.352 70.0407 101.082 62.254C101.826 55.5154 99.2411 48.8357 94.1552 44.3526L94.1551 44.3534ZM74.1009 53.5229C79.0562 51.0486 83.7927 50.9275 86.6338 53.3042C91.4952 57.3992 89.859 67.6833 83.0612 75.7707C80.5966 78.7636 77.5476 81.2234 74.1009 82.9991V53.5229ZM70.2013 87.7522C70.2265 94.7268 67.3476 101.397 62.2551 106.162C60.3198 108.013 59.0521 110.455 58.6516 113.102H15.4475C15.0489 110.455 13.7832 108.015 11.848 106.164C6.75447 101.399 3.87379 94.7278 3.8998 87.7522V37.0523H70.2008L70.2013 87.7522ZM97.1825 61.9997C96.507 68.959 93.6612 75.5301 89.0465 80.7844C85.0464 85.6788 79.7881 89.3896 73.8363 91.5194C74.0047 90.2702 74.0937 89.0113 74.1014 87.7514V87.2753C78.7461 85.2772 82.8431 82.1932 86.048 78.282C94.4877 68.2419 95.8464 55.9664 89.1405 50.3125C85.3871 47.1705 79.9111 46.8299 74.1014 49.22V45.0708C75.8896 44.4399 77.7475 44.0306 79.6344 43.8496C83.9471 43.3416 88.2821 44.6005 91.6526 47.3399C95.7679 51.0383 97.8308 56.5054 97.1825 62.0007L97.1825 61.9997Z" fill="#B68176"/>
<path d="M25.3496 27.3007H29.2491C29.253 26.0466 29.792 24.8545 30.7296 24.0224C32.2779 22.482 33.1497 20.388 33.1497 18.2041C33.1497 16.0192 32.2779 13.9253 30.7296 12.3848C29.7881 11.5536 29.2491 10.3585 29.2491 9.10354C29.2491 7.84755 29.7881 6.65252 30.7296 5.82131C32.2866 4.28567 33.1584 2.18683 33.1487 0H29.2492C29.2453 1.25503 28.7073 2.44909 27.7687 3.28223C26.2195 4.82272 25.3486 6.9177 25.3486 9.10255C25.3486 11.2865 26.2195 13.3813 27.7687 14.9219C28.7102 15.7531 29.2492 16.9472 29.2492 18.2031C29.2492 19.4581 28.7102 20.6532 27.7687 21.4834C26.2127 23.018 25.3399 25.1149 25.3496 27.3007Z" fill="#B68176"/>
<path d="M40.9507 27.3007H44.8512C44.8551 26.0466 45.3941 24.8545 46.3308 24.0224C47.88 22.482 48.7508 20.388 48.7508 18.2041C48.7508 16.0192 47.88 13.9253 46.3308 12.3848C45.3902 11.5536 44.8503 10.3585 44.8503 9.10354C44.8503 7.84755 45.3902 6.65252 46.3308 5.82131C47.8877 4.28567 48.7605 2.18683 48.7508 0H44.8513C44.8474 1.25503 44.3094 2.44909 43.3708 3.28223C41.8216 4.82272 40.9507 6.9177 40.9507 9.10255C40.9507 11.2865 41.8216 13.3813 43.3708 14.9219C44.3123 15.7531 44.8513 16.9472 44.8513 18.2031C44.8513 19.4581 44.3123 20.6532 43.3708 21.4834C41.8149 23.018 40.942 25.1149 40.9507 27.3007Z" fill="#B68176"/>
</svg>
