<svg width="48" height="71" viewBox="0 0 48 71" fill="none" xmlns="http://www.w3.org/2000/svg">
<path d="M22.7711 30.1607L22.8846 30.1502V30.0362V27.3584C22.8846 23.806 25.738 20.8971 29.2116 20.8971H41.5476C43.8173 20.8971 45.6432 19.0289 45.6432 16.7189C45.6432 14.4083 43.8168 12.5407 41.5476 12.5407H6.452C2.97828 12.5407 0.125 9.63167 0.125 6.07948V1.30299C0.125 0.645696 0.638744 0.125 1.27643 0.125C1.91411 0.125 2.42785 0.645696 2.42785 1.30299V6.07948C2.42785 8.39011 4.25428 10.2577 6.52343 10.2577H41.6894C45.1578 10.2577 47.8745 13.2336 47.875 16.7913C47.875 20.3437 45.0216 23.2526 41.548 23.2526H29.1405C26.8708 23.2526 25.0449 25.1207 25.0449 27.4308V30.1086V30.2238L25.1597 30.2332C32.1835 30.8068 37.7361 36.8307 37.7361 44.1491L37.7356 56.9595C37.7356 64.6368 31.6208 70.875 24.1063 70.875H24.0354C16.5209 70.875 10.4061 64.6368 10.4061 56.9596V44.0043C10.4061 36.7577 15.8178 30.8061 22.7711 30.1607ZM23.0261 32.7136V32.5762L22.8893 32.5892C17.509 33.1013 13.2819 37.4941 12.7094 42.9775L12.695 43.1155H12.8337H22.9011H23.0261V42.9905V32.7136ZM12.8338 45.3991H12.7088V45.5241V57.1039C12.7088 63.5394 17.7959 68.7363 24.1066 68.7363H24.1775H24.1778C30.4882 68.7363 35.5749 63.5396 35.6466 57.1053V57.1039V45.5241V45.3991H35.5216H12.8338ZM35.3796 43.0438H35.5185L35.5039 42.9056C34.9308 37.4948 30.7038 33.1021 25.3946 32.5899L25.2576 32.5767V32.7144V42.9188V43.0438H25.3826H35.3796Z" fill="#D63C1A" stroke="#4B1810" stroke-width="0.25"/>
</svg>
