<svg width="1440" height="186" viewBox="0 0 1440 186" fill="none" xmlns="http://www.w3.org/2000/svg">
<path d="M0 0.29366C0 0.29366 140.7 -5.94554 233.5 39.0937C331.5 86.6676 355.9 114.744 515.1 129.302C674.3 143.86 804.4 120.658 848.2 110.78C935 91.217 1020.1 39.8086 1201.7 37.4689C1359.9 35.4542 1440 75.879 1440 75.879V185H0V0.29366Z" fill="#F7D8B3"/>
<path d="M0 9.76163C0 9.76163 106.907 -20.7497 233.516 39.2166C332.423 86.0711 350.124 126.463 509.235 141.066C668.346 155.669 774.754 141.688 888.162 118.882C979.268 100.488 1058.07 63.3274 1200.88 62.0846C1343.69 60.8417 1440 102.041 1440 102.041V185H0V9.76163Z" fill="#D63C1A"/>
<path d="M0 41.9553C0 41.9553 82.4 17.2173 197.8 61.0492C272.8 89.5699 366.9 144.21 526.4 154.777C729.5 168.227 857.1 138.986 900.1 129.019C951.4 117.13 1042.4 92.6321 1215 92.0317C1388.6 91.4313 1440 126.317 1440 126.317V186H0V41.9553Z" fill="#32110C"/>
</svg>
