<?xml version="1.0" encoding="utf-8"?>
<!-- Generator: Adobe Illustrator 23.1.0, SVG Export Plug-In . SVG Version: 6.00 Build 0)  -->
<svg version="1.1" id="Calque_1" xmlns="http://www.w3.org/2000/svg" xmlns:xlink="http://www.w3.org/1999/xlink" x="0px" y="0px"
	 viewBox="0 0 1440 184" style="enable-background:new 0 0 1440 184;" xml:space="preserve">
<style type="text/css">
	.st0{fill:#D63C1A;}
</style>
<path class="st0" d="M807.7,150h-7.6c-12.9,0-23.4-10.5-23.4-23.4c0-1.6-1.3-2.8-2.8-2.8c-1.6,0-2.8,1.3-2.8,2.8
	c0,12.9-10.5,23.4-23.4,23.4H744c-1,0-1.9-0.8-1.9-1.9s0.8-1.9,1.9-1.9h3.7c10.9,0,19.7-8.8,19.7-19.7c0-3.6,2.9-6.6,6.6-6.6
	s6.6,2.9,6.6,6.6c0,10.9,8.8,19.7,19.7,19.7h7.6c1,0,1.9,0.8,1.9,1.9S808.8,150,807.7,150L807.7,150z M734.7,149.5
	c-0.2,0-0.5,0-0.7-0.1c-0.1,0-0.1-0.1-0.2-0.1c-1-0.4-1.4-1.5-1-2.4c0.4-1,1.5-1.4,2.4-1c0,0,0.1,0,0.1,0.1c1,0.4,1.4,1.5,1.1,2.4
	C736.1,149,735.4,149.5,734.7,149.5L734.7,149.5z M815.4,145.7c-0.3,0-0.5-0.1-0.8-0.2c-0.9-0.4-1.3-1.6-0.9-2.5c0,0,0-0.1,0.1-0.1
	c0.4-0.9,1.5-1.4,2.5-1c0.9,0.4,1.4,1.5,1,2.5c0,0.1-0.1,0.1-0.1,0.2C816.8,145.3,816.1,145.7,815.4,145.7z M729.9,142
	c0,0-0.1,0-0.1,0c-1-0.1-1.8-1-1.7-2c0.3-4.9,4.5-8.7,9.4-8.7h10.3c2.6,0,4.7-2.1,4.7-4.7c0-11.9,9.7-21.6,21.6-21.6
	c11.9,0,21.6,9.7,21.6,21.6c0,2.6,2.1,4.7,4.7,4.7h8.4c2.3,0,4.6,0.9,6.3,2.4c0.8,0.7,0.8,1.9,0.1,2.6c-0.7,0.8-1.9,0.8-2.6,0.1
	c-1-0.9-2.4-1.5-3.8-1.5h-8.4c-4.7,0-8.4-3.8-8.4-8.4c0-9.8-8-17.8-17.8-17.8c-9.8,0-17.8,8-17.8,17.8c0,4.7-3.8,8.4-8.4,8.4h-10.3
	c-2.9,0-5.4,2.3-5.6,5.2C731.7,141.2,730.9,142,729.9,142L729.9,142z"/>
<path class="st0" d="M741.1,150c-1,0-1.9-0.8-1.9-1.9v-15c0-1,0.8-1.9,1.9-1.9c1,0,1.9,0.8,1.9,1.9v15
	C743,149.2,742.1,150,741.1,150z"/>
<path class="st0" d="M756.1,148.1c-0.7,0-1.3-0.3-1.6-0.9l-7.5-13.1c-0.5-0.9-0.2-2,0.7-2.6c0.9-0.5,2-0.2,2.6,0.7l7.5,13.1
	c0.5,0.9,0.2,2-0.7,2.6C756.7,148,756.4,148.1,756.1,148.1z"/>
<path class="st0" d="M773,123.8c-1,0-1.9-0.8-1.9-1.9v-13.1c0-1,0.8-1.9,1.9-1.9c1,0,1.9,0.8,1.9,1.9v13.1
	C774.9,122.9,774,123.8,773,123.8z"/>
<path class="st0" d="M778.6,125.6c-0.4,0-0.7-0.1-1-0.3c-0.9-0.6-1.1-1.7-0.5-2.6l7.5-11.3c0.6-0.9,1.7-1.1,2.6-0.5
	c0.9,0.6,1.1,1.7,0.5,2.6l-7.5,11.3C779.8,125.3,779.2,125.6,778.6,125.6z"/>
<path class="st0" d="M780.5,135c-0.7,0-1.3-0.3-1.6-0.9c-0.5-0.9-0.2-2,0.7-2.6l13.1-7.5c0.9-0.5,2-0.2,2.6,0.7s0.2,2-0.7,2.6
	l-13.1,7.5C781.1,134.9,780.8,135,780.5,135z"/>
<path class="st0" d="M786.1,144.4c-0.5,0-1.1-0.2-1.4-0.7c-0.7-0.8-0.6-2,0.2-2.6l11.2-9.4c0.8-0.7,2-0.6,2.6,0.2s0.6,2-0.2,2.6
	l-11.3,9.4C787,144.2,786.5,144.4,786.1,144.4z"/>
<path class="st0" d="M765.5,140.6c-0.5,0-1-0.2-1.3-0.5l-11.3-11.3c-0.7-0.7-0.7-1.9,0-2.7c0.7-0.7,1.9-0.7,2.7,0l11.3,11.2
	c0.7,0.7,0.7,1.9,0,2.7C766.4,140.4,766,140.6,765.5,140.6z"/>
<path class="st0" d="M769.2,129.4c-0.5,0-1-0.2-1.3-0.5l-11.3-11.2c-0.7-0.7-0.7-1.9,0-2.7c0.7-0.7,1.9-0.7,2.7,0l11.3,11.3
	c0.7,0.7,0.7,1.9,0,2.7C770.2,129.2,769.7,129.4,769.2,129.4z"/>
<path class="st0" d="M808.6,142.5c-0.5,0-1-0.2-1.3-0.5c-0.3-0.3-0.5-0.8-0.5-1.3c0-0.5,0.2-1,0.5-1.3c0.4-0.3,0.8-0.5,1.3-0.5
	c0.5,0,1,0.2,1.3,0.5c0.3,0.3,0.5,0.8,0.5,1.3c0,0.5-0.2,1-0.5,1.3C809.6,142.3,809.1,142.5,808.6,142.5z"/>
<path class="st0" d="M1440,8.1c0,0-106.9-31.7-233.5,30.6c-98.9,48.6-116.6,90.6-275.7,105.7c-159.1,15.2-265.5,0.6-378.9-23
	c-91.1-19.1-169.9-57.7-312.7-59C96.3,61.1,0,103.9,0,103.9V190h1440V8.1z"/>
</svg>
