<?xml version="1.0" encoding="utf-8"?>
<!-- Generator: Adobe Illustrator 23.1.0, SVG Export Plug-In . SVG Version: 6.00 Build 0)  -->
<svg version="1.1" id="Calque_1" xmlns="http://www.w3.org/2000/svg" xmlns:xlink="http://www.w3.org/1999/xlink" x="0px" y="0px"
	 viewBox="0 0 1440 133" style="enable-background:new 0 0 1440 133;" xml:space="preserve">
<style type="text/css">
	.st0{fill:#D63C1A;}
	.st1{fill:#4B1810;}
	.st2{fill:#4C160D;}
</style>
<path class="st0" d="M0,0.1c0,0,140.7-2,233.5,12.7c98,15.6,122.4,24.8,281.6,29.5s289.3-2.8,333.1-6.1
	c86.8-6.4,171.9-23.2,353.5-24c158.2-0.7,238.3,12.6,238.3,12.6V130H0V0.1z"/>
<path class="st1" d="M0,12.2c0,0,140.7-4.1,233.5,25.4c98,31.1,122.4,49.5,281.6,59c159.2,9.5,289.3-5.7,333.1-12.1
	C935,71.7,1020.1,38,1201.7,36.5c158.2-1.3,238.3,25.1,238.3,25.1V133H0V12.2z"/>
<path class="st2" d="M594.7,100h-7.6c-12.9,0-23.4-10.5-23.4-23.4c0-1.6-1.3-2.8-2.8-2.8c-1.6,0-2.8,1.3-2.8,2.8
	c0,12.9-10.5,23.4-23.4,23.4H531c-1,0-1.9-0.8-1.9-1.9c0-1,0.8-1.9,1.9-1.9h3.7c10.9,0,19.7-8.8,19.7-19.7c0-3.6,2.9-6.6,6.6-6.6
	s6.6,2.9,6.6,6.6c0,10.9,8.8,19.7,19.7,19.7h7.6c1,0,1.9,0.8,1.9,1.9C596.6,99.2,595.8,100,594.7,100L594.7,100z M521.7,99.5
	c-0.2,0-0.5,0-0.7-0.1c-0.1,0-0.1-0.1-0.2-0.1c-1-0.4-1.4-1.5-1-2.4c0.4-1,1.5-1.4,2.4-1c0,0,0.1,0,0.1,0.1c1,0.4,1.4,1.5,1.1,2.4
	C523.1,99,522.4,99.5,521.7,99.5L521.7,99.5z M602.4,95.7c-0.3,0-0.5-0.1-0.8-0.2c-0.9-0.4-1.3-1.6-0.9-2.5c0,0,0-0.1,0.1-0.1
	c0.4-0.9,1.5-1.4,2.5-1c0.9,0.4,1.4,1.5,1,2.5c0,0.1-0.1,0.1-0.1,0.2C603.8,95.3,603.1,95.7,602.4,95.7z M516.9,92c0,0-0.1,0-0.1,0
	c-1-0.1-1.8-1-1.7-2c0.3-4.9,4.5-8.7,9.4-8.7h10.3c2.6,0,4.7-2.1,4.7-4.7c0-11.9,9.7-21.6,21.6-21.6c11.9,0,21.6,9.7,21.6,21.6
	c0,2.6,2.1,4.7,4.7,4.7h8.4c2.3,0,4.6,0.9,6.3,2.4c0.8,0.7,0.8,1.9,0.1,2.6c-0.7,0.8-1.9,0.8-2.6,0.1c-1-0.9-2.4-1.5-3.8-1.5h-8.4
	c-4.7,0-8.4-3.8-8.4-8.4c0-9.8-8-17.8-17.8-17.8c-9.8,0-17.8,8-17.8,17.8c0,4.7-3.8,8.4-8.4,8.4h-10.3c-2.9,0-5.4,2.3-5.6,5.2
	C518.7,91.2,517.9,92,516.9,92L516.9,92z"/>
<path class="st2" d="M528.1,100c-1,0-1.9-0.8-1.9-1.9v-15c0-1,0.8-1.9,1.9-1.9c1,0,1.9,0.8,1.9,1.9v15C530,99.2,529.1,100,528.1,100
	z"/>
<path class="st2" d="M543.1,98.1c-0.7,0-1.3-0.3-1.6-0.9L534,84.1c-0.5-0.9-0.2-2,0.7-2.6c0.9-0.5,2-0.2,2.6,0.7l7.5,13.1
	c0.5,0.9,0.2,2-0.7,2.6C543.7,98,543.4,98.1,543.1,98.1z"/>
<path class="st2" d="M560,73.8c-1,0-1.9-0.8-1.9-1.9V58.8c0-1,0.8-1.9,1.9-1.9c1,0,1.9,0.8,1.9,1.9v13.1
	C561.9,72.9,561,73.8,560,73.8z"/>
<path class="st2" d="M565.6,75.6c-0.4,0-0.7-0.1-1-0.3c-0.9-0.6-1.1-1.7-0.5-2.6l7.5-11.2c0.6-0.9,1.7-1.1,2.6-0.5
	c0.9,0.6,1.1,1.7,0.5,2.6l-7.5,11.2C566.8,75.3,566.2,75.6,565.6,75.6z"/>
<path class="st2" d="M567.5,85c-0.7,0-1.3-0.3-1.6-0.9c-0.5-0.9-0.2-2,0.7-2.6l13.1-7.5c0.9-0.5,2-0.2,2.6,0.7
	c0.5,0.9,0.2,2-0.7,2.6l-13.1,7.5C568.1,84.9,567.8,85,567.5,85z"/>
<path class="st2" d="M573.1,94.4c-0.5,0-1.1-0.2-1.4-0.7c-0.7-0.8-0.6-2,0.2-2.6l11.3-9.4c0.8-0.7,2-0.6,2.6,0.2
	c0.7,0.8,0.6,2-0.2,2.6l-11.3,9.4C574,94.2,573.5,94.4,573.1,94.4z"/>
<path class="st2" d="M552.5,90.6c-0.5,0-1-0.2-1.3-0.5l-11.3-11.2c-0.7-0.7-0.7-1.9,0-2.7c0.7-0.7,1.9-0.7,2.7,0l11.3,11.2
	c0.7,0.7,0.7,1.9,0,2.7C553.4,90.4,553,90.6,552.5,90.6z"/>
<path class="st2" d="M556.2,79.4c-0.5,0-1-0.2-1.3-0.5l-11.3-11.2c-0.7-0.7-0.7-1.9,0-2.7c0.7-0.7,1.9-0.7,2.7,0l11.3,11.2
	c0.7,0.7,0.7,1.9,0,2.7C557.2,79.2,556.7,79.4,556.2,79.4z"/>
<path class="st2" d="M595.6,92.5c-0.5,0-1-0.2-1.3-0.5c-0.3-0.3-0.5-0.8-0.5-1.3c0-0.5,0.2-1,0.5-1.3c0.4-0.4,0.8-0.5,1.3-0.5
	c0.5,0,1,0.2,1.3,0.5c0.3,0.3,0.5,0.8,0.5,1.3c0,0.5-0.2,1-0.5,1.3C596.6,92.3,596.1,92.5,595.6,92.5z"/>
</svg>
