<?xml version="1.0" encoding="utf-8"?>
<!-- Generator: Adobe Illustrator 23.1.0, SVG Export Plug-In . SVG Version: 6.00 Build 0)  -->
<svg version="1.1" id="Calque_1" xmlns="http://www.w3.org/2000/svg" xmlns:xlink="http://www.w3.org/1999/xlink" x="0px" y="0px"
	 viewBox="0 0 1440 165" style="enable-background:new 0 0 1440 165;" xml:space="preserve">
<style type="text/css">
	.st0{fill:#B68176;}
	.st1{fill:#32110C;}
</style>
<path class="st0" d="M1440,40.2c0,0-106.9-20.3-233.5,19.6c-98.9,31.2-116.6,58.2-275.7,67.9c-159.1,9.7-265.5,0.4-378.9-14.8
	c-91.1-12.3-169.9-37-312.7-37.9C96.3,74.2,0,101.7,0,101.7V157h1440V40.2z"/>
<path class="st1" d="M1440,72.3c0,0-106.9-17-233.5,16.4c-98.9,26.1-116.6,48.6-275.7,56.8c-159.1,8.1-265.5,0.3-378.9-12.4
	c-91.1-10.3-169.9-31-312.7-31.7C96.3,100.8,0,123.8,0,123.8V170h1440V72.3z"/>
<path class="st0" d="M1332.7,45h-7.5c-12.9,0-23.4-10.5-23.4-23.4c0-1.6-1.3-2.8-2.8-2.8c-1.6,0-2.8,1.3-2.8,2.8
	c0,12.9-10.5,23.4-23.4,23.4h-3.7c-1,0-1.9-0.8-1.9-1.9c0-1,0.8-1.9,1.9-1.9h3.7c10.9,0,19.7-8.8,19.7-19.7c0-3.6,2.9-6.6,6.6-6.6
	s6.6,2.9,6.6,6.6c0,10.9,8.8,19.7,19.7,19.7h7.5c1,0,1.9,0.8,1.9,1.9C1334.6,44.2,1333.8,45,1332.7,45L1332.7,45z M1259.7,44.5
	c-0.2,0-0.5,0-0.7-0.1c-0.1,0-0.2-0.1-0.2-0.1c-1-0.4-1.4-1.5-1-2.4c0.4-1,1.5-1.4,2.4-1c0.1,0,0.1,0,0.1,0.1c1,0.4,1.4,1.5,1.1,2.4
	C1261.1,44,1260.4,44.5,1259.7,44.5L1259.7,44.5z M1340.4,40.7c-0.3,0-0.5-0.1-0.8-0.2c-0.9-0.4-1.3-1.6-0.9-2.5c0,0,0-0.1,0.1-0.1
	c0.4-0.9,1.5-1.4,2.5-1c1,0.4,1.4,1.5,1,2.5c0,0.1-0.1,0.1-0.1,0.2C1341.8,40.3,1341.1,40.7,1340.4,40.7z M1254.9,37
	c-0.1,0-0.1,0-0.1,0c-1-0.1-1.8-1-1.7-2c0.3-4.9,4.5-8.7,9.4-8.7h10.3c2.6,0,4.7-2.1,4.7-4.7c0-11.9,9.7-21.6,21.6-21.6
	s21.6,9.7,21.6,21.6c0,2.6,2.1,4.7,4.7,4.7h8.4c2.3,0,4.6,0.9,6.3,2.4c0.8,0.7,0.8,1.9,0.1,2.6c-0.7,0.8-1.9,0.8-2.7,0.1
	c-1-0.9-2.4-1.5-3.8-1.5h-8.4c-4.7,0-8.4-3.8-8.4-8.4c0-9.8-8-17.8-17.8-17.8c-9.8,0-17.8,8-17.8,17.8c0,4.7-3.8,8.4-8.4,8.4h-10.3
	c-2.9,0-5.4,2.3-5.6,5.2C1256.7,36.2,1255.8,37,1254.9,37L1254.9,37z"/>
<path class="st0" d="M1266.1,45c-1,0-1.9-0.8-1.9-1.9v-15c0-1,0.8-1.9,1.9-1.9c1,0,1.9,0.8,1.9,1.9v15
	C1268,44.2,1267.1,45,1266.1,45z"/>
<path class="st0" d="M1281.1,43.1c-0.7,0-1.3-0.3-1.6-0.9l-7.5-13.1c-0.5-0.9-0.2-2,0.7-2.6c0.9-0.5,2-0.2,2.6,0.7l7.5,13.1
	c0.5,0.9,0.2,2-0.7,2.6C1281.8,43,1281.4,43.1,1281.1,43.1z"/>
<path class="st0" d="M1298,18.8c-1,0-1.9-0.8-1.9-1.9V3.8c0-1,0.8-1.9,1.9-1.9c1,0,1.9,0.8,1.9,1.9v13.1
	C1299.9,17.9,1299,18.8,1298,18.8z"/>
<path class="st0" d="M1303.6,20.6c-0.4,0-0.7-0.1-1-0.3c-0.9-0.6-1.1-1.7-0.5-2.6l7.5-11.2c0.6-0.9,1.7-1.1,2.6-0.5
	c0.9,0.6,1.1,1.7,0.5,2.6l-7.5,11.2C1304.8,20.3,1304.2,20.6,1303.6,20.6z"/>
<path class="st0" d="M1305.5,30c-0.7,0-1.3-0.3-1.6-0.9c-0.5-0.9-0.2-2,0.7-2.6l13.1-7.5c0.9-0.5,2-0.2,2.6,0.7
	c0.5,0.9,0.2,2-0.7,2.6l-13.1,7.5C1306.1,29.9,1305.8,30,1305.5,30z"/>
<path class="st0" d="M1311.1,39.4c-0.5,0-1.1-0.2-1.4-0.7c-0.7-0.8-0.6-2,0.2-2.6l11.3-9.4c0.8-0.7,2-0.6,2.6,0.2
	c0.7,0.8,0.5,2-0.2,2.6l-11.3,9.4C1312,39.2,1311.5,39.4,1311.1,39.4z"/>
<path class="st0" d="M1290.5,35.6c-0.5,0-1-0.2-1.3-0.5l-11.3-11.2c-0.7-0.7-0.7-1.9,0-2.7c0.7-0.7,1.9-0.7,2.7,0l11.3,11.2
	c0.7,0.7,0.7,1.9,0,2.7C1291.4,35.4,1291,35.6,1290.5,35.6z"/>
<path class="st0" d="M1294.2,24.4c-0.5,0-1-0.2-1.3-0.5l-11.3-11.2c-0.7-0.7-0.7-1.9,0-2.7c0.7-0.7,1.9-0.7,2.7,0l11.3,11.2
	c0.7,0.7,0.7,1.9,0,2.7C1295.2,24.2,1294.7,24.4,1294.2,24.4z"/>
<path class="st0" d="M1333.6,37.5c-0.5,0-1-0.2-1.3-0.5c-0.3-0.3-0.6-0.8-0.6-1.3c0-0.5,0.2-1,0.6-1.3c0.3-0.4,0.8-0.5,1.3-0.5
	c0.5,0,1,0.2,1.3,0.5c0.3,0.3,0.5,0.8,0.5,1.3c0,0.5-0.2,1-0.5,1.3C1334.6,37.3,1334.1,37.5,1333.6,37.5z"/>
</svg>
