<svg width="1440" height="133" viewBox="0 0 1440 133" fill="none" xmlns="http://www.w3.org/2000/svg">
<path d="M0 0.0983288C0 0.0983288 140.7 -1.9908 233.5 13.0901C331.5 29.0197 355.9 38.4208 515.1 43.2954C674.3 48.17 804.4 40.4011 848.2 37.0933C935 30.543 1020.1 13.3295 1201.7 12.546C1359.9 11.8714 1440 25.4072 1440 25.4072V133H0V0.0983288Z" fill="#D63C1A"/>
<path d="M0 12.1921C0 12.1921 140.7 8.11129 233.5 37.5694C331.5 68.6853 355.9 87.0488 515.1 96.5706C674.3 106.092 804.4 90.917 848.2 84.4558C935 71.6609 1020.1 38.037 1201.7 36.5067C1359.9 35.1889 1440 61.629 1440 61.629V133H0V12.1921Z" fill="#4B1810"/>
</svg>
