<?xml version="1.0" encoding="utf-8"?>
<!-- Generator: Adobe Illustrator 23.1.0, SVG Export Plug-In . SVG Version: 6.00 Build 0)  -->
<svg version="1.1" id="Calque_1" xmlns="http://www.w3.org/2000/svg" xmlns:xlink="http://www.w3.org/1999/xlink" x="0px" y="0px"
	 viewBox="0 0 90 119" style="enable-background:new 0 0 90 119;" xml:space="preserve">
<style type="text/css">
	.st0{fill:#D63C1A;}
</style>
<path class="st0" d="M17.4,66.9c0,15.2,12.4,27.6,27.6,27.6s27.6-12.4,27.6-27.6S60.2,39.3,45,39.3C29.8,39.3,17.4,51.7,17.4,66.9z
	 M69.7,66.9c0,13.6-11.1,24.7-24.7,24.7c-13.6,0-24.7-11.1-24.7-24.7c0-13.6,11.1-24.7,24.7-24.7C58.6,42.2,69.7,53.3,69.7,66.9z"/>
<path class="st0" d="M43,59.9l-6.6-6.6c-1.3-1.3-3.6-1.3-5,0c-0.7,0.7-1,1.5-1,2.5c0,0.9,0.4,1.8,1,2.5l6.6,6.6
	c-0.2,0.7-0.3,1.3-0.3,2c0,4,3.3,7.3,7.3,7.3c4,0,7.3-3.3,7.3-7.3c0-4-3.3-7.3-7.3-7.3C44.3,59.6,43.6,59.7,43,59.9z M39.4,62.2
	l-6-6c-0.2-0.2-0.2-0.4-0.2-0.5c0-0.1,0-0.3,0.2-0.5c0.2-0.2,0.4-0.2,0.5-0.2s0.3,0,0.5,0.2l6,6C40,61.6,39.7,61.9,39.4,62.2z
	 M49.5,66.9c0,2.5-2,4.5-4.5,4.5c-2.5,0-4.5-2-4.5-4.5c0-0.6,0.1-1.2,0.4-1.8c0.4-1,1.2-1.8,2.2-2.2c0.6-0.3,1.2-0.4,1.8-0.4
	C47.5,62.4,49.5,64.4,49.5,66.9z"/>
<path class="st0" d="M81,22.6c2,0,3.8-1.2,4.7-3.1l3.9-9.1c0.7-1.6,0.5-3.4-0.4-4.8c-0.9-1.4-2.5-2.3-4.2-2.3H5.1
	c-1.7,0-3.3,0.9-4.2,2.3c-0.9,1.4-1.1,3.2-0.4,4.8l3.9,9.1C5.2,21.5,7,22.6,9,22.6h15.3v13.1c-10.5,7-16.8,18.5-16.8,31.2
	c0,8.2,2.6,15.9,7.5,22.5v17.5c0,4,3.2,7.2,7.2,7.2s7.2-3.2,7.2-7.2v-0.5h31v0.5c0,4,3.2,7.2,7.2,7.2s7.2-3.2,7.2-7.2l0-17.5
	c4.9-6.5,7.5-14.3,7.5-22.5c0-12.6-6.3-24.2-16.8-31.2V22.6L81,22.6z M79.6,66.9c0,7.7-2.5,15-7.2,21.1c-0.2,0.2-0.3,0.6-0.3,0.9
	v17.9c0,2.4-2,4.4-4.4,4.4c-2.4,0-4.4-2-4.4-4.4v-2c0-0.8-0.6-1.4-1.4-1.4H28.1c-0.8,0-1.4,0.6-1.4,1.4v2c0,2.4-2,4.4-4.4,4.4
	c-2.4,0-4.4-2-4.4-4.4V88.9c0-0.3-0.1-0.6-0.3-0.9c-4.7-6.1-7.2-13.4-7.2-21.1c0-11.9,6-22.8,16.1-29.2c5.5-3.5,11.9-5.3,18.5-5.3
	c6.6,0,12.9,1.8,18.5,5.3C73.5,44,79.6,55,79.6,66.9L79.6,66.9z M27.2,34V22.6h35.6V34c-5.4-3-11.5-4.5-17.8-4.5
	C38.7,29.5,32.6,31,27.2,34L27.2,34z M64.2,19.8C64.2,19.8,64.2,19.8,64.2,19.8C64.2,19.8,64.2,19.8,64.2,19.8H25.8c0,0,0,0,0,0
	c0,0,0,0,0,0H9c-0.9,0-1.7-0.5-2-1.3L3,9.4C2.7,8.7,2.8,7.9,3.2,7.3c0.4-0.6,1.1-1,1.9-1h79.9c0.8,0,1.4,0.4,1.9,1
	c0.4,0.6,0.5,1.4,0.2,2.1L83,18.5c-0.4,0.8-1.2,1.3-2,1.3H64.2z"/>
</svg>
