<svg width="399" height="754" viewBox="0 0 399 754" fill="none" xmlns="http://www.w3.org/2000/svg">
<path d="M93.2374 143.711C96.6369 143.248 100.225 142.97 103.814 143.063C75.4847 142.508 51.594 159.441 49.4221 182.944C48.3834 194.696 51.9717 204.782 58.5818 212.832L59.1483 210.519L68.4024 212.092L67.1749 220.883C67.7414 221.253 68.308 221.715 68.8746 222.086L71.4242 213.202L81.3393 215.238L79.2618 227.545C79.6396 227.73 80.1117 227.915 80.5838 228.008L83.5112 215.793L93.6151 217.459L91.2544 231.061C91.821 231.154 92.3875 231.339 93.0485 231.431L95.6926 218.292L97.109 218.569C95.6926 212.37 94.6538 205.985 94.2761 199.323C93.2374 183.129 94.8427 168.972 98.5255 156.85L94.6538 157.128L93.2374 143.711ZM58.6762 161.662C61.1314 158.701 64.0587 156.11 67.3637 153.797L67.647 160.922L58.6762 161.662ZM70.6687 160.181L69.2523 152.501C72.4629 150.465 75.8624 148.707 79.6395 147.227L80.4894 158.978L70.6687 160.181ZM82.5669 158.516L80.8671 146.764C84.2666 145.561 87.7605 144.636 91.4432 143.988L92.5764 157.683L82.5669 158.516Z" fill="#33120E"/>
<path d="M396.923 593.049C398.434 582.13 399.095 570.933 398.906 559.552C387.291 565.751 369.161 570.193 348.575 571.118C343.476 571.303 338.471 571.303 333.655 571.118C323.079 570.656 313.258 569.175 304.949 566.769C304.76 573.247 304.193 579.354 303.155 585.183C314.392 590.55 329.311 594.529 345.365 596.38C366.045 598.786 384.742 597.305 396.923 593.049Z" fill="#B68176"/>
<path d="M373.032 630.802C363.495 630.431 353.013 628.858 342.437 626.175C323.551 621.456 307.404 614.053 297.205 606.188C295.317 610.722 293.145 614.979 290.784 619.05C291.917 620.345 293.145 621.548 294.561 622.844C303.815 631.634 317.602 640.055 333.372 646.717C349.047 653.287 364.156 656.988 376.337 657.729C380.964 649.031 384.93 639.87 388.235 630.432C383.42 630.894 378.415 630.987 373.032 630.802Z" fill="#B68176"/>
<path d="M293.711 623.677C292.389 622.474 291.256 621.271 290.123 620.068C287.668 623.954 285.024 627.563 282.191 630.894C282.285 631.079 282.474 631.264 282.568 631.449C289.651 641.998 301.265 653.194 315.052 663.003C328.933 672.811 343.381 679.936 355.94 683.268C356.979 683.545 358.018 683.823 359.056 684.008C365.289 676.05 370.766 667.537 375.581 658.654C363.4 657.914 348.197 654.212 332.71 647.735C316.941 641.073 303.06 632.56 293.711 623.677Z" fill="#B68176"/>
<path d="M388.235 629.228C388.329 629.228 388.329 629.228 388.423 629.228C392.201 617.94 395.034 606.188 396.828 594.066C386.913 597.397 373.031 599.063 357.545 598.415C353.579 598.23 349.519 597.953 345.364 597.49C329.311 595.639 314.391 591.66 303.059 586.293C301.737 593.048 299.943 599.433 297.582 605.263C307.592 613.035 323.739 620.438 342.72 625.157C359.245 629.229 375.487 630.709 388.235 629.228Z" fill="#B68176"/>
<path d="M73.2184 594.529C88.5159 591.383 103.436 591.198 115.334 594.066C118.261 594.806 120.905 595.639 123.266 596.657C122.038 592.216 121 587.496 120.15 582.685C109.668 576.022 91.821 572.691 72.0852 574.912C57.4486 576.485 44.0396 580.834 34.219 587.034C31.2917 588.884 28.7421 590.92 26.759 592.956C27.7978 600.266 29.2142 607.206 30.8195 613.868C40.0736 605.448 55.2767 598.23 73.2184 594.529Z" fill="#B68176"/>
<path d="M65.7582 559.459C88.5157 556.961 108.912 561.772 118.639 570.655C118.544 569.36 118.355 567.972 118.261 566.584C117.978 562.79 117.317 559.089 116.184 555.573C105.985 548.448 88.2324 544.469 68.4966 545.857C50.7439 547.06 35.163 552.334 25.6256 559.459C24.6813 563.623 24.3036 567.972 24.5869 572.414C24.5869 572.784 24.6813 573.246 24.6813 573.616C25.5312 572.969 26.4755 572.321 27.4198 571.673C37.3349 565.474 50.9327 561.125 65.7582 559.459Z" fill="#B68176"/>
<path d="M351.785 545.024C368.499 541.508 383.703 535.771 394.562 528.923C395.223 528.553 395.79 528.091 396.356 527.72C394.656 515.691 392.107 504.31 388.802 493.483C388.424 493.854 388.046 494.224 387.669 494.594C378.131 503.292 364.061 511.62 348.197 518.004C332.238 524.389 316.28 528.09 303.249 528.368C302.588 528.368 301.927 528.368 301.266 528.368C302.588 534.105 303.626 540.397 304.287 547.06C316.563 549.373 333.561 548.818 351.785 545.024Z" fill="#B68176"/>
<path d="M33.6523 586.108C43.5674 579.816 57.1652 575.375 71.9906 573.802C91.4431 571.673 109.196 574.819 119.961 581.389C119.489 578.428 119.111 575.467 118.828 572.321C109.857 563.16 89.1768 558.071 65.9471 560.662C51.3106 562.235 37.9016 566.584 28.0809 572.784C26.9478 573.524 25.8146 574.264 24.7759 575.097C25.248 580.834 25.8146 586.386 26.57 591.753C28.5531 589.717 30.9138 587.867 33.6523 586.108Z" fill="#B68176"/>
<path d="M115.617 553.999C113.445 548.17 110.14 542.803 105.985 538.361C95.7871 534.105 81.7171 532.254 66.5139 533.92C52.8217 535.4 40.5458 539.472 31.7639 544.931C29.2143 548.91 27.2312 553.259 26.0037 557.978C35.8243 551.038 51.0275 546.042 68.4025 544.839C87.6661 543.543 105.041 547.245 115.617 553.999Z" fill="#B68176"/>
<path d="M314.486 663.836C300.51 653.935 288.895 642.646 281.719 632.004C281.624 631.912 281.624 631.819 281.53 631.727C278.225 635.521 274.731 638.944 270.954 642.09C276.053 651.991 283.985 663.003 294.184 673.551C310.142 690.115 327.517 701.496 340.265 704.735C343.948 701.311 347.442 697.702 350.841 693.909C353.485 691.04 355.94 687.987 358.396 684.933C357.546 684.748 356.601 684.563 355.752 684.285C343.098 680.954 328.461 673.737 314.486 663.836Z" fill="#B68176"/>
<path d="M104.191 536.604C95.0313 527.906 82.1889 522.816 68.4966 523.649C53.7656 524.575 41.1121 531.977 33.2744 542.896C42.0564 537.899 53.6712 534.198 66.5136 532.81C80.678 531.329 94.087 532.81 104.191 536.604Z" fill="#B68176"/>
<path d="M348.575 570.007C369.349 569.082 387.574 564.641 398.905 558.441C398.811 555.295 398.717 552.149 398.528 549.003C398.056 542.155 397.395 535.493 396.45 529.016C395.978 529.293 395.506 529.663 395.034 529.941C384.08 536.881 368.782 542.618 351.974 546.134C338.943 548.91 326.384 549.928 315.808 549.465C311.653 549.28 307.781 548.91 304.287 548.262C304.476 550.391 304.665 552.611 304.854 554.925C305.137 558.626 305.137 562.235 305.137 565.751C317.035 569.175 332.427 570.748 348.575 570.007Z" fill="#B68176"/>
<path d="M209.291 344.784C210.897 341.638 212.03 338.677 212.88 335.993C205.892 332.107 199.093 328.313 192.577 324.427C191.539 328.406 189.367 332.94 185.967 337.936C178.696 348.578 166.987 359.867 152.917 369.675C141.302 377.818 129.593 383.833 119.111 387.626C127.704 393.456 136.486 398.823 145.174 404.005C156.128 399.286 168.781 390.958 180.868 380.039C193.522 368.565 203.531 356.073 209.291 344.784Z" fill="#B68176"/>
<path d="M205.797 393.826C221.189 377.263 231.293 359.682 233.748 347.005C231.86 345.987 229.971 345.062 228.083 344.044C223.267 341.546 218.545 338.955 213.918 336.456C213.068 339.14 211.935 342.101 210.33 345.154C204.475 356.628 194.371 369.213 181.718 380.687C169.82 391.513 157.26 399.748 146.307 404.56C155.655 410.02 164.909 415.201 173.88 420.013C183.984 414.276 195.221 405.3 205.797 393.826Z" fill="#B68176"/>
<path d="M185.118 337.289C188.517 332.292 190.689 327.758 191.633 323.779C185.023 319.8 178.696 315.821 172.747 311.75C171.142 315.544 168.309 319.615 164.343 324.057C155.656 333.587 142.341 343.118 127.043 350.891C113.634 357.646 100.037 362.458 88.1384 364.493C97.8647 372.544 107.969 379.946 118.167 386.886C128.649 383.185 140.547 377.078 152.35 368.75C166.232 359.034 177.941 347.837 185.118 337.289Z" fill="#B68176"/>
<path d="M63.8697 268.63C84.4553 265.576 102.491 259.932 112.029 254.009C110.423 251.511 109.007 249.013 107.591 246.422C105.608 246.884 101.642 246.144 98.903 245.959C61.6978 243.461 31.8581 214.868 34.1244 182.667C36.3907 150.466 69.9132 126.13 107.118 128.628C108.818 128.721 109.101 128.443 112.218 129.091H112.312C130.631 104.755 159.904 93.5582 187.1 91.8926C212.974 90.2271 232.615 68.3894 230.916 43.0355C229.216 17.6816 206.93 -1.56514 181.057 0.100448C128.932 3.33908 82.0002 24.529 49.0443 59.8764C31.7637 78.3829 18.7324 100.221 10.4226 124.557C2.01837 149.448 -1.38109 176.56 0.507497 205.152C1.92394 227.36 6.73985 248.55 14.9552 268.722C26.0035 271.313 44.2284 271.498 63.8697 268.63Z" fill="#B68176"/>
<path d="M163.493 323.316C167.459 318.967 170.292 314.896 171.803 311.195C146.401 294.076 126.193 275.847 112.784 254.935C103.153 260.949 85.3998 266.594 64.1532 269.647C51.4996 271.498 39.6959 272.146 29.9697 271.683C24.4928 271.406 19.5824 270.85 15.522 270.018C27.1368 298.24 45.2673 324.334 69.7245 348.115C75.2959 353.482 81.1505 358.664 87.0051 363.568C98.9977 361.625 112.784 356.813 126.477 349.966C141.68 342.285 154.806 332.755 163.493 323.316Z" fill="#CD8F82"/>
<path d="M232.804 399.748C244.325 385.221 252.257 370.323 255.562 358.294C251.596 356.258 247.63 354.222 243.664 352.187C240.642 350.614 237.715 349.133 234.693 347.56C232.049 360.515 221.945 378.096 206.647 394.659C196.26 405.948 185.117 414.831 175.013 420.661C178.035 422.234 180.962 423.807 183.984 425.38C188.328 427.693 192.672 429.914 196.921 432.042C207.969 426.028 221.001 414.554 232.804 399.748Z" fill="#B68176"/>
<path d="M347.63 517.079C363.494 510.787 377.375 502.459 386.818 493.853C387.385 493.391 387.857 492.835 388.424 492.373C385.496 483.212 382.097 474.421 378.036 466.094C369.632 475.347 356.412 485.063 340.454 493.113C325.156 500.793 309.575 505.79 296.544 507.178C295.694 507.27 294.938 507.363 294.089 507.363C296.922 513.378 299.188 520.04 300.888 527.257C301.643 527.257 302.304 527.257 303.059 527.257C315.996 527.072 331.766 523.371 347.63 517.079Z" fill="#B68176"/>
<path d="M319.774 447.773C329.783 437.501 337.715 426.675 342.909 417.052C334.882 409.094 326.478 401.876 317.602 395.307C317.602 395.492 317.507 395.584 317.507 395.677C314.013 407.984 306.459 422.234 296.261 435.836C284.929 450.826 272.181 462.578 261.133 468.962C265.382 472.109 269.348 475.347 272.937 478.771C276.147 478.031 279.641 476.828 283.418 474.977C295.033 469.61 307.97 459.894 319.774 447.773Z" fill="#B68176"/>
<path d="M339.793 492.188C355.94 484.138 369.161 474.329 377.47 465.169C373.41 457.026 368.783 449.161 363.589 441.758C356.129 452.122 344.231 463.041 330.067 472.479C315.808 482.01 300.983 488.857 288.329 491.818C287.196 492.096 286.157 492.281 285.024 492.466C288.235 496.815 291.067 501.442 293.523 506.438C294.467 506.346 295.317 506.346 296.355 506.161C309.198 504.773 324.59 499.776 339.793 492.188Z" fill="#B68176"/>
<path d="M295.316 435.281C305.42 421.771 312.975 407.706 316.374 395.492C316.468 395.214 316.563 394.937 316.563 394.659C309.953 389.847 303.154 385.313 296.166 380.964C293.9 393.641 286.629 409.927 275.203 426.027C265.76 439.445 254.9 450.734 244.419 457.951C250.084 461.375 255.278 464.891 260.094 468.407C271.142 462.115 283.89 450.363 295.316 435.281Z" fill="#B68176"/>
<path d="M255.845 407.706C264.816 393.549 270.765 379.391 273.315 367.825C267.743 364.771 262.172 361.81 256.412 358.849C253.012 370.971 245.175 385.961 233.654 400.489C222.039 415.201 209.103 426.49 197.865 432.597C198.526 432.968 199.282 433.338 199.943 433.708C207.497 437.594 214.674 441.296 221.284 444.904C222.795 443.979 224.306 442.961 225.911 441.758C236.204 433.985 246.78 421.864 255.845 407.706Z" fill="#B68176"/>
<path d="M274.353 425.38C285.779 409.186 293.144 392.808 295.316 380.316C288.423 376.152 281.435 372.081 274.258 368.195C271.709 379.946 265.665 394.104 256.789 408.169C247.724 422.511 237.053 434.725 226.666 442.406C225.249 443.516 223.833 444.441 222.511 445.274C230.065 449.346 237.148 453.324 243.569 457.211C253.956 450.178 264.815 438.889 274.353 425.38Z" fill="#B68176"/>
<path d="M329.5 471.553C343.665 462.115 355.468 451.289 362.928 440.833C362.928 440.833 362.928 440.74 363.023 440.74C357.263 432.69 350.841 425.01 343.759 417.792C338.566 427.508 330.633 438.242 320.624 448.513C308.726 460.727 295.695 470.443 283.891 475.995C280.303 477.66 276.903 478.863 273.881 479.696C277.753 483.397 281.341 487.284 284.457 491.448C285.685 491.263 286.913 490.985 288.235 490.708C300.699 487.747 315.336 480.899 329.5 471.553Z" fill="#B68176"/>
<path d="M95.8811 652.084C109.101 644.033 122.888 638.574 134.786 636.723C138.752 636.076 142.34 635.891 145.457 636.168C142.813 633.485 140.357 630.616 138.091 627.563C136.675 627.378 135.258 627.193 133.653 627.007C121.849 626.082 107.307 628.118 92.5761 632.837C71.8016 639.499 55.2764 650.048 48.3831 659.949C52.8212 668.277 57.7316 675.68 62.7364 682.342C69.0631 672.348 80.7724 661.337 95.8811 652.084Z" fill="#B68176"/>
<path d="M199.848 675.31C200.887 669.758 202.492 665.131 204.759 661.522C201.737 661.245 198.715 660.875 195.693 660.412C192.766 663.465 190.216 667.722 188.233 672.996C184.173 683.823 182.851 697.795 184.551 712.323C186.156 726.85 190.594 740.175 197.015 749.891C197.865 751.186 198.715 752.389 199.659 753.5C206.836 753.962 214.013 754.147 221.378 753.87C213.635 744.709 207.119 731.662 203.059 717.134C198.81 702.144 197.676 687.246 199.848 675.31Z" fill="#B68176"/>
<path d="M223.361 718.522C217.695 702.422 215.996 686.136 218.545 672.534C219.301 668.555 220.434 664.946 221.85 661.707C216.468 661.985 211.274 661.985 206.08 661.615C203.814 665.131 202.02 669.85 201.076 675.495C198.904 687.339 200.037 701.959 204.097 716.857C208.252 731.569 214.862 744.709 222.794 753.87C225.25 753.777 227.799 753.685 230.254 753.5C230.349 753.5 230.443 753.5 230.443 753.5C230.538 753.5 230.632 753.5 230.632 753.5C230.727 753.5 230.821 753.5 230.915 753.5C231.01 753.5 231.104 753.5 231.199 753.5C235.165 753.222 239.036 752.852 242.908 752.297C234.787 743.321 227.988 731.662 223.361 718.522Z" fill="#B68176"/>
<path d="M166.893 701.496C170.292 682.897 178.035 667.259 187.101 658.654C184.079 657.913 181.151 657.081 178.319 656.063C175.014 657.451 171.52 659.672 167.931 662.725C159.055 670.313 151.028 681.879 145.363 695.389C139.697 708.899 136.958 722.686 137.808 734.16C137.997 736.196 138.186 738.047 138.564 739.897C149.045 744.061 159.999 747.392 171.331 749.706C170.009 747.3 168.876 744.524 167.931 741.47C164.626 730.274 164.249 716.024 166.893 701.496Z" fill="#B68176"/>
<path d="M183.418 712.508C181.718 697.795 183.134 683.73 187.195 672.719C189.178 667.537 191.633 663.373 194.466 660.227C192.388 659.857 190.311 659.487 188.233 659.024C179.168 667.352 171.331 682.99 167.931 701.774C165.381 716.116 165.759 730.181 169.064 741.193C170.103 744.524 171.331 747.485 172.747 749.983C180.962 751.649 189.461 752.759 198.054 753.407C197.393 752.482 196.638 751.556 195.977 750.446C189.555 740.638 185.023 727.128 183.418 712.508Z" fill="#B68176"/>
<path d="M126.193 682.712C134.692 670.498 145.174 660.69 155.561 655.045C159.149 653.102 162.549 651.714 165.759 650.881C162.549 649.215 159.527 647.457 156.6 645.422C144.135 646.532 128.082 654.49 113.634 667.537C102.68 677.53 94.465 688.912 90.3101 699.646C88.9881 703.069 88.1382 706.308 87.7605 709.269C87.9494 709.454 88.1382 709.639 88.4215 709.824C95.2204 715.561 102.397 720.836 109.951 725.555C110.235 713.34 115.806 697.61 126.193 682.712Z" fill="#B68176"/>
<path d="M144.324 695.019C150.084 681.324 158.205 669.573 167.176 661.893C170.481 659.117 173.691 656.988 176.808 655.508C173.503 654.305 170.386 653.01 167.365 651.529C163.871 652.269 160.094 653.657 156.128 655.878C145.835 661.523 135.542 671.238 127.138 683.268C116.562 698.35 110.99 714.174 111.085 726.203C119.394 731.292 128.176 735.641 137.336 739.435C137.053 737.769 136.864 736.104 136.675 734.346C135.92 722.687 138.564 708.714 144.324 695.019Z" fill="#B68176"/>
<path d="M112.973 666.797C127.043 653.935 142.907 646.07 155.466 644.496C153.672 643.201 151.878 641.813 150.178 640.425C148.951 639.407 147.818 638.297 146.685 637.279C143.38 636.909 139.413 637.094 134.975 637.742C123.266 639.592 109.668 644.959 96.5425 653.009C81.3393 662.263 69.5356 673.367 63.3977 683.268C71.1409 693.446 79.2619 701.774 86.9106 708.529C87.2884 705.66 88.1382 702.607 89.3658 699.368C93.5207 688.449 101.925 676.883 112.973 666.797Z" fill="#B68176"/>
<path d="M92.2929 631.819C107.118 627.1 121.849 624.972 133.747 625.897C134.975 625.99 136.108 626.082 137.147 626.267C134.125 622.011 131.481 617.477 129.12 612.48C126.288 611.462 122.982 610.722 119.394 610.167C107.402 608.594 92.6706 610.352 78.034 615.071C63.3975 619.79 50.4606 626.915 41.7731 635.151C40.64 636.261 39.5068 637.371 38.5625 638.482C41.3954 645.792 44.5116 652.639 47.911 658.931C55.1821 648.938 71.6128 638.482 92.2929 631.819Z" fill="#B68176"/>
<path d="M235.07 660.042C231.482 660.874 227.894 661.337 224.4 661.615C224.305 661.615 224.211 661.615 224.117 661.615C224.022 661.615 223.928 661.615 223.833 661.615C223.55 661.615 223.267 661.615 222.889 661.707C221.378 664.946 220.245 668.647 219.49 672.811C216.94 686.228 218.64 702.421 224.305 718.244C229.027 731.477 235.92 743.228 244.136 752.019C251.784 750.908 259.433 749.15 266.893 747.022C259.811 739.434 252.823 729.626 247.063 718.244C235.637 695.759 231.482 673.551 235.07 660.042Z" fill="#B68176"/>
<path d="M77.7508 614.146C92.5762 609.334 107.402 607.669 119.583 609.242C122.888 609.704 125.91 610.352 128.554 611.277C126.665 607.113 125.06 602.764 123.738 598.138C121.188 597.027 118.355 596.009 115.145 595.269C103.436 592.401 88.6102 592.586 73.5014 595.732C55.371 599.433 40.1678 606.836 31.197 615.164C33.18 623.121 35.5408 630.617 38.1848 637.556C39.0347 636.539 40.0734 635.613 41.1121 634.596C49.8941 626.083 62.9253 618.865 77.7508 614.146Z" fill="#B68176"/>
<path d="M270.104 642.738C267.176 645.144 264.06 647.272 260.944 649.308C261.039 649.771 261.133 650.141 261.227 650.604C264.627 663.743 272.37 678.826 283.135 693.076C293.428 706.678 304.854 717.504 315.524 724.444C323.929 718.892 331.955 712.6 339.415 705.568C326.478 702.052 309.198 690.763 293.333 674.384C283.229 663.743 275.297 652.732 270.104 642.738Z" fill="#B68176"/>
<path d="M282.286 693.631C271.426 679.289 263.589 664.021 260.189 650.789C260.095 650.511 260 650.141 260 649.863C256.695 651.806 253.39 653.565 249.991 655.045C249.519 668.185 254.051 686.043 263.305 703.995C270.86 718.615 280.114 730.737 289.273 738.694C298.055 734.808 306.554 730.181 314.58 724.907C304.004 717.967 292.484 707.141 282.286 693.631Z" fill="#B68176"/>
<path d="M262.266 704.55C253.107 686.692 248.574 668.925 248.952 655.601C244.702 657.451 240.359 658.839 236.204 659.857C232.427 672.904 236.582 695.204 248.196 717.782C254.051 729.256 261.039 739.065 268.215 746.745C275.014 744.709 281.719 742.211 288.329 739.342C279.075 731.107 269.821 719.078 262.266 704.55Z" fill="#B68176"/>
<path d="M101.547 232.357C101.452 232.357 101.358 232.357 101.263 232.357C103.058 237.169 105.229 241.888 107.685 246.422C108.062 246.329 108.346 246.237 108.629 246.052C109.951 244.941 112.784 244.386 113.256 238.834C113.634 233.282 106.74 232.542 106.74 232.542C105.324 232.542 103.907 232.542 102.491 232.449C102.397 232.449 102.208 232.449 102.113 232.449C101.924 232.357 101.736 232.357 101.547 232.357Z" fill="#943121"/>
<path d="M104.852 143.063H104.947C105.702 143.063 106.457 143.063 107.213 143.156C107.213 143.156 115.145 143.248 116.184 137.233C117.222 131.311 115.334 129.831 112.312 129.091C109.102 133.347 106.269 137.974 103.813 142.97C104.191 142.97 104.474 143.063 104.852 143.063Z" fill="#943121"/>
<path d="M107.213 128.536C70.0075 126.037 36.4851 150.466 34.2187 182.575C31.9524 214.776 61.7922 243.368 98.9974 245.867C101.736 246.052 105.702 246.7 107.685 246.329C105.23 241.795 103.152 237.076 101.264 232.265C101.169 232.265 101.075 232.265 100.98 232.265C100.886 232.265 100.792 232.265 100.697 232.265C98.0531 232.079 95.5035 231.802 93.0483 231.432V231.339C92.4818 231.247 91.9152 231.154 91.2542 230.969V231.062C87.5714 230.321 83.9831 229.304 80.4892 228.101V227.916C80.0171 227.73 79.6393 227.545 79.1672 227.453V227.638C75.4844 226.157 71.9906 224.307 68.7799 222.271L68.8744 221.993C68.3078 221.623 67.7412 221.253 67.1746 220.791V221.068C63.8696 218.755 61.0367 216.071 58.4871 213.11L58.5816 212.833C51.8771 204.782 48.3832 194.696 49.4219 182.945C51.5938 159.349 75.4844 142.508 103.813 143.063C106.268 137.974 109.101 133.347 112.312 129.183H112.218C109.196 128.351 108.912 128.721 107.213 128.536Z" fill="#943121"/>
<path d="M59.1481 210.519L58.5815 212.832C61.0367 215.793 63.964 218.477 67.1746 220.883L68.4022 212.092L59.1481 210.519Z" fill="white"/>
<path d="M58.5817 212.833L58.4873 213.11C60.9425 216.071 63.8698 218.755 67.1748 221.068V220.79C63.9642 218.477 61.1313 215.794 58.5817 212.833Z" fill="white"/>
<path d="M71.5186 213.11L68.969 221.993C72.1796 224.121 75.5791 225.972 79.3562 227.453L81.4337 215.146L71.5186 213.11Z" fill="white"/>
<path d="M68.8748 222.271C72.0854 224.399 75.5793 226.157 79.262 227.638V227.453C75.5793 225.972 72.0854 224.121 68.8748 221.993V222.271Z" fill="white"/>
<path d="M83.5108 215.794L80.5835 228.008C83.983 229.303 87.5713 230.321 91.254 231.062L93.6148 217.459L83.5108 215.794Z" fill="white"/>
<path d="M80.4893 228.101C83.8887 229.396 87.4771 230.414 91.2542 231.062V230.969C87.5715 230.229 83.9832 229.211 80.5837 227.916L80.4893 228.101Z" fill="white"/>
<path d="M101.547 232.357C101.831 232.357 102.114 232.357 102.397 232.357C103.247 232.357 104.097 232.45 105.041 232.45L106.552 220.05L97.2036 218.477C98.3368 223.196 99.7532 227.823 101.359 232.357C101.359 232.357 101.453 232.357 101.547 232.357Z" fill="white"/>
<path d="M93.0483 231.339C95.5035 231.802 98.1475 232.079 100.697 232.264C100.886 232.264 101.075 232.264 101.264 232.264C99.564 227.73 98.1475 223.103 97.1088 218.384L95.6924 218.107L93.0483 231.339Z" fill="white"/>
<path d="M93.0483 231.432C95.5979 231.894 98.1475 232.172 100.697 232.264C98.0531 232.172 95.5035 231.802 93.0483 231.432Z" fill="white"/>
<path d="M58.6763 161.662L67.6471 160.922L67.3638 153.797C64.0587 156.11 61.1314 158.793 58.6763 161.662Z" fill="white"/>
<path d="M69.2522 152.501L70.6686 160.182L80.4893 158.979L79.6394 147.227C75.8623 148.708 72.3684 150.466 69.2522 152.501Z" fill="white"/>
<path d="M80.8674 146.765L82.5672 158.516L92.5767 157.684L91.4435 143.989C87.7608 144.636 84.2669 145.562 80.8674 146.765Z" fill="white"/>
<path d="M103.813 143.063C101.736 147.32 99.9416 151.946 98.5251 156.851L105.324 156.295L104.946 143.156H104.852C104.474 143.063 104.191 143.063 103.813 143.063Z" fill="white"/>
<path d="M93.2373 143.711L94.6537 157.128L98.5254 156.85C100.036 151.946 101.736 147.412 103.813 143.063C100.225 142.97 96.6368 143.248 93.2373 143.711Z" fill="white"/>
<path d="M185.967 337.936C189.367 332.94 191.538 328.406 192.577 324.427C192.294 324.242 191.916 324.057 191.633 323.872C190.689 327.85 188.517 332.385 185.117 337.381C177.941 347.93 166.326 359.126 152.35 368.842C140.547 377.078 128.648 383.277 118.167 386.979C118.544 387.256 118.828 387.441 119.205 387.719C129.687 384.018 141.396 377.911 153.011 369.768C166.987 359.867 178.791 348.578 185.967 337.936Z" fill="#4B1810"/>
<path d="M164.248 324.057C168.214 319.708 171.047 315.544 172.652 311.75C172.369 311.565 171.991 311.38 171.708 311.102C170.197 314.803 167.364 318.875 163.398 323.224C154.805 332.662 141.585 342.1 126.382 349.781C112.784 356.721 98.9029 361.44 86.9104 363.383C87.2881 363.66 87.6658 364.031 88.0436 364.308C99.9417 362.272 113.54 357.461 126.949 350.706C142.341 343.118 155.561 333.587 164.248 324.057Z" fill="#4B1810"/>
<path d="M64.0584 269.647C85.3051 266.501 103.058 260.949 112.69 254.935C112.501 254.657 112.312 254.287 112.123 254.01C102.586 259.932 84.5496 265.576 63.964 268.63C44.2282 271.498 26.0033 271.313 14.9551 268.722C15.1439 269.185 15.3328 269.555 15.5217 270.018C19.5821 270.943 24.398 271.498 29.9694 271.683C39.6012 272.146 51.4049 271.498 64.0584 269.647Z" fill="#4B1810"/>
<path d="M210.33 345.247C211.935 342.193 213.068 339.232 213.918 336.549C213.635 336.364 213.257 336.178 212.974 335.993C212.124 338.677 210.991 341.638 209.386 344.784C203.626 356.073 193.522 368.565 180.962 379.946C168.875 390.958 156.222 399.193 145.268 403.912C145.646 404.097 146.024 404.375 146.307 404.56C157.261 399.748 169.725 391.513 181.718 380.687C194.371 369.305 204.475 356.721 210.33 345.247Z" fill="#4B1810"/>
<path d="M206.553 394.566C221.85 378.003 231.954 360.422 234.598 347.467C234.315 347.282 234.032 347.189 233.654 347.004C231.199 359.589 221.001 377.17 205.703 393.826C195.127 405.207 183.89 414.275 173.786 420.012C174.164 420.198 174.447 420.383 174.825 420.568C185.023 414.831 196.166 405.855 206.553 394.566Z" fill="#4B1810"/>
<path d="M233.654 400.396C245.174 385.868 253.106 370.878 256.411 358.756C256.128 358.571 255.845 358.479 255.467 358.293C252.162 370.23 244.23 385.128 232.71 399.748C221 414.553 207.875 426.027 196.732 432.042C197.11 432.227 197.487 432.412 197.771 432.597C209.102 426.397 222.039 415.108 233.654 400.396Z" fill="#4B1810"/>
<path d="M256.789 408.261C265.665 394.196 271.709 380.039 274.258 368.287C273.975 368.102 273.597 367.917 273.314 367.824C270.765 379.483 264.721 393.641 255.845 407.706C246.874 421.956 236.203 433.985 226.005 441.665C224.4 442.868 222.889 443.886 221.378 444.811C221.756 444.996 222.133 445.181 222.511 445.366C223.833 444.534 225.25 443.516 226.666 442.498C236.959 434.725 247.724 422.603 256.789 408.261Z" fill="#4B1810"/>
<path d="M275.297 426.027C286.629 409.927 293.994 393.548 296.26 380.964C295.977 380.779 295.694 380.594 295.316 380.409C293.144 392.901 285.779 409.279 274.353 425.472C264.815 438.889 253.862 450.178 243.474 457.396C243.852 457.581 244.135 457.766 244.513 458.043C254.9 450.733 265.76 439.444 275.297 426.027Z" fill="#4B1810"/>
<path d="M296.166 435.928C306.365 422.326 313.919 408.076 317.413 395.769C317.413 395.584 317.507 395.491 317.507 395.399C317.224 395.121 316.846 394.936 316.563 394.659C316.469 394.936 316.469 395.214 316.374 395.491C312.88 407.706 305.42 421.771 295.316 435.28C283.985 450.363 271.143 462.115 260.189 468.407C260.472 468.592 260.755 468.87 261.039 469.055C272.181 462.577 284.929 450.918 296.166 435.928Z" fill="#4B1810"/>
<path d="M320.529 448.605C330.539 438.334 338.471 427.6 343.664 417.885C343.381 417.607 343.192 417.422 342.909 417.144C337.715 426.86 329.783 437.594 319.774 447.865C307.97 459.987 295.033 469.61 283.418 475.07C279.641 476.828 276.053 478.123 272.937 478.863C273.22 479.141 273.598 479.419 273.881 479.789C276.997 479.048 280.302 477.846 283.891 476.087C295.6 470.535 308.631 460.727 320.529 448.605Z" fill="#4B1810"/>
<path d="M330.161 472.386C344.325 462.948 356.129 452.121 363.683 441.665C363.494 441.387 363.211 441.017 363.022 440.74C363.022 440.74 363.022 440.832 362.928 440.832C355.562 451.196 343.664 462.115 329.5 471.553C315.335 480.991 300.699 487.746 288.139 490.707C286.817 490.985 285.59 491.262 284.362 491.448C284.646 491.725 284.834 492.095 285.118 492.465C286.156 492.28 287.29 492.003 288.423 491.818C301.076 488.764 315.902 481.917 330.161 472.386Z" fill="#4B1810"/>
<path d="M340.359 493.113C356.412 485.063 369.632 475.347 377.942 466.094C377.753 465.724 377.659 465.446 377.47 465.168C369.255 474.329 355.94 484.138 339.793 492.188C324.589 499.776 309.103 504.772 296.261 506.16C295.316 506.253 294.372 506.345 293.428 506.438C293.617 506.808 293.805 507.178 293.9 507.456C294.655 507.363 295.505 507.363 296.355 507.271C309.386 505.79 324.967 500.793 340.359 493.113Z" fill="#4B1810"/>
<path d="M348.008 518.097C363.967 511.713 377.942 503.385 387.48 494.687C387.857 494.316 388.235 493.946 388.613 493.576C388.518 493.206 388.424 492.836 388.235 492.373C387.763 492.836 387.196 493.391 386.63 493.854C377.187 502.459 363.306 510.695 347.442 517.079C331.577 523.372 315.808 527.073 302.871 527.351C302.115 527.351 301.36 527.351 300.699 527.351C300.793 527.721 300.888 528.091 300.982 528.461C301.643 528.461 302.304 528.461 302.965 528.461C316.185 528.091 332.144 524.482 348.008 518.097Z" fill="#4B1810"/>
<path d="M351.974 546.134C368.783 542.618 384.08 536.881 395.034 529.941C395.506 529.664 395.978 529.293 396.45 529.016C396.356 528.646 396.356 528.183 396.262 527.813C395.695 528.183 395.034 528.646 394.467 529.016C383.608 535.863 368.405 541.6 351.691 545.117C333.466 548.91 316.469 549.466 304.098 547.245C304.098 547.615 304.193 547.893 304.193 548.263C307.687 548.91 311.558 549.281 315.713 549.466C326.478 549.836 338.943 548.818 351.974 546.134Z" fill="#4B1810"/>
<path d="M348.669 571.118C369.255 570.193 387.385 565.751 399 559.551C399 559.181 399 558.811 399 558.441C387.669 564.641 369.349 569.082 348.669 570.007C332.522 570.748 317.13 569.175 305.137 565.658C305.137 566.029 305.137 566.399 305.137 566.769C313.447 569.175 323.268 570.655 333.844 571.118C338.565 571.303 343.57 571.303 348.669 571.118Z" fill="#4B1810"/>
<path d="M357.546 598.508C373.032 599.156 386.913 597.582 396.829 594.159C396.923 593.789 396.923 593.418 397.017 593.048C384.742 597.305 366.045 598.785 345.553 596.38C329.5 594.529 314.58 590.55 303.343 585.183C303.249 585.553 303.155 585.923 303.155 586.294C314.486 591.66 329.406 595.639 345.459 597.49C349.519 597.953 353.58 598.323 357.546 598.508Z" fill="#4B1810"/>
<path d="M373.032 630.802C378.32 630.987 383.419 630.894 388.046 630.432C388.14 630.061 388.329 629.691 388.424 629.321C388.329 629.321 388.329 629.321 388.235 629.321C375.392 630.802 359.245 629.321 342.625 625.157C323.645 620.438 307.498 613.035 297.488 605.263C297.394 605.54 297.205 605.91 297.11 606.188C307.309 614.053 323.456 621.456 342.342 626.175C353.013 628.766 363.494 630.339 373.032 630.802Z" fill="#4B1810"/>
<path d="M294.466 622.844C293.05 621.548 291.822 620.253 290.689 619.05C290.5 619.42 290.311 619.698 290.123 620.068C291.161 621.271 292.389 622.474 293.711 623.677C303.059 632.56 316.941 641.073 332.805 647.735C348.291 654.212 363.494 657.914 375.676 658.654C375.865 658.376 376.053 658.006 376.148 657.729C364.061 656.988 348.858 653.287 333.182 646.717C317.507 640.147 303.72 631.634 294.466 622.844Z" fill="#4B1810"/>
<path d="M315.147 663.003C301.266 653.194 289.745 641.998 282.663 631.449C282.569 631.264 282.38 631.079 282.285 630.894C282.002 631.172 281.813 631.449 281.53 631.727C281.624 631.819 281.624 631.912 281.719 632.004C288.895 642.646 300.51 654.027 314.486 663.836C328.461 673.737 343.098 680.954 355.657 684.285C356.601 684.563 357.451 684.748 358.301 684.933C358.584 684.655 358.773 684.285 359.056 684.008C358.018 683.823 356.979 683.545 355.94 683.267C343.476 679.936 329.028 672.811 315.147 663.003Z" fill="#4B1810"/>
<path d="M270.954 642.091C270.671 642.276 270.387 642.553 270.104 642.738C275.203 652.732 283.23 663.743 293.334 674.292C309.103 690.67 326.384 702.052 339.415 705.475C339.699 705.198 339.982 704.92 340.265 704.642C327.517 701.404 310.142 690.022 294.184 673.459C283.985 663.003 276.053 651.992 270.954 642.091Z" fill="#4B1810"/>
<path d="M113.728 667.63C128.176 654.49 144.229 646.625 156.694 645.514C156.222 645.237 155.844 644.959 155.466 644.589C142.907 646.07 127.137 654.027 112.973 666.889C101.925 676.975 93.5205 688.542 89.3656 699.461C88.138 702.699 87.2881 705.753 86.9104 708.622C87.2881 708.899 87.5714 709.177 87.8547 709.454C88.2324 706.493 89.0823 703.255 90.4043 699.831C94.5592 689.005 102.775 677.531 113.728 667.63Z" fill="#4B1810"/>
<path d="M127.138 683.267C135.542 671.238 145.835 661.522 156.128 655.878C160.094 653.75 163.871 652.269 167.365 651.529C166.892 651.251 166.326 651.066 165.854 650.789C162.643 651.621 159.244 653.009 155.655 654.953C145.268 660.597 134.786 670.498 126.288 682.62C115.806 697.517 110.235 713.34 110.046 725.555C110.424 725.74 110.707 726.017 111.085 726.203C111.085 714.266 116.656 698.35 127.138 683.267Z" fill="#4B1810"/>
<path d="M173.031 650.141L173.22 649.956C173.125 649.956 172.936 649.956 172.842 649.956C172.936 650.049 173.031 650.141 173.031 650.141Z" fill="#4B1810"/>
<path d="M138.563 739.897C138.185 739.712 137.713 739.527 137.335 739.435L138.563 739.897Z" fill="#4B1810"/>
<path d="M145.363 695.482C151.028 681.972 159.055 670.406 167.931 662.818C171.425 659.765 174.919 657.544 178.319 656.156C177.846 655.971 177.374 655.786 176.808 655.601C173.691 657.081 170.386 659.209 167.176 661.985C158.205 669.666 150.084 681.417 144.324 695.112C138.564 708.807 135.825 722.687 136.675 734.346C136.77 736.104 137.053 737.862 137.336 739.435C137.714 739.62 138.186 739.805 138.564 739.898C138.186 738.14 137.997 736.196 137.808 734.161C136.958 722.687 139.697 708.992 145.363 695.482Z" fill="#4B1810"/>
<path d="M167.931 701.681C171.331 682.897 179.168 667.259 188.234 658.931C187.856 658.839 187.478 658.746 187.006 658.654C177.941 667.259 170.198 682.897 166.798 701.496C164.154 716.024 164.626 730.181 167.931 741.47C168.876 744.524 170.009 747.3 171.331 749.706C171.803 749.798 172.275 749.891 172.747 749.983C171.331 747.485 170.103 744.524 169.064 741.193C165.759 730.089 165.382 716.116 167.931 701.681Z" fill="#4B1810"/>
<path d="M184.551 712.323C182.945 697.795 184.267 683.823 188.233 672.997C190.217 667.63 192.766 663.373 195.693 660.412C195.221 660.32 194.844 660.227 194.371 660.227C191.539 663.281 189.083 667.537 187.1 672.719C182.945 683.73 181.623 697.795 183.323 712.508C185.023 727.221 189.461 740.638 195.882 750.539C196.543 751.557 197.299 752.574 197.96 753.5C198.432 753.5 198.904 753.592 199.471 753.592C198.621 752.482 197.676 751.279 196.827 749.984C190.594 740.175 186.156 726.85 184.551 712.323Z" fill="#4B1810"/>
<path d="M200.981 675.495C202.02 669.85 203.72 665.131 205.986 661.615C205.608 661.615 205.136 661.522 204.759 661.522C202.492 665.131 200.887 669.758 199.848 675.31C197.676 687.246 198.81 702.144 202.964 717.134C207.025 731.662 213.541 744.709 221.284 753.87C221.756 753.87 222.228 753.87 222.7 753.777C214.768 744.709 208.158 731.569 204.003 716.764C199.943 701.959 198.81 687.339 200.981 675.495Z" fill="#4B1810"/>
<path d="M263.305 703.995C254.05 686.044 249.518 668.185 249.99 655.045C249.612 655.23 249.329 655.323 248.951 655.508C248.574 668.832 253.106 686.599 262.266 704.458C269.726 718.985 278.98 731.014 288.234 739.157C288.612 738.972 288.895 738.88 289.273 738.695C280.113 730.737 270.764 718.615 263.305 703.995Z" fill="#4B1810"/>
<path d="M236.204 659.764C235.826 659.857 235.448 659.95 235.071 660.042C231.482 673.552 235.637 695.76 247.158 718.152C253.012 729.441 259.906 739.342 266.988 746.93C267.366 746.837 267.743 746.745 268.121 746.56C260.944 738.972 253.957 729.071 248.102 717.597C236.582 695.112 232.427 672.811 236.204 659.764Z" fill="#4B1810"/>
<path d="M224.4 718.152C218.829 702.237 217.035 686.136 219.584 672.719C220.34 668.647 221.473 664.946 222.984 661.615C222.606 661.615 222.134 661.615 221.756 661.707C220.34 664.946 219.206 668.555 218.451 672.534C215.901 686.136 217.601 702.514 223.267 718.522C227.894 731.662 234.693 743.321 242.814 752.112C243.286 752.019 243.664 752.019 244.136 751.926C236.015 743.136 229.122 731.477 224.4 718.152Z" fill="#4B1810"/>
<path d="M96.4481 653.009C109.574 645.052 123.266 639.592 134.881 637.742C139.319 637.094 143.191 636.909 146.59 637.279C146.212 636.909 145.835 636.446 145.457 636.076C142.341 635.891 138.753 636.076 134.787 636.631C122.983 638.482 109.196 643.941 95.8816 651.992C80.7728 661.245 68.9692 672.256 62.7368 682.342C62.9257 682.62 63.209 682.897 63.3978 683.175C69.5357 673.367 81.3394 662.263 96.4481 653.009Z" fill="#4B1810"/>
<path d="M92.5758 632.837C107.212 628.118 121.849 625.99 133.653 627.008C135.164 627.1 136.674 627.286 138.091 627.563C137.808 627.193 137.524 626.73 137.147 626.36C136.013 626.175 134.88 626.083 133.747 625.99C121.849 625.065 107.118 627.1 92.2925 631.912C71.7069 638.574 55.2761 649.031 47.9106 659.117C48.0995 659.487 48.2884 659.764 48.3828 660.135C55.3706 650.049 71.8957 639.5 92.5758 632.837Z" fill="#4B1810"/>
<path d="M78.034 615.164C92.6705 610.444 107.402 608.686 119.394 610.259C123.077 610.722 126.287 611.462 129.12 612.573C128.931 612.11 128.743 611.647 128.459 611.185C125.815 610.259 122.794 609.612 119.489 609.149C107.307 607.576 92.4817 609.334 77.6562 614.053C62.8308 618.865 49.7995 625.99 40.9232 634.41C39.8844 635.428 38.9401 636.354 37.9958 637.371C38.1847 637.742 38.2791 638.112 38.468 638.482C39.4123 637.371 40.5454 636.261 41.6786 635.151C50.555 627.008 63.3974 619.883 78.034 615.164Z" fill="#4B1810"/>
<path d="M73.5013 595.547C88.61 592.401 103.435 592.308 115.145 595.084C118.355 595.824 121.188 596.842 123.738 597.952C123.643 597.49 123.455 597.027 123.36 596.564C120.999 595.547 118.355 594.714 115.428 593.974C103.53 591.105 88.5156 591.29 73.3124 594.436C55.3708 598.138 40.1677 605.448 30.9136 613.776C31.008 614.146 31.1024 614.516 31.1969 614.886C40.0732 606.65 55.3708 599.248 73.5013 595.547Z" fill="#4B1810"/>
<path d="M34.3129 586.941C44.0391 580.742 57.5425 576.393 72.1791 574.82C91.9149 572.691 109.762 575.93 120.244 582.592C120.149 582.13 120.149 581.667 120.055 581.297C109.29 574.82 91.5371 571.673 72.0847 573.709C57.2592 575.282 43.6614 579.724 33.7463 586.016C31.0078 587.774 28.6471 589.625 26.6641 591.568C26.7585 592.031 26.7585 592.493 26.8529 592.863C28.8359 590.828 31.2911 588.884 34.3129 586.941Z" fill="#4B1810"/>
<path d="M65.8529 560.569C89.0826 558.071 109.763 563.068 118.733 572.228C118.639 571.673 118.639 571.21 118.639 570.655C108.913 561.772 88.516 557.053 65.7585 559.459C50.933 561.032 37.3352 565.473 27.4201 571.766C26.4758 572.413 25.5315 573.061 24.6816 573.709C24.6816 574.171 24.7761 574.542 24.7761 575.004C25.8148 574.264 26.8535 573.431 28.0811 572.691C37.8073 566.491 51.2163 562.142 65.8529 560.569Z" fill="#4B1810"/>
<path d="M116.184 555.665C115.995 555.11 115.806 554.555 115.617 554.092C105.041 547.337 87.6662 543.543 68.4025 544.931C51.0275 546.134 35.8244 551.131 26.0037 558.071C25.9093 558.626 25.7204 559.089 25.626 559.644C35.1634 552.519 50.7442 547.244 68.497 546.042C88.3272 544.561 106.08 548.54 116.184 555.665Z" fill="#4B1810"/>
<path d="M105.986 538.362C105.419 537.714 104.758 537.159 104.191 536.511C94.0874 532.81 80.7728 531.237 66.4195 532.81C53.5771 534.198 41.9623 537.899 33.1804 542.896C32.7082 543.544 32.2361 544.284 31.7639 544.932C40.6403 539.472 52.8217 535.401 66.514 533.92C81.7171 532.255 95.7871 534.105 105.986 538.362Z" fill="#4B1810"/>
<path d="M283.229 692.983C272.465 678.733 264.721 663.651 261.322 650.511C261.227 650.048 261.133 649.678 261.039 649.216C260.755 649.401 260.378 649.586 260.094 649.863C260.189 650.141 260.189 650.511 260.283 650.789C263.683 664.021 271.52 679.289 282.38 693.631C292.578 707.141 304.004 717.967 314.674 724.907C314.958 724.722 315.241 724.537 315.619 724.259C304.948 717.412 293.428 706.586 283.229 692.983Z" fill="#4B1810"/>
</svg>
