<svg width="90" height="45" viewBox="0 0 90 45" fill="none" xmlns="http://www.w3.org/2000/svg">
<path d="M79.724 45H72.1697C59.246 45 48.7323 34.4863 48.7323 21.5626C48.7323 20.0114 47.4707 18.7497 45.9194 18.7497C44.3683 18.7497 43.1066 20.0113 43.1066 21.5626C43.1066 34.4863 32.5921 45 19.6691 45H15.9729C14.9375 45 14.0979 44.1604 14.0979 43.125C14.0979 42.0897 14.9375 41.2501 15.9729 41.2501H19.6691C30.5252 41.2501 39.3566 32.4178 39.3566 21.5626C39.3566 17.9437 42.3004 15 45.9193 15C49.5381 15 52.4819 17.9437 52.4819 21.5626C52.4819 32.418 61.3135 41.2501 72.1694 41.2501H79.7236C80.759 41.2501 81.5986 42.0897 81.5986 43.125C81.5986 44.1604 80.759 45 79.7236 45H79.724ZM6.66023 44.5013C6.43544 44.5013 6.20693 44.4604 5.98511 44.3748C5.91291 44.3465 5.84071 44.3182 5.76926 44.2884C4.8128 43.8917 4.35802 42.7953 4.75474 41.8389C5.15147 40.8825 6.24786 40.4277 7.20424 40.8244C7.24816 40.843 7.29207 40.8601 7.33599 40.8772C8.30212 41.2501 8.78297 42.3361 8.40931 43.3023C8.12274 44.0452 7.41265 44.5015 6.66013 44.5015L6.66023 44.5013ZM87.3955 40.6896C87.1276 40.6896 86.8559 40.6315 86.5968 40.5102C85.6597 40.0688 85.2585 38.9516 85.7007 38.0144C85.72 37.9734 85.7386 37.9318 85.7572 37.8901C86.1741 36.9418 87.2794 36.5108 88.2277 36.9269C89.176 37.343 89.6069 38.4491 89.1909 39.3974C89.1589 39.4696 89.1261 39.5418 89.0926 39.6132C88.7733 40.292 88.0989 40.6896 87.3955 40.6896ZM1.87747 36.9657C1.83355 36.9657 1.78889 36.9642 1.74349 36.9612C0.710353 36.8883 -0.0682076 35.9921 0.00473428 34.9589C0.34936 30.0754 4.45727 26.2503 9.35722 26.2503H19.6699C22.2549 26.2503 24.3578 24.1476 24.3578 21.5624C24.3578 9.67261 34.0311 0 45.9202 0C57.81 0 67.4826 9.67337 67.4826 21.5624C67.4826 24.1474 69.5853 26.2503 72.1705 26.2503H80.6082C82.9386 26.2503 85.1731 27.1107 86.8993 28.6746C87.6667 29.3698 87.7255 30.5556 87.031 31.3229C86.3358 32.091 85.1501 32.1498 84.3828 31.4539C83.3474 30.5168 82.0076 30.0002 80.609 30.0002H72.1713C67.5185 30.0002 63.7337 26.2154 63.7337 21.5625C63.7337 11.7404 55.7432 3.7501 45.9212 3.7501C36.0992 3.7501 28.1088 11.7405 28.1088 21.5625C28.1088 26.2154 24.3239 30.0002 19.6711 30.0002H9.35844C6.41828 30.0002 3.95393 32.2942 3.74775 35.2224C3.67704 36.2101 2.85381 36.9656 1.878 36.9656L1.87747 36.9657Z" fill="#4C160D"/>
<path d="M13.1084 45.0001C12.073 45.0001 11.2334 44.1605 11.2334 43.1251V28.1253C11.2334 27.09 12.073 26.2504 13.1084 26.2504C14.1437 26.2504 14.9833 27.09 14.9833 28.1253V43.1251C14.9833 44.1605 14.1437 45.0001 13.1084 45.0001Z" fill="#4C160D"/>
<path d="M28.1101 43.125C27.4588 43.125 26.8262 42.7856 26.4801 42.1798L18.9803 29.055C18.4667 28.1558 18.7786 27.0104 19.6777 26.4967C20.5769 25.9831 21.7223 26.2957 22.236 27.1949L29.7358 40.3196C30.2494 41.2188 29.9375 42.3642 29.0384 42.8779C28.7451 43.0447 28.425 43.125 28.1101 43.125Z" fill="#4C160D"/>
<path d="M44.9831 18.75C43.9477 18.75 43.1082 17.9105 43.1082 16.8751V3.75032C43.1082 2.71496 43.9477 1.87537 44.9831 1.87537C46.0185 1.87537 46.8581 2.71496 46.8581 3.75032V16.8751C46.8588 17.9105 46.0192 18.75 44.9831 18.75Z" fill="#4C160D"/>
<path d="M50.6064 20.6251C50.2491 20.6251 49.8874 20.5231 49.5681 20.3102C48.7061 19.7356 48.4739 18.5715 49.0478 17.7102L56.5476 6.4604C57.1222 5.59848 58.2856 5.36624 59.1476 5.94011C60.0095 6.51473 60.2418 7.67886 59.6679 8.54014L52.1681 19.7899C51.8071 20.3318 51.2123 20.6251 50.6064 20.6251Z" fill="#4C160D"/>
<path d="M52.4851 30C51.8338 30 51.2011 29.6606 50.8557 29.0547C50.3421 28.1556 50.654 27.0101 51.5539 26.4964L64.6787 18.9966C65.5771 18.483 66.7233 18.7949 67.237 19.6941C67.7506 20.5932 67.4387 21.7387 66.5388 22.2524L53.414 29.7522C53.12 29.9204 52.8007 30 52.4851 30Z" fill="#4C160D"/>
<path d="M58.108 39.375C57.5706 39.375 57.0377 39.1451 56.6663 38.7007C56.0038 37.905 56.111 36.723 56.9067 36.0599L68.1565 26.6851C68.9522 26.0219 70.1342 26.1298 70.7973 26.9248C71.4597 27.7205 71.3526 28.9025 70.5569 29.5656L59.3071 38.9403C58.9565 39.2329 58.5316 39.375 58.108 39.375Z" fill="#4C160D"/>
<path d="M37.4834 35.625C37.0033 35.625 36.5232 35.4419 36.1577 35.0757L24.908 23.8259C24.1755 23.0935 24.1755 21.9063 24.908 21.1738C25.6404 20.4414 26.8275 20.4414 27.56 21.1738L38.8098 32.4236C39.5422 33.1561 39.5422 34.3432 38.8098 35.0757C38.4436 35.4419 37.9635 35.625 37.4834 35.625Z" fill="#4C160D"/>
<path d="M41.2334 24.375C40.7533 24.375 40.2732 24.1919 39.9077 23.8257L28.658 12.5759C27.9255 11.8435 27.9255 10.6563 28.658 9.92385C29.3904 9.19138 30.5775 9.19142 31.31 9.92385L42.5598 21.1736C43.2922 21.9061 43.2922 23.0932 42.5598 23.8257C42.1936 24.1919 41.7135 24.375 41.2334 24.375Z" fill="#4C160D"/>
<path d="M80.6081 37.4999C80.1146 37.4999 79.6315 37.2997 79.2825 36.9506C78.9334 36.6015 78.7332 36.1184 78.7332 35.625C78.7332 35.13 78.9334 34.6484 79.2825 34.2993C79.6315 33.9487 80.1146 33.75 80.6081 33.75C81.1016 33.75 81.5847 33.9487 81.9337 34.2993C82.2828 34.6477 82.4831 35.1315 82.4831 35.625C82.4831 36.1184 82.2821 36.6 81.9337 36.9506C81.5854 37.2989 81.1016 37.4999 80.6081 37.4999Z" fill="#4C160D"/>
</svg>
