<?xml version="1.0" encoding="utf-8"?>
<!-- Generator: Adobe Illustrator 23.1.0, SVG Export Plug-In . SVG Version: 6.00 Build 0)  -->
<svg version="1.1" id="Calque_1" xmlns="http://www.w3.org/2000/svg" xmlns:xlink="http://www.w3.org/1999/xlink" x="0px" y="0px"
	 viewBox="0 0 208 365" style="enable-background:new 0 0 208 365;" xml:space="preserve">
<style type="text/css">
	.st0{fill:#B68176;}
	.st1{fill:#CD8F82;}
	.st2{fill:#4B1810;}
	.st3{fill:none;stroke:#1E1E1C;stroke-miterlimit:10;}
	.st4{fill:#6E170E;}
	.st5{fill:#33120E;}
	.st6{fill:#F08143;stroke:#1E1E1C;stroke-miterlimit:10;}
	.st7{fill:#FFFFFF;}
	.st8{fill:#943121;}
	.st9{fill:none;}
</style>
<path class="st0" d="M192.5,316.4c0.6-10.7-0.8-20.8-3.8-28.6c-0.4-0.9-0.8-1.9-1.2-2.7c-2.9,0.7-5.9,1.1-9.1,1.3
	c1.8,7.5,2.3,17,0.7,27.2c-1.3,8.2-3.5,15.6-6.5,21.7c5.6,0.2,11.2-0.1,16.7-0.8C191.1,329.1,192.2,322.9,192.5,316.4z"/>
<path class="st0" d="M178.7,313.5c1.5-10.1,1.1-19.7-0.7-27.1c-2.9,0.1-6,0-9.1-0.5c0.6,7.6-0.4,16.4-2.9,25.4
	c-2.3,8.3-5.8,16-9.9,22c5.4,1.1,10.8,1.8,16.2,2C175.1,329.2,177.4,321.7,178.7,313.5z"/>
<path class="st0" d="M142.3,275.8c0.1-0.3,0.2-0.6,0.3-0.9c-2.9-2-5.5-4-7.8-5.9c-0.6,2.3-1.7,4.8-3.2,7.4
	c-4.2,7.3-11.3,14.7-20.1,21c-2.3,1.6-4.5,3.1-6.8,4.4c-1.4,0.8-2.8,1.5-4.2,2.2c3.4,3.1,7.1,6,11.1,8.9c5.1-3.2,10.4-7.5,15.3-12.7
	C134.2,292.4,139.7,283.8,142.3,275.8z"/>
<path class="st0" d="M111.2,297c8.8-6.2,15.8-13.6,20-20.8c1.5-2.7,2.6-5.2,3.1-7.5c-2.7-2.4-5.1-4.7-7.2-7.2
	c-3.8,7.9-12.5,16.9-24.2,23.9c-0.5,0.3-0.9,0.5-1.4,0.8c-4.1,2.4-8.3,4.3-12.5,5.9c3.3,4,7,7.8,11.1,11.5
	C103.8,301.9,107.5,299.6,111.2,297z"/>
<path class="st0" d="M157.8,283c-2.3-0.8-4.5-1.8-6.9-3c0,0.1,0,0.1-0.1,0.2c-1.2,8.3-5.1,17.9-11,26.9c-4,6.1-8.5,11.4-13.1,15.4
	c4.4,2.3,9.1,4.4,13.6,6.2c4.4-5.2,8.6-12.2,11.8-20.2C155.8,299.7,157.7,290.8,157.8,283z"/>
<path class="st0" d="M168.3,285.8c-3.2-0.5-6.6-1.3-10-2.5c-0.1,7.8-2,16.7-5.6,25.5c-3.2,8-7.3,14.9-11.7,20.2
	c4.8,1.7,9.6,3.1,14.4,4.2c4.1-6,7.7-13.6,10-22C168,302.2,168.9,293.3,168.3,285.8z"/>
<path class="st0" d="M150.4,280.2c0-0.1,0-0.3,0.1-0.4c-2.3-1.2-4.8-2.7-7.2-4.3c-0.1,0-0.2-0.1-0.3-0.2c-0.1,0.2-0.1,0.5-0.2,0.7
	c-2.7,8-8.1,16.7-15.6,24.5c-4.9,5.2-10.2,9.5-15.3,12.7c1.2,0.9,2.5,1.8,3.9,2.7c3.4,2.3,7,4.5,10.5,6.3c4.5-4.1,9.1-9.4,13.1-15.4
	C145.3,298,149.2,288.5,150.4,280.2z"/>
<path class="st0" d="M102.6,285c11.7-7.1,20.4-16,24.1-23.8c-2.3-2.8-4.3-5.7-5.8-8.8c-4.7,6.6-12.1,13-20.8,18.2
	c-0.5,0.3-0.9,0.5-1.4,0.8c-6.5,3.7-12.9,6.4-18.8,7.9c2.6,4.3,5.5,8.5,8.7,12.5C93.2,290,98,287.8,102.6,285z"/>
<path class="st1" d="M115.2,195.9c0-0.1,0-0.1,0-0.1c0.1-3.1,0.3-6.3,0.5-9.5c0.5-12.7,0.7-26.8-0.4-41.1c-1.8,1.5-3.8,2.9-6,4.1
	c-4.1,2.4-8.9,4.3-14,5.6c-10.9,2.8-21.4,2.3-28.6-0.8c0.5,9.4,0.4,19.5,0,30.2c-0.1,3.1-0.3,6.1-0.4,9.2c-0.2,4.9-0.4,9.7-0.6,14.5
	c7,1.2,15.6,0.9,24.6-1.1C100.5,204.6,109.3,200.6,115.2,195.9z"/>
<path class="st0" d="M95.2,154.4c7.9-2,14.9-5.5,20-9.9c-0.8-10.1-2.3-20.3-4.9-30.3c-7.7-30-23.6-53.4-47.3-69.5
	c-11.2-7.6-26.4-4.6-34,6.6c-7.6,11.2-4.6,26.4,6.6,34c21.6,14.6,29.4,37.9,31.1,68.3C73.8,156.6,84.3,157.2,95.2,154.4z"/>
<path class="st0" d="M113.5,211.9c0.4-0.4,0.8-0.7,1.2-1.1c0.1-4.4,0.3-9.2,0.6-14.2c-1.6,1.2-3.4,2.4-5.3,3.5
	c-5.4,3.1-12.1,5.7-19.5,7.4c-9,2-17.7,2.3-24.7,1.1c-0.2,6.2-0.2,12.4,0.1,18.4c6.8,0.5,14.9-0.2,23.3-2.6
	C98.9,221.7,107.6,217.2,113.5,211.9z"/>
<path class="st0" d="M99.9,270.1c8.7-5.3,16.1-11.7,20.8-18.3c-2.2-4.5-3.7-9.2-4.6-14.5c-4.1,6-11.2,12.2-20.2,17.4
	c-1.4,0.8-2.9,1.6-4.4,2.4c-6.5,3.3-13,5.5-18.9,6.8c1.9,5.2,4.3,10.2,7,15C86,277.1,93,274.2,99.9,270.1z"/>
<path class="st0" d="M115.9,236.6c-0.6-3.7-1-7.6-1.2-11.9c-1,1.3-2.1,2.5-3.5,3.8c-2.6,2.5-5.8,4.8-9.4,6.8
	c-4.4,2.5-9.5,4.8-14.9,6.4c-6.8,2.1-13.4,3.1-19.3,3.3c0.6,3.7,1.5,7.4,2.5,11.1c0.7,2.4,1.5,4.8,2.3,7.1c6-1.2,12.4-3.5,18.9-6.7
	C102.4,250.9,111.3,243.5,115.9,236.6z"/>
<path class="st0" d="M110.9,228.1c1.5-1.4,2.8-2.8,3.8-4.2c-0.1-3.9-0.2-8-0.1-12.3c-0.3,0.2-0.5,0.5-0.8,0.8
	c-2.3,2.1-5.1,4.1-8.2,5.8c-4.9,2.8-10.4,5.1-16.4,6.8c-8.4,2.4-16.5,3.1-23.4,2.6c0.3,5.7,0.8,11.4,1.8,17
	c5.9-0.1,12.5-1.2,19.2-3.2C96.6,238.2,105.1,233.6,110.9,228.1z"/>
<path class="st0" d="M204.7,310c-0.9-9.2-3.8-17.6-7.9-23.8c-0.8-1.2-1.6-2.3-2.5-3.2c-2,0.8-4.1,1.5-6.2,2c0.4,0.8,0.8,1.7,1.1,2.7
	c3.1,7.8,4.5,18,3.8,28.8c-0.3,6.5-1.5,12.6-3,18c1.6-0.2,3.2-0.5,4.8-0.8c2.7-0.5,5.4-1.2,8-2C204.8,325.4,205.5,317.8,204.7,310z"
	/>
<path class="st2" d="M95.4,154.9c5.2-1.3,9.9-3.2,14-5.6c2.2-1.3,4.1-2.6,6-4.1c0-0.2,0-0.4,0-0.6c-5.1,4.4-12.2,7.8-20,9.9
	c-10.9,2.8-21.4,2.3-28.5-0.8c0,0.2,0,0.4,0.1,0.6C73.9,157.2,84.4,157.7,95.4,154.9z"/>
<path class="st2" d="M101.9,235.3c3.6-2,6.8-4.4,9.4-6.8c1.3-1.2,2.5-2.5,3.5-3.8c0-0.3-0.1-0.6,0-0.8c-1.1,1.4-2.3,2.8-3.8,4.2
	c-5.8,5.4-14.4,10.1-24.2,13.1c-6.7,2.1-13.3,3.1-19.2,3.2c0.1,0.2,0,0.3,0.1,0.5c5.9-0.1,12.6-1.2,19.3-3.3
	C92.4,240.1,97.5,237.8,101.9,235.3z"/>
<path class="st2" d="M110,200.1c2-1.1,3.7-2.3,5.3-3.5c0-0.2,0-0.4,0.1-0.7c-6,4.7-14.7,8.8-24.9,11c-9,2-17.6,2.3-24.6,1.1
	c0,0.1,0,0.4,0,0.5c7.1,1.1,15.7,0.9,24.7-1.1C97.8,205.8,104.5,203.2,110,200.1z"/>
<path class="st2" d="M105.7,218.1c3.1-1.8,5.9-3.8,8.2-5.8c0.3-0.2,0.5-0.5,0.8-0.8c0-0.2,0-0.5,0-0.7c-0.4,0.3-0.7,0.8-1.2,1.1
	c-5.9,5.3-14.7,9.8-24.4,12.5c-8.3,2.3-16.4,3.1-23.3,2.6c0,0.1,0,0.3,0,0.5c6.9,0.6,15-0.2,23.4-2.6
	C95.2,223.2,100.9,220.9,105.7,218.1z"/>
<path class="st2" d="M95.9,254.6c8.9-5.1,16-11.4,20.2-17.4c0-0.2-0.1-0.5-0.1-0.7c-4.7,7-13.5,14.4-24.7,20
	c-6.5,3.3-12.9,5.5-18.9,6.7c0.1,0.2,0.1,0.3,0.2,0.5c6-1.2,12.5-3.5,18.9-6.8C93,256.3,94.5,255.5,95.9,254.6z"/>
<path class="st2" d="M100.1,270.6c8.7-5.3,16-11.6,20.8-18.2c-0.1-0.2-0.2-0.4-0.3-0.5c-4.7,6.6-12.1,13-20.8,18.3
	c-6.9,4.1-13.9,7.1-20.3,8.6c0.1,0.2,0.2,0.3,0.2,0.5c5.9-1.5,12.4-4.1,18.8-7.9C99.2,271.1,99.6,270.8,100.1,270.6z"/>
<path class="st2" d="M102.9,285.4c11.7-7,20.4-15.9,24.2-23.9c-0.1-0.1-0.2-0.3-0.3-0.4c-3.7,7.9-12.4,16.8-24.1,23.8
	c-4.6,2.8-9.4,5.1-14,6.8c0.1,0.2,0.2,0.3,0.4,0.4c4.2-1.5,8.4-3.5,12.5-5.9C102,286,102.5,285.7,102.9,285.4z"/>
<path class="st2" d="M111.5,297.5c8.8-6.3,15.9-13.7,20.1-21c1.5-2.6,2.6-5.1,3.2-7.4c-0.1-0.1-0.3-0.3-0.4-0.4
	c-0.6,2.3-1.6,4.8-3.1,7.5c-4.1,7.3-11.2,14.6-20,20.8c-3.6,2.6-7.4,4.9-11.2,6.7c0.1,0.1,0.3,0.3,0.4,0.4c1.4-0.7,2.8-1.5,4.2-2.2
	C106.9,300.5,109.2,299,111.5,297.5z"/>
<path class="st2" d="M142.8,276c0.1-0.2,0.1-0.5,0.2-0.7c-0.2-0.1-0.3-0.2-0.5-0.3c-0.1,0.3-0.2,0.6-0.3,0.9
	c-2.6,7.9-8.1,16.5-15.5,24.4c-4.9,5.3-10.2,9.5-15.3,12.7c0.2,0.1,0.3,0.2,0.5,0.3c5.1-3.2,10.4-7.5,15.3-12.7
	C134.6,292.7,140.1,284,142.8,276z"/>
<path class="st2" d="M150.9,280.3c0-0.1,0-0.1,0.1-0.2c-0.2-0.1-0.3-0.2-0.5-0.2c0,0.1,0,0.3-0.1,0.4c-1.2,8.2-5.1,17.7-11,26.7
	c-4,6.2-8.5,11.4-13.1,15.4c0.2,0.1,0.3,0.2,0.4,0.3c4.5-4.1,9.1-9.4,13.1-15.4C145.8,298.2,149.7,288.6,150.9,280.3z"/>
<path class="st2" d="M158.4,283.3c-0.2-0.1-0.3-0.1-0.5-0.2c-0.1,7.8-2,16.7-5.6,25.5c-3.2,8-7.3,14.9-11.8,20.2
	c0.2,0.1,0.3,0.1,0.5,0.2c4.5-5.3,8.6-12.2,11.7-20.2C156.3,299.9,158.2,291,158.4,283.3z"/>
<path class="st2" d="M168.9,285.8c-0.1,0-0.4,0-0.5-0.1c0.7,7.6-0.4,16.4-2.8,25.3c-2.4,8.4-5.8,16-10,22c0.1,0,0.4,0.1,0.5,0.1
	c4.1-6,7.6-13.6,9.9-22C168.4,302.3,169.5,293.4,168.9,285.8z"/>
<path class="st2" d="M179.2,313.6c1.5-10.2,1.1-19.7-0.7-27.2c-0.1,0-0.3,0-0.5,0c1.8,7.5,2.2,17,0.7,27.1
	c-1.2,8.2-3.6,15.7-6.5,21.8c0.2,0,0.4,0,0.6,0C175.7,329.2,178,321.7,179.2,313.6z"/>
<path class="st2" d="M193.1,316.4c0.6-10.8-0.8-21-3.8-28.8c-0.4-0.9-0.8-1.8-1.1-2.7c-0.2,0.1-0.3,0-0.5,0.1
	c0.4,0.8,0.8,1.7,1.2,2.7c3.1,7.7,4.4,17.9,3.8,28.6c-0.4,6.6-1.4,12.7-3,18.1c0.2,0,0.3,0,0.6-0.1
	C191.6,329,192.7,322.9,193.1,316.4z"/>
<path class="st2" d="M205.2,309.9c-1-9.2-3.8-17.8-8-24c-0.8-1.2-1.6-2.2-2.5-3.2c-0.2,0.1-0.4,0.1-0.5,0.2c0.9,1,1.7,2,2.5,3.2
	c4.1,6.1,7,14.6,7.9,23.8c0.8,7.8,0.1,15.4-1.8,21.7c0.2-0.1,0.4-0.1,0.6-0.1C205.4,325.2,206,317.7,205.2,309.9z"/>
<path class="st3" d="M98.6,115.1c-3.8-3.4-9.2-4.7-14.6-3.4"/>
<path class="st4" d="M87.8,135.6c1.4-0.6,2.7-0.7,2.7-0.7s0.9-0.5,1.4-0.8c0.9-0.5,2.2-1.1,4.3-1.1c1.1,0,2.6,0.1,3.9,0.3
	c0-1.2-0.3-2.5-0.7-3.7c-1.9-4.9-7.3-7.5-12.4-6.1c0,0.4,0.2,1.1,0.4,1.5c0.2,0.5,1.2,0.9,1.5,1.6c0.6,1.5-0.4,2.1-1,2.3
	c-1.3,0.4-2.3-0.3-2.4-1.2c-0.1-0.8,0.1-1.3,0.2-1.7s-0.3-1-0.5-1.4c-0.1-0.1-0.2-0.2-0.3-0.3c-4.6,2.5-6.7,8-4.8,12.9
	c0.5,1.2,1.1,2.2,2,3.1c0.3-0.5,0.8-1.1,1.7-2C84.9,137.3,86.4,136.2,87.8,135.6z"/>
<path class="st3" d="M81.7,112.4c-6.3,2.5-10.3,8.2-10.6,14.3"/>
<path class="st5" d="M99.7,116.1c-0.3-0.4-0.7-0.8-1.1-1c-3.8-3.4-9.2-4.7-14.6-3.4c-0.8,0.2-1.5,0.5-2.3,0.7
	c-6.3,2.5-10.3,8.2-10.6,14.3c0,0.5,0,1,0,1.5c0.1,1.5,0.4,3,1,4.5c0.1,0.3,0.2,0.4,0.3,0.6c0,0.1,0,0.1,0,0.1
	c0.1,0.2,0.2,0.4,0.3,0.6l0,0.1c0.1,0.2,0.2,0.4,0.3,0.5c0,0.1,0,0.1,0,0.1c0.1,0.2,0.2,0.4,0.3,0.6c0,0.1,0,0.1,0,0.1
	c0.1,0.2,0.3,0.3,0.3,0.5c0,0.1,0,0.1,0.1,0.1c0.1,0.2,0.3,0.3,0.4,0.5c0,0.1,0.1,0,0.1,0.1c0.1,0.2,0.2,0.3,0.3,0.4
	c0,0.1,0.1,0.1,0.1,0.1c0.1,0.2,0.3,0.3,0.5,0.5c0,0.1,0.1,0.1,0.1,0.1c0.1,0.1,0.2,0.2,0.4,0.4c0,0.1,0.1,0.1,0.1,0.1
	c0.2,0.1,0.3,0.3,0.5,0.4c0.1,0,0.1,0.1,0.2,0.1c0.1,0.1,0.3,0.2,0.4,0.3c0.1,0,0.1,0.1,0.2,0.1c0.2,0.1,0.3,0.3,0.5,0.3
	c0.1,0,0.2,0.1,0.2,0.1c0.1,0.1,0.3,0.1,0.4,0.2c0.1,0,0.2,0.1,0.3,0.1c0.2,0.1,0.3,0.2,0.4,0.3c0.1,0,0.2,0.1,0.3,0.1
	c0.1,0.1,0.3,0.1,0.4,0.2c0.1,0,0.3,0.1,0.3,0.2c0.1,0,0.3,0.1,0.4,0.1c0.1,0,0.2,0.1,0.3,0.1c0.1,0,0.3,0.1,0.4,0.1
	c0.1,0,0.2,0.1,0.4,0.1c0.2-0.3,0.3-0.7,0.6-1.1c-0.8-0.9-1.5-2-2-3.1c-1.9-4.9,0.2-10.5,4.8-12.9c0.1,0.1,0.2,0.2,0.3,0.3
	c0.3,0.3,0.5,0.9,0.5,1.4c-0.1,0.4-0.3,0.9-0.2,1.7c0.1,0.9,1.1,1.6,2.4,1.2c0.6-0.2,1.6-0.8,1-2.3c-0.2-0.7-1.3-1.1-1.5-1.6
	c-0.2-0.4-0.4-1.1-0.4-1.5c5-1.4,10.4,1.2,12.4,6.1c0.5,1.2,0.7,2.4,0.7,3.7c0.6,0.1,1.1,0.2,1.6,0.2c0.1-0.2,0.2-0.3,0.3-0.4
	c0-0.1,0.1-0.2,0.1-0.3c0-0.1,0.1-0.3,0.2-0.3c0-0.1,0.1-0.2,0.1-0.3c0.1-0.2,0.2-0.3,0.2-0.5c0-0.1,0.1-0.2,0.1-0.3
	c0-0.1,0.1-0.2,0.1-0.3c0-0.1,0.1-0.2,0.1-0.3c0-0.1,0.1-0.3,0.1-0.4c0-0.1,0.1-0.2,0.1-0.4c0-0.1,0.1-0.2,0-0.3
	c0-0.1,0.1-0.2,0.1-0.4c0-0.1,0-0.1,0.1-0.2c0-0.2,0.1-0.4,0.1-0.6c0-0.1,0-0.1,0.1-0.2c0-0.1,0-0.3,0.1-0.4c0-0.1,0-0.1,0-0.2
	c0-0.2,0-0.4,0.1-0.6c0-0.1,0-0.1,0-0.2c0-0.1,0-0.3,0-0.5c0-0.1,0-0.1,0-0.2c0-0.2,0-0.4,0-0.6c0-0.1,0-0.1,0-0.1
	c0-0.2,0-0.3-0.1-0.6c0-0.1,0-0.1,0-0.2c0-0.2-0.1-0.4-0.1-0.7c0-0.1,0-0.1,0-0.1c-0.1-0.2-0.1-0.4-0.1-0.5c0-0.1,0-0.1-0.1-0.2
	c-0.1-0.2-0.1-0.5-0.2-0.7l0-0.1c-0.1-0.2-0.1-0.4-0.2-0.6c0-0.1,0-0.1-0.1-0.2c-0.1-0.2-0.2-0.4-0.2-0.7
	C101.8,119,100.9,117.4,99.7,116.1z"/>
<path class="st3" d="M84.3,142c-0.1,0-0.4-0.1-0.5-0.1C83.9,142,84.1,142,84.3,142z"/>
<path class="st1" d="M100.1,133.2c-1.3-0.2-2.7-0.3-3.9-0.3c-2.1,0.1-3.5,0.6-4.3,1.1c-0.5,0.3-1.4,0.8-1.4,0.8s-1.3,0.2-2.7,0.7
	s-3,1.7-4,2.7c-0.8,0.9-1.3,1.5-1.7,2c-0.3,0.4-0.5,0.7-0.6,1.1c0.1,0,0.2,0.1,0.3,0.1c0.1,0,0.2,0.1,0.3,0.1c0.1,0,0.3,0,0.4,0.1
	c0.1,0,0.2,0.1,0.4,0.1c0.1,0,0.2,0.1,0.3,0.1c0.1,0,0.2,0.1,0.3,0c0.1,0,0.4,0.1,0.5,0.1c2.8,0.4,5.9,0.1,8.8-1
	c2.7-1.1,4.9-2.7,6.6-4.7c0.1-0.1,0.1-0.2,0.2-0.3c0.1-0.1,0.3-0.3,0.4-0.4c0-0.1,0.1-0.1,0.1-0.2c0.1-0.1,0.1-0.2,0.2-0.4
	c0.1,0,0-0.1,0.1-0.1c0.1-0.2,0.3-0.4,0.4-0.6c0-0.1,0.1-0.1,0.1-0.2c0.1-0.1,0.1-0.3,0.2-0.4c0-0.1,0.1-0.1,0.1-0.2
	c0-0.1,0-0.1,0.1-0.2C101.2,133.4,100.7,133.3,100.1,133.2z"/>
<path class="st3" d="M99.9,136c-0.1,0.1-0.1,0.2-0.2,0.3"/>
<path class="st6" d="M99.9,136c0.1-0.1,0.2-0.3,0.4-0.4C100.2,135.7,100.1,135.9,99.9,136z"/>
<path class="st7" d="M77.3,123l4.5-1.8c1.4-0.6,2.2-2.2,1.6-3.6l-1.8-4.7c0-0.1-0.1-0.3-0.2-0.4c-3.7,1.5-6.4,4.1-8.2,7.3l0.7,1.7
	C74.3,122.9,76,123.6,77.3,123z"/>
<path class="st7" d="M83.6,117.6c0.6,1.4,2.2,2.1,3.6,1.6l4.5-1.8c1.4-0.6,2.2-2.2,1.6-3.6l-0.7-1.9c-3.4-0.9-7.2-0.8-10.8,0.6
	c0,0,0,0-0.1,0c0,0.1,0.1,0.3,0.2,0.4L83.6,117.6z"/>
<path class="st7" d="M92.7,112l0.5,1.2c0.6,1.4,2.2,2.2,3.6,1.6l0.8-0.4C96.2,113.3,94.5,112.5,92.7,112z"/>
<path class="st7" d="M73.4,121l-0.4-0.9c-0.8,1.5-1.4,3.1-1.7,4.8l0.5-0.2C73.2,124,73.9,122.4,73.4,121z"/>
<path class="st7" d="M89.7,138l-1.4,0.6c-0.8,0.4-1.1,1.2-0.9,2l0.6,1.6c1.5-0.2,3-0.5,4.5-1.1l-0.9-2.3
	C91.5,138.1,90.6,137.7,89.7,138z"/>
<path class="st7" d="M94.3,136.2l-1.4,0.6c-0.8,0.4-1.1,1.2-0.9,2l0.9,2.3c1.4-0.6,2.8-1.3,4-2.2l-0.7-1.7
	C96,136.3,95.1,135.9,94.3,136.2z"/>
<path class="st7" d="M98.7,134.2l-1.4,0.6c-0.8,0.4-1.1,1.2-0.9,2l0.7,1.9c1.3-1,2.5-2.3,3.4-3.6C100.3,134.3,99.5,134,98.7,134.2z"
	/>
<path class="st7" d="M100.8,134.4l0.1,0.3c0.5-0.8,1-1.6,1.4-2.5l-0.6,0.2C100.8,132.7,100.4,133.6,100.8,134.4z"/>
<path class="st7" d="M85.2,139.6l-1.4,0.6c-0.7,0.2-1.1,1-1,1.7c1.6,0.4,3.3,0.5,5,0.4l-0.7-1.7C86.8,139.6,86,139.3,85.2,139.6z"/>
<path class="st7" d="M80.4,140.8l-0.3,0.1c0.7,0.3,1.5,0.6,2.3,0.8l0-0.1C82.1,140.9,81.2,140.5,80.4,140.8z"/>
<path class="st8" d="M80.2,109c-10.5,4.2-15.8,15.5-11.9,25.4c3.9,9.9,15.6,14.5,26,10.3c10.5-4.2,15.8-15.5,11.9-25.4
	C102.3,109.5,90.7,104.8,80.2,109z M93,141c-8.4,3.3-17.7-0.4-20.8-8.3c-3.1-7.9,1.1-17,9.5-20.3s17.7,0.4,20.8,8.3
	C105.7,128.6,101.4,137.7,93,141z"/>
<g>
	<path class="st9" d="M201.1,281.1c-0.3-0.4-0.7-0.7-1-1C200.4,280.5,200.8,280.8,201.1,281.1z"/>
	<path class="st0" d="M200.8,281.6c-0.4-0.4-0.8-0.8-1.2-1.1c0,0,0,0,0,0c0,0,0,0,0,0c-1.5,0.9-3.1,1.7-4.8,2.3
		c0.8,0.9,1.6,2,2.5,3.2c4.2,6.2,7,14.7,8,24c0.8,7.7,0.2,15.3-1.7,21.5c1.5-0.4,3-0.9,4.5-1.4v-38.4
		C205.9,287.7,203.5,284.3,200.8,281.6z"/>
	<path class="st0" d="M200.1,280.1c0.3,0.3,0.7,0.6,1,1c2.5,2.6,4.8,5.7,6.9,9.2v-10c-1-0.9-2-1.8-3.1-2.6c-0.2-0.1-0.4-0.3-0.6-0.4
		C203,278.3,201.5,279.2,200.1,280.1C200.1,280.1,200.1,280.1,200.1,280.1C200.1,280.1,200.1,280.1,200.1,280.1
		C200.1,280.1,200.1,280.1,200.1,280.1z"/>
	<path class="st0" d="M205.3,277.4c0.9,0.7,1.8,1.5,2.7,2.3v-5.4c-1,1-2.1,1.9-3.3,2.8c0,0,0,0,0.1,0.1c0,0,0,0,0,0
		C205,277.1,205.1,277.2,205.3,277.4z"/>
	<path class="st2" d="M208,291.4v-1c-2-3.6-4.3-6.8-6.9-9.3c-0.3-0.4-0.7-0.7-1-1c0,0,0,0,0,0c-0.2,0.1-0.3,0.2-0.4,0.3
		c0.4,0.3,0.7,0.8,1.1,1.1C203.5,284.2,205.9,287.6,208,291.4z"/>
	<path class="st2" d="M200.8,281.6c2.7,2.7,5.1,6.1,7.2,10v-0.1C205.9,287.6,203.5,284.2,200.8,281.6c-0.4-0.4-0.8-0.8-1.2-1.2
		c0,0,0,0,0,0C200,280.8,200.4,281.1,200.8,281.6z"/>
	<path class="st2" d="M200.1,280.1C200.1,280.1,200.1,280.1,200.1,280.1C200.1,280.1,200.1,280.1,200.1,280.1
		C200.1,280.1,200.1,280.1,200.1,280.1z"/>
	<path class="st2" d="M201.1,281.1c2.5,2.6,4.8,5.7,6.9,9.3v-0.1C206,286.8,203.7,283.7,201.1,281.1z"/>
	<path class="st2" d="M205.2,277.3c-0.1-0.1-0.3-0.2-0.4-0.3c-0.2,0.1-0.3,0.2-0.4,0.3c0.2,0.1,0.4,0.3,0.6,0.4c1,0.8,2,1.6,3,2.5
		v-0.6C207.1,278.8,206.1,278,205.2,277.3z"/>
	<path class="st2" d="M208,279.6L208,279.6c-0.9-0.8-1.8-1.6-2.7-2.3c-0.2-0.1-0.3-0.3-0.5-0.3c0,0,0,0,0,0c0.1,0.1,0.3,0.2,0.4,0.3
		C206.1,278,207.1,278.8,208,279.6z"/>
</g>
</svg>
