<?xml version="1.0" encoding="utf-8"?>
<!-- Generator: Adobe Illustrator 23.1.0, SVG Export Plug-In . SVG Version: 6.00 Build 0)  -->
<svg version="1.1" id="Calque_1" xmlns="http://www.w3.org/2000/svg" xmlns:xlink="http://www.w3.org/1999/xlink" x="0px" y="0px"
	 viewBox="0 0 262 74" style="enable-background:new 0 0 262 74;" xml:space="preserve">
<style type="text/css">
	.st0{fill:#F7D8B3;}
</style>
<path class="st0" d="M99,72.9h-9.4c-16.1,0-29.1-13.1-29.1-29.1c0-1.9-1.6-3.5-3.5-3.5c-1.9,0-3.5,1.6-3.5,3.5
	c0,16.1-13.1,29.1-29.1,29.1h-4.6c-1.3,0-2.3-1-2.3-2.3c0-1.3,1-2.3,2.3-2.3h4.6c13.5,0,24.5-11,24.5-24.5c0-4.5,3.7-8.2,8.2-8.2
	s8.2,3.7,8.2,8.2c0,13.5,11,24.5,24.5,24.5H99c1.3,0,2.3,1,2.3,2.3C101.4,71.9,100.3,72.9,99,72.9L99,72.9z M8.3,72.3
	c-0.3,0-0.6-0.1-0.8-0.2c-0.1,0-0.2-0.1-0.3-0.1c-1.2-0.5-1.8-1.9-1.3-3c0.5-1.2,1.9-1.8,3-1.3c0.1,0,0.1,0,0.2,0.1
	c1.2,0.5,1.8,1.8,1.3,3C10.1,71.7,9.2,72.3,8.3,72.3L8.3,72.3z M108.6,67.5c-0.3,0-0.7-0.1-1-0.2c-1.2-0.5-1.7-1.9-1.1-3.1
	c0-0.1,0-0.1,0.1-0.2c0.5-1.2,1.9-1.7,3.1-1.2c1.2,0.5,1.7,1.9,1.2,3.1c0,0.1-0.1,0.2-0.1,0.3C110.3,67.1,109.4,67.5,108.6,67.5z
	 M2.3,62.9c-0.1,0-0.1,0-0.2,0c-1.3-0.1-2.3-1.2-2.2-2.5c0.4-6.1,5.5-10.8,11.6-10.8h12.8c3.2,0,5.8-2.6,5.8-5.8
	C30.3,29,42.3,17,57,17c14.8,0,26.8,12,26.8,26.8c0,3.2,2.6,5.8,5.8,5.8h10.5c2.9,0,5.7,1.1,7.8,3c1,0.9,1,2.3,0.2,3.3
	c-0.9,1-2.3,1-3.3,0.2c-1.3-1.2-3-1.8-4.7-1.8H89.7c-5.8,0-10.5-4.7-10.5-10.5c0-12.2-9.9-22.1-22.1-22.1s-22.1,9.9-22.1,22.1
	c0,5.8-4.7,10.5-10.5,10.5H11.6c-3.7,0-6.7,2.8-7,6.5C4.6,62,3.5,62.9,2.3,62.9L2.3,62.9z"/>
<path class="st0" d="M16.3,72.9c-1.3,0-2.3-1-2.3-2.3V51.9c0-1.3,1-2.3,2.3-2.3c1.3,0,2.3,1,2.3,2.3v18.6
	C18.6,71.9,17.6,72.9,16.3,72.9z"/>
<path class="st0" d="M34.9,70.6c-0.8,0-1.6-0.4-2-1.2l-9.3-16.3c-0.6-1.1-0.3-2.5,0.9-3.2c1.1-0.6,2.5-0.2,3.2,0.9l9.3,16.3
	c0.6,1.1,0.3,2.5-0.9,3.2C35.7,70.5,35.3,70.6,34.9,70.6z"/>
<path class="st0" d="M55.9,40.3c-1.3,0-2.3-1-2.3-2.3V21.7c0-1.3,1-2.3,2.3-2.3c1.3,0,2.3,1,2.3,2.3V38
	C58.2,39.3,57.2,40.3,55.9,40.3z"/>
<path class="st0" d="M62.9,42.6c-0.4,0-0.9-0.1-1.3-0.4c-1.1-0.7-1.4-2.2-0.6-3.2l9.3-14c0.7-1.1,2.2-1.4,3.2-0.6
	c1.1,0.7,1.4,2.2,0.6,3.2l-9.3,14C64.4,42.3,63.6,42.6,62.9,42.6z"/>
<path class="st0" d="M65.2,54.3c-0.8,0-1.6-0.4-2-1.2c-0.6-1.1-0.3-2.5,0.9-3.2l16.3-9.3c1.1-0.6,2.5-0.3,3.2,0.9
	c0.6,1.1,0.3,2.5-0.9,3.2L66.4,54C66,54.2,65.6,54.3,65.2,54.3z"/>
<path class="st0" d="M72.2,65.9c-0.7,0-1.3-0.3-1.8-0.8c-0.8-1-0.7-2.5,0.3-3.3l14-11.6c1-0.8,2.5-0.7,3.3,0.3
	c0.8,1,0.7,2.5-0.3,3.3l-14,11.6C73.2,65.7,72.7,65.9,72.2,65.9z"/>
<path class="st0" d="M46.6,61.3c-0.6,0-1.2-0.2-1.6-0.7l-14-14c-0.9-0.9-0.9-2.4,0-3.3c0.9-0.9,2.4-0.9,3.3,0l14,14
	c0.9,0.9,0.9,2.4,0,3.3C47.8,61,47.2,61.3,46.6,61.3z"/>
<path class="st0" d="M51.2,47.3c-0.6,0-1.2-0.2-1.6-0.7l-14-14c-0.9-0.9-0.9-2.4,0-3.3c0.9-0.9,2.4-0.9,3.3,0l14,14
	c0.9,0.9,0.9,2.4,0,3.3C52.4,47.1,51.8,47.3,51.2,47.3z"/>
<path class="st0" d="M100.1,63.6c-0.6,0-1.2-0.2-1.6-0.7c-0.4-0.4-0.7-1-0.7-1.6c0-0.6,0.2-1.2,0.7-1.6c0.4-0.4,1-0.7,1.6-0.7
	c0.6,0,1.2,0.2,1.6,0.7c0.4,0.4,0.7,1,0.7,1.6c0,0.6-0.3,1.2-0.7,1.6C101.4,63.3,100.8,63.6,100.1,63.6z"/>
<path class="st0" d="M171.7,55.7c0.6,0,1.1,0.1,1.3,0.4c0.3,0.3,0.4,0.6,0.4,1c0,0.7-0.2,1.3-0.6,1.8c-0.4,0.5-1,0.8-1.9,0.8
	c-2.1,0-4-0.1-5.7-0.5c-1.9,4-4.1,7.3-6.8,9.9c-2.6,2.6-5.2,3.9-7.8,3.9c-2.3,0-4.1-1.2-5.3-3.7c-1.2-2.5-1.8-5.9-2-10
	c-1.6,4.6-3.4,8.1-5.4,10.4c-2,2.3-4.1,3.4-6.4,3.4c-2.6,0-4.5-1.6-5.8-4.8c-1.3-3.2-2-7.5-2-12.9c0-3.9,0.3-8.2,1-12.9
	c0.2-1.3,0.5-2.3,1-2.8c0.5-0.5,1.3-0.8,2.4-0.8c0.8,0,1.4,0.2,1.8,0.5c0.5,0.3,0.7,1,0.7,1.9c0,0.2,0,0.5-0.1,1.1
	c-0.8,5.5-1.2,10.1-1.2,14c0,3.6,0.3,6.3,0.9,8.3c0.6,1.9,1.4,2.9,2.5,2.9c0.9,0,2.1-1,3.4-2.9c1.3-2,2.7-4.9,4-8.7
	c1.3-3.9,2.4-8.5,3.3-13.8c0.2-1.2,0.6-2.1,1.2-2.5c0.6-0.5,1.4-0.7,2.4-0.7c0.8,0,1.4,0.2,1.8,0.6c0.4,0.3,0.6,0.9,0.6,1.6
	c0,0.4,0,0.8-0.1,1c-0.7,4.3-1.1,8.7-1.1,13c0,3,0.1,5.3,0.3,7.1c0.2,1.8,0.6,3.1,1.2,4c0.6,0.9,1.4,1.4,2.5,1.4
	c1.3,0,2.7-1,4.3-2.9c1.6-1.9,3-4.4,4.3-7.2c-1.6-1-2.9-2.3-3.7-3.9c-0.8-1.6-1.2-3.5-1.2-5.6c0-2.1,0.3-3.9,1-5.3
	c0.7-1.5,1.6-2.6,2.7-3.3c1.1-0.7,2.4-1.1,3.8-1.1c1.7,0,3.1,0.6,4,1.8c1,1.2,1.5,2.9,1.5,5c0,3-0.7,6.4-2,10
	C168.3,55.6,169.9,55.7,171.7,55.7z M159.9,47.8c0,2.6,0.8,4.5,2.5,5.8c1-3,1.6-5.5,1.6-7.4c0-1.1-0.1-1.9-0.4-2.4
	c-0.3-0.5-0.7-0.8-1.2-0.8c-0.7,0-1.3,0.4-1.8,1.3C160.1,45.1,159.9,46.3,159.9,47.8z M224.4,55.7c0.6,0,1.1,0.1,1.3,0.4
	c0.3,0.3,0.4,0.6,0.4,1c0,0.7-0.2,1.3-0.6,1.8c-0.4,0.5-1,0.8-1.9,0.8c-2.1,0-4-0.1-5.7-0.5c-1.9,4-4.1,7.3-6.8,9.9
	c-2.6,2.6-5.2,3.9-7.8,3.9c-2.3,0-4.1-1.2-5.3-3.7c-1.2-2.5-1.8-5.9-2-10c-1.6,4.6-3.4,8.1-5.4,10.4c-2,2.3-4.1,3.4-6.4,3.4
	c-2.6,0-4.5-1.6-5.8-4.8c-1.3-3.2-2-7.5-2-12.9c0-3.9,0.3-8.2,1-12.9c0.2-1.3,0.5-2.3,1-2.8c0.5-0.5,1.3-0.8,2.4-0.8
	c0.8,0,1.4,0.2,1.8,0.5c0.5,0.3,0.7,1,0.7,1.9c0,0.2,0,0.5-0.1,1.1c-0.8,5.5-1.2,10.1-1.2,14c0,3.6,0.3,6.3,0.9,8.3
	c0.6,1.9,1.4,2.9,2.5,2.9c0.9,0,2.1-1,3.4-2.9c1.3-2,2.7-4.9,4-8.7c1.3-3.9,2.4-8.5,3.3-13.8c0.2-1.2,0.6-2.1,1.2-2.5
	c0.6-0.5,1.4-0.7,2.4-0.7c0.8,0,1.4,0.2,1.8,0.6c0.4,0.3,0.6,0.9,0.6,1.6c0,0.4,0,0.8-0.1,1c-0.7,4.3-1.1,8.7-1.1,13
	c0,3,0.1,5.3,0.3,7.1c0.2,1.8,0.6,3.1,1.2,4c0.6,0.9,1.4,1.4,2.5,1.4c1.3,0,2.7-1,4.3-2.9c1.6-1.9,3-4.4,4.3-7.2
	c-1.6-1-2.9-2.3-3.7-3.9c-0.8-1.6-1.2-3.5-1.2-5.6c0-2.1,0.3-3.9,1-5.3c0.7-1.5,1.6-2.6,2.7-3.3c1.1-0.7,2.4-1.1,3.8-1.1
	c1.7,0,3.1,0.6,4,1.8c1,1.2,1.5,2.9,1.5,5c0,3-0.7,6.4-2,10C221,55.6,222.6,55.7,224.4,55.7z M212.6,47.8c0,2.6,0.8,4.5,2.5,5.8
	c1-3,1.6-5.5,1.6-7.4c0-1.1-0.1-1.9-0.4-2.4c-0.3-0.5-0.7-0.8-1.2-0.8c-0.7,0-1.3,0.4-1.8,1.3C212.8,45.1,212.6,46.3,212.6,47.8z
	 M259.8,39.8c0.7,0.1,1.3,0.3,1.5,0.7c0.3,0.3,0.4,0.8,0.4,1.4c0,1.8-1,2.7-3,2.6l-1.4-0.1c-1.6-0.1-3.1-0.2-4.7-0.3
	c-1.5-0.1-3.2-0.1-4.9-0.1H246c-0.3,3.9-0.7,7.5-1,10.8l6.9-0.1c1,0,1.6,0.2,2,0.5c0.3,0.3,0.5,0.8,0.5,1.4c0,0.9-0.3,1.6-0.8,2.2
	c-0.5,0.5-1.3,0.8-2.3,0.8h-6.8l-0.2,1.7c-0.6,4.4-1.8,7.5-3.6,9.4c-1.8,1.9-4.3,2.8-7.5,2.8c-1.8,0-3.5-0.4-5-1.2
	c-1.5-0.8-2.6-1.8-3.4-2.9c-0.3-0.5-0.4-1-0.4-1.6s0.1-1.2,0.4-1.7c0.3-0.5,0.7-0.7,1.2-0.7c0.3,0,0.6,0.1,0.9,0.3
	c0.3,0.2,0.7,0.6,1.2,1.2c1.3,1.7,2.9,2.5,4.8,2.5c1.5,0,2.8-0.6,3.8-1.8c1-1.3,1.7-3.2,2-5.9l0.2-2.2h-1.9c-0.6,0-1.1-0.2-1.6-0.5
	c-0.4-0.3-0.6-0.8-0.6-1.5c0-0.8,0.2-1.5,0.6-1.9c0.4-0.5,1.1-0.7,1.9-0.7c0.7,0,1.5,0,2.2,0c0.3-2.9,0.7-6.5,1-10.7
	c-2.9,0.3-4.9,0.7-6.1,1.4c-1.2,0.7-1.8,1.7-1.8,3c0,0.9,0.3,1.8,0.8,2.6c0.2,0.2,0.2,0.5,0.2,0.7c0,0.5-0.3,0.9-0.8,1.3
	c-0.5,0.3-1.1,0.5-1.8,0.5c-0.7,0-1.3-0.2-1.8-0.6c-0.3-0.3-0.6-0.8-0.9-1.6c-0.3-0.8-0.4-1.7-0.4-2.8c0-3.3,1.7-5.7,5.1-7.2
	c3.4-1.5,8.4-2.2,14.9-2.2C252.4,39.1,256.4,39.4,259.8,39.8z"/>
</svg>
